<svg width="16" height="16" viewBox="0 0 16 16" fill="none" xmlns="http://www.w3.org/2000/svg">
<path d="M6.66667 4.33333C6.66667 3.04467 5.622 2 4.33333 2V2C3.04467 2 2 3.04467 2 4.33333V4.33333C2 5.622 3.04467 6.66667 4.33333 6.66667V6.66667C5.622 6.66667 6.66667 5.622 6.66667 4.33333V4.33333Z" stroke="#1C1C1C" stroke-width="1.25" stroke-linecap="round" stroke-linejoin="round"/>
<path d="M14 4.33333C14 3.04467 12.9553 2 11.6667 2V2C10.378 2 9.33333 3.04467 9.33333 4.33333V4.33333C9.33333 5.622 10.378 6.66667 11.6667 6.66667V6.66667C12.9553 6.66667 14 5.622 14 4.33333V4.33333Z" stroke="#1C1C1C" stroke-width="1.25" stroke-linecap="round" stroke-linejoin="round"/>
<path d="M14 11.6667C14 10.378 12.9553 9.33333 11.6667 9.33333V9.33333C10.378 9.33333 9.33333 10.378 9.33333 11.6667V11.6667C9.33333 12.9553 10.378 14 11.6667 14V14C12.9553 14 14 12.9553 14 11.6667V11.6667Z" stroke="#1C1C1C" stroke-width="1.25" stroke-linecap="round" stroke-linejoin="round"/>
<path d="M6.66667 11.6667C6.66667 10.378 5.622 9.33333 4.33333 9.33333V9.33333C3.04467 9.33333 2 10.378 2 11.6667V11.6667C2 12.9553 3.04467 14 4.33333 14V14C5.622 14 6.66667 12.9553 6.66667 11.6667V11.6667Z" stroke="#1C1C1C" stroke-width="1.25" stroke-linecap="round" stroke-linejoin="round"/>
</svg>
