<svg width="32" height="32" viewBox="0 0 32 32" fill="none" xmlns="http://www.w3.org/2000/svg">
<path d="M27 16C27 9.92043 22.0802 5 16 5C9.92043 5 5 9.91975 5 16C5 22.0257 9.87863 27 16 27C22.0962 27 27 22.0534 27 16ZM16 6.28906C21.3546 6.28906 25.7109 10.6454 25.7109 16C25.7109 17.9588 25.1283 19.8415 24.0479 21.4362C19.7094 16.7694 12.2985 16.761 7.95209 21.4362C6.87166 19.8415 6.28906 17.9588 6.28906 16C6.28906 10.6454 10.6454 6.28906 16 6.28906ZM8.75607 22.4668C12.6135 18.14 19.3875 18.1411 23.2438 22.4668C19.3734 26.7969 12.6281 26.7982 8.75607 22.4668Z" fill="#999999"/>
<path d="M16 16.6445C18.1323 16.6445 19.8672 14.9097 19.8672 12.7773V11.4883C19.8672 9.35596 18.1323 7.62109 16 7.62109C13.8677 7.62109 12.1328 9.35596 12.1328 11.4883V12.7773C12.1328 14.9097 13.8677 16.6445 16 16.6445ZM13.4219 11.4883C13.4219 10.0666 14.5783 8.91016 16 8.91016C17.4217 8.91016 18.5781 10.0666 18.5781 11.4883V12.7773C18.5781 14.199 17.4217 15.3555 16 15.3555C14.5783 15.3555 13.4219 14.199 13.4219 12.7773V11.4883Z" fill="#999999"/>
</svg>
