<svg width="16" height="16" viewBox="0 0 16 16" fill="none" xmlns="http://www.w3.org/2000/svg">
<path d="M7.26188 10.8403L7.11432 10.7634C6.7363 10.5664 6.11946 9.98508 5.7763 9.50251C4.63664 7.89985 3.95764 5.4257 4.28035 4.05197C4.61051 2.6467 5.94781 1.55093 7.576 1.35167C8.07746 1.29028 8.69275 1.36079 9.26178 1.54486C10.4699 1.93561 11.4341 2.92789 11.6982 4.05197C11.8312 4.61804 11.7791 5.64229 11.5733 6.50912C11.3492 7.45287 10.907 8.50272 10.4135 9.26244C10.0923 9.75704 9.41902 10.4527 9.06863 10.6521C8.92493 10.7338 8.80773 10.8143 8.80827 10.8309M7.26188 10.8403L7.41595 11.0348C7.25498 11.2888 6.96812 11.5737 7.11573 11.7232C7.2153 11.8241 7.24852 11.8281 7.98893 11.8281C8.8369 11.8281 8.86944 11.818 8.96733 11.5251L8.68961 11.0348M7.26188 10.8403H7.98893L8.80827 10.8309M7.60486 14.67C7.77565 14.0748 8.01538 13.8242 8.80382 13.4169C9.65402 12.9776 10.0344 12.572 10.0344 12.1044C10.0344 11.6884 9.28936 11.3325 8.68961 11.0348M8.68961 11.0348C8.51946 10.9504 8.80877 10.8475 8.80827 10.8309" stroke="#1C1C1C" stroke-width="1.25" stroke-linecap="round" stroke-linejoin="round"/>
</svg>
