<svg width="24" height="24" viewBox="0 0 24 24" fill="none" xmlns="http://www.w3.org/2000/svg">
<path d="M14.0001 14.76V3.49996C14.0001 2.83692 13.7367 2.20104 13.2679 1.73219C12.799 1.26335 12.1632 0.999962 11.5001 0.999962C10.8371 0.999962 10.2012 1.26335 9.73236 1.73219C9.26351 2.20104 9.00012 2.83692 9.00012 3.49996V14.76C8.1974 15.2963 7.58844 16.0766 7.26319 16.9856C6.93794 17.8945 6.91364 18.884 7.19388 19.8079C7.47412 20.7317 8.04403 21.5409 8.81946 22.116C9.59489 22.6911 10.5347 23.0016 11.5001 23.0016C12.4655 23.0016 13.4054 22.6911 14.1808 22.116C14.9562 21.5409 15.5261 20.7317 15.8064 19.8079C16.0866 18.884 16.0623 17.8945 15.7371 16.9856C15.4118 16.0766 14.8028 15.2963 14.0001 14.76Z" stroke="#1C1C1C" stroke-width="1.25" stroke-linecap="round" stroke-linejoin="round"/>
</svg>
