<svg width="48" height="48" viewBox="0 0 48 48" fill="none" xmlns="http://www.w3.org/2000/svg">
<path d="M32.125 43.5H39.125C41.5365 43.5 43.5 41.5383 43.5 39.125V32.125M32.125 1.5H39.125C41.5365 1.5 43.5 3.46175 43.5 5.875V12.875M12.875 43.5H5.87499C3.4635 43.5 1.5 41.5383 1.5 39.125V32.125M1.5 12.875V5.875C1.5 3.46175 3.4635 1.5 5.875 1.5H12.875M10.25 29.5V32.125C10.25 33.5723 11.4277 34.75 12.875 34.75H32.125C33.5722 34.75 34.75 33.5723 34.75 32.125V29.5M7.625 26H37.375M10.25 19.875V12.875C10.25 11.4277 11.4277 10.25 12.875 10.25H32.125C33.5722 10.25 34.75 11.4277 34.75 12.875V19.875" stroke="#1C1C1C" stroke-width="2" stroke-linecap="round"/>
</svg>
