<svg width="24" height="24" viewBox="0 0 24 24" fill="none" xmlns="http://www.w3.org/2000/svg">
<path d="M20 10.9999V3.99994C20 3.46951 19.7893 2.9608 19.4142 2.58573C19.0391 2.21065 18.5304 1.99994 18 1.99994H6C5.46957 1.99994 4.96086 2.21065 4.58579 2.58573C4.21071 2.9608 4 3.46951 4 3.99994V19.9999C4 20.5304 4.21071 21.0391 4.58579 21.4142C4.96086 21.7892 5.46957 21.9999 6 21.9999H9" stroke="#1C1C1C" stroke-width="1.25" stroke-linecap="round" stroke-linejoin="round"/>
<path d="M18.0519 14.3342C18.1579 14.2283 18.2837 14.1442 18.4221 14.0869C18.5606 14.0295 18.709 14 18.8588 14C19.0087 14 19.1571 14.0295 19.2955 14.0869C19.434 14.1442 19.5598 14.2283 19.6658 14.3342C19.7717 14.4402 19.8558 14.566 19.9131 14.7045C19.9705 14.8429 20 14.9913 20 15.1412C20 15.291 19.9705 15.4394 19.9131 15.5779C19.8558 15.7163 19.7717 15.8421 19.6658 15.9481L14.219 21.3948L12 22L12.6052 19.781L18.0519 14.3342Z" stroke="#1C1C1C" stroke-width="1.25" stroke-linecap="round" stroke-linejoin="round"/>
<path d="M16 10H8M16 6H8M10 14H8" stroke="#1C1C1C" stroke-width="1.25" stroke-linecap="round" stroke-linejoin="round"/>
</svg>
