<svg width="24" height="24" viewBox="0 0 24 24" fill="none" xmlns="http://www.w3.org/2000/svg">
<path d="M22 7.3117V9.99805M22 9.99805L19.3131 9.99805M22 9.99805L17.3691 5.63806C15.9894 4.2578 14.1984 3.36325 12.266 3.0892C10.3336 2.81516 8.36442 3.17648 6.65526 4.1187C4.9461 5.06092 3.58954 6.53301 2.78999 8.31312C1.99045 10.0932 1.79124 12.0849 2.22238 13.9881C2.65353 15.8913 3.69167 17.6028 5.18037 18.8647C6.66907 20.1267 8.52767 20.8707 10.4761 20.9846C12.4245 21.0986 14.3572 20.5763 15.9829 19.4966C17.6087 18.4168 18.8393 16.838 19.4895 14.9981" stroke="#FF3636" stroke-width="1.25" stroke-linecap="round" stroke-linejoin="round"/>
<path d="M17.2364 12C17.2364 15.3552 14.516 18.075 11.1602 18.075M17.2364 12C17.2364 8.64492 14.516 5.92505 11.1602 5.92505M17.2364 12H5.08398M11.1602 18.075C7.8044 18.075 5.08398 15.3552 5.08398 12M11.1602 18.075C12.68 16.4115 13.5438 14.2526 13.5907 12C13.5438 9.74746 12.68 7.5886 11.1602 5.92505M11.1602 18.075C9.64038 16.4115 8.77666 14.2526 8.72972 12C8.77666 9.74746 9.64038 7.5886 11.1602 5.92505M5.08398 12C5.08398 8.64492 7.8044 5.92505 11.1602 5.92505" stroke="#1C1C1C" stroke-width="1.25" stroke-linecap="round" stroke-linejoin="round"/>
</svg>
