<svg width="24" height="24" viewBox="0 0 24 24" fill="none" xmlns="http://www.w3.org/2000/svg">
<path d="M22 7.3117V9.99805M22 9.99805L19.3131 9.99805M22 9.99805L17.3691 5.63806C15.9894 4.2578 14.1984 3.36325 12.266 3.0892C10.3336 2.81516 8.36442 3.17648 6.65526 4.1187C4.9461 5.06092 3.58954 6.53301 2.78999 8.31312C1.99045 10.0932 1.79124 12.0849 2.22238 13.9881C2.65353 15.8913 3.69167 17.6028 5.18037 18.8647C6.66907 20.1267 8.52767 20.8707 10.4761 20.9846C12.4245 21.0986 14.3572 20.5763 15.9829 19.4966C17.6087 18.4168 18.8393 16.838 19.4895 14.9981" stroke="#FF3636" stroke-width="1.25" stroke-linecap="round" stroke-linejoin="round"/>
<path d="M13.5907 12L14.2156 12.0131C14.2157 12.0044 14.2157 11.9957 14.2156 11.987L13.5907 12ZM8.72972 12L8.10486 11.987C8.10467 11.9957 8.10467 12.0044 8.10486 12.0131L8.72972 12ZM16.6114 12C16.6114 15.0099 14.171 17.45 11.1602 17.45V18.7C14.8611 18.7 17.8614 15.7005 17.8614 12H16.6114ZM11.1602 17.45C8.14946 17.45 5.70898 15.0099 5.70898 12H4.45898C4.45898 15.7005 7.45934 18.7 11.1602 18.7V17.45ZM5.70898 12C5.70898 8.99022 8.14946 6.55005 11.1602 6.55005V5.30005C7.45934 5.30005 4.45898 8.29962 4.45898 12H5.70898ZM11.1602 6.55005C14.171 6.55005 16.6114 8.99022 16.6114 12H17.8614C17.8614 8.29962 14.8611 5.30005 11.1602 5.30005V6.55005ZM5.08398 12.625H17.2364V11.375H5.08398V12.625ZM10.6988 6.34661C12.1164 7.8983 12.9221 9.91198 12.9658 12.0131L14.2156 11.987C14.1655 9.58293 13.2437 7.27889 11.6216 5.50349L10.6988 6.34661ZM12.9658 11.987C12.9221 14.0881 12.1164 16.1018 10.6988 17.6535L11.6216 18.4966C13.2437 16.7212 14.1655 14.4172 14.2156 12.0131L12.9658 11.987ZM11.6216 17.6535C10.204 16.1018 9.39836 14.0881 9.35458 11.987L8.10486 12.0131C8.15495 14.4172 9.07676 16.7212 10.6988 18.4966L11.6216 17.6535ZM9.35458 12.0131C9.39836 9.91198 10.204 7.8983 11.6216 6.34661L10.6988 5.50349C9.07676 7.27889 8.15495 9.58293 8.10486 11.987L9.35458 12.0131Z" fill="#1C1C1C"/>
</svg>
