<svg width="24" height="24" viewBox="0 0 24 24" fill="none" xmlns="http://www.w3.org/2000/svg">
<path d="M22.2525 15.585C22.2525 16.1744 22.0183 16.7397 21.6015 17.1565C21.1847 17.5733 20.6194 17.8075 20.03 17.8075H6.695L2.25 22.2525V4.4725C2.25 3.88306 2.48416 3.31775 2.90096 2.90096C3.31775 2.48416 3.88306 2.25 4.4725 2.25H20.03C20.6194 2.25 21.1847 2.48416 21.6015 2.90096C22.0183 3.31775 22.2525 3.88306 22.2525 4.4725V15.585Z" stroke="#1C1C1C" stroke-width="1.25" stroke-linecap="round" stroke-linejoin="round"/>
<path d="M9.7549 5.51188H8.1488L6.14807 6.77861V8.29395L7.99884 7.13376H8.04619V13.5937H9.7549V5.51188Z" fill="#1C1C1C"/>
<path d="M11.898 13.5937H17.6594V12.1967H14.2657V12.1415L15.4456 10.9853C17.1069 9.46991 17.5529 8.71224 17.5529 7.79278C17.5529 6.39188 16.4085 5.40138 14.6761 5.40138C12.9792 5.40138 11.8151 6.41556 11.819 8.00193H13.4409C13.437 7.22847 13.9263 6.75493 14.6642 6.75493C15.3746 6.75493 15.9034 7.1969 15.9034 7.90722C15.9034 8.55045 15.5087 8.99242 14.7747 9.69879L11.898 12.3625V13.5937Z" fill="#1C1C1C"/>
</svg>
