<svg width="40" height="40" viewBox="0 0 40 40" fill="none" xmlns="http://www.w3.org/2000/svg">
<rect width="40" height="40" rx="20" fill="white"/>
<path d="M11 17L20 10L29 17V28C29 28.5304 28.7893 29.0391 28.4142 29.4142C28.0391 29.7893 27.5304 30 27 30H13C12.4696 30 11.9609 29.7893 11.5858 29.4142C11.2107 29.0391 11 28.5304 11 28V17Z" stroke="#1C1C1C" stroke-width="1.25" stroke-linecap="round" stroke-linejoin="round"/>
<path d="M19.9979 18L22.3562 20.3583C22.8226 20.8244 23.1403 21.4184 23.2691 22.065C23.3979 22.7117 23.332 23.382 23.0798 23.9912C22.8275 24.6004 22.4003 25.1212 21.8521 25.4875C21.3039 25.8539 20.6593 26.0495 20 26.0495C19.3406 26.0495 18.696 25.8539 18.1478 25.4875C17.5996 25.1212 17.1724 24.6004 16.9202 23.9912C16.6679 23.382 16.602 22.7117 16.7308 22.065C16.8596 21.4184 17.1773 20.8244 17.6437 20.3583L19.9979 18Z" stroke="#1C1C1C" stroke-width="1.25" stroke-linecap="round" stroke-linejoin="round"/>
</svg>
