<svg width="24" height="24" viewBox="0 0 24 24" fill="none" xmlns="http://www.w3.org/2000/svg">
<path d="M8 13C8 14.1046 7.10457 15 6 15C4.89543 15 4 14.1046 4 13C4 11.8954 4.89543 11 6 11C7.10457 11 8 11.8954 8 13Z" fill="#1C1C1C"/>
<path d="M11.6038 20.4853C11.8039 20.7453 12.196 20.7453 12.3962 20.4853L13.6897 18.805C13.9428 18.4762 13.7084 18 13.2935 18H10.7064C10.2915 18 10.0571 18.4762 10.3102 18.805L11.6038 20.4853Z" fill="#1C1C1C"/>
<path d="M8 7C8 8.10457 7.10457 9 6 9C4.89543 9 4 8.10457 4 7C4 5.89543 4.89543 5 6 5C7.10457 5 8 5.89543 8 7Z" fill="#1C1C1C"/>
<path d="M14 7C14 8.10457 13.1046 9 12 9C10.8954 9 10 8.10457 10 7C10 5.89543 10.8954 5 12 5C13.1046 5 14 5.89543 14 7Z" fill="#1C1C1C"/>
<path d="M14 13C14 14.1046 13.1046 15 12 15C10.8954 15 10 14.1046 10 13C10 11.8954 10.8954 11 12 11C13.1046 11 14 11.8954 14 13Z" fill="#1C1C1C"/>
<path d="M20 13C20 14.1046 19.1046 15 18 15C16.8954 15 16 14.1046 16 13C16 11.8954 16.8954 11 18 11C19.1046 11 20 11.8954 20 13Z" fill="#1C1C1C"/>
<path d="M20 7C20 8.10457 19.1046 9 18 9C16.8954 9 16 8.10457 16 7C16 5.89543 16.8954 5 18 5C19.1046 5 20 5.89543 20 7Z" fill="#1C1C1C"/>
</svg>
