<svg width="24" height="24" viewBox="0 0 24 24" fill="none" xmlns="http://www.w3.org/2000/svg">
<path d="M14.0646 14.4264L11.1293 14.4264L11.1293 9.43099L14.0646 9.43099M14.0646 14.4264L17 14.4264L17 12L17 9.43099L14.0646 9.43099M14.0646 14.4264L14.0646 9.43099M2 16.6429C2 17.6685 2.89543 18.5 4 18.5L20 18.5C21.1046 18.5 22 17.6685 22 16.6429L22 7.35714C22 6.33147 21.1046 5.5 20 5.5L4 5.5C2.89543 5.5 2 6.33147 2 7.35714L2 12L2 16.6429Z" stroke="#1C1C1C" stroke-width="1.25" stroke-linecap="round" stroke-linejoin="round"/>
</svg>
