<svg width="24" height="24" viewBox="0 0 24 24" fill="none" xmlns="http://www.w3.org/2000/svg">
<path d="M8.52255 10.6182C8.46419 7.69059 12.9204 8.09294 11.7745 3C11.7745 3 14.7666 4.17529 14.2414 7.78059C14.061 9.01941 14.496 9.94588 14.496 9.94588C14.9363 10.0359 15.6207 9.16235 15.382 7.81235C15.382 7.81235 16.9523 8.98235 16.9523 10.4859C16.9523 11.9894 16.2255 13.5829 16.2255 13.5829C18.0345 13.1912 17.8541 10.7559 17.8541 10.7559C17.8541 10.7559 19 12.2859 19 15.1712C19 17.4159 16.4642 21 12.374 21C8.28382 21 5 17.8341 5 15.0176C5 13.7841 5.4191 12.1906 6.32626 11.3224C6.32626 11.3224 6.20424 13.7841 7.4244 13.6676C7.4244 13.6676 6.41645 10.4541 7.47215 8.98235C7.47215 8.98235 7.98143 10.5706 8.52255 10.6182Z" fill="url(#paint0_linear_9350_45253)"/>
<path d="M8.51719 8.41058C7.32886 6.22411 10.2732 5.92234 10.2785 4.57764C10.2785 4.57764 10.7984 5.9647 9.55697 6.91234C8.54371 7.67999 8.51719 8.41058 8.51719 8.41058Z" fill="url(#paint1_linear_9350_45253)"/>
<path opacity="0.5" d="M18.0716 11.4918C18.4642 12.1641 19 13.4082 19 15.1712C19 17.1406 16.4854 20.7618 12.374 20.7618C8.35809 20.7618 5.23872 17.6753 5.23872 15.0229C5.23872 14.0647 5.50398 12.8418 6.09284 11.9735C6.13528 12.5188 6.2679 13.26 6.67639 13.6465C6.88859 13.8476 7.15384 13.9376 7.44562 13.9059L7.7427 13.8794L7.65252 13.5988C7.64191 13.5724 6.87268 11.0629 7.42971 9.57529C7.65252 10.1206 8.03448 10.8247 8.50132 10.8618L8.76658 10.8829L8.76127 10.6182C8.74005 9.52235 9.41379 8.94 10.1936 8.26764C11.3077 7.30411 12.565 6.21353 12.1034 3.4447C12.878 3.9 14.3846 5.1547 14.008 7.74353C13.817 9.04059 14.2679 10.0041 14.2838 10.0465L14.3369 10.1576L14.4536 10.1788C14.6764 10.2212 14.9098 10.1312 15.122 9.93C15.4085 9.64941 15.6684 9.12 15.679 8.4C16.1141 8.8447 16.7135 9.61235 16.7135 10.4859C16.7135 11.9206 16.0133 13.4665 16.008 13.4824L15.8117 13.9165L16.2785 13.8159C17.4987 13.5512 17.9549 12.4182 18.0716 11.4918Z" fill="url(#paint2_linear_9350_45253)"/>
<path d="M10.2786 4.57764C10.3847 5.37705 10.0664 6.52587 9.55709 6.91234C9.09025 7.26705 8.56505 7.87587 8.52261 8.41058C7.72686 6.85411 8.84622 6.27705 9.48813 6.0494C9.75868 5.95411 10.2574 5.39823 10.2786 4.57764Z" fill="url(#paint3_radial_9350_45253)"/>
<path d="M12.7243 4.3501C14.4856 7.10304 12.1991 10.0095 13.3768 11.7513C14.5545 13.493 15.7482 11.8836 15.8277 10.793C15.8277 10.793 15.8171 14.3189 14.0718 15.7113C12.3264 17.1036 17.4299 16.8019 18.1301 15.1025C18.1301 15.1025 18.1301 20.7619 12.3742 20.7619C6.61819 20.7619 5.65798 15.4942 5.65798 15.4942C5.65798 15.4942 7.75347 17.2783 9.14869 15.886C9.14869 15.886 8.1036 14.0595 7.83835 12.1854C7.83835 12.1854 8.55984 12.6407 9.66859 12.466C9.66859 12.466 9.0532 9.8348 10.3105 8.97186C11.9232 7.86539 13.2866 5.22892 12.7243 4.3501Z" fill="url(#paint4_linear_9350_45253)"/>
<path d="M12.284 7.59009C13.2071 8.80244 11.4087 11.9154 13.2973 13.1489C14.3424 13.8319 14.9418 13.0113 14.9418 13.0113C14.9418 13.0113 14.6607 14.2713 13.536 15.3936C12.4113 16.516 15.2283 18.0354 17.5148 16.0713C17.5148 16.0713 16.7296 20.7883 11.4087 19.9942C5.53598 19.1207 5.971 14.7636 5.971 14.7636C5.971 14.7636 7.56251 17.2624 9.82776 16.066C9.82776 16.066 8.40071 14.0807 8.40071 12.9424C8.40071 12.9424 9.36622 13.5142 10.4697 12.9636C10.4697 12.9636 9.94447 10.3166 10.5705 9.9195C12.0718 8.96126 12.284 7.59009 12.284 7.59009Z" fill="url(#paint5_linear_9350_45253)"/>
<path opacity="0.5" d="M8.52255 10.6182C8.46419 7.69059 12.9204 8.09294 11.7745 3C11.7745 3 14.7666 4.17529 14.2414 7.78059C14.061 9.01941 14.496 9.94588 14.496 9.94588C14.9363 10.0359 15.6207 9.16235 15.382 7.81235C15.382 7.81235 16.9523 8.98235 16.9523 10.4859C16.9523 11.9894 16.2255 13.5829 16.2255 13.5829C18.0345 13.1912 17.8541 10.7559 17.8541 10.7559C17.8541 10.7559 19 12.2859 19 15.1712C19 17.4159 16.4642 21 12.374 21C8.28382 21 5 17.8341 5 15.0176C5 13.7841 5.4191 12.1906 6.32626 11.3224C6.32626 11.3224 6.20424 13.7841 7.4244 13.6676C7.4244 13.6676 6.41645 10.4541 7.47215 8.98235C7.47215 8.98235 7.98143 10.5706 8.52255 10.6182Z" fill="url(#paint6_radial_9350_45253)"/>
<path opacity="0.5" d="M8.52255 10.6182C8.46419 7.69059 12.9204 8.09294 11.7745 3C11.7745 3 14.7666 4.17529 14.2414 7.78059C14.061 9.01941 14.496 9.94588 14.496 9.94588C14.9363 10.0359 15.6207 9.16235 15.382 7.81235C15.382 7.81235 16.9523 8.98235 16.9523 10.4859C16.9523 11.9894 16.2255 13.5829 16.2255 13.5829C18.0345 13.1912 17.8541 10.7559 17.8541 10.7559C17.8541 10.7559 19 12.2859 19 15.1712C19 17.4159 16.4642 21 12.374 21C8.28382 21 5 17.8341 5 15.0176C5 13.7841 5.4191 12.1906 6.32626 11.3224C6.32626 11.3224 6.20424 13.7841 7.4244 13.6676C7.4244 13.6676 6.41645 10.4541 7.47215 8.98235C7.47215 8.98235 7.98143 10.5706 8.52255 10.6182Z" fill="url(#paint7_radial_9350_45253)"/>
<path d="M18.6393 13.9427C18.5173 16.9339 16.0504 20.518 12.1937 20.518C8.3369 20.518 6.41117 16.4574 6.28915 14.0803C6.28915 14.0803 7.01064 15.478 8.63929 15.7586C10.2679 16.0392 8.52788 12.9633 9.66846 11.1421C9.66846 11.1421 10.6764 14.3133 12.1088 14.4297C13.5411 14.5462 14.756 12.3333 14.756 11.1421C14.756 11.1421 15.6366 13.2862 15.4191 14.9909C15.0849 17.5797 18.6393 13.9427 18.6393 13.9427Z" fill="url(#paint8_radial_9350_45253)"/>
<path opacity="0.5" d="M8.52255 10.6182C8.46419 7.69059 12.9204 8.09294 11.7745 3C11.7745 3 14.7666 4.17529 14.2414 7.78059C14.061 9.01941 14.496 9.94588 14.496 9.94588C14.9363 10.0359 15.6207 9.16235 15.382 7.81235C15.382 7.81235 16.9523 8.98235 16.9523 10.4859C16.9523 11.9894 16.2255 13.5829 16.2255 13.5829C18.0345 13.1912 17.8541 10.7559 17.8541 10.7559C17.8541 10.7559 19 12.2859 19 15.1712C19 17.4159 16.4642 21 12.374 21C8.28382 21 5 17.8341 5 15.0176C5 13.7841 5.4191 12.1906 6.32626 11.3224C6.32626 11.3224 6.20424 13.7841 7.4244 13.6676C7.4244 13.6676 6.41645 10.4541 7.47215 8.98235C7.47215 8.98235 7.98143 10.5706 8.52255 10.6182Z" fill="url(#paint9_radial_9350_45253)"/>
<path opacity="0.5" d="M8.51719 8.41058C7.32886 6.22411 10.2732 5.92234 10.2785 4.57764C10.2785 4.57764 10.7984 5.9647 9.55697 6.91234C8.54371 7.67999 8.51719 8.41058 8.51719 8.41058Z" fill="url(#paint10_radial_9350_45253)"/>
<path opacity="0.5" d="M8.52255 10.6182C8.46419 7.69059 12.9204 8.09294 11.7745 3C11.7745 3 14.7666 4.17529 14.2414 7.78059C14.061 9.01941 14.496 9.94588 14.496 9.94588C14.9363 10.0359 15.6207 9.16235 15.382 7.81235C15.382 7.81235 16.9523 8.98235 16.9523 10.4859C16.9523 11.9894 16.2255 13.5829 16.2255 13.5829C18.0345 13.1912 17.8541 10.7559 17.8541 10.7559C17.8541 10.7559 19 12.2859 19 15.1712C19 17.4159 16.4642 21 12.374 21C8.28382 21 5 17.8341 5 15.0176C5 13.7841 5.4191 12.1906 6.32626 11.3224C6.32626 11.3224 6.20424 13.7841 7.4244 13.6676C7.4244 13.6676 6.41645 10.4541 7.47215 8.98235C7.47215 8.98235 7.98143 10.5706 8.52255 10.6182Z" fill="url(#paint11_radial_9350_45253)"/>
<path opacity="0.25" d="M8.52255 10.6182C8.46419 7.69059 12.9204 8.09294 11.7745 3C11.7745 3 14.7666 4.17529 14.2414 7.78059C14.061 9.01941 14.496 9.94588 14.496 9.94588C14.9363 10.0359 15.6207 9.16235 15.382 7.81235C15.382 7.81235 16.9523 8.98235 16.9523 10.4859C16.9523 11.9894 16.2255 13.5829 16.2255 13.5829C18.0345 13.1912 17.8541 10.7559 17.8541 10.7559C17.8541 10.7559 19 12.2859 19 15.1712C19 17.4159 16.4642 21 12.374 21C8.28382 21 5 17.8341 5 15.0176C5 13.7841 5.4191 12.1906 6.32626 11.3224C6.32626 11.3224 6.20424 13.7841 7.4244 13.6676C7.4244 13.6676 6.41645 10.4541 7.47215 8.98235C7.47215 8.98235 7.98143 10.5706 8.52255 10.6182Z" fill="url(#paint12_radial_9350_45253)"/>
<path opacity="0.25" d="M8.52255 10.6182C8.46419 7.69059 12.9204 8.09294 11.7745 3C11.7745 3 14.7666 4.17529 14.2414 7.78059C14.061 9.01941 14.496 9.94588 14.496 9.94588C14.9363 10.0359 15.6207 9.16235 15.382 7.81235C15.382 7.81235 16.9523 8.98235 16.9523 10.4859C16.9523 11.9894 16.2255 13.5829 16.2255 13.5829C18.0345 13.1912 17.8541 10.7559 17.8541 10.7559C17.8541 10.7559 19 12.2859 19 15.1712C19 17.4159 16.4642 21 12.374 21C8.28382 21 5 17.8341 5 15.0176C5 13.7841 5.4191 12.1906 6.32626 11.3224C6.32626 11.3224 6.20424 13.7841 7.4244 13.6676C7.4244 13.6676 6.41645 10.4541 7.47215 8.98235C7.47215 8.98235 7.98143 10.5706 8.52255 10.6182Z" fill="url(#paint13_radial_9350_45253)"/>
<path opacity="0.25" d="M8.52255 10.6182C8.46419 7.69059 12.9204 8.09294 11.7745 3C11.7745 3 14.7666 4.17529 14.2414 7.78059C14.061 9.01941 14.496 9.94588 14.496 9.94588C14.9363 10.0359 15.6207 9.16235 15.382 7.81235C15.382 7.81235 16.9523 8.98235 16.9523 10.4859C16.9523 11.9894 16.2255 13.5829 16.2255 13.5829C18.0345 13.1912 17.8541 10.7559 17.8541 10.7559C17.8541 10.7559 19 12.2859 19 15.1712C19 17.4159 16.4642 21 12.374 21C8.28382 21 5 17.8341 5 15.0176C5 13.7841 5.4191 12.1906 6.32626 11.3224C6.32626 11.3224 6.20424 13.7841 7.4244 13.6676C7.4244 13.6676 6.41645 10.4541 7.47215 8.98235C7.47215 8.98235 7.98143 10.5706 8.52255 10.6182Z" fill="url(#paint14_radial_9350_45253)"/>
<defs>
<linearGradient id="paint0_linear_9350_45253" x1="11.1029" y1="21.4975" x2="14.3418" y2="-2.0235" gradientUnits="userSpaceOnUse">
<stop stop-color="#FF0000"/>
<stop offset="0.2317" stop-color="#FF1500"/>
<stop offset="0.7367" stop-color="#FF3D00"/>
<stop offset="0.9987" stop-color="#FF4C00"/>
</linearGradient>
<linearGradient id="paint1_linear_9350_45253" x1="7.29203" y1="20.9727" x2="10.531" y2="-2.54827" gradientUnits="userSpaceOnUse">
<stop stop-color="#FF0000"/>
<stop offset="0.2317" stop-color="#FF1500"/>
<stop offset="0.7367" stop-color="#FF3D00"/>
<stop offset="0.9987" stop-color="#FF4C00"/>
</linearGradient>
<linearGradient id="paint2_linear_9350_45253" x1="11.1905" y1="17.4913" x2="18.2709" y2="-2.7716" gradientUnits="userSpaceOnUse">
<stop stop-color="#FF8000"/>
<stop offset="0.6388" stop-color="#FF5B00"/>
<stop offset="0.9987" stop-color="#FF4C00"/>
</linearGradient>
<radialGradient id="paint3_radial_9350_45253" cx="0" cy="0" r="1" gradientUnits="userSpaceOnUse" gradientTransform="translate(8.14697 1.00803) rotate(180) scale(9.47004 9.45057)">
<stop offset="0.00134333" stop-color="#FFED1C" stop-opacity="0.6"/>
<stop offset="0.9477" stop-color="#FFED1C" stop-opacity="0.0264782"/>
<stop offset="0.9914" stop-color="#FFED1C" stop-opacity="0"/>
</radialGradient>
<linearGradient id="paint4_linear_9350_45253" x1="13.9502" y1="3.97586" x2="11.3909" y2="18.3617" gradientUnits="userSpaceOnUse">
<stop stop-color="#FF8000"/>
<stop offset="0.022669" stop-color="#FE7F02" stop-opacity="0.9773"/>
<stop offset="0.6663" stop-color="#ED582A" stop-opacity="0.3337"/>
<stop offset="1" stop-color="#E74939" stop-opacity="0"/>
</linearGradient>
<linearGradient id="paint5_linear_9350_45253" x1="11.9548" y1="19.5192" x2="11.4017" y2="9.41936" gradientUnits="userSpaceOnUse">
<stop stop-color="#FFBC47"/>
<stop offset="0.1869" stop-color="#FFB137" stop-opacity="0.8131"/>
<stop offset="0.7223" stop-color="#FF940F" stop-opacity="0.2777"/>
<stop offset="1" stop-color="#FF8900" stop-opacity="0"/>
</linearGradient>
<radialGradient id="paint6_radial_9350_45253" cx="0" cy="0" r="1" gradientUnits="userSpaceOnUse" gradientTransform="translate(12.0927 16.7935) rotate(180) scale(7.32561 5.93468)">
<stop offset="0.00134333" stop-color="#FFBC47"/>
<stop offset="0.2941" stop-color="#FFBF4B" stop-opacity="0.7068"/>
<stop offset="0.5624" stop-color="#FEC656" stop-opacity="0.4382"/>
<stop offset="0.8201" stop-color="#FCD368" stop-opacity="0.1801"/>
<stop offset="1" stop-color="#FBE07A" stop-opacity="0"/>
</radialGradient>
<radialGradient id="paint7_radial_9350_45253" cx="0" cy="0" r="1" gradientUnits="userSpaceOnUse" gradientTransform="translate(12.0927 16.493) rotate(180) scale(7.09987 5.75181)">
<stop offset="0.00134333" stop-color="white"/>
<stop offset="1" stop-color="white" stop-opacity="0"/>
</radialGradient>
<radialGradient id="paint8_radial_9350_45253" cx="0" cy="0" r="1" gradientUnits="userSpaceOnUse" gradientTransform="translate(15.2059 17.7996) rotate(180) scale(8.72169 10.1338)">
<stop offset="0.00134333" stop-color="#FFED1C" stop-opacity="0.6"/>
<stop offset="0.9477" stop-color="#FFED1C" stop-opacity="0.0264782"/>
<stop offset="0.9914" stop-color="#FFED1C" stop-opacity="0"/>
</radialGradient>
<radialGradient id="paint9_radial_9350_45253" cx="0" cy="0" r="1" gradientUnits="userSpaceOnUse" gradientTransform="translate(12.0923 16.4923) rotate(87.1065) scale(2.75081 2.23757)">
<stop offset="0.00134333" stop-color="white"/>
<stop offset="1" stop-color="white" stop-opacity="0"/>
</radialGradient>
<radialGradient id="paint10_radial_9350_45253" cx="0" cy="0" r="1" gradientUnits="userSpaceOnUse" gradientTransform="translate(10.5686 4.57261) rotate(180) scale(3.12882 3.12238)">
<stop offset="0.00134333" stop-color="#FFED1C"/>
<stop offset="0.1997" stop-color="#FFEE2B" stop-opacity="0.8013"/>
<stop offset="0.5839" stop-color="#FFF254" stop-opacity="0.4167"/>
<stop offset="1" stop-color="#FFF686" stop-opacity="0"/>
</radialGradient>
<radialGradient id="paint11_radial_9350_45253" cx="0" cy="0" r="1" gradientUnits="userSpaceOnUse" gradientTransform="translate(11.2638 4.17195) rotate(180) scale(9.76286 9.74276)">
<stop offset="0.00134333" stop-color="#FF4C00"/>
<stop offset="0.135" stop-color="#FF5B0C" stop-opacity="0.8661"/>
<stop offset="0.3941" stop-color="#FF842C" stop-opacity="0.6067"/>
<stop offset="0.7491" stop-color="#FFC45F" stop-opacity="0.2512"/>
<stop offset="1" stop-color="#FFF686" stop-opacity="0"/>
</radialGradient>
<radialGradient id="paint12_radial_9350_45253" cx="0" cy="0" r="1" gradientUnits="userSpaceOnUse" gradientTransform="translate(6.82344 12.0651) rotate(180) scale(5.18196 5.17129)">
<stop offset="0.00134333" stop-color="#FFED1C"/>
<stop offset="0.1997" stop-color="#FFEE2B" stop-opacity="0.8013"/>
<stop offset="0.5839" stop-color="#FFF254" stop-opacity="0.4167"/>
<stop offset="1" stop-color="#FFF686" stop-opacity="0"/>
</radialGradient>
<radialGradient id="paint13_radial_9350_45253" cx="0" cy="0" r="1" gradientUnits="userSpaceOnUse" gradientTransform="translate(17.4311 13.9082) rotate(180) scale(5.52331 5.51194)">
<stop offset="0.00134333" stop-color="#FFED1C"/>
<stop offset="0.1997" stop-color="#FFEE2B" stop-opacity="0.8013"/>
<stop offset="0.5839" stop-color="#FFF254" stop-opacity="0.4167"/>
<stop offset="1" stop-color="#FFF686" stop-opacity="0"/>
</radialGradient>
<radialGradient id="paint14_radial_9350_45253" cx="0" cy="0" r="1" gradientUnits="userSpaceOnUse" gradientTransform="translate(12.1752 12.7941) rotate(93.8978) scale(9.44163 5.75128)">
<stop stop-color="#FF4C00" stop-opacity="0"/>
<stop offset="0.9874" stop-color="#FF4C00" stop-opacity="0.9888"/>
<stop offset="0.9987" stop-color="#FF4C00"/>
</radialGradient>
</defs>
</svg>
