<svg width="16" height="16" viewBox="0 0 16 16" fill="none" xmlns="http://www.w3.org/2000/svg">
<path d="M1.33008 5.31799V3.98399C1.33008 3.63019 1.47062 3.29089 1.7208 3.04071C1.97097 2.79054 2.31028 2.64999 2.66408 2.64999H13.3361C13.6899 2.64999 14.0292 2.79054 14.2794 3.04071C14.5295 3.29089 14.6701 3.63019 14.6701 3.98399V11.988C14.6701 12.3418 14.5295 12.6811 14.2794 12.9313C14.0292 13.1814 13.6899 13.322 13.3361 13.322H8.60899M6.33258 13.322L3.83133 11.6545L1.33008 13.322V7.98602C1.33008 7.80912 1.40537 7.63947 1.53939 7.51438C1.67341 7.38929 1.85519 7.31902 2.04472 7.31902H5.61793C5.80747 7.31902 5.98924 7.38929 6.12326 7.51438C6.25728 7.63947 6.33258 7.80912 6.33258 7.98602V13.322Z" stroke="#1C1C1C" stroke-width="1.25" stroke-linecap="round" stroke-linejoin="round"/>
</svg>
