<svg width="16" height="16" viewBox="0 0 16 16" fill="none" xmlns="http://www.w3.org/2000/svg">
<path d="M1.5 5.167V3.8335C1.5 3.47983 1.64049 3.14065 1.89057 2.89057C2.14065 2.64049 2.47983 2.5 2.8335 2.5H13.5015C13.8552 2.5 14.1943 2.64049 14.4444 2.89057C14.6945 3.14065 14.835 3.47983 14.835 3.8335V11.8345C14.835 12.1882 14.6945 12.5273 14.4444 12.7774C14.1943 13.0275 13.8552 13.168 13.5015 13.168H8.77618" stroke="#1C1C1C" stroke-width="1.25" stroke-linecap="round" stroke-linejoin="round"/>
<path d="M6.50062 13.168L4.00031 11.5011L1.5 13.168V7.83402C1.5 7.65718 1.57526 7.48759 1.70924 7.36255C1.84321 7.23751 2.02491 7.16727 2.21437 7.16727H5.78625C5.97571 7.16727 6.15742 7.23751 6.29139 7.36255C6.42536 7.48759 6.50062 7.65718 6.50062 7.83402V13.168Z" stroke="#1C1C1C" stroke-width="1.25" stroke-linecap="round" stroke-linejoin="round"/>
</svg>
