<svg width="24" height="24" viewBox="0 0 24 24" fill="none" xmlns="http://www.w3.org/2000/svg">
<path d="M18.1156 5.48466C18.1156 5.48466 19.7812 4.83693 19.6424 6.41C19.5961 7.05773 19.1797 9.32479 18.8558 11.7769L17.7454 19.0408C17.7454 19.0408 17.6529 20.1049 16.8201 20.29C15.9873 20.4751 14.7381 19.6423 14.5068 19.4572C14.3217 19.3184 11.0368 17.2364 9.88009 16.2185C9.55623 15.9409 9.18609 15.3857 9.92636 14.738L14.7844 10.1113C15.3396 9.55613 15.8948 8.26066 13.5814 9.83373L7.10409 14.2291C7.10409 14.2291 6.36383 14.6917 4.97583 14.2753L1.96849 13.35C1.96849 13.35 0.858093 12.656 2.75503 11.962C7.38169 9.78746 13.0725 7.56666 18.1156 5.48466Z" fill="#2AABEE"/>
</svg>
