<svg width="24" height="24" viewBox="0 0 24 24" fill="none" xmlns="http://www.w3.org/2000/svg">
<path d="M21 11.5C21.0034 12.8198 20.6951 14.1219 20.1 15.3C19.3944 16.7117 18.3098 17.8991 16.9674 18.7292C15.6251 19.5594 14.0782 19.9994 12.5 20C11.1801 20.0034 9.87812 19.695 8.7 19.1L3 21L4.9 15.3C4.30493 14.1219 3.99656 12.8198 4 11.5C4.00061 9.92173 4.44061 8.37482 5.27072 7.03252C6.10083 5.69022 7.28825 4.60553 8.7 3.89997C9.87812 3.3049 11.1801 2.99653 12.5 2.99997H13C15.0843 3.11496 17.053 3.99473 18.5291 5.47083C20.0052 6.94692 20.885 8.91562 21 11V11.5Z" stroke="#1C1C1C" stroke-width="1.25" stroke-linecap="round" stroke-linejoin="round"/>
</svg>
