<svg width="16" height="16" viewBox="0 0 16 16" fill="none" xmlns="http://www.w3.org/2000/svg">
<path d="M3.02316 12.4334C5.68071 15.4063 10.3102 15.4053 12.9666 12.4334M3.02316 12.4334L2.47136 11.7261C1.72981 10.6316 1.32996 9.33937 1.32996 7.99499C1.32996 4.31988 4.31985 1.32999 7.99496 1.32999C11.6701 1.32999 14.66 4.31988 14.66 7.99499C14.66 9.33937 14.2601 10.6316 13.5186 11.7261L12.9666 12.4334M3.02316 12.4334C4.34686 10.9487 6.17095 10.2064 7.99496 10.2064C9.81913 10.2065 11.6432 10.9489 12.9666 12.4334M6.02996 5.47803C6.02996 4.45899 6.91812 3.63004 8.00996 3.63004C9.10179 3.63004 9.98996 4.45899 9.98996 5.47803V6.40203C9.98996 7.42108 9.10179 8.25003 8.00996 8.25003C6.91812 8.25003 6.02996 7.42108 6.02996 6.40203V5.47803Z" stroke="#1C1C1C" stroke-width="1.25"/>
</svg>
