<svg width="16" height="16" viewBox="0 0 16 16" fill="none" xmlns="http://www.w3.org/2000/svg">
<g clip-path="url(#clip0_481_3272)">
<path d="M14.6684 8.00084C14.6684 4.31579 11.6863 1.33334 8.00087 1.33334C4.31582 1.33334 1.33337 4.31539 1.33337 8.00084C1.33337 11.6532 4.29049 14.6683 8.00087 14.6683C11.696 14.6683 14.6684 11.67 14.6684 8.00084ZM8.00087 2.11469C11.2465 2.11469 13.887 4.7552 13.887 8.00084C13.887 9.18813 13.5339 10.3293 12.879 11.2959C10.2493 8.46721 5.75725 8.46212 3.12274 11.2959C2.46785 10.3293 2.11472 9.18813 2.11472 8.00084C2.11472 4.7552 4.75523 2.11469 8.00087 2.11469ZM3.61007 11.9206C5.94821 9.298 10.0542 9.29861 12.3916 11.9206C10.0456 14.5452 5.95706 14.5461 3.61007 11.9206Z" fill="#1C1C1C"/>
<mask id="path-2-inside-1_481_3272" fill="white">
<path d="M8.0009 8.39155C9.29338 8.39155 10.3449 7.33999 10.3449 6.04751V5.26616C10.3449 3.97368 9.29338 2.92212 8.0009 2.92212C6.70842 2.92212 5.65686 3.97368 5.65686 5.26616V6.04751C5.65686 7.33999 6.70842 8.39155 8.0009 8.39155ZM6.43821 5.26616C6.43821 4.40444 7.13918 3.70347 8.0009 3.70347C8.86262 3.70347 9.5636 4.40444 9.5636 5.26616V6.04751C9.5636 6.90923 8.86262 7.61021 8.0009 7.61021C7.13918 7.61021 6.43821 6.90923 6.43821 6.04751V5.26616Z"/>
</mask>
<path d="M8.0009 8.39155C9.29338 8.39155 10.3449 7.33999 10.3449 6.04751V5.26616C10.3449 3.97368 9.29338 2.92212 8.0009 2.92212C6.70842 2.92212 5.65686 3.97368 5.65686 5.26616V6.04751C5.65686 7.33999 6.70842 8.39155 8.0009 8.39155ZM6.43821 5.26616C6.43821 4.40444 7.13918 3.70347 8.0009 3.70347C8.86262 3.70347 9.5636 4.40444 9.5636 5.26616V6.04751C9.5636 6.90923 8.86262 7.61021 8.0009 7.61021C7.13918 7.61021 6.43821 6.90923 6.43821 6.04751V5.26616Z" fill="#1C1C1C" stroke="#1C1C1C" stroke-width="2.5" mask="url(#path-2-inside-1_481_3272)"/>
</g>
<defs>
<clipPath id="clip0_481_3272">
<rect width="13.335" height="13.335" fill="white" transform="translate(1.33337 1.33334)"/>
</clipPath>
</defs>
</svg>
