<svg width="24" height="24" viewBox="0 0 24 24" fill="none" xmlns="http://www.w3.org/2000/svg">
<path d="M16 16L12 12M12 12L7.99996 16M12 12V21M20.39 18.39C21.3653 17.8582 22.1358 17.0168 22.5798 15.9986C23.0239 14.9803 23.1162 13.8432 22.8422 12.7666C22.5682 11.6901 21.9434 10.7355 21.0666 10.0534C20.1898 9.37134 19.1108 9.00069 18 8.99996H16.74C16.4373 7.8292 15.8731 6.74229 15.0899 5.82095C14.3067 4.89961 13.3248 4.16781 12.2181 3.68057C11.1113 3.19332 9.90851 2.96332 8.70008 3.00784C7.49164 3.05237 6.30903 3.37026 5.24114 3.93762C4.17325 4.50499 3.24787 5.30706 2.53458 6.28354C1.82129 7.26002 1.33865 8.3855 1.12294 9.57535C0.90723 10.7652 0.964065 11.9885 1.28917 13.1532C1.61428 14.3179 2.1992 15.3938 2.99996 16.3" stroke="#1C1C1C" stroke-width="1.25" stroke-linecap="round" stroke-linejoin="round"/>
</svg>
