<svg width="16" height="16" viewBox="0 0 16 16" fill="none" xmlns="http://www.w3.org/2000/svg">
<path d="M11.8199 5.15331C12.0138 4.9599 12.2524 4.81725 12.5145 4.73799C12.7767 4.65872 13.0543 4.64527 13.3229 4.69884C13.5915 4.7524 13.8427 4.87132 14.0544 5.04509C14.2661 5.21886 14.4317 5.44211 14.5366 5.69511C14.6414 5.9481 14.6824 6.22304 14.6557 6.49561C14.629 6.76818 14.5356 7.02997 14.3837 7.25784C14.2317 7.48571 14.026 7.67263 13.7847 7.80208C13.5433 7.93152 13.2738 7.99949 12.9999 7.99998H1.33325M6.39325 3.05998C6.54812 2.90419 6.73909 2.78907 6.94917 2.72487C7.15925 2.66067 7.38194 2.64937 7.59744 2.69197C7.81294 2.73458 8.01458 2.82976 8.18442 2.96907C8.35427 3.10839 8.48707 3.2875 8.571 3.49051C8.65494 3.69351 8.68743 3.91411 8.66556 4.13269C8.6437 4.35127 8.56817 4.56106 8.44569 4.74342C8.32321 4.92577 8.15757 5.07504 7.96349 5.17795C7.76942 5.28087 7.55292 5.33423 7.33325 5.33331H1.33325L6.39325 3.05998ZM8.39325 12.94C8.54812 13.0958 8.73909 13.2109 8.94917 13.2751C9.15925 13.3393 9.38194 13.3506 9.59744 13.308C9.81294 13.2654 10.0146 13.1702 10.1844 13.0309C10.3543 12.8916 10.4871 12.7125 10.571 12.5094C10.6549 12.3064 10.6874 12.0858 10.6656 11.8673C10.6437 11.6487 10.5682 11.4389 10.4457 11.2565C10.3232 11.0742 10.1576 10.9249 9.96349 10.822C9.76942 10.7191 9.55292 10.6657 9.33325 10.6666H1.33325L8.39325 12.94Z" stroke="#1C1C1C" stroke-width="1.25" stroke-linecap="round" stroke-linejoin="round"/>
</svg>
