<svg width="16" height="16" viewBox="0 0 16 16" fill="none" xmlns="http://www.w3.org/2000/svg">
<g clip-path="url(#clip0_481_3512)">
<path d="M5.70659 1.83325C8.61992 5.85325 9.71992 8.11325 11.0599 13.6466M12.7533 3.39325C10.2733 6.29325 6.79325 7.16658 1.49992 7.29325M14.4999 8.55992C12.1666 7.93992 10.0799 8.01325 8.53992 8.55992C6.81992 9.17325 5.19992 10.4666 3.57992 12.7733M14.6666 7.99992C14.6666 11.6818 11.6818 14.6666 7.99992 14.6666C4.31802 14.6666 1.33325 11.6818 1.33325 7.99992C1.33325 4.31802 4.31802 1.33325 7.99992 1.33325C11.6818 1.33325 14.6666 4.31802 14.6666 7.99992Z" stroke="#1C1C1C" stroke-width="1.25" stroke-linecap="round" stroke-linejoin="round"/>
</g>
<defs>
<clipPath id="clip0_481_3512">
<rect width="16" height="16" fill="white"/>
</clipPath>
</defs>
</svg>
