<svg width="40" height="40" viewBox="0 0 40 40" fill="none" xmlns="http://www.w3.org/2000/svg">
<rect width="40" height="40" rx="20" fill="#FFF480"/>
<mask id="path-2-inside-1_3476_9786" fill="white">
<path fill-rule="evenodd" clip-rule="evenodd" d="M14.5222 11.3606C13.4761 11.8102 10.181 13.7422 10.0193 14.0009C9.95172 14.1092 10.0671 15.0237 10.2761 16.0333C10.9381 19.2301 10.8066 18.9945 11.9279 18.9945H12.9353V23.9973V29.0001H20.021H27.1067V23.9973V18.9945H28.101H29.0952L29.3883 17.5562C29.5495 16.765 29.7803 15.6676 29.901 15.1173C30.0556 14.4121 30.0305 14.0324 29.8157 13.8313C29.0092 13.0766 25.2609 11.1825 24.3293 11.0592C23.3652 10.9314 23.1949 11.0004 22.2702 11.8929C21.3761 12.7559 21.1213 12.866 20.021 12.866C18.9285 12.866 18.6638 12.7537 17.8082 11.928C16.736 10.8929 15.9331 10.7543 14.5222 11.3606Z"/>
</mask>
<path fill-rule="evenodd" clip-rule="evenodd" d="M14.5222 11.3606C13.4761 11.8102 10.181 13.7422 10.0193 14.0009C9.95172 14.1092 10.0671 15.0237 10.2761 16.0333C10.9381 19.2301 10.8066 18.9945 11.9279 18.9945H12.9353V23.9973V29.0001H20.021H27.1067V23.9973V18.9945H28.101H29.0952L29.3883 17.5562C29.5495 16.765 29.7803 15.6676 29.901 15.1173C30.0556 14.4121 30.0305 14.0324 29.8157 13.8313C29.0092 13.0766 25.2609 11.1825 24.3293 11.0592C23.3652 10.9314 23.1949 11.0004 22.2702 11.8929C21.3761 12.7559 21.1213 12.866 20.021 12.866C18.9285 12.866 18.6638 12.7537 17.8082 11.928C16.736 10.8929 15.9331 10.7543 14.5222 11.3606Z" stroke="white" stroke-width="2.5" mask="url(#path-2-inside-1_3476_9786)"/>
</svg>
