<svg width="24" height="24" viewBox="0 0 24 24" fill="none" xmlns="http://www.w3.org/2000/svg">
<path d="M23.0001 2.99994C22.0424 3.67542 20.9822 4.19205 19.8601 4.52994C19.2578 3.83745 18.4574 3.34663 17.5671 3.12387C16.6768 2.9011 15.7396 2.95713 14.8821 3.28439C14.0247 3.61165 13.2885 4.19434 12.773 4.95366C12.2576 5.71297 11.9878 6.61228 12.0001 7.52994V8.52994C10.2427 8.57551 8.50134 8.18575 6.93107 7.39539C5.3608 6.60502 4.01038 5.43857 3.00006 3.99994C3.00006 3.99994 -0.999939 12.9999 8.00006 16.9999C5.94059 18.3979 3.48722 19.0989 1.00006 18.9999C10.0001 23.9999 21.0001 18.9999 21.0001 7.49994C20.9991 7.22139 20.9724 6.94353 20.9201 6.66994C21.9407 5.66343 22.6609 4.39265 23.0001 2.99994Z" stroke="#1C1C1C" stroke-width="1.25" stroke-linecap="round" stroke-linejoin="round"/>
</svg>
