<svg width="16" height="16" viewBox="0 0 16 16" fill="none" xmlns="http://www.w3.org/2000/svg">
<path d="M10.6667 1.33334V3.99967M5.33333 1.33334V3.99967M3.33333 2.49986H12.6667C13.403 2.49986 14 3.09674 14 3.83303V13.1652C14 13.9015 13.403 14.4983 12.6667 14.4983H3.33333C2.59695 14.4983 2 13.9015 2 13.1652V3.83303C2 3.09674 2.59695 2.49986 3.33333 2.49986Z" stroke="#1C1C1C" stroke-width="1.25" stroke-linecap="round" stroke-linejoin="round"/>
<path d="M8.2877 6.99162V8.87773L9.54526 9.50643M11.4316 8.87773C11.4316 10.6138 10.024 12.0212 8.2877 12.0212C6.55137 12.0212 5.1438 10.6138 5.1438 8.87773C5.1438 7.14162 6.55137 5.73422 8.2877 5.73422C10.024 5.73422 11.4316 7.14162 11.4316 8.87773Z" stroke="#1C1C1C" stroke-width="1.25" stroke-linecap="round" stroke-linejoin="round"/>
</svg>
