<svg width="16" height="16" viewBox="0 0 16 16" fill="none" xmlns="http://www.w3.org/2000/svg">
<path d="M10.6667 1.39999V4.06632M5.33333 1.39999V4.06632M8.28778 7.05828V8.94438L9.54535 9.57308M3.33333 2.56651H12.6667C13.403 2.56651 14 3.16339 14 3.89968V13.2318C14 13.9681 13.403 14.565 12.6667 14.565H3.33333C2.59695 14.565 2 13.9681 2 13.2318V3.89968C2 3.16339 2.59695 2.56651 3.33333 2.56651ZM11.4317 8.94438C11.4317 10.6805 10.0241 12.0879 8.28778 12.0879C6.55145 12.0879 5.14388 10.6805 5.14388 8.94438C5.14388 7.20827 6.55145 5.80087 8.28778 5.80087C10.0241 5.80087 11.4317 7.20827 11.4317 8.94438Z" stroke="#1C1C1C" stroke-width="1.25" stroke-linecap="round" stroke-linejoin="round"/>
</svg>
