<svg xmlns="http://www.w3.org/2000/svg" width="974" height="948" fill="none"><path fill="#FF3636" fill-rule="evenodd" d="M261.359 878.446c224.843 131.244 513.511 55.375 644.76-169.468 131.251-224.842 55.375-513.511-169.468-644.759C668.893 24.666 595.337 3.923 522.041.4c24.227 9.03 48.014 20.25 71.106 33.73 217.47 126.945 290.856 406.149 163.911 623.619-106.084 181.734-318.497 262.846-512.357 210.514a479.63 479.63 0 0 0 16.658 10.184Z" clip-rule="evenodd"/><path fill="#1C1C1C" fill-rule="evenodd" d="M665.401 530.876c4.531-173.675-132.587-318.14-306.263-322.671-173.675-4.532-318.14 132.587-322.671 306.262-1.365 52.329 10.129 102.006 31.608 146.002a306.202 306.202 0 0 1-3.114-52.405c4.383-167.981 144.111-300.604 312.092-296.221 140.388 3.663 256.08 101.859 287.741 232.075.29-4.323.493-8.671.607-13.042Z" clip-rule="evenodd"/><path fill="#FF3636" fill-rule="evenodd" d="M643.484 699.382c155.378-123.551 181.18-349.667 57.629-505.045-123.55-155.378-349.666-181.18-505.044-57.629-46.813 37.223-81.864 83.757-104.612 134.861a349.774 349.774 0 0 1 43.583-41.19c150.284-119.5 368.986-94.544 488.486 55.739 99.871 125.6 98.845 298.988 8.085 422.316a365.97 365.97 0 0 0 11.873-9.052Z" clip-rule="evenodd"/><path fill="#1C1C1C" fill-rule="evenodd" d="M431.28 379.859c-124.268-45.892-262.209 17.645-308.101 141.913-45.892 124.268 17.645 262.21 141.913 308.101 37.433 13.824 76.106 17.719 113.131 13.015a233.484 233.484 0 0 1-38.569-10.608c-120.194-44.387-181.647-177.806-137.26-298 37.099-100.459 136.394-159.883 238.179-150.772a242.811 242.811 0 0 0-9.293-3.649Z" clip-rule="evenodd"/></svg>