<svg width="16" height="16" viewBox="0 0 16 16" fill="none" xmlns="http://www.w3.org/2000/svg">
<path d="M11.5454 6.13779H4.66263C4.02999 6.13779 3.5155 5.60756 3.5155 4.95557V3.18223C3.5155 2.53023 4.02999 2 4.66263 2H11.5454C12.178 2 12.6925 2.53023 12.6925 3.18223V4.95557C12.6925 5.60756 12.178 6.13779 11.5454 6.13779Z" stroke="#1C1C1C" stroke-width="1.25"/>
<path d="M12.6779 3.37503C12.3327 3.37503 12.0529 3.65485 12.0529 4.00003C12.0529 4.34521 12.3327 4.62503 12.6779 4.62503V3.37503ZM13.6338 4.62503C13.979 4.62503 14.2588 4.34521 14.2588 4.00003C14.2588 3.65485 13.979 3.37503 13.6338 3.37503V4.62503ZM12.6779 4.62503H13.6338V3.37503H12.6779V4.62503Z" fill="#1C1C1C"/>
<path d="M8 10.0564V7.84224C8 7.67938 7.86729 7.54668 7.70444 7.54668H3.27109C2.51979 7.54668 2.08887 7.11576 2.08887 6.36445V5.18223C2.08887 4.43092 2.51979 4 3.27109 4H3.56665" stroke="#1C1C1C" stroke-width="1.25"/>
<path d="M7.69677 15.3333H8.27034C8.74468 15.3333 9.13068 14.9541 9.13068 14.4881V11.3888C9.13068 10.5066 8.70194 9.98004 7.98355 9.98004C7.26517 9.98004 6.83643 10.5066 6.83643 11.3888V14.4881C6.83643 14.9541 7.22243 15.3333 7.69677 15.3333Z" stroke="#1C1C1C" stroke-width="1.25"/>
</svg>
