<svg width="16" height="16" viewBox="0 0 16 16" fill="none" xmlns="http://www.w3.org/2000/svg">
<path d="M8.11405 9.31414V7.17517C8.11405 7.01223 7.98128 6.87946 7.81834 6.87946H3.38277C2.63109 6.87946 2.19995 6.44833 2.19995 5.69664V4.51382C2.19995 3.76214 2.63109 3.331 3.38277 3.331H3.62734M13.1166 3.331L13.7507 3.33105M11.6613 5.46987H4.77505C4.14209 5.46987 3.62734 4.93938 3.62734 4.28705V3.39994V2.51282C3.62734 1.8605 4.14209 1.33 4.77505 1.33H11.6613C12.2942 1.33 12.809 1.8605 12.809 2.51282V4.28705C12.809 4.93938 12.2942 5.46987 11.6613 5.46987ZM8.38456 14.67H7.81071C7.33613 14.67 6.94993 14.2906 6.94993 13.8243V10.7235C6.94993 9.8409 7.37889 9.31405 8.09764 9.31405C8.81639 9.31405 9.24534 9.8409 9.24534 10.7235V13.8243C9.24534 14.2906 8.85914 14.67 8.38456 14.67Z" stroke="#1C1C1C" stroke-width="1.25" stroke-linecap="round"/>
</svg>
