<svg width="24" height="24" viewBox="0 0 24 24" fill="none" xmlns="http://www.w3.org/2000/svg">
<path d="M12.3751 11.9375C12.3751 11.6268 12.1233 11.375 11.8126 11.375C11.502 11.375 11.2501 11.6268 11.2501 11.9375C11.2501 12.2482 11.502 12.5 11.8126 12.5C12.1233 12.5 12.3751 12.2482 12.3751 11.9375Z" fill="#1C1C1C"/>
<path d="M12.3751 4.9375C12.3751 4.62684 12.1233 4.375 11.8126 4.375C11.502 4.375 11.2501 4.62684 11.2501 4.9375C11.2501 5.24816 11.502 5.5 11.8126 5.5C12.1233 5.5 12.3751 5.24816 12.3751 4.9375Z" fill="#1C1C1C"/>
<path d="M12.3751 18.9375C12.3751 18.6268 12.1233 18.375 11.8126 18.375C11.502 18.375 11.2501 18.6268 11.2501 18.9375C11.2501 19.2482 11.502 19.5 11.8126 19.5C12.1233 19.5 12.3751 19.2482 12.3751 18.9375Z" fill="#1C1C1C"/>
<path d="M12.3751 11.9375C12.3751 11.6268 12.1233 11.375 11.8126 11.375C11.502 11.375 11.2501 11.6268 11.2501 11.9375C11.2501 12.2482 11.502 12.5 11.8126 12.5C12.1233 12.5 12.3751 12.2482 12.3751 11.9375Z" stroke="#1C1C1C" stroke-width="1.25" stroke-linecap="round" stroke-linejoin="round"/>
<path d="M12.3751 4.9375C12.3751 4.62684 12.1233 4.375 11.8126 4.375C11.502 4.375 11.2501 4.62684 11.2501 4.9375C11.2501 5.24816 11.502 5.5 11.8126 5.5C12.1233 5.5 12.3751 5.24816 12.3751 4.9375Z" stroke="#1C1C1C" stroke-width="1.25" stroke-linecap="round" stroke-linejoin="round"/>
<path d="M12.3751 18.9375C12.3751 18.6268 12.1233 18.375 11.8126 18.375C11.502 18.375 11.2501 18.6268 11.2501 18.9375C11.2501 19.2482 11.502 19.5 11.8126 19.5C12.1233 19.5 12.3751 19.2482 12.3751 18.9375Z" stroke="#1C1C1C" stroke-width="1.25" stroke-linecap="round" stroke-linejoin="round"/>
</svg>
