<svg width="48" height="48" viewBox="0 0 48 48" fill="none" xmlns="http://www.w3.org/2000/svg">
<path d="M44 14.6234V19.9961M44 19.9961L38.6262 19.9961M44 19.9961L34.7381 11.2761C31.9788 8.5156 28.3968 6.72649 24.532 6.17841C20.6672 5.63032 16.7288 6.35295 13.3105 8.2374C9.89221 10.1218 7.17908 13.066 5.57999 16.6262C3.9809 20.1865 3.58248 24.1699 4.44477 27.9762C5.30706 31.7825 7.38334 35.2055 10.3607 37.7294C13.3381 40.2533 17.0553 41.7413 20.9522 41.9693C24.8491 42.1972 28.7144 41.1527 31.9659 38.9931C35.2173 36.8335 37.6787 33.6759 38.979 29.9961" stroke="#FF3636" stroke-width="1.25" stroke-linecap="round" stroke-linejoin="round"/>
<path d="M34.4729 24.0001C34.4729 30.7104 29.032 36.1501 22.3204 36.1501M34.4729 24.0001C34.4729 17.2898 29.032 11.8501 22.3204 11.8501M34.4729 24.0001H10.168M22.3204 36.1501C15.6088 36.1501 10.168 30.7104 10.168 24.0001M22.3204 36.1501C25.3601 32.823 27.0875 28.5053 27.1814 24.0001C27.0875 19.4949 25.3601 15.1772 22.3204 11.8501M22.3204 36.1501C19.2808 32.823 17.5533 28.5053 17.4594 24.0001C17.5533 19.4949 19.2808 15.1772 22.3204 11.8501M10.168 24.0001C10.168 17.2898 15.6088 11.8501 22.3204 11.8501" stroke="white" stroke-width="1.25" stroke-linecap="round" stroke-linejoin="round"/>
</svg>
