<svg width="48" height="48" viewBox="0 0 48 48" fill="none" xmlns="http://www.w3.org/2000/svg">
<path d="M33.625 3H40.625C43.0365 3 45 4.96175 45 7.375V14.375" stroke="#1C1C1C" stroke-width="2.5" stroke-linecap="round" stroke-linejoin="round"/>
<path d="M33.625 45H40.625C43.0365 45 45 43.0382 45 40.625V33.625" stroke="#1C1C1C" stroke-width="2.5" stroke-linecap="round" stroke-linejoin="round"/>
<path d="M14.375 45H10.875H7.375C4.9635 45 3 43.0382 3 40.625V33.625" stroke="#1C1C1C" stroke-width="2.5" stroke-linecap="round" stroke-linejoin="round"/>
<path d="M3 14.375V7.375C3 4.96175 4.9635 3 7.375 3H14.375" stroke="#1C1C1C" stroke-width="2.5" stroke-linecap="round" stroke-linejoin="round"/>
<path d="M11.75 28.375V33.625C11.75 35.0723 12.9277 36.25 14.375 36.25H33.625C35.0722 36.25 36.25 35.0723 36.25 33.625V28.375" stroke="#1C1C1C" stroke-width="2.5" stroke-linecap="round" stroke-linejoin="round"/>
<path d="M11.75 21.375V14.375C11.75 12.9277 12.9277 11.75 14.375 11.75H33.625C35.0722 11.75 36.25 12.9277 36.25 14.375V21.375" stroke="#1C1C1C" stroke-width="2.5" stroke-linecap="round" stroke-linejoin="round"/>
<path d="M38.875 28.25H9.125" stroke="#1C1C1C" stroke-width="2.5" stroke-linecap="round" stroke-linejoin="round"/>
</svg>
