<svg width="24" height="24" viewBox="0 0 24 24" fill="none" xmlns="http://www.w3.org/2000/svg">
<path d="M17.7299 7.72996C18.0208 7.43985 18.3786 7.22587 18.7719 7.10697C19.1651 6.98807 19.5816 6.9679 19.9844 7.04825C20.3873 7.12859 20.7642 7.30698 21.0817 7.56763C21.3992 7.82828 21.6476 8.16316 21.8049 8.54265C21.9622 8.92214 22.0236 9.33455 21.9836 9.74341C21.9436 10.1523 21.8034 10.545 21.5756 10.8868C21.3477 11.2286 21.0391 11.5089 20.6771 11.7031C20.315 11.8973 19.9107 11.9992 19.4999 12H1.99994M9.58994 4.58996C9.82225 4.35627 10.1087 4.1836 10.4238 4.0873C10.7389 3.991 11.073 3.97405 11.3962 4.03795C11.7195 4.10186 12.0219 4.24464 12.2767 4.4536C12.5315 4.66257 12.7307 4.93125 12.8566 5.23575C12.9825 5.54026 13.0312 5.87115 12.9984 6.19902C12.9656 6.52689 12.8523 6.84159 12.6686 7.11512C12.4849 7.38865 12.2364 7.61256 11.9453 7.76692C11.6542 7.92129 11.3294 8.00134 10.9999 7.99996H1.99994L9.58994 4.58996ZM12.5899 19.41C12.8222 19.6436 13.1087 19.8163 13.4238 19.9126C13.7389 20.0089 14.073 20.0259 14.3962 19.962C14.7195 19.8981 15.0219 19.7553 15.2767 19.5463C15.5315 19.3373 15.7307 19.0687 15.8566 18.7642C15.9825 18.4597 16.0312 18.1288 15.9984 17.8009C15.9656 17.473 15.8523 17.1583 15.6686 16.8848C15.4849 16.6113 15.2364 16.3874 14.9453 16.233C14.6542 16.0786 14.3294 15.9986 13.9999 16H1.99994L12.5899 19.41Z" stroke="#1C1C1C" stroke-width="1.25" stroke-linecap="round" stroke-linejoin="round"/>
</svg>
