<svg width="32" height="32" viewBox="0 0 32 32" fill="none" xmlns="http://www.w3.org/2000/svg">
<g clip-path="url(#clip0_2413_12624)">
<path d="M22.9522 21.2843L23.38 21.7445L23.7324 21.2243C24.7708 19.6916 25.3305 17.8821 25.3305 16.0013C25.3305 10.8566 21.1459 6.67202 16.0013 6.67202C10.8566 6.67202 6.67202 10.8566 6.67202 16.0013C6.67202 17.8821 7.23168 19.6916 8.27011 21.2243L8.62249 21.7444L9.05025 21.2843C12.804 17.2466 19.2052 17.2537 22.9522 21.2843ZM9.04183 21.5482L8.74478 21.8813L9.04227 22.2141C12.7616 26.3747 19.2424 26.3734 22.9601 22.2141L23.2575 21.8813L22.9605 21.5482C19.2556 17.3922 12.7479 17.3912 9.04183 21.5482ZM16.0013 6.5C21.2533 6.5 25.5025 10.7498 25.5025 16.0013C25.5025 21.2301 21.2665 25.5025 16.0013 25.5025C10.7146 25.5025 6.5 21.2065 6.5 16.0013C6.5 10.7492 10.7498 6.5 16.0013 6.5Z" fill="#999999" stroke="#999999"/>
<mask id="path-2-inside-1_2413_12624" fill="white">
<path d="M16.0014 16.5873C17.9401 16.5873 19.5175 15.01 19.5175 13.0713V11.8992C19.5175 9.96052 17.9401 8.38318 16.0014 8.38318C14.0627 8.38318 12.4854 9.96052 12.4854 11.8992V13.0713C12.4854 15.01 14.0627 16.5873 16.0014 16.5873ZM13.6574 11.8992C13.6574 10.6067 14.7088 9.5552 16.0014 9.5552C17.294 9.5552 18.3455 10.6067 18.3455 11.8992V13.0713C18.3455 14.3638 17.294 15.4153 16.0014 15.4153C14.7088 15.4153 13.6574 14.3638 13.6574 13.0713V11.8992Z"/>
</mask>
<path d="M16.0014 16.5873C17.9401 16.5873 19.5175 15.01 19.5175 13.0713V11.8992C19.5175 9.96052 17.9401 8.38318 16.0014 8.38318C14.0627 8.38318 12.4854 9.96052 12.4854 11.8992V13.0713C12.4854 15.01 14.0627 16.5873 16.0014 16.5873ZM13.6574 11.8992C13.6574 10.6067 14.7088 9.5552 16.0014 9.5552C17.294 9.5552 18.3455 10.6067 18.3455 11.8992V13.0713C18.3455 14.3638 17.294 15.4153 16.0014 15.4153C14.7088 15.4153 13.6574 14.3638 13.6574 13.0713V11.8992Z" fill="#999999"/>
<path d="M16.0014 17.8373C18.6305 17.8373 20.7675 15.7003 20.7675 13.0713H18.2675C18.2675 14.3196 17.2498 15.3373 16.0014 15.3373V17.8373ZM20.7675 13.0713V11.8992H18.2675V13.0713H20.7675ZM20.7675 11.8992C20.7675 9.27017 18.6305 7.13318 16.0014 7.13318V9.63318C17.2498 9.63318 18.2675 10.6509 18.2675 11.8992H20.7675ZM16.0014 7.13318C13.3723 7.13318 11.2354 9.27017 11.2354 11.8992H13.7354C13.7354 10.6509 14.7531 9.63318 16.0014 9.63318V7.13318ZM11.2354 11.8992V13.0713H13.7354V11.8992H11.2354ZM11.2354 13.0713C11.2354 15.7003 13.3723 17.8373 16.0014 17.8373V15.3373C14.7531 15.3373 13.7354 14.3196 13.7354 13.0713H11.2354ZM14.9074 11.8992C14.9074 11.297 15.3992 10.8052 16.0014 10.8052V8.3052C14.0185 8.3052 12.4074 9.91631 12.4074 11.8992H14.9074ZM16.0014 10.8052C16.6036 10.8052 17.0955 11.297 17.0955 11.8992H19.5955C19.5955 9.91631 17.9844 8.3052 16.0014 8.3052V10.8052ZM17.0955 11.8992V13.0713H19.5955V11.8992H17.0955ZM17.0955 13.0713C17.0955 13.6735 16.6036 14.1653 16.0014 14.1653V16.6653C17.9844 16.6653 19.5955 15.0542 19.5955 13.0713H17.0955ZM16.0014 14.1653C15.3992 14.1653 14.9074 13.6735 14.9074 13.0713H12.4074C12.4074 15.0542 14.0185 16.6653 16.0014 16.6653V14.1653ZM14.9074 13.0713V11.8992H12.4074V13.0713H14.9074Z" fill="#999999" mask="url(#path-2-inside-1_2413_12624)"/>
</g>
<defs>
<clipPath id="clip0_2413_12624">
<rect width="20.0025" height="20.0025" fill="white" transform="translate(6 6)"/>
</clipPath>
</defs>
</svg>
