<svg width="20" height="20" viewBox="0 0 20 20" fill="none" xmlns="http://www.w3.org/2000/svg">
<g clip-path="url(#clip0_6815_32733)">
<path d="M0 4.13333C0 1.85056 1.85055 0 4.13333 0H15.8667C18.1495 0 20 1.85056 20 4.13333V15.8667C20 18.1494 18.1495 20 15.8667 20H4.13333C1.85055 20 0 18.1494 0 15.8667V4.13333Z" fill="#FF3636"/>
<path d="M8.07568 5.58656C8.07568 5.20664 8.36639 4.89868 8.72498 4.89868H11.2724C11.631 4.89868 11.9217 5.20664 11.9217 5.58656V6.73509H8.07568V5.58656Z" fill="#1C1C1C"/>
<path d="M10.7242 3.99748C10.7242 4.22151 10.6379 4.52058 10.4934 4.76319C10.3447 5.01251 10.1666 5.15202 10.0049 5.15202C9.8433 5.15202 9.66518 5.01251 9.5166 4.76319C9.37204 4.52058 9.28574 4.22151 9.28574 3.99748C9.28574 3.56352 9.61046 3.21704 10.0049 3.21704C10.3994 3.21704 10.7242 3.56352 10.7242 3.99748Z" stroke="#1C1C1C" stroke-width="0.5"/>
<path d="M4.4633 6.70743C4.70851 6.70743 4.90729 6.49683 4.90729 6.23708C4.90729 5.97732 4.70851 5.76672 4.4633 5.76672C4.21808 5.76672 4.01929 5.97732 4.01929 6.23708C4.01929 6.49683 4.21808 6.70743 4.4633 6.70743Z" fill="white"/>
<path d="M15.8964 16.1144C16.1416 16.1144 16.3404 15.9038 16.3404 15.6441C16.3404 15.3843 16.1416 15.1737 15.8964 15.1737C15.6512 15.1737 15.4524 15.3843 15.4524 15.6441C15.4524 15.9038 15.6512 16.1144 15.8964 16.1144Z" fill="white"/>
<g filter="url(#filter0_f_6815_32733)">
<path d="M6.40582 21.5233C7.47863 21.5233 8.34833 20.602 8.34833 19.4655C8.34833 18.329 7.47863 17.4077 6.40582 17.4077C5.33301 17.4077 4.46332 18.329 4.46332 19.4655C4.46332 20.602 5.33301 21.5233 6.40582 21.5233Z" fill="white"/>
</g>
<path d="M16.3957 9.64719C16.4878 9.64719 16.5624 9.56821 16.5624 9.47081C16.5624 9.37341 16.4878 9.29443 16.3957 9.29443C16.3039 9.29443 16.2294 9.37341 16.2294 9.47081C16.2294 9.56821 16.3039 9.64719 16.3957 9.64719Z" fill="white"/>
<path d="M3.07579 12.5867C3.16776 12.5867 3.24229 12.5078 3.24229 12.4104C3.24229 12.313 3.16776 12.2341 3.07579 12.2341C2.98385 12.2341 2.9093 12.313 2.9093 12.4104C2.9093 12.5078 2.98385 12.5867 3.07579 12.5867Z" fill="white"/>
<path d="M15.3969 4.00303C15.5502 4.00303 15.6743 3.87141 15.6743 3.70906C15.6743 3.54671 15.5502 3.4151 15.3969 3.4151C15.2436 3.4151 15.1194 3.54671 15.1194 3.70906C15.1194 3.87141 15.2436 4.00303 15.3969 4.00303Z" fill="white"/>
<path d="M6.7943 1.01925C7.16213 1.01925 7.46031 0.703378 7.46031 0.313733C7.46031 -0.0759133 7.16213 -0.391785 6.7943 -0.391785C6.42648 -0.391785 6.1283 -0.0759133 6.1283 0.313733C6.1283 0.703378 6.42648 1.01925 6.7943 1.01925Z" fill="white"/>
<mask id="mask0_6815_32733" style="mask-type:alpha" maskUnits="userSpaceOnUse" x="4" y="6" width="12" height="11">
<path d="M10 16.2992C12.8152 16.2992 15.0974 14.021 15.0974 11.2106C15.0974 8.40032 12.8152 6.12207 10 6.12207C7.18478 6.12207 4.90259 8.40032 4.90259 11.2106C4.90259 14.021 7.18478 16.2992 10 16.2992Z" fill="white"/>
</mask>
<g mask="url(#mask0_6815_32733)">
<path d="M4.90259 8.28282C4.90259 7.08994 5.86326 6.12292 7.0483 6.12292H12.9491C14.134 6.12292 15.0947 7.08994 15.0947 8.28282V10.2146C15.0947 10.3603 14.8624 10.422 14.7826 10.3005C14.187 9.39299 12.6946 7.67534 9.93157 7.67534C7.23077 7.67534 5.81345 9.31655 5.23053 10.238C5.15136 10.3631 4.90259 10.3019 4.90259 10.1536V8.28282Z" fill="white"/>
<path d="M4.90259 12.263V12.3976C4.90259 12.5198 5.05496 12.5848 5.14448 12.5023C5.79282 11.9046 7.67867 10.5355 9.99866 10.5355C12.3187 10.5355 14.2045 11.9046 14.8528 12.5023C14.9424 12.5848 15.0947 12.5198 15.0947 12.3976V12.263C15.0947 11.9999 15.0217 11.7428 14.8613 11.5351C14.266 10.7645 12.5555 9.05054 9.99866 9.05054C7.44184 9.05054 5.73133 10.7645 5.13603 11.5351C4.97556 11.7428 4.90259 11.9999 4.90259 12.263Z" fill="white"/>
<path d="M4.90259 13.9614V14.3504C4.90259 14.4486 5.00274 14.5161 5.09329 14.4796C5.68829 14.24 7.61418 13.5476 9.99866 13.5476C12.3831 13.5476 14.3091 14.24 14.904 14.4796C14.9946 14.5161 15.0947 14.4486 15.0947 14.3504V13.9614C15.0947 13.7854 15.0152 13.6201 14.8683 13.5246C14.2794 13.1422 12.5656 12.1976 9.99866 12.1976C7.43176 12.1976 5.71785 13.1422 5.12904 13.5246C4.98208 13.6201 4.90259 13.7854 4.90259 13.9614Z" fill="white"/>
<path d="M6.52484 16.315H13.3688C13.9414 16.315 14.4729 16.016 14.773 15.5252C14.7986 15.4834 14.7756 15.4292 14.7274 15.4215C14.2094 15.3386 11.77 14.9641 9.99871 14.9651C8.2217 14.9661 5.76661 15.3514 5.31187 15.4254C5.27437 15.4315 5.25359 15.4718 5.2695 15.5065C5.49549 15.9994 5.98555 16.315 6.52484 16.315Z" fill="white"/>
</g>
</g>
<defs>
<filter id="filter0_f_6815_32733" x="3.46332" y="16.4077" width="5.88501" height="6.1156" filterUnits="userSpaceOnUse" color-interpolation-filters="sRGB">
<feFlood flood-opacity="0" result="BackgroundImageFix"/>
<feBlend mode="normal" in="SourceGraphic" in2="BackgroundImageFix" result="shape"/>
<feGaussianBlur stdDeviation="0.5" result="effect1_foregroundBlur_6815_32733"/>
</filter>
<clipPath id="clip0_6815_32733">
<rect width="20" height="20" rx="10" fill="white"/>
</clipPath>
</defs>
</svg>
