<svg width="40" height="40" viewBox="0 0 40 40" fill="none" xmlns="http://www.w3.org/2000/svg">
<rect width="40" height="40" rx="20" fill="#F6F6F7"/>
<path d="M21.8808 10H13.9997C13.4693 10 12.9607 10.2107 12.5857 10.5859C12.2107 10.961 12 11.4698 12 12.0003V28.0023C12 28.5327 12.2107 29.0415 12.5857 29.4166C12.9607 29.7918 13.4693 30.0025 13.9997 30.0025H25.9978C26.5282 30.0025 27.0368 29.7918 27.4118 29.4166C27.7868 29.0415 27.9975 28.5327 27.9975 28.0023V16.1184M21.8808 10L27.9975 16.1184M21.8808 10V16.1184H27.9975" stroke="#1C1C1C" stroke-width="1.25" stroke-linecap="round" stroke-linejoin="round"/>
<path d="M14.9404 23.5315H19.4775M14.9404 25.2965H19.4775M16.6418 21.7666L16.0747 27.0614M18.3433 21.7666L17.7761 27.0614" stroke="#1C1C1C" stroke-width="1.25" stroke-linecap="round" stroke-linejoin="round"/>
</svg>
