<svg width="24" height="24" viewBox="0 0 24 24" fill="none" xmlns="http://www.w3.org/2000/svg">
<g clip-path="url(#clip0_21_10506)">
<path d="M8.00009 19V21M8.00009 13V15M16.0001 19V21M16.0001 13V15M12.0001 21V23M12.0001 15V17M20.0001 16.58C21.0513 16.1196 21.9122 15.3115 22.4382 14.2915C22.9642 13.2715 23.1232 12.1016 22.8887 10.9781C22.6542 9.85472 22.0403 8.84617 21.1501 8.12179C20.26 7.39742 19.1477 7.00131 18.0001 6.99996H16.7401C16.4231 5.77248 15.8189 4.63791 14.9774 3.68976C14.1359 2.74161 13.081 2.00703 11.8999 1.54658C10.7187 1.08612 9.445 0.912974 8.18378 1.0414C6.92255 1.16983 5.7099 1.59615 4.64579 2.28524C3.58167 2.97433 2.69656 3.90644 2.0634 5.00475C1.43024 6.10307 1.06717 7.33613 1.00411 8.60231C0.941045 9.86849 1.1798 11.1315 1.7007 12.2873C2.22159 13.4431 3.00971 14.4586 4.00009 15.25" stroke="#1C1C1C" stroke-width="1.25" stroke-linecap="round" stroke-linejoin="round"/>
</g>
<defs>
<clipPath id="clip0_21_10506">
<rect width="24" height="24" fill="white"/>
</clipPath>
</defs>
</svg>
