<svg width="16" height="16" viewBox="0 0 16 16" fill="none" xmlns="http://www.w3.org/2000/svg">
<path fill-rule="evenodd" clip-rule="evenodd" d="M8.36885 2.7533C8.13659 2.63717 7.86321 2.63717 7.63095 2.7533L1.41149 5.86302C0.80343 6.16705 0.803426 7.03479 1.41149 7.33883L2.9999 8.13303V11.6113C2.9999 11.8253 3.10942 12.0245 3.29016 12.1391C4.74623 13.0625 8.54885 14.3054 12.4668 12.1595C12.6671 12.0498 12.7916 11.8396 12.7916 11.6113V8.2372L14.5883 7.33883C15.1964 7.0348 15.1964 6.16706 14.5883 5.86302L8.36885 2.7533ZM11.5416 8.8622L8.36885 10.4486C8.13659 10.5647 7.86321 10.5647 7.63095 10.4486L4.2499 8.75803V11.251C5.57613 11.9528 8.49027 12.7421 11.5416 11.2324V8.8622ZM2.73077 6.60093L7.9999 3.96636L13.269 6.60093L7.9999 9.23549L2.73077 6.60093Z" fill="#1C1C1C"/>
<path d="M15.125 6.60092C15.125 6.25574 14.8452 5.97592 14.5 5.97592C14.1548 5.97592 13.875 6.25574 13.875 6.60092H15.125ZM13.875 9.10092C13.875 9.4461 14.1548 9.72592 14.5 9.72592C14.8452 9.72592 15.125 9.4461 15.125 9.10092H13.875ZM13.875 6.60092V9.10092H15.125V6.60092H13.875Z" fill="#1C1C1C"/>
</svg>
