<svg width="24" height="24" viewBox="0 0 24 24" fill="none" xmlns="http://www.w3.org/2000/svg">
<path d="M16.0001 16V3H1.00012V16H16.0001ZM16.0001 16H23.0001V11L20.0001 8H16.0001V16ZM8.00012 18.5C8.00012 19.8807 6.88083 21 5.50012 21C4.11941 21 3.00012 19.8807 3.00012 18.5C3.00012 17.1193 4.11941 16 5.50012 16C6.88083 16 8.00012 17.1193 8.00012 18.5ZM21.0001 18.5C21.0001 19.8807 19.8808 21 18.5001 21C17.1194 21 16.0001 19.8807 16.0001 18.5C16.0001 17.1193 17.1194 16 18.5001 16C19.8808 16 21.0001 17.1193 21.0001 18.5Z" stroke="#1C1C1C" stroke-width="1.25" stroke-linecap="round" stroke-linejoin="round"/>
</svg>
