<svg width="32" height="32" viewBox="0 0 32 32" fill="none" xmlns="http://www.w3.org/2000/svg">
<path d="M22.0001 4H10.0001C8.67461 4 7.6001 5.07452 7.6001 6.4V25.6C7.6001 26.9255 8.67461 28 10.0001 28H22.0001C23.3256 28 24.4001 26.9255 24.4001 25.6V6.4C24.4001 5.07452 23.3256 4 22.0001 4Z" stroke="#999999" stroke-width="1.25" stroke-linecap="round" stroke-linejoin="round"/>
<path d="M19.74 20.6763H12.26C11.288 20.6763 10.5 21.3926 10.5 22.2763V23.0763C10.5 23.9599 11.288 24.6763 12.26 24.6763H19.74C20.712 24.6763 21.5 23.9599 21.5 23.0763V22.2763C21.5 21.3926 20.712 20.6763 19.74 20.6763Z" stroke="#999999" stroke-width="1.25" stroke-linecap="round" stroke-linejoin="round"/>
<path d="M21 8.57764H11" stroke="#999999" stroke-width="1.25" stroke-linecap="round" stroke-linejoin="round"/>
<path d="M16 12.937H11" stroke="#999999" stroke-width="1.25" stroke-linecap="round" stroke-linejoin="round"/>
</svg>
