<svg width="24" height="24" viewBox="0 0 24 24" fill="none" xmlns="http://www.w3.org/2000/svg">
<path d="M16.5 9.39996L7.5 4.20996M3.27 6.95996L12 12.01L20.73 6.95996M12 22.08V12M21 16V7.99996C20.9996 7.64924 20.9071 7.30477 20.7315 7.00113C20.556 6.69748 20.3037 6.44533 20 6.26996L13 2.26996C12.696 2.09443 12.3511 2.00201 12 2.00201C11.6489 2.00201 11.304 2.09443 11 2.26996L4 6.26996C3.69626 6.44533 3.44398 6.69748 3.26846 7.00113C3.09294 7.30477 3.00036 7.64924 3 7.99996V16C3.00036 16.3507 3.09294 16.6952 3.26846 16.9988C3.44398 17.3024 3.69626 17.5546 4 17.73L11 21.73C11.304 21.9055 11.6489 21.9979 12 21.9979C12.3511 21.9979 12.696 21.9055 13 21.73L20 17.73C20.3037 17.5546 20.556 17.3024 20.7315 16.9988C20.9071 16.6952 20.9996 16.3507 21 16Z" stroke="#1C1C1C" stroke-width="1.25" stroke-linecap="round" stroke-linejoin="round"/>
</svg>
