<svg width="24" height="24" viewBox="0 0 24 24" fill="none" xmlns="http://www.w3.org/2000/svg">
<path d="M6 12.0001H14C15.0609 12.0001 16.0783 11.5787 16.8284 10.8285C17.5786 10.0784 18 9.06099 18 8.00012C18 6.93926 17.5786 5.92184 16.8284 5.17169C16.0783 4.42155 15.0609 4.00012 14 4.00012H6V12.0001ZM6 12.0001H15C16.0609 12.0001 17.0783 12.4215 17.8284 13.1717C18.5786 13.9218 19 14.9393 19 16.0001C19 17.061 18.5786 18.0784 17.8284 18.8285C17.0783 19.5787 16.0609 20.0001 15 20.0001H6V12.0001Z" stroke="#1C1C1C" stroke-width="1.25" stroke-linecap="round" stroke-linejoin="round"/>
</svg>
