<svg width="32" height="32" viewBox="0 0 32 32" fill="none" xmlns="http://www.w3.org/2000/svg">
<path d="M22.9819 16.0001C22.9819 20.4736 19.3547 24.1001 14.8802 24.1001M22.9819 16.0001C22.9819 11.5266 19.3547 7.90007 14.8802 7.90007M22.9819 16.0001H6.77861M14.8802 24.1001C10.4058 24.1001 6.77861 20.4736 6.77861 16.0001M14.8802 24.1001C16.9067 21.882 18.0583 19.0035 18.1209 16.0001C18.0583 12.9966 16.9067 10.1181 14.8802 7.90007M14.8802 24.1001C12.8538 21.882 11.7022 19.0035 11.6396 16.0001C11.7022 12.9966 12.8538 10.1181 14.8802 7.90007M6.77861 16.0001C6.77861 11.5266 10.4058 7.90007 14.8802 7.90007M29.3333 9.74893V13.3307M29.3333 13.3307L25.7508 13.3307M29.3333 13.3307L23.1587 7.51741C21.3192 5.67706 18.9312 4.48433 16.3546 4.11894C13.7781 3.75355 11.1525 4.2353 8.87364 5.4916C6.59476 6.7479 4.78601 8.71068 3.71995 11.0842C2.65389 13.4577 2.38828 16.1133 2.96314 18.6508C3.538 21.1884 4.92219 23.4704 6.90712 25.153C8.89205 26.8355 11.3702 27.8276 13.9681 27.9795C16.566 28.1315 19.1429 27.4351 21.3105 25.9954C23.4782 24.5557 25.1191 22.4506 25.986 19.9974" stroke="#1C1C1C" stroke-width="1.25" stroke-linecap="round" stroke-linejoin="round"/>
</svg>
