<svg width="28" height="28" viewBox="0 0 28 28" fill="none" xmlns="http://www.w3.org/2000/svg">
<g clip-path="url(#clip0_112_199)">
<path fill-rule="evenodd" clip-rule="evenodd" d="M2.58925 9.80135C2.8394 9.79986 3.58283 9.7329 3.89773 10.7957C4.10985 11.5116 4.44774 12.6843 4.91142 14.3138H5.10025C5.5975 12.5959 5.93908 11.4232 6.125 10.7957C6.44318 9.72183 7.23864 9.80137 7.55682 9.80137L10.0117 9.80138V17.4377H7.50962V12.9375H7.34184L5.94707 17.4377H4.0646L2.66983 12.9342H2.50205V17.4377H0V9.80138L2.58925 9.80135ZM13.6046 9.80138V14.305H13.8042L15.5008 10.6017C15.8301 9.86473 16.532 9.80138 16.532 9.80138H18.9533V17.4377H16.399V12.9342H16.1994L14.536 16.6374C14.2067 17.371 13.4715 17.4377 13.4715 17.4377H11.0503V9.80138H13.6046ZM27.7821 13.4302C27.4258 14.4399 26.3069 15.163 25.0681 15.163H22.3894V17.4377H19.9604V13.4302H27.7821Z" fill="#3D3D45"/>
<path fill-rule="evenodd" clip-rule="evenodd" d="M25.1856 9.80127H19.8334C19.9608 11.5014 21.4248 12.9568 22.9405 12.9568H27.9512C28.2404 11.5438 27.245 9.80127 25.1856 9.80127Z" fill="#3D3D45"/>
</g>
<defs>
<clipPath id="clip0_112_199">
<rect width="28" height="28" fill="white"/>
</clipPath>
</defs>
</svg>
