<svg width="24" height="24" viewBox="0 0 24 24" fill="none" xmlns="http://www.w3.org/2000/svg">
<path d="M23.0001 6.99994V0.999939M23.0001 0.999939H17.0001M23.0001 0.999939L16.0001 7.99994M22.0001 16.9199V19.9199C22.0012 20.1984 21.9442 20.4741 21.8326 20.7293C21.7211 20.9845 21.5574 21.2135 21.3522 21.4018C21.147 21.5901 20.9047 21.7334 20.6409 21.8226C20.377 21.9119 20.0975 21.945 19.8201 21.9199C16.7429 21.5856 13.7871 20.5341 11.1901 18.8499C8.77394 17.3146 6.72545 15.2661 5.19012 12.8499C3.50009 10.2411 2.44836 7.27093 2.12012 4.17994C2.09513 3.90341 2.12799 3.6247 2.21662 3.36156C2.30524 3.09843 2.44769 2.85663 2.63488 2.65156C2.82208 2.44649 3.04992 2.28265 3.30391 2.17046C3.55789 2.05827 3.83246 2.0002 4.11012 1.99994H7.11012C7.59542 1.99516 8.06591 2.16702 8.43388 2.48347C8.80185 2.79993 9.04219 3.23939 9.11012 3.71994C9.23674 4.68 9.47157 5.62267 9.81012 6.52994C9.94466 6.88786 9.97378 7.27685 9.89402 7.65082C9.81427 8.02478 9.62898 8.36805 9.36012 8.63994L8.09012 9.90994C9.51367 12.4135 11.5866 14.4864 14.0901 15.9099L15.3601 14.6399C15.632 14.3711 15.9753 14.1858 16.3492 14.106C16.7232 14.0263 17.1122 14.0554 17.4701 14.1899C18.3774 14.5285 19.3201 14.7633 20.2801 14.8899C20.7659 14.9585 21.2095 15.2031 21.5266 15.5774C21.8438 15.9517 22.0123 16.4295 22.0001 16.9199Z" stroke="#1C1C1C" stroke-width="1.25" stroke-linecap="round" stroke-linejoin="round"/>
</svg>
