<svg width="24" height="24" viewBox="0 0 24 24" fill="none" xmlns="http://www.w3.org/2000/svg">
<path d="M21.7447 14.6491C18.9644 11.9889 15.7952 10.2993 11.9901 10.3576C8.23321 10.4151 5.0137 11.9674 2.25121 14.6589M21.7449 18.2044C15.2369 15.6081 8.76457 15.6078 2.25336 18.2018M2.25049 20.6314C2.23501 21.12 2.57861 21.75 3.93812 21.75H20.2968C21.7498 21.75 21.7092 20.9832 21.7449 20.6212M21.7499 3.82669C21.7499 6.24669 21.7499 8.66229 21.7499 11.1136C21.5733 10.8514 21.426 10.6239 21.2695 10.4018C19.9692 8.55533 18.3414 7.01353 16.1404 6.04779C14.9699 5.53418 13.8014 5.23412 12.6382 5.14474C10.8154 5.00467 9.00551 5.38188 7.22086 6.26528C5.12403 7.30318 3.58198 8.86004 2.35353 10.6904C2.329 10.727 2.30308 10.7628 2.25009 10.8386C2.25009 8.3838 2.25009 5.95986 2.25009 3.5284C2.25009 3.10257 2.81259 2.25 3.89089 2.25C9.3068 2.25 14.7207 2.25 20.156 2.25C21.1406 2.25 21.7499 2.84659 21.7499 3.82669Z" stroke="#1C1C1C" stroke-width="1.25" stroke-linecap="round" stroke-linejoin="round"/>
</svg>
