<svg width="40" height="40" viewBox="0 0 40 40" fill="none" xmlns="http://www.w3.org/2000/svg">
<rect width="40" height="40" rx="20" fill="#FDCC0F"/>
<path fill-rule="evenodd" clip-rule="evenodd" d="M15.7505 0.322829C13.4918 0.81687 10.9393 1.92423 8.8902 3.29914C6.99642 4.5701 4.46891 6.92892 5.32636 6.62469C5.5658 6.53999 9.78925 6.34762 14.7118 6.19748C21.427 5.99258 25.0401 5.98956 29.181 6.18542C32.2163 6.32906 34.7338 6.41236 34.7752 6.37083C34.8168 6.32906 34.044 5.61364 33.058 4.78057C29.1942 1.51628 24.9451 -0.0322118 19.942 0.000507642C18.4012 0.010718 16.515 0.155751 15.7505 0.322829ZM0.540592 15.1589C-0.0769564 16.7749 -0.19552 22.0421 0.34183 23.9997L0.532964 24.6958L11.0322 24.7724C16.8069 24.8146 25.6093 24.7763 30.5929 24.6875L39.6541 24.5257L39.8376 23.4506C40.1076 21.869 40.0274 17.7024 39.6973 16.1679L39.4105 14.8336H20.0377C3.63388 14.8336 0.645981 14.8835 0.540592 15.1589ZM5.00672 33.3509C5.00672 33.6747 7.15936 35.5921 8.70461 36.6447C10.4778 37.8525 11.9673 38.5747 14.2515 39.334C16.0669 39.9375 16.4965 39.9879 19.9138 39.9993C22.8888 40.009 23.9055 39.9252 25.114 39.5711C27.173 38.9678 29.6356 37.8184 31.2987 36.6844C32.8274 35.642 35.2349 33.4997 35.0521 33.3442C34.9885 33.2904 33.6365 33.3389 32.0476 33.4523C28.955 33.6733 7.31952 33.5196 5.87341 33.2667C5.34115 33.1734 5.00672 33.2061 5.00672 33.3509Z" fill="#0C0C0C"/>
</svg>
