<svg width="16" height="16" viewBox="0 0 16 16" fill="none" xmlns="http://www.w3.org/2000/svg">
<path d="M6.00173 8.28184H6.47572H6.94971L7.88915 8.28282L8.69409 8.27952C9.56569 8.27596 9.56035 8.2762 9.81074 8.22805C10.3575 8.12289 10.7761 7.87211 11.0447 7.4887C11.107 7.39973 11.2028 7.21249 11.2372 7.11258C11.2996 6.93078 11.3296 6.76224 11.3368 6.55189C11.3524 6.09895 11.2249 5.69252 10.9649 5.36686C10.9092 5.29714 10.7741 5.16506 10.6997 5.10767C10.406 4.88121 10.0707 4.75281 9.6015 4.68715C9.50817 4.67409 9.38511 4.67256 8.22437 4.66998L7.41943 4.66819V11.3387M6.00173 9.82997C7.26912 9.82918 9.24708 9.82793 9.24708 9.82793M1.32996 3.99492V6.66311M1.32996 6.66311H3.99814M1.32996 6.66311L4.42505 3.75478C5.34619 2.8352 6.54123 2.2399 7.83012 2.05856C9.119 1.87722 10.4319 2.11967 11.571 2.74938C12.7101 3.3791 13.6137 4.36196 14.1457 5.54987C14.6776 6.73779 14.8091 8.06641 14.5203 9.33554C14.2315 10.6047 13.538 11.7456 12.5444 12.5863C11.5508 13.4271 10.3109 13.9222 9.01148 13.9969C7.71205 14.0717 6.42351 13.7222 5.34001 13.001C4.25652 12.2798 3.43675 11.226 3.00424 9.99835" stroke="#1C1C1C" stroke-width="1.25" stroke-linecap="round" stroke-linejoin="round"/>
</svg>
