<svg width="24" height="24" viewBox="0 0 24 24" fill="none" xmlns="http://www.w3.org/2000/svg">
<path d="M4.18805 10.6716C4.18805 5.66127 4.02184 6.26925 4.18808 5.94353C4.38455 5.55856 4.57722 5.36729 4.98601 5.15125C5.23329 5.02061 6.12135 5.00392 12.9866 5.00059C20.3855 4.99706 20.7235 5.0042 21.0531 5.17249C21.4466 5.37331 21.6361 5.56756 21.8495 5.98896C21.9828 6.25228 21.9998 6.88276 21.9998 11.5799C21.9998 16.2769 21.9828 16.9074 21.8495 17.1707C21.7727 17.3224 21.6989 17.4447 21.6177 17.5484C21.3253 17.9217 20.8076 17.9872 20.3335 17.9872C19.5896 17.9872 18.0767 17.9872 14.9998 17.9872M21.7591 9.75684H21.1737H17.6609C16.5758 9.75684 15.9046 10.6908 15.9046 11.5864C15.9046 12.4819 16.5758 13.4159 17.6609 13.4159H21.1737H21.7591M17.9171 11.312C18.0687 11.312 18.1915 11.4348 18.1915 11.5864C18.1915 11.738 18.0687 11.8608 17.9171 11.8608C17.7655 11.8608 17.6427 11.738 17.6427 11.5864C17.6427 11.4348 17.7655 11.312 17.9171 11.312ZM9.77597 15.2454H9.19982C9.02874 14.5827 8.67524 13.9812 8.1795 13.5094C7.68375 13.0375 7.06563 12.7143 6.39538 12.5763C5.72513 12.4383 5.02961 12.4911 4.38787 12.7287C3.74613 12.9663 3.18389 13.3793 2.76504 13.9206C2.34619 14.4619 2.08753 15.1098 2.01845 15.7908C1.94936 16.4718 2.07263 17.1585 2.37423 17.7729C2.67583 18.3874 3.14369 18.9049 3.72462 19.2666C4.30556 19.6283 4.97629 19.8198 5.66059 19.8193H9.77597C10.3823 19.8193 10.9639 19.5784 11.3926 19.1495C11.8214 18.7206 12.0623 18.1389 12.0623 17.5324C12.0623 16.9258 11.8214 16.3442 11.3926 15.9153C10.9639 15.4864 10.3823 15.2454 9.77597 15.2454Z" stroke="#1C1C1C" stroke-width="1.25" stroke-linecap="round"/>
</svg>
