<svg width="32" height="32" viewBox="0 0 32 32" fill="none" xmlns="http://www.w3.org/2000/svg">
<path d="M25.8923 4.99991L23.5796 7.31265M23.5796 7.31265L27.0487 10.7818L23.0014 14.8291L19.5323 11.3599M23.5796 7.31265L19.5323 11.3599M14.7796 16.1126C15.3767 16.7018 15.8513 17.4032 16.1762 18.1765C16.5011 18.9498 16.6698 19.7798 16.6726 20.6186C16.6754 21.4574 16.5123 22.2884 16.1926 23.0639C15.8729 23.8394 15.4029 24.544 14.8098 25.1371C14.2167 25.7302 13.5121 26.2002 12.7366 26.5198C11.9611 26.8395 11.1301 27.0027 10.2913 26.9999C9.45249 26.9971 8.62254 26.8284 7.84921 26.5035C7.07589 26.1786 6.37447 25.7039 5.78534 25.1069C4.62681 23.9073 3.98575 22.3008 4.00024 20.6332C4.01473 18.9656 4.68361 17.3705 5.86281 16.1913C7.04201 15.012 8.63719 14.3432 10.3048 14.3287C11.9723 14.3142 13.5789 14.9552 14.7784 16.1138L14.7796 16.1126ZM14.7796 16.1126L19.5323 11.3599" stroke="#3D3D45" stroke-width="1.25" stroke-linecap="round" stroke-linejoin="round"/>
</svg>
