<svg width="24" height="24" viewBox="0 0 24 24" fill="none" xmlns="http://www.w3.org/2000/svg">
<path d="M3 6.00004H5M5 6.00004H21M5 6.00004V20C5 20.5305 5.21071 21.0392 5.58579 21.4143C5.96086 21.7893 6.46957 22 7 22H17C17.5304 22 18.0391 21.7893 18.4142 21.4143C18.7893 21.0392 19 20.5305 19 20V6.00004H5ZM8 6.00004V4.00004C8 3.46961 8.21071 2.9609 8.58579 2.58582C8.96086 2.21075 9.46957 2.00004 10 2.00004H14C14.5304 2.00004 15.0391 2.21075 15.4142 2.58582C15.7893 2.9609 16 3.46961 16 4.00004V6.00004" stroke="#1C1C1C" stroke-width="1.25" stroke-linecap="round" stroke-linejoin="round"/>
</svg>
