<svg width="24" height="24" viewBox="0 0 24 24" fill="none" xmlns="http://www.w3.org/2000/svg">
<path d="M20.625 8.25C20.418 8.25 20.25 8.082 20.25 7.875V4.875C20.25 4.25475 19.7452 3.75 19.125 3.75H16.125C15.918 3.75 15.75 3.582 15.75 3.375C15.75 3.168 15.918 3 16.125 3H19.125C20.1585 3 21 3.84075 21 4.875V7.875C21 8.082 20.832 8.25 20.625 8.25Z" fill="#3D3D45" stroke="#3D3D45" stroke-width="0.5"/>
<path d="M19.125 21H16.125C15.918 21 15.75 20.832 15.75 20.625C15.75 20.418 15.918 20.25 16.125 20.25H19.125C19.7452 20.25 20.25 19.7452 20.25 19.125V16.125C20.25 15.918 20.418 15.75 20.625 15.75C20.832 15.75 21 15.918 21 16.125V19.125C21 20.1592 20.1585 21 19.125 21Z" fill="#3D3D45" stroke="#3D3D45" stroke-width="0.5"/>
<path d="M7.875 21H4.875C3.8415 21 3 20.1592 3 19.125V16.125C3 15.918 3.168 15.75 3.375 15.75C3.582 15.75 3.75 15.918 3.75 16.125V19.125C3.75 19.7452 4.25475 20.25 4.875 20.25H7.875C8.082 20.25 8.25 20.418 8.25 20.625C8.25 20.832 8.082 21 7.875 21Z" fill="#3D3D45" stroke="#3D3D45" stroke-width="0.5"/>
<path d="M3.375 8.25C3.168 8.25 3 8.082 3 7.875V4.875C3 3.84075 3.8415 3 4.875 3H7.875C8.082 3 8.25 3.168 8.25 3.375C8.25 3.582 8.082 3.75 7.875 3.75H4.875C4.25475 3.75 3.75 4.25475 3.75 4.875V7.875C3.75 8.082 3.582 8.25 3.375 8.25Z" fill="#3D3D45" stroke="#3D3D45" stroke-width="0.5"/>
<path d="M16.125 17.25H7.875C7.25475 17.25 6.75 16.7453 6.75 16.125V13.875C6.75 13.668 6.918 13.5 7.125 13.5C7.332 13.5 7.5 13.668 7.5 13.875V16.125C7.5 16.3313 7.668 16.5 7.875 16.5H16.125C16.332 16.5 16.5 16.3313 16.5 16.125V13.875C16.5 13.668 16.668 13.5 16.875 13.5C17.082 13.5 17.25 13.668 17.25 13.875V16.125C17.25 16.7453 16.7452 17.25 16.125 17.25Z" fill="#3D3D45" stroke="#3D3D45" stroke-width="0.5"/>
<path d="M16.875 11.25C16.668 11.25 16.5 11.082 16.5 10.875V7.87498C16.5 7.66873 16.332 7.49998 16.125 7.49998H7.875C7.668 7.49998 7.5 7.66873 7.5 7.87498V10.875C7.5 11.082 7.332 11.25 7.125 11.25C6.918 11.25 6.75 11.082 6.75 10.875V7.87498C6.75 7.25473 7.25475 6.74998 7.875 6.74998H16.125C16.7452 6.74998 17.25 7.25473 17.25 7.87498V10.875C17.25 11.082 17.082 11.25 16.875 11.25Z" fill="#3D3D45" stroke="#3D3D45" stroke-width="0.5"/>
<path d="M18.375 14.25H5.625C5.418 14.25 5.25 14.082 5.25 13.875C5.25 13.668 5.418 13.5 5.625 13.5H18.375C18.582 13.5 18.75 13.668 18.75 13.875C18.75 14.082 18.582 14.25 18.375 14.25Z" fill="#3D3D45" stroke="#3D3D45" stroke-width="0.5"/>
</svg>
