<svg width="40" height="40" viewBox="0 0 40 40" fill="none" xmlns="http://www.w3.org/2000/svg">
<path d="M0 20C0 8.95431 8.95431 0 20 0C31.0457 0 40 8.95431 40 20C40 31.0457 31.0457 40 20 40C8.95431 40 0 31.0457 0 20Z" fill="#449F68"/>
<path opacity="0.7" d="M31.4901 11.9599L31.3401 12.1699C31.4301 11.5699 31.3101 10.7299 31.1601 10.2499C30.9501 11.0299 30.5601 11.7199 30.0201 12.3799L29.9901 11.9899C29.3601 12.9799 28.5801 13.7899 27.7101 14.1799C27.7101 14.0299 27.6801 13.8499 27.6201 13.7299C26.4801 15.2299 23.7201 14.8699 24.0201 17.8999C24.6501 17.8099 24.9501 18.4399 24.4101 19.0399C24.1701 19.0399 23.9301 18.9499 23.7201 18.8299L23.8401 18.6499L23.3601 18.4099C23.4801 18.3799 23.6001 18.3199 23.7201 18.2599C23.0001 17.8999 23.2401 17.2099 22.4001 16.8499C22.2501 16.6999 22.1301 16.4899 22.0401 16.2799C22.0101 16.1299 21.9801 15.9499 21.9501 15.7699C21.9501 15.4099 21.9501 15.1999 22.0401 15.0499L22.1001 15.1399C22.3101 14.6599 22.5801 14.2999 22.9401 14.0899C23.9301 14.1199 24.5001 14.0599 24.6801 13.4599C24.6201 13.4899 24.5901 13.4899 24.5601 13.4899C24.5301 13.4299 24.5001 13.3999 24.4701 13.3699C24.7101 13.2799 25.0701 13.4299 25.1601 13.4299C25.1301 13.1299 25.0101 13.0399 24.9501 12.9199L25.2801 12.6799C26.1201 12.9499 26.8401 12.3199 27.3501 12.5899L27.5301 11.9599C26.7801 11.5999 26.3301 12.0799 25.7001 12.0799C25.8801 11.6899 25.9101 11.3299 25.7601 10.9699L25.1001 10.7599C24.2901 10.9999 24.3201 11.7499 24.6201 12.2599C24.4401 12.4399 24.2601 12.5299 24.1401 12.5899L23.9301 12.6199C23.9301 12.6199 23.9001 12.3499 23.5401 12.2599V12.0799C23.9901 11.7199 24.0201 11.3599 23.9301 11.1499C23.8401 10.9399 23.6001 10.8199 23.3901 10.8799L23.0901 10.9699L23.0601 10.9099C23.0901 10.8799 23.0901 10.8499 23.0901 10.8199C23.0901 10.7599 23.0601 10.6999 23.0301 10.6699H23.0601L23.0301 10.5499L23.1501 10.5799V10.1599L23.0301 10.1899L23.0601 10.0699H22.6401L22.6701 10.1899L22.5501 10.1599V10.5799L22.6701 10.5499L22.5501 10.6999H22.6101C22.5801 10.7299 22.5501 10.7899 22.5501 10.8499C22.5501 10.8799 22.5501 10.9399 22.5801 10.9699L22.5501 11.0299L22.2501 10.9399C22.0401 10.8799 21.8001 10.9699 21.7101 11.2099C21.6201 11.4199 21.6501 11.7499 22.1001 12.1399V12.3799C21.9801 12.3799 21.8601 12.3799 21.7701 12.3799C21.4101 12.1699 21.1101 11.8099 21.0201 11.3599C21.2601 11.3299 21.4401 11.2399 21.5901 11.0899V10.4599C22.5501 9.73988 22.8201 8.77988 21.9801 8.35988C21.5001 8.11988 20.9001 8.32988 20.6001 8.56988C20.5401 8.47988 20.4501 8.38988 20.3601 8.35988C20.3601 8.26988 20.3301 8.17988 20.2401 8.08988H20.3001L20.2401 7.87988L20.4501 7.93988V7.27988L20.2401 7.33988L20.3001 7.12988H19.6401L19.7001 7.33988L19.4901 7.27988V7.93988L19.7001 7.87988L19.6401 8.08988H19.7001C19.6401 8.14988 19.5801 8.23988 19.5801 8.35988V8.38988C19.5201 8.41988 19.4301 8.50988 19.3701 8.56988C19.0701 8.32988 18.4701 8.11988 18.0201 8.35988C17.1801 8.77988 17.4501 9.73988 18.4101 10.4599V11.0899C18.5601 11.2399 18.7701 11.3299 18.9801 11.3599C18.8901 11.7799 18.5901 12.1399 18.2301 12.3799C18.1401 12.3799 18.0201 12.3799 17.9001 12.3799V12.1099C18.3501 11.7499 18.3801 11.3899 18.2901 11.1799C18.2001 10.9699 17.9601 10.8499 17.7501 10.9099L17.4501 10.9999L17.4201 10.9399C17.4501 10.9099 17.4501 10.8799 17.4501 10.8499C17.4501 10.7899 17.4201 10.7299 17.3901 10.6999H17.4201L17.3901 10.5799L17.5101 10.6099V10.1899L17.3901 10.2199L17.4201 10.0999H17.0001L17.0301 10.2199L16.9101 10.1899V10.6099L17.0301 10.5799V10.6999H17.0901C17.0601 10.7299 17.0301 10.7899 17.0301 10.8499C17.0301 10.8799 17.0301 10.9399 17.0601 10.9699L17.0301 11.0299L16.7301 10.9399C16.5201 10.8799 16.2801 10.9699 16.1901 11.2099C16.1001 11.4199 16.1301 11.7499 16.5801 12.1399V12.3199C16.2201 12.4099 16.1901 12.7099 16.1901 12.7099H16.0401C15.9201 12.6499 15.6501 12.4699 15.4701 12.2899C15.7701 11.7499 15.7701 11.0899 14.9901 10.8499L14.3001 10.9999C14.1501 11.3599 14.1801 11.6899 14.3601 12.0799C13.7301 12.0799 13.2801 11.5999 12.5301 11.9599L12.7101 12.5899C13.2201 12.3199 13.9401 12.9499 14.7801 12.6799L15.1101 12.9199C14.9901 13.0699 14.8701 13.2199 14.8401 13.4899C15.0501 13.3699 15.2601 13.3399 15.5901 13.3999C15.4701 13.3999 15.4401 13.4599 15.4401 13.4899C15.4701 13.5199 15.5001 13.5199 15.5001 13.5199C15.4701 13.5199 15.3801 13.4899 15.2901 13.4899C15.4701 14.0599 16.0701 14.1199 17.0601 14.0899C17.4201 14.2699 17.6601 14.6299 17.9001 15.1399L17.9601 15.0499C18.0201 15.2299 18.0501 15.4099 18.0501 15.7699C18.0501 15.9799 18.0201 16.1299 17.9601 16.2799C17.8401 16.4899 17.7201 16.6999 17.6001 16.8499C16.7601 17.2099 17.0001 17.8999 16.2801 18.2299C16.4001 18.3199 16.4901 18.3799 16.6401 18.3799L16.1601 18.6199L16.2801 18.7999C16.0701 18.9199 15.8601 19.0099 15.5901 19.0099C15.0201 18.4099 15.3201 17.8099 15.9801 17.8699C16.2801 14.8399 13.5201 15.2299 12.3801 13.6999C12.3501 13.8199 12.3201 13.9999 12.2901 14.1499C11.4201 13.7599 10.6401 12.9499 10.0101 11.9599L9.98009 12.3499C9.47009 11.6899 9.08009 10.9699 8.84009 10.2199C8.69009 10.6999 8.57009 11.5399 8.66009 12.1399L8.51009 11.9299C8.21009 13.0699 8.24009 13.8199 8.87009 14.8099C8.96009 15.4399 9.23009 16.0699 9.53009 16.5499C9.35009 16.5199 9.23009 16.4899 9.05009 16.4899C9.38009 17.1199 9.77009 17.7199 10.1301 18.1099L9.62009 18.2599C10.0701 18.9499 10.5801 19.3999 11.1801 19.7899C10.9101 19.8499 10.7901 19.9399 10.5801 20.0899C10.9701 20.5099 11.3001 20.7199 11.8401 20.8699C11.4201 21.0199 11.2401 21.1999 11.1201 21.5299C11.6601 21.7099 12.2601 21.8299 12.8601 21.7999C12.5001 22.0099 12.1701 22.2499 11.9901 22.5799L11.8701 22.5199C11.8101 22.4899 11.7801 22.4899 11.7201 22.4899C11.6001 22.4899 11.4501 22.5799 11.4201 22.6999C11.4201 22.7299 11.3901 22.7599 11.3901 22.7599V22.8199C11.3601 22.8499 11.3001 22.8799 11.2701 22.9099L11.1201 22.8499C11.0601 22.8199 11.0001 22.8199 10.9401 22.8199C10.7901 22.8199 10.6401 22.9099 10.5801 23.0599C10.4901 23.2699 10.5801 23.4799 10.7601 23.5999L10.8801 23.6599H10.9101C10.9101 23.7199 10.9101 23.7499 10.9101 23.8099L10.8801 23.8699C10.8801 23.8999 10.8501 23.8999 10.8501 23.9299C10.8201 24.0199 10.8201 24.1099 10.8501 24.1999C10.8801 24.2899 10.9401 24.3499 11.0301 24.4099L11.2701 24.5299L11.2101 24.4999L11.3301 24.5599L11.7501 24.7699L11.7801 24.7999C11.4801 25.1599 11.1201 25.3699 10.7001 25.3699C10.6401 25.3699 10.5801 25.3699 10.4901 25.3699L10.4001 25.3099H10.3701C10.1901 25.2799 10.0101 25.2199 9.83009 25.1299L9.62009 25.0099L9.68009 25.2499C9.80009 25.8199 10.3101 26.3899 11.0901 26.8999C11.8401 27.3499 12.6501 27.6199 13.3401 27.6199C13.7001 27.6199 14.0001 27.5299 14.2101 27.3799L14.4201 27.2299L14.1801 27.1699C14.0001 27.1099 13.8201 27.0199 13.7001 26.9299L13.5801 26.8999L13.4901 26.8099C13.0701 26.4199 13.0701 25.8499 13.1901 25.4299H13.2201L13.6401 25.6399L13.7601 25.6999L13.7901 25.6399L14.6601 26.0599C14.6301 27.4099 14.2101 28.2499 13.4301 29.1199H13.4001C13.2801 29.1499 13.1901 29.2699 13.1601 29.3899C13.1301 29.4199 13.1001 29.4499 13.0701 29.4799C13.0701 29.4799 13.0701 29.4799 13.0401 29.4799C12.9801 29.3899 12.8901 29.3299 12.7701 29.3299C12.7401 29.3299 12.7101 29.3299 12.6801 29.3599L12.5301 29.4199C12.4401 29.4499 12.3801 29.5099 12.3501 29.5699C12.3201 29.6299 12.3201 29.6899 12.3201 29.7799C12.2901 29.7799 12.2301 29.8099 12.2001 29.8099C12.1401 29.6899 12.0201 29.5999 11.9001 29.5999C11.8701 29.5999 11.8401 29.5999 11.7801 29.6299L11.6901 29.6599C11.5101 29.7199 11.4201 29.8699 11.4801 30.0499C11.0901 30.1699 10.7001 30.3199 10.3401 30.4099C10.4001 31.3399 10.7001 32.1199 11.3001 32.8399C12.2301 32.3899 13.1301 31.9399 14.0001 31.5199C14.0301 31.5499 14.0901 31.5799 14.1501 31.5799C14.1801 31.5799 14.2101 31.5799 14.2401 31.5499L14.3601 31.5199C14.5101 31.4599 14.6901 31.3099 14.7801 31.1599C16.0401 30.5599 17.2101 30.0199 18.2301 29.5699C18.2601 29.9299 18.2901 30.2599 18.4101 30.4999C18.6501 30.4099 18.8601 30.3499 19.0701 30.1699C19.0701 30.2899 19.1301 30.4099 19.1601 30.5599L18.7101 31.0399L19.0101 31.3399L19.4601 30.9199C19.5201 31.2499 19.8801 31.7299 20.0901 31.8499C20.2401 31.7299 20.6301 31.2199 20.7201 30.9199L21.1701 31.3399L21.4701 31.0399L21.0201 30.5599C21.0801 30.4399 21.1101 30.3199 21.1101 30.1699C21.3201 30.3199 21.5301 30.4099 21.7701 30.4999C21.8601 30.2599 21.9201 29.9599 21.9501 29.5699L22.0701 29.6299L22.1301 29.5699L24.2901 30.6199L24.4701 30.7099L24.5301 30.7999L24.5601 30.8299H24.5901L24.8901 30.9799L24.9801 31.0099C25.0701 31.1599 25.3101 31.5499 25.7301 31.5199C25.8201 31.5199 25.8801 31.4899 25.9401 31.4599L26.2401 31.6099L26.3601 31.6699L26.3901 31.6099L27.5001 32.1199L27.4701 32.1799L27.5901 32.2399L28.0101 32.4499L28.1301 32.5099L28.1601 32.4499L28.4901 32.5999C28.4001 32.5999 28.4601 32.5999 28.4901 32.5999C28.6101 32.5999 28.7601 32.5099 28.7901 32.3899C28.7901 32.3599 28.8201 32.3299 28.8201 32.3299V32.2699C28.8501 32.2399 28.9101 32.2399 28.9401 32.1799H28.9701L29.1501 32.2699C29.2101 32.2999 29.2701 32.2999 29.3301 32.2999C29.4801 32.2999 29.6301 32.2099 29.6901 32.0599C29.7801 31.8499 29.6901 31.6399 29.5101 31.5199L29.3601 31.4299C29.3601 31.3699 29.3601 31.3399 29.3601 31.2799L29.3901 31.2499C29.4201 31.2199 29.4201 31.2199 29.4201 31.1899C29.4501 31.0999 29.4501 31.0099 29.4201 30.9199C29.3901 30.8299 29.3001 30.8299 29.2401 30.7999L28.8801 30.6199L28.9101 30.5599L28.7901 30.4999L28.3701 30.2899L28.2501 30.2299L28.2801 30.1699C28.3401 30.0199 28.2201 29.8399 28.1301 29.8099L27.9801 29.7499C27.8301 29.6899 27.6501 29.7499 27.5901 29.8999L27.5601 29.9599L27.4401 29.8999L27.4701 29.8099C27.5301 29.6599 27.4701 29.4799 27.2901 29.3899L27.1401 29.3299C27.0501 29.2999 26.9301 29.3299 26.8701 29.3599C25.9701 28.3999 25.4901 27.5899 25.4301 26.5399C26.8401 25.9999 28.4301 25.4299 30.1101 24.8899C29.9301 24.0199 29.6001 23.2099 29.1501 22.4599L28.7301 22.6999L28.3701 22.0099C28.1901 22.1299 28.0101 22.2199 27.8001 22.3399C27.6201 22.1599 27.3801 21.9799 27.1401 21.8599C27.7401 21.8899 28.3701 21.7699 28.8801 21.5899C28.7301 21.2899 28.5501 21.0799 28.1601 20.9299C28.7001 20.7799 29.0601 20.5699 29.4201 20.1499C29.2101 19.9999 29.0901 19.9099 28.8201 19.8499C29.4201 19.4599 29.9001 19.0099 30.3801 18.3199L29.8701 18.1699C30.2301 17.7799 30.6201 17.1799 30.9501 16.5499C30.7701 16.5499 30.6501 16.5499 30.4701 16.6099C30.8001 16.1599 31.0401 15.4999 31.1301 14.8699C31.7601 13.8199 31.7901 13.0999 31.4901 11.9599ZM22.7601 25.0999C22.7301 25.1299 22.6701 25.1299 22.6401 25.1599L22.6701 24.9499L22.7601 25.0999ZM19.7901 11.4799H20.0001H20.2101C20.3901 12.1699 20.8101 12.6499 21.4101 13.0399C21.4101 13.0399 21.0201 13.6099 20.3301 13.8499C20.3901 13.9399 20.4201 13.9399 20.5101 13.9999C20.2701 14.2099 20.0001 14.7199 20.0001 14.7199V14.7499V14.7199C20.0001 14.7199 19.7301 14.2099 19.4901 13.9999C19.5501 13.9399 19.6101 13.9399 19.6701 13.8499C18.9801 13.6099 18.5901 13.0399 18.5901 13.0399C19.1901 12.6499 19.6401 12.1699 19.7901 11.4799ZM17.3601 25.1299L17.2401 25.0999L17.3301 24.9499L17.3601 25.1299ZM12.7701 22.9099C13.0101 22.8799 13.2501 22.8499 13.4601 22.7899C13.3401 22.8799 13.2201 23.0299 13.1601 23.1499L12.7401 22.9699L12.7701 22.9099ZM15.0801 28.7299C15.5001 28.2499 15.8901 27.7399 16.1301 26.7799L17.2401 27.2899L17.4201 27.3799L17.4801 27.4699L17.5101 27.4999H17.5401L17.6901 27.5899L16.6401 28.0999C16.1301 28.2799 15.5601 28.5199 15.0801 28.7299ZM24.9501 28.7599L23.6601 28.1599L23.4801 28.0699L23.4201 27.9799L23.3901 27.9499H23.3601L22.7301 27.6499C23.0901 27.4999 23.5101 27.3499 23.9301 27.1699C24.1701 27.7699 24.5001 28.3099 24.9501 28.7599ZM26.6901 22.9399C26.6301 22.8799 26.5701 22.8199 26.5101 22.7599C26.6001 22.7899 26.7201 22.8199 26.8401 22.8499C26.7801 22.8799 26.7501 22.9099 26.6901 22.9399Z" fill="#231F20"/>
<path d="M16.2202 12.7997C15.9502 12.7697 15.6502 12.7697 15.4702 12.8297C15.2302 12.8897 15.0502 13.0097 14.9602 13.3097C15.7102 13.0997 15.7702 13.5197 16.4602 13.6697C16.2502 13.7597 15.7102 13.7597 15.4102 13.5797C15.6202 13.9097 15.8902 13.9997 16.8802 13.9697C16.5502 13.6997 16.7302 13.0997 16.2202 12.7997Z" fill="#FCD015"/>
<path d="M15.5603 13.4898C15.7403 13.5198 15.7103 13.6398 16.0103 13.6398C15.9503 13.5798 15.6803 13.3698 15.5603 13.4898Z" fill="#FCD015"/>
<path d="M23.7203 12.7997C23.9903 12.7697 24.2903 12.7697 24.4703 12.8297C24.7103 12.8897 24.8903 13.0097 24.9803 13.3097C24.2303 13.0997 24.1703 13.5197 23.4803 13.6697C23.6903 13.7597 24.2303 13.7597 24.5303 13.5797C24.3203 13.9097 24.0503 13.9997 23.0603 13.9697C23.3903 13.6997 23.2403 13.0997 23.7203 12.7997Z" fill="#FCD015"/>
<path d="M24.4102 13.4898C24.2302 13.5198 24.2602 13.6398 23.9602 13.6398C24.0202 13.5798 24.2902 13.3698 24.4102 13.4898Z" fill="#FCD015"/>
<path d="M19.97 26.7498L20.81 28.4598L20.09 28.7598L19.28 27.0198L19.97 26.7498Z" fill="#221F1F"/>
<path d="M19.1901 30.6797L18.8301 31.0397L18.9501 31.1597L19.2801 30.8297C19.2801 30.7697 19.2201 30.7097 19.1901 30.6797Z" fill="#221F1F"/>
<path d="M20.84 30.6797C20.81 30.7397 20.78 30.7697 20.72 30.7997L21.05 31.1297L21.17 31.0097L20.84 30.6797Z" fill="#221F1F"/>
<path d="M16.6101 12.1097V12.2897C17.0601 12.2597 17.4201 12.3197 17.8401 12.3497V12.1097C17.4501 12.0497 17.0301 12.0497 16.6101 12.1097Z" fill="#FFC112"/>
<path d="M16.67 11.1198L16.55 11.0298C16.46 11.0298 16.37 11.0898 16.31 11.1798C16.04 11.5098 16.4 11.8698 16.58 12.0198H16.64C16.73 12.0198 16.85 11.9898 16.94 11.9898C16.94 11.6298 16.88 11.2998 16.67 11.1198Z" fill="#FFC112"/>
<path d="M17.9 11.0298L17.78 11.1198C17.57 11.2998 17.54 11.6298 17.51 11.9898C17.6 11.9898 17.72 12.0198 17.81 12.0198H17.87C18.05 11.8698 18.41 11.5098 18.14 11.1798C18.08 11.0598 17.99 11.0298 17.9 11.0298Z" fill="#FFC112"/>
<path d="M17.2399 10.9697C17.3061 10.9697 17.3599 10.916 17.3599 10.8497C17.3599 10.7835 17.3061 10.7297 17.2399 10.7297C17.1736 10.7297 17.1199 10.7835 17.1199 10.8497C17.1199 10.916 17.1736 10.9697 17.2399 10.9697Z" fill="#FFC112"/>
<path d="M17.03 11.9598C17.09 11.9598 17.15 11.9598 17.24 11.9598C17.3 11.9598 17.36 11.9598 17.45 11.9598C17.45 11.5698 17.51 11.2098 17.75 11.0298L17.45 11.1198L17.39 11.0298C17.36 11.0598 17.3 11.0598 17.27 11.0598C17.21 11.0598 17.18 11.0298 17.15 11.0298L17.09 11.1198L16.79 11.0298C16.97 11.2398 17.03 11.5998 17.03 11.9598Z" fill="#FFC112"/>
<path d="M17.12 10.6097H17.33L17.3 10.4897L17.45 10.5197V10.3097L17.3 10.3397L17.33 10.2197H17.12L17.18 10.3397L17.03 10.3097V10.5197L17.18 10.4897L17.12 10.6097Z" fill="#FFC112"/>
<path d="M23.1499 12.0799H23.1199C22.8799 12.0499 22.6399 12.0499 22.3699 12.0799H22.3399C22.2799 12.0799 22.2199 12.0799 22.1599 12.1099V12.3499C22.5499 12.3499 22.9099 12.2599 23.3599 12.2899V12.1099C23.2699 12.0799 23.2099 12.0799 23.1499 12.0799Z" fill="#FFC112"/>
<path d="M23.66 11.1498C23.6 11.0598 23.51 11.0298 23.42 10.9998L23.3 11.1198C23.09 11.2998 23.06 11.6298 23.03 11.9898C23.12 11.9898 23.24 12.0198 23.33 12.0198H23.39C23.57 11.8698 23.93 11.5098 23.66 11.1498Z" fill="#FFC112"/>
<path d="M22.19 11.1198L22.07 11.0298C21.98 11.0298 21.89 11.0598 21.8 11.1798C21.53 11.5098 21.89 11.8698 22.07 12.0198H22.13C22.22 12.0198 22.34 11.9898 22.43 11.9898C22.43 11.6298 22.4 11.2998 22.19 11.1198Z" fill="#FFC112"/>
<path d="M22.7301 10.9697C22.7964 10.9697 22.8501 10.916 22.8501 10.8497C22.8501 10.7835 22.7964 10.7297 22.7301 10.7297C22.6638 10.7297 22.6101 10.7835 22.6101 10.8497C22.6101 10.916 22.6638 10.9697 22.7301 10.9697Z" fill="#FFC112"/>
<path d="M22.55 11.1498L22.25 11.0598C22.49 11.2398 22.55 11.5998 22.55 11.9898C22.61 11.9898 22.67 11.9898 22.76 11.9898C22.82 11.9898 22.88 11.9898 22.97 11.9898C22.97 11.5998 23.03 11.2398 23.27 11.0598L22.97 11.1498L22.91 11.0598C22.88 11.0898 22.82 11.0898 22.79 11.0898C22.73 11.0898 22.7 11.0598 22.67 11.0598L22.55 11.1498Z" fill="#FFC112"/>
<path d="M22.64 10.6097H22.85L22.79 10.4897L22.94 10.5197V10.3097L22.79 10.3397L22.85 10.2197H22.64L22.67 10.3397L22.52 10.3097V10.5197L22.67 10.4897L22.64 10.6097Z" fill="#FFC112"/>
<path d="M18.26 9.07983V9.25983L18.41 9.31983V9.16983L18.26 9.07983Z" fill="#FFC112"/>
<path d="M19.97 10.0698C19.16 10.0698 18.5 10.2798 18.5 10.5198V10.9098C18.74 10.6698 19.37 10.5798 19.97 10.5798C20.57 10.5798 21.17 10.6998 21.44 10.9098V10.5198C21.44 10.2798 20.78 10.0698 19.97 10.0698Z" fill="#FFC112"/>
<path d="M20.7198 9.25967C20.8398 8.74967 21.2598 8.47967 21.6798 8.38967C21.2298 8.29967 20.7198 8.50967 20.5398 8.80967C20.4498 8.95967 20.3898 9.13967 20.3298 9.28967C20.4498 9.22967 20.5998 9.22967 20.7198 9.25967Z" fill="#FFC112"/>
<path d="M19.22 9.25983C19.37 9.22983 19.49 9.22983 19.61 9.28983C19.55 9.10983 19.49 8.92983 19.4 8.77983C19.22 8.50983 18.71 8.26983 18.26 8.35983C18.68 8.47983 19.1 8.74983 19.22 9.25983Z" fill="#FFC112"/>
<path d="M18.5601 11.0298C18.6501 11.1198 18.8001 11.2098 19.0101 11.2698C19.0401 11.1198 19.0401 10.9698 19.0701 10.7898C18.8301 10.8498 18.6501 10.9398 18.5601 11.0298Z" fill="#FFC112"/>
<path d="M20.06 10.6697C20.03 10.6697 20 10.6697 19.97 10.6697C19.94 10.6697 19.91 10.6697 19.88 10.6697C19.88 10.9097 19.85 11.1497 19.79 11.3597C19.85 11.3597 19.91 11.3597 19.97 11.3597C20.03 11.3597 20.09 11.3597 20.15 11.3597C20.12 11.1497 20.09 10.9397 20.06 10.6697Z" fill="#FFC112"/>
<path d="M20.8999 10.7898C20.8999 10.9698 20.9299 11.1198 20.9599 11.2698C21.1699 11.2098 21.3199 11.1198 21.4099 11.0298C21.3199 10.9398 21.1399 10.8498 20.8999 10.7898Z" fill="#FFC112"/>
<path d="M19.97 8.62984C20.1191 8.62984 20.2399 8.50896 20.2399 8.35984C20.2399 8.21073 20.1191 8.08984 19.97 8.08984C19.8208 8.08984 19.7 8.21073 19.7 8.35984C19.7 8.50896 19.8208 8.62984 19.97 8.62984Z" fill="#FFC112"/>
<path d="M19.7901 7.96978H20.1201L20.0301 7.69978L20.3001 7.78979V7.45979L20.0301 7.54979L20.1201 7.27979H19.7901L19.9101 7.54979L19.6101 7.45979V7.78979L19.9101 7.69978L19.7901 7.96978Z" fill="#FFC112"/>
<path d="M21.5601 9.31983L21.7101 9.25983V9.07983L21.5901 9.16983L21.5601 9.31983Z" fill="#FFC112"/>
<path d="M22.19 8.71974C22.13 8.59974 22.04 8.53974 21.92 8.47974C21.47 8.50974 20.96 8.74974 20.84 9.34974V9.40974L20.78 9.37974C20.6 9.31974 20.45 9.34974 20.3 9.43974C20.27 9.55974 20.24 9.64974 20.24 9.70974C20.21 9.82974 20.09 9.88974 20 9.88974C19.91 9.88974 19.79 9.79974 19.76 9.70974C19.76 9.67974 19.73 9.58974 19.7 9.46974C19.58 9.37974 19.4 9.37974 19.22 9.40974L19.16 9.43974V9.37974C19.04 8.77974 18.56 8.53974 18.08 8.50974C17.99 8.56974 17.9 8.65974 17.81 8.74974C17.39 9.37974 18.2 10.1297 18.5 10.3697C18.71 10.0997 19.37 9.97974 20 9.97974C20.66 9.97974 21.32 10.1297 21.5 10.3697C21.77 10.0997 22.58 9.34974 22.19 8.71974ZM18.2 9.34974L18.14 9.31974V9.22974V9.07974V8.89974L18.32 8.98974L18.47 9.04974L18.53 9.07974V9.16974V9.31974V9.49974L18.35 9.40974L18.2 9.34974ZM18.47 10.0697C18.41 10.0697 18.38 10.0397 18.38 9.97974C18.38 9.91974 18.41 9.88974 18.47 9.88974C18.53 9.88974 18.56 9.91974 18.56 9.97974C18.56 10.0097 18.53 10.0697 18.47 10.0697ZM18.92 9.88974C18.86 9.88974 18.83 9.85974 18.83 9.79974C18.83 9.73974 18.86 9.70974 18.92 9.70974C18.98 9.70974 19.01 9.73974 19.01 9.79974C19.01 9.82974 18.95 9.88974 18.92 9.88974ZM19.37 9.76974C19.31 9.76974 19.28 9.73974 19.28 9.67974C19.28 9.61974 19.31 9.58974 19.37 9.58974C19.43 9.58974 19.46 9.61974 19.46 9.67974C19.46 9.73974 19.43 9.76974 19.37 9.76974ZM20.6 9.76974C20.54 9.76974 20.51 9.73974 20.51 9.67974C20.51 9.61974 20.54 9.58974 20.6 9.58974C20.66 9.58974 20.69 9.61974 20.69 9.67974C20.69 9.73974 20.63 9.76974 20.6 9.76974ZM21.05 9.88974C20.99 9.88974 20.96 9.85974 20.96 9.79974C20.96 9.73974 20.99 9.70974 21.05 9.70974C21.11 9.70974 21.14 9.73974 21.14 9.79974C21.14 9.82974 21.11 9.88974 21.05 9.88974ZM21.5 10.0697C21.44 10.0697 21.41 10.0397 21.41 9.97974C21.41 9.91974 21.44 9.88974 21.5 9.88974C21.56 9.88974 21.59 9.91974 21.59 9.97974C21.59 10.0097 21.56 10.0697 21.5 10.0697ZM21.44 9.49974V9.31974V9.16974V9.07974L21.5 9.04974L21.65 8.98974L21.83 8.89974V9.07974V9.22974V9.31974L21.77 9.34974L21.62 9.40974L21.44 9.49974Z" fill="#FFC112"/>
<path d="M19.9701 9.76973C20.0529 9.76973 20.1201 9.70257 20.1201 9.61973C20.1201 9.53688 20.0529 9.46973 19.9701 9.46973C19.8872 9.46973 19.8201 9.53688 19.8201 9.61973C19.8201 9.70257 19.8872 9.76973 19.9701 9.76973Z" fill="#FFC112"/>
<path d="M19.79 9.40974C19.85 9.34974 19.91 9.34974 19.97 9.34974C20.03 9.34974 20.12 9.37974 20.15 9.40974C20.18 9.22974 20.27 8.95974 20.42 8.71974C20.42 8.71974 20.42 8.68974 20.45 8.68974C20.45 8.59974 20.39 8.53974 20.3 8.47974C20.24 8.59974 20.12 8.71974 19.94 8.71974C19.79 8.71974 19.64 8.62974 19.58 8.47974C19.52 8.50974 19.46 8.56974 19.46 8.65974C19.46 8.68974 19.49 8.68974 19.49 8.71974C19.67 8.98974 19.76 9.22974 19.79 9.40974Z" fill="#FFC112"/>
<path d="M28.2803 22.2197C25.3103 23.8097 22.7003 25.2797 20.0303 26.5997L20.0903 26.6897V26.7197C22.7903 25.5497 25.6403 24.2597 28.5803 22.7897C28.5203 22.6097 28.4003 22.3697 28.2803 22.2197Z" fill="#E0E0E0"/>
<path d="M19.1901 27.0798L19.1601 27.0198C18.5601 27.3198 17.9301 27.5898 17.3301 27.8598C17.9301 27.6198 18.5601 27.3798 19.1901 27.0798Z" fill="#E0E0E0"/>
<path d="M29.0001 22.7297C26.1801 24.1397 23.1801 25.5197 20.1501 26.8397L20.8401 28.2797C23.8401 27.0197 26.9001 25.8197 29.8401 24.8297C29.7201 24.0797 29.4201 23.3897 29.0001 22.7297Z" fill="#E0E0E0"/>
<path d="M13.9102 29.2997L14.0602 29.7497C14.0902 29.8397 14.0002 29.9297 14.0002 30.0497C14.0302 30.4697 13.7602 30.7697 13.7602 30.7697L13.6102 30.8897L13.5502 30.7097L13.1602 29.5697C13.1602 29.5997 13.1302 29.5997 13.1002 29.5997L13.3402 30.2897C13.4302 30.5897 13.2802 31.0097 13.2502 31.0097L13.1902 31.1297L13.0702 31.0997C13.0702 31.0997 12.7702 30.8897 12.6202 30.4997C12.5902 30.4397 12.5302 30.4397 12.5002 30.3797L12.3502 29.8997C12.3202 29.8997 12.2902 29.9297 12.2302 29.9297L12.5902 31.0097L12.6502 31.1897H12.4702C12.4402 31.1897 12.1102 31.1897 11.8402 30.7997C11.8102 30.7397 11.6602 30.7697 11.6302 30.6797L11.4802 30.1997C11.1202 30.3197 10.7902 30.4397 10.4302 30.5597C10.5502 31.3697 10.8202 32.0897 11.3002 32.6597C12.1402 32.2397 13.0102 31.8197 13.9102 31.3997C13.9102 31.3697 13.9402 31.3097 13.9702 31.2497L14.3302 30.6497C14.3302 30.6497 14.2702 30.4697 14.3002 30.2597C14.5702 30.3197 14.7802 30.4397 14.8702 30.6197C14.9002 30.7097 14.9002 30.8597 14.8402 30.9797C16.4902 30.1997 18.2002 29.4497 19.9102 28.7297L19.2502 27.1997C17.4802 27.9497 15.6802 28.6697 13.9102 29.2997Z" fill="#E0E0E0"/>
<path d="M13.55 27.0198C13.55 27.0198 13.52 27.0198 13.55 27.0198C13.25 26.9898 12.98 26.9598 12.71 26.8998L12.74 26.7798C12.95 26.8398 13.16 26.8698 13.4 26.8998C12.98 26.5098 12.92 25.9398 13.07 25.3698L11.9 24.7998C11.54 25.3098 11.06 25.5198 10.49 25.4298C11 25.9698 11.57 26.3898 12.26 26.6298L12.23 26.7498C11.48 26.4798 10.85 26.0298 10.31 25.3998C10.13 25.3698 9.95002 25.2798 9.77002 25.1898C10.07 26.5998 13.04 28.0098 14.09 27.2598C13.88 27.1998 13.7 27.1098 13.55 27.0198Z" fill="#E2E2E2"/>
<path d="M11.18 22.9998L11.03 22.9398C10.88 22.8798 10.73 22.9398 10.67 23.0598C10.61 23.2098 10.67 23.3598 10.79 23.4198L10.91 23.4798C10.97 23.3598 11.06 23.2998 11.18 23.2998C11.15 23.2098 11.15 23.0898 11.18 22.9998Z" fill="#A5A5A5"/>
<path d="M29.45 31.6999L29.3 31.6099C29.24 31.6999 29.15 31.7899 29.03 31.7899C29.09 31.8799 29.09 31.9999 29.03 32.0899L29.21 32.1799C29.36 32.2399 29.51 32.1799 29.57 32.0599C29.63 31.9399 29.57 31.7599 29.45 31.6999Z" fill="#A5A5A5"/>
<path d="M28.2944 30.4155L27.4817 32.1218L27.915 32.3282L28.7277 30.6219L28.2944 30.4155Z" fill="#939393"/>
<path d="M14.0607 23.6121L13.248 25.3184L13.6814 25.5248L14.4941 23.8185L14.0607 23.6121Z" fill="#939393"/>
<path d="M12.177 22.7388L11.3643 24.4451L11.7976 24.6515L12.6103 22.9452L12.177 22.7388Z" fill="#939393"/>
<path d="M15.5901 24.3496L17.5401 27.3796L17.8401 27.5296C17.9301 27.4996 17.9901 27.4696 18.0801 27.4096L16.3401 24.7096L15.5901 24.3496Z" fill="#939393"/>
<path d="M19.0999 26.0298L19.5499 26.7198C19.6699 26.6598 19.8199 26.5998 19.9399 26.5398L19.8499 26.3898L19.0999 26.0298Z" fill="#939393"/>
<path d="M20.9 28.3696L20.96 28.4896L20.84 28.5496L20.75 28.5796L21.02 29.0296L21.74 29.3896L21.05 28.3096C21.02 28.3396 20.96 28.3696 20.9 28.3696Z" fill="#939393"/>
<path d="M22.5801 27.6797L24.5301 30.7097L24.8301 30.8597C24.7401 30.6197 24.8301 30.4397 24.8601 30.4097L23.3301 28.0397L22.5801 27.6797Z" fill="#939393"/>
<path d="M26.69 29.6296L26.57 29.5996L26.03 30.8296L25.97 30.7696L25.73 31.2796L26.15 31.4896L26.39 30.9796C26.36 30.8596 26.27 30.5596 26.39 30.3196L26.69 29.6296Z" fill="#939393"/>
<path d="M13.91 25.3098L13.79 25.5198L17.27 27.1698L17 26.7798L13.91 25.3098Z" fill="#DBDBDB"/>
<path d="M16.4299 25.8798L14.1499 24.7698L13.9399 25.1898L16.8799 26.5998L16.4299 25.8798Z" fill="#DBDBDB"/>
<path d="M15.83 24.9498L14.39 24.2598L14.21 24.6798L16.31 25.6698L15.83 24.9498Z" fill="#DBDBDB"/>
<path d="M15.5 24.4097L15.47 24.3797L14.54 23.9297L14.45 24.1397L15.71 24.7397L15.5 24.4097Z" fill="#DBDBDB"/>
<path d="M10.94 23.8696L10.91 23.8996C10.85 24.0196 10.91 24.1396 11.03 24.1996L11.27 24.3196L11.36 24.1096L11.06 23.9596C11.03 23.9296 11 23.8996 10.94 23.8696Z" fill="#DBDBDB"/>
<path d="M12.0397 24.4169L11.9365 24.6335L13.1553 25.2141L13.2585 24.9974L12.0397 24.4169Z" fill="#DBDBDB"/>
<path d="M11.0299 23.5398C10.9699 23.6598 11.0299 23.7798 11.1499 23.8398L11.4499 23.9898L11.6299 23.5698L11.3299 23.4198C11.2099 23.3898 11.0599 23.4198 11.0299 23.5398Z" fill="#DBDBDB"/>
<path d="M12.2819 23.9067L12.0884 24.313L13.3072 24.8935L13.5007 24.4872L12.2819 23.9067Z" fill="#DBDBDB"/>
<path d="M11.3001 23.0297C11.2401 23.1497 11.3001 23.2697 11.4201 23.3297L11.6901 23.4497L11.8702 23.0297L11.6001 22.9397C11.4801 22.8797 11.3601 22.9097 11.3001 23.0297Z" fill="#DBDBDB"/>
<path d="M12.5265 23.3574L12.333 23.7637L13.5518 24.3442L13.7453 23.9379L12.5265 23.3574Z" fill="#DBDBDB"/>
<path d="M11.51 22.7897C11.57 22.7897 11.6 22.7897 11.66 22.8197L11.93 22.9397L12.02 22.7297L11.78 22.6097C11.66 22.5497 11.54 22.6097 11.48 22.7297C11.51 22.7597 11.51 22.7597 11.51 22.7897Z" fill="#DBDBDB"/>
<path d="M12.6786 23.0367L12.5754 23.2534L13.7942 23.8339L13.8974 23.6172L12.6786 23.0367Z" fill="#DBDBDB"/>
<path d="M21.6499 28.9998L21.8599 29.3298L21.8899 29.3598L24.2599 30.4998L24.0199 30.1098L21.6499 28.9998Z" fill="#DBDBDB"/>
<path d="M26.3991 31.2496L26.2959 31.4663L27.4063 31.9952L27.5095 31.7785L26.3991 31.2496Z" fill="#DBDBDB"/>
<path d="M19.2201 26.4197L18.9801 26.0897L18.9501 26.0297L16.6101 24.9197L16.8501 25.3097L19.2201 26.4197Z" fill="#DBDBDB"/>
<path d="M29.15 30.8897L28.79 30.7097L28.7 30.9197L29.12 31.1297C29.18 31.1597 29.21 31.1897 29.24 31.2197L29.27 31.1897C29.33 31.0697 29.27 30.9497 29.15 30.8897Z" fill="#DBDBDB"/>
<path d="M28.55 32.2696L28.16 32.0896L28.04 32.2996L28.37 32.4496C28.49 32.5096 28.61 32.4496 28.67 32.3296C28.67 32.2996 28.67 32.2996 28.7 32.2696C28.64 32.2996 28.58 32.2996 28.55 32.2696Z" fill="#DBDBDB"/>
<path d="M28.79 31.7598L28.4 31.5798L28.22 31.9998L28.61 32.1798C28.73 32.2398 28.85 32.1798 28.91 32.0598C28.94 31.9398 28.91 31.8198 28.79 31.7598Z" fill="#DBDBDB"/>
<path d="M29.06 31.2498L28.64 31.0398L28.46 31.4598L28.88 31.6698C29 31.7298 29.12 31.6698 29.18 31.5498C29.24 31.4298 29.18 31.3098 29.06 31.2498Z" fill="#DBDBDB"/>
<path d="M18.0501 27.1397L18.3501 27.2897C18.5301 27.1997 18.7101 27.1397 18.8901 27.0497L17.6001 26.4197L18.0501 27.1397Z" fill="#DBDBDB"/>
<path d="M16.97 25.4897L17.42 26.2097L19.01 26.9597C19.16 26.8997 19.28 26.8397 19.43 26.7497L19.34 26.5997L16.97 25.4897Z" fill="#DBDBDB"/>
<path d="M20.51 28.6996L20.75 28.8196L20.63 28.6396L20.51 28.6996Z" fill="#DBDBDB"/>
<path d="M22.4899 27.7397C22.3999 27.7697 22.3099 27.7997 22.1899 27.8297L22.6999 28.0697L22.4899 27.7397Z" fill="#DBDBDB"/>
<path d="M22.82 28.2797L22.04 27.9197C21.86 28.0097 21.68 28.0697 21.47 28.1597L23.27 29.0297L22.82 28.2797Z" fill="#DBDBDB"/>
<path d="M23.4199 29.2097L21.3199 28.2197C21.2599 28.2497 21.2299 28.2497 21.1699 28.2797L21.4999 28.8197L23.8399 29.9297L23.4199 29.2097Z" fill="#DBDBDB"/>
<path d="M25.7601 29.5398L25.8801 29.3298L23.6001 28.2498L23.8401 28.6398L25.7601 29.5398Z" fill="#DBDBDB"/>
<path d="M25.73 29.6898L23.99 28.8198L24.44 29.5398L25.73 30.1398C25.73 30.0498 25.76 29.9598 25.76 29.8998C25.73 29.8098 25.67 29.7798 25.73 29.6898Z" fill="#DBDBDB"/>
<path d="M24.5601 29.7498L24.9201 30.3198C25.1301 30.1398 25.4301 30.1698 25.4301 30.1698L25.3401 30.4698L25.4301 30.6498L25.8201 30.8298L25.9101 30.6798C25.8501 30.5898 25.7901 30.4698 25.7601 30.2898L24.5601 29.7498Z" fill="#DBDBDB"/>
<path d="M25.67 31.1298L25.76 30.9498L25.52 30.8298L25.67 31.1298Z" fill="#DBDBDB"/>
<path d="M27.47 30.0798L27.35 30.0198L27.23 30.2598L27.38 30.3198L27.47 30.0798Z" fill="#DBDBDB"/>
<path d="M27.3199 30.4096L27.1999 30.3496L27.1399 30.4696C27.1099 30.5296 27.0499 30.4696 26.9299 30.7096L27.1099 30.7996L27.3199 30.4096Z" fill="#DBDBDB"/>
<path d="M27.8001 31.1298L27.9801 30.7698C27.9501 30.7998 27.8601 30.7698 27.8301 30.8298C27.7701 30.9198 27.6501 31.0398 27.6201 31.0398L27.8001 31.1298Z" fill="#DBDBDB"/>
<path d="M27.17 31.1898H26.99L27.05 31.0098L27.08 30.9498L26.9 30.8298C26.75 31.0098 26.51 31.1598 26.51 31.1598L27.59 31.6698L27.77 31.2498L27.5 31.1298C27.32 31.1598 27.2 31.1898 27.17 31.1898Z" fill="#DBDBDB"/>
<path d="M20.0302 29.2397C19.5502 29.2397 19.1602 29.6297 19.1602 30.1097C19.1602 30.5897 19.5502 30.9797 20.0302 30.9797C20.5102 30.9797 20.9002 30.5897 20.9002 30.1097C20.9002 29.6297 20.5102 29.2397 20.0302 29.2397ZM20.2402 29.7797C20.3002 29.7797 20.3002 29.7197 20.2702 29.6897C20.3002 29.6297 20.3302 29.6897 20.3302 29.7197C20.3302 29.7197 20.3902 29.7197 20.3902 29.7497C20.3902 29.7797 20.3602 29.7797 20.3602 29.8397C20.3602 29.8397 20.3002 29.8097 20.3302 29.8397C20.3302 29.8397 20.3002 29.8397 20.3002 29.8097C20.3002 29.7797 20.3302 29.7797 20.3302 29.7497C20.3302 29.7197 20.2702 29.7197 20.2702 29.7197C20.3002 29.7497 20.3002 29.8097 20.2402 29.7797C20.2402 29.8097 20.2402 29.7797 20.2402 29.7797ZM20.1502 30.0797H19.9402C20.0002 30.0197 19.9402 29.8697 19.8202 29.8697C19.7902 29.8697 19.7902 29.8997 19.7902 29.8997V29.8697C19.7902 29.8097 19.9402 29.8397 20.0002 29.8097C20.0002 29.8397 19.9702 29.8697 19.9702 29.8697C20.0002 29.8997 20.0302 29.9597 20.0602 30.0497C20.0602 29.9597 20.0902 29.8997 20.1502 29.8697C20.1202 29.8697 20.0902 29.8397 20.1202 29.8097C20.1802 29.8397 20.3302 29.8097 20.3302 29.8697V29.8997C20.3302 29.8997 20.3302 29.8697 20.3002 29.8697C20.1502 29.8697 20.0602 30.0197 20.1502 30.0797ZM20.2402 29.9297C20.2102 29.9297 20.2102 29.9297 20.1802 29.9297L20.2102 29.8997C20.2102 29.8997 20.2402 29.8997 20.2402 29.9297ZM20.0602 30.2897C20.0602 30.2897 20.0902 30.2597 20.0902 30.2897C20.0902 30.3197 20.0602 30.3197 20.0602 30.3197L20.0002 30.1397H20.0302C20.0302 30.1397 20.0602 30.1097 20.0902 30.1397V30.1697V30.1397C20.0902 30.1397 20.0902 30.1397 20.0902 30.1697V30.1997C20.1202 30.1997 20.1202 30.1997 20.1202 30.2297C20.1202 30.1997 20.0902 30.1997 20.0902 30.1997C20.0602 30.2597 20.0602 30.2597 20.0602 30.2897ZM19.9702 30.2297C19.9702 30.2297 19.9702 30.2597 19.9702 30.2297C19.9702 30.2297 19.9402 30.2297 19.9702 30.2297C19.9402 30.1997 19.9402 30.1997 19.9402 30.1997C19.9402 30.1997 19.9702 30.1997 19.9702 30.2297C19.9702 30.1997 20.0002 30.1997 20.0002 30.1997C19.9702 30.1997 19.9402 30.1997 19.9402 30.1697L19.9702 30.1397V30.1097L20.0602 30.3497C20.0302 30.3497 20.0002 30.3497 19.9702 30.3497C19.9702 30.3497 19.9402 30.3497 19.9402 30.3197C19.9402 30.3197 19.9402 30.3197 19.9402 30.2897C19.9402 30.2897 19.9702 30.2597 19.9702 30.2297ZM19.8802 29.9297C19.8802 29.9297 19.8502 29.9297 19.8202 29.9297C19.8202 29.8997 19.8202 29.8997 19.8502 29.8997C19.8502 29.8997 19.8802 29.8997 19.8802 29.9297ZM20.1802 29.6597V29.7197V29.6597ZM20.0302 29.5697L20.0602 29.5997L20.0302 29.6297L20.0002 29.5997L20.0302 29.5697ZM19.8502 29.6597V29.7197V29.6597ZM19.8502 29.7197H19.9102C19.9402 29.7197 19.9402 29.7197 19.9402 29.7497C19.9702 29.7497 20.0002 29.7197 20.0002 29.6897L19.9702 29.6597C19.9402 29.6297 19.9702 29.5997 20.0002 29.5997L20.0302 29.6597L20.0602 29.5997C20.0902 29.5997 20.1202 29.6297 20.0902 29.6597L20.0602 29.6897C20.0602 29.7197 20.0902 29.7497 20.1202 29.7497C20.1202 29.7197 20.1202 29.7197 20.1502 29.7197L20.1802 29.7497L20.2102 29.7197C20.2402 29.7197 20.2402 29.7197 20.2402 29.7497L20.2102 29.7797H20.1502C20.0902 29.7797 20.0602 29.7497 20.0602 29.7197H20.0002C20.0002 29.7497 19.9702 29.7797 19.9102 29.7797H19.8502C19.8502 29.7797 19.8502 29.7497 19.8202 29.7497C19.7902 29.7497 19.8202 29.7197 19.8502 29.7197ZM19.7002 29.7197C19.7302 29.6897 19.7602 29.6297 19.7602 29.6897C19.7302 29.7197 19.7302 29.7797 19.7902 29.7797C19.7302 29.7797 19.7302 29.7497 19.7302 29.7197C19.7302 29.7197 19.6702 29.7197 19.6702 29.7497C19.6702 29.7797 19.7002 29.7797 19.7002 29.8097C19.7002 29.8097 19.7002 29.8397 19.6702 29.8397C19.6702 29.8097 19.6402 29.8097 19.6402 29.8397C19.6702 29.7797 19.6102 29.7797 19.6102 29.7497C19.6402 29.7197 19.7002 29.7497 19.7002 29.7197ZM19.4902 30.0197C19.5202 30.0197 19.5502 30.0197 19.5202 29.9897C19.4902 29.9597 19.4602 29.8997 19.4902 29.8697C19.4902 29.8697 19.5802 29.8997 19.5502 29.8697C19.5202 29.8097 19.5202 29.7497 19.5502 29.7197C19.5502 29.7497 19.6702 29.8997 19.7902 29.9897C19.7902 29.9897 19.7602 30.0197 19.7602 30.0497C19.7602 30.0797 19.7902 30.1097 19.8202 30.1097C19.8502 30.1097 19.8502 30.1097 19.8802 30.1097V30.1997C19.8802 30.1697 19.8202 30.1397 19.7902 30.1397C19.7902 30.1697 19.7602 30.1997 19.7602 30.2297C19.7302 30.2597 19.7002 30.2597 19.6702 30.2297C19.6702 30.2297 19.7002 30.1697 19.6702 30.1997C19.6402 30.2297 19.6102 30.1997 19.5802 30.1697C19.6102 30.1697 19.6102 30.1397 19.5802 30.1397C19.5502 30.1397 19.4902 30.1397 19.4902 30.0797C19.4902 30.0797 19.5502 30.0497 19.5202 30.0497C19.5202 30.1097 19.4902 30.0797 19.4902 30.0197ZM20.3302 30.4997C20.3002 30.4997 20.2702 30.4997 20.2702 30.4697C20.2402 30.4397 20.2102 30.4397 20.1502 30.4397C20.1802 30.4097 20.1202 30.3797 20.0902 30.4097C20.0602 30.4097 20.0602 30.4397 20.0602 30.4697C20.1202 30.4697 20.2102 30.5297 20.2102 30.5597C20.2102 30.5897 20.2102 30.5897 20.1802 30.5897C20.1802 30.5297 20.1502 30.5297 20.1502 30.5897C20.1502 30.6197 20.1202 30.6197 20.1202 30.6497C20.1202 30.5897 20.0902 30.5897 20.0902 30.6497C20.0902 30.6797 20.0602 30.6797 20.0602 30.6797L20.0302 30.6497C20.0302 30.5897 20.0002 30.5897 20.0002 30.6497C19.9702 30.6497 19.9702 30.6197 19.9702 30.5897C19.9702 30.5297 19.9402 30.5297 19.9402 30.5897C19.9102 30.5897 19.9102 30.5597 19.9102 30.5597C19.9402 30.5297 20.0002 30.4697 20.0602 30.4697C20.0602 30.4397 20.0302 30.4097 20.0302 30.4097C20.0002 30.3797 19.9702 30.4097 19.9702 30.4397C19.9402 30.4397 19.8802 30.4397 19.8802 30.4697L19.9102 30.4997L19.8802 30.4697H19.8502C19.8202 30.4697 19.8202 30.4397 19.8202 30.4397V30.4097L19.7002 30.3197H19.6702C19.6702 30.3197 19.6102 30.3197 19.6102 30.2897H19.6402C19.6402 30.2897 19.6102 30.2597 19.6402 30.2597C19.6702 30.2597 19.7002 30.2597 19.7002 30.2597V30.2297C19.7302 30.2297 19.7302 30.2897 19.7302 30.2897C19.7302 30.2897 19.7602 30.2897 19.7302 30.3197L19.8502 30.4397H19.8802C19.9102 30.4397 19.9702 30.4397 19.9702 30.4097C19.9102 30.3197 19.9702 30.2597 20.0002 30.2597V30.3197C20.0002 30.3497 20.0302 30.3497 20.0302 30.3497H20.0602C20.0902 30.3497 20.1202 30.3797 20.1202 30.3797C20.1202 30.3797 20.1502 30.3497 20.1802 30.3497H20.2102C20.2402 30.3497 20.2402 30.3197 20.2402 30.3197V30.2597C20.3002 30.2597 20.3602 30.3197 20.2702 30.4097L20.3302 30.4397C20.3302 30.4097 20.3302 30.4097 20.3602 30.4097L20.3902 30.4397L20.4202 30.4097C20.4502 30.4097 20.4502 30.4397 20.4502 30.4697C20.3902 30.4697 20.3602 30.4997 20.3302 30.4997ZM20.3002 30.3497H20.3602H20.3002ZM20.5702 30.0197C20.5702 30.0497 20.5402 30.1097 20.5102 30.1097C20.4502 30.1097 20.5102 30.1397 20.5402 30.1397C20.5402 30.1697 20.5102 30.1997 20.4502 30.1997C20.4202 30.1997 20.4202 30.2297 20.4502 30.2297C20.4202 30.2597 20.3902 30.2597 20.3602 30.2597C20.3302 30.2597 20.3602 30.2897 20.3602 30.2897C20.3302 30.3197 20.3002 30.3197 20.2702 30.2897C20.2402 30.2597 20.2402 30.2297 20.2402 30.1997C20.2102 30.1997 20.1802 30.1997 20.1502 30.2597V30.1697C20.1802 30.1697 20.2102 30.1697 20.2102 30.1697C20.2402 30.1697 20.2702 30.1397 20.2702 30.1097C20.2702 30.0797 20.2702 30.0797 20.2402 30.0497C20.3602 29.9897 20.4502 29.8097 20.4802 29.7797C20.5102 29.8097 20.5102 29.8697 20.4802 29.9297C20.4502 29.9597 20.5402 29.9297 20.5402 29.9297C20.5702 29.9597 20.5402 30.0197 20.5102 30.0497C20.4802 30.0197 20.5402 30.0197 20.5702 30.0197Z" fill="#D0D2D3"/>
<path d="M14.8401 10.9397C14.6 10.9997 14.5101 11.0297 14.3601 11.0897C14.09 11.7497 14.6001 12.4997 15.2001 12.8597C15.3201 12.7997 15.5601 12.6797 15.8301 12.7097C15.1401 12.2897 14.57 11.6897 14.8401 10.9397Z" fill="#1FC150"/>
<path d="M25.1301 10.9397C25.3701 10.9997 25.4601 11.0297 25.6101 11.0897C25.8501 11.7497 25.3701 12.4997 24.7701 12.8597C24.6501 12.7997 24.4101 12.6797 24.1401 12.7097C24.8601 12.2897 25.4001 11.6897 25.1301 10.9397Z" fill="#1FC150"/>
<path d="M14.3601 12.2296C13.8501 12.2296 13.1601 11.7196 12.6201 12.0496L12.7401 12.4696C13.3101 12.2296 13.8201 12.8296 14.6601 12.6196C14.5401 12.4696 14.4501 12.3496 14.3601 12.2296Z" fill="#1FC150"/>
<path d="M15.0201 11.8697C15.0801 11.9897 15.2001 12.1097 15.3201 12.1997C15.6201 11.8097 15.5301 11.0297 14.9601 10.9397V10.9697C14.9001 11.0897 14.9001 11.2097 14.8701 11.2997C15.0501 11.4497 15.0801 11.6597 15.0201 11.8697Z" fill="#1FC150"/>
<path d="M25.6101 12.2296C25.5201 12.3496 25.4301 12.4996 25.3101 12.5896C26.1501 12.7996 26.6601 12.1996 27.2301 12.4396L27.3501 12.0196C26.8101 11.7196 26.1201 12.2296 25.6101 12.2296Z" fill="#1FC150"/>
<path d="M24.9502 11.8697C24.8902 11.6897 24.9202 11.4497 25.1002 11.2997C25.1002 11.2097 25.0702 11.0897 25.0102 10.9697V10.9397C24.4402 11.0297 24.3802 11.8097 24.6502 12.1997C24.7702 12.0797 24.8902 11.9897 24.9502 11.8697Z" fill="#1FC150"/>
<path d="M18.4702 12.9497C19.2502 12.5297 19.7302 11.8097 19.7602 10.6697C19.5502 10.6697 19.3402 10.6997 19.1602 10.7297C19.1602 11.4797 18.9202 11.9897 18.4702 12.3197C18.5902 12.2897 18.6802 12.2597 18.7702 12.2297L19.0702 12.0797L18.9202 12.3797C18.8002 12.6797 18.6502 12.8597 18.4702 12.9497Z" fill="#1FC150"/>
<path d="M21.4702 12.9497C21.3202 12.8597 21.1402 12.6797 21.0202 12.4097L20.8702 12.1097L21.1702 12.2597C21.2602 12.2897 21.3502 12.3197 21.4702 12.3497C21.0202 12.0197 20.7802 11.5097 20.7802 10.7597C20.6002 10.7297 20.4202 10.6997 20.1802 10.6997C20.2402 11.8097 20.7202 12.5597 21.4702 12.9497Z" fill="#1FC150"/>
<path d="M22.2202 18.4396L22.1002 18.3496V18.0196H21.8002L21.7102 17.8696C21.3802 17.2396 20.7502 16.8496 20.0602 16.8496H19.9102C19.2202 16.8496 18.5602 17.2396 18.2602 17.8696L18.1702 18.0196H17.9002V18.3496L17.7802 18.4396C16.9402 19.0696 16.4602 20.0296 16.4602 21.0496C16.4602 22.0696 16.9402 23.0296 17.7802 23.6596L17.9002 23.7496V24.0796H18.1702L18.2602 24.2296C18.5902 24.8596 19.2202 25.2496 19.9102 25.2496H20.0602C20.7502 25.2496 21.4102 24.8596 21.7102 24.2296L21.8002 24.0796H22.1002V23.7496L22.2202 23.6596C23.0602 23.0296 23.5402 22.0696 23.5402 21.0496C23.5402 20.0296 23.0602 19.0996 22.2202 18.4396ZM21.1702 23.8996H18.7702V23.3896H18.9502V23.1196H19.0702V22.8796H19.2802V21.2596H18.9802V20.4196H19.2802V20.2696H19.1602V20.0596H19.0402V19.6096H19.1602V19.3996H19.3102V19.2496C19.1002 19.0396 18.8902 18.6496 19.1002 18.3796C19.3102 18.1096 19.7302 18.2896 19.7302 18.2896C19.7302 18.2596 19.7302 18.1696 19.7302 18.1396H19.7002L19.7302 18.0796L19.6702 18.1096V17.6296L19.7302 17.6596L19.7002 17.5996H20.1802L20.1502 17.6596L20.2102 17.6296V18.1096L20.1502 18.0796L20.1802 18.1396H20.1502C20.1502 18.1696 20.1502 18.2596 20.1502 18.2896C20.1502 18.2896 20.6002 18.1096 20.7802 18.3796C20.9902 18.6796 20.7802 19.0396 20.6002 19.2496V19.3996H20.7502V19.6096H20.9002V20.0596H20.7802V20.2696H20.6602V20.4196H20.9602V21.2596H20.6602V22.8796H20.8702V23.1196H20.9902V23.3896H21.1702V23.8996Z" fill="#1FC150"/>
<path d="M19.4002 19.0998H19.7002C19.7002 18.8298 19.6402 18.4998 19.4902 18.3498L19.4002 18.2598C19.3102 18.2598 19.2502 18.2898 19.1902 18.3798C19.0102 18.6498 19.2502 18.9798 19.4002 19.0998Z" fill="#FFD400"/>
<path d="M20.66 19.46H19.28V19.58H20.66V19.46Z" fill="#FFD400"/>
<path d="M20.7502 19.6699H19.1602V19.8799H20.7502V19.6699Z" fill="#FFD400"/>
<path d="M20.5402 20.21H19.4302V20.42H20.5402V20.21Z" fill="#FFD400"/>
<path d="M20.5102 19.1899H19.4302V19.3699H20.5102V19.1899Z" fill="#FFD400"/>
<path d="M20.5102 19.0998C20.6602 18.9498 20.9002 18.6498 20.7202 18.4098C20.6602 18.3198 20.6002 18.2898 20.5102 18.2898L20.4202 18.3798C20.2702 18.4998 20.2102 18.8598 20.2102 19.1298H20.5102V19.0998Z" fill="#FFD400"/>
<path d="M19.88 17.9599H20.06L20.03 17.8399L20.12 17.8699V17.7199L20.03 17.7499L20.06 17.6299H19.88L19.91 17.7499L19.79 17.7199V17.8699L19.91 17.8399L19.88 17.9599Z" fill="#FFD400"/>
<path d="M19.9701 18.2598C20.0364 18.2598 20.0901 18.206 20.0901 18.1398C20.0901 18.0735 20.0364 18.0198 19.9701 18.0198C19.9038 18.0198 19.8501 18.0735 19.8501 18.1398C19.8501 18.206 19.9038 18.2598 19.9701 18.2598Z" fill="#FFD400"/>
<path d="M19.7901 19.0998H20.1201C20.1201 18.7998 20.1801 18.4398 20.3601 18.2898L20.1201 18.3798L20.0901 18.2898C20.0601 18.3198 20.0301 18.3198 19.9701 18.3198C19.9401 18.3198 19.8801 18.3198 19.8501 18.2898L19.8201 18.3798L19.5801 18.2898C19.7601 18.4398 19.7901 18.7998 19.7901 19.0998Z" fill="#FFD400"/>
<path d="M20.66 20H19.28V20.12H20.66V20Z" fill="#FFD400"/>
<path d="M20.7202 23H19.1902V23.15H20.7202V23Z" fill="#FFD400"/>
<path d="M20.8701 23.21H19.0701V23.39H20.8701V23.21Z" fill="#FFD400"/>
<path d="M21.0501 23.48H18.8901V23.75H21.0501V23.48Z" fill="#FFD400"/>
<path d="M20.5402 22.91V21.2H19.4302V22.88H20.5402V22.91ZM20.2702 21.38H20.3602V22.67H20.2702V21.38ZM19.9402 21.38H20.0302V22.67H19.9402V21.38ZM19.6102 21.38H19.7002V22.67H19.6102V21.38Z" fill="#FFD400"/>
<path d="M19.6401 20.8398H19.6701V20.7798L19.6401 20.8398Z" fill="#FFD400"/>
<path d="M19.1001 20.5098V21.1098H20.8101V20.5098H19.1001ZM19.4301 20.9598C19.4001 20.9598 19.3701 20.9598 19.3401 20.9298V20.8698C19.3401 20.8698 19.3401 20.8698 19.3701 20.8698L19.4001 20.8998H19.4301C19.4601 20.8998 19.4901 20.8998 19.4901 20.8698C19.4901 20.8398 19.4901 20.8398 19.4301 20.8398H19.4001C19.4301 20.8398 19.4301 20.8398 19.4301 20.8098C19.4301 20.7798 19.4001 20.7798 19.4001 20.7798H19.3701V20.8098H19.3401V20.7498C19.3701 20.7498 19.4001 20.7198 19.4301 20.7198C19.4901 20.7198 19.5201 20.7498 19.5201 20.7798C19.5201 20.8098 19.5201 20.8398 19.4901 20.8398C19.5201 20.8398 19.5201 20.8698 19.5201 20.8998C19.5201 20.9298 19.4601 20.9598 19.4301 20.9598ZM19.8201 20.9298H19.7001C19.7001 20.9298 19.7001 20.9298 19.7001 20.8998H19.7301L19.7001 20.8698H19.6101V20.8998H19.6401C19.6401 20.8998 19.6401 20.8998 19.6401 20.9298H19.5501C19.5501 20.9298 19.5501 20.9298 19.5501 20.8998H19.5801L19.6701 20.6898H19.7001L19.8201 20.9298ZM20.0901 20.9598H20.0001L19.9101 20.8398V20.8998H19.9401C19.9401 20.8998 19.9401 20.8998 19.9401 20.9298H19.8201C19.8201 20.9298 19.8201 20.9298 19.8201 20.8998H19.8501V20.7198H19.8201C19.8201 20.7198 19.8201 20.7198 19.8201 20.6898H19.9401C19.9401 20.6898 19.9401 20.6898 19.9401 20.7198H19.9101V20.8098L19.9701 20.7198C19.9701 20.7198 19.9701 20.7198 19.9701 20.6898H20.0601C20.0601 20.6898 20.0601 20.6898 20.0601 20.7198H20.0301L19.9701 20.7798L20.0601 20.8998L20.0901 20.9598C20.0901 20.9298 20.0901 20.9298 20.0901 20.9598ZM20.2101 20.9598C20.1201 20.9598 20.0901 20.8998 20.0901 20.8398C20.0901 20.7498 20.1201 20.7198 20.2101 20.7198C20.3001 20.7198 20.3301 20.7798 20.3301 20.8398C20.3301 20.8998 20.2701 20.9598 20.2101 20.9598ZM20.6001 20.9598H20.4801C20.4801 20.9598 20.4801 20.9598 20.4801 20.9298H20.5101V20.8398H20.4201V20.8998H20.4501C20.4501 20.8998 20.4501 20.8998 20.4501 20.9298H20.3301C20.3301 20.9298 20.3301 20.9298 20.3301 20.8998H20.3601V20.7198H20.3301C20.3301 20.7198 20.3301 20.7198 20.3301 20.6898H20.4501C20.4501 20.6898 20.4501 20.6898 20.4501 20.7198H20.4201V20.7798H20.5101V20.7198H20.4801C20.4801 20.7198 20.4801 20.7198 20.4801 20.6898H20.6001C20.6001 20.6898 20.6001 20.6898 20.6001 20.7198H20.5701V20.8998L20.6001 20.9598C20.6001 20.9298 20.6001 20.9298 20.6001 20.9598Z" fill="#FFD400"/>
<path d="M20.2101 20.7197C20.1801 20.7197 20.1501 20.7497 20.1501 20.8097C20.1501 20.8697 20.1801 20.8997 20.2101 20.8997C20.2402 20.8997 20.2702 20.8397 20.2702 20.8097C20.2402 20.7797 20.2402 20.7197 20.2101 20.7197Z" fill="#FFD400"/>
<path d="M26.7201 29.5098C26.7501 29.5098 26.7501 29.5098 26.7201 29.5098C26.6901 29.4198 26.6601 29.3898 26.6001 29.3298C26.6001 29.3598 26.6301 29.4198 26.6001 29.4498L26.7201 29.5098Z" fill="#FFE000"/>
<path d="M18.3201 29.5097C18.3201 29.7797 18.3501 30.0497 18.4101 30.3197C18.6201 30.2297 18.8301 30.1397 19.0101 29.9897C19.0401 29.6897 19.2201 29.4197 19.4901 29.2697C19.5201 29.1797 19.5501 29.0597 19.5801 28.9697L18.3201 29.5097Z" fill="#FFE000"/>
<path d="M19.9401 28.7898L19.7301 28.8798C19.7001 28.9698 19.6701 29.0898 19.6401 29.1798C19.7601 29.1498 19.8801 29.1198 20.0001 29.1198C20.1201 29.1198 20.2401 29.1498 20.3601 29.1798C20.3301 29.0598 20.3001 28.9398 20.2701 28.8198L20.0001 28.9398L19.9401 28.7898Z" fill="#FFE000"/>
<path d="M20.5402 29.2399C20.8102 29.3899 20.9902 29.6599 21.0202 29.9599C21.2002 30.1099 21.4102 30.2299 21.6202 30.2899C21.6802 29.9899 21.7402 29.7199 21.7102 29.4799L20.4202 28.8499C20.4502 28.9999 20.4802 29.1199 20.5402 29.2399Z" fill="#FFE000"/>
<path d="M19.5801 31.0098C19.6701 31.2198 19.8201 31.5198 20.0001 31.6698C20.1801 31.5198 20.3601 31.2198 20.4501 31.0098C20.3001 31.1598 19.7601 31.1598 19.5801 31.0098Z" fill="#FFE000"/>
<path d="M14.3902 30.3799L14.5102 30.9499L14.3602 30.7399L14.0602 31.2499C13.9702 31.3699 14.0302 31.4599 14.1502 31.3999L14.2702 31.3699C14.3902 31.3399 14.5702 31.1899 14.6302 31.0399L14.6902 30.9499C14.9602 30.4999 14.3902 30.3799 14.3902 30.3799Z" fill="#FFE000"/>
<path d="M12.0501 30.5898L12.3201 30.5598L12.0801 29.8398C12.0501 29.7198 11.9301 29.6598 11.8101 29.6898L11.7201 29.7198C11.6001 29.7498 11.5401 29.8698 11.5701 29.9898L11.7201 30.4698C11.7501 30.5298 11.9001 30.4998 11.9301 30.5898C12.1401 30.9798 12.4701 30.9798 12.4701 30.9798L12.3801 30.6798L12.0501 30.5898Z" fill="#FFE000"/>
<path d="M13.9401 29.7198L13.8201 29.3298C13.7901 29.2098 13.6701 29.1498 13.5501 29.1798L13.4601 29.2098C13.3401 29.2398 13.2801 29.3598 13.3101 29.4798L13.5201 30.1398L13.8201 29.8698L13.5801 30.2898L13.6101 30.3498L13.7001 30.6498C13.7001 30.6498 13.9701 30.2898 13.9101 29.9898C13.8501 29.8998 13.9701 29.8398 13.9401 29.7198Z" fill="#FFE000"/>
<path d="M12.9502 29.5699C12.9202 29.4799 12.8002 29.4199 12.7102 29.4499L12.5602 29.5099C12.4702 29.5399 12.4102 29.6599 12.4402 29.7499L12.6202 30.2899L13.0402 30.4999H12.7702C12.8302 30.7699 12.9802 30.8899 13.1602 31.0099C13.1602 31.0099 13.3102 30.6499 13.2202 30.3799L12.9502 29.5699Z" fill="#FFE000"/>
<path d="M25.5501 29.0299L25.9101 29.2099C25.9701 29.1199 26.1201 28.9999 26.3301 29.0599L26.4201 29.0899C26.4201 29.0899 26.4201 29.0899 26.4501 29.0899C25.7901 28.3099 25.3701 27.5599 25.2801 26.5999L24.0801 27.0799C24.1401 27.2599 24.2301 27.4399 24.3201 27.6199L24.6501 27.2299L24.7401 27.3199L24.3801 27.7399C24.4401 27.8299 24.5001 27.9199 24.5601 28.0099L24.8301 27.6799L24.9201 27.7699L24.6201 28.1299C24.6801 28.2199 24.7401 28.3099 24.8301 28.3699L25.1001 28.0699L25.1901 28.1599L24.9201 28.4899C25.0701 28.6999 25.2801 28.8799 25.5501 29.0299Z" fill="#FFE000"/>
<path d="M13.6401 29.0599C13.7301 29.0599 13.8201 29.1199 13.8801 29.1799L14.7201 28.8499C14.8701 28.7599 14.9901 28.6399 15.1101 28.5199L14.8101 28.1599L14.9001 28.0699L15.2001 28.4299C15.2601 28.3399 15.3201 28.2799 15.4101 28.1899L15.0201 27.7999L15.1101 27.7099L15.4101 28.0999C15.4701 28.0099 15.5301 27.9199 15.5901 27.8299L15.2001 27.3499L15.2901 27.2599L15.6501 27.6799C15.8301 27.3199 15.9501 26.9899 15.9801 26.6899L14.7501 26.1199C14.7501 27.2599 14.3601 28.1899 13.6401 29.0599Z" fill="#FFE000"/>
<path d="M9.47023 13.0698V12.7398L9.68023 13.0098C9.86023 13.2498 10.0402 13.4598 10.2202 13.6398C10.1002 13.3698 10.0102 13.0398 9.98023 12.6798C9.44023 11.8998 8.99023 11.1498 8.84023 10.5798C8.51023 12.1398 8.93023 13.1898 9.62023 14.0298C9.53023 13.7298 9.47023 13.4298 9.47023 13.0698Z" fill="#FFE000"/>
<path d="M12.35 18.56C12.32 18.53 12.32 18.5 12.29 18.47L12.11 18.2L12.41 18.29C12.62 18.35 12.86 18.38 13.13 18.38C12.65 18.26 12.17 18.02 11.84 17.48C11 17.09 10.16 16.46 9.62002 15.71C9.41002 15.56 9.20002 15.41 9.02002 15.2C9.38002 16.76 10.91 18.11 12.35 18.56Z" fill="#FFE000"/>
<path d="M12.8001 17.2997C12.2901 17.0897 11.9301 16.7297 11.7201 16.3697C11.0901 16.0397 10.3701 15.4997 9.92014 14.7197C9.65014 14.5097 9.41014 14.2697 9.14014 13.9697C9.20014 15.4997 10.4601 16.6697 11.7501 17.2997C11.7201 17.2697 11.7201 17.2397 11.6901 17.1797L11.5701 16.9097L11.8401 17.0297C12.1701 17.1797 12.5001 17.2397 12.8001 17.2997Z" fill="#FFE000"/>
<path d="M11.81 15.1999C11.78 15.1099 11.78 15.0199 11.75 14.9299L11.72 14.6599L11.93 14.8099C12.17 14.9899 12.41 15.1099 12.65 15.2299C12.44 15.0499 12.26 14.7499 12.23 14.3299C11.18 13.8199 10.7 13.1899 10.04 12.4099C10.13 13.7899 10.91 14.5699 11.81 15.1999Z" fill="#FFE000"/>
<path d="M14.03 20.8099C14.15 20.6299 14.3 20.4799 14.48 20.3899C14.21 20.4199 13.94 20.4199 13.67 20.4199C12.8 20.4199 12.02 20.2399 11.36 19.9099C11.15 19.9699 10.97 20.0299 10.79 20.1499C11.39 20.8099 12.62 21.0799 14.03 20.8099Z" fill="#FFE000"/>
<path d="M14.96 21.1099C14.9 21.1099 14.81 21.1099 14.72 21.1099C14.51 21.1099 14.3 21.0799 14.06 21.0499L13.88 21.0199L13.94 20.9299C13.61 20.9899 13.28 21.0199 12.95 21.0199C12.65 21.0199 12.38 20.9899 12.11 20.9599C11.69 21.0799 11.39 21.2299 11.27 21.4999C12.62 21.8899 13.76 21.6799 14.96 21.1099Z" fill="#FFE000"/>
<path d="M14.7801 20.2097H14.7501C14.3901 20.2097 13.9401 20.1497 13.4001 20.0297L13.2201 19.9997L13.3101 19.8497C13.3401 19.7897 13.4001 19.7297 13.4301 19.6697C12.1101 19.6097 11.0301 19.1297 10.1901 18.2297C10.0401 18.2597 9.92008 18.3197 9.83008 18.3197C10.9701 20.1197 12.8301 20.4797 14.7801 20.2097Z" fill="#FFE000"/>
<path d="M13.55 19.5499C13.61 19.4899 13.67 19.4299 13.73 19.3999C13.19 19.2799 12.77 19.0399 12.5 18.7099C11.9 18.5599 11.24 18.2299 10.67 17.7499C10.25 17.4199 9.91998 17.0599 9.61998 16.6699C9.46998 16.6399 9.31998 16.6099 9.22998 16.6099C10.13 18.4399 11.51 19.4899 13.55 19.5499Z" fill="#FFE000"/>
<path d="M12.9801 15.2897C14.1801 15.8297 15.3201 16.0997 15.4701 17.3897C14.9601 15.7097 13.4601 15.9797 11.8701 14.8997C11.9301 15.5297 12.3801 15.9497 13.0701 16.2197C13.9401 16.5197 14.8101 16.7897 15.1401 17.6597C14.2101 16.3097 12.7701 16.6997 11.6301 15.8297C11.7801 16.3697 12.2901 17.1497 13.3401 17.2997C14.0901 17.4797 14.4801 17.5997 14.8701 18.1697C14.0601 17.3297 12.8601 17.5697 11.7801 17.1197C12.4401 18.6497 14.0001 18.1697 14.9001 18.7997C14.1201 18.4397 13.0401 18.6197 12.3801 18.4097C12.7101 18.9197 13.2501 19.1897 13.8501 19.3097C14.1801 19.0997 14.5401 19.0997 14.9301 19.0697C15.0801 19.0697 15.2601 19.0397 15.4101 19.0397C14.9601 18.5597 15.0501 17.7197 15.8301 17.7497C15.9201 14.9897 13.3701 15.1697 12.3801 13.9697C12.2901 14.7197 12.6501 15.1097 12.9801 15.2897Z" fill="#FFE000"/>
<path d="M17.54 12.9199C17.84 13.0399 18.47 13.0999 18.83 12.3499C18.56 12.4999 18.2 12.4999 17.9 12.4699C17.48 12.4399 17.06 12.3499 16.61 12.3799C16.49 12.3799 16.28 12.4999 16.25 12.6499C17.03 12.4999 17.24 12.7999 17.54 12.9199Z" fill="#FFE000"/>
<path d="M19.3101 14.6299C19.3101 14.8699 19.3101 15.1099 19.1901 15.2899L19.0401 15.5299L18.9801 15.2599C18.9501 15.1699 18.9201 15.0799 18.8901 14.9899C18.8301 15.1699 18.7701 15.3499 18.6501 15.4999L18.4701 15.7699L18.4401 15.4399C18.4401 15.3799 18.4401 15.3499 18.4101 15.2899C18.3801 15.4099 18.3201 15.5299 18.2301 15.6499L18.2001 15.7099C18.1701 15.9199 18.1401 16.1299 18.1101 16.2499C18.3801 16.1899 18.7101 15.8299 18.8301 15.5299C18.8901 15.7099 19.0101 15.9499 19.1301 16.0399C19.3401 15.7999 19.4001 15.4999 19.4601 15.1399C19.5801 15.3199 19.7301 15.3799 20.0001 15.4099C20.2701 15.3799 20.4201 15.2899 20.5401 15.1399C20.5701 15.4999 20.6601 15.7999 20.8701 16.0399C20.9601 15.9499 21.1101 15.7099 21.1701 15.5299C21.2901 15.7999 21.6201 16.1899 21.8901 16.2499C21.8601 16.1299 21.8301 15.9199 21.8001 15.7099L21.7701 15.6799C21.6801 15.5599 21.6201 15.4399 21.5901 15.3199C21.5901 15.3499 21.5901 15.4099 21.5601 15.4699L21.5001 15.7699L21.3201 15.4999C21.2001 15.3499 21.1401 15.1699 21.0801 14.9899C21.0501 15.0799 21.0201 15.1699 20.9901 15.2599L20.9301 15.5299L20.7801 15.2899C20.6601 15.1099 20.6601 14.8699 20.6601 14.6299C20.5101 14.7799 20.3301 14.8999 20.1801 14.9899C20.1501 15.1399 20.0601 15.2899 19.9701 15.4099C19.8801 15.2899 19.8201 15.1099 19.7601 14.9899C19.6401 14.8999 19.4601 14.7799 19.3101 14.6299Z" fill="#FFE000"/>
<path d="M18.4101 13.0098C17.9001 13.2798 17.4801 13.0698 17.2401 12.8898C16.9401 12.6798 16.6401 12.6798 16.3401 12.7398C16.9101 13.0998 16.7001 13.7598 17.0901 13.9398C17.2701 14.0598 17.6901 14.3298 17.8701 14.8098C17.9601 14.6598 18.0501 14.1198 17.5701 13.5198C17.6901 13.5798 17.8401 13.7598 17.8401 13.7598C18.1401 13.9398 18.3801 14.1498 18.5301 14.3898C18.5901 14.0298 18.4101 13.6998 18.1101 13.3398C18.5901 13.9098 19.1301 13.9398 19.4901 13.8198C19.0701 13.7898 18.6201 13.3698 18.4101 13.0098ZM16.6101 12.8298C16.7001 12.8298 16.8801 12.7998 17.1501 12.9498C17.0601 13.0398 16.8501 13.1898 16.6101 12.8298Z" fill="#FFE000"/>
<path d="M18.5599 13.9099C18.6199 14.0599 18.6499 14.2399 18.6199 14.4499L18.5599 14.7799L18.3799 14.5099C18.2599 14.3299 18.1099 14.1799 17.9299 14.0599C18.0499 14.4199 18.0199 14.6899 17.9599 14.8699C18.0499 15.1099 18.1099 15.3799 18.1099 15.6199C18.2899 15.3499 18.3499 15.0799 18.3499 14.7799C18.4399 14.9899 18.4999 15.1999 18.5299 15.4399C18.7099 15.1699 18.7999 14.8999 18.8299 14.5999C18.9499 14.8099 19.0399 15.0199 19.0699 15.2299C19.2199 15.0199 19.1599 14.6299 19.1299 14.2999C19.3399 14.5399 19.6699 14.8399 19.8799 14.9299C19.7599 14.5999 19.5199 14.2999 19.2799 14.0599C19.2499 14.0299 18.8299 14.0899 18.5599 13.9099Z" fill="#FFE000"/>
<path d="M17.6 16.9399C16.85 17.3299 16.88 18.0799 16.49 18.2299C16.58 18.2599 16.64 18.2899 16.73 18.2899C16.82 18.1999 16.88 18.0799 16.94 17.9599C17.18 17.5999 17.45 17.1499 18.17 16.9699C18.17 16.9399 18.14 16.9099 18.14 16.8799C18.02 16.9099 17.93 16.9399 17.84 16.9399C17.81 16.9399 17.78 16.9399 17.75 16.9399H17.6Z" fill="#FFE000"/>
<path d="M13.0701 16.3699C12.4701 16.1299 12.0801 15.7999 11.9001 15.3799C11.3001 15.0199 10.7901 14.5699 10.4001 13.9999C10.1001 13.7299 9.86009 13.4299 9.59009 13.0999C9.59009 14.6299 10.5801 15.6199 11.6301 16.1899C11.6001 16.0999 11.5401 15.9799 11.5101 15.8899L11.4201 15.5299L11.6901 15.7399C12.1401 16.0699 12.5901 16.2199 13.0701 16.3699Z" fill="#FFE000"/>
<path d="M9.02009 13.9999V13.6399L9.26009 13.9099C9.47009 14.1799 9.68009 14.3599 9.89009 14.5399L9.53009 14.0899C9.14009 13.6099 8.87009 13.0699 8.72009 12.5299C8.66009 12.4099 8.60009 12.2899 8.54009 12.1699C8.21009 13.7599 8.78009 14.5399 9.44009 15.3199C9.20009 14.9299 9.05009 14.4799 9.02009 13.9999Z" fill="#FFE000"/>
<path d="M14.6602 23.2998C14.5102 23.3898 14.3602 23.4498 14.1802 23.5098L14.5702 23.6898C14.5702 23.5998 14.6302 23.4498 14.6602 23.2998Z" fill="#FFE000"/>
<path d="M15.3501 24.1697L15.4701 24.2297L15.5601 24.1697L15.7701 24.2597C15.7701 24.1097 15.7701 23.8997 15.7701 23.7197C15.6501 23.8697 15.5001 24.0497 15.3501 24.1697Z" fill="#FFE000"/>
<path d="M16.4001 24.5598L16.5501 24.6198L16.6401 24.7698L16.8801 24.8898C16.8201 24.6498 16.7901 24.3498 16.7901 24.0798C16.6701 24.2598 16.5501 24.4098 16.4001 24.5598Z" fill="#FFE000"/>
<path d="M12.1401 22.5798L12.5601 22.7898C13.4901 22.7598 14.2401 22.3698 14.9901 21.8898V21.8598C14.9901 21.5898 15.1701 21.2598 15.3201 21.0498C14.5401 21.4698 13.8501 21.7098 13.1601 21.7998C12.6801 22.0398 12.2901 22.2798 12.1401 22.5798Z" fill="#FFE000"/>
<path d="M30.29 13.0098L30.5 12.7398V13.0698C30.5 13.4298 30.44 13.7298 30.35 14.0298C31.04 13.1898 31.46 12.1398 31.13 10.5798C30.98 11.1498 30.53 11.8998 29.99 12.6798C29.96 13.0398 29.87 13.3398 29.75 13.6398C29.93 13.4298 30.11 13.2198 30.29 13.0098Z" fill="#FFE000"/>
<path d="M28.1001 17.5098C27.7701 18.0498 27.2901 18.2598 26.8101 18.4098C27.0801 18.3798 27.3501 18.3798 27.5301 18.3198L27.8301 18.2298L27.6501 18.4998C27.6201 18.5298 27.6201 18.5598 27.5901 18.5898C29.0301 18.1398 30.5601 16.7898 30.8901 15.2598C30.6801 15.4398 30.4701 15.6198 30.2901 15.7698C29.7801 16.5198 28.9401 17.1198 28.1001 17.5098Z" fill="#FFE000"/>
<path d="M28.2202 17.3298C29.5102 16.6698 30.7702 15.4998 30.8302 13.9998C30.5902 14.2998 30.3202 14.5398 30.0502 14.7498C29.6002 15.5298 28.8502 16.0398 28.2502 16.3998C28.0402 16.7898 27.6802 17.1198 27.1702 17.3298C27.5002 17.2698 27.8002 17.2098 28.1302 17.0898L28.4002 16.9698L28.2802 17.2398C28.2502 17.2398 28.2502 17.2998 28.2202 17.3298Z" fill="#FFE000"/>
<path d="M27.29 15.2299C27.53 15.1099 27.77 14.9899 28.01 14.8099L28.22 14.6599L28.19 14.9299C28.19 15.0199 28.16 15.1099 28.13 15.1999C29.06 14.5999 29.81 13.7899 29.87 12.4399C29.24 13.2199 28.76 13.8499 27.68 14.3599C27.68 14.7499 27.5 15.0499 27.29 15.2299Z" fill="#FFE000"/>
<path d="M26.3002 20.4199C26.0602 20.4199 25.7902 20.4199 25.4902 20.3899C25.6402 20.4799 25.7902 20.6299 25.9402 20.8099C27.3502 21.0799 28.5802 20.8399 29.1802 20.1799C29.0002 20.0599 28.8202 19.9699 28.6102 19.9399C27.9502 20.2399 27.1702 20.4199 26.3002 20.4199Z" fill="#FFE000"/>
<path d="M27.86 20.9599C27.59 21.0199 27.32 21.0199 27.02 21.0199C26.69 21.0199 26.36 20.9899 26.03 20.9299L26.09 21.0199L25.91 21.0499C25.67 21.1099 25.46 21.1099 25.25 21.1099C25.16 21.1099 25.1 21.1099 25.01 21.1099C26.18 21.6799 27.35 21.8899 28.67 21.4999C28.58 21.2299 28.28 21.0799 27.86 20.9599Z" fill="#FFE000"/>
<path d="M26.5402 19.6698C26.5702 19.7298 26.6302 19.7898 26.6602 19.8498L26.7502 19.9998L26.5702 20.0298C26.0302 20.1498 25.5802 20.2098 25.2202 20.2098H25.1902C27.1102 20.4798 29.0002 20.1198 30.1402 18.3498C30.0502 18.3198 29.9002 18.2898 29.7802 18.2598C28.9102 19.1298 27.8302 19.6098 26.5402 19.6698Z" fill="#FFE000"/>
<path d="M29.33 17.7799C28.76 18.2299 28.1 18.5599 27.5 18.7399C27.2 19.0699 26.78 19.3099 26.27 19.4299C26.33 19.4899 26.39 19.5199 26.45 19.5799C28.49 19.4899 29.87 18.4399 30.8 16.6699C30.71 16.6699 30.56 16.6999 30.41 16.7299C30.08 17.0899 29.75 17.4499 29.33 17.7799Z" fill="#FFE000"/>
<path d="M24.53 19.0398C24.71 19.0698 24.86 19.0698 25.01 19.0698C25.4 19.0998 25.76 19.0998 26.09 19.3098C26.69 19.1898 27.23 18.9198 27.56 18.4098C26.9 18.6198 25.85 18.4398 25.04 18.7998C25.94 18.1698 27.5 18.6498 28.13 17.1798C27.05 17.6298 25.85 17.3898 25.04 18.2298C25.43 17.6598 25.82 17.5398 26.57 17.3598C27.65 17.1798 28.13 16.4298 28.28 15.8898C27.14 16.7598 25.7 16.3698 24.77 17.7198C25.13 16.8198 25.97 16.5498 26.84 16.2798C27.53 16.0098 27.98 15.5898 28.04 14.9598C26.45 16.0398 24.95 15.7698 24.44 17.4498C24.59 16.1598 25.76 15.8598 26.93 15.3498C27.26 15.1398 27.59 14.7498 27.53 14.0298C26.54 15.1998 23.99 15.0498 24.08 17.8098C24.92 17.7198 25.01 18.5598 24.53 19.0398Z" fill="#FFE000"/>
<path d="M22.4301 12.9199C22.7301 12.7699 22.9401 12.4999 23.7201 12.6499C23.6901 12.4999 23.5101 12.3799 23.3601 12.3799C22.9101 12.3499 22.4901 12.4399 22.0701 12.4699C21.7701 12.4999 21.4101 12.4999 21.1401 12.3499C21.5001 13.0999 22.1301 13.0399 22.4301 12.9199Z" fill="#FFE000"/>
<path d="M20.81 14.2999C20.78 14.6299 20.72 15.0199 20.87 15.2299C20.93 15.0199 21.02 14.7799 21.11 14.5999C21.14 14.8999 21.23 15.1699 21.41 15.4399C21.44 15.1999 21.5 14.9899 21.59 14.7799C21.59 15.0799 21.65 15.3799 21.83 15.6199C21.83 15.3499 21.86 15.1099 21.98 14.8699C21.92 14.6899 21.89 14.4199 22.01 14.0599C21.83 14.1799 21.68 14.3599 21.56 14.5099L21.38 14.7799L21.32 14.4499C21.29 14.2699 21.32 14.0899 21.38 13.9099C21.11 14.0599 20.69 14.0299 20.63 14.0299C20.39 14.2699 20.18 14.5699 20.03 14.8999C20.3 14.8099 20.6 14.5399 20.81 14.2999Z" fill="#FFE000"/>
<path d="M22.3701 16.9399L22.2501 16.9699C22.2201 16.9699 22.1901 16.9699 22.1601 16.9699C22.0701 16.9699 21.9501 16.9399 21.8601 16.9099C21.8601 16.9399 21.8301 16.9699 21.8301 16.9999C22.5501 17.1499 22.8201 17.5999 23.0601 17.9899C23.1201 18.1099 23.2101 18.2299 23.2701 18.3199C23.3601 18.3199 23.4201 18.2899 23.5101 18.2599C23.0901 18.0799 23.1201 17.3299 22.3701 16.9399Z" fill="#FFE000"/>
<path d="M28.3399 16.1899C29.3899 15.5899 30.3799 14.5999 30.3799 13.0999C30.1099 13.4599 29.8399 13.7299 29.5699 13.9999C29.2099 14.5999 28.6699 15.0499 28.0999 15.4099C27.9199 15.8299 27.5299 16.1299 26.9599 16.3699H26.9299C27.3799 16.2499 27.8599 16.0999 28.2799 15.7699L28.5499 15.5599L28.4599 15.9199C28.4299 15.9799 28.3699 16.0699 28.3399 16.1899Z" fill="#FFE000"/>
<path d="M30.0801 14.5397C30.2901 14.3597 30.5001 14.1497 30.7101 13.9097L30.9501 13.6397V13.9997C30.9201 14.4797 30.8001 14.9597 30.5601 15.3797C31.2201 14.5697 31.7901 13.8197 31.4601 12.2297C31.4001 12.3497 31.3401 12.4697 31.2801 12.5897C31.1301 13.1597 30.8601 13.6697 30.4701 14.1497L30.0801 14.5397Z" fill="#FFE000"/>
<path d="M27.6801 22.3998C27.5001 22.1898 27.1701 22.0098 26.8101 21.7998C26.1201 21.7098 25.4301 21.4698 24.6501 21.0498C24.8301 21.2598 24.9801 21.5898 24.9801 21.8598V21.8898C25.6401 22.3098 26.3001 22.6398 27.0801 22.7298C27.2601 22.6098 27.4701 22.4898 27.6801 22.3998Z" fill="#FFE000"/>
<path d="M25.6701 23.4798C25.5501 23.4198 25.4301 23.3598 25.3101 23.2998C25.3401 23.4198 25.3401 23.5398 25.3701 23.6298C25.4901 23.5998 25.5801 23.5398 25.6701 23.4798Z" fill="#FFE000"/>
<path d="M24.5602 24.1098C24.4402 23.9898 24.3202 23.8698 24.2002 23.7498C24.2302 23.9598 24.2302 24.1398 24.2002 24.2898C24.3202 24.2298 24.4402 24.1698 24.5602 24.1098Z" fill="#FFE000"/>
<path d="M23.0601 24.8898C23.2401 24.7998 23.4201 24.6798 23.6301 24.5898C23.4801 24.4098 23.3301 24.2598 23.2101 24.0798C23.1801 24.4098 23.1501 24.6798 23.0601 24.8898Z" fill="#FFE000"/>
<path d="M26.5101 23.0297C26.4201 22.9097 26.3301 22.7897 26.2101 22.6697C25.7301 22.5197 25.3101 22.2497 24.8601 21.9797H24.8301C24.7701 21.9797 24.7401 21.9797 24.6801 21.9797C24.4101 21.9797 24.1101 21.8897 23.8701 21.7397C23.8701 21.7997 23.8401 21.8297 23.8401 21.8897C24.4101 22.5497 25.0101 23.1197 25.8201 23.4197C26.0601 23.2697 26.3001 23.1497 26.5101 23.0297Z" fill="#FFE000"/>
<path d="M25.2501 23.7198C25.2501 23.5698 25.2201 23.4198 25.1601 23.2398C24.6501 22.9398 24.2001 22.5198 23.8101 22.0398C23.7501 22.2198 23.6901 22.3998 23.6301 22.5798C23.8701 23.1498 24.2001 23.6298 24.6801 24.0498C24.8601 23.9298 25.0701 23.8398 25.2501 23.7198Z" fill="#FFE000"/>
<path d="M24.05 23.5699C23.84 23.2999 23.69 22.9999 23.57 22.7C23.42 22.9999 23.24 23.2699 23 23.5099C23.18 23.8699 23.42 24.1999 23.72 24.5299C23.84 24.4699 23.96 24.4099 24.08 24.3499C24.11 24.1399 24.08 23.8699 24.05 23.5699Z" fill="#FFE000"/>
<path d="M23.06 23.8999C23 23.8099 22.94 23.7199 22.91 23.6299C22.79 23.7499 22.67 23.8699 22.52 23.9599V24.4099V24.4999C22.64 24.6499 22.76 24.7999 22.88 24.9499C23.03 24.7099 23.09 24.3499 23.06 23.8999Z" fill="#FFE000"/>
<path d="M22.07 24.5298C21.98 24.6498 21.92 24.7998 21.8 24.8898C21.89 25.0398 22.01 25.2198 22.13 25.3698C22.22 25.3098 22.31 25.2798 22.4 25.2198C22.46 25.0698 22.52 24.9198 22.55 24.7098C22.49 24.6498 22.43 24.5598 22.4 24.4998H22.07V24.5298Z" fill="#FFE000"/>
<path d="M21.7101 24.9797C21.5301 25.1597 21.3201 25.3397 21.0801 25.4597C21.2001 25.5497 21.3201 25.6397 21.4401 25.7297C21.5901 25.6397 21.7701 25.5797 21.9201 25.4897C21.9201 25.3997 21.8901 25.3397 21.8601 25.2497C21.8001 25.1597 21.7701 25.0697 21.7101 24.9797Z" fill="#FFE000"/>
<path d="M21.26 25.8198C21.26 25.7898 21.26 25.7598 21.26 25.7598C21.17 25.6998 21.05 25.6098 20.96 25.5198C20.75 25.6098 20.51 25.6698 20.24 25.6998C20.33 25.8798 20.42 26.0298 20.54 26.1798C20.78 26.0598 21.02 25.9398 21.26 25.8198Z" fill="#FFE000"/>
<path d="M20.1201 25.7C20.0901 25.7 20.0601 25.7 20.0601 25.7H19.9101C19.8801 25.7 19.8501 25.7 19.8501 25.7C19.7901 25.85 19.6701 25.9999 19.6101 26.1499L19.9401 26.2999C19.9701 26.2399 20.0001 26.15 20.0001 26.09C20.0301 26.2099 20.0601 26.2999 20.0901 26.4199C20.2101 26.3599 20.3301 26.2999 20.4501 26.2399C20.3301 26.06 20.2101 25.88 20.1201 25.7Z" fill="#FFE000"/>
<path d="M18.71 25.7898L18.92 25.8798L18.98 25.8498L19.46 26.0898C19.55 25.9698 19.64 25.8198 19.7 25.6998C19.46 25.6698 19.22 25.6098 18.98 25.5198C18.92 25.5798 18.8 25.7298 18.71 25.7898Z" fill="#FFE000"/>
<path d="M18.89 25.4597C18.65 25.3397 18.44 25.1897 18.26 24.9797C18.2 25.0697 18.17 25.1597 18.11 25.2197C18.11 25.2797 18.05 25.3997 18.05 25.4297L18.62 25.6997C18.68 25.6697 18.8 25.5197 18.89 25.4597Z" fill="#FFE000"/>
<path d="M17.9002 24.5298H17.6002C17.5402 24.5898 17.5102 24.6798 17.4502 24.7398C17.4502 24.8898 17.4802 25.0998 17.5102 25.1898L17.9002 25.3698C17.9902 25.2498 18.1402 25.0098 18.2002 24.8898C18.0802 24.7698 17.9902 24.6498 17.9002 24.5298Z" fill="#FFE000"/>
<path d="M17.48 24.4099V23.9599C17.33 23.8399 17.21 23.7199 17.09 23.5999C17.03 23.6899 16.97 23.8099 16.91 23.8999C16.88 24.3199 16.91 24.7399 17.03 24.9799L17.09 25.0099C17.21 24.8599 17.36 24.6199 17.45 24.4699V24.4099H17.48Z" fill="#FFE000"/>
<path d="M16.4301 22.6699C16.2801 22.9699 16.1301 23.2699 15.9201 23.5699C15.8901 23.8699 15.8601 24.1399 15.8901 24.3499L16.2801 24.5299C16.5801 24.1999 16.8201 23.8699 17.0001 23.5099C16.7601 23.2399 16.5801 22.9699 16.4301 22.6699Z" fill="#FFE000"/>
<path d="M16.1602 22.0098C15.7402 22.4898 15.2902 22.9398 14.7802 23.2398C14.7202 23.4498 14.6602 23.6898 14.6602 23.8698L15.2602 24.1398C15.7702 23.7198 16.1302 23.0898 16.3702 22.5198C16.2802 22.3698 16.2202 22.1898 16.1602 22.0098Z" fill="#FFE000"/>
<path d="M16.13 21.8597C16.13 21.8297 16.1 21.7697 16.1 21.7397C15.83 21.8897 15.56 22.0097 15.26 22.0097C15.2 22.0097 15.17 22.0097 15.11 22.0097H15.08C14.66 22.2797 14.21 22.5197 13.73 22.6997C13.58 22.8797 13.37 23.0897 13.25 23.2397L13.85 23.5397C14.81 23.2097 15.53 22.5797 16.13 21.8597Z" fill="#FFE000"/>
<path d="M26.54 19.9398C25.76 18.7398 24.77 19.5798 23.57 18.8298C23.48 18.8898 23.36 18.8898 23.21 18.9198C23.54 19.3698 23.75 19.8798 23.84 20.3898C24.23 20.9898 25.04 21.0798 25.82 20.9298C25.55 20.4798 25.19 20.3298 24.77 20.2398C24.29 20.0898 23.9 19.9098 23.78 19.3998C24.2 20.2698 25.46 20.1498 26.54 19.9398Z" fill="#FFE000"/>
<path d="M24.8301 21.8599C24.8301 21.5599 24.5901 21.1399 24.4101 21.0199C24.1701 20.9299 24.0201 20.8099 23.9001 20.6299C23.9301 20.7799 23.9301 20.9299 23.9301 21.0499C23.9301 21.2299 23.9001 21.4399 23.8701 21.6199C24.2001 21.7999 24.5301 21.8899 24.8301 21.8599Z" fill="#FFE000"/>
<path d="M15.5301 21.0198C15.3501 21.1698 15.1401 21.5598 15.1101 21.8598C15.4401 21.8898 15.7401 21.7998 16.0701 21.5898C16.0401 21.4098 16.0401 21.2298 16.0401 21.0498C16.0401 20.8998 16.0401 20.7198 16.0701 20.5698C15.9501 20.7798 15.8001 20.8998 15.5301 21.0198Z" fill="#FFE000"/>
<path d="M15.1402 20.2398C14.7202 20.3298 14.3602 20.5098 14.0902 20.9298C14.9002 21.0798 15.7402 20.9898 16.1302 20.3298C16.2202 19.8198 16.4602 19.3398 16.7602 18.9198C16.6102 18.9198 16.4902 18.8898 16.4002 18.8298C15.2302 19.5798 14.2102 18.7398 13.4302 19.9398C14.5102 20.1798 15.7702 20.2998 16.1602 19.3998C16.0102 19.9098 15.6202 20.0898 15.1402 20.2398Z" fill="#FFE000"/>
<path d="M22.5202 18.1398C22.7602 18.3198 22.9702 18.5598 23.1502 18.7698C23.3302 18.7698 23.4802 18.7398 23.6302 18.6498C22.8202 18.4998 22.9702 17.3298 21.7402 17.0898L21.7102 17.1198C21.8302 17.2398 21.9502 17.3898 22.0402 17.5698H22.4002H22.5202V17.6898V18.1398Z" fill="#FFE000"/>
<path d="M16.8501 18.7999C17.0301 18.5599 17.2401 18.3499 17.4801 18.1699V17.7199V17.5999H17.6001H17.9001C17.9901 17.4199 18.1101 17.2699 18.2301 17.1499L18.2001 17.1199C16.9701 17.3899 17.1201 18.5299 16.3101 18.6799C16.4901 18.7699 16.6401 18.7999 16.8501 18.7999Z" fill="#FFE000"/>
<path d="M18.26 16.8497C18.29 16.9097 18.32 16.9697 18.35 17.0297C18.47 16.9097 18.59 16.8197 18.74 16.7297C18.71 16.6697 18.71 16.5797 18.71 16.4897C18.56 16.6697 18.41 16.7897 18.26 16.8497Z" fill="#FFE000"/>
<path d="M21.29 16.5198C21.29 16.6098 21.26 16.6998 21.26 16.7598C21.41 16.8498 21.53 16.9398 21.65 17.0598C21.68 16.9998 21.71 16.9398 21.74 16.8798C21.56 16.7898 21.41 16.6698 21.29 16.5198Z" fill="#FFE000"/>
<path d="M19.5801 16.4298C19.6101 16.4298 19.6701 16.4298 19.7001 16.4298C19.7001 16.3998 19.6701 16.3398 19.6701 16.3098C19.6401 16.3398 19.6101 16.3998 19.5801 16.4298Z" fill="#FFE000"/>
<path d="M20.39 16.4298C20.36 16.3998 20.33 16.3398 20.3 16.2798C20.3 16.3398 20.27 16.3698 20.27 16.3998C20.3 16.4298 20.36 16.4298 20.39 16.4298Z" fill="#FFE000"/>
<path d="M21.83 16.3699C21.59 16.3099 21.32 16.0699 21.17 15.8299C21.11 15.9499 21.02 16.0699 20.93 16.1599L20.84 16.2499L20.75 16.1599C20.57 15.9499 20.48 15.6799 20.42 15.4099C20.3 15.6499 19.61 15.6499 19.52 15.4099C19.49 15.6499 19.4 15.9199 19.19 16.1599L19.1 16.2499L19.01 16.1599C18.92 16.0999 18.86 15.9799 18.77 15.8299C18.59 16.0699 18.32 16.3399 18.11 16.3699L18.02 16.3999C17.96 16.5499 17.87 16.6999 17.75 16.8499C18.08 16.9099 18.56 16.6099 18.8 16.1599C18.8 16.3999 18.8 16.5499 18.83 16.6999C19.01 16.6099 19.19 16.5199 19.4 16.4899C19.52 16.3399 19.64 16.1299 19.67 15.8599C19.73 16.1599 19.76 16.3099 19.82 16.4299C19.85 16.4299 20.09 16.4299 20.12 16.4299C20.18 16.3099 20.21 16.1299 20.27 15.8599C20.3 16.1299 20.42 16.3399 20.54 16.4899C20.75 16.5499 20.93 16.6099 21.11 16.6999C21.14 16.5799 21.14 16.4299 21.14 16.1599C21.41 16.6099 21.86 16.9099 22.19 16.8499C22.07 16.6999 21.98 16.5499 21.92 16.3999L21.83 16.3699Z" fill="#FFE000"/>
<path d="M21.9802 24.4098H22.4002V23.8998C23.2702 23.2398 23.8402 22.2198 23.8402 21.0498C23.8402 19.9098 23.2702 18.8598 22.4002 18.1998V17.6898H21.9802C21.6202 16.9998 20.9002 16.5198 20.0602 16.5198H19.9102C19.0702 16.5198 18.3502 16.9998 17.9902 17.6898H17.6002V18.1998C16.7302 18.8598 16.1602 19.8798 16.1602 21.0498C16.1602 22.1898 16.7302 23.2398 17.6002 23.8998V24.4098H17.9902C18.3502 25.0998 19.0702 25.5798 19.9102 25.5798H20.0602C20.9002 25.5798 21.6202 25.0998 21.9802 24.4098ZM20.0602 25.3998H19.9102C19.1602 25.3998 18.5002 24.9798 18.1402 24.3198L18.0802 24.2298H17.7502V23.8398L17.6902 23.7798C16.8202 23.1198 16.3402 22.1298 16.3402 21.0798C16.3402 20.0298 16.8502 19.0398 17.6902 18.3798L17.7502 18.3198V17.8998H18.0802L18.1402 17.8098C18.5002 17.1498 19.1602 16.7298 19.9102 16.7298H20.0602C20.8102 16.7298 21.4702 17.1498 21.8302 17.8098L21.8902 17.8998H22.2202V18.2898L22.2802 18.3498C23.1502 19.0098 23.6302 19.9998 23.6302 21.0498C23.6302 22.0998 23.1202 23.0898 22.2802 23.7498L22.2202 23.8098V24.1998H21.8902L21.8302 24.2898C21.4702 24.9798 20.8102 25.3998 20.0602 25.3998Z" fill="#FFE000"/>
<path d="M21.89 13.3999C21.59 13.7599 21.41 14.0899 21.47 14.4499C21.62 14.2099 21.83 13.9999 22.16 13.8199C22.16 13.8199 22.31 13.6099 22.43 13.5799C21.95 14.1799 22.04 14.6899 22.13 14.8699C22.31 14.3599 22.73 14.0899 22.91 13.9999C23.3 13.8199 23.09 13.1299 23.66 12.7999C23.33 12.7399 23.03 12.7399 22.76 12.9499C22.52 13.1299 22.1 13.3399 21.59 13.0699C21.38 13.3999 20.93 13.8499 20.54 13.9099C20.87 13.9699 21.41 13.9399 21.89 13.3999ZM23.36 12.8299C23.12 13.1599 22.94 13.0099 22.82 12.9499C23.09 12.8299 23.24 12.8599 23.36 12.8299Z" fill="#FFE000"/>
<path d="M25.3102 30.6197L25.1302 30.7997L25.3102 30.2297C25.3102 30.2297 24.7102 30.2897 24.9502 30.7997L24.9802 30.8897C25.0402 31.0397 25.1902 31.1897 25.3102 31.2497L25.4002 31.3097C25.5202 31.3697 25.5802 31.3097 25.5202 31.1597L25.3102 30.6197Z" fill="#FFE000"/>
<path d="M28.0401 29.8997L27.9501 29.8697C27.8301 29.8097 27.7101 29.8697 27.6501 29.9897L27.3201 30.6797L27.5901 30.7397L27.2601 30.7997L27.1401 31.0997C27.1401 31.0997 27.4701 31.1597 27.7101 30.7697C27.7701 30.6797 27.8901 30.7397 27.9201 30.6797L28.1301 30.1997C28.1901 30.0797 28.1601 29.9597 28.0401 29.8997Z" fill="#FFE000"/>
<path d="M26.51 29.5098C26.57 29.3898 26.51 29.2698 26.39 29.2098L26.3 29.1498C26.18 29.0898 26.06 29.1498 26 29.2698L25.82 29.6298C25.76 29.7498 25.88 29.8098 25.82 29.9298C25.73 30.2298 25.97 30.5898 25.97 30.5898L26.09 30.2898L26.12 30.2298L25.94 29.8098L26.21 30.0798L26.51 29.5098Z" fill="#FFE000"/>
<path d="M27.3201 29.8098C27.3501 29.7198 27.3201 29.5998 27.2301 29.5698L27.0801 29.5098C26.9901 29.4798 26.8701 29.5098 26.8401 29.5998L26.5101 30.3498C26.3901 30.6198 26.5101 31.0098 26.5101 31.0098C26.6901 30.8898 26.8401 30.7698 26.9301 30.5298L26.6901 30.4998L27.1101 30.3498L27.3201 29.8098Z" fill="#FFE000"/>
</svg>
