<svg width="32" height="32" viewBox="0 0 32 32" fill="none" xmlns="http://www.w3.org/2000/svg">
<rect width="32" height="32" rx="16" fill="#1C1C1C"/>
<path d="M8.5 11.0001H10.1667M10.1667 11.0001H23.5M10.1667 11.0001V22.6667C10.1667 23.1088 10.3423 23.5327 10.6548 23.8453C10.9674 24.1578 11.3913 24.3334 11.8333 24.3334H20.1667C20.6087 24.3334 21.0326 24.1578 21.3452 23.8453C21.6577 23.5327 21.8333 23.1088 21.8333 22.6667V11.0001H10.1667ZM12.6667 11.0001V9.33341C12.6667 8.89139 12.8423 8.46746 13.1548 8.1549C13.4674 7.84234 13.8913 7.66675 14.3333 7.66675H17.6667C18.1087 7.66675 18.5326 7.84234 18.8452 8.1549C19.1577 8.46746 19.3333 8.89139 19.3333 9.33341V11.0001" stroke="white" stroke-width="1.25" stroke-linecap="round" stroke-linejoin="round"/>
</svg>
