<svg width="32" height="32" viewBox="0 0 32 32" fill="none" xmlns="http://www.w3.org/2000/svg">
<g clip-path="url(#clip0_8695_38242)">
<path d="M5.33337 8.47095L8.54727 14.2432V17.7641L5.33713 23.5249L5.33337 8.47095Z" fill="#5B57A2"/>
<path d="M17.6735 12.1428L20.685 10.2881L26.8483 10.2823L17.6735 15.9299V12.1428Z" fill="#D90751"/>
<path d="M17.6564 8.43707L17.6734 16.0793L14.452 14.0904V2.66663L17.6566 8.43707H17.6564Z" fill="#FAB718"/>
<path d="M26.8482 10.2824L20.6847 10.2882L17.6564 8.43707L14.452 2.66663L26.848 10.2824H26.8482Z" fill="#ED6F26"/>
<path d="M17.6734 23.557V19.8492L14.452 17.8981L14.4538 29.3332L17.6734 23.557Z" fill="#63B22F"/>
<path d="M20.6774 21.7192L8.54704 14.2432L5.33337 8.47095L26.8352 21.7116L20.6772 21.7192H20.6774Z" fill="#1487C9"/>
<path d="M14.454 29.3333L17.6732 23.5571L20.6772 21.7193L26.8349 21.7118L14.454 29.3333Z" fill="#017F36"/>
<path d="M5.33716 23.5251L14.4783 17.8984L11.4051 16.0038L8.54729 17.7642L5.33716 23.5251Z" fill="#984995"/>
</g>
<defs>
<clipPath id="clip0_8695_38242">
<rect width="21.6667" height="26.6667" fill="white" transform="translate(5.33337 2.66663)"/>
</clipPath>
</defs>
</svg>
