<svg width="32" height="32" viewBox="0 0 32 32" fill="none" xmlns="http://www.w3.org/2000/svg">
<g clip-path="url(#clip0_8695_38242)">
<path d="M5.33325 8.47101L8.54714 14.2432V17.7641L5.33701 23.525L5.33325 8.47101Z" fill="#5B57A2"/>
<path d="M17.6733 12.1428L20.6849 10.2881L26.8481 10.2823L17.6733 15.9299V12.1428Z" fill="#D90751"/>
<path d="M17.6563 8.43713L17.6733 16.0794L14.4519 14.0905V2.66669L17.6565 8.43713H17.6563Z" fill="#FAB718"/>
<path d="M26.8481 10.2825L20.6846 10.2882L17.6563 8.43713L14.4519 2.66669L26.8479 10.2825H26.8481Z" fill="#ED6F26"/>
<path d="M17.6733 23.557V19.8492L14.4519 17.8981L14.4537 29.3332L17.6733 23.557Z" fill="#63B22F"/>
<path d="M20.6773 21.7192L8.54692 14.2432L5.33325 8.47101L26.835 21.7117L20.6771 21.7192H20.6773Z" fill="#1487C9"/>
<path d="M14.4539 29.3334L17.6731 23.5572L20.6771 21.7194L26.8348 21.7119L14.4539 29.3334Z" fill="#017F36"/>
<path d="M5.33691 23.5251L14.4781 17.8984L11.4049 16.0038L8.54704 17.7642L5.33691 23.5251Z" fill="#984995"/>
</g>
<defs>
<clipPath id="clip0_8695_38242">
<rect width="21.6667" height="26.6667" fill="white" transform="translate(5.33325 2.66669)"/>
</clipPath>
</defs>
</svg>
