<svg width="24" height="25" viewBox="0 0 24 25" fill="none" xmlns="http://www.w3.org/2000/svg">
<path d="M20.855 4.79529C20.855 6.73563 20.855 8.67285 20.855 10.632C20.855 10.8671 20.5541 10.9576 20.4187 10.7655V10.7655C19.238 9.08891 17.76 7.68894 15.7615 6.81205C14.6987 6.34569 13.6377 6.07324 12.5814 5.99208C10.9264 5.86489 9.28299 6.2074 7.66252 7.00953C5.75859 7.95195 4.35841 9.36558 3.24297 11.0276V11.0276C3.21483 11.0695 3.14905 11.0485 3.14905 10.998C3.14905 8.82506 3.14905 6.678 3.14905 4.52444C3.14905 4.13778 3.6598 3.36365 4.63889 3.36365C9.55656 3.36365 14.4724 3.36365 19.4077 3.36365C20.3017 3.36365 20.855 3.90535 20.855 4.79529Z" stroke="#999999" stroke-width="1.25"/>
<path d="M20.8503 14.6211C18.3258 12.2056 15.4481 10.6714 11.9931 10.7243C8.58182 10.7766 5.65849 12.1861 3.15015 14.6299" stroke="#999999" stroke-width="1.25"/>
<path d="M20.8505 17.8499C14.9412 15.4925 9.06429 15.4922 3.1521 17.8475" stroke="#999999" stroke-width="1.25"/>
<path d="M20.103 21.0697C14.6304 21.0697 9.18623 21.0697 3.71655 21.0697" stroke="#999999" stroke-width="1.25"/>
<circle cx="3.71704" cy="21.0698" r="0.5" fill="#999999" stroke="#999999" stroke-width="0.25"/>
<circle cx="20.103" cy="21.0698" r="0.5" fill="#999999" stroke="#999999" stroke-width="0.25"/>
<circle cx="3.1521" cy="17.85" r="0.5" fill="#999999" stroke="#999999" stroke-width="0.25"/>
<circle cx="20.8505" cy="17.8467" r="0.5" fill="#999999" stroke="#999999" stroke-width="0.25"/>
<circle cx="20.793" cy="14.567" r="0.5" fill="#999999" stroke="#999999" stroke-width="0.25"/>
<circle cx="3.1521" cy="14.63" r="0.5" fill="#999999" stroke="#999999" stroke-width="0.25"/>
</svg>
