<svg width="32" height="32" viewBox="0 0 32 32" fill="none" xmlns="http://www.w3.org/2000/svg">
<rect width="32" height="32" rx="16" fill="#1C1C1C"/>
<path d="M20.1666 8.50005C20.3855 8.28118 20.6453 8.10756 20.9313 7.98911C21.2173 7.87066 21.5238 7.80969 21.8333 7.80969C22.1428 7.80969 22.4493 7.87066 22.7353 7.98911C23.0213 8.10756 23.2811 8.28118 23.5 8.50005C23.7188 8.71892 23.8924 8.97875 24.0109 9.26472C24.1294 9.55069 24.1903 9.85719 24.1903 10.1667C24.1903 10.4762 24.1294 10.7827 24.0109 11.0687C23.8924 11.3547 23.7188 11.6145 23.5 11.8334L12.25 23.0834L7.66663 24.3334L8.91663 19.75L20.1666 8.50005Z" stroke="white" stroke-width="1.25" stroke-linecap="round" stroke-linejoin="round"/>
</svg>
