<svg width="16" height="16" viewBox="0 0 16 16" fill="none" xmlns="http://www.w3.org/2000/svg">
<path d="M7.99992 5.33325C9.10449 5.33325 9.99992 4.43782 9.99992 3.33325C9.99992 2.22868 9.10449 1.33325 7.99992 1.33325C6.89535 1.33325 5.99992 2.22868 5.99992 3.33325C5.99992 4.43782 6.89535 5.33325 7.99992 5.33325ZM7.99992 5.33325V14.6666M7.99992 14.6666C6.23181 14.6666 4.53612 13.9642 3.28587 12.714C2.03563 11.4637 1.33325 9.76803 1.33325 7.99992H3.33325M7.99992 14.6666C9.76803 14.6666 11.4637 13.9642 12.714 12.714C13.9642 11.4637 14.6666 9.76803 14.6666 7.99992H12.6666" stroke="#1C1C1C" stroke-width="1.25" stroke-linecap="round" stroke-linejoin="round"/>
</svg>
