<svg width="24" height="24" viewBox="0 0 24 24" fill="none" xmlns="http://www.w3.org/2000/svg">
<path d="M18.1667 12H14.5M19.5 10H14.5M19.5 14H14.5M3.00006 4.00006H21.0001C22.1046 4.00006 23.0001 4.89549 23.0001 6.00006V18.0001C23.0001 19.1046 22.1046 20.0001 21.0001 20.0001H3.00006C1.89549 20.0001 1.00006 19.1046 1.00006 18.0001V6.00006C1.00006 4.89549 1.89549 4.00006 3.00006 4.00006ZM11 16V15C11 14.4696 10.7893 13.9609 10.4142 13.5858C10.0391 13.2107 9.53043 13 9 13H5C4.46957 13 3.96086 13.2107 3.58579 13.5858C3.21071 13.9609 3 14.4696 3 15V16H11ZM9 9C9 10.1046 8.10457 11 7 11C5.89543 11 5 10.1046 5 9C5 7.89543 5.89543 7 7 7C8.10457 7 9 7.89543 9 9Z" stroke="#1C1C1C" stroke-width="1.25" stroke-linecap="round" stroke-linejoin="round"/>
</svg>
