<svg width="24" height="24" viewBox="0 0 24 24" fill="none" xmlns="http://www.w3.org/2000/svg">
<path d="M21.0001 4.00006H3.00006C1.89549 4.00006 1.00006 4.89549 1.00006 6.00006V18.0001C1.00006 19.1046 1.89549 20.0001 3.00006 20.0001H21.0001C22.1046 20.0001 23.0001 19.1046 23.0001 18.0001V6.00006C23.0001 4.89549 22.1046 4.00006 21.0001 4.00006Z" stroke="#1C1C1C" stroke-width="1.25" stroke-linecap="round" stroke-linejoin="round"/>
<path d="M12.0001 16.5V15.5C12.0001 14.9696 11.7893 14.4609 11.4143 14.0858C11.0392 13.7107 10.5305 13.5 10.0001 13.5H6.00006C5.46963 13.5 4.96092 13.7107 4.58585 14.0858C4.21077 14.4609 4.00006 14.9696 4.00006 15.5V16.5" stroke="#1C1C1C" stroke-width="1.25" stroke-linecap="round" stroke-linejoin="round"/>
<path d="M8.00006 11.5C9.10463 11.5 10.0001 10.6046 10.0001 9.5C10.0001 8.39543 9.10463 7.5 8.00006 7.5C6.89549 7.5 6.00006 8.39543 6.00006 9.5C6.00006 10.6046 6.89549 11.5 8.00006 11.5Z" stroke="#1C1C1C" stroke-width="1.25" stroke-linecap="round" stroke-linejoin="round"/>
<path d="M18.1667 12H14.5M19.5 10H14.5M19.5 14H14.5" stroke="#1C1C1C" stroke-width="1.25" stroke-linecap="round" stroke-linejoin="round"/>
</svg>
