<svg width="32" height="32" viewBox="0 0 32 32" fill="none" xmlns="http://www.w3.org/2000/svg">
<path d="M4.896 11.5584V9.33759C4.896 8.7486 5.12997 8.18373 5.54645 7.76725C5.96294 7.35077 6.52781 7.11679 7.1168 7.11679H24.8832C25.4722 7.11679 26.0371 7.35077 26.4536 7.76725C26.87 8.18373 27.104 8.7486 27.104 9.33759V22.6624C27.104 23.2514 26.87 23.8163 26.4536 24.2327C26.0371 24.6492 25.4722 24.8832 24.8832 24.8832H17.0137" stroke="#1C1C1C" stroke-width="1.25" stroke-linecap="round" stroke-linejoin="round"/>
<path d="M13.224 24.8832L9.06 22.1072L4.896 24.8832V16C4.896 15.7055 5.02134 15.4231 5.24446 15.2148C5.46757 15.0066 5.77018 14.8896 6.08571 14.8896H12.0343C12.3498 14.8896 12.6524 15.0066 12.8755 15.2148C13.0987 15.4231 13.224 15.7055 13.224 16V24.8832Z" stroke="#1C1C1C" stroke-width="1.25" stroke-linecap="round" stroke-linejoin="round"/>
</svg>
