<svg width="24" height="24" viewBox="0 0 24 24" fill="none" xmlns="http://www.w3.org/2000/svg">
<path d="M15.6729 5.95C15.0814 5.95 14.5079 6.02587 13.9618 6.16739C13.4157 6.02587 12.8422 5.95 12.2508 5.95C11.6594 5.95 11.0859 6.02587 10.5398 6.16739C9.99364 6.02587 9.42017 5.95 8.82873 5.95C5.17479 5.95 2.19951 8.83005 2.19951 12.3735C2.19951 15.917 5.17479 18.7971 8.82865 18.7971C9.42013 18.7971 9.9936 18.7212 10.5397 18.5797C11.0858 18.7212 11.6593 18.7971 12.2507 18.7971C12.8422 18.7971 13.4157 18.7212 13.9618 18.5797C14.5079 18.7212 15.0814 18.7971 15.6728 18.7971C19.3267 18.7971 22.302 15.917 22.302 12.3735C22.302 8.83005 19.3267 5.95 15.6729 5.95ZM8.82869 17.5617C5.87329 17.5617 3.47153 15.2328 3.47153 12.3735C3.47153 9.51431 5.87326 7.1854 8.82865 7.1854C11.7841 7.1854 14.1858 9.51431 14.1858 12.3735C14.1858 15.2328 11.7841 17.5617 8.82869 17.5617ZM17.6079 12.3735C17.6079 15.0644 15.4807 17.2851 12.7667 17.5374C14.3977 16.3666 15.4578 14.4882 15.4578 12.3735C15.4578 10.2589 14.3977 8.38052 12.7667 7.20965C15.4807 7.46194 17.6079 9.68268 17.6079 12.3735ZM21.03 12.3735C21.03 15.0644 18.9028 17.2851 16.1888 17.5374C17.8198 16.3666 18.8799 14.4882 18.8799 12.3735C18.8799 10.2589 17.8197 8.38052 16.1888 7.20965C18.9028 7.46198 21.03 9.68269 21.03 12.3735Z" fill="#999999" stroke="#999999" stroke-width="0.1"/>
</svg>
