<svg width="32" height="32" viewBox="0 0 32 32" fill="none" xmlns="http://www.w3.org/2000/svg">
<path d="M27.5 11C27.224 11 27 10.776 27 10.5V6.5C27 5.673 26.327 5 25.5 5H21.5C21.224 5 21 4.776 21 4.5C21 4.224 21.224 4 21.5 4H25.5C26.878 4 28 5.121 28 6.5V10.5C28 10.776 27.776 11 27.5 11Z" fill="#1C1C1C" stroke="#1C1C1C" stroke-width="0.25"/>
<path d="M25.5 28H21.5C21.224 28 21 27.776 21 27.5C21 27.224 21.224 27 21.5 27H25.5C26.327 27 27 26.327 27 25.5V21.5C27 21.224 27.224 21 27.5 21C27.776 21 28 21.224 28 21.5V25.5C28 26.879 26.878 28 25.5 28Z" fill="#1C1C1C" stroke="#1C1C1C" stroke-width="0.25"/>
<path d="M10.5 28H6.5C5.122 28 4 26.879 4 25.5V21.5C4 21.224 4.224 21 4.5 21C4.776 21 5 21.224 5 21.5V25.5C5 26.327 5.673 27 6.5 27H10.5C10.776 27 11 27.224 11 27.5C11 27.776 10.776 28 10.5 28Z" fill="#1C1C1C" stroke="#1C1C1C" stroke-width="0.25"/>
<path d="M4.5 11C4.224 11 4 10.776 4 10.5V6.5C4 5.121 5.122 4 6.5 4H10.5C10.776 4 11 4.224 11 4.5C11 4.776 10.776 5 10.5 5H6.5C5.673 5 5 5.673 5 6.5V10.5C5 10.776 4.776 11 4.5 11Z" fill="#1C1C1C" stroke="#1C1C1C" stroke-width="0.25"/>
<path d="M21.5 23H10.5C9.673 23 9 22.327 9 21.5V18.5C9 18.224 9.224 18 9.5 18C9.776 18 10 18.224 10 18.5V21.5C10 21.775 10.224 22 10.5 22H21.5C21.776 22 22 21.775 22 21.5V18.5C22 18.224 22.224 18 22.5 18C22.776 18 23 18.224 23 18.5V21.5C23 22.327 22.327 23 21.5 23Z" fill="#1C1C1C" stroke="#1C1C1C" stroke-width="0.25"/>
<path d="M22.5 15C22.224 15 22 14.776 22 14.5V10.5C22 10.225 21.776 9.99997 21.5 9.99997H10.5C10.224 9.99997 10 10.225 10 10.5V14.5C10 14.776 9.776 15 9.5 15C9.224 15 9 14.776 9 14.5V10.5C9 9.67297 9.673 8.99997 10.5 8.99997H21.5C22.327 8.99997 23 9.67297 23 10.5V14.5C23 14.776 22.776 15 22.5 15Z" fill="#1C1C1C" stroke="#1C1C1C" stroke-width="0.25"/>
<path d="M24.5 19H7.5C7.224 19 7 18.776 7 18.5C7 18.224 7.224 18 7.5 18H24.5C24.776 18 25 18.224 25 18.5C25 18.776 24.776 19 24.5 19Z" fill="#1C1C1C" stroke="#1C1C1C" stroke-width="0.25"/>
</svg>
