<svg width="16" height="16" viewBox="0 0 16 16" fill="none" xmlns="http://www.w3.org/2000/svg">
<path fill-rule="evenodd" clip-rule="evenodd" d="M13.3871 3.86504H11.1556C10.8276 2.47894 9.58996 1.5 8.16558 1.5C6.74121 1.5 5.50358 2.47894 5.17558 3.86504H2.94411C2.56111 3.86504 2.1938 4.01718 1.92297 4.28801C1.65215 4.55883 1.5 4.92615 1.5 5.30915V10.8091C1.5 11.6066 2.14655 12.2532 2.94411 12.2532H9.57705L11.9276 14.1467C12.0428 14.2401 12.2015 14.2589 12.3353 14.1948C12.4691 14.1308 12.5541 13.9954 12.5536 13.8471V12.2532H13.9785C14.4817 12.2532 14.835 11.6579 14.835 10.8091V5.30915C14.835 4.92548 14.6823 4.55758 14.4107 4.28665C14.139 4.01571 13.7707 3.86402 13.3871 3.86504ZM6.52732 2.96629C7.30472 2.18986 8.52215 2.07026 9.43579 2.68054C10.3494 3.29083 10.7051 4.46125 10.2856 5.47672C9.86607 6.49219 8.78798 7.07025 7.71001 6.85771C6.63204 6.64517 5.85404 5.70116 5.85135 4.60244C5.84985 3.98881 6.09315 3.39992 6.52732 2.96629ZM13.9131 11.485C14.0246 11.2778 14.0765 11.0438 14.0629 10.809L14.0475 5.30906C14.0475 4.93574 13.7449 4.63309 13.3716 4.63309H11.2285C11.2285 6.33004 9.85281 7.70568 8.15587 7.70568C6.45893 7.70568 5.08328 6.33004 5.08328 4.63309H2.94016C2.56683 4.63309 2.26419 4.93574 2.26419 5.30906V10.809C2.26419 11.1823 2.56683 11.485 2.94016 11.485H9.71136C9.79932 11.4846 9.88473 11.5144 9.95333 11.5695L11.7854 13.0443V11.869C11.7854 11.6569 11.9573 11.485 12.1694 11.485H13.9131Z" fill="#1C1C1C"/>
<circle cx="7.25831" cy="4.6334" r="0.454602" fill="#1C1C1C"/>
<ellipse cx="9.07667" cy="4.6334" rx="0.454603" ry="0.454602" fill="#1C1C1C"/>
</svg>
