<svg width="24" height="24" viewBox="0 0 24 24" fill="none" xmlns="http://www.w3.org/2000/svg">
<path d="M7.84884 1.50095L2.96512 1.5C2.47674 1.50095 1.5 1.98933 1.5 2.96607V7.84884" stroke="#1C1C1C" stroke-width="1.25" stroke-linecap="round"/>
<path d="M16.1512 1.50095L21.0349 1.5C21.5233 1.50095 22.5 1.98933 22.5 2.96607V7.84884" stroke="#1C1C1C" stroke-width="1.25" stroke-linecap="round"/>
<path d="M7.84884 22.499L2.96512 22.5C2.47674 22.499 1.5 22.0107 1.5 21.0339V16.1512" stroke="#1C1C1C" stroke-width="1.25" stroke-linecap="round"/>
<path d="M16.1512 22.499L21.0349 22.5C21.5233 22.499 22.5 22.0107 22.5 21.0339V16.1512" stroke="#1C1C1C" stroke-width="1.25" stroke-linecap="round"/>
<path d="M5.5 5.4082H9.89535V9.80355H5.5V5.4082Z" stroke="#1C1C1C" stroke-width="1.25" stroke-linecap="round" stroke-linejoin="round"/>
<path d="M14.1973 5.4082H18.5926V9.80355H14.1973V5.4082Z" stroke="#1C1C1C" stroke-width="1.25" stroke-linecap="round" stroke-linejoin="round"/>
<path d="M5.40625 14.1982H9.8016V18.5936H5.40625V14.1982Z" stroke="#1C1C1C" stroke-width="1.25" stroke-linecap="round" stroke-linejoin="round"/>
<path d="M15.5 18.5996H18.625" stroke="#1C1C1C" stroke-width="1.25" stroke-linecap="round" stroke-linejoin="round"/>
<path d="M16.9219 14.2002H18.5547" stroke="#1C1C1C" stroke-width="1.25" stroke-linecap="round" stroke-linejoin="round"/>
<path d="M14.1992 14.2002L14.1992 16.1537" stroke="#1C1C1C" stroke-width="1.25" stroke-linecap="round" stroke-linejoin="round"/>
</svg>
