<svg width="32" height="23" viewBox="0 0 32 23" fill="none" xmlns="http://www.w3.org/2000/svg">
<g clip-path="url(#clip0)">
<rect y="0.842163" width="32" height="22" rx="3" fill="white"/>
<path d="M16.0638 11.9943C16.3128 11.9943 16.5148 11.7923 16.5148 11.5432C16.5148 11.2942 16.3128 11.0922 16.0638 11.0922C15.8147 11.0922 15.6127 11.2942 15.6127 11.5432C15.6127 11.7923 15.8147 11.9943 16.0638 11.9943Z" fill="#3D3D45"/>
<path d="M21.6765 11.9943C21.9256 11.9943 22.1275 11.7923 22.1275 11.5432C22.1275 11.2942 21.9256 11.0922 21.6765 11.0922C21.4274 11.0922 21.2255 11.2942 21.2255 11.5432C21.2255 11.7923 21.4274 11.9943 21.6765 11.9943Z" fill="#3D3D45"/>
<path d="M10.451 11.9943C10.7001 11.9943 10.902 11.7923 10.902 11.5432C10.902 11.2942 10.7001 11.0922 10.451 11.0922C10.2019 11.0922 10 11.2942 10 11.5432C10 11.7923 10.2019 11.9943 10.451 11.9943Z" fill="#3D3D45"/>
<path d="M16.0638 11.9943C16.3128 11.9943 16.5148 11.7923 16.5148 11.5432C16.5148 11.2942 16.3128 11.0922 16.0638 11.0922C15.8147 11.0922 15.6127 11.2942 15.6127 11.5432C15.6127 11.7923 15.8147 11.9943 16.0638 11.9943Z" stroke="#3D3D45" stroke-width="1.25" stroke-linecap="round" stroke-linejoin="round"/>
<path d="M21.6765 11.9943C21.9256 11.9943 22.1275 11.7923 22.1275 11.5432C22.1275 11.2942 21.9256 11.0922 21.6765 11.0922C21.4274 11.0922 21.2255 11.2942 21.2255 11.5432C21.2255 11.7923 21.4274 11.9943 21.6765 11.9943Z" stroke="#3D3D45" stroke-width="1.25" stroke-linecap="round" stroke-linejoin="round"/>
<path d="M10.451 11.9943C10.7001 11.9943 10.902 11.7923 10.902 11.5432C10.902 11.2942 10.7001 11.0922 10.451 11.0922C10.2019 11.0922 10 11.2942 10 11.5432C10 11.7923 10.2019 11.9943 10.451 11.9943Z" stroke="#3D3D45" stroke-width="1.25" stroke-linecap="round" stroke-linejoin="round"/>
</g>
<defs>
<clipPath id="clip0">
<rect y="0.842163" width="32" height="22" rx="3" fill="white"/>
</clipPath>
</defs>
</svg>
