<svg width="24" height="24" viewBox="0 0 24 24" fill="none" xmlns="http://www.w3.org/2000/svg">
<g clip-path="url(#clip0_21_10912)">
<path d="M1.00006 0.999962L23.0001 23M16.7201 11.06C17.5392 11.4597 18.3051 11.9603 19.0001 12.55M5.00006 12.55C6.48214 11.3108 8.26593 10.4862 10.1701 10.16M10.7101 5.04996C12.8525 4.87733 15.0077 5.13813 17.0471 5.81678C19.0865 6.49544 20.9683 7.57804 22.5801 8.99996M1.42006 8.99996C2.80723 7.77381 4.39776 6.79919 6.12006 6.11996M8.53006 16.11C9.54526 15.3887 10.7597 15.0012 12.0051 15.0012C13.2504 15.0012 14.4649 15.3887 15.4801 16.11M12.0001 20H12.0101" stroke="#1C1C1C" stroke-width="1.25" stroke-linecap="round" stroke-linejoin="round"/>
</g>
<defs>
<clipPath id="clip0_21_10912">
<rect width="24" height="24" fill="white"/>
</clipPath>
</defs>
</svg>
