<svg width="32" height="32" viewBox="0 0 32 32" fill="none" xmlns="http://www.w3.org/2000/svg">
<rect width="32" height="32" rx="16" fill="#F6F6F7"/>
<path d="M26 11.3117V13.9981M26 13.9981L23.3131 13.9981M26 13.9981L21.3691 9.63806C19.9894 8.2578 18.1984 7.36325 16.266 7.0892C14.3336 6.81516 12.3644 7.17648 10.6553 8.1187C8.9461 9.06092 7.58954 10.533 6.78999 12.3131C5.99045 14.0932 5.79124 16.0849 6.22238 17.9881C6.65353 19.8913 7.69167 21.6028 9.18037 22.8647C10.6691 24.1267 12.5277 24.8707 14.4761 24.9846C16.4245 25.0986 18.3572 24.5763 19.9829 23.4966C21.6087 22.4168 22.8393 20.838 23.4895 18.9981" stroke="#FF3636" stroke-width="1.25" stroke-linecap="round" stroke-linejoin="round"/>
<path d="M21.2364 16C21.2364 19.3552 18.516 22.075 15.1602 22.075M21.2364 16C21.2364 12.6449 18.516 9.92505 15.1602 9.92505M21.2364 16H9.08398M15.1602 22.075C11.8044 22.075 9.08398 19.3552 9.08398 16M15.1602 22.075C16.68 20.4115 17.5438 18.2526 17.5907 16C17.5438 13.7475 16.68 11.5886 15.1602 9.92505M15.1602 22.075C13.6404 20.4115 12.7767 18.2526 12.7297 16C12.7767 13.7475 13.6404 11.5886 15.1602 9.92505M9.08398 16C9.08398 12.6449 11.8044 9.92505 15.1602 9.92505" stroke="#1C1C1C" stroke-width="1.25" stroke-linecap="round" stroke-linejoin="round"/>
</svg>
