<svg width="24" height="24" viewBox="0 0 24 24" fill="none" xmlns="http://www.w3.org/2000/svg">
<path d="M10.9999 3.99998H3.99994C3.46951 3.99998 2.9608 4.2107 2.58573 4.58577C2.21065 4.96084 1.99994 5.46955 1.99994 5.99998V20C1.99994 20.5304 2.21065 21.0391 2.58573 21.4142C2.9608 21.7893 3.46951 22 3.99994 22H17.9999C18.5304 22 19.0391 21.7893 19.4142 21.4142C19.7892 21.0391 19.9999 20.5304 19.9999 20V13M18.4999 2.49998C18.8978 2.10216 19.4373 1.87866 19.9999 1.87866C20.5625 1.87866 21.1021 2.10216 21.4999 2.49998C21.8978 2.89781 22.1213 3.43737 22.1213 3.99998C22.1213 4.56259 21.8978 5.10216 21.4999 5.49998L11.9999 15L7.99994 16L8.99994 12L18.4999 2.49998Z" stroke="#1C1C1C" stroke-width="1.25" stroke-linecap="round" stroke-linejoin="round"/>
</svg>
