<svg width="24" height="24" viewBox="0 0 24 24" fill="none" xmlns="http://www.w3.org/2000/svg">
<path d="M13.509 14.5H10.9966H4.03924C3.18537 14.5 2.49316 13.8126 2.49316 12.9647V3.75262C2.49316 2.90468 3.18537 2.21729 4.03924 2.21729H17.9539C18.8078 2.21729 19.5 2.90468 19.5 3.75262V8.35864V11.6265" stroke="#1C1C1C" stroke-width="1.25" stroke-linecap="round" stroke-linejoin="round"/>
<path d="M22.5 13.5823C22.5 14.7324 20.4853 15.6648 18 15.6648C15.5147 15.6648 13.5 14.7324 13.5 13.5823M22.5 13.5823C22.5 12.4321 20.4853 11.4998 18 11.4998C15.5147 11.4998 13.5 12.4321 13.5 13.5823M22.5 13.5823V16.9998M13.5 13.5823V16.9998M22.5 16.9998C22.5 18.1521 20.5 19.0823 18 19.0823C15.5 19.0823 13.5 18.1521 13.5 16.9998M22.5 16.9998V20.4172C22.5 21.5696 20.5 22.4998 18 22.4998C15.5 22.4998 13.5 21.5696 13.5 20.4172V16.9998" stroke="#1C1C1C" stroke-width="1.25" stroke-linecap="round" stroke-linejoin="round"/>
<path d="M10.245 21.6023L10.9281 19.5348M10.9281 19.5348L8.80784 18.8343M10.9281 19.5348L8.79208 20.4955C8.28988 20.7406 7.7306 20.856 7.16642 20.8311C6.60225 20.8062 6.05157 20.6417 5.56577 20.3529C5.07997 20.0642 4.67488 19.6607 4.38831 19.18C4.10173 18.6993 3.94301 18.1571 3.92695 17.604" stroke="#1C1C1C" stroke-width="1.25" stroke-linecap="round" stroke-linejoin="round"/>
<path d="M5.56339 17.7962L3.79456 16.5263L2.49232 18.3402" stroke="#1C1C1C" stroke-width="1.25" stroke-linecap="round" stroke-linejoin="round"/>
</svg>
