<svg width="24" height="24" viewBox="0 0 24 24" fill="none" xmlns="http://www.w3.org/2000/svg">
<path d="M15.4339 17C12.1176 21.5 17.0992 21.9895 16 23H15.5C12.7 22.6 11 19.8333 10.5 18.5M10.8592 7.1703C9.50457 6.06165 6.81067 6.17073 5.78009 6.44903L5.61746 6.5087C5.34238 6.60962 4.71304 6.96084 4.43195 7.17026C3.93026 7.54411 3.57919 7.91192 3.27175 8.38577C2.59137 9.4344 2.41546 10.7553 2.78707 12.0246C3.1616 13.3037 4.09286 14.6209 5.27058 15.5372C6.01169 16.1138 6.9806 16.5942 7.72904 16.7562C8.29509 16.8787 8.93383 16.8959 9.38066 16.8007L9.5704 16.7602C9.91002 16.6785 10.6859 16.3869 11.0723 15.8751C11.6955 15.2169 12.0935 14.2707 12.2239 13.1764M9.21951 17.4521C9.12183 17.8518 8.87576 18.3451 9.12948 18.4782C9.30064 18.5681 9.34502 18.5593 10.2957 18.247C11.3846 17.8894 11.422 17.8625 11.422 17.4384L10.855 16.9149M14.461 15.7886C14.2521 16.1432 13.8742 16.5445 14.0787 16.7452C14.2167 16.8806 14.2617 16.885 15.2621 16.8602C16.4078 16.8319 16.4515 16.817 16.5738 16.4109L16.1818 15.746M16.3222 2.01074C16.1359 2.02247 15.7493 2.07689 15.5262 2.12281C14.7378 2.28506 13.9775 2.63204 13.312 3.13324C13.0709 3.3148 12.608 3.7572 12.3998 4.00495C11.646 4.90206 11.1485 6.00547 10.9462 7.22858C10.8724 7.67504 10.8592 7.8572 10.8591 8.42627C10.859 9.03056 10.875 9.23469 10.9633 9.75496C11.2583 11.4944 12.1828 13.235 13.4432 14.4241C13.6401 14.6098 13.7283 14.675 14.0862 14.8999C14.3144 15.0433 14.511 15.1696 14.5231 15.1806L14.9659 15.3011C14.9659 15.2922 15.0256 15.2849 15.0985 15.2849C15.4326 15.2849 16.0926 15.1905 16.5442 15.0781C18.7588 14.5268 20.9038 12.7906 21.9741 10.683C22.5501 9.54864 22.744 8.35175 22.5523 7.11253C22.2169 4.94299 20.6331 2.93466 18.7857 2.3363C17.9971 2.08086 17.0973 1.96197 16.3222 2.01074Z" stroke="#1C1C1C" stroke-width="1.25" stroke-linecap="round" stroke-linejoin="round"/>
</svg>
