<svg width="24" height="24" viewBox="0 0 24 24" fill="none" xmlns="http://www.w3.org/2000/svg">
<path d="M3 6.00012L6 2.00012H18L21 6.00012M3 6.00012V20.0001C3 20.5306 3.21071 21.0393 3.58579 21.4143C3.96086 21.7894 4.46957 22.0001 5 22.0001H19C19.5304 22.0001 20.0391 21.7894 20.4142 21.4143C20.7893 21.0393 21 20.5306 21 20.0001V6.00012M3 6.00012H21M16.0001 10.0001C16.0001 11.061 15.5786 12.0784 14.8285 12.8285C14.0783 13.5787 13.0609 14.0001 12.0001 14.0001C10.9392 14.0001 9.92178 13.5787 9.17163 12.8285C8.42149 12.0784 8.00006 11.061 8.00006 10.0001" stroke="#1C1C1C" stroke-width="1.25" stroke-linecap="round" stroke-linejoin="round"/>
</svg>
