<svg width="24" height="24" viewBox="0 0 24 24" fill="none" xmlns="http://www.w3.org/2000/svg">
<g clip-path="url(#clip0_4821_9751)">
<path d="M16.2426 0.68636L18.3639 2.80768M18.3639 2.80768L16.2426 4.929M18.3639 2.80768L12 3.00567C10.4797 3.00529 8.98403 3.39004 7.65264 4.12402C6.32125 4.858 5.19749 5.91728 4.38622 7.20304C3.57495 8.48879 3.1026 9.9591 3.01326 11.4768C2.92392 12.9945 3.22049 14.51 3.8753 15.8821M7.75732 23.3138L5.636 21.1925M5.636 21.1925L7.75732 19.0711M5.636 21.1925L12 20.9945C13.5203 20.9948 15.0159 20.6101 16.3473 19.8761C17.6787 19.1421 18.8024 18.0829 19.6137 16.7971C20.425 15.5113 20.8973 14.041 20.9867 12.5234C21.076 11.0057 20.7794 9.49011 20.1246 8.11805" stroke="#1C1C1C" stroke-width="1.25" stroke-linecap="round" stroke-linejoin="round"/>
<path d="M12.3819 16.4622C14.0473 16.3311 15 15.3075 15 13.9372C15 12.3765 13.4534 11.8092 12.4298 11.5385L12.0255 11.3653M11.6654 7.57167C10.252 7.72393 8.9929 8.30769 9.21657 10.0375C9.42252 11.0769 10.5502 11.6998 12.0079 11.5385M11.6418 16.4622C10.2698 16.3525 9.35112 15.6355 9.07935 14.5M12.0002 18L12.0255 11.3653M12.0002 6L12.0255 11.3653M12.4056 7.56321C13.693 7.67505 14.6164 8.43745 14.8389 9.5" stroke="black" stroke-width="1.25" stroke-linecap="square" stroke-linejoin="round"/>
</g>
<defs>
<clipPath id="clip0_4821_9751">
<rect width="24" height="24" fill="white"/>
</clipPath>
</defs>
</svg>
