<svg width="16" height="16" viewBox="0 0 16 16" fill="none" xmlns="http://www.w3.org/2000/svg">
<path d="M5.89897 5.06323H8.48483M5.89897 6.41955H10.101M5.89897 7.77583H9.45453M10.7601 12.3458C9.50942 13.7009 8.28749 14.5577 8.22998 14.5888C8.15811 14.6355 8.07185 14.6667 7.99997 14.6667C7.9281 14.6667 7.84184 14.6355 7.76997 14.5888C7.71246 14.5577 6.49054 13.7009 5.23985 12.3458C3.52917 10.4766 2.66663 8.63864 2.66663 6.87851C2.66663 3.82554 5.05297 1.33333 7.99997 1.33333C10.947 1.33333 13.3334 3.82554 13.3333 6.87851C13.3333 8.63864 12.4708 10.4766 10.7601 12.3458Z" stroke="#1C1C1C" stroke-width="1.25" stroke-linecap="round"/>
</svg>
