<svg width="32" height="32" viewBox="0 0 32 32" fill="none" xmlns="http://www.w3.org/2000/svg">
<rect x="5.33301" y="5.33301" width="21.3333" height="21.3333" fill="#FF3636"/>
<path d="M24.5556 5H7.44444C6.09442 5 5 6.09442 5 7.44444V24.5556C5 25.9056 6.09442 27 7.44444 27H24.5556C25.9056 27 27 25.9056 27 24.5556V7.44444C27 6.09442 25.9056 5 24.5556 5Z" stroke="#FF3636" stroke-width="1.25" stroke-linecap="round" stroke-linejoin="round"/>
<path d="M4.00033 21.333L6.66699 21.333" stroke="white" stroke-width="1.25" stroke-linecap="round" stroke-linejoin="round"/>
<path d="M4.00033 10.667L6.66699 10.667" stroke="white" stroke-width="1.25" stroke-linecap="round" stroke-linejoin="round"/>
<path d="M16 21C18.7614 21 21 18.7614 21 16C21 13.2386 18.7614 11 16 11C13.2386 11 11 13.2386 11 16C11 18.7614 13.2386 21 16 21Z" stroke="white" stroke-width="1.25" stroke-linecap="round" stroke-linejoin="round"/>
</svg>
