<svg width="24" height="24" viewBox="0 0 24 24" fill="none" xmlns="http://www.w3.org/2000/svg">
<mask id="path-1-outside-1_21_10974" maskUnits="userSpaceOnUse" x="1.24957" y="5" width="22" height="14" fill="black">
<rect fill="white" x="1.24957" y="5" width="22" height="14"/>
<path d="M15.6729 6C15.0812 6 14.5077 6.07649 13.9619 6.21906C13.416 6.07649 12.8425 6 12.2509 6C11.6592 6 11.0856 6.07649 10.5398 6.21906C9.99398 6.07649 9.42047 6 8.82879 6C5.20096 6 2.24957 8.85915 2.24957 12.3735C2.24957 15.8879 5.20096 18.7471 8.82872 18.7471C9.42043 18.7471 9.99394 18.6706 10.5397 18.528C11.0856 18.6706 11.6591 18.7471 12.2508 18.7471C12.8425 18.7471 13.416 18.6706 13.9618 18.528C14.5077 18.6706 15.0812 18.7471 15.6729 18.7471C19.3007 18.7471 22.2521 15.8879 22.2521 12.3735C22.2521 8.85915 19.3007 6 15.6729 6ZM8.82875 17.6117C5.84725 17.6117 3.42159 15.2619 3.42159 12.3735C3.42159 9.48521 5.84721 7.1354 8.82872 7.1354C11.8102 7.1354 14.2359 9.48521 14.2359 12.3735C14.2359 15.2619 11.8103 17.6117 8.82875 17.6117ZM12.5878 17.6012C14.2913 16.4482 15.4079 14.535 15.4079 12.3735C15.4079 10.2121 14.2913 8.29887 12.5878 7.14584C15.4129 7.31498 17.658 9.59485 17.658 12.3735C17.658 15.1522 15.4129 17.4321 12.5878 17.6012ZM16.0099 17.6012C17.7134 16.4482 18.83 14.535 18.83 12.3735C18.83 10.2121 17.7133 8.29887 16.0099 7.14584C18.835 7.31502 21.0801 9.59485 21.0801 12.3735C21.0801 15.1522 18.835 17.4321 16.0099 17.6012Z"/>
</mask>
<path d="M15.6729 6C15.0812 6 14.5077 6.07649 13.9619 6.21906C13.416 6.07649 12.8425 6 12.2509 6C11.6592 6 11.0856 6.07649 10.5398 6.21906C9.99398 6.07649 9.42047 6 8.82879 6C5.20096 6 2.24957 8.85915 2.24957 12.3735C2.24957 15.8879 5.20096 18.7471 8.82872 18.7471C9.42043 18.7471 9.99394 18.6706 10.5397 18.528C11.0856 18.6706 11.6591 18.7471 12.2508 18.7471C12.8425 18.7471 13.416 18.6706 13.9618 18.528C14.5077 18.6706 15.0812 18.7471 15.6729 18.7471C19.3007 18.7471 22.2521 15.8879 22.2521 12.3735C22.2521 8.85915 19.3007 6 15.6729 6ZM8.82875 17.6117C5.84725 17.6117 3.42159 15.2619 3.42159 12.3735C3.42159 9.48521 5.84721 7.1354 8.82872 7.1354C11.8102 7.1354 14.2359 9.48521 14.2359 12.3735C14.2359 15.2619 11.8103 17.6117 8.82875 17.6117ZM12.5878 17.6012C14.2913 16.4482 15.4079 14.535 15.4079 12.3735C15.4079 10.2121 14.2913 8.29887 12.5878 7.14584C15.4129 7.31498 17.658 9.59485 17.658 12.3735C17.658 15.1522 15.4129 17.4321 12.5878 17.6012ZM16.0099 17.6012C17.7134 16.4482 18.83 14.535 18.83 12.3735C18.83 10.2121 17.7133 8.29887 16.0099 7.14584C18.835 7.31502 21.0801 9.59485 21.0801 12.3735C21.0801 15.1522 18.835 17.4321 16.0099 17.6012Z" fill="#1C1C1C"/>
<path d="M15.6729 6C15.0812 6 14.5077 6.07649 13.9619 6.21906C13.416 6.07649 12.8425 6 12.2509 6C11.6592 6 11.0856 6.07649 10.5398 6.21906C9.99398 6.07649 9.42047 6 8.82879 6C5.20096 6 2.24957 8.85915 2.24957 12.3735C2.24957 15.8879 5.20096 18.7471 8.82872 18.7471C9.42043 18.7471 9.99394 18.6706 10.5397 18.528C11.0856 18.6706 11.6591 18.7471 12.2508 18.7471C12.8425 18.7471 13.416 18.6706 13.9618 18.528C14.5077 18.6706 15.0812 18.7471 15.6729 18.7471C19.3007 18.7471 22.2521 15.8879 22.2521 12.3735C22.2521 8.85915 19.3007 6 15.6729 6ZM8.82875 17.6117C5.84725 17.6117 3.42159 15.2619 3.42159 12.3735C3.42159 9.48521 5.84721 7.1354 8.82872 7.1354C11.8102 7.1354 14.2359 9.48521 14.2359 12.3735C14.2359 15.2619 11.8103 17.6117 8.82875 17.6117ZM12.5878 17.6012C14.2913 16.4482 15.4079 14.535 15.4079 12.3735C15.4079 10.2121 14.2913 8.29887 12.5878 7.14584C15.4129 7.31498 17.658 9.59485 17.658 12.3735C17.658 15.1522 15.4129 17.4321 12.5878 17.6012ZM16.0099 17.6012C17.7134 16.4482 18.83 14.535 18.83 12.3735C18.83 10.2121 17.7133 8.29887 16.0099 7.14584C18.835 7.31502 21.0801 9.59485 21.0801 12.3735C21.0801 15.1522 18.835 17.4321 16.0099 17.6012Z" stroke="#1C1C1C" stroke-width="0.5" mask="url(#path-1-outside-1_21_10974)"/>
</svg>
