<svg width="24" height="24" viewBox="0 0 24 24" fill="none" xmlns="http://www.w3.org/2000/svg">
<path d="M13.7911 18.1025C14.3558 18.2636 14.9521 18.35 15.5684 18.35C19.1148 18.35 22 15.4902 22 11.975C22 8.45981 19.1147 5.60001 15.5684 5.60001C14.9521 5.60001 14.3558 5.68637 13.7911 5.84753" stroke="black" stroke-width="1.25"/>
<path d="M10.2227 18.1025C10.7874 18.2636 11.3837 18.35 12 18.35C15.5464 18.35 18.4316 15.4902 18.4316 11.975C18.4316 8.45981 15.5464 5.60001 12 5.60001C11.3837 5.60001 10.7874 5.68637 10.2227 5.84753" stroke="black" stroke-width="1.25"/>
<path d="M8.43162 18.35C4.88523 18.35 2 15.4902 2 11.975C2 8.45981 4.88518 5.60001 8.43157 5.60001C11.978 5.60001 14.8632 8.45981 14.8632 11.975C14.8632 15.4902 11.978 18.35 8.43162 18.35Z" stroke="black" stroke-width="1.25"/>
</svg>
