<svg width="24" height="24" viewBox="0 0 24 24" fill="none" xmlns="http://www.w3.org/2000/svg">
<path d="M11.9999 1.99988H8.49994C7.57168 1.99988 6.68144 2.36863 6.02507 3.025C5.36869 3.68138 4.99994 4.57162 4.99994 5.49988C4.99994 6.42814 5.36869 7.31837 6.02507 7.97475C6.68144 8.63113 7.57168 8.99988 8.49994 8.99988M11.9999 1.99988V8.99988M11.9999 1.99988H15.4999C15.9596 1.99988 16.4147 2.09041 16.8393 2.2663C17.264 2.44219 17.6498 2.7 17.9748 3.025C18.2998 3.35001 18.5576 3.73585 18.7335 4.16049C18.9094 4.58513 18.9999 5.04025 18.9999 5.49988C18.9999 5.9595 18.9094 6.41463 18.7335 6.83927C18.5576 7.26391 18.2998 7.64975 17.9748 7.97475C17.6498 8.29976 17.264 8.55757 16.8393 8.73346C16.4147 8.90935 15.9596 8.99988 15.4999 8.99988M11.9999 8.99988H8.49994M11.9999 8.99988H15.4999M11.9999 8.99988V15.9999M8.49994 8.99988C7.57168 8.99988 6.68144 9.36863 6.02507 10.025C5.36869 10.6814 4.99994 11.5716 4.99994 12.4999C4.99994 13.4281 5.36869 14.3184 6.02507 14.9748C6.68144 15.6311 7.57168 15.9999 8.49994 15.9999M15.4999 8.99988C15.0403 8.99988 14.5852 9.09041 14.1605 9.2663C13.7359 9.44219 13.3501 9.7 13.0251 10.025C12.7001 10.35 12.4423 10.7358 12.2664 11.1605C12.0905 11.5851 11.9999 12.0403 11.9999 12.4999C11.9999 12.9595 12.0905 13.4146 12.2664 13.8393C12.4423 14.2639 12.7001 14.6497 13.0251 14.9748C13.3501 15.2998 13.7359 15.5576 14.1605 15.7335C14.5852 15.9093 15.0403 15.9999 15.4999 15.9999C15.9596 15.9999 16.4147 15.9093 16.8393 15.7335C17.264 15.5576 17.6498 15.2998 17.9748 14.9748C18.2998 14.6497 18.5576 14.2639 18.7335 13.8393C18.9094 13.4146 18.9999 12.9595 18.9999 12.4999C18.9999 12.0403 18.9094 11.5851 18.7335 11.1605C18.5576 10.7358 18.2998 10.35 17.9748 10.025C17.6498 9.7 17.264 9.44219 16.8393 9.2663C16.4147 9.09041 15.9596 8.99988 15.4999 8.99988ZM8.49994 15.9999C7.57168 15.9999 6.68144 16.3686 6.02507 17.025C5.36869 17.6814 4.99994 18.5716 4.99994 19.4999C4.99994 20.4281 5.36869 21.3184 6.02507 21.9748C6.68144 22.6311 7.57168 22.9999 8.49994 22.9999C9.4282 22.9999 10.3184 22.6311 10.9748 21.9748C11.6312 21.3184 11.9999 20.4281 11.9999 19.4999V15.9999M8.49994 15.9999H11.9999" stroke="#1C1C1C" stroke-width="1.25" stroke-linecap="round" stroke-linejoin="round"/>
</svg>
