<svg width="64" height="64" viewBox="0 0 64 64" fill="none" xmlns="http://www.w3.org/2000/svg">
<path fill-rule="evenodd" clip-rule="evenodd" d="M32 64C49.6731 64 64 49.6731 64 32C64 14.3269 49.6731 0 32 0C14.3269 0 0 14.3269 0 32C0 49.6731 14.3269 64 32 64ZM27.0404 18.6794C28.3558 17.364 30.1398 16.625 32 16.625C33.8602 16.625 35.6442 17.364 36.9596 18.6794C38.2749 19.9947 39.0139 21.7787 39.0139 23.6389V29.1251H24.9861V23.6389C24.9861 21.7787 25.7251 19.9947 27.0404 18.6794ZM40.2639 23.6389V29.1251H42.6944C44.7272 29.1251 46.375 30.7729 46.375 32.8056V43.5001C46.375 45.5328 44.7272 47.1806 42.6944 47.1806H21.3056C19.2728 47.1806 17.625 45.5328 17.625 43.5001V32.8056C17.625 30.7729 19.2728 29.1251 21.3056 29.1251H23.7361V23.6389C23.7361 21.4472 24.6068 19.3453 26.1566 17.7955C27.7063 16.2457 29.8083 15.375 32 15.375C34.1917 15.375 36.2937 16.2457 37.8435 17.7955C39.3932 19.3453 40.2639 21.4472 40.2639 23.6389ZM21.3056 30.3751H24.3611H39.6389H42.6944C44.0368 30.3751 45.125 31.4632 45.125 32.8056V43.5001C45.125 44.8424 44.0368 45.9306 42.6944 45.9306H21.3056C19.9632 45.9306 18.875 44.8424 18.875 43.5001V32.8056C18.875 31.4632 19.9632 30.3751 21.3056 30.3751Z" fill="white"/>
</svg>
