<svg width="24" height="24" viewBox="0 0 24 24" fill="none" xmlns="http://www.w3.org/2000/svg">
<path d="M14.7 6.30005C14.5168 6.48698 14.4142 6.7383 14.4142 7.00005C14.4142 7.2618 14.5168 7.51312 14.7 7.70005L16.3 9.30005C16.487 9.48328 16.7383 9.58591 17 9.58591C17.2618 9.58591 17.5131 9.48328 17.7 9.30005L21.47 5.53005C21.9729 6.64124 22.1251 7.87928 21.9065 9.07919C21.6879 10.2791 21.1088 11.3839 20.2463 12.2463C19.3839 13.1088 18.2791 13.6879 17.0792 13.9065C15.8793 14.1251 14.6412 13.9729 13.53 13.47L6.62004 20.38C6.22221 20.7779 5.68265 21.0014 5.12004 21.0014C4.55743 21.0014 4.01786 20.7779 3.62004 20.38C3.22221 19.9822 2.99872 19.4427 2.99872 18.88C2.99872 18.3174 3.22221 17.7779 3.62004 17.38L10.53 10.47C10.0272 9.35886 9.87495 8.12081 10.0936 6.9209C10.3122 5.72099 10.8913 4.6162 11.7538 3.75377C12.6162 2.89134 13.721 2.31222 14.9209 2.09359C16.1208 1.87496 17.3588 2.02721 18.47 2.53005L14.71 6.29005L14.7 6.30005Z" stroke="#1C1C1C" stroke-width="1.25" stroke-linecap="round" stroke-linejoin="round"/>
</svg>
