<svg width="24" height="24" viewBox="0 0 24 24" fill="none" xmlns="http://www.w3.org/2000/svg">
<path d="M17.5001 8.00004V11M17.5001 11H14.5001M17.5001 11L15.1801 8.82004C14.6427 8.28239 13.9779 7.88964 13.2477 7.67842C12.5175 7.46721 11.7457 7.44441 11.0043 7.61217C10.2629 7.77992 9.57602 8.13275 9.00786 8.63775C8.43969 9.14274 8.00871 9.78343 7.75512 10.5M6.50012 16V13M6.50012 13H9.50012M6.50012 13L8.82012 15.18C9.3575 15.7177 10.0223 16.1104 10.7525 16.3217C11.4827 16.5329 12.2546 16.5557 12.996 16.3879C13.7374 16.2202 14.4242 15.8673 14.9924 15.3623C15.5606 14.8573 15.9915 14.2166 16.2451 13.5M12 22C6.47715 22 2 17.5228 2 12C2 6.47715 6.47715 2 12 2C17.5228 2 22 6.47715 22 12C22 17.5228 17.5228 22 12 22Z" stroke="#1C1C1C" stroke-width="1.25" stroke-linecap="round" stroke-linejoin="round"/>
</svg>
