<svg width="24" height="24" viewBox="0 0 24 24" fill="none" xmlns="http://www.w3.org/2000/svg">
<path d="M9.99995 13.0001C10.4294 13.5742 10.9773 14.0493 11.6065 14.393C12.2357 14.7368 12.9315 14.9412 13.6466 14.9924C14.3617 15.0436 15.0795 14.9405 15.7513 14.6899C16.4231 14.4393 17.0331 14.0472 17.54 13.5401L20.54 10.5401C21.4507 9.59708 21.9547 8.33407 21.9433 7.02308C21.9319 5.7121 21.4061 4.45804 20.479 3.53099C19.552 2.60395 18.2979 2.07811 16.987 2.06672C15.676 2.05533 14.413 2.5593 13.47 3.47009L11.75 5.18009M14 11.0001C13.5705 10.426 13.0226 9.9509 12.3934 9.60715C11.7642 9.26339 11.0684 9.05897 10.3533 9.00775C9.63816 8.95654 8.92037 9.05972 8.24861 9.31031C7.57685 9.56089 6.96684 9.95302 6.45996 10.4601L3.45996 13.4601C2.54917 14.4031 2.04519 15.6661 2.05659 16.9771C2.06798 18.2881 2.59382 19.5421 3.52086 20.4692C4.4479 21.3962 5.70197 21.9221 7.01295 21.9335C8.32393 21.9449 9.58694 21.4409 10.53 20.5301L12.24 18.8201" stroke="#1C1C1C" stroke-width="1.25" stroke-linecap="round" stroke-linejoin="round"/>
</svg>
