<svg width="48" height="48" viewBox="0 0 48 48" fill="none" xmlns="http://www.w3.org/2000/svg">
<path d="M39.3159 16.8438H22.2642C21.3341 16.8438 20.5801 17.5922 20.5801 18.5154V29.1721C20.5801 30.0953 21.3341 30.8437 22.2642 30.8437H39.3159C40.246 30.8437 41 30.0953 41 29.1721V18.5154C41 17.5922 40.246 16.8438 39.3159 16.8438Z" stroke="#FF3636" stroke-width="1.25" stroke-linecap="round" stroke-linejoin="round"/>
<path d="M30.79 12.5V9.68525V8C30.79 5.79086 29.2684 4 27.3914 4H10.3986C8.52159 4 7 5.79086 7 8V40C7 42.2091 8.52159 44 10.3986 44H27.3914C29.2684 44 30.79 42.2091 30.79 40V37.1024V34.5" stroke="white" stroke-width="1.25" stroke-linecap="round" stroke-linejoin="round"/>
<path d="M20.7224 38.7075H17.0675" stroke="#F6F6F7" stroke-width="1.25" stroke-linecap="round" stroke-linejoin="round"/>
<path d="M37.2879 28.2529H24.293" stroke="#F6F6F7" stroke-width="1.25" stroke-linecap="round" stroke-linejoin="round"/>
</svg>
