<svg width="24" height="24" viewBox="0 0 24 24" fill="none" xmlns="http://www.w3.org/2000/svg">
<path d="M21.9999 11.9999C21.9999 17.5228 17.5228 21.9999 11.9999 21.9999M21.9999 11.9999C21.9999 6.47709 17.5228 1.99994 11.9999 1.99994M21.9999 11.9999H1.99994M11.9999 21.9999C6.47709 21.9999 1.99994 17.5228 1.99994 11.9999M11.9999 21.9999C14.5012 19.2616 15.9227 15.7079 15.9999 11.9999C15.9227 8.29197 14.5012 4.73829 11.9999 1.99994M11.9999 21.9999C9.49866 19.2616 8.07719 15.7079 7.99994 11.9999C8.07719 8.29197 9.49866 4.73829 11.9999 1.99994M1.99994 11.9999C1.99994 6.47709 6.47709 1.99994 11.9999 1.99994" stroke="#1C1C1C" stroke-width="1.25" stroke-linecap="round" stroke-linejoin="round"/>
</svg>
