<svg width="24" height="24" viewBox="0 0 24 24" fill="none" xmlns="http://www.w3.org/2000/svg">
<path d="M5.99988 6.00003H6.00988M5.99988 18H6.00988M3.99988 2.00003H19.9999C21.1044 2.00003 21.9999 2.89546 21.9999 4.00003V8.00003C21.9999 9.1046 21.1044 10 19.9999 10H3.99988C2.89531 10 1.99988 9.1046 1.99988 8.00003V4.00003C1.99988 2.89546 2.89531 2.00003 3.99988 2.00003ZM3.99988 14H19.9999C21.1044 14 21.9999 14.8955 21.9999 16V20C21.9999 21.1046 21.1044 22 19.9999 22H3.99988C2.89531 22 1.99988 21.1046 1.99988 20V16C1.99988 14.8955 2.89531 14 3.99988 14Z" stroke="#1C1C1C" stroke-width="1.25" stroke-linecap="round" stroke-linejoin="round"/>
</svg>
