<svg width="24" height="24" viewBox="0 0 24 24" fill="none" xmlns="http://www.w3.org/2000/svg">
<path d="M21.21 15.89C20.5739 17.3945 19.5788 18.7202 18.3119 19.7513C17.045 20.7824 15.5448 21.4875 13.9425 21.8048C12.3401 22.1222 10.6845 22.0422 9.12018 21.5718C7.55591 21.1015 6.13066 20.2551 4.96906 19.1067C3.80745 17.9583 2.94485 16.5428 2.45667 14.984C1.96849 13.4252 1.8696 11.7705 2.16863 10.1647C2.46767 8.55881 3.15553 7.05066 4.17208 5.77206C5.18863 4.49346 6.50292 3.48335 8.00004 2.83003M22 12C22 10.6868 21.7414 9.38645 21.2388 8.1732C20.7363 6.95994 19.9997 5.85755 19.0711 4.92896C18.1425 4.00038 17.0401 3.26378 15.8269 2.76124C14.6136 2.25869 13.3133 2.00003 12 2.00003V12H22Z" stroke="#1C1C1C" stroke-width="1.25" stroke-linecap="round" stroke-linejoin="round"/>
</svg>
