<svg width="16" height="16" viewBox="0 0 16 16" fill="none" xmlns="http://www.w3.org/2000/svg">
<path d="M15.3335 2.66672V6.66672M15.3335 6.66672H11.3335M15.3335 6.66672L12.2468 3.76005C11.3272 2.83988 10.1334 2.24351 8.84543 2.06081C7.55741 1.87812 6.2449 2.11899 5.10569 2.74714C3.96648 3.37529 3.06229 4.35668 2.52936 5.54343C1.99644 6.73017 1.86366 8.05798 2.15103 9.32675C2.43841 10.5955 3.13036 11.7365 4.12263 12.5778C5.11489 13.4191 6.35371 13.9151 7.6524 13.9911C8.9511 14.0671 10.2393 13.7189 11.3229 12.9991C12.4065 12.2792 13.2268 11.2267 13.6601 10.0001" stroke="#1C1C1C" stroke-width="1.25" stroke-linecap="round" stroke-linejoin="round"/>
</svg>
