<svg width="16" height="16" viewBox="0 0 16 16" fill="none" xmlns="http://www.w3.org/2000/svg">
<path d="M3.06964 5.01251V4.984C3.06964 4.24725 3.6669 3.64999 4.40365 3.64999H13.3359C14.0727 3.64999 14.67 4.24725 14.67 4.984V9.15188C14.67 9.88863 14.0727 10.4859 13.3359 10.4859H12.9287M2.66396 12.2926H11.5963C12.333 12.2926 12.9303 11.6953 12.9303 10.9586V6.79069C12.9303 6.05393 12.333 5.45668 11.5963 5.45668H2.66396C1.92721 5.45668 1.32996 6.05393 1.32996 6.79068V10.9586C1.32996 11.6953 1.92721 12.2926 2.66396 12.2926ZM8.51138 8.87451C8.51138 9.66105 7.89309 10.2987 7.13039 10.2987C6.36769 10.2987 5.7494 9.66105 5.7494 8.87451C5.7494 8.08798 6.36769 7.45037 7.13039 7.45037C7.89309 7.45037 8.51138 8.08798 8.51138 8.87451Z" stroke="#1C1C1C" stroke-width="1.25"/>
</svg>
