<svg width="40" height="40" viewBox="0 0 40 40" fill="none" xmlns="http://www.w3.org/2000/svg">
<rect width="40" height="40" rx="20" fill="#F6F6F7"/>
<path d="M17.7388 26.6278V18.4611C17.7388 18.1181 17.4607 17.8401 17.1177 17.8401C16.7748 17.8401 16.4967 18.1181 16.4967 18.4611V26.6278C16.4967 26.9708 16.7748 27.2489 17.1177 27.2489C17.4607 27.2489 17.7388 26.9708 17.7388 26.6278Z" fill="#999999"/>
<path d="M12.3419 26.6278V18.4611C12.3419 18.1181 12.0639 17.8401 11.7209 17.8401C11.3779 17.8401 11.0999 18.1181 11.0999 18.4611V26.6278C11.0999 26.9708 11.3779 27.2489 11.7209 27.2489C12.0639 27.2489 12.3419 26.9708 12.3419 26.6278Z" fill="#999999"/>
<path d="M23.1419 26.6278V18.4611C23.1419 18.1181 22.8638 17.8401 22.5208 17.8401C22.1778 17.8401 21.8998 18.1181 21.8998 18.4611V26.6278C21.8998 26.9708 22.1778 27.2489 22.5208 27.2489C22.8638 27.2489 23.1419 26.9708 23.1419 26.6278Z" fill="#999999"/>
<path d="M28.5387 26.6278V18.4611C28.5387 18.1181 28.2607 17.8401 27.9177 17.8401C27.5747 17.8401 27.2966 18.1181 27.2966 18.4611V26.6278C27.2966 26.9708 27.5747 27.2489 27.9177 27.2489C28.2607 27.2489 28.5387 26.9708 28.5387 26.6278Z" fill="#999999"/>
<path d="M29.1597 28.7578H10.4539C10.1109 28.7578 9.83289 29.0359 9.83289 29.3789C9.83289 29.7218 10.1109 29.9999 10.4539 29.9999H29.1597C29.5027 29.9999 29.7807 29.7218 29.7807 29.3789C29.7807 29.0359 29.5027 28.7578 29.1597 28.7578Z" fill="#999999"/>
<path d="M30.4018 16.3868L20.1546 10.0832C19.9625 9.97227 19.7257 9.97227 19.5336 10.0832L9.23671 16.3806C8.99327 16.5724 8.92852 16.9143 9.08498 17.1819C9.24144 17.4494 9.57121 17.5607 9.85775 17.4425L19.8317 11.3439L29.7683 17.4239C29.9588 17.574 30.2191 17.5995 30.4351 17.4893C30.651 17.379 30.7831 17.1532 30.7732 16.911C30.7634 16.6687 30.6135 16.4543 30.3894 16.3619L30.4018 16.3868Z" fill="#999999"/>
</svg>
