<svg width="24" height="24" viewBox="0 0 24 24" fill="none" xmlns="http://www.w3.org/2000/svg">
<path d="M21 15C21 15.5304 20.7893 16.0391 20.4142 16.4142C20.0391 16.7893 19.5304 17 19 17H7L3 21V5C3 4.46957 3.21071 3.96086 3.58579 3.58579C3.96086 3.21071 4.46957 3 5 3H19C19.5304 3 20.0391 3.21071 20.4142 3.58579C20.7893 3.96086 21 4.46957 21 5V15Z" stroke="#1C1C1C" stroke-width="1.25" stroke-linecap="round" stroke-linejoin="round"/>
<g filter="url(#filter0_d_7011_35279)">
<mask id="path-2-outside-1_7011_35279" maskUnits="userSpaceOnUse" x="6" y="6" width="11" height="8" fill="black">
<rect fill="white" x="6" y="6" width="11" height="8"/>
<path d="M10.0311 12.2758C10.1345 12.2758 10.2207 12.3138 10.2896 12.3896C10.3655 12.4586 10.4035 12.5448 10.4035 12.6483C10.4035 12.7448 10.3655 12.8276 10.2896 12.8966C10.2207 12.9655 10.1345 13 10.0311 13H7.4138C7.31731 13 7.23102 12.9655 7.15524 12.8966C7.08619 12.8276 7.05171 12.7448 7.05171 12.6483C7.05171 12.5517 7.08619 12.4655 7.15524 12.3896C7.22419 12.3138 7.31038 12.2758 7.4138 12.2758H8.41725V7.98275L7.55864 8.40695C7.5311 8.42072 7.49999 8.43449 7.46552 8.44826C7.43797 8.4552 7.38626 8.45866 7.31038 8.45866C7.24143 8.45866 7.17247 8.42765 7.10352 8.36554C7.03448 8.29659 7 8.19316 7 8.05516C7 7.91726 7.07242 7.81384 7.21725 7.74488L8.37584 7.14484C8.45173 7.10352 8.53108 7.08282 8.6138 7.08282H8.78965C8.90001 7.08282 8.99313 7.12413 9.06901 7.20695C9.15174 7.28283 9.19315 7.37586 9.19315 7.48622V12.2758H10.0311ZM15.7153 12.2758C15.8187 12.2758 15.9049 12.3138 15.9739 12.3896C16.0429 12.4586 16.0774 12.5448 16.0774 12.6483C16.0774 12.7448 16.0429 12.8276 15.9739 12.8966C15.9049 12.9655 15.8187 13 15.7153 13H12.4464C12.3153 13 12.2084 12.9586 12.1257 12.8759C12.0429 12.7931 12.0016 12.6896 12.0016 12.5655C12.0016 12.269 12.0843 12 12.2498 11.7586C12.4153 11.5173 12.6222 11.2965 12.8705 11.0965C13.1187 10.8897 13.3912 10.6966 13.6877 10.5173C13.9843 10.338 14.2567 10.1587 14.505 9.97934C14.7601 9.80003 14.9705 9.61379 15.1359 9.4207C15.3015 9.22762 15.3843 9.03454 15.3843 8.84136C15.3843 8.64828 15.3601 8.48967 15.3119 8.36554C15.2635 8.23448 15.1878 8.12411 15.0842 8.03456C14.8567 7.82761 14.5084 7.72418 14.0395 7.72418C13.536 7.72418 13.0533 7.82761 12.5912 8.03456C12.536 8.0621 12.4704 8.07587 12.3947 8.07587C12.3257 8.07587 12.2601 8.04486 12.1981 7.98275C12.1429 7.92073 12.1153 7.83107 12.1153 7.71378C12.1153 7.59658 12.1739 7.50346 12.2911 7.43451C12.8635 7.14484 13.4946 7 14.1843 7C14.736 7 15.1946 7.15861 15.5601 7.47592C15.9395 7.79313 16.1291 8.20693 16.1291 8.71723C16.1291 9.22762 15.8704 9.72415 15.3532 10.2069C15.1256 10.4139 14.8774 10.6069 14.6084 10.7862C14.3464 10.9586 14.0912 11.131 13.8429 11.3035C13.5947 11.469 13.3705 11.6311 13.1705 11.7897C12.9704 11.9483 12.836 12.1104 12.767 12.2758H15.7153Z"/>
</mask>
<path d="M10.0311 12.2758C10.1345 12.2758 10.2207 12.3138 10.2896 12.3896C10.3655 12.4586 10.4035 12.5448 10.4035 12.6483C10.4035 12.7448 10.3655 12.8276 10.2896 12.8966C10.2207 12.9655 10.1345 13 10.0311 13H7.4138C7.31731 13 7.23102 12.9655 7.15524 12.8966C7.08619 12.8276 7.05171 12.7448 7.05171 12.6483C7.05171 12.5517 7.08619 12.4655 7.15524 12.3896C7.22419 12.3138 7.31038 12.2758 7.4138 12.2758H8.41725V7.98275L7.55864 8.40695C7.5311 8.42072 7.49999 8.43449 7.46552 8.44826C7.43797 8.4552 7.38626 8.45866 7.31038 8.45866C7.24143 8.45866 7.17247 8.42765 7.10352 8.36554C7.03448 8.29659 7 8.19316 7 8.05516C7 7.91726 7.07242 7.81384 7.21725 7.74488L8.37584 7.14484C8.45173 7.10352 8.53108 7.08282 8.6138 7.08282H8.78965C8.90001 7.08282 8.99313 7.12413 9.06901 7.20695C9.15174 7.28283 9.19315 7.37586 9.19315 7.48622V12.2758H10.0311ZM15.7153 12.2758C15.8187 12.2758 15.9049 12.3138 15.9739 12.3896C16.0429 12.4586 16.0774 12.5448 16.0774 12.6483C16.0774 12.7448 16.0429 12.8276 15.9739 12.8966C15.9049 12.9655 15.8187 13 15.7153 13H12.4464C12.3153 13 12.2084 12.9586 12.1257 12.8759C12.0429 12.7931 12.0016 12.6896 12.0016 12.5655C12.0016 12.269 12.0843 12 12.2498 11.7586C12.4153 11.5173 12.6222 11.2965 12.8705 11.0965C13.1187 10.8897 13.3912 10.6966 13.6877 10.5173C13.9843 10.338 14.2567 10.1587 14.505 9.97934C14.7601 9.80003 14.9705 9.61379 15.1359 9.4207C15.3015 9.22762 15.3843 9.03454 15.3843 8.84136C15.3843 8.64828 15.3601 8.48967 15.3119 8.36554C15.2635 8.23448 15.1878 8.12411 15.0842 8.03456C14.8567 7.82761 14.5084 7.72418 14.0395 7.72418C13.536 7.72418 13.0533 7.82761 12.5912 8.03456C12.536 8.0621 12.4704 8.07587 12.3947 8.07587C12.3257 8.07587 12.2601 8.04486 12.1981 7.98275C12.1429 7.92073 12.1153 7.83107 12.1153 7.71378C12.1153 7.59658 12.1739 7.50346 12.2911 7.43451C12.8635 7.14484 13.4946 7 14.1843 7C14.736 7 15.1946 7.15861 15.5601 7.47592C15.9395 7.79313 16.1291 8.20693 16.1291 8.71723C16.1291 9.22762 15.8704 9.72415 15.3532 10.2069C15.1256 10.4139 14.8774 10.6069 14.6084 10.7862C14.3464 10.9586 14.0912 11.131 13.8429 11.3035C13.5947 11.469 13.3705 11.6311 13.1705 11.7897C12.9704 11.9483 12.836 12.1104 12.767 12.2758H15.7153Z" fill="#1C1C1C"/>
<path d="M10.0311 12.2758C10.1345 12.2758 10.2207 12.3138 10.2896 12.3896C10.3655 12.4586 10.4035 12.5448 10.4035 12.6483C10.4035 12.7448 10.3655 12.8276 10.2896 12.8966C10.2207 12.9655 10.1345 13 10.0311 13H7.4138C7.31731 13 7.23102 12.9655 7.15524 12.8966C7.08619 12.8276 7.05171 12.7448 7.05171 12.6483C7.05171 12.5517 7.08619 12.4655 7.15524 12.3896C7.22419 12.3138 7.31038 12.2758 7.4138 12.2758H8.41725V7.98275L7.55864 8.40695C7.5311 8.42072 7.49999 8.43449 7.46552 8.44826C7.43797 8.4552 7.38626 8.45866 7.31038 8.45866C7.24143 8.45866 7.17247 8.42765 7.10352 8.36554C7.03448 8.29659 7 8.19316 7 8.05516C7 7.91726 7.07242 7.81384 7.21725 7.74488L8.37584 7.14484C8.45173 7.10352 8.53108 7.08282 8.6138 7.08282H8.78965C8.90001 7.08282 8.99313 7.12413 9.06901 7.20695C9.15174 7.28283 9.19315 7.37586 9.19315 7.48622V12.2758H10.0311ZM15.7153 12.2758C15.8187 12.2758 15.9049 12.3138 15.9739 12.3896C16.0429 12.4586 16.0774 12.5448 16.0774 12.6483C16.0774 12.7448 16.0429 12.8276 15.9739 12.8966C15.9049 12.9655 15.8187 13 15.7153 13H12.4464C12.3153 13 12.2084 12.9586 12.1257 12.8759C12.0429 12.7931 12.0016 12.6896 12.0016 12.5655C12.0016 12.269 12.0843 12 12.2498 11.7586C12.4153 11.5173 12.6222 11.2965 12.8705 11.0965C13.1187 10.8897 13.3912 10.6966 13.6877 10.5173C13.9843 10.338 14.2567 10.1587 14.505 9.97934C14.7601 9.80003 14.9705 9.61379 15.1359 9.4207C15.3015 9.22762 15.3843 9.03454 15.3843 8.84136C15.3843 8.64828 15.3601 8.48967 15.3119 8.36554C15.2635 8.23448 15.1878 8.12411 15.0842 8.03456C14.8567 7.82761 14.5084 7.72418 14.0395 7.72418C13.536 7.72418 13.0533 7.82761 12.5912 8.03456C12.536 8.0621 12.4704 8.07587 12.3947 8.07587C12.3257 8.07587 12.2601 8.04486 12.1981 7.98275C12.1429 7.92073 12.1153 7.83107 12.1153 7.71378C12.1153 7.59658 12.1739 7.50346 12.2911 7.43451C12.8635 7.14484 13.4946 7 14.1843 7C14.736 7 15.1946 7.15861 15.5601 7.47592C15.9395 7.79313 16.1291 8.20693 16.1291 8.71723C16.1291 9.22762 15.8704 9.72415 15.3532 10.2069C15.1256 10.4139 14.8774 10.6069 14.6084 10.7862C14.3464 10.9586 14.0912 11.131 13.8429 11.3035C13.5947 11.469 13.3705 11.6311 13.1705 11.7897C12.9704 11.9483 12.836 12.1104 12.767 12.2758H15.7153Z" stroke="#1C1C1C" stroke-width="0.6" mask="url(#path-2-outside-1_7011_35279)"/>
</g>
<defs>
<filter id="filter0_d_7011_35279" x="2.69995" y="6.70001" width="17.7291" height="14.6" filterUnits="userSpaceOnUse" color-interpolation-filters="sRGB">
<feFlood flood-opacity="0" result="BackgroundImageFix"/>
<feColorMatrix in="SourceAlpha" type="matrix" values="0 0 0 0 0 0 0 0 0 0 0 0 0 0 0 0 0 0 127 0" result="hardAlpha"/>
<feOffset dy="4"/>
<feGaussianBlur stdDeviation="2"/>
<feComposite in2="hardAlpha" operator="out"/>
<feColorMatrix type="matrix" values="0 0 0 0 0 0 0 0 0 0 0 0 0 0 0 0 0 0 0.25 0"/>
<feBlend mode="normal" in2="BackgroundImageFix" result="effect1_dropShadow_7011_35279"/>
<feBlend mode="normal" in="SourceGraphic" in2="effect1_dropShadow_7011_35279" result="shape"/>
</filter>
</defs>
</svg>
