<svg width="24" height="24" viewBox="0 0 24 24" fill="none" xmlns="http://www.w3.org/2000/svg">
<g clip-path="url(#clip0_5647_26914)">
<path d="M4 6.35327L6.41042 10.6824V13.3231L4.00282 17.6438L4 6.35327Z" fill="#5B57A2"/>
<path d="M13.2551 9.10706L15.5137 7.71606L20.1362 7.71173L13.2551 11.9474V9.10706Z" fill="#D90751"/>
<path d="M13.2423 6.32783L13.255 12.0595L10.839 10.5678V2L13.2424 6.32783H13.2423Z" fill="#FAB718"/>
<path d="M20.1362 7.71183L15.5135 7.71617L13.2423 6.32783L10.839 2L20.136 7.71183H20.1362Z" fill="#ED6F26"/>
<path d="M13.255 17.6678V14.8869L10.839 13.4236L10.8403 21.9999L13.255 17.6678Z" fill="#63B22F"/>
<path d="M15.508 16.2894L6.41025 10.6824L4 6.35327L20.1263 16.2838L15.5079 16.2894H15.508Z" fill="#1487C9"/>
<path d="M10.8405 22L13.2549 17.6679L15.5079 16.2895L20.1262 16.2839L10.8405 22Z" fill="#017F36"/>
<path d="M4.00281 17.6438L10.8587 13.4238L8.55377 12.0028L6.41041 13.3231L4.00281 17.6438Z" fill="#984995"/>
</g>
<defs>
<clipPath id="clip0_5647_26914">
<rect width="16.25" height="20" fill="white" transform="translate(4 2)"/>
</clipPath>
</defs>
</svg>
