<svg width="40" height="40" viewBox="0 0 40 40" fill="none" xmlns="http://www.w3.org/2000/svg">
<rect width="40" height="40" rx="20" fill="#B39CDB"/>
<path d="M13.4374 19.6201V25.3069C13.4374 25.3754 13.4704 25.4382 13.5289 25.4738C15.5637 26.7158 20.7647 28.3626 26.1447 25.4739C26.2091 25.4394 26.2499 25.3715 26.2499 25.2984V19.7763M29.7499 17.9014V21.6514M20.0893 22.8566L29.6421 18.0803C29.7895 18.0065 29.7895 17.7962 29.6421 17.7225L20.0893 12.9461C20.033 12.9179 19.9667 12.9179 19.9104 12.9461L10.3576 17.7225C10.2102 17.7962 10.2102 18.0065 10.3576 18.0803L19.9104 22.8566C19.9667 22.8848 20.033 22.8848 20.0893 22.8566Z" stroke="white" stroke-width="1.25" stroke-linecap="round" stroke-linejoin="round"/>
</svg>
