<svg width="24" height="24" viewBox="0 0 24 24" fill="none" xmlns="http://www.w3.org/2000/svg">
<circle cx="12" cy="12" r="12" fill="#FF3636"/>
<g clip-path="url(#clip0_6387_27553)">
<path d="M18 6.97027C18 8.45951 18 9.94603 18 11.4545C17.8913 11.2932 17.8007 11.1532 17.7044 11.0165C16.9042 9.88021 15.9025 8.93141 14.548 8.3371C13.8277 8.02104 13.1086 7.83639 12.3928 7.78138C11.2711 7.69518 10.1573 7.92731 9.05906 8.47094C7.7687 9.10965 6.81975 10.0677 6.06378 11.1941C6.04868 11.2166 6.03273 11.2386 6.00012 11.2853C6.00012 9.77465 6.00012 8.283 6.00012 6.78671C6.00012 6.52466 6.34627 6 7.00984 6C10.3427 6 13.6743 6 17.0192 6C17.625 6 18 6.36713 18 6.97027Z" fill="white"/>
<path d="M17.9969 15.8182C13.992 14.2205 10.009 14.2203 6.00207 15.8166C6.00207 15.5399 5.9942 15.2546 6.00916 14.9703C6.01192 14.9177 6.10109 14.862 6.16049 14.8205C7.14054 14.1365 8.23667 13.689 9.41522 13.41C10.2532 13.2117 11.1079 13.074 11.9676 13.0926C14.103 13.1389 16.1063 13.6216 17.8609 14.8325C17.962 14.9023 18.0042 14.9777 17.9996 15.0961C17.9904 15.3344 17.9969 15.5732 17.9969 15.8182Z" fill="white"/>
<path d="M17.9968 13.6303C16.2858 11.9932 14.3355 10.9535 11.9939 10.9894C9.68198 11.0248 7.70074 11.98 6.00074 13.6363C6.00074 13.305 5.99773 13.003 6.00383 12.7012C6.00482 12.6528 6.04015 12.6004 6.07028 12.5579C7.294 10.8308 8.89299 9.69795 10.9596 9.36273C12.8032 9.0637 14.4942 9.5175 16.0267 10.6066C16.7581 11.1264 17.3765 11.7688 17.8933 12.5131C17.9532 12.5993 17.9864 12.7208 17.9922 12.8282C18.0063 13.0867 17.9968 13.3465 17.9968 13.6303Z" fill="white"/>
<path d="M17.1057 17.9999C13.7437 17.9999 10.3991 17.9999 7.03885 17.9999C6.20222 17.9999 5.99077 17.6123 6.0003 17.3116C6.00144 17.2757 6.07878 16.9986 6.12513 16.9885C6.64275 16.8759 7.15868 16.7501 7.68116 16.6665C9.44719 16.3839 11.2279 16.3277 13.0112 16.3823C14.6036 16.4311 16.1869 16.5766 17.7382 16.9762C17.9292 17.0255 18.018 17.0921 17.9969 17.3053C17.9749 17.528 17.9999 17.9999 17.1057 17.9999Z" fill="white"/>
</g>
<defs>
<clipPath id="clip0_6387_27553">
<rect x="6" y="6" width="12" height="12" rx="3" fill="white"/>
</clipPath>
</defs>
</svg>
