<svg width="16" height="16" viewBox="0 0 16 16" fill="none" xmlns="http://www.w3.org/2000/svg">
<mask id="path-1-inside-1_8826_38871" fill="white">
<path d="M7.29286 0.707109C7.68339 0.316584 8.31655 0.316584 8.70708 0.707108L10.9682 2.96823C11.3587 3.35876 11.3587 3.99192 10.9682 4.38245L8.70708 6.64357C8.31655 7.0341 7.68339 7.0341 7.29286 6.64357L5.03174 4.38245C4.64121 3.99192 4.64121 3.35876 5.03174 2.96823L7.29286 0.707109Z"/>
<path d="M7.29286 9.35643C7.68339 8.96591 8.31655 8.96591 8.70708 9.35643L10.9682 11.6176C11.3587 12.0081 11.3587 12.6412 10.9682 13.0318L8.70708 15.2929C8.31655 15.6834 7.68339 15.6834 7.29286 15.2929L5.03174 13.0318C4.64121 12.6412 4.64121 12.0081 5.03174 11.6176L7.29286 9.35643Z"/>
<path d="M11.6175 5.03177C12.008 4.64124 12.6412 4.64124 13.0317 5.03177L15.2929 7.29289C15.6834 7.68342 15.6834 8.31658 15.2929 8.70711L13.0317 10.9682C12.6412 11.3588 12.008 11.3588 11.6175 10.9682L9.3564 8.70711C8.96588 8.31658 8.96588 7.68342 9.3564 7.29289L11.6175 5.03177Z"/>
<path d="M2.9682 5.03177C3.35873 4.64124 3.99189 4.64124 4.38242 5.03177L6.64354 7.29289C7.03407 7.68342 7.03407 8.31658 6.64354 8.70711L4.38242 10.9682C3.99189 11.3588 3.35873 11.3588 2.9682 10.9682L0.707078 8.70711C0.316554 8.31658 0.316553 7.68342 0.707077 7.29289L2.9682 5.03177Z"/>
</mask>
<path d="M7.29286 0.707109C7.68339 0.316584 8.31655 0.316584 8.70708 0.707108L10.9682 2.96823C11.3587 3.35876 11.3587 3.99192 10.9682 4.38245L8.70708 6.64357C8.31655 7.0341 7.68339 7.0341 7.29286 6.64357L5.03174 4.38245C4.64121 3.99192 4.64121 3.35876 5.03174 2.96823L7.29286 0.707109Z" stroke="#999999" stroke-width="2.5" mask="url(#path-1-inside-1_8826_38871)"/>
<path d="M7.29286 9.35643C7.68339 8.96591 8.31655 8.96591 8.70708 9.35643L10.9682 11.6176C11.3587 12.0081 11.3587 12.6412 10.9682 13.0318L8.70708 15.2929C8.31655 15.6834 7.68339 15.6834 7.29286 15.2929L5.03174 13.0318C4.64121 12.6412 4.64121 12.0081 5.03174 11.6176L7.29286 9.35643Z" stroke="#999999" stroke-width="2.5" mask="url(#path-1-inside-1_8826_38871)"/>
<path d="M11.6175 5.03177C12.008 4.64124 12.6412 4.64124 13.0317 5.03177L15.2929 7.29289C15.6834 7.68342 15.6834 8.31658 15.2929 8.70711L13.0317 10.9682C12.6412 11.3588 12.008 11.3588 11.6175 10.9682L9.3564 8.70711C8.96588 8.31658 8.96588 7.68342 9.3564 7.29289L11.6175 5.03177Z" stroke="#999999" stroke-width="2.5" mask="url(#path-1-inside-1_8826_38871)"/>
<path d="M2.9682 5.03177C3.35873 4.64124 3.99189 4.64124 4.38242 5.03177L6.64354 7.29289C7.03407 7.68342 7.03407 8.31658 6.64354 8.70711L4.38242 10.9682C3.99189 11.3588 3.35873 11.3588 2.9682 10.9682L0.707078 8.70711C0.316554 8.31658 0.316553 7.68342 0.707077 7.29289L2.9682 5.03177Z" stroke="#999999" stroke-width="2.5" mask="url(#path-1-inside-1_8826_38871)"/>
</svg>
