<svg width="24" height="24" viewBox="0 0 24 24" fill="none" xmlns="http://www.w3.org/2000/svg">
<path d="M10.29 3.86005L1.82002 18.0001C1.64539 18.3025 1.55299 18.6454 1.55201 18.9946C1.55103 19.3438 1.64151 19.6872 1.81445 19.9906C1.98738 20.294 2.23675 20.5468 2.53773 20.7239C2.83871 20.901 3.18082 20.9962 3.53002 21.0001H20.47C20.8192 20.9962 21.1613 20.901 21.4623 20.7239C21.7633 20.5468 22.0127 20.294 22.1856 19.9906C22.3585 19.6872 22.449 19.3438 22.448 18.9946C22.4471 18.6454 22.3547 18.3025 22.18 18.0001L13.71 3.86005C13.5318 3.56616 13.2807 3.32317 12.9812 3.15454C12.6817 2.9859 12.3438 2.89731 12 2.89731C11.6563 2.89731 11.3184 2.9859 11.0188 3.15454C10.7193 3.32317 10.4683 3.56616 10.29 3.86005Z" stroke="#1C1C1C" stroke-width="1.25" stroke-linecap="round" stroke-linejoin="round"/>
</svg>
