<svg width="24" height="24" viewBox="0 0 24 24" fill="none" xmlns="http://www.w3.org/2000/svg">
<path d="M7 10.9999V6.99994C7 5.67386 7.52678 4.40209 8.46447 3.4644C9.40215 2.52672 10.6739 1.99994 12 1.99994C13.3261 1.99994 14.5979 2.52672 15.5355 3.4644C16.4732 4.40209 17 5.67386 17 6.99994V10.9999M5 10.9999H19C20.1046 10.9999 21 11.8954 21 12.9999V19.9999C21 21.1045 20.1046 21.9999 19 21.9999H5C3.89543 21.9999 3 21.1045 3 19.9999V12.9999C3 11.8954 3.89543 10.9999 5 10.9999Z" stroke="#1C1C1C" stroke-width="1.25" stroke-linecap="round" stroke-linejoin="round"/>
</svg>
