<svg width="24" height="24" viewBox="0 0 24 24" fill="none" xmlns="http://www.w3.org/2000/svg">
<path d="M4.99988 14.9999H3.99988C3.46944 14.9999 2.96074 14.7892 2.58566 14.4141C2.21059 14.039 1.99988 13.5303 1.99988 12.9999V3.99988C1.99988 3.46944 2.21059 2.96074 2.58566 2.58566C2.96074 2.21059 3.46944 1.99988 3.99988 1.99988H12.9999C13.5303 1.99988 14.039 2.21059 14.4141 2.58566C14.7892 2.96074 14.9999 3.46944 14.9999 3.99988V4.99988M10.9999 8.99988H19.9999C21.1044 8.99988 21.9999 9.89531 21.9999 10.9999V19.9999C21.9999 21.1044 21.1044 21.9999 19.9999 21.9999H10.9999C9.89531 21.9999 8.99988 21.1044 8.99988 19.9999V10.9999C8.99988 9.89531 9.89531 8.99988 10.9999 8.99988Z" stroke="#1C1C1C" stroke-width="1.25" stroke-linecap="round" stroke-linejoin="round"/>
</svg>
