<svg width="24" height="24" viewBox="0 0 24 24" fill="none" xmlns="http://www.w3.org/2000/svg">
<g clip-path="url(#clip0_21_10452)">
<path d="M13.7301 21.0001C13.5543 21.3032 13.302 21.5548 12.9983 21.7297C12.6947 21.9045 12.3505 21.9966 12.0001 21.9966C11.6497 21.9966 11.3055 21.9045 11.0019 21.7297C10.6983 21.5548 10.4459 21.3032 10.2701 21.0001M18.6301 13.0001C18.1853 11.3715 17.9731 9.68817 18.0001 8.00012C18.0017 6.91319 17.7081 5.84623 17.1505 4.91321C16.5929 3.9802 15.7923 3.21618 14.8342 2.70276C13.8762 2.18934 12.7967 1.94582 11.711 1.99819C10.6253 2.05056 9.57429 2.39687 8.67012 3.00012M6.26012 6.26012C6.08639 6.82373 5.99873 7.41034 6.00012 8.00012C6.00012 15.0001 3.00012 17.0001 3.00012 17.0001H17.0001M1.00012 1.00012L23.0001 23.0001" stroke="#1C1C1C" stroke-width="1.25" stroke-linecap="round" stroke-linejoin="round"/>
</g>
<defs>
<clipPath id="clip0_21_10452">
<rect width="24" height="24" fill="white"/>
</clipPath>
</defs>
</svg>
