<svg width="32" height="32" viewBox="0 0 32 32" fill="none" xmlns="http://www.w3.org/2000/svg">
<path d="M14.2754 18.248C14.3828 18.248 14.4723 18.2874 14.5439 18.3662C14.6227 18.4378 14.6621 18.5273 14.6621 18.6348C14.6621 18.735 14.6227 18.821 14.5439 18.8926C14.4723 18.9642 14.3828 19 14.2754 19H11.5576C11.4574 19 11.3678 18.9642 11.2891 18.8926C11.2174 18.821 11.1816 18.735 11.1816 18.6348C11.1816 18.5345 11.2174 18.445 11.2891 18.3662C11.3607 18.2874 11.4502 18.248 11.5576 18.248H12.5996V13.79L11.708 14.2305C11.6794 14.2448 11.6471 14.2591 11.6113 14.2734C11.5827 14.2806 11.529 14.2842 11.4502 14.2842C11.3786 14.2842 11.307 14.252 11.2354 14.1875C11.1637 14.1159 11.1279 14.0085 11.1279 13.8652C11.1279 13.722 11.2031 13.6146 11.3535 13.543L12.5566 12.9199C12.6354 12.877 12.7178 12.8555 12.8037 12.8555H12.9863C13.1009 12.8555 13.1976 12.8984 13.2764 12.9844C13.3623 13.0632 13.4053 13.1598 13.4053 13.2744V18.248H14.2754ZM20.178 18.248C20.2854 18.248 20.3749 18.2874 20.4466 18.3662C20.5182 18.4378 20.554 18.5273 20.554 18.6348C20.554 18.735 20.5182 18.821 20.4466 18.8926C20.3749 18.9642 20.2854 19 20.178 19H16.7835C16.6474 19 16.5364 18.957 16.4505 18.8711C16.3645 18.7852 16.3216 18.6777 16.3216 18.5488C16.3216 18.2409 16.4075 17.9616 16.5794 17.7109C16.7512 17.4603 16.9661 17.2311 17.2239 17.0234C17.4817 16.8086 17.7646 16.6081 18.0725 16.4219C18.3805 16.2357 18.6634 16.0495 18.9212 15.8633C19.1861 15.6771 19.4046 15.4837 19.5764 15.2832C19.7483 15.0827 19.8343 14.8822 19.8343 14.6816C19.8343 14.4811 19.8092 14.3164 19.7591 14.1875C19.7089 14.0514 19.6302 13.9368 19.5227 13.8438C19.2864 13.6289 18.9248 13.5215 18.4378 13.5215C17.915 13.5215 17.4137 13.6289 16.9339 13.8438C16.8766 13.8724 16.8085 13.8867 16.7298 13.8867C16.6582 13.8867 16.5901 13.8545 16.5257 13.79C16.4684 13.7256 16.4397 13.6325 16.4397 13.5107C16.4397 13.389 16.5006 13.2923 16.6223 13.2207C17.2167 12.9199 17.872 12.7695 18.5882 12.7695C19.1611 12.7695 19.6373 12.9342 20.0169 13.2637C20.4108 13.5931 20.6077 14.0228 20.6077 14.5527C20.6077 15.0827 20.3391 15.5983 19.802 16.0996C19.5657 16.3145 19.3079 16.515 19.0286 16.7012C18.7565 16.8802 18.4915 17.0592 18.2337 17.2383C17.9759 17.4102 17.7431 17.5785 17.5354 17.7432C17.3277 17.9079 17.1881 18.0762 17.1165 18.248H20.178Z" fill="#999999"/>
<path d="M14.5439 18.3662L14.322 18.568L14.3316 18.5786L14.3421 18.5882L14.5439 18.3662ZM14.5439 18.8926L14.3421 18.6706L14.3369 18.6754L14.3318 18.6804L14.5439 18.8926ZM11.2891 18.8926L11.0769 19.1047L11.082 19.1098L11.0873 19.1146L11.2891 18.8926ZM11.2891 18.3662L11.0671 18.1644L11.2891 18.3662ZM12.5996 18.248V18.548H12.8996V18.248H12.5996ZM12.5996 13.79H12.8996V13.3072L12.4667 13.5211L12.5996 13.79ZM11.708 14.2305L11.5751 13.9615L11.5738 13.9621L11.708 14.2305ZM11.6113 14.2734L11.6841 14.5645L11.7038 14.5595L11.7227 14.552L11.6113 14.2734ZM11.2354 14.1875L11.0232 14.3996L11.0288 14.4052L11.0347 14.4105L11.2354 14.1875ZM11.3535 13.543L11.4826 13.814L11.4915 13.8094L11.3535 13.543ZM12.5566 12.9199L12.6946 13.1864L12.7003 13.1833L12.5566 12.9199ZM13.2764 12.9844L13.0552 13.1871L13.064 13.1967L13.0736 13.2055L13.2764 12.9844ZM13.4053 18.248H13.1053V18.548H13.4053V18.248ZM14.2754 18.548C14.2916 18.548 14.2992 18.5508 14.3023 18.5522C14.3053 18.5535 14.3119 18.5569 14.322 18.568L14.7659 18.1644C14.6369 18.0225 14.4665 17.948 14.2754 17.948V18.548ZM14.3421 18.5882C14.3532 18.5983 14.3566 18.6049 14.358 18.6079C14.3593 18.611 14.3621 18.6185 14.3621 18.6348H14.9621C14.9621 18.4437 14.8877 18.2733 14.7457 18.1442L14.3421 18.5882ZM14.3621 18.6348C14.3621 18.6444 14.3605 18.648 14.3598 18.6494C14.359 18.6512 14.3554 18.6586 14.3421 18.6706L14.7457 19.1146C14.8827 18.9901 14.9621 18.8253 14.9621 18.6348H14.3621ZM14.3318 18.6804C14.3201 18.6921 14.3086 18.7 14.2754 18.7V19.3C14.457 19.3 14.6245 19.2363 14.7561 19.1047L14.3318 18.6804ZM14.2754 18.7H11.5576V19.3H14.2754V18.7ZM11.5576 18.7C11.5369 18.7 11.5182 18.6954 11.4909 18.6706L11.0873 19.1146C11.2175 19.233 11.3778 19.3 11.5576 19.3V18.7ZM11.5012 18.6804C11.4852 18.6645 11.4816 18.6546 11.4816 18.6348H10.8816C10.8816 18.8155 10.9497 18.9775 11.0769 19.1047L11.5012 18.6804ZM11.4816 18.6348C11.4816 18.614 11.4862 18.5953 11.511 18.568L11.0671 18.1644C10.9487 18.2947 10.8816 18.455 10.8816 18.6348H11.4816ZM11.511 18.568C11.5211 18.5569 11.5277 18.5535 11.5307 18.5522C11.5338 18.5508 11.5414 18.548 11.5576 18.548V17.948C11.3665 17.948 11.1961 18.0225 11.0671 18.1644L11.511 18.568ZM11.5576 18.548H12.5996V17.948H11.5576V18.548ZM12.8996 18.248V13.79H12.2996V18.248H12.8996ZM12.4667 13.5211L11.5751 13.9615L11.8409 14.4994L12.7325 14.059L12.4667 13.5211ZM11.5738 13.9621C11.554 13.9721 11.5295 13.9831 11.4999 13.9949L11.7227 14.552C11.7648 14.5352 11.8048 14.5175 11.8422 14.4988L11.5738 13.9621ZM11.5386 13.9824C11.5461 13.9805 11.5494 13.9803 11.5463 13.9807C11.5438 13.981 11.5385 13.9816 11.5296 13.9822C11.5117 13.9834 11.4857 13.9842 11.4502 13.9842V14.5842C11.5259 14.5842 11.6148 14.5818 11.6841 14.5645L11.5386 13.9824ZM11.4502 13.9842C11.455 13.9842 11.4592 13.9847 11.4623 13.9855C11.4654 13.9861 11.4667 13.9868 11.4659 13.9864C11.464 13.9856 11.4538 13.9805 11.436 13.9645L11.0347 14.4105C11.1421 14.5072 11.2821 14.5842 11.4502 14.5842V13.9842ZM11.4475 13.9754C11.4475 13.9753 11.4468 13.9747 11.4456 13.9727C11.4443 13.9706 11.442 13.9662 11.4394 13.9584C11.434 13.9421 11.4279 13.9127 11.4279 13.8652H10.8279C10.8279 14.0547 10.8755 14.2519 11.0232 14.3996L11.4475 13.9754ZM11.4279 13.8652C11.4279 13.8559 11.4291 13.8516 11.4294 13.8507C11.4296 13.8501 11.4296 13.85 11.4301 13.8493C11.431 13.8481 11.4417 13.8333 11.4825 13.8138L11.2245 13.2721C11.1149 13.3243 11.0129 13.399 10.9386 13.5052C10.8624 13.614 10.8279 13.738 10.8279 13.8652H11.4279ZM11.4915 13.8094L12.6946 13.1863L12.4187 12.6535L11.2156 13.2766L11.4915 13.8094ZM12.7003 13.1833C12.737 13.1633 12.7702 13.1555 12.8037 13.1555V12.5555C12.6653 12.5555 12.5338 12.5906 12.413 12.6566L12.7003 13.1833ZM12.8037 13.1555H12.9863V12.5555H12.8037V13.1555ZM12.9863 13.1555C13.0152 13.1555 13.0321 13.1619 13.0552 13.1871L13.4975 12.7817C13.363 12.635 13.1867 12.5555 12.9863 12.5555V13.1555ZM13.0736 13.2055C13.0988 13.2286 13.1053 13.2456 13.1053 13.2744H13.7053C13.7053 13.0741 13.6258 12.8977 13.4791 12.7632L13.0736 13.2055ZM13.1053 13.2744V18.248H13.7053V13.2744H13.1053ZM13.4053 18.548H14.2754V17.948H13.4053V18.548ZM20.4466 18.3662L20.2246 18.568L20.2294 18.5733L20.2344 18.5783L20.4466 18.3662ZM20.4466 18.8926L20.6587 19.1047L20.4466 18.8926ZM17.2239 17.0234L17.4121 17.2571L17.416 17.2539L17.2239 17.0234ZM18.0725 16.4219L17.9173 16.1652L18.0725 16.4219ZM18.9212 15.8633L18.7487 15.6178L18.7455 15.6201L18.9212 15.8633ZM19.7591 14.1875L19.4775 14.2912L19.4795 14.2962L19.7591 14.1875ZM19.5227 13.8438L19.3209 14.0658L19.3263 14.0705L19.5227 13.8438ZM16.9339 13.8438L16.8112 13.5697L16.7997 13.5754L16.9339 13.8438ZM16.5257 13.79L16.3014 13.9893L16.3073 13.9959L16.3135 14.0022L16.5257 13.79ZM16.6223 13.2207L16.4869 12.953L16.4784 12.9573L16.4702 12.9621L16.6223 13.2207ZM20.0169 13.2637L19.8202 13.4903L19.8244 13.4938L20.0169 13.2637ZM19.802 16.0996L20.0038 16.3216L20.0067 16.3189L19.802 16.0996ZM19.0286 16.7012L19.1935 16.9518L19.195 16.9508L19.0286 16.7012ZM18.2337 17.2383L18.4001 17.4879L18.4048 17.4847L18.2337 17.2383ZM17.1165 18.248L16.8396 18.1327L16.6665 18.548H17.1165V18.248ZM20.178 18.548C20.1942 18.548 20.2018 18.5508 20.2049 18.5522C20.2079 18.5535 20.2145 18.5569 20.2246 18.568L20.6685 18.1644C20.5395 18.0225 20.3691 17.948 20.178 17.948V18.548ZM20.2344 18.5783C20.2461 18.59 20.254 18.6016 20.254 18.6348H20.854C20.854 18.4531 20.7902 18.2856 20.6587 18.1541L20.2344 18.5783ZM20.254 18.6348C20.254 18.6546 20.2504 18.6645 20.2344 18.6804L20.6587 19.1047C20.7859 18.9775 20.854 18.8155 20.854 18.6348H20.254ZM20.2344 18.6804C20.2228 18.6921 20.2112 18.7 20.178 18.7V19.3C20.3596 19.3 20.5271 19.2363 20.6587 19.1047L20.2344 18.6804ZM20.178 18.7H16.7835V19.3H20.178V18.7ZM16.7835 18.7C16.7166 18.7 16.6853 18.6817 16.6626 18.659L16.2383 19.0832C16.3875 19.2324 16.5782 19.3 16.7835 19.3V18.7ZM16.6626 18.659C16.6366 18.633 16.6216 18.6035 16.6216 18.5488H16.0216C16.0216 18.7519 16.0925 18.9373 16.2383 19.0832L16.6626 18.659ZM16.6216 18.5488C16.6216 18.3006 16.6897 18.0806 16.8268 17.8806L16.332 17.5413C16.1253 17.8426 16.0216 18.1812 16.0216 18.5488H16.6216ZM16.8268 17.8806C16.9807 17.6561 17.175 17.448 17.4121 17.2571L17.0357 16.7898C16.7572 17.0142 16.5218 17.2645 16.332 17.5413L16.8268 17.8806ZM17.416 17.2539C17.6614 17.0494 17.9318 16.8575 18.2278 16.6786L17.9173 16.1652C17.5974 16.3586 17.3021 16.5678 17.0319 16.793L17.416 17.2539ZM18.2278 16.6786C18.5418 16.4887 18.8316 16.298 19.0968 16.1065L18.7455 15.6201C18.4951 15.8009 18.2192 15.9826 17.9173 16.1652L18.2278 16.6786ZM19.0937 16.1087C19.3747 15.9113 19.6129 15.7016 19.8042 15.4784L19.3487 15.088C19.1962 15.2658 18.9976 15.4429 18.7487 15.6178L19.0937 16.1087ZM19.8042 15.4784C20.0077 15.241 20.1343 14.9739 20.1343 14.6816H19.5343C19.5343 14.7905 19.4889 14.9243 19.3487 15.088L19.8042 15.4784ZM20.1343 14.6816C20.1343 14.4592 20.1069 14.2542 20.0387 14.0788L19.4795 14.2962C19.5115 14.3786 19.5343 14.503 19.5343 14.6816H20.1343ZM20.0406 14.0838C19.9733 13.9012 19.8657 13.744 19.7192 13.617L19.3263 14.0705C19.3946 14.1297 19.4446 14.2017 19.4776 14.2912L20.0406 14.0838ZM19.7245 13.6218C19.4102 13.336 18.9615 13.2215 18.4378 13.2215V13.8215C18.888 13.8215 19.1626 13.9218 19.3209 14.0657L19.7245 13.6218ZM18.4378 13.2215C17.8725 13.2215 17.3294 13.3379 16.8113 13.5699L17.0565 14.1176C17.4979 13.9199 17.9575 13.8215 18.4378 13.8215V13.2215ZM16.7997 13.5754C16.7925 13.579 16.7725 13.5867 16.7298 13.5867V14.1867C16.8446 14.1867 16.9606 14.1658 17.068 14.1121L16.7997 13.5754ZM16.7298 13.5867C16.7346 13.5867 16.7395 13.5873 16.7442 13.5884C16.7488 13.5894 16.7519 13.5907 16.7535 13.5914C16.7563 13.5928 16.7507 13.5908 16.7378 13.5779L16.3135 14.0022C16.4181 14.1068 16.5584 14.1867 16.7298 14.1867V13.5867ZM16.7499 13.5907C16.7583 13.6001 16.7397 13.5891 16.7397 13.5107H16.1397C16.1397 13.6759 16.1785 13.851 16.3014 13.9893L16.7499 13.5907ZM16.7397 13.5107C16.7397 13.5055 16.7403 13.5039 16.7401 13.5047C16.74 13.505 16.7399 13.5054 16.7396 13.506C16.7394 13.5065 16.7392 13.5068 16.7393 13.5068C16.7393 13.5067 16.7396 13.5061 16.7406 13.505C16.7415 13.5039 16.7432 13.5021 16.7458 13.4997C16.7509 13.4949 16.7599 13.4878 16.7744 13.4793L16.4702 12.9621C16.2743 13.0774 16.1397 13.2639 16.1397 13.5107H16.7397ZM16.7578 13.4884C17.3071 13.2104 17.9155 13.0695 18.5882 13.0695V12.4695C17.8286 12.4695 17.1264 12.6294 16.4869 12.953L16.7578 13.4884ZM18.5882 13.0695C19.0996 13.0695 19.5029 13.2148 19.8202 13.4902L20.2135 13.0371C19.7718 12.6537 19.2226 12.4695 18.5882 12.4695V13.0695ZM19.8244 13.4938C20.1477 13.7641 20.3077 14.1084 20.3077 14.5527H20.9077C20.9077 13.9372 20.6739 13.422 20.2093 13.0335L19.8244 13.4938ZM20.3077 14.5527C20.3077 14.9714 20.0978 15.4132 19.5973 15.8803L20.0067 16.3189C20.5804 15.7835 20.9077 15.194 20.9077 14.5527H20.3077ZM19.6002 15.8776C19.3755 16.0819 19.1296 16.2733 18.8622 16.4516L19.195 16.9508C19.4861 16.7567 19.7559 16.547 20.0038 16.3216L19.6002 15.8776ZM18.8637 16.4505C18.5896 16.6309 18.3225 16.8114 18.0626 16.9919L18.4048 17.4847C18.6605 17.3071 18.9234 17.1295 19.1935 16.9518L18.8637 16.4505ZM18.0673 16.9887C17.8037 17.1644 17.5641 17.3375 17.349 17.5081L17.7218 17.9782C17.9221 17.8194 18.148 17.6559 18.4001 17.4879L18.0673 16.9887ZM17.349 17.5081C17.1174 17.6918 16.9373 17.8982 16.8396 18.1327L17.3934 18.3634C17.4389 18.2542 17.5381 18.1239 17.7218 17.9782L17.349 17.5081ZM17.1165 18.548H20.178V17.948H17.1165V18.548Z" fill="#999999"/>
<circle cx="16" cy="16" r="13.375" stroke="#999999" stroke-width="1.25"/>
</svg>
