<svg width="16" height="16" viewBox="0 0 16 16" fill="none" xmlns="http://www.w3.org/2000/svg">
<path d="M0.666748 2.66667V6.66667M0.666748 6.66667H4.66675M0.666748 6.66667L3.76008 3.76001C4.68069 2.84095 5.87505 2.24599 7.1632 2.06475C8.45135 1.88352 9.76351 2.12583 10.902 2.75518C12.0404 3.38454 12.9435 4.36684 13.4752 5.55407C14.0068 6.74131 14.1382 8.06917 13.8496 9.33758C13.5609 10.606 12.8679 11.7462 11.8748 12.5865C10.8818 13.4268 9.64258 13.9216 8.34389 13.9963C7.0452 14.0711 5.7574 13.7217 4.67452 13.0009C3.59164 12.2801 2.77234 11.2269 2.34008 10" stroke="#1C1C1C" stroke-width="1.25" stroke-linecap="round" stroke-linejoin="round"/>
</svg>
