<svg width="24" height="24" viewBox="0 0 24 24" fill="none" xmlns="http://www.w3.org/2000/svg">
<path d="M16.9999 2.99994C17.2626 2.73729 17.5744 2.52895 17.9175 2.38681C18.2607 2.24467 18.6285 2.17151 18.9999 2.17151C19.3714 2.17151 19.7392 2.24467 20.0823 2.38681C20.4255 2.52895 20.7373 2.73729 20.9999 2.99994C21.2626 3.26258 21.4709 3.57438 21.6131 3.91754C21.7552 4.2607 21.8284 4.6285 21.8284 4.99994C21.8284 5.37137 21.7552 5.73917 21.6131 6.08233C21.4709 6.42549 21.2626 6.73729 20.9999 6.99994L7.49994 20.4999L1.99994 21.9999L3.49994 16.4999L16.9999 2.99994Z" stroke="#1C1C1C" stroke-width="1.25" stroke-linecap="round" stroke-linejoin="round"/>
</svg>
