<svg width="16" height="16" viewBox="0 0 16 16" fill="none" xmlns="http://www.w3.org/2000/svg">
<path d="M3.40625 7.36406V11.6509C3.40625 11.7194 3.44001 11.7827 3.49872 11.8179C4.93853 12.6827 8.53982 13.8033 12.2699 11.8177C12.3343 11.7833 12.375 11.7155 12.375 11.6424V7.81246M14.825 6.5V9.125M8.08944 9.95528L14.6422 6.67889C14.7896 6.60518 14.7896 6.39482 14.6422 6.32111L8.08944 3.04472C8.03314 3.01657 7.96686 3.01657 7.91056 3.04472L1.35777 6.32111C1.21036 6.39482 1.21036 6.60518 1.35777 6.67889L7.91056 9.95528C7.96686 9.98343 8.03314 9.98343 8.08944 9.95528Z" stroke="#1C1C1C" stroke-width="1.25" stroke-linecap="round" stroke-linejoin="round"/>
</svg>
