<svg width="32" height="32" viewBox="0 0 32 32" fill="none" xmlns="http://www.w3.org/2000/svg">
<path d="M28.993 19.5321C25.2859 15.9852 21.0603 13.7324 15.9868 13.8101C10.9776 13.8869 6.68493 15.9565 3.00162 19.5451M28.9932 24.2726C20.3159 20.8108 11.6861 20.8104 3.00449 24.269M3.00066 27.5085C2.98001 28.16 3.43814 29 5.25083 29H27.0624C28.9998 29 28.9456 27.9776 28.9932 27.495M28.9999 5.10226C28.9999 8.32892 28.9999 11.5497 28.9999 14.8181C28.7644 14.4685 28.568 14.1652 28.3593 13.8691C26.6256 11.4071 24.4552 9.35137 21.5205 8.06372C19.9599 7.37891 18.4019 6.97883 16.8509 6.85965C14.4205 6.67289 12.0073 7.17583 9.62781 8.3537C6.83204 9.73757 4.77597 11.8134 3.13804 14.2539C3.10533 14.3026 3.07077 14.3504 3.00012 14.4515C3.00012 11.1784 3.00012 7.94649 3.00012 4.70453C3.00012 4.13675 3.75012 3 5.18785 3C12.4091 3 19.6276 3 26.8747 3C28.1874 3 28.9999 3.79545 28.9999 5.10226Z" stroke="#1C1C1C" stroke-linecap="round"/>
</svg>
