<svg width="16" height="16" viewBox="0 0 16 16" fill="none" xmlns="http://www.w3.org/2000/svg">
<path d="M6.82178 12.085C7.19824 12.1924 7.59579 12.25 8.00666 12.25C10.3709 12.25 12.2944 10.3435 12.2944 8C12.2944 5.65654 10.3709 3.75 8.00663 3.75C7.59577 3.75 7.19823 3.80758 6.82178 3.91501M9.20068 12.085C9.57715 12.1924 9.9747 12.25 10.3856 12.25C12.7498 12.25 14.6733 10.3435 14.6733 8C14.6733 5.65654 12.7498 3.75 10.3855 3.75C9.97468 3.75 9.57714 3.80758 9.20068 3.91501M5.62771 12.25C3.26345 12.25 1.33997 10.3435 1.33997 8C1.33997 5.65654 3.26342 3.75 5.62768 3.75C7.99194 3.75 9.91542 5.65654 9.91542 8C9.91542 10.3435 7.99197 12.25 5.62771 12.25Z" stroke="black" stroke-width="1.25"/>
</svg>
