<svg width="32" height="32" viewBox="0 0 32 32" fill="none" xmlns="http://www.w3.org/2000/svg">
<path d="M16.0283 14.2636C15.8528 12.0673 14.981 10.2695 14.0097 9.37725C14.5778 9.09322 15.1724 8.32579 15.137 7.84686C13.3207 8.54469 9.71395 7.45612 9.42332 9.09906C9.36219 9.44673 9.52022 9.97668 9.69097 10.129C9.72146 10.0188 9.88095 9.65835 10.3837 9.57753C12.9248 9.17108 15.0463 13.317 13.1313 14.9934C12.1217 15.9596 11.3053 16.2493 11.0233 16.2734C11.0233 16.2734 9.5127 15.3694 9.5127 14.4761C9.5127 13.9623 9.72854 13.4991 10.0747 13.1665C10.1485 13.0965 10.1386 12.978 10.053 12.9226C10.0154 12.8988 9.97813 12.8745 9.94111 12.8496C6.93678 10.8281 4.20007 6.14642 3.90519 5.63214M3.90519 5.63214C3.89149 5.60814 3.8586 5.60328 3.83836 5.62186L3.90519 5.63214ZM3.90519 5.63214C2.23135 7.8488 0.635298 13.9256 7.64181 20.4997C8.10601 21.0525 9.17695 21.0638 9.83246 20.264L12.7522 19.9283M12.7522 19.9283V21.5767C12.9277 22.6268 13.6704 23.0084 14.0197 23.068C14.4327 23.3465 14.8522 23.8956 15.1683 24.8113C13.6149 25.2096 11.6645 26.3064 11.2699 27.5038C11.118 27.9661 11.6198 28.5964 12.2293 28.7233C13.1731 28.956 14.4155 29.3189 16.0283 29.328M12.7522 19.9283C11.2369 19.8471 9.97501 21.3084 11.624 23.7629C11.7688 23.9949 10.2229 24.3667 9.49772 24.2726C8.94514 24.1868 7.83997 24.0947 7.83997 24.4132M7.83997 24.4132C7.83997 24.4132 5.06469 21.6374 5.04163 21.6047L7.83997 24.4132ZM7.83997 24.4132L9.27626 25.8245L10.0109 26.5464L7.83997 24.4132ZM15.9748 14.3891C16.1502 12.2102 17.0224 10.4268 17.9938 9.54161C17.4255 9.25985 16.831 8.49855 16.8662 8.02343C18.683 8.7157 22.2906 7.63582 22.5812 9.26564C22.6424 9.61055 22.4843 10.1363 22.3136 10.2874C22.283 10.178 22.1236 9.82046 21.6207 9.7403C19.079 9.33709 16.957 13.4499 18.8724 15.1129C19.8822 16.0714 20.6989 16.3588 20.981 16.3826C20.981 16.3826 22.4919 15.4859 22.4919 14.5999C22.4919 14.0901 22.276 13.6305 21.9297 13.3006C21.856 13.2312 21.8658 13.1136 21.9514 13.0587C21.989 13.0351 22.0264 13.0109 22.0633 12.9863C25.0684 10.9809 27.8058 6.33655 28.1007 5.82639M28.1007 5.82639C28.1144 5.80258 28.1473 5.79775 28.1675 5.81618L28.1007 5.82639ZM28.1007 5.82639C29.7749 8.02535 31.3713 14.0537 24.3632 20.5752C23.8989 21.1237 22.8277 21.135 22.172 20.3416L19.2517 20.0085M19.2517 20.0085V21.6438C19.0761 22.6854 18.3332 23.064 17.9839 23.1231C17.5707 23.3995 17.1511 23.9442 16.835 24.8526C18.3889 25.2476 20.3396 26.3357 20.7343 27.5236C20.8862 27.9822 20.3843 28.6075 19.7746 28.7334C18.8306 28.9643 17.5879 29.3242 15.9748 29.3333M19.2517 20.0085C20.7674 19.9279 22.0295 21.3775 20.3801 23.8125C20.2352 24.0427 22.759 24.9459 23.4844 24.8526M17.3057 5.86165H14.5592C14.5592 5.86165 14.0781 5.08404 13.9576 4.69893C13.5244 3.313 14.0774 2.66663 14.8867 2.66663H16.9776C17.7871 2.66663 18.3399 3.313 17.9069 4.69893C17.8515 4.87609 17.7196 5.13641 17.5935 5.36518L17.3057 5.86165ZM26.5628 24.3736C26.5628 25.246 25.9281 25.9531 25.1453 25.9531C24.3625 25.9531 23.7279 25.246 23.7279 24.3736C23.7279 23.5013 24.3625 22.7941 25.1453 22.7941C25.9281 22.7941 26.5628 23.5013 26.5628 24.3736Z" stroke="#1C1C1C" stroke-width="1.25" stroke-linecap="round" stroke-linejoin="round"/>
</svg>
