<svg width="40" height="40" viewBox="0 0 40 40" fill="none" xmlns="http://www.w3.org/2000/svg">
<rect width="40" height="40" rx="20" fill="#FF9D9D"/>
<path d="M30.0625 15.625C29.821 15.625 29.625 15.429 29.625 15.1875V11.6875C29.625 10.9639 29.0361 10.375 28.3125 10.375H24.8125C24.571 10.375 24.375 10.179 24.375 9.9375C24.375 9.696 24.571 9.5 24.8125 9.5H28.3125C29.5183 9.5 30.5 10.4809 30.5 11.6875V15.1875C30.5 15.429 30.304 15.625 30.0625 15.625Z" fill="white" stroke="white" stroke-width="0.35"/>
<path d="M28.3125 30.5H24.8125C24.571 30.5 24.375 30.304 24.375 30.0625C24.375 29.821 24.571 29.625 24.8125 29.625H28.3125C29.0361 29.625 29.625 29.0361 29.625 28.3125V24.8125C29.625 24.571 29.821 24.375 30.0625 24.375C30.304 24.375 30.5 24.571 30.5 24.8125V28.3125C30.5 29.5191 29.5183 30.5 28.3125 30.5Z" fill="white" stroke="white" stroke-width="0.35"/>
<path d="M15.1875 30.5H11.6875C10.4818 30.5 9.50002 29.5191 9.50002 28.3125V24.8125C9.50002 24.571 9.69602 24.375 9.93752 24.375C10.179 24.375 10.375 24.571 10.375 24.8125V28.3125C10.375 29.0361 10.9639 29.625 11.6875 29.625H15.1875C15.429 29.625 15.625 29.821 15.625 30.0625C15.625 30.304 15.429 30.5 15.1875 30.5Z" fill="white" stroke="white" stroke-width="0.35"/>
<path d="M9.93752 15.625C9.69602 15.625 9.50002 15.429 9.50002 15.1875V11.6875C9.50002 10.4809 10.4818 9.5 11.6875 9.5H15.1875C15.429 9.5 15.625 9.696 15.625 9.9375C15.625 10.179 15.429 10.375 15.1875 10.375H11.6875C10.9639 10.375 10.375 10.9639 10.375 11.6875V15.1875C10.375 15.429 10.179 15.625 9.93752 15.625Z" fill="white" stroke="white" stroke-width="0.35"/>
<path d="M24.8125 26.125H15.1875C14.4639 26.125 13.875 25.5361 13.875 24.8125V22.1875C13.875 21.946 14.071 21.75 14.3125 21.75C14.554 21.75 14.75 21.946 14.75 22.1875V24.8125C14.75 25.0531 14.946 25.25 15.1875 25.25H24.8125C25.054 25.25 25.25 25.0531 25.25 24.8125V22.1875C25.25 21.946 25.446 21.75 25.6875 21.75C25.929 21.75 26.125 21.946 26.125 22.1875V24.8125C26.125 25.5361 25.5361 26.125 24.8125 26.125Z" fill="white" stroke="white" stroke-width="0.35"/>
<path d="M25.6875 19.125C25.446 19.125 25.25 18.929 25.25 18.6875V15.1875C25.25 14.9469 25.054 14.75 24.8125 14.75H15.1875C14.946 14.75 14.75 14.9469 14.75 15.1875V18.6875C14.75 18.929 14.554 19.125 14.3125 19.125C14.071 19.125 13.875 18.929 13.875 18.6875V15.1875C13.875 14.4639 14.4639 13.875 15.1875 13.875H24.8125C25.5361 13.875 26.125 14.4639 26.125 15.1875V18.6875C26.125 18.929 25.929 19.125 25.6875 19.125Z" fill="white" stroke="white" stroke-width="0.35"/>
<path d="M27.4375 22.625H12.5625C12.321 22.625 12.125 22.429 12.125 22.1875C12.125 21.946 12.321 21.75 12.5625 21.75H27.4375C27.679 21.75 27.875 21.946 27.875 22.1875C27.875 22.429 27.679 22.625 27.4375 22.625Z" fill="white" stroke="white" stroke-width="0.35"/>
</svg>
