<svg width="40" height="40" viewBox="0 0 40 40" fill="none" xmlns="http://www.w3.org/2000/svg">
<rect width="40" height="40" rx="20" fill="#E6ED9C"/>
<path d="M17.1298 11.0188C18.2458 11.7866 20.3822 13.6908 19.9995 15.165M19.9987 15.2362C15.9179 13.4583 11.5 15.9486 11.5 20.2789C11.5 24.802 15.1129 31.6728 19.9987 29.5988C25.1445 31.7437 28.5 24.8025 28.5 20.2789C28.5 15.9113 24.0365 13.5827 19.9987 15.2362ZM24.7827 10.0304C24.7827 10.0519 24.7061 10.3352 24.6126 10.66C24.0218 12.7122 22.8991 13.9239 21.2172 14.3243C20.9797 14.3809 20.726 14.4272 20.6536 14.4272C20.527 14.4272 20.5232 14.4157 20.554 14.1271C20.7528 12.2659 21.7772 11.1304 24.0542 10.2474C24.7379 9.98225 24.7829 9.96884 24.7827 10.0304Z" stroke="white" stroke-width="1.25" stroke-linecap="round" stroke-linejoin="round"/>
</svg>
