<svg width="42" height="42" viewBox="0 0 42 42" fill="none" xmlns="http://www.w3.org/2000/svg">
<path d="M38.5764 11.4489C38.1745 10.7109 37.7275 10.0009 37.239 9.32285" stroke="#E3011B" stroke-width="2" stroke-linecap="round"/>
<path d="M21 0.999999C12.1343 0.999999 4.616 6.76857 1.99363 14.7571C1.3488 16.7214 0.999999 18.82 0.999999 21C0.999999 28.0099 4.60634 34.1774 10.0649 37.7486C13.2076 39.8046 16.9642 41 21 41C32.0457 41 41 32.0457 41 21" stroke="#E3011B" stroke-width="2" stroke-linecap="round"/>
<path fill-rule="evenodd" clip-rule="evenodd" d="M29.904 12.4865C30.456 13.0457 30.456 13.9523 29.904 14.5114L15.0946 29.5134C14.5426 30.0725 13.6477 30.0725 13.0957 29.5134C12.5437 28.9542 12.5437 28.0476 13.0957 27.4885L27.9051 12.4865C28.4571 11.9274 29.352 11.9274 29.904 12.4865Z" fill="#E3011B"/>
<path fill-rule="evenodd" clip-rule="evenodd" d="M13.0958 12.4866C13.6477 11.9275 14.5427 11.9275 15.0947 12.4866L29.9041 27.4886C30.4561 28.0477 30.456 28.9543 29.9041 29.5135C29.3521 30.0726 28.4571 30.0726 27.9052 29.5135L13.0958 14.5115C12.5438 13.9524 12.5438 13.0458 13.0958 12.4866Z" fill="#E3011B"/>
<path d="M35.7015 7.44011C33.4178 4.96543 30.5172 3.06865 27.2439 1.99393" stroke="#E3011B" stroke-width="2" stroke-linecap="round"/>
</svg>
