<svg width="24" height="24" viewBox="0 0 24 24" fill="none" xmlns="http://www.w3.org/2000/svg">
<path d="M21.9999 12.0001H15.9999L13.9999 15.0001H9.99994L7.99994 12.0001H1.99994M21.9999 12.0001V18.0001C21.9999 18.5305 21.7892 19.0392 21.4142 19.4143C21.0391 19.7893 20.5304 20.0001 19.9999 20.0001H3.99994C3.46951 20.0001 2.9608 19.7893 2.58573 19.4143C2.21065 19.0392 1.99994 18.5305 1.99994 18.0001V12.0001M21.9999 12.0001L18.5499 5.11006C18.3844 4.77685 18.1291 4.49643 17.8129 4.30034C17.4967 4.10425 17.132 4.00026 16.7599 4.00006H7.23994C6.86785 4.00026 6.5032 4.10425 6.18698 4.30034C5.87076 4.49643 5.61552 4.77685 5.44994 5.11006L1.99994 12.0001" stroke="#1C1C1C" stroke-width="1.25" stroke-linecap="round" stroke-linejoin="round"/>
</svg>
