<svg width="24" height="24" viewBox="0 0 24 24" fill="none" xmlns="http://www.w3.org/2000/svg">
<path d="M21.6 10H20.96H17.12C15.9337 10 15.2 11.021 15.2 12C15.2 12.979 15.9337 14 17.12 14H20.96H21.6M3.26425 4.96533C2.81737 5.20149 2.60675 5.41059 2.39198 5.83142C2.21025 6.18748 2.20001 6.51577 2.20001 11.9928C2.20001 17.4699 2.21025 17.7982 2.39198 18.1543C2.61152 18.5844 2.82386 18.7916 3.28452 19.0248C3.57592 19.1724 4.46714 19.1891 12.0305 19.1891C20.0944 19.1891 20.4681 19.181 20.8282 18.9972C21.2584 18.7776 21.4655 18.5653 21.6988 18.1046C21.8445 17.8168 21.8631 17.1275 21.8631 11.9928C21.8631 6.85816 21.8445 6.16893 21.6988 5.88108C21.4655 5.42042 21.2584 5.20808 20.8282 4.98854C20.4679 4.80458 20.0985 4.79678 12.0103 4.80063C4.50535 4.80428 3.53457 4.82252 3.26425 4.96533ZM17.4 11.7C17.5657 11.7 17.7 11.8343 17.7 12C17.7 12.1657 17.5657 12.3 17.4 12.3C17.2344 12.3 17.1 12.1657 17.1 12C17.1 11.8343 17.2344 11.7 17.4 11.7Z" stroke="#1C1C1C" stroke-width="1.25"/>
</svg>
