<svg width="16" height="16" viewBox="0 0 16 16" fill="none" xmlns="http://www.w3.org/2000/svg">
<g clip-path="url(#clip0_481_3419)">
<path d="M5.33344 12.6666V13.9999M5.33344 8.66656V9.99989M10.6668 12.6666V13.9999M10.6668 8.66656V9.99989M8.0001 13.9999V15.3332M8.0001 9.99989V11.3332M13.3334 11.0532C14.0343 10.7463 14.6082 10.2076 14.9588 9.52759C15.3095 8.84757 15.4155 8.06763 15.2592 7.31868C15.1028 6.56973 14.6936 5.89737 14.1001 5.41445C13.5067 4.93153 12.7652 4.66746 12.0001 4.66656H11.1601C10.9488 3.84824 10.546 3.09186 9.98498 2.45976C9.42395 1.82766 8.72073 1.33794 7.93328 1.03097C7.14583 0.724001 6.29671 0.608568 5.45589 0.694186C4.61507 0.779804 3.80664 1.06402 3.09723 1.52341C2.38782 1.9828 1.79775 2.60421 1.37564 3.33642C0.953534 4.06863 0.711485 4.89067 0.669445 5.73479C0.627404 6.57891 0.786576 7.42093 1.13384 8.19146C1.4811 8.96199 2.00652 9.63895 2.66677 10.1666" stroke="#1C1C1C" stroke-width="1.25" stroke-linecap="round" stroke-linejoin="round"/>
</g>
<defs>
<clipPath id="clip0_481_3419">
<rect width="16" height="16" fill="white"/>
</clipPath>
</defs>
</svg>
