<svg width="16" height="16" viewBox="0 0 16 16" fill="none" xmlns="http://www.w3.org/2000/svg">
<path d="M11.9999 5.33341H12.6666C13.3738 5.33341 14.0521 5.61437 14.5522 6.11446C15.0523 6.61456 15.3333 7.29284 15.3333 8.00008C15.3333 8.70732 15.0523 9.3856 14.5522 9.8857C14.0521 10.3858 13.3738 10.6667 12.6666 10.6667H11.9999M11.9999 5.33341H1.33325V11.3334C1.33325 12.0407 1.6142 12.7189 2.1143 13.219C2.6144 13.7191 3.29267 14.0001 3.99992 14.0001H9.33325C10.0405 14.0001 10.7188 13.7191 11.2189 13.219C11.719 12.7189 11.9999 12.0407 11.9999 11.3334V5.33341ZM3.99992 0.666748V2.66675M6.66659 0.666748V2.66675M9.33325 0.666748V2.66675" stroke="#1C1C1C" stroke-width="1.25" stroke-linecap="round" stroke-linejoin="round"/>
</svg>
