<svg width="24" height="24" viewBox="0 0 24 24" fill="none" xmlns="http://www.w3.org/2000/svg">
<path d="M20.0492 4.674L5.60568 19.1175M17.6778 17.1363V18.971L18.901 19.5826M10.0266 5.51328C10.0266 7.45361 8.45362 9.02655 6.51328 9.02655C4.57295 9.02655 3 7.45361 3 5.51328C3 3.57295 4.57295 2 6.51328 2C8.45362 2 10.0266 3.57295 10.0266 5.51328Z" stroke="#1C1C1C" stroke-width="1.25" stroke-linecap="round" stroke-linejoin="round"/>
<path d="M15.3437 21.3624C15.9934 21.9548 16.8343 22.2943 17.7133 22.319C18.5922 22.3436 19.4509 22.0518 20.1328 21.4967C20.8147 20.9415 21.2746 20.1599 21.4287 19.2942C21.5829 18.4285 21.421 17.5363 20.9726 16.7799C20.5243 16.0234 19.8192 15.4532 18.9857 15.1729C18.1522 14.8927 17.2458 14.921 16.4315 15.2528C15.6172 15.5846 14.9491 16.1978 14.5489 16.9808C14.1486 17.7637 14.0428 18.6644 14.2508 19.5188M15.3437 21.3624L16.3017 21.2647M15.3437 21.3624L15.3437 22.319" stroke="#1C1C1C" stroke-width="1.25" stroke-linecap="round" stroke-linejoin="round"/>
</svg>
