<svg width="48" height="48" viewBox="0 0 48 48" fill="none" xmlns="http://www.w3.org/2000/svg">
<path d="M10.8 15.8689L14.7135 22.1029V25.9054L10.8046 32.1272L10.8 15.8689Z" fill="#5B57A2"/>
<path d="M25.8262 19.8343L29.4932 17.8313L36.9981 17.8251L25.8262 23.9244V19.8343Z" fill="#D90751"/>
<path d="M25.8054 15.832L25.8261 24.0856L21.9035 21.9376V9.59998L25.8057 15.832H25.8054Z" fill="#FAB718"/>
<path d="M36.9981 17.825L29.4929 17.8312L25.8054 15.832L21.9035 9.59998L36.9978 17.825H36.9981Z" fill="#ED6F26"/>
<path d="M25.8261 32.1616V28.1572L21.9035 26.05L21.9057 38.3999L25.8261 32.1616Z" fill="#63B22F"/>
<path d="M29.484 30.1769L14.7132 22.1029L10.8 15.8689L36.9822 30.1688L29.4838 30.1769H29.484Z" fill="#1487C9"/>
<path d="M21.9056 38.3999L25.8256 32.1617L29.4835 30.1769L36.9816 30.1687L21.9056 38.3999Z" fill="#017F36"/>
<path d="M10.8047 32.127L21.9357 26.0503L18.1935 24.004L14.7136 25.9053L10.8047 32.127Z" fill="#984995"/>
</svg>
