<svg width="48" height="48" viewBox="0 0 48 48" fill="none" xmlns="http://www.w3.org/2000/svg">
<path d="M25.6538 28.9012H34.3756M34.3756 28.9012L31.0673 25.6338M34.3756 28.9012L31.0673 32.1685" stroke="#FF3636" stroke-width="1.25" stroke-linecap="round" stroke-linejoin="round"/>
<path d="M15.1279 24.0815V21.4752C15.1279 20.1629 16.194 19.099 17.5091 19.099H41.6188C42.9339 19.099 44 20.1629 44 21.4752V36.6238C44 37.9362 42.9339 39.0001 41.6188 39.0001H17.5091C16.194 39.0001 15.1279 37.9362 15.1279 36.6238V33.9338" stroke="white" stroke-width="1.25" stroke-linecap="round" stroke-linejoin="round"/>
<path d="M30.7668 28.9011C17.9647 28.9011 6.40601 28.9011 6.40601 28.9011C5.76789 28.9011 5.15592 28.6507 4.7047 28.2051C4.25349 27.7595 4 27.155 4 26.5248V11.3762C4 10.746 4.25349 10.1416 4.7047 9.69599C5.15592 9.25035 5.76789 9 6.40601 9H30.7668C31.4049 9 32.0169 9.25035 32.4681 9.69599C32.9193 10.1416 33.1728 10.746 33.1728 11.3762V13.3337" stroke="#FF3636" stroke-width="1.25" stroke-linecap="round" stroke-linejoin="round"/>
</svg>
