<svg width="48" height="48" viewBox="0 0 48 48" fill="none" xmlns="http://www.w3.org/2000/svg">
<path d="M25.6538 28.9012H34.3756M34.3756 28.9012L31.0673 25.6338M34.3756 28.9012L31.0673 32.1685" stroke="#FF3636" stroke-width="1.25" stroke-linecap="round" stroke-linejoin="round"/>
<path d="M14.5029 24.0815C14.5029 24.4267 14.7828 24.7065 15.1279 24.7065C15.4731 24.7065 15.7529 24.4267 15.7529 24.0815H14.5029ZM15.7529 33.9338C15.7529 33.5886 15.4731 33.3088 15.1279 33.3088C14.7828 33.3088 14.5029 33.5886 14.5029 33.9338H15.7529ZM17.5091 19.724H41.6188V18.474H17.5091V19.724ZM41.6188 19.724C42.5899 19.724 43.375 20.5093 43.375 21.4752H44.625C44.625 19.8165 43.2778 18.474 41.6188 18.474V19.724ZM43.375 21.4752V36.6238H44.625V21.4752H43.375ZM43.375 36.6238C43.375 37.5898 42.5899 38.3751 41.6188 38.3751V39.6251C43.2778 39.6251 44.625 38.2826 44.625 36.6238H43.375ZM41.6188 38.3751H17.5091V39.6251H41.6188V38.3751ZM17.5091 38.3751C16.538 38.3751 15.7529 37.5898 15.7529 36.6238H14.5029C14.5029 38.2826 15.8501 39.6251 17.5091 39.6251V38.3751ZM15.7529 21.4752C15.7529 20.5093 16.538 19.724 17.5091 19.724V18.474C15.8501 18.474 14.5029 19.8165 14.5029 21.4752H15.7529ZM15.7529 24.0815V21.4752H14.5029V24.0815H15.7529ZM15.7529 36.6238V33.9338H14.5029V36.6238H15.7529Z" fill="white"/>
<path d="M30.7668 28.9011C17.9647 28.9011 6.40601 28.9011 6.40601 28.9011C5.76789 28.9011 5.15592 28.6507 4.7047 28.2051C4.25349 27.7595 4 27.155 4 26.5248V11.3762C4 10.746 4.25349 10.1416 4.7047 9.69599C5.15592 9.25035 5.76789 9 6.40601 9H30.7668C31.4049 9 32.0169 9.25035 32.4681 9.69599C32.9193 10.1416 33.1728 10.746 33.1728 11.3762V13.3337" stroke="#FF3636" stroke-width="1.25" stroke-linecap="round" stroke-linejoin="round"/>
</svg>
