<svg width="24" height="24" viewBox="0 0 24 24" fill="none" xmlns="http://www.w3.org/2000/svg">
<path d="M17.7143 0.999756H6.28571C5.02335 0.999756 4 1.98473 4 3.19976V20.7998C4 22.0148 5.02335 22.9998 6.28571 22.9998H17.7143C18.9766 22.9998 20 22.0148 20 20.7998V3.19976C20 1.98473 18.9766 0.999756 17.7143 0.999756Z" stroke="#1C1C1C" stroke-width="1.25" stroke-linecap="round" stroke-linejoin="round"/>
<path d="M16.6667 17.25V16.0833C16.6667 15.4645 16.4209 14.871 15.9833 14.4334C15.5457 13.9958 14.9522 13.75 14.3334 13.75H9.66671C9.04787 13.75 8.45438 13.9958 8.01679 14.4334C7.57921 14.871 7.33337 15.4645 7.33337 16.0833V17.25" stroke="#1C1C1C" stroke-width="1.25" stroke-linecap="round" stroke-linejoin="round"/>
<path d="M12 11.4167C13.2887 11.4167 14.3334 10.372 14.3334 9.08333C14.3334 7.79467 13.2887 6.75 12 6.75C10.7114 6.75 9.66671 7.79467 9.66671 9.08333C9.66671 10.372 10.7114 11.4167 12 11.4167Z" stroke="#1C1C1C" stroke-width="1.25" stroke-linecap="round" stroke-linejoin="round"/>
</svg>
