<svg width="28" height="28" viewBox="0 0 28 28" fill="none" xmlns="http://www.w3.org/2000/svg">
<path opacity="0.8" d="M17.4932 14.0004C17.4932 18.8335 13.5779 22.7496 8.74658 22.7496C3.91523 22.7496 0 18.8326 0 14.0004C0 9.16818 3.91619 5.25122 8.74658 5.25122C13.577 5.25122 17.4932 9.16818 17.4932 14.0004Z" fill="#3D3D45"/>
<path opacity="0.5" d="M19.2508 5.25122C17.2892 5.25122 15.4833 5.9048 14.024 6.99585L14.031 6.99672C14.318 7.27404 14.6347 7.46922 14.8788 7.78848L13.0589 7.81736C12.7737 8.10524 12.5139 8.41845 12.2689 8.74394H15.4781C15.7222 9.037 15.9479 9.29167 16.1526 9.61534H11.6871C11.5235 9.89708 11.3722 10.1867 11.24 10.4876H16.661C16.8028 10.7877 16.9296 11.0143 17.0373 11.332H10.9189C10.8218 11.6338 10.7387 11.9426 10.6757 12.2576H17.2936C17.3584 12.5603 17.4082 12.8402 17.4423 13.1255H10.5444C10.5155 13.4134 10.5007 13.7056 10.5007 14.0005H17.4921C17.4921 14.3102 17.4703 14.5972 17.4388 14.8754H10.5444C10.5742 15.172 10.6179 15.4634 10.6757 15.7504H17.283C17.2148 16.0339 17.136 16.319 17.0372 16.6148H10.8988C10.9915 16.914 11.1044 17.2045 11.2277 17.4879H16.661C16.5106 17.8064 16.34 18.061 16.1519 18.3593H11.6715C11.8482 18.6655 12.0433 18.9577 12.255 19.2377L15.4781 19.2858C15.2034 19.6156 14.8509 19.8143 14.5297 20.103C14.5472 20.117 14.0161 20.1013 12.9705 20.0847C14.5612 21.7261 16.7843 22.7496 19.2507 22.7496C24.0829 22.7496 27.9999 18.8326 27.9999 14.0005C27.9999 9.16837 24.0838 5.25122 19.2508 5.25122Z" fill="#999999"/>
</svg>
