<svg width="16" height="16" viewBox="0 0 16 16" fill="none" xmlns="http://www.w3.org/2000/svg">
<path d="M0.666748 0.666748L15.3334 15.3334M10.1867 10.1867C9.96548 10.5101 9.67567 10.7807 9.33794 10.9794C9.00021 11.178 8.62285 11.2998 8.23271 11.3361C7.84257 11.3723 7.44923 11.3222 7.08068 11.1891C6.71213 11.0561 6.37742 10.8435 6.10036 10.5665C5.8233 10.2894 5.6107 9.9547 5.47768 9.58615C5.34467 9.21759 5.2945 8.82426 5.33075 8.43412C5.367 8.04398 5.48879 7.66662 5.68743 7.32889C5.88608 6.99115 6.15672 6.70135 6.48008 6.48008M14.0001 14.0001H2.00008C1.64646 14.0001 1.30732 13.8596 1.05727 13.6096C0.807224 13.3595 0.666748 13.0204 0.666748 12.6667V5.33341C0.666748 4.97979 0.807224 4.64065 1.05727 4.39061C1.30732 4.14056 1.64646 4.00008 2.00008 4.00008H4.00008L14.0001 14.0001ZM6.00008 2.00008H10.0001L11.3334 4.00008H14.0001C14.3537 4.00008 14.6928 4.14056 14.9429 4.39061C15.1929 4.64065 15.3334 4.97979 15.3334 5.33341V11.5601L6.00008 2.00008Z" stroke="#1C1C1C" stroke-width="1.25" stroke-linecap="round" stroke-linejoin="round"/>
</svg>
