<svg width="24" height="24" viewBox="0 0 24 24" fill="none" xmlns="http://www.w3.org/2000/svg">
<path d="M11.9999 22C17.5228 22 21.9999 17.5229 21.9999 12C21.9999 6.4772 17.5228 2.00005 11.9999 2.00005C6.47709 2.00005 1.99994 6.4772 1.99994 12C1.99994 17.5229 6.47709 22 11.9999 22Z" stroke="#1C1C1C" stroke-width="1.25" stroke-linecap="round" stroke-linejoin="round"/>
<path d="M11.9999 18C15.3136 18 17.9999 15.3138 17.9999 12C17.9999 8.68634 15.3136 6.00005 11.9999 6.00005C8.68623 6.00005 5.99994 8.68634 5.99994 12C5.99994 15.3138 8.68623 18 11.9999 18Z" stroke="#1C1C1C" stroke-width="1.25" stroke-linecap="round" stroke-linejoin="round"/>
<path d="M11.9999 14C13.1045 14 13.9999 13.1046 13.9999 12C13.9999 10.8955 13.1045 10 11.9999 10C10.8954 10 9.99994 10.8955 9.99994 12C9.99994 13.1046 10.8954 14 11.9999 14Z" stroke="#1C1C1C" stroke-width="1.25" stroke-linecap="round" stroke-linejoin="round"/>
</svg>
