<svg width="40" height="40" viewBox="0 0 40 40" fill="none" xmlns="http://www.w3.org/2000/svg">
<rect width="40" height="40" rx="20" fill="#FF9D9D"/>
<path d="M24.3614 15.6386L20 20L15.6386 24.3614M30 20C30 25.5228 25.5228 30 20 30C14.4772 30 10 25.5228 10 20C10 14.4772 14.4772 10 20 10C25.5228 10 30 14.4772 30 20ZM18.1308 16.5732C18.1308 17.4335 17.4335 18.1308 16.5732 18.1308C15.713 18.1308 15.0156 17.4335 15.0156 16.5732C15.0156 15.713 15.713 15.0156 16.5732 15.0156C17.4335 15.0156 18.1308 15.713 18.1308 16.5732ZM24.9844 23.4268C24.9844 24.287 24.287 24.9844 23.4268 24.9844C22.5665 24.9844 21.8692 24.287 21.8692 23.4268C21.8692 22.5665 22.5665 21.8692 23.4268 21.8692C24.287 21.8692 24.9844 22.5665 24.9844 23.4268Z" stroke="white" stroke-width="1.25" stroke-linecap="round"/>
</svg>
