<svg width="16" height="16" viewBox="0 0 16 16" fill="none" xmlns="http://www.w3.org/2000/svg">
<path d="M12 6.66675H11.16C10.9106 5.70075 10.3952 4.82407 9.67246 4.13634C8.94969 3.44862 8.04851 2.97741 7.07131 2.77627C6.09412 2.57512 5.0801 2.65211 4.14447 2.99848C3.20884 3.34484 2.38913 3.9467 1.77847 4.73567C1.16781 5.52463 0.790693 6.46907 0.689971 7.46165C0.589249 8.45424 0.76896 9.45517 1.20868 10.3507C1.64841 11.2463 2.33051 12.0005 3.17749 12.5278C4.02446 13.055 5.00235 13.3342 6.00003 13.3334H12C12.8841 13.3334 13.7319 12.9822 14.3571 12.3571C14.9822 11.732 15.3334 10.8841 15.3334 10.0001C15.3334 9.11603 14.9822 8.26818 14.3571 7.64306C13.7319 7.01794 12.8841 6.66675 12 6.66675Z" stroke="#1C1C1C" stroke-width="1.25" stroke-linecap="round" stroke-linejoin="round"/>
</svg>
