<svg width="32" height="32" viewBox="0 0 32 32" fill="none" xmlns="http://www.w3.org/2000/svg">
<path fill-rule="evenodd" clip-rule="evenodd" d="M24.6112 8.90182H20.9297C20.3886 6.61505 18.3468 5 15.9968 5C13.6469 5 11.6051 6.61505 11.0639 8.90182H7.38249C6.75061 8.90182 6.14462 9.15283 5.69782 9.59964C5.25101 10.0464 5 10.6524 5 11.2843V20.3581C5 21.6739 6.06668 22.7405 7.38249 22.7405H18.3255L22.2034 25.8644C22.3934 26.0186 22.6553 26.0495 22.8761 25.9439C23.0968 25.8382 23.237 25.6149 23.2362 25.3702V22.7405H25.587C26.4171 22.7405 27 21.7584 27 20.3581V11.2843C27 10.6513 26.7481 10.0444 26.3 9.59739C25.8518 9.15041 25.2442 8.90014 24.6112 8.90182ZM13.2944 7.4191C14.5769 6.13815 16.5854 5.94082 18.0927 6.94767C19.6 7.95452 20.1869 9.88548 19.4948 11.5608C18.8026 13.2361 17.024 14.1898 15.2456 13.8391C13.4671 13.4885 12.1836 11.9311 12.1791 10.1184C12.1767 9.10604 12.5781 8.1345 13.2944 7.4191ZM25.4793 21.4733C25.6632 21.1315 25.7488 20.7455 25.7264 20.3581L25.701 11.2843C25.701 10.6684 25.2017 10.1691 24.5858 10.1691H21.0501C21.0501 12.9687 18.7806 15.2382 15.981 15.2382C13.1814 15.2382 10.9119 12.9687 10.9119 10.1691H7.37614C6.76022 10.1691 6.26093 10.6684 6.26093 11.2843V20.3581C6.26093 20.974 6.76022 21.4733 7.37614 21.4733H18.5472C18.6923 21.4726 18.8332 21.5219 18.9464 21.6127L21.9689 24.0458V22.1069C21.9689 21.757 22.2526 21.4733 22.6025 21.4733H25.4793Z" fill="#999999"/>
<circle cx="14.5" cy="10.1689" r="0.75" fill="#999999"/>
<circle cx="17.5" cy="10.1689" r="0.75" fill="#999999"/>
</svg>
