<svg width="64" height="64" viewBox="0 0 64 64" fill="none" xmlns="http://www.w3.org/2000/svg">
<path d="M0 32C0 14.3269 14.3269 0 32 0C49.6731 0 64 14.3269 64 32C64 49.6731 49.6731 64 32 64C14.3269 64 0 49.6731 0 32Z" fill="#FF9D9D"/>
<path d="M42.6884 16H21.311C20.145 16 19.1997 16.9025 19.1997 18.0157V45.9842C19.1997 47.0975 20.145 48 21.311 48H42.6884C43.8544 48 44.7997 47.0975 44.7997 45.9842V18.0157C44.7997 16.9025 43.8544 16 42.6884 16Z" stroke="white" stroke-width="1.25" stroke-linecap="round" stroke-linejoin="round"/>
<path d="M40.5775 21.3333C34.0843 21.3333 23.9507 21.3333 23.9507 21.3333" stroke="white" stroke-width="1.25" stroke-linecap="round" stroke-linejoin="round"/>
<path d="M31.8682 25.7778C28.7762 25.7778 23.9507 25.7778 23.9507 25.7778" stroke="white" stroke-width="1.25" stroke-linecap="round" stroke-linejoin="round"/>
</svg>
