<svg width="32" height="32" viewBox="0 0 32 32" fill="none" xmlns="http://www.w3.org/2000/svg">
<path fill-rule="evenodd" clip-rule="evenodd" d="M2.54245 19.5091C2.21042 21.1362 3.45377 22.6589 5.11445 22.6589H11.4661C11.6751 22.6589 11.8702 22.5545 11.9861 22.3806L14.0676 19.2584H17.9326L20.0141 22.3806C20.13 22.5545 20.3251 22.6589 20.5341 22.6589H26.8858C28.5465 22.6589 29.7898 21.1362 29.4578 19.5091L27.9593 12.166C27.9422 11.4233 27.6396 10.7145 27.1131 10.188C26.5707 9.64563 25.8351 9.34094 25.0681 9.34094H6.93211C6.1651 9.34094 5.42951 9.64563 4.88716 10.188C4.36059 10.7146 4.05805 11.4233 4.04088 12.166L2.54245 19.5091ZM5.11445 21.4089C4.24457 21.4089 3.59329 20.6113 3.76721 19.759L5.27749 12.3579C5.28588 12.3168 5.29011 12.2749 5.29011 12.2329C5.29011 11.7975 5.46311 11.3798 5.77104 11.0719C6.07898 10.7639 6.49663 10.5909 6.93211 10.5909H25.0681C25.5036 10.5909 25.9212 10.7639 26.2292 11.0719C26.5371 11.3798 26.7101 11.7975 26.7101 12.2329C26.7101 12.2749 26.7143 12.3168 26.7227 12.3579L28.233 19.759C28.4069 20.6113 27.7557 21.4089 26.8858 21.4089H20.8686L18.7871 18.2867C18.6712 18.1129 18.4761 18.0084 18.2671 18.0084H13.7331C13.5241 18.0084 13.329 18.1129 13.2131 18.2867L11.1316 21.4089H5.11445Z" fill="#3D3D45"/>
<path fill-rule="evenodd" clip-rule="evenodd" d="M22.75 14.625C21.9906 14.625 21.375 15.2406 21.375 16C21.375 16.7594 21.9906 17.375 22.75 17.375C23.5094 17.375 24.125 16.7594 24.125 16C24.125 15.2406 23.5094 14.625 22.75 14.625ZM20.125 16C20.125 14.5503 21.3003 13.375 22.75 13.375C24.1997 13.375 25.375 14.5503 25.375 16C25.375 17.4497 24.1997 18.625 22.75 18.625C21.3003 18.625 20.125 17.4497 20.125 16Z" fill="#3D3D45"/>
<path fill-rule="evenodd" clip-rule="evenodd" d="M8.75 13.875C9.09518 13.875 9.375 14.1548 9.375 14.5V15.375H10.25C10.5952 15.375 10.875 15.6548 10.875 16C10.875 16.3452 10.5952 16.625 10.25 16.625H9.375V17.5C9.375 17.8452 9.09518 18.125 8.75 18.125C8.40482 18.125 8.125 17.8452 8.125 17.5L8.125 16.625H7.25C6.90482 16.625 6.625 16.3452 6.625 16C6.625 15.6548 6.90482 15.375 7.25 15.375H8.125V14.5C8.125 14.1548 8.40482 13.875 8.75 13.875Z" fill="#3D3D45"/>
</svg>
