<svg width="40" height="40" viewBox="0 0 40 40" fill="none" xmlns="http://www.w3.org/2000/svg">
<rect width="40" height="40" rx="20" fill="#BDA6FF"/>
<path d="M18.9906 24.2583L18.7694 24.143C18.2026 23.8476 17.2778 22.9761 16.7633 22.2526C15.0547 19.8498 14.0367 16.1405 14.5205 14.0809C15.0155 11.9741 17.0205 10.3312 19.4615 10.0325C20.2133 9.94045 21.1358 10.0462 21.9889 10.3221C23.8002 10.908 25.2459 12.3956 25.6418 14.0809C25.8412 14.9296 25.7631 16.4652 25.4545 17.7648C25.1185 19.1797 24.4555 20.7537 23.7157 21.8927C23.234 22.6342 22.2247 23.6771 21.6994 23.9761C21.4839 24.0987 21.3082 24.2193 21.309 24.2442M18.9906 24.2583L19.2216 24.55C18.9802 24.9308 18.5502 25.3579 18.7715 25.582C18.9208 25.7333 18.9706 25.7393 20.0806 25.7393C21.3519 25.7393 21.4007 25.7242 21.5475 25.285L21.1311 24.55M18.9906 24.2583H20.0806L21.309 24.2442M19.5048 30C19.7609 29.1076 20.1203 28.7319 21.3023 28.1213C22.577 27.4627 23.1472 26.8545 23.1472 26.1536C23.1472 25.5298 22.0303 24.9962 21.1311 24.55M21.1311 24.55C20.876 24.4234 21.3098 24.269 21.309 24.2442" stroke="white" stroke-width="1.25" stroke-linecap="round" stroke-linejoin="round"/>
</svg>
