<svg width="16" height="16" viewBox="0 0 16 16" fill="none" xmlns="http://www.w3.org/2000/svg">
<g clip-path="url(#clip0_481_3473)">
<path d="M3.28659 3.28659L6.11325 6.11325M9.88658 9.88659L12.7133 12.7133M12.7133 3.28659L9.88658 6.11325L12.2399 3.75992M3.28659 12.7133L6.11325 9.88659M14.6666 7.99992C14.6666 11.6818 11.6818 14.6666 7.99992 14.6666C4.31802 14.6666 1.33325 11.6818 1.33325 7.99992C1.33325 4.31802 4.31802 1.33325 7.99992 1.33325C11.6818 1.33325 14.6666 4.31802 14.6666 7.99992ZM10.6666 7.99992C10.6666 9.47268 9.47268 10.6666 7.99992 10.6666C6.52716 10.6666 5.33325 9.47268 5.33325 7.99992C5.33325 6.52716 6.52716 5.33325 7.99992 5.33325C9.47268 5.33325 10.6666 6.52716 10.6666 7.99992Z" stroke="#1C1C1C" stroke-width="1.25" stroke-linecap="round" stroke-linejoin="round"/>
</g>
<defs>
<clipPath id="clip0_481_3473">
<rect width="16" height="16" fill="white"/>
</clipPath>
</defs>
</svg>
