<svg width="40" height="40" viewBox="0 0 40 40" fill="none" xmlns="http://www.w3.org/2000/svg">
<path d="M0 20C0 8.95431 8.95431 0 20 0V0C31.0457 0 40 8.95431 40 20V20C40 31.0457 31.0457 40 20 40V40C8.95431 40 0 31.0457 0 20V20Z" fill="#FF9D9D"/>
<path d="M27.0024 20.565C27.3131 20.565 27.5649 20.3132 27.5649 20.0025C27.5649 19.6918 27.3131 19.44 27.0024 19.44C26.6918 19.44 26.4399 19.6918 26.4399 20.0025C26.4399 20.3132 26.6918 20.565 27.0024 20.565Z" fill="white" stroke="white" stroke-width="1.25" stroke-linecap="round" stroke-linejoin="round"/>
<path opacity="0.3" d="M13.0024 20.565C13.3131 20.565 13.5649 20.3132 13.5649 20.0025C13.5649 19.6918 13.3131 19.44 13.0024 19.44C12.6918 19.44 12.4399 19.6918 12.4399 20.0025C12.4399 20.3132 12.6918 20.565 13.0024 20.565Z" fill="white" stroke="white" stroke-width="1.25" stroke-linecap="round" stroke-linejoin="round"/>
<path opacity="0.6" d="M20.0024 20.565C20.3131 20.565 20.5649 20.3132 20.5649 20.0025C20.5649 19.6918 20.3131 19.44 20.0024 19.44C19.6918 19.44 19.4399 19.6918 19.4399 20.0025C19.4399 20.3132 19.6918 20.565 20.0024 20.565Z" fill="white" stroke="white" stroke-width="1.25" stroke-linecap="round" stroke-linejoin="round"/>
</svg>
