<svg width="16" height="16" viewBox="0 0 16 16" fill="none" xmlns="http://www.w3.org/2000/svg">
<path d="M14.6666 8.00008H1.33325M14.6666 8.00008V12.0001C14.6666 12.3537 14.5261 12.6928 14.2761 12.9429C14.026 13.1929 13.6869 13.3334 13.3333 13.3334H2.66659C2.31296 13.3334 1.97382 13.1929 1.72378 12.9429C1.47373 12.6928 1.33325 12.3537 1.33325 12.0001V8.00008M14.6666 8.00008L12.3666 3.40675C12.2562 3.18461 12.086 2.99766 11.8752 2.86693C11.6644 2.73621 11.4213 2.66688 11.1733 2.66675H4.82658C4.57853 2.66688 4.33543 2.73621 4.12461 2.86693C3.9138 2.99766 3.74364 3.18461 3.63325 3.40675L1.33325 8.00008M3.99992 10.6667H4.00659M6.66658 10.6667H6.67325" stroke="#1C1C1C" stroke-width="1.25" stroke-linecap="round" stroke-linejoin="round"/>
</svg>
