<svg width="24" height="24" viewBox="0 0 24 24" fill="none" xmlns="http://www.w3.org/2000/svg">
<path d="M10.6601 4.99996H14.0001C14.5305 4.99996 15.0392 5.21067 15.4143 5.58575C15.7893 5.96082 16.0001 6.46953 16.0001 6.99996V10.34L17.0001 11.34L23.0001 6.99996V17M1.00006 0.99996L23.0001 23M16.0001 16V17C16.0001 17.5304 15.7893 18.0391 15.4143 18.4142C15.0392 18.7892 14.5305 19 14.0001 19H3.00006C2.46963 19 1.96092 18.7892 1.58585 18.4142C1.21077 18.0391 1.00006 17.5304 1.00006 17V6.99996C1.00006 6.46953 1.21077 5.96082 1.58585 5.58575C1.96092 5.21067 2.46963 4.99996 3.00006 4.99996H5.00006L16.0001 16Z" stroke="#1C1C1C" stroke-width="1.25" stroke-linecap="round" stroke-linejoin="round"/>
</svg>
