<svg width="16" height="16" viewBox="0 0 16 16" fill="none" xmlns="http://www.w3.org/2000/svg">
<path d="M7.99992 1.33325H5.66659C5.04775 1.33325 4.45425 1.57908 4.01667 2.01667C3.57908 2.45425 3.33325 3.04775 3.33325 3.66659C3.33325 4.28542 3.57908 4.87892 4.01667 5.3165C4.45425 5.75409 5.04775 5.99992 5.66659 5.99992M7.99992 1.33325V5.99992M7.99992 1.33325H10.3333C10.6397 1.33325 10.9431 1.39361 11.2262 1.51087C11.5093 1.62813 11.7665 1.8 11.9832 2.01667C12.1998 2.23334 12.3717 2.49056 12.489 2.77366C12.6062 3.05675 12.6666 3.36017 12.6666 3.66659C12.6666 3.973 12.6062 4.27642 12.489 4.55951C12.3717 4.84261 12.1998 5.09983 11.9832 5.3165C11.7665 5.53317 11.5093 5.70504 11.2262 5.8223C10.9431 5.93957 10.6397 5.99992 10.3333 5.99992M7.99992 5.99992H5.66659M7.99992 5.99992H10.3333M7.99992 5.99992V10.6666M5.66659 5.99992C5.04775 5.99992 4.45425 6.24575 4.01667 6.68334C3.57908 7.12092 3.33325 7.71441 3.33325 8.33325C3.33325 8.95209 3.57908 9.54558 4.01667 9.98317C4.45425 10.4208 5.04775 10.6666 5.66659 10.6666M10.3333 5.99992C10.0268 5.99992 9.72342 6.06027 9.44032 6.17753C9.15723 6.29479 8.90001 6.46667 8.68334 6.68334C8.46667 6.90001 8.29479 7.15723 8.17753 7.44032C8.06027 7.72342 7.99992 8.02683 7.99992 8.33325C7.99992 8.63967 8.06027 8.94309 8.17753 9.22618C8.29479 9.50927 8.46667 9.7665 8.68334 9.98317C8.90001 10.1998 9.15723 10.3717 9.44032 10.489C9.72342 10.6062 10.0268 10.6666 10.3333 10.6666C10.6397 10.6666 10.9431 10.6062 11.2262 10.489C11.5093 10.3717 11.7665 10.1998 11.9832 9.98317C12.1998 9.7665 12.3717 9.50927 12.489 9.22618C12.6062 8.94309 12.6666 8.63967 12.6666 8.33325C12.6666 8.02683 12.6062 7.72342 12.489 7.44032C12.3717 7.15723 12.1998 6.90001 11.9832 6.68334C11.7665 6.46667 11.5093 6.29479 11.2262 6.17753C10.9431 6.06027 10.6397 5.99992 10.3333 5.99992ZM5.66659 10.6666C5.04775 10.6666 4.45425 10.9124 4.01667 11.35C3.57908 11.7876 3.33325 12.3811 3.33325 12.9999C3.33325 13.6188 3.57908 14.2123 4.01667 14.6498C4.45425 15.0874 5.04775 15.3333 5.66659 15.3333C6.28542 15.3333 6.87892 15.0874 7.3165 14.6498C7.75409 14.2123 7.99992 13.6188 7.99992 12.9999V10.6666M5.66659 10.6666H7.99992" stroke="#1C1C1C" stroke-width="1.25" stroke-linecap="round" stroke-linejoin="round"/>
</svg>
