<svg width="16" height="16" viewBox="0 0 16 16" fill="none" xmlns="http://www.w3.org/2000/svg">
<path d="M4.47949 4.40704L3.26677 3.24279M10.9104 4.40704L12.1231 3.24279M1.29487 7.66998L2.97599 7.66802M12.364 7.67218L14.0451 7.67022M7.69172 3.00637L7.65744 1.32559M9.04859 11.6918L6.29594 11.6875M7.67421 5.26458V6.6811M7.66982 8.57974V9.23461M14.34 7.67C14.34 11.3537 11.3537 14.34 7.67 14.34C3.98626 14.34 1 11.3537 1 7.67C1 3.98626 3.98626 1 7.67 1C11.3537 1 14.34 3.98626 14.34 7.67ZM8.57939 7.67001C8.57939 8.17233 8.17217 8.57955 7.66984 8.57955C7.16751 8.57955 6.7603 8.17233 6.7603 7.67001C6.7603 7.16768 7.16751 6.76046 7.66984 6.76046C8.17217 6.76046 8.57939 7.16768 8.57939 7.67001Z" stroke="#1C1C1C" stroke-width="1.25" stroke-linecap="round" stroke-linejoin="round"/>
</svg>
