<svg width="16" height="16" viewBox="0 0 16 16" fill="none" xmlns="http://www.w3.org/2000/svg">
<path d="M8.1675 14.835C11.8499 14.835 14.835 11.8499 14.835 8.1675C14.835 4.48514 11.8499 1.5 8.1675 1.5C4.48514 1.5 1.5 4.48514 1.5 8.1675C1.5 11.8499 4.48514 14.835 8.1675 14.835Z" stroke="#1C1C1C" stroke-width="1.25" stroke-linecap="round" stroke-linejoin="round"/>
<path d="M4.97827 4.90576L3.766 3.74195" stroke="#1C1C1C" stroke-width="1.25" stroke-linecap="round" stroke-linejoin="round"/>
<path d="M11.4067 4.90576L12.619 3.74195" stroke="#1C1C1C" stroke-width="1.25" stroke-linecap="round" stroke-linejoin="round"/>
<path d="M1.79468 8.16748L3.47517 8.16552" stroke="#1C1C1C" stroke-width="1.25" stroke-linecap="round" stroke-linejoin="round"/>
<path d="M12.8596 8.16968L14.5401 8.16772" stroke="#1C1C1C" stroke-width="1.25" stroke-linecap="round" stroke-linejoin="round"/>
<path d="M8.18921 3.50562L8.15494 1.82547" stroke="#1C1C1C" stroke-width="1.25" stroke-linecap="round" stroke-linejoin="round"/>
<path d="M9.54565 12.1877L6.79404 12.1835" stroke="#1C1C1C" stroke-width="1.25" stroke-linecap="round" stroke-linejoin="round"/>
<path d="M8.17163 5.76298L8.17163 7.17897" stroke="#1C1C1C" stroke-width="1.25" stroke-linecap="round" stroke-linejoin="round"/>
<path d="M8.16724 9.0769L8.16724 9.73152" stroke="#1C1C1C" stroke-width="1.25" stroke-linecap="round" stroke-linejoin="round"/>
<path d="M8.16726 9.07671C8.6694 9.07671 9.07647 8.66965 9.07647 8.16751C9.07647 7.66537 8.6694 7.2583 8.16726 7.2583C7.66512 7.2583 7.25806 7.66537 7.25806 8.16751C7.25806 8.66965 7.66512 9.07671 8.16726 9.07671Z" stroke="#1C1C1C" stroke-width="1.25" stroke-linecap="round" stroke-linejoin="round"/>
</svg>
