<svg width="16" height="16" viewBox="0 0 16 16" fill="none" xmlns="http://www.w3.org/2000/svg">
<path d="M10.778 3.87467H5.21962M7.99879 6.2975H5.21962M4.66408 1.32999H11.3341C12.0708 1.32999 12.6681 1.92724 12.6681 2.66399V13.336C12.6681 14.0727 12.0708 14.67 11.3341 14.67H4.66408C3.92733 14.67 3.33008 14.0727 3.33008 13.336C3.33043 10.2058 3.33025 8.04408 3.33008 2.66399C3.33008 1.92724 3.92733 1.32999 4.66408 1.32999ZM5.91995 10.5992H10.0776C10.6179 10.5992 11.0559 10.9973 11.0559 11.4885V11.9332C11.0559 12.4243 10.6179 12.8225 10.0776 12.8225H5.91995C5.37967 12.8225 4.94168 12.4243 4.94168 11.9332V11.4885C4.94168 10.9973 5.37967 10.5992 5.91995 10.5992Z" stroke="#1C1C1C" stroke-width="1.25" stroke-linecap="round" stroke-linejoin="round"/>
</svg>
