<svg width="32" height="32" viewBox="0 0 32 32" fill="none" xmlns="http://www.w3.org/2000/svg">
<rect y="5" width="32" height="22" rx="3" fill="#FF3636"/>
<g clip-path="url(#clip0_17370_20542)">
<path d="M5 10.5C5 10.2239 5.22386 10 5.5 10H9.5C9.77614 10 10 10.2239 10 10.5V11.8557C10 11.9744 9.83338 12.0308 9.75526 11.9414C9.3714 11.5021 8.56071 10.752 7.5 10.752C6.43929 10.752 5.6286 11.5021 5.24474 11.9414C5.16662 12.0308 5 11.9744 5 11.8557V10.5Z" fill="white"/>
<path d="M5 14.7431C5 14.8871 5.11678 15.0039 5.26084 15.0039H9.73916C9.88322 15.0039 10 14.8871 10 14.7431C10 14.7348 9.99724 14.7273 9.99125 14.7216C9.89001 14.6245 8.91861 13.7301 7.5 13.7301C6.08139 13.7301 5.10999 14.6245 5.00875 14.7216C5.00276 14.7273 5 14.7348 5 14.7431Z" fill="white"/>
<path d="M5 13.4207C5 13.5175 5.10972 13.5763 5.1917 13.5248C5.61983 13.2562 6.68048 12.6473 7.5 12.6473C8.31955 12.6473 9.38023 13.2558 9.80833 13.5243C9.89031 13.5757 10 13.5169 10 13.4201V13.1862C10 13.1282 9.9805 13.0728 9.94118 13.0302C9.70656 12.7764 8.78745 11.8805 7.5 11.8805C6.21255 11.8805 5.29344 12.7764 5.05882 13.0302C5.0195 13.0728 5 13.1282 5 13.1862V13.4207Z" fill="white"/>
</g>
<defs>
<clipPath id="clip0_17370_20542">
<rect x="5" y="10" width="5" height="5.00391" rx="1" fill="white"/>
</clipPath>
</defs>
</svg>
