<svg width="32" height="32" viewBox="0 0 32 32" fill="none" xmlns="http://www.w3.org/2000/svg">
<path d="M21.1127 5.7563L21.1128 5.75632C23.0375 7.37209 24.1453 9.76854 24.1453 12.3369C24.1453 14.8856 23.0367 17.2699 21.1077 18.8832C20.2623 19.5901 19.7598 20.5497 19.7598 21.5936V24.2072C19.7598 26.3874 18.0517 28.1244 15.9992 28.1244C13.9467 28.1244 12.2386 26.3874 12.2386 24.2072V21.584C12.2386 20.557 11.7279 19.5818 10.8969 18.8883C9.77733 17.9539 8.91286 16.7343 8.39816 15.3621C7.85621 13.9172 7.71488 12.3213 7.99469 10.7465C9.11823 4.42425 16.38 1.78297 21.1127 5.7563Z" fill="white" stroke="#3D3D45" stroke-width="1.25"/>
<path d="M19.367 22.5055L12.3694 22.5055" stroke="#3D3D45" stroke-width="1.25" stroke-linecap="round" stroke-linejoin="round"/>
</svg>
