<svg width="12" height="12" viewBox="0 0 12 12" fill="none" xmlns="http://www.w3.org/2000/svg">
<path d="M2.30233 3.75939V3.73801C2.30233 3.18545 2.75027 2.7375 3.30283 2.7375H10.0021C10.5546 2.7375 11.0026 3.18545 11.0026 3.73801V6.86392C11.0026 7.41648 10.5546 7.86443 10.0021 7.86443H9.6966M1.99806 9.21944H8.69729C9.24985 9.21944 9.69779 8.7715 9.69779 8.21893V5.09302C9.69779 4.54046 9.24985 4.09251 8.69729 4.09251H1.99807C1.4455 4.09251 0.997559 4.54046 0.997559 5.09302V8.21893C0.997559 8.7715 1.4455 9.21944 1.99806 9.21944ZM6.38362 6.65589C6.38362 7.24579 5.91991 7.724 5.34788 7.724C4.77586 7.724 4.31214 7.24579 4.31214 6.65589C4.31214 6.06599 4.77586 5.58778 5.34788 5.58778C5.91991 5.58778 6.38362 6.06599 6.38362 6.65589Z" stroke="#1C1C1C" stroke-width="1.25"/>
</svg>
