<svg width="40" height="40" viewBox="0 0 40 40" fill="none" xmlns="http://www.w3.org/2000/svg">
<rect width="40" height="40" rx="20" fill="#B39CDB"/>
<path d="M25.7143 8.99976H14.2857C13.0233 8.99976 12 9.98473 12 11.1998V28.7998C12 30.0148 13.0233 30.9998 14.2857 30.9998H25.7143C26.9766 30.9998 28 30.0148 28 28.7998V11.1998C28 9.98473 26.9766 8.99976 25.7143 8.99976Z" stroke="white" stroke-width="1.25" stroke-linecap="round" stroke-linejoin="round"/>
<path d="M20.0001 19.4167C21.2888 19.4167 22.3335 18.372 22.3335 17.0833C22.3335 15.7947 21.2888 14.75 20.0001 14.75C18.7115 14.75 17.6668 15.7947 17.6668 17.0833C17.6668 18.372 18.7115 19.4167 20.0001 19.4167Z" stroke="white" stroke-width="1.25" stroke-linecap="round" stroke-linejoin="round"/>
<path d="M15.3334 24.0833C15.3334 22.7947 16.3781 21.75 17.6667 21.75H22.3334C23.6221 21.75 24.6667 22.7947 24.6667 24.0833V25.25H15.3334V24.0833Z" stroke="white" stroke-width="1.25" stroke-linecap="round" stroke-linejoin="round"/>
</svg>
