<svg width="24" height="24" viewBox="0 0 24 24" fill="none" xmlns="http://www.w3.org/2000/svg">
<g clip-path="url(#clip0_28207_57518)">
<path d="M0 12C0 5.37258 5.37258 0 12 0C18.6274 0 24 5.37258 24 12C24 18.6274 18.6274 24 12 24C5.37258 24 0 18.6274 0 12Z" fill="#F2F4F5"/>
<path d="M36 0H-12V24H36V0Z" fill="#509E2F"/>
<path d="M36 0H-12V16H36V0Z" fill="#EF3340"/>
<path d="M36 0H-12V8H36V0Z" fill="#00B5E2"/>
<path d="M10.8 15.6C12.7882 15.6 14.4 13.9882 14.4 12C14.4 10.0118 12.7882 8.4 10.8 8.4C8.81173 8.4 7.19995 10.0118 7.19995 12C7.19995 13.9882 8.81173 15.6 10.8 15.6Z" fill="white"/>
<path d="M11.6 15C13.2568 15 14.6 13.6569 14.6 12C14.6 10.3431 13.2568 9 11.6 9C9.94312 9 8.59998 10.3431 8.59998 12C8.59998 13.6569 9.94312 15 11.6 15Z" fill="#EF3340"/>
<path d="M14.7999 10L15.1826 11.0761L16.2141 10.5858L15.7238 11.6173L16.7999 12L15.7238 12.3827L16.2141 13.4142L15.1826 12.9239L14.7999 14L14.4172 12.9239L13.3857 13.4142L13.876 12.3827L12.7999 12L13.876 11.6173L13.3857 10.5858L14.4172 11.0761L14.7999 10Z" fill="white"/>
</g>
<defs>
<clipPath id="clip0_28207_57518">
<path d="M0 12C0 5.37258 5.37258 0 12 0C18.6274 0 24 5.37258 24 12C24 18.6274 18.6274 24 12 24C5.37258 24 0 18.6274 0 12Z" fill="white"/>
</clipPath>
</defs>
</svg>
