<svg width="24" height="24" viewBox="0 0 24 24" fill="none" xmlns="http://www.w3.org/2000/svg">
<path d="M7.99994 10L11.9999 14L15.9999 10M3.99994 3H19.9999C20.5304 3 21.0391 3.21071 21.4142 3.58579C21.7892 3.96086 21.9999 4.46957 21.9999 5V11C21.9999 13.6522 20.9464 16.1957 19.071 18.0711C17.1956 19.9464 14.6521 21 11.9999 21C10.6867 21 9.38636 20.7413 8.1731 20.2388C6.95985 19.7362 5.85746 18.9997 4.92887 18.0711C3.05351 16.1957 1.99994 13.6522 1.99994 11V5C1.99994 4.46957 2.21065 3.96086 2.58573 3.58579C2.9608 3.21071 3.46951 3 3.99994 3Z" stroke="#1C1C1C" stroke-width="1.25" stroke-linecap="round" stroke-linejoin="round"/>
</svg>
