<svg width="16" height="16" viewBox="0 0 16 16" fill="none" xmlns="http://www.w3.org/2000/svg">
<g clip-path="url(#clip0_481_3310)">
<path d="M3.99992 6.00004V1.33337H11.9999V6.00004M3.99992 12H2.66659C2.31296 12 1.97382 11.8596 1.72378 11.6095C1.47373 11.3595 1.33325 11.0203 1.33325 10.6667V7.33337C1.33325 6.97975 1.47373 6.64061 1.72378 6.39056C1.97382 6.14052 2.31296 6.00004 2.66659 6.00004H13.3333C13.6869 6.00004 14.026 6.14052 14.2761 6.39056C14.5261 6.64061 14.6666 6.97975 14.6666 7.33337V10.6667C14.6666 11.0203 14.5261 11.3595 14.2761 11.6095C14.026 11.8596 13.6869 12 13.3333 12H11.9999M3.99992 9.33337H11.9999V14.6667H3.99992V9.33337Z" stroke="#1C1C1C" stroke-width="1.25" stroke-linecap="round" stroke-linejoin="round"/>
</g>
<defs>
<clipPath id="clip0_481_3310">
<rect width="16" height="16" fill="white"/>
</clipPath>
</defs>
</svg>
