<svg width="16" height="16" viewBox="0 0 16 16" fill="none" xmlns="http://www.w3.org/2000/svg">
<path d="M13.1091 3.3335H3.11091C2.49737 3.3335 2 3.83087 2 4.44441V11.1099C2 11.7234 2.49737 12.2208 3.11091 12.2208H13.1091C13.7226 12.2208 14.22 11.7234 14.22 11.1099V4.44441C14.22 3.83087 13.7226 3.3335 13.1091 3.3335Z" stroke="#1C1C1C" stroke-width="1.25" stroke-linecap="round" stroke-linejoin="round"/>
<path d="M10.7911 5.63138V7.24034M10.7911 7.24034H9.18213M10.7911 7.24034L9.54951 6.07116C9.17961 5.70103 8.69944 5.46115 8.18134 5.38766C7.66325 5.31417 7.1353 5.41106 6.67706 5.66373C6.21883 5.9164 5.85512 6.31115 5.64076 6.78851C5.42639 7.26587 5.37298 7.79997 5.48858 8.31032C5.60417 8.82067 5.8825 9.27963 6.28163 9.61804C6.68076 9.95644 7.17907 10.156 7.70146 10.1865C8.22384 10.2171 8.74201 10.077 9.17788 9.78747C9.61375 9.49792 9.9437 9.07454 10.118 8.58115" stroke="#1C1C1C" stroke-linecap="round" stroke-linejoin="round"/>
</svg>
