<svg width="16" height="16" viewBox="0 0 16 16" fill="none" xmlns="http://www.w3.org/2000/svg">
<path d="M10.6537 5.79859V7.40805M10.6537 7.40805H9.04428M10.6537 7.40805L9.41177 6.23851C9.04176 5.86826 8.56144 5.6283 8.04318 5.55479C7.52493 5.48128 6.99682 5.5782 6.53844 5.83095C6.08007 6.08369 5.71625 6.47857 5.50182 6.95608C5.28739 7.43358 5.23396 7.96784 5.34959 8.47835C5.46522 8.98886 5.74364 9.44796 6.14289 9.78647C6.54215 10.125 7.0406 10.3246 7.56315 10.3551C8.0857 10.3857 8.60403 10.2456 9.04003 9.95596C9.47603 9.66631 9.80608 9.24281 9.98045 8.74926M2.97124 3.5H12.9725C13.5862 3.5 14.0837 3.99752 14.0837 4.61125V11.2788C14.0837 11.8925 13.5862 12.39 12.9725 12.39H2.97124C2.35751 12.39 1.85999 11.8925 1.85999 11.2788V4.61125C1.85999 3.99752 2.35751 3.5 2.97124 3.5Z" stroke="#1C1C1C" stroke-width="1.25" stroke-linecap="round" stroke-linejoin="round"/>
</svg>
