<svg width="16" height="16" viewBox="0 0 16 16" fill="none" xmlns="http://www.w3.org/2000/svg">
<path d="M13.3333 7.99992V14.6666H2.66659V7.99992M7.99992 14.6666V4.66659M7.99992 4.66659H4.99992C4.55789 4.66659 4.13397 4.49099 3.82141 4.17843C3.50885 3.86587 3.33325 3.44195 3.33325 2.99992C3.33325 2.55789 3.50885 2.13397 3.82141 1.82141C4.13397 1.50885 4.55789 1.33325 4.99992 1.33325C7.33325 1.33325 7.99992 4.66659 7.99992 4.66659ZM7.99992 4.66659H10.9999C11.4419 4.66659 11.8659 4.49099 12.1784 4.17843C12.491 3.86587 12.6666 3.44195 12.6666 2.99992C12.6666 2.55789 12.491 2.13397 12.1784 1.82141C11.8659 1.50885 11.4419 1.33325 10.9999 1.33325C8.66659 1.33325 7.99992 4.66659 7.99992 4.66659ZM1.33325 4.66659H14.6666V7.99992H1.33325V4.66659Z" stroke="#1C1C1C" stroke-width="1.25" stroke-linecap="round" stroke-linejoin="round"/>
</svg>
