<svg width="16" height="16" viewBox="0 0 16 16" fill="none" xmlns="http://www.w3.org/2000/svg">
<g clip-path="url(#clip0_481_3295)">
<path d="M9.66658 6.66671C9.11325 6.66671 8.66658 6.22004 8.66658 5.66671V2.33337C8.66658 1.78004 9.11325 1.33337 9.66658 1.33337C10.2199 1.33337 10.6666 1.78004 10.6666 2.33337V5.66671C10.6666 6.22004 10.2199 6.66671 9.66658 6.66671Z" stroke="#1C1C1C" stroke-width="1.25" stroke-linecap="round" stroke-linejoin="round"/>
<path d="M13.6666 6.66671H12.6666V5.66671C12.6666 5.11337 13.1133 4.66671 13.6666 4.66671C14.2199 4.66671 14.6666 5.11337 14.6666 5.66671C14.6666 6.22004 14.2199 6.66671 13.6666 6.66671Z" stroke="#1C1C1C" stroke-width="1.25" stroke-linecap="round" stroke-linejoin="round"/>
<path d="M6.33325 9.33337C6.88658 9.33337 7.33325 9.78004 7.33325 10.3334V13.6667C7.33325 14.22 6.88658 14.6667 6.33325 14.6667C5.77992 14.6667 5.33325 14.22 5.33325 13.6667V10.3334C5.33325 9.78004 5.77992 9.33337 6.33325 9.33337Z" stroke="#1C1C1C" stroke-width="1.25" stroke-linecap="round" stroke-linejoin="round"/>
<path d="M2.33325 9.33337H3.33325V10.3334C3.33325 10.8867 2.88659 11.3334 2.33325 11.3334C1.77992 11.3334 1.33325 10.8867 1.33325 10.3334C1.33325 9.78004 1.77992 9.33337 2.33325 9.33337Z" stroke="#1C1C1C" stroke-width="1.25" stroke-linecap="round" stroke-linejoin="round"/>
<path d="M9.33325 9.66671C9.33325 9.11337 9.77992 8.66671 10.3333 8.66671H13.6666C14.2199 8.66671 14.6666 9.11337 14.6666 9.66671C14.6666 10.22 14.2199 10.6667 13.6666 10.6667H10.3333C9.77992 10.6667 9.33325 10.22 9.33325 9.66671Z" stroke="#1C1C1C" stroke-width="1.25" stroke-linecap="round" stroke-linejoin="round"/>
<path d="M10.3333 12.6667H9.33325V13.6667C9.33325 14.22 9.77992 14.6667 10.3333 14.6667C10.8866 14.6667 11.3333 14.22 11.3333 13.6667C11.3333 13.1134 10.8866 12.6667 10.3333 12.6667Z" stroke="#1C1C1C" stroke-width="1.25" stroke-linecap="round" stroke-linejoin="round"/>
<path d="M6.66658 6.33337C6.66658 5.78004 6.21992 5.33337 5.66659 5.33337H2.33325C1.77992 5.33337 1.33325 5.78004 1.33325 6.33337C1.33325 6.88671 1.77992 7.33337 2.33325 7.33337H5.66659C6.21992 7.33337 6.66658 6.88671 6.66658 6.33337Z" stroke="#1C1C1C" stroke-width="1.25" stroke-linecap="round" stroke-linejoin="round"/>
<path d="M5.66659 3.33337H6.66658V2.33337C6.66658 1.78004 6.21992 1.33337 5.66659 1.33337C5.11325 1.33337 4.66659 1.78004 4.66659 2.33337C4.66659 2.88671 5.11325 3.33337 5.66659 3.33337Z" stroke="#1C1C1C" stroke-width="1.25" stroke-linecap="round" stroke-linejoin="round"/>
</g>
<defs>
<clipPath id="clip0_481_3295">
<rect width="16" height="16" fill="white"/>
</clipPath>
</defs>
</svg>
