<svg width="56" height="32" viewBox="0 0 56 32" fill="none" xmlns="http://www.w3.org/2000/svg">
<g clip-path="url(#clip0_8809_39095)">
<path d="M56.1141 13.4852V21.3086H53.3339V15.8207H50.6569V21.3086H47.8766V13.4846H56.1141V13.4852Z" fill="#1C1C1C"/>
<path fill-rule="evenodd" clip-rule="evenodd" d="M42.1668 21.5884C44.6556 21.5884 46.5038 20.0551 46.5038 17.7305C46.5038 15.4807 45.1402 14.0199 42.8613 14.0199C41.8096 14.0199 40.9417 14.3919 40.2881 15.0337C40.4441 13.7071 41.5606 12.7385 42.7899 12.7385C43.0736 12.7385 45.2095 12.734 45.2095 12.734L46.4173 10.4116C46.4173 10.4116 43.7358 10.4729 42.4892 10.4729C39.6411 10.5228 37.7172 13.1241 37.7172 16.2836C37.7172 19.9644 39.5936 21.5884 42.1668 21.5884ZM42.1819 16.0769C43.106 16.0769 43.7467 16.6871 43.7467 17.7303C43.7467 18.6692 43.1774 19.4428 42.1819 19.4449C41.2297 19.4449 40.589 18.7281 40.589 17.7463C40.589 16.7028 41.2297 16.0769 42.1819 16.0769Z" fill="#1C1C1C"/>
<path d="M35.4542 18.6895C35.4542 18.6895 34.7976 19.0697 33.817 19.1417C32.6896 19.1753 31.6851 18.4599 31.6851 17.1887C31.6851 15.9487 32.5715 15.238 33.7886 15.238C34.5349 15.238 35.5221 15.7577 35.5221 15.7577C35.5221 15.7577 36.2445 14.4257 36.6187 13.7596C35.9335 13.2377 35.0208 12.9516 33.9593 12.9516C31.2801 12.9516 29.205 14.7068 29.205 17.1729C29.205 19.6705 31.1554 21.3849 33.9593 21.3332C34.743 21.3039 35.8242 21.0273 36.4831 20.602L35.4542 18.6895Z" fill="#1C1C1C"/>
<path d="M0 6.96533L3.85667 13.892V18.1171L0.00451166 25.0301L0 6.96533Z" fill="#5B57A2"/>
<path d="M14.8081 11.3715L18.4219 9.14588L25.8179 9.13895L14.8081 15.916V11.3715Z" fill="#D90751"/>
<path d="M14.7876 6.92453L14.808 16.0952L10.9424 13.7085V0L14.7879 6.92453H14.7876Z" fill="#FAB718"/>
<path d="M25.8178 9.13893L18.4216 9.14587L14.7876 6.92453L10.9424 0L25.8176 9.13893H25.8178Z" fill="#ED6F26"/>
<path d="M14.808 25.0685V20.6192L10.9424 18.2779L10.9445 32L14.808 25.0685Z" fill="#63B22F"/>
<path d="M18.4129 22.8632L3.8564 13.892L0 6.96533L25.8022 22.8541L18.4126 22.8632H18.4129Z" fill="#1487C9"/>
<path d="M10.9447 32L14.8078 25.0685L18.4126 22.8632L25.8019 22.8541L10.9447 32Z" fill="#017F36"/>
<path d="M0.00447083 25.0301L10.9739 18.2781L7.28602 16.0045L3.85663 18.1171L0.00447083 25.0301Z" fill="#984995"/>
</g>
<defs>
<clipPath id="clip0_8809_39095">
<rect width="56" height="32" fill="white"/>
</clipPath>
</defs>
</svg>
