<svg width="16" height="16" viewBox="0 0 16 16" fill="none" xmlns="http://www.w3.org/2000/svg">
<path d="M6.08513 2.00954C6.82952 2.52168 8.25449 3.79178 7.99927 4.77509M7.99872 4.82258C5.27681 3.63671 2.33008 5.2977 2.33008 8.18604C2.33008 11.203 4.73989 15.7858 7.99872 14.4024C11.431 15.833 13.6691 11.2032 13.6691 8.18604C13.6691 5.27281 10.692 3.71969 7.99872 4.82258ZM11.1896 1.35026C11.1896 1.36464 11.1386 1.55358 11.0762 1.7702C10.6821 3.13905 9.93326 3.94721 8.81147 4.21434C8.65302 4.25208 8.48385 4.28295 8.43555 4.28295C8.3511 4.28295 8.34856 4.27529 8.36912 4.0828C8.50169 2.84139 9.18498 2.08401 10.7037 1.495C11.1597 1.31817 11.1897 1.30922 11.1896 1.35026Z" stroke="#1C1C1C" stroke-width="1.25" stroke-linecap="round" stroke-linejoin="round"/>
</svg>
