<svg width="24" height="24" viewBox="0 0 24 24" fill="none" xmlns="http://www.w3.org/2000/svg">
<path fill-rule="evenodd" clip-rule="evenodd" d="M12 0C5.37258 0 0 5.37258 0 12C0 18.6274 5.37258 24 12 24C18.6274 24 24 18.6274 24 12C24 5.37258 18.6274 0 12 0ZM11.9559 6.90587C11.7198 6.65405 11.3243 6.64129 11.0725 6.87737C10.8207 7.11345 10.8079 7.50897 11.044 7.76079L14.4323 11.3751H7.12496C6.77978 11.3751 6.49996 11.6549 6.49996 12.0001C6.49996 12.3453 6.77978 12.6251 7.12496 12.6251H14.4323L11.044 16.2392C10.8079 16.491 10.8207 16.8865 11.0725 17.1226C11.3243 17.3587 11.7198 17.346 11.9559 17.0941L16.3309 12.4275C16.5563 12.1871 16.5563 11.813 16.3309 11.5726L11.9559 6.90587Z" fill="white"/>
</svg>
