<svg width="32" height="32" viewBox="0 0 32 32" fill="none" xmlns="http://www.w3.org/2000/svg">
<rect x="3" y="16" width="26" height="1" rx="0.5" fill="white"/>
<rect x="8" y="11" width="16" height="1" rx="0.5" fill="white"/>
<rect x="4" y="7" width="4" height="1" rx="0.5" fill="white"/>
<rect x="4" y="11" width="4" height="1" rx="0.5" transform="rotate(-90 4 11)" fill="white"/>
<rect width="4" height="1" rx="0.5" transform="matrix(-1 0 0 1 28 7)" fill="white"/>
<rect width="4" height="1" rx="0.5" transform="matrix(4.37114e-08 -1 -1 -4.37114e-08 28 11)" fill="white"/>
<rect x="28" y="25" width="4" height="1" rx="0.5" transform="rotate(-180 28 25)" fill="white"/>
<rect x="28" y="21" width="4" height="1" rx="0.5" transform="rotate(90 28 21)" fill="white"/>
<rect width="4" height="1" rx="0.5" transform="matrix(1 0 0 -1 4 25)" fill="white"/>
<rect width="4" height="1" rx="0.5" transform="matrix(-4.37114e-08 1 1 4.37114e-08 4 21)" fill="white"/>
</svg>
