<svg width="24" height="24" viewBox="0 0 24 24" fill="none" xmlns="http://www.w3.org/2000/svg">
<path d="M9.08988 8.99994C9.32498 8.33161 9.78903 7.76805 10.3998 7.40907C11.0106 7.0501 11.7288 6.91888 12.4271 7.03865C13.1253 7.15842 13.7587 7.52146 14.215 8.06347C14.6712 8.60547 14.9209 9.29146 14.9199 9.99994C14.9199 11.9999 11.9199 12.9999 11.9199 12.9999M11.9999 16.9999H12.0099M21.9999 11.9999C21.9999 17.5228 17.5227 21.9999 11.9999 21.9999C6.47703 21.9999 1.99988 17.5228 1.99988 11.9999C1.99988 6.47709 6.47703 1.99994 11.9999 1.99994C17.5227 1.99994 21.9999 6.47709 21.9999 11.9999Z" stroke="#1C1C1C" stroke-width="1.25" stroke-linecap="round" stroke-linejoin="round"/>
</svg>
