<svg width="64" height="64" viewBox="0 0 64 64" fill="none" xmlns="http://www.w3.org/2000/svg">
<path fill-rule="evenodd" clip-rule="evenodd" d="M52.9457 2.94372L46.0433 2.94372C45.2304 2.94372 44.5714 2.28475 44.5714 1.47186C44.5714 0.658975 45.2304 0 46.0433 0L52.9457 0C59.0507 0 64 4.94749 64 11.0508V17.9567C64 18.7696 63.341 19.4286 62.5281 19.4286C61.7153 19.4286 61.0563 18.7696 61.0563 17.9567V11.0508C61.0563 6.57351 57.4252 2.94372 52.9457 2.94372ZM2.94372 11.0543V17.9567C2.94372 18.7696 2.28475 19.4286 1.47186 19.4286C0.658974 19.4286 0 18.7696 0 17.9567V11.0543C0 4.9493 4.94749 0 11.0508 0L17.9567 0C18.7696 0 19.4286 0.658975 19.4286 1.47186C19.4286 2.28475 18.7696 2.94372 17.9567 2.94372L11.0508 2.94372C6.57351 2.94372 2.94372 6.57484 2.94372 11.0543ZM17.9567 61.0563H11.0543C6.57484 61.0563 2.94372 57.4265 2.94372 52.9492V46.0433C2.94372 45.2304 2.28475 44.5714 1.47186 44.5714C0.658974 44.5714 0 45.2304 0 46.0433V52.9492C0 59.0525 4.9493 64 11.0543 64H17.9567C18.7696 64 19.4286 63.341 19.4286 62.5281C19.4286 61.7153 18.7696 61.0563 17.9567 61.0563ZM61.0563 52.9457V46.0433C61.0563 45.2304 61.7153 44.5714 62.5281 44.5714C63.341 44.5714 64 45.2304 64 46.0433V52.9457C64 59.0507 59.0525 64 52.9492 64H46.0433C45.2304 64 44.5714 63.341 44.5714 62.5281C44.5714 61.7153 45.2304 61.0563 46.0433 61.0563H52.9492C57.4265 61.0563 61.0563 57.4252 61.0563 52.9457ZM47.4271 29.4286C47.4271 30.8479 46.2765 31.9986 44.8571 31.9986C43.4378 31.9986 42.2871 30.8479 42.2871 29.4286L42.2871 24.2829C42.2871 22.8635 43.4378 21.7129 44.8571 21.7129C46.2765 21.7129 47.4271 22.8635 47.4271 24.2829L47.4271 29.4286ZM18.5714 32C19.9916 32 21.1429 30.8487 21.1429 29.4286V24.2857C21.1429 22.8656 19.9916 21.7143 18.5714 21.7143C17.1513 21.7143 16 22.8656 16 24.2857V29.4286C16 30.8487 17.1513 32 18.5714 32ZM31.5295 23.1822V33.8023C31.5295 35.3179 30.7789 36.727 29.5423 37.5325L28.1626 38.4313C27.5012 38.8622 27.3014 39.7682 27.7164 40.4549C28.1314 41.1416 29.004 41.349 29.6654 40.9182L31.0451 40.0194C33.106 38.6768 34.3571 36.3283 34.3571 33.8023L34.3571 23.1822C34.3571 22.3715 33.7242 21.7143 32.9433 21.7143C32.1625 21.7143 31.5295 22.3715 31.5295 23.1822ZM23.7327 48.9675L21.8227 47.7868C21.1517 47.372 20.9439 46.4917 21.3586 45.8206C21.7733 45.1494 22.6535 44.9416 23.3245 45.3564L25.2345 46.5371C29.5591 49.2105 35.0225 49.2113 39.348 46.5393L41.2632 45.3562C41.9344 44.9416 42.8144 45.1497 43.229 45.8209C43.6435 46.4922 43.4354 47.3725 42.7643 47.7871L40.849 48.9702C35.6032 52.2107 28.9774 52.2097 23.7327 48.9675Z" fill="#1C1C1C"/>
</svg>
