<svg width="24" height="24" viewBox="0 0 24 24" fill="none" xmlns="http://www.w3.org/2000/svg">
<path d="M12.0186 10.8674C11.889 9.2448 11.2449 7.9167 10.5274 7.25754C10.9471 7.04771 11.3863 6.48078 11.3602 6.12697C10.0184 6.64249 7.35391 5.83831 7.13921 7.05203C7.09405 7.30888 7.21079 7.70037 7.33693 7.81289C7.35946 7.73148 7.47728 7.4652 7.84868 7.4055C9.72591 7.10523 11.2932 10.1681 9.87847 11.4064C9.13264 12.1202 8.52952 12.3342 8.32119 12.352C8.32119 12.352 7.20524 11.6842 7.20524 11.0243C7.20524 10.6447 7.36469 10.3025 7.6204 10.0569C7.67493 10.0051 7.66765 9.91755 7.6044 9.87669C7.57663 9.85908 7.54907 9.8411 7.52172 9.82276C5.30228 8.32938 3.28054 4.87077 3.0627 4.49085M3.0627 4.49085C3.05258 4.47312 3.02828 4.46953 3.01333 4.48325M3.0627 4.49085C1.82615 6.1284 0.647072 10.6176 5.82312 15.4742C6.16605 15.8827 6.9572 15.8909 7.44146 15.3002L9.59842 15.0521M9.59842 15.0521V16.2699C9.72806 17.0456 10.2767 17.3275 10.5348 17.3715C10.8399 17.5774 11.1498 17.9829 11.3833 18.6594C10.2357 18.9536 8.79487 19.7639 8.50337 20.6485C8.39114 20.9901 8.76186 21.4556 9.21213 21.5494C9.90937 21.7213 10.8272 21.9894 12.0186 21.9962M9.59842 15.0521C8.47898 14.9921 7.54677 16.0716 8.76493 17.8849C8.87193 18.0563 7.72989 18.331 7.19417 18.2615C6.78595 18.1981 5.96951 18.13 5.96951 18.3653M3.90224 16.2905C3.91928 16.3147 5.96951 18.3653 5.96951 18.3653M5.96951 18.3653L7.03057 19.408L7.57328 19.9412M11.9791 10.96C12.1087 9.35037 12.753 8.03287 13.4706 7.37897C13.0508 7.17081 12.6116 6.6084 12.6376 6.25741C13.9798 6.76882 16.6449 5.97106 16.8596 7.17509C16.9048 7.42989 16.788 7.81826 16.6619 7.92989C16.6393 7.84913 16.5215 7.58496 16.15 7.52574C14.2723 7.22787 12.7047 10.2663 14.1197 11.4948C14.8657 12.2028 15.469 12.4151 15.6774 12.4328C15.6774 12.4328 16.7936 11.7703 16.7936 11.1157C16.7936 10.7391 16.6341 10.3996 16.3783 10.156C16.3238 10.1046 16.3311 10.0178 16.3943 9.97722C16.4221 9.95975 16.4497 9.94192 16.477 9.92372C18.697 8.44226 20.7192 5.01123 20.9371 4.63435M20.9371 4.63435C20.9472 4.61676 20.9715 4.61319 20.9864 4.62681M20.9371 4.63435C22.1739 6.25883 23.3532 10.7122 18.176 15.5301C17.833 15.9353 17.0417 15.9435 16.5573 15.3574L14.3999 15.1113M14.3999 15.1113V16.3194C14.2702 17.089 13.7214 17.3686 13.4633 17.4122C13.1581 17.6165 12.8481 18.0188 12.6146 18.6899C13.7625 18.9817 15.2036 19.7856 15.4952 20.6631C15.6074 21.0019 15.2366 21.4638 14.7862 21.5568C14.0888 21.7274 13.1708 21.9933 11.9791 22M14.3999 15.1113C15.5196 15.0518 16.452 16.1228 15.2335 17.9215C15.1265 18.0916 16.9909 18.7588 17.5268 18.6899M12.9623 4.6604H10.9333C10.9333 4.6604 10.5779 4.08594 10.4889 3.80144C10.1689 2.77759 10.5774 2.30008 11.1753 2.30008H12.7199C13.3179 2.30008 13.7263 2.77759 13.4064 3.80144C13.3655 3.93232 13.2681 4.12463 13.1749 4.29363M19.801 18.3361C19.801 18.9805 19.3321 19.5029 18.7538 19.5029C18.1755 19.5029 17.7067 18.9805 17.7067 18.3361C17.7067 17.6916 18.1755 17.1692 18.7538 17.1692C19.3321 17.1692 19.801 17.6916 19.801 18.3361Z" stroke="#1C1C1C" stroke-linecap="round" stroke-linejoin="round"/>
</svg>
