<svg width="24" height="24" viewBox="0 0 24 24" fill="none" xmlns="http://www.w3.org/2000/svg">
<path d="M12.0212 10.6977C11.8896 9.0505 11.2357 7.70217 10.5073 7.03297C10.9333 6.81994 11.3792 6.24438 11.3527 5.88518C9.9905 6.40855 7.28543 5.59212 7.06746 6.82433C7.02161 7.08508 7.14013 7.48254 7.26819 7.59678C7.29107 7.51413 7.41068 7.24379 7.78774 7.18318C9.69356 6.87834 11.2847 9.98779 9.84844 11.245C9.09125 11.9697 8.47895 12.187 8.26745 12.2051C8.26745 12.2051 7.1345 11.5271 7.1345 10.8571C7.1345 10.4717 7.29638 10.1243 7.55598 9.87489C7.61134 9.82241 7.60395 9.73349 7.53974 9.69201C7.51154 9.67413 7.48356 9.65588 7.4558 9.63726C5.20255 8.12113 3.15002 4.60984 2.92886 4.22414M2.92886 4.22414C2.91859 4.20614 2.89392 4.20249 2.87874 4.21642L2.92886 4.22414ZM2.92886 4.22414C1.67348 5.88663 0.476443 10.4442 5.73133 15.3748C6.07948 15.7894 6.88268 15.7979 7.37432 15.1981L9.56413 14.9463M9.56413 14.9463V16.1825C9.69574 16.9701 10.2527 17.2563 10.5148 17.301C10.8245 17.5099 11.1391 17.9217 11.3762 18.6085C10.2111 18.9072 8.74834 19.7298 8.4524 20.6279C8.33846 20.9746 8.71483 21.4473 9.17195 21.5425C9.87981 21.7171 10.8116 21.9892 12.0212 21.996M9.56413 14.9463C8.42764 14.8854 7.48123 15.9813 8.71794 17.8222C8.82657 17.9962 7.66714 18.275 7.12326 18.2045C6.70882 18.1401 5.87995 18.0711 5.87995 18.3099M5.87995 18.3099C5.87995 18.3099 3.79849 16.2281 3.78119 16.2035L5.87995 18.3099ZM5.87995 18.3099L6.95717 19.3684L7.50814 19.9098L5.87995 18.3099ZM11.9811 10.7919C12.1126 9.15767 12.7668 7.82011 13.4953 7.15624C13.0691 6.94492 12.6232 6.37394 12.6496 6.0176C14.0122 6.5368 16.7179 5.72689 16.9359 6.94926C16.9818 7.20794 16.8632 7.60223 16.7352 7.71555C16.7122 7.63356 16.5927 7.36537 16.2155 7.30525C14.3092 7.00285 12.7177 10.0875 14.1543 11.3347C14.9116 12.0536 15.5241 12.2691 15.7357 12.287C15.7357 12.287 16.8689 11.6145 16.8689 10.9499C16.8689 10.5676 16.707 10.2229 16.4473 9.9755C16.3919 9.92342 16.3994 9.8352 16.4635 9.79407C16.4917 9.77633 16.5198 9.75823 16.5475 9.73976C18.8013 8.23573 20.8543 4.75244 21.0755 4.36982M21.0755 4.36982C21.0858 4.35197 21.1104 4.34834 21.1256 4.36217L21.0755 4.36982ZM21.0755 4.36982C22.3311 6.01905 23.5284 10.5403 18.2724 15.4315C17.9241 15.8428 17.1208 15.8513 16.629 15.2562L14.4387 15.0064M14.4387 15.0064V16.2329C14.3071 17.0141 13.7499 17.2981 13.4879 17.3423C13.178 17.5496 12.8633 17.9582 12.6262 18.6395C13.7916 18.9357 15.2547 19.7518 15.5507 20.6427C15.6646 20.9867 15.2882 21.4556 14.8309 21.55C14.1229 21.7232 13.1909 21.9932 11.9811 22M14.4387 15.0064C15.5755 14.946 16.5221 16.0332 15.285 17.8594C15.1764 18.0321 17.0692 18.7094 17.6133 18.6395M12.9792 4.39627H10.9193C10.9193 4.39627 10.5585 3.81306 10.4682 3.52423C10.1433 2.48478 10.558 2 11.165 2H12.7332C13.3403 2 13.7549 2.48478 13.4301 3.52423C13.3886 3.6571 13.2897 3.85234 13.1951 4.02391L12.9792 4.39627ZM19.9221 18.2802C19.9221 18.9345 19.4461 19.4649 18.859 19.4649C18.2718 19.4649 17.7959 18.9345 17.7959 18.2802C17.7959 17.626 18.2718 17.0956 18.859 17.0956C19.4461 17.0956 19.9221 17.626 19.9221 18.2802Z" stroke="#1C1C1C" stroke-width="1.25" stroke-linecap="round" stroke-linejoin="round"/>
</svg>
