<svg width="16" height="16" viewBox="0 0 16 16" fill="none" xmlns="http://www.w3.org/2000/svg">
<path d="M11.1885 1.35358L10.5635 1.35187V1.35358H11.1885ZM11.0751 1.77331L11.6757 1.94622L11.6757 1.94621L11.0751 1.77331ZM8.81148 4.21623L8.6667 3.60823L8.66668 3.60823L8.81148 4.21623ZM8.36935 4.08475L8.99082 4.15113L8.99082 4.15111L8.36935 4.08475ZM10.7028 1.49824L10.4768 0.915518L10.4768 0.915531L10.7028 1.49824ZM10.5635 1.35358C10.5635 1.31541 10.5671 1.28606 10.5682 1.27767C10.5697 1.26516 10.5714 1.25552 10.5722 1.25064C10.5739 1.24082 10.5754 1.23431 10.5755 1.23376C10.5759 1.23189 10.5754 1.23444 10.5731 1.24363C10.5687 1.26097 10.5616 1.28821 10.5518 1.32463C10.5323 1.39663 10.505 1.49457 10.4745 1.60041L11.6757 1.94621C11.7076 1.83553 11.7369 1.73079 11.7585 1.65064C11.7692 1.611 11.7788 1.57479 11.786 1.54592C11.7894 1.53201 11.7934 1.51575 11.7968 1.49996C11.7984 1.49244 11.801 1.48019 11.8035 1.46592C11.8048 1.45881 11.8067 1.44727 11.8085 1.43319C11.8097 1.42323 11.8135 1.39264 11.8135 1.35358H10.5635ZM10.4745 1.6004C10.1257 2.81177 9.51412 3.40643 8.6667 3.60823L8.95626 4.82423C10.3513 4.49203 11.2367 3.47116 11.6757 1.94622L10.4745 1.6004ZM8.66668 3.60823C8.59777 3.62464 8.52678 3.63947 8.47012 3.64981C8.44162 3.65502 8.42028 3.65843 8.40672 3.66031C8.39993 3.66125 8.39785 3.66142 8.39951 3.66127C8.40047 3.66117 8.40375 3.66087 8.40884 3.66056C8.41352 3.66028 8.42299 3.6598 8.43575 3.6598V4.9098C8.52684 4.9098 8.63879 4.88968 8.69455 4.8795C8.77409 4.86498 8.86682 4.84553 8.95628 4.82422L8.66668 3.60823ZM8.43575 3.6598C8.42643 3.6598 8.43663 3.65955 8.45281 3.66072C8.46781 3.6618 8.51518 3.66569 8.57515 3.68463C8.64115 3.70548 8.72875 3.74655 8.80965 3.82581C8.89053 3.90507 8.93389 3.9923 8.95637 4.06004C8.97707 4.12239 8.98149 4.17217 8.9828 4.19272C8.98357 4.20476 8.98366 4.21384 8.98364 4.21891C8.98362 4.22409 8.98347 4.22706 8.98347 4.22713C8.98346 4.22727 8.98354 4.22573 8.98382 4.222C8.9841 4.2183 8.98452 4.21326 8.98516 4.20648C8.98646 4.19244 8.98827 4.17494 8.99082 4.15113L7.74789 4.01836C7.7432 4.06222 7.73728 4.11776 7.73491 4.16722C7.7334 4.19869 7.72589 4.32088 7.77002 4.45381C7.79681 4.53453 7.84611 4.63174 7.93481 4.71865C8.02353 4.80558 8.12082 4.852 8.19861 4.87657C8.27036 4.89924 8.33162 4.90522 8.36284 4.90748C8.39523 4.90981 8.42398 4.9098 8.43575 4.9098V3.6598ZM8.99082 4.15111C9.04544 3.63967 9.20567 3.27034 9.48058 2.96562C9.76704 2.64809 10.2179 2.35666 10.9288 2.08095L10.4768 0.915531C9.66972 1.22853 9.02009 1.60996 8.55245 2.12831C8.07327 2.65947 7.82577 3.28904 7.74789 4.01838L8.99082 4.15111ZM10.9287 2.08097C11.1711 1.98699 11.2613 1.95327 11.295 1.94324C11.3001 1.94171 11.2847 1.94673 11.2578 1.95121C11.2416 1.95391 11.1549 1.96902 11.0432 1.9446C10.9799 1.93076 10.8982 1.90206 10.8166 1.84304C10.732 1.78191 10.6702 1.70458 10.6295 1.62453C10.5591 1.48656 10.5634 1.3616 10.5635 1.35187L11.8135 1.35528C11.8135 1.3353 11.8169 1.20164 11.7432 1.057C11.6438 0.861867 11.4689 0.758141 11.3102 0.723442C11.1886 0.696852 11.0879 0.712278 11.0522 0.718228C11.0058 0.725969 10.9653 0.737185 10.9382 0.745255C10.8429 0.773625 10.6902 0.832754 10.4768 0.915518L10.9287 2.08097Z" fill="#1C1C1C"/>
<path d="M2.33325 8.18594C2.33325 5.29904 5.27851 3.63889 7.99906 4.82416C10.6909 3.72182 13.6666 5.27417 13.6666 8.18594C13.6666 11.2016 11.4296 15.8291 7.99906 14.3992C4.74186 15.7819 2.33325 11.2014 2.33325 8.18594Z" stroke="#1C1C1C" stroke-width="1.25" stroke-linejoin="round"/>
<path d="M6.44068 1.49762C6.15631 1.30197 5.76717 1.3739 5.57152 1.65827C5.37587 1.94265 5.4478 2.33178 5.73217 2.52743L6.44068 1.49762ZM7.39466 4.61967C7.30794 4.95378 7.50849 5.29493 7.84259 5.38165C8.1767 5.46836 8.51785 5.26782 8.60457 4.93371L7.39466 4.61967ZM5.73217 2.52743C6.07044 2.76016 6.56518 3.1681 6.93614 3.61644C7.12137 3.84031 7.25789 4.05298 7.33505 4.24025C7.41228 4.42768 7.41341 4.5474 7.39466 4.61967L8.60457 4.93371C8.71335 4.51457 8.63212 4.10705 8.49079 3.76405C8.3494 3.42089 8.13117 3.09992 7.89922 2.81958C7.43582 2.25952 6.84643 1.77677 6.44068 1.49762L5.73217 2.52743Z" fill="#1C1C1C"/>
</svg>
