<svg width="16" height="16" viewBox="0 0 16 16" fill="none" xmlns="http://www.w3.org/2000/svg">
<g clip-path="url(#clip0_481_3408)">
<path d="M7.99992 14.6667C11.6818 14.6667 14.6666 11.6819 14.6666 8.00004C14.6666 4.31814 11.6818 1.33337 7.99992 1.33337C4.31802 1.33337 1.33325 4.31814 1.33325 8.00004C1.33325 11.6819 4.31802 14.6667 7.99992 14.6667Z" stroke="#1C1C1C" stroke-width="1.25" stroke-linecap="round" stroke-linejoin="round"/>
<path d="M7.99992 12C10.2091 12 11.9999 10.2092 11.9999 8.00004C11.9999 5.7909 10.2091 4.00004 7.99992 4.00004C5.79078 4.00004 3.99992 5.7909 3.99992 8.00004C3.99992 10.2092 5.79078 12 7.99992 12Z" stroke="#1C1C1C" stroke-width="1.25" stroke-linecap="round" stroke-linejoin="round"/>
<path d="M7.99992 9.33337C8.7363 9.33337 9.33325 8.73642 9.33325 8.00004C9.33325 7.26366 8.7363 6.66671 7.99992 6.66671C7.26354 6.66671 6.66659 7.26366 6.66659 8.00004C6.66659 8.73642 7.26354 9.33337 7.99992 9.33337Z" stroke="#1C1C1C" stroke-width="1.25" stroke-linecap="round" stroke-linejoin="round"/>
</g>
<defs>
<clipPath id="clip0_481_3408">
<rect width="16" height="16" fill="white"/>
</clipPath>
</defs>
</svg>
