<svg width="16" height="16" viewBox="0 0 16 16" fill="none" xmlns="http://www.w3.org/2000/svg">
<path d="M13.8933 3.07325L13.4513 3.51509L13.4515 3.5153L13.8933 3.07325ZM11.3 1.9987V2.6237V1.9987ZM8.70667 3.07325L9.14861 3.5152L9.14871 3.51509L8.70667 3.07325ZM8 3.77992L7.55806 4.22186C7.80213 4.46594 8.19786 4.46594 8.44194 4.22186L8 3.77992ZM7.29333 3.07325L6.85139 3.5152L6.85139 3.5152L7.29333 3.07325ZM2.10666 8.25992L1.66472 8.70186L2.10666 8.25992ZM2.81333 8.96659L2.37139 9.40853L2.81333 8.96659ZM8 14.1533L7.55806 14.5952C7.80213 14.8393 8.19786 14.8393 8.44194 14.5952L8 14.1533ZM13.4515 7.81787C13.2074 8.06189 13.2073 8.45762 13.4513 8.70176C13.6953 8.94589 14.091 8.94599 14.3352 8.70197L13.4515 7.81787ZM10.5933 11.5599L11.0353 12.0019L10.5933 11.5599ZM12.9803 10.0569C13.2244 9.81278 13.2244 9.41706 12.9803 9.17298C12.7362 8.9289 12.3405 8.9289 12.0964 9.17298L12.9803 10.0569ZM14.3354 2.63142C13.9368 2.23268 13.4636 1.91638 12.9428 1.70058L12.4643 2.85537C12.8334 3.00832 13.1688 3.2325 13.4513 3.51509L14.3354 2.63142ZM12.9428 1.70058C12.422 1.48478 11.8638 1.3737 11.3 1.3737V2.6237C11.6996 2.6237 12.0952 2.70243 12.4643 2.85537L12.9428 1.70058ZM11.3 1.3737C10.7362 1.3737 10.178 1.48478 9.65718 1.70058L10.1357 2.85537C10.5048 2.70243 10.9004 2.6237 11.3 2.6237V1.3737ZM9.65718 1.70058C9.13636 1.91638 8.66316 2.23268 8.26462 2.63142L9.14871 3.51509C9.43117 3.2325 9.76655 3.00832 10.1357 2.85537L9.65718 1.70058ZM8.26472 2.63131L7.55806 3.33798L8.44194 4.22186L9.14861 3.5152L8.26472 2.63131ZM8.44194 3.33798L7.73527 2.63131L6.85139 3.5152L7.55806 4.22186L8.44194 3.33798ZM7.73527 2.63131C6.93027 1.82631 5.83845 1.37406 4.7 1.37406V2.62406C5.50693 2.62406 6.28081 2.94461 6.85139 3.5152L7.73527 2.63131ZM4.7 1.37406C3.56155 1.37406 2.46973 1.82631 1.66472 2.63131L2.54861 3.5152C3.11919 2.94461 3.89307 2.62406 4.7 2.62406V1.37406ZM1.66472 2.63131C0.859718 3.43632 0.407471 4.52814 0.407471 5.66659H1.65747C1.65747 4.85966 1.97802 4.08578 2.54861 3.5152L1.66472 2.63131ZM0.407471 5.66659C0.407471 6.80504 0.859718 7.89686 1.66472 8.70186L2.54861 7.81798C1.97802 7.24739 1.65747 6.47351 1.65747 5.66659H0.407471ZM1.66472 8.70186L2.37139 9.40853L3.25527 8.52464L2.54861 7.81798L1.66472 8.70186ZM2.37139 9.40853L7.55806 14.5952L8.44194 13.7113L3.25527 8.52464L2.37139 9.40853ZM14.3352 8.70197C14.7339 8.30342 15.0502 7.83022 15.266 7.3094L14.1112 6.83091C13.9583 7.20004 13.7341 7.53541 13.4515 7.81787L14.3352 8.70197ZM15.266 7.3094C15.4818 6.78858 15.5929 6.23035 15.5929 5.66659H14.3429C14.3429 6.06614 14.2642 6.46179 14.1112 6.83091L15.266 7.3094ZM15.5929 5.66659C15.5929 5.10283 15.4818 4.54459 15.266 4.02377L14.1112 4.50226C14.2642 4.87139 14.3429 5.26703 14.3429 5.66659H15.5929ZM15.266 4.02377C15.0502 3.50295 14.7339 3.02975 14.3352 2.63121L13.4515 3.5153C13.7341 3.79776 13.9583 4.13314 14.1112 4.50226L15.266 4.02377ZM8.44194 14.5952L11.0353 12.0019L10.1514 11.118L7.55806 13.7113L8.44194 14.5952ZM11.0353 12.0019L12.3319 10.7052L11.4481 9.82131L10.1514 11.118L11.0353 12.0019ZM12.3319 10.7052L12.9803 10.0569L12.0964 9.17298L11.4481 9.82131L12.3319 10.7052Z" fill="#1C1C1C"/>
<path d="M4 8.16987C3.65482 8.16987 3.375 8.44969 3.375 8.79487C3.375 9.14004 3.65482 9.41987 4 9.41987V8.16987ZM4.66667 8.79487V9.41987H5.08737L5.24571 9.0301L4.66667 8.79487ZM15.3333 10.0353C15.6785 10.0353 15.9583 9.75543 15.9583 9.41025C15.9583 9.06507 15.6785 8.78525 15.3333 8.78525V10.0353ZM9.64487 9.33982L10.2419 9.15502L9.64487 9.33982ZM8.88922 7.48307L8.3277 7.20864L8.88922 7.48307ZM9.0746 7.49741L8.47754 7.68221L9.0746 7.49741ZM7.25094 10.4524L6.6676 10.6768L7.25094 10.4524ZM4 9.41987H4.66667V8.16987H4V9.41987ZM5.24571 9.0301L6.15052 6.80288L4.99243 6.33241L4.08763 8.55963L5.24571 9.0301ZM5.17412 6.79375L6.6676 10.6768L7.83428 10.2281L6.3408 6.34502L5.17412 6.79375ZM7.99564 10.7349L9.45075 7.7575L8.3277 7.20864L6.87259 10.186L7.99564 10.7349ZM8.47754 7.68221L9.04781 9.52462L10.2419 9.15502L9.67165 7.31261L8.47754 7.68221ZM9.74039 10.0353H15.3333V8.78525H9.74039V10.0353ZM9.04781 9.52462C9.14179 9.82824 9.42256 10.0353 9.74039 10.0353V8.78525C9.97055 8.78525 10.1739 8.93516 10.2419 9.15502L9.04781 9.52462ZM9.45075 7.7575C9.24195 8.18473 8.61815 8.13647 8.47754 7.68221L9.67165 7.31261C9.47748 6.6853 8.61603 6.61866 8.3277 7.20864L9.45075 7.7575ZM6.6676 10.6768C6.89493 11.2679 7.71758 11.3038 7.99564 10.7349L6.87259 10.186C7.07395 9.77401 7.66966 9.80006 7.83428 10.2281L6.6676 10.6768ZM6.15052 6.80288C5.97138 7.24384 5.34497 7.23797 5.17412 6.79375L6.3408 6.34502C6.10485 5.73156 5.23982 5.72346 4.99243 6.33241L6.15052 6.80288Z" fill="#1C1C1C"/>
</svg>
