<svg width="16" height="16" viewBox="0 0 16 16" fill="none" xmlns="http://www.w3.org/2000/svg">
<path d="M13.6601 2.97448L13.2181 3.41631L13.2183 3.41652L13.6601 2.97448ZM11.0669 1.89999V2.52499V1.89999ZM8.47376 2.97448L8.9157 3.41642L8.9158 3.41631L8.47376 2.97448ZM7.76714 3.6811L7.32519 4.12304C7.56927 4.36712 7.965 4.36712 8.20908 4.12304L7.76714 3.6811ZM7.06051 2.97448L6.61857 3.41642V3.41642L7.06051 2.97448ZM1.87417 8.16082L2.31612 7.71887L1.87417 8.16082ZM2.5808 8.86744L2.13885 9.30938L2.13886 9.30938L2.5808 8.86744ZM7.76714 14.0538L7.32519 14.4957C7.56927 14.7398 7.965 14.7398 8.20908 14.4957L7.76714 14.0538ZM13.2183 7.71877C12.9741 7.96279 12.974 8.35852 13.2181 8.60265C13.4621 8.84679 13.8578 8.84688 14.1019 8.60286L13.2183 7.71877ZM10.3603 11.4606L10.8022 11.9025L10.3603 11.4606ZM12.7471 9.95767C12.9912 9.71359 12.9912 9.31787 12.7471 9.07379C12.503 8.82971 12.1073 8.82971 11.8632 9.07379L12.7471 9.95767ZM3.76743 8.07074C3.42225 8.07074 3.14243 8.35056 3.14243 8.69574C3.14243 9.04092 3.42225 9.32074 3.76743 9.32074V8.07074ZM4.43406 8.69574V9.32074C4.6884 9.32074 4.91737 9.16661 5.0131 8.93097L4.43406 8.69574ZM5.37054 6.39056L4.79149 6.15532L5.37054 6.39056ZM5.49452 6.39172L4.91117 6.61608L5.49452 6.39172ZM7.04563 10.4246L6.46229 10.649L6.46229 10.649L7.04563 10.4246ZM7.16774 10.4299L7.72927 10.7044H7.72927L7.16774 10.4299ZM8.69327 7.30847L9.2548 7.58291V7.5829L8.69327 7.30847ZM8.81684 7.31803L8.21979 7.50284V7.50284L8.81684 7.31803ZM9.41921 9.26413L10.0163 9.07933L10.0163 9.07933L9.41921 9.26413ZM15.1 9.93608C15.4452 9.93608 15.725 9.65626 15.725 9.31108C15.725 8.96591 15.4452 8.68608 15.1 8.68608V9.93608ZM14.1021 2.53264C13.7036 2.13393 13.2304 1.81764 12.7097 1.60185L12.2312 2.75665C12.6003 2.90958 12.9356 3.13374 13.2181 3.41631L14.1021 2.53264ZM12.7097 1.60185C12.1889 1.38606 11.6307 1.27499 11.0669 1.27499V2.52499C11.4665 2.52499 11.8621 2.60371 12.2312 2.75665L12.7097 1.60185ZM11.0669 1.27499C10.5032 1.27499 9.94499 1.38606 9.4242 1.60185L9.90269 2.75665C10.2718 2.60371 10.6674 2.52499 11.0669 2.52499V1.27499ZM9.4242 1.60185C8.90341 1.81764 8.43024 2.13393 8.03171 2.53264L8.9158 3.41631C9.19825 3.13374 9.5336 2.90958 9.90269 2.75665L9.4242 1.60185ZM8.03182 2.53253L7.32519 3.23916L8.20908 4.12304L8.9157 3.41642L8.03182 2.53253ZM8.20908 3.23916L7.50246 2.53253L6.61857 3.41642L7.32519 4.12304L8.20908 3.23916ZM7.50246 2.53253C6.69749 1.72757 5.60573 1.27535 4.46734 1.27535V2.52535C5.27421 2.52535 6.04803 2.84588 6.61857 3.41642L7.50246 2.53253ZM4.46734 1.27535C3.32896 1.27535 2.23719 1.72757 1.43223 2.53253L2.31612 3.41642C2.88666 2.84588 3.66048 2.52535 4.46734 2.52535V1.27535ZM1.43223 2.53253C0.627272 3.3375 0.175049 4.42926 0.175049 5.56765H1.42505C1.42505 4.76078 1.74558 3.98696 2.31612 3.41642L1.43223 2.53253ZM0.175049 5.56765C0.175049 6.70603 0.627272 7.7978 1.43223 8.60276L2.31612 7.71887C1.74558 7.14833 1.42505 6.37451 1.42505 5.56765H0.175049ZM1.43223 8.60276L2.13885 9.30938L3.02274 8.4255L2.31612 7.71887L1.43223 8.60276ZM2.13886 9.30938L7.32519 14.4957L8.20908 13.6118L3.02274 8.4255L2.13886 9.30938ZM14.1019 8.60286C14.5006 8.20434 14.8169 7.73116 15.0327 7.21037L13.8779 6.73188C13.725 7.10098 13.5008 7.43633 13.2183 7.71877L14.1019 8.60286ZM15.0327 7.21037C15.2485 6.68958 15.3596 6.13138 15.3596 5.56765H14.1096C14.1096 5.96717 14.0309 6.36278 13.8779 6.73188L15.0327 7.21037ZM15.3596 5.56765C15.3596 5.00392 15.2485 4.44571 15.0327 3.92492L13.8779 4.40341C14.0309 4.77251 14.1096 5.16812 14.1096 5.56765H15.3596ZM15.0327 3.92492C14.8169 3.40413 14.5006 2.93095 14.1019 2.53243L13.2183 3.41652C13.5008 3.69896 13.725 4.03431 13.8779 4.40341L15.0327 3.92492ZM8.20908 14.4957L10.8022 11.9025L9.91837 11.0187L7.32519 13.6118L8.20908 14.4957ZM10.8022 11.9025L12.0988 10.606L11.2149 9.72208L9.91837 11.0187L10.8022 11.9025ZM12.0988 10.606L12.7471 9.95767L11.8632 9.07379L11.2149 9.72208L12.0988 10.606ZM3.76743 9.32074H4.43406V8.07074H3.76743V9.32074ZM5.0131 8.93097L5.94958 6.62579L4.79149 6.15532L3.85501 8.4605L5.0131 8.93097ZM4.91117 6.61608L6.46229 10.649L7.62897 10.2002L6.07786 6.16735L4.91117 6.61608ZM7.72927 10.7044L9.2548 7.58291L8.13174 7.03404L6.60621 10.1555L7.72927 10.7044ZM8.21979 7.50284L8.82215 9.44893L10.0163 9.07933L9.4139 7.13323L8.21979 7.50284ZM9.48289 9.93608H15.1V8.68608H9.48289V9.93608ZM8.82215 9.44893C8.91181 9.73858 9.17967 9.93608 9.48289 9.93608V8.68608C9.72766 8.68608 9.94389 8.84551 10.0163 9.07933L8.82215 9.44893ZM9.2548 7.5829C9.03274 8.03726 8.36932 7.98594 8.21979 7.50284L9.4139 7.13323C9.22866 6.53476 8.40682 6.47119 8.13174 7.03404L9.2548 7.5829ZM6.46229 10.649C6.67916 11.2128 7.46398 11.2472 7.72927 10.7044L6.60621 10.1555C6.82036 9.71734 7.4539 9.74506 7.62897 10.2002L6.46229 10.649ZM5.94958 6.62579C5.75906 7.09475 5.09288 7.08852 4.91117 6.61608L6.07786 6.16735C5.85276 5.5821 5.0275 5.57438 4.79149 6.15532L5.94958 6.62579Z" fill="#1C1C1C"/>
</svg>
