<svg width="24" height="24" viewBox="0 0 24 24" fill="none" xmlns="http://www.w3.org/2000/svg">
<path d="M16.0001 3.99988H18.0001C18.5305 3.99988 19.0392 4.21059 19.4143 4.58566C19.7893 4.96074 20.0001 5.46944 20.0001 5.99988V19.9999C20.0001 20.5303 19.7893 21.039 19.4143 21.4141C19.0392 21.7892 18.5305 21.9999 18.0001 21.9999H6.00006C5.46963 21.9999 4.96092 21.7892 4.58585 21.4141C4.21077 21.039 4.00006 20.5303 4.00006 19.9999V5.99988C4.00006 5.46944 4.21077 4.96074 4.58585 4.58566C4.96092 4.21059 5.46963 3.99988 6.00006 3.99988H8.00006M9.00006 1.99988H15.0001C15.5523 1.99988 16.0001 2.44759 16.0001 2.99988V4.99988C16.0001 5.55216 15.5523 5.99988 15.0001 5.99988H9.00006C8.44778 5.99988 8.00006 5.55216 8.00006 4.99988V2.99988C8.00006 2.44759 8.44778 1.99988 9.00006 1.99988Z" stroke="#1C1C1C" stroke-width="1.25" stroke-linecap="round" stroke-linejoin="round"/>
</svg>
