<svg width="32" height="32" viewBox="0 0 32 32" fill="none" xmlns="http://www.w3.org/2000/svg">
<path d="M17.8665 4.66669H8.93317C8.33201 4.66669 7.75548 4.9055 7.3304 5.33058C6.90531 5.75566 6.6665 6.3322 6.6665 6.93335V25.0667C6.6665 25.6678 6.90531 26.2444 7.3304 26.6695C7.75548 27.0945 8.33201 27.3334 8.93317 27.3334H22.5332C23.1343 27.3334 23.7109 27.0945 24.1359 26.6695C24.561 26.2444 24.7998 25.6678 24.7998 25.0667V11.6M17.8665 4.66669L24.7998 11.6M17.8665 4.66669V11.6H24.7998" stroke="#999999" stroke-width="1.25" stroke-linecap="round" stroke-linejoin="round"/>
<path d="M10 20H15.1429M10 22H15.1429M11.9286 18L11.2857 24M13.8571 18L13.2143 24" stroke="#999999" stroke-width="1.25" stroke-linecap="round" stroke-linejoin="round"/>
</svg>
