<svg width="16" height="16" viewBox="0 0 16 16" fill="none" xmlns="http://www.w3.org/2000/svg">
<path d="M9.25383 1.33334H3.99975C3.64618 1.33334 3.3071 1.47384 3.05709 1.72392C2.80708 1.974 2.66663 2.31318 2.66663 2.66684V13.3348C2.66663 13.6885 2.80708 14.0277 3.05709 14.2778C3.3071 14.5279 3.64618 14.6683 3.99975 14.6683H11.9985C12.3521 14.6683 12.6912 14.5279 12.9412 14.2778C13.1912 14.0277 13.3316 13.6885 13.3316 13.3348V5.41229M9.25383 1.33334L13.3316 5.41229M9.25383 1.33334V5.41229H13.3316" stroke="#1C1C1C" stroke-width="1.25" stroke-linecap="round" stroke-linejoin="round"/>
<path d="M4.62683 10.3542H7.65157M4.62683 11.5308H7.65157M5.76111 9.17758L5.38302 12.7074M6.89538 9.17758L6.51729 12.7074" stroke="#1C1C1C" stroke-width="1.25" stroke-linecap="round" stroke-linejoin="round"/>
</svg>
