<svg width="24" height="24" viewBox="0 0 24 24" fill="none" xmlns="http://www.w3.org/2000/svg">
<path d="M16.1668 12.0007C16.1668 14.3018 14.3013 16.1673 12.0002 16.1673M16.1668 12.0007C16.1668 9.69946 14.3013 7.83398 12.0002 7.83398M16.1668 12.0007H7.8335M12.0002 16.1673C9.69898 16.1673 7.8335 14.3018 7.8335 12.0007M12.0002 16.1673C13.0424 15.0263 13.6346 13.5456 13.6668 12.0007C13.6346 10.4557 13.0424 8.97496 12.0002 7.83398M12.0002 16.1673C10.958 15.0263 10.3657 13.5456 10.3335 12.0007C10.3657 10.4557 10.958 8.97496 12.0002 7.83398M7.8335 12.0007C7.8335 9.69946 9.69898 7.83398 12.0002 7.83398M6.28571 0.999756H17.7143C18.9766 0.999756 20 1.98473 20 3.19976V20.7998C20 22.0148 18.9766 22.9998 17.7143 22.9998H6.28571C5.02335 22.9998 4 22.0148 4 20.7998V3.19976C4 1.98473 5.02335 0.999756 6.28571 0.999756Z" stroke="#1C1C1C" stroke-width="1.25" stroke-linecap="round" stroke-linejoin="round"/>
</svg>
