<svg width="16" height="16" viewBox="0 0 16 16" fill="none" xmlns="http://www.w3.org/2000/svg">
<path d="M5.33341 11.3333L8.00008 14M8.00008 14L10.6667 11.3333M8.00008 14V7.99996M13.9201 12.06C14.4997 11.6524 14.9343 11.0707 15.1609 10.3994C15.3876 9.72805 15.3943 9.00197 15.1803 8.32651C14.9663 7.65104 14.5427 7.06135 13.9708 6.643C13.3989 6.22464 12.7086 5.9994 12.0001 5.99996H11.1601C10.9596 5.21854 10.5844 4.49279 10.0628 3.87734C9.54124 3.2619 8.88684 2.7728 8.14888 2.44686C7.41092 2.12092 6.60864 1.96664 5.80243 1.99563C4.99622 2.02463 4.20709 2.23614 3.49445 2.61424C2.78181 2.99234 2.16423 3.52719 1.6882 4.17851C1.21218 4.82983 0.890112 5.58065 0.746251 6.37445C0.602391 7.16826 0.640484 7.98435 0.857664 8.7613C1.07484 9.53825 1.46545 10.2558 2.00008 10.86" stroke="#1C1C1C" stroke-width="1.25" stroke-linecap="round" stroke-linejoin="round"/>
</svg>
