<svg width="24" height="24" viewBox="0 0 24 24" fill="none" xmlns="http://www.w3.org/2000/svg">
<path d="M10.7066 13.686C10.7871 13.686 10.8542 13.7156 10.9079 13.7747C10.967 13.8284 10.9966 13.8955 10.9966 13.9761C10.9966 14.0513 10.967 14.1158 10.9079 14.1695C10.8542 14.2232 10.7871 14.25 10.7066 14.25H8.66822C8.59307 14.25 8.52587 14.2232 8.46685 14.1695C8.41307 14.1158 8.38622 14.0513 8.38622 13.9761C8.38622 13.9009 8.41307 13.8338 8.46685 13.7747C8.52055 13.7156 8.58767 13.686 8.66822 13.686H9.44972V10.3425L8.78102 10.6729C8.75957 10.6836 8.73535 10.6943 8.7085 10.7051C8.68705 10.7105 8.64677 10.7132 8.58767 10.7132C8.53397 10.7132 8.48027 10.689 8.42657 10.6406C8.3728 10.5869 8.34595 10.5064 8.34595 10.3989C8.34595 10.2915 8.40235 10.211 8.51515 10.1573L9.41747 9.68995C9.47657 9.65777 9.53837 9.64165 9.6028 9.64165H9.73975C9.8257 9.64165 9.89822 9.67382 9.95732 9.73832C10.0217 9.79742 10.054 9.86987 10.054 9.95582V13.686H10.7066ZM15.1335 13.686C15.2141 13.686 15.2812 13.7156 15.335 13.7747C15.3887 13.8284 15.4155 13.8955 15.4155 13.9761C15.4155 14.0513 15.3887 14.1158 15.335 14.1695C15.2812 14.2232 15.2141 14.25 15.1335 14.25H12.5876C12.4856 14.25 12.4023 14.2178 12.3379 14.1533C12.2734 14.0889 12.2412 14.0083 12.2412 13.9116C12.2412 13.6807 12.3056 13.4712 12.4346 13.2832C12.5634 13.0952 12.7246 12.9233 12.9179 12.7676C13.1113 12.6065 13.3235 12.4561 13.5544 12.3164C13.7854 12.1768 13.9976 12.0371 14.1909 11.8975C14.3896 11.7578 14.5535 11.6128 14.6823 11.4624C14.8112 11.312 14.8757 11.1617 14.8757 11.0112C14.8757 10.8608 14.8569 10.7373 14.8193 10.6406C14.7817 10.5386 14.7227 10.4526 14.642 10.3829C14.4648 10.2217 14.1936 10.1411 13.8284 10.1411C13.4363 10.1411 13.0603 10.2217 12.7004 10.3829C12.6575 10.4043 12.6064 10.415 12.5474 10.415C12.4937 10.415 12.4426 10.3909 12.3943 10.3425C12.3513 10.2942 12.3298 10.2244 12.3298 10.133C12.3298 10.0418 12.3755 9.96925 12.4667 9.91555C12.9125 9.68995 13.404 9.57715 13.9412 9.57715C14.3708 9.57715 14.728 9.70067 15.0127 9.9478C15.3081 10.1948 15.4558 10.5171 15.4558 10.9145C15.4558 11.312 15.2543 11.6987 14.8515 12.0747C14.6743 12.2359 14.4809 12.3863 14.2715 12.5259C14.0674 12.6602 13.8686 12.7944 13.6753 12.9287C13.4819 13.0577 13.3073 13.1839 13.1516 13.3074C12.9958 13.4309 12.8911 13.5572 12.8374 13.686H15.1335Z" fill="#999999"/>
<path d="M10.9078 13.7746L10.7414 13.9259L10.7486 13.9339L10.7565 13.9411L10.9078 13.7746ZM10.9078 14.1694L10.7565 14.0029L10.7526 14.0065L10.7488 14.0102L10.9078 14.1694ZM8.46675 14.1694L8.3076 14.3285L8.31142 14.3323L8.3154 14.3359L8.46675 14.1694ZM8.46675 13.7746L8.30025 13.6232L8.46675 13.7746ZM9.44962 13.6859V13.9109H9.67462V13.6859H9.44962ZM9.44962 10.3424H9.67462V9.98033L9.34995 10.1408L9.44962 10.3424ZM8.78092 10.6728L8.68125 10.4711L8.68027 10.4715L8.78092 10.6728ZM8.7084 10.705L8.763 10.9233L8.77777 10.9196L8.79195 10.9139L8.7084 10.705ZM8.42647 10.6406L8.26732 10.7996L8.27152 10.8038L8.27595 10.8078L8.42647 10.6406ZM8.51505 10.1572L8.61187 10.3604L8.61855 10.357L8.51505 10.1572ZM9.41737 9.68985L9.52087 9.88973L9.52515 9.8874L9.41737 9.68985ZM9.95722 9.73823L9.79132 9.89025L9.79792 9.89745L9.80512 9.90405L9.95722 9.73823ZM10.0539 13.6859H9.8289V13.9109H10.0539V13.6859ZM10.7065 13.9109C10.7186 13.9109 10.7243 13.913 10.7266 13.9141C10.7289 13.9151 10.7338 13.9176 10.7414 13.9259L11.0743 13.6232C10.9776 13.5168 10.8498 13.4609 10.7065 13.4609V13.9109ZM10.7565 13.9411C10.7648 13.9487 10.7674 13.9536 10.7684 13.9559C10.7694 13.9582 10.7715 13.9638 10.7715 13.976H11.2215C11.2215 13.8327 11.1657 13.7049 11.0592 13.6081L10.7565 13.9411ZM10.7715 13.976C10.7715 13.9832 10.7703 13.9859 10.7698 13.987C10.7692 13.9883 10.7665 13.9939 10.7565 14.0029L11.0592 14.3359C11.1619 14.2425 11.2215 14.1189 11.2215 13.976H10.7715ZM10.7488 14.0102C10.74 14.019 10.7314 14.0249 10.7065 14.0249V14.4749C10.8427 14.4749 10.9683 14.4272 11.067 14.3285L10.7488 14.0102ZM10.7065 14.0249H8.66812V14.4749H10.7065V14.0249ZM8.66812 14.0249C8.6526 14.0249 8.63857 14.0215 8.6181 14.0029L8.3154 14.3359C8.41305 14.4247 8.53327 14.4749 8.66812 14.4749V14.0249ZM8.62582 14.0102C8.61382 13.9983 8.61112 13.9909 8.61112 13.976H8.16112C8.16112 14.1116 8.2122 14.2331 8.3076 14.3285L8.62582 14.0102ZM8.61112 13.976C8.61112 13.9604 8.61457 13.9464 8.63317 13.9259L8.30025 13.6232C8.21145 13.721 8.16112 13.8412 8.16112 13.976H8.61112ZM8.63317 13.9259C8.64075 13.9176 8.6457 13.9151 8.64795 13.9141C8.65027 13.913 8.65597 13.9109 8.66812 13.9109V13.4609C8.5248 13.4609 8.397 13.5168 8.30025 13.6232L8.63317 13.9259ZM8.66812 13.9109H9.44962V13.4609H8.66812V13.9109ZM9.67462 13.6859V10.3424H9.22462V13.6859H9.67462ZM9.34995 10.1408L8.68125 10.4711L8.8806 10.8745L9.5493 10.5442L9.34995 10.1408ZM8.68027 10.4715C8.66542 10.479 8.64705 10.4873 8.62485 10.4961L8.79195 10.9139C8.82352 10.9013 8.85352 10.8881 8.88157 10.874L8.68027 10.4715ZM8.65387 10.4867C8.6595 10.4853 8.66197 10.4852 8.65965 10.4855C8.65777 10.4857 8.6538 10.4861 8.64712 10.4866C8.6337 10.4875 8.6142 10.4881 8.58757 10.4881V10.9381C8.64435 10.9381 8.71102 10.9363 8.763 10.9233L8.65387 10.4867ZM8.58757 10.4881C8.59117 10.4881 8.59432 10.4885 8.59665 10.4891C8.59897 10.4895 8.59995 10.49 8.59935 10.4897C8.59792 10.4891 8.59027 10.4853 8.57692 10.4733L8.27595 10.8078C8.3565 10.8803 8.4615 10.9381 8.58757 10.9381V10.4881ZM8.58555 10.4815C8.58555 10.4814 8.58502 10.481 8.58412 10.4795C8.58315 10.4779 8.58142 10.4746 8.57947 10.4687C8.57542 10.4565 8.57085 10.4345 8.57085 10.3988H8.12085C8.12085 10.541 8.15655 10.6889 8.26732 10.7996L8.58555 10.4815ZM8.57085 10.3988C8.57085 10.3919 8.57175 10.3886 8.57197 10.388C8.57212 10.3875 8.57212 10.3874 8.5725 10.3869C8.57317 10.386 8.5812 10.3749 8.6118 10.3603L8.4183 9.954C8.3361 9.99315 8.2596 10.0492 8.20387 10.1288C8.14672 10.2104 8.12085 10.3034 8.12085 10.3988H8.57085ZM8.61855 10.357L9.52087 9.88965L9.31395 9.49005L8.41162 9.95738L8.61855 10.357ZM9.52515 9.8874C9.55267 9.8724 9.57757 9.86655 9.6027 9.86655V9.41655C9.4989 9.41655 9.40027 9.44288 9.30967 9.49238L9.52515 9.8874ZM9.6027 9.86655H9.73965V9.41655H9.6027V9.86655ZM9.73965 9.86655C9.76133 9.86655 9.774 9.87135 9.79132 9.89025L10.123 9.5862C10.0222 9.47618 9.88995 9.41655 9.73965 9.41655V9.86655ZM9.80512 9.90405C9.82402 9.92138 9.8289 9.93413 9.8289 9.95573H10.2789C10.2789 9.8055 10.2193 9.6732 10.1092 9.57233L9.80512 9.90405ZM9.8289 9.95573V13.6859H10.2789V9.95573H9.8289ZM10.0539 13.9109H10.7065V13.4609H10.0539V13.9109ZM15.3349 13.7746L15.1684 13.9259L15.172 13.9299L15.1757 13.9337L15.3349 13.7746ZM15.3349 14.1694L15.494 14.3285L15.3349 14.1694ZM12.9178 12.7675L13.059 12.9428L13.0619 12.9404L12.9178 12.7675ZM13.5543 12.3164L13.4379 12.1238L13.5543 12.3164ZM14.1908 11.8974L14.0614 11.7133L14.0591 11.715L14.1908 11.8974ZM14.8192 10.6406L14.6081 10.7183L14.6095 10.7221L14.8192 10.6406ZM14.6419 10.3828L14.4906 10.5493L14.4946 10.5528L14.6419 10.3828ZM12.7004 10.3828L12.6083 10.1772L12.5997 10.1815L12.7004 10.3828ZM12.3942 10.3424L12.226 10.4919L12.2304 10.4969L12.235 10.5016L12.3942 10.3424ZM12.4666 9.91545L12.3651 9.71468L12.3587 9.7179L12.3526 9.7215L12.4666 9.91545ZM15.0126 9.9477L14.8651 10.1177L14.8682 10.1203L15.0126 9.9477ZM14.8514 12.0746L15.0029 12.2411L15.005 12.2391L14.8514 12.0746ZM14.2714 12.5258L14.3951 12.7138L14.3962 12.713L14.2714 12.5258ZM13.6752 12.9287L13.8 13.1159L13.8035 13.1135L13.6752 12.9287ZM12.8373 13.6859L12.6296 13.5995L12.4998 13.9109H12.8373V13.6859ZM15.1334 13.9109C15.1456 13.9109 15.1513 13.913 15.1536 13.9141C15.1559 13.9151 15.1608 13.9176 15.1684 13.9259L15.5013 13.6232C15.4046 13.5168 15.2767 13.4609 15.1334 13.4609V13.9109ZM15.1757 13.9337C15.1845 13.9424 15.1904 13.9511 15.1904 13.976H15.6404C15.6404 13.8398 15.5926 13.7141 15.494 13.6155L15.1757 13.9337ZM15.1904 13.976C15.1904 13.9909 15.1877 13.9983 15.1757 14.0102L15.494 14.3285C15.5894 14.2331 15.6404 14.1116 15.6404 13.976H15.1904ZM15.1757 14.0102C15.167 14.019 15.1583 14.0249 15.1334 14.0249V14.4749C15.2696 14.4749 15.3953 14.4272 15.494 14.3285L15.1757 14.0102ZM15.1334 14.0249H12.5876V14.4749H15.1334V14.0249ZM12.5876 14.0249C12.5374 14.0249 12.5139 14.0112 12.4969 13.9942L12.1786 14.3123C12.2905 14.4242 12.4336 14.4749 12.5876 14.4749V14.0249ZM12.4969 13.9942C12.4774 13.9747 12.4661 13.9526 12.4661 13.9115H12.0161C12.0161 14.0639 12.0693 14.2029 12.1786 14.3123L12.4969 13.9942ZM12.4661 13.9115C12.4661 13.7254 12.5172 13.5604 12.62 13.4104L12.2489 13.1559C12.0939 13.3819 12.0161 13.6358 12.0161 13.9115H12.4661ZM12.62 13.4104C12.7354 13.242 12.8812 13.0859 13.059 12.9428L12.7767 12.5923C12.5678 12.7606 12.3913 12.9483 12.2489 13.1559L12.62 13.4104ZM13.0619 12.9404C13.246 12.787 13.4488 12.6431 13.6708 12.5089L13.4379 12.1238C13.198 12.2689 12.9765 12.4258 12.7738 12.5947L13.0619 12.9404ZM13.6708 12.5089C13.9063 12.3665 14.1236 12.2234 14.3225 12.0798L14.0591 11.715C13.8713 11.8506 13.6643 11.9869 13.4379 12.1238L13.6708 12.5089ZM14.3202 12.0815C14.531 11.9334 14.7096 11.7761 14.8531 11.6087L14.5114 11.3159C14.3971 11.4493 14.2481 11.5821 14.0614 11.7133L14.3202 12.0815ZM14.8531 11.6087C15.0057 11.4307 15.1006 11.2304 15.1006 11.0111H14.6506C14.6506 11.0928 14.6166 11.1932 14.5114 11.3159L14.8531 11.6087ZM15.1006 11.0111C15.1006 10.8443 15.0801 10.6906 15.0289 10.559L14.6095 10.7221C14.6335 10.7839 14.6506 10.8772 14.6506 11.0111H15.1006ZM15.0304 10.5628C14.9799 10.4258 14.8992 10.3079 14.7893 10.2127L14.4946 10.5528C14.5459 10.5972 14.5834 10.6512 14.6081 10.7183L15.0304 10.5628ZM14.7933 10.2163C14.5576 10.0019 14.221 9.91605 13.8283 9.91605V10.3661C14.1659 10.3661 14.3719 10.4413 14.4906 10.5492L14.7933 10.2163ZM13.8283 9.91605C13.4043 9.91605 12.997 10.0034 12.6084 10.1774L12.7923 10.5881C13.1233 10.4399 13.468 10.3661 13.8283 10.3661V9.91605ZM12.5997 10.1815C12.5943 10.1842 12.5793 10.19 12.5473 10.19V10.64C12.6334 10.64 12.7204 10.6243 12.8009 10.584L12.5997 10.1815ZM12.5473 10.19C12.5509 10.19 12.5545 10.1904 12.5581 10.1912C12.5615 10.192 12.5638 10.193 12.565 10.1935C12.5671 10.1945 12.563 10.193 12.5533 10.1834L12.235 10.5016C12.3135 10.58 12.4187 10.64 12.5473 10.64V10.19ZM12.5624 10.193C12.5687 10.2 12.5547 10.1918 12.5547 10.133H12.1047C12.1047 10.2569 12.1338 10.3882 12.226 10.4919L12.5624 10.193ZM12.5547 10.133C12.5547 10.1291 12.5552 10.1279 12.555 10.1285C12.5549 10.1287 12.5548 10.129 12.5546 10.1294C12.5545 10.1298 12.5543 10.13 12.5544 10.13C12.5544 10.13 12.5546 10.1295 12.5554 10.1287C12.5561 10.1279 12.5573 10.1265 12.5593 10.1247C12.5631 10.1211 12.5698 10.1158 12.5807 10.1094L12.3526 9.7215C12.2056 9.80798 12.1047 9.94785 12.1047 10.133H12.5547ZM12.5683 10.1162C12.9802 9.90773 13.4365 9.80205 13.9411 9.80205V9.35205C13.3714 9.35205 12.8447 9.47198 12.3651 9.71468L12.5683 10.1162ZM13.9411 9.80205C14.3246 9.80205 14.6271 9.91103 14.8651 10.1176L15.16 9.77775C14.8288 9.4902 14.4169 9.35205 13.9411 9.35205V9.80205ZM14.8682 10.1203C15.1107 10.323 15.2307 10.5812 15.2307 10.9145H15.6807C15.6807 10.4528 15.5053 10.0664 15.1569 9.77505L14.8682 10.1203ZM15.2307 10.9145C15.2307 11.2285 15.0733 11.5598 14.6979 11.9102L15.005 12.2391C15.4352 11.8376 15.6807 11.3954 15.6807 10.9145H15.2307ZM14.7001 11.9081C14.5315 12.0614 14.3471 12.2049 14.1466 12.3386L14.3962 12.713C14.6145 12.5675 14.8168 12.4102 15.0028 12.2411L14.7001 11.9081ZM14.1477 12.3378C13.9421 12.4731 13.7418 12.6085 13.5469 12.7439L13.8035 13.1135C13.9953 12.9803 14.1925 12.8471 14.3951 12.7138L14.1477 12.3378ZM13.5504 12.7415C13.3527 12.8732 13.173 13.0031 13.0117 13.131L13.2913 13.4836C13.4415 13.3645 13.6109 13.2419 13.8 13.1159L13.5504 12.7415ZM13.0117 13.131C12.838 13.2688 12.7029 13.4236 12.6296 13.5995L13.045 13.7725C13.0791 13.6906 13.1535 13.5929 13.2913 13.4836L13.0117 13.131ZM12.8373 13.9109H15.1334V13.4609H12.8373V13.9109Z" fill="#999999"/>
<path d="M12 22.0312C17.5401 22.0312 22.0312 17.5401 22.0312 12C22.0312 6.45989 17.5401 1.96875 12 1.96875C6.45989 1.96875 1.96875 6.45989 1.96875 12C1.96875 17.5401 6.45989 22.0312 12 22.0312Z" stroke="#999999" stroke-width="1.25"/>
</svg>
