<svg width="24" height="24" viewBox="0 0 24 24" fill="none" xmlns="http://www.w3.org/2000/svg">
<path d="M8.84851 11.6638H14.1819" stroke="black" stroke-width="1.25" stroke-linecap="round"/>
<path d="M8.84851 9.62933H15.1516" stroke="black" stroke-width="1.25" stroke-linecap="round"/>
<path d="M8.84851 7.59485H12.7273" stroke="black" stroke-width="1.25" stroke-linecap="round" stroke-linejoin="round"/>
<path d="M12.345 21.8833C12.4313 21.8365 14.2642 20.5514 16.1402 18.5187C18.7062 15.715 20 12.958 20 10.3178C20.0001 5.73832 16.4205 2 12 2C7.57952 2 4 5.73832 4 10.3178C4 12.958 5.29382 15.715 7.85984 18.5187C9.73587 20.5514 11.5687 21.8365 11.655 21.8833C11.7628 21.9532 11.8922 22 12 22C12.1078 22 12.2372 21.9532 12.345 21.8833Z" stroke="black" stroke-width="1.25"/>
</svg>
