<svg width="24" height="24" viewBox="0 0 24 24" fill="none" xmlns="http://www.w3.org/2000/svg">
<path d="M8.84851 7.59485H12.7273M8.84851 9.62933H15.1516M8.84851 11.6638H14.1819M16.1402 18.5187C14.2642 20.5514 12.4313 21.8365 12.345 21.8833C12.2372 21.9532 12.1078 22 12 22C11.8922 22 11.7628 21.9532 11.655 21.8833C11.5687 21.8365 9.73587 20.5514 7.85984 18.5187C5.29382 15.715 4 12.958 4 10.3178C4 5.73832 7.57952 2 12 2C16.4205 2 20.0001 5.73832 20 10.3178C20 12.958 18.7062 15.715 16.1402 18.5187Z" stroke="#1C1C1C" stroke-width="1.25" stroke-linecap="round"/>
</svg>
