<svg width="24" height="24" viewBox="0 0 24 24" fill="none" xmlns="http://www.w3.org/2000/svg">
<path d="M8.34814 12.1599C8.34814 11.8793 8.56445 11.6519 8.83128 11.6519H14.1457C14.4125 11.6519 14.6288 11.8793 14.6288 12.1599C14.6288 12.4404 14.4125 12.6678 14.1457 12.6678H8.83128C8.56445 12.6678 8.34814 12.4404 8.34814 12.1599Z" fill="#1C1C1C"/>
<path d="M8.34814 10.1279C8.34814 9.84737 8.56445 9.61993 8.83128 9.61993H15.1119C15.3788 9.61993 15.595 9.84737 15.595 10.1279C15.595 10.4085 15.3788 10.6359 15.1119 10.6359H8.83128C8.56445 10.6359 8.34814 10.4085 8.34814 10.1279Z" fill="#1C1C1C"/>
<path d="M8.34814 8.09594C8.34814 7.81539 8.56445 7.58795 8.83128 7.58795H12.6963C12.9631 7.58795 13.1794 7.81539 13.1794 8.09594C13.1794 8.3765 12.9631 8.60394 12.6963 8.60394H8.83128C8.56445 8.60394 8.34814 8.3765 8.34814 8.09594Z" fill="#1C1C1C"/>
<path fill-rule="evenodd" clip-rule="evenodd" d="M11.9716 20.8805C11.9294 20.8499 11.8796 20.8134 11.8228 20.7711C11.6228 20.6218 11.3409 20.4035 11.0036 20.1242C10.3281 19.5649 9.43887 18.7674 8.54174 17.7932C6.07886 15.0954 4.96626 12.5816 4.96626 10.3075C4.96626 6.30205 8.09357 3.01599 11.9716 3.01599C15.8496 3.01599 18.977 6.30205 18.977 10.3075C18.977 12.5816 17.8644 15.0954 15.4014 17.7933C14.5043 18.7674 13.6151 19.5649 12.9396 20.1242C12.6023 20.4035 12.3204 20.6218 12.1204 20.7711C12.0636 20.8134 12.0138 20.8499 11.9716 20.8805ZM16.0971 18.4984C14.2277 20.5286 12.4013 21.8121 12.3154 21.8588C12.208 21.9287 12.079 21.9754 11.9716 21.9754C11.8642 21.9754 11.7352 21.9287 11.6278 21.8588C11.5419 21.8121 9.71549 20.5286 7.84613 18.4984C5.28922 15.6981 4 12.9445 4 10.3075C4 5.73373 7.5668 2 11.9716 2C16.3764 2 19.9433 5.73373 19.9432 10.3075C19.9432 12.9445 18.654 15.6981 16.0971 18.4984Z" fill="#1C1C1C"/>
</svg>
