<svg width="40" height="40" viewBox="0 0 40 40" fill="none" xmlns="http://www.w3.org/2000/svg">
<rect width="40" height="40" rx="20" fill="#FFCF80"/>
<path d="M14.5625 18.7572V20.0001M14.5625 20.0001V21.2431M14.5625 20.0001H13.4375M14.5625 20.0001H15.6875M23.4005 25H27.5981C28.8481 25 29.7918 23.866 29.5648 22.6368L28.5013 16.8785C28.5013 16.3803 28.3221 15.9025 28.0033 15.5502C27.6844 15.1979 27.252 15 26.801 15H13.199C12.7481 15 12.3156 15.1979 11.9968 15.5502C11.6779 15.9025 11.4988 16.3803 11.4988 16.8785L10.4353 22.6368C10.2082 23.866 11.1519 25 12.402 25H16.5995L18.2998 22.1822H21.7003L23.4005 25ZM26.5625 20.0001C26.5625 20.9154 25.8909 21.6574 25.0625 21.6574C24.2341 21.6574 23.5625 20.9154 23.5625 20.0001C23.5625 19.0848 24.2341 18.3428 25.0625 18.3428C25.8909 18.3428 26.5625 19.0848 26.5625 20.0001Z" stroke="white" stroke-width="1.25" stroke-linecap="round" stroke-linejoin="round"/>
</svg>
