<svg width="24" height="24" viewBox="0 0 24 24" fill="none" xmlns="http://www.w3.org/2000/svg">
<path d="M7.55968 2H5.05775C3.369 2 2 3.37206 2 5.06459V7.66178M16.4403 2H18.9423C20.631 2 22 3.37206 22 5.06459V7.66178M7.64596 7.5016V10.8636M16.619 7.5016V10.8636M12.602 8.55576V12.8054L12.602 12.8075L12.602 12.8097L12.602 12.8144L12.6018 12.8249L12.6011 12.8507C12.6003 12.8698 12.599 12.8931 12.5967 12.92C12.5922 12.9733 12.5837 13.0425 12.5679 13.1226C12.5368 13.2795 12.4734 13.4975 12.3396 13.7228C12.0382 14.2301 11.4698 14.6199 10.6129 14.6199M15.7358 16.1798L15.7341 16.1813L15.7318 16.1834L15.7255 16.1891L15.706 16.2065C15.69 16.2206 15.668 16.2398 15.6404 16.2632C15.5851 16.3101 15.5069 16.3745 15.4085 16.4506C15.2125 16.602 14.9322 16.8028 14.5901 17.0042C13.9226 17.3969 12.9379 17.8402 11.8437 17.8402C10.7397 17.8402 9.80329 17.3901 9.17713 16.9844C8.85817 16.7777 8.60253 16.5715 8.42499 16.4155C8.33583 16.3372 8.26532 16.2705 8.21527 16.2216C8.19022 16.1971 8.17021 16.1769 8.15548 16.1618L8.13734 16.143L8.13126 16.1366L8.12899 16.1342L8.12804 16.1332M7.55968 22H5.05775C3.369 22 2 20.6279 2 18.9354V16.3382M22 16.3382V18.9354C22 20.6279 20.631 22 18.9423 22H16.4403" stroke="#1C1C1C" stroke-width="1.25" stroke-linecap="round"/>
</svg>
