<svg width="32" height="32" viewBox="0 0 32 32" fill="none" xmlns="http://www.w3.org/2000/svg">
<path d="M7 4.57101L9.52167 9.11664V11.8893L7.00295 16.426L7 4.57101Z" fill="#5B57A2"/>
<path d="M16.6823 7.46254L19.0451 6.00199L23.8809 5.99744L16.6823 10.4449V7.46254Z" fill="#D90751"/>
<path d="M16.6689 4.54423L16.6822 10.5625L14.1547 8.99623V0L16.669 4.54423H16.6689Z" fill="#FAB718"/>
<path d="M23.8809 5.99743L19.045 6.00198L16.6689 4.54423L14.1547 0L23.8808 5.99743H23.8809Z" fill="#ED6F26"/>
<path d="M16.6822 16.4512V13.5313L14.1547 11.9948L14.1561 21L16.6822 16.4512Z" fill="#63B22F"/>
<path d="M19.0392 15.004L9.52149 9.11664L7 4.57101L23.8706 14.998L19.039 15.004H19.0392Z" fill="#1487C9"/>
<path d="M14.1561 21L16.682 16.4512L19.039 15.004L23.8704 14.998L14.1561 21Z" fill="#017F36"/>
<path d="M7.00293 16.426L14.1752 11.995L11.7639 10.503L9.52165 11.8893L7.00293 16.426Z" fill="#984995"/>
<path d="M25.2607 25.3142V31.2047H23.1674V27.0726H21.1518V31.2047H19.0585V25.3138H25.2607V25.3142Z" fill="#1C1C1C"/>
<path fill-rule="evenodd" clip-rule="evenodd" d="M14.7593 31.4154C16.6332 31.4154 18.0247 30.2609 18.0247 28.5106C18.0247 26.8167 16.9981 25.7168 15.2822 25.7168C14.4903 25.7168 13.8369 25.9969 13.3447 26.4801C13.4622 25.4813 14.3029 24.752 15.2284 24.752C15.4421 24.752 17.0502 24.7486 17.0502 24.7486L17.9596 23C17.9596 23 15.9406 23.0462 15.002 23.0462C12.8576 23.0837 11.4091 25.0423 11.4091 27.4212C11.4091 30.1926 12.8218 31.4154 14.7593 31.4154ZM14.7707 27.2656C15.4664 27.2656 15.9488 27.725 15.9488 28.5104C15.9488 29.2174 15.5202 29.7999 14.7707 29.8015C14.0537 29.8015 13.5713 29.2618 13.5713 28.5225C13.5713 27.7368 14.0537 27.2656 14.7707 27.2656Z" fill="#1C1C1C"/>
<path d="M9.70519 29.2327C9.70519 29.2327 9.21083 29.519 8.47249 29.5732C7.62365 29.5985 6.86733 29.0598 6.86733 28.1027C6.86733 27.1691 7.53473 26.634 8.45111 26.634C9.01301 26.634 9.75635 27.0253 9.75635 27.0253C9.75635 27.0253 10.3003 26.0224 10.582 25.5208C10.0661 25.1279 9.37888 24.9125 8.5796 24.9125C6.5624 24.9125 5 26.234 5 28.0908C5 29.9714 6.46849 31.2622 8.5796 31.2232C9.16967 31.2012 9.98374 30.9929 10.4799 30.6727L9.70519 29.2327Z" fill="#1C1C1C"/>
</svg>
