<svg width="24" height="24" viewBox="0 0 24 24" fill="none" xmlns="http://www.w3.org/2000/svg">
<path d="M16.1674 5.8156H7.83301M12.0002 9.44847H7.83301M7.00001 2H17.0013C18.106 2 19.0015 2.89554 19.0015 4.00025V20.0023C19.0015 21.107 18.106 22.0025 17.0013 22.0025H7.00001C5.8953 22.0025 4.99976 21.107 4.99976 20.0023C5.00028 15.3087 5.00002 12.0674 4.99976 4.00025C4.99976 2.89554 5.8953 2 7.00001 2ZM8.88311 15.8986H15.1172C15.9273 15.8986 16.5841 16.4956 16.5841 17.2321V17.8988C16.5841 18.6353 15.9273 19.2323 15.1172 19.2323H8.88311C8.07299 19.2323 7.41626 18.6353 7.41626 17.8988V17.2321C7.41626 16.4956 8.07299 15.8986 8.88311 15.8986Z" stroke="#1C1C1C" stroke-width="1.25" stroke-linecap="round" stroke-linejoin="round"/>
</svg>
