<svg width="24" height="24" viewBox="0 0 24 24" fill="none" xmlns="http://www.w3.org/2000/svg">
<path d="M17.0013 2H7.00001C5.8953 2 4.99976 2.89554 4.99976 4.00025V20.0023C4.99976 21.107 5.8953 22.0025 7.00001 22.0025H17.0013C18.106 22.0025 19.0015 21.107 19.0015 20.0023V4.00025C19.0015 2.89554 18.106 2 17.0013 2Z" stroke="#1C1C1C" stroke-width="1.25" stroke-linecap="round" stroke-linejoin="round"/>
<path d="M15.1172 15.8986H8.88311C8.07299 15.8986 7.41626 16.4956 7.41626 17.2321V17.8988C7.41626 18.6353 8.07299 19.2323 8.88311 19.2323H15.1172C15.9273 19.2323 16.5841 18.6353 16.5841 17.8988V17.2321C16.5841 16.4956 15.9273 15.8986 15.1172 15.8986Z" stroke="#1C1C1C" stroke-width="1.25" stroke-linecap="round" stroke-linejoin="round"/>
<path d="M16.1674 5.8156H7.83301" stroke="#1C1C1C" stroke-width="1.25" stroke-linecap="round" stroke-linejoin="round"/>
<path d="M12.0002 9.44847H7.83301" stroke="#1C1C1C" stroke-width="1.25" stroke-linecap="round" stroke-linejoin="round"/>
</svg>
