<svg width="24" height="24" viewBox="0 0 24 24" fill="none" xmlns="http://www.w3.org/2000/svg">
<path d="M16.0001 21V19C16.0001 17.9391 15.5786 16.9217 14.8285 16.1716C14.0783 15.4214 13.0609 15 12.0001 15H5.00006C3.9392 15 2.92178 15.4214 2.17163 16.1716C1.42149 16.9217 1.00006 17.9391 1.00006 19V21M18.0001 8L23.0001 13M23.0001 8L18.0001 13M12.5001 7C12.5001 9.20914 10.7092 11 8.50006 11C6.29092 11 4.50006 9.20914 4.50006 7C4.50006 4.79086 6.29092 3 8.50006 3C10.7092 3 12.5001 4.79086 12.5001 7Z" stroke="#1C1C1C" stroke-width="1.25" stroke-linecap="round" stroke-linejoin="round"/>
</svg>
