<svg width="32" height="32" viewBox="0 0 32 32" fill="none" xmlns="http://www.w3.org/2000/svg">
<path d="M4 4.99997H8.19048L10.9981 19.0276C11.0939 19.5099 11.3563 19.9432 11.7393 20.2515C12.1224 20.5599 12.6017 20.7237 13.0933 20.7143H23.2762C23.7678 20.7237 24.2471 20.5599 24.6302 20.2515C25.0132 19.9432 25.2756 19.5099 25.3714 19.0276L27.0476 10.2381H9.2381M13.4286 25.9523C13.4286 26.5309 12.9595 27 12.381 27C11.8024 27 11.3333 26.5309 11.3333 25.9523C11.3333 25.3738 11.8024 24.9047 12.381 24.9047C12.9595 24.9047 13.4286 25.3738 13.4286 25.9523ZM24.9524 25.9523C24.9524 26.5309 24.4833 27 23.9048 27C23.3262 27 22.8571 26.5309 22.8571 25.9523C22.8571 25.3738 23.3262 24.9047 23.9048 24.9047C24.4833 24.9047 24.9524 25.3738 24.9524 25.9523Z" stroke="#3D3D45" stroke-width="1.25" stroke-linecap="round" stroke-linejoin="round"/>
</svg>
