<svg width="64" height="64" viewBox="0 0 64 64" fill="none" xmlns="http://www.w3.org/2000/svg">
<path d="M57.5 32.1109C57.5 32.9393 58.1716 33.6109 59 33.6109C59.8284 33.6109 60.5 32.9393 60.5 32.1109H57.5ZM42.0166 5.31523C41.2414 5.02301 40.3761 5.41453 40.0839 6.18971C39.7917 6.96489 40.1832 7.83018 40.9584 8.1224L42.0166 5.31523ZM31.6606 6.49987C32.4889 6.48904 33.1517 5.80875 33.1408 4.98039C33.13 4.15204 32.4497 3.4893 31.6214 3.50013L31.6606 6.49987ZM8.78342 15.5106C8.30355 16.1859 8.46197 17.1223 9.13726 17.6022C9.81255 18.0821 10.749 17.9236 11.2289 17.2483L8.78342 15.5106ZM7.4819 25.0468C7.70899 24.2501 7.24723 23.4202 6.45054 23.1931C5.65384 22.966 4.8239 23.4278 4.59682 24.2245L7.4819 25.0468ZM5.09804 41.5804C5.37115 42.3625 6.22657 42.7751 7.00869 42.502C7.7908 42.2289 8.20344 41.3735 7.93034 40.5914L5.09804 41.5804ZM49.495 28.2207L48.1992 28.9762L50.9602 27.8991L49.495 28.2207ZM43.9483 18.7064L44.9514 17.5911L42.6524 19.4619L43.9483 18.7064ZM36.2942 16.1919C37.0937 16.409 37.9178 15.9368 38.1348 15.1373C38.3519 14.3378 37.8798 13.5138 37.0803 13.2967L36.2942 16.1919ZM14.0857 32.1114L15.5726 32.3088L15.5857 32.2105V32.1114H14.0857ZM13.0165 36.4375C13.1439 37.2561 13.9107 37.8164 14.7293 37.6891C15.5479 37.5617 16.1082 36.7949 15.9808 35.9763L13.0165 36.4375ZM39.4347 30.8666C39.569 31.6841 40.3405 32.2379 41.158 32.1037C41.9755 31.9694 42.5293 31.1979 42.3951 30.3804L39.4347 30.8666ZM32.0012 21.5385C31.1728 21.5385 30.5012 22.21 30.5012 23.0385C30.5012 23.8669 31.1728 24.5385 32.0012 24.5385V21.5385ZM26.2611 27.2058C26.7965 26.5737 26.7182 25.6272 26.086 25.0918C25.4539 24.5563 24.5074 24.6347 23.972 25.2668L26.2611 27.2058ZM22.9666 32.1113H21.4666V32.1417L21.4678 32.1722L22.9666 32.1113ZM22.1728 36.6057C22.4504 37.3863 23.3082 37.794 24.0887 37.5164C24.8693 37.2388 25.277 36.381 24.9994 35.6005L22.1728 36.6057ZM48.7701 51.8975C48.6382 52.7154 49.1944 53.4853 50.0122 53.6172C50.8301 53.749 51.6 53.1929 51.7319 52.3751L48.7701 51.8975ZM50.9641 27.8986C50.7807 27.0908 49.9771 26.5846 49.1692 26.768C48.3613 26.9514 47.8551 27.755 48.0385 28.5628L50.9641 27.8986ZM37.6612 57.7234C37.3884 58.5057 37.8014 59.3609 38.5837 59.6336C39.3659 59.9064 40.2211 59.4934 40.4939 58.7111L37.6612 57.7234ZM42.3921 30.3624C42.2272 29.5506 41.4354 29.0261 40.6235 29.1911C39.8117 29.356 39.2873 30.1479 39.4522 30.9597L42.3921 30.3624ZM29.2413 59L27.8383 58.4694L30.6344 59.5562L29.2413 59ZM30.4344 55.845L31.8558 56.3243L29.0314 55.3144L30.4344 55.845ZM30.8956 47.5174C30.7753 48.337 31.3422 49.099 32.1619 49.2193C32.9815 49.3397 33.7435 48.7728 33.8638 47.9531L30.8956 47.5174ZM33.5445 31.8834C33.3914 31.0693 32.6073 30.5334 31.7931 30.6865C30.979 30.8397 30.4431 31.6238 30.5962 32.4379L33.5445 31.8834ZM19.0478 55.7437C18.6717 56.4818 18.9652 57.3851 19.7034 57.7612C20.4415 58.1372 21.3448 57.8437 21.7209 57.1056L19.0478 55.7437ZM25.0253 35.8172C24.8852 35.0007 24.1097 34.4524 23.2932 34.5925C22.4768 34.7326 21.9284 35.5081 22.0686 36.3246L25.0253 35.8172ZM11.7141 50.6336C11.4016 51.4008 11.7701 52.2761 12.5373 52.5887C13.3045 52.9012 14.1799 52.5326 14.4924 51.7654L11.7141 50.6336ZM15.9609 35.8691C15.7955 35.0573 15.0034 34.5333 14.1916 34.6987C13.3799 34.8641 12.8559 35.6562 13.0213 36.4679L15.9609 35.8691ZM60.5 32.1109C60.5 19.8479 52.8159 9.38617 42.0166 5.31523L40.9584 8.1224C50.6217 11.7651 57.5 21.1309 57.5 32.1109H60.5ZM31.6214 3.50013C22.1973 3.62331 13.8794 8.33924 8.78342 15.5106L11.2289 17.2483C15.7954 10.822 23.2369 6.60998 31.6606 6.49987L31.6214 3.50013ZM4.59682 24.2245C3.8822 26.7316 3.5 29.3779 3.5 32.1114H6.5C6.5 29.6587 6.84278 27.2891 7.4819 25.0468L4.59682 24.2245ZM3.5 32.1114C3.5 35.4273 4.06244 38.6146 5.09804 41.5804L7.93034 40.5914C7.00427 37.9393 6.5 35.0861 6.5 32.1114H3.5ZM50.9602 27.8991C50.0698 23.8431 47.9223 20.2632 44.9514 17.5911L42.9452 19.8217C45.4617 22.085 47.2775 25.1146 48.0299 28.5424L50.9602 27.8991ZM42.6524 19.4619L48.1992 28.9762L50.7909 27.4653L45.2441 17.9509L42.6524 19.4619ZM37.0803 13.2967C35.4593 12.8566 33.7557 12.6222 31.9999 12.6222V15.6222C33.4877 15.6222 34.9271 15.8207 36.2942 16.1919L37.0803 13.2967ZM31.9999 12.6222C21.2718 12.6222 12.5857 21.3537 12.5857 32.1114H15.5857C15.5857 22.9988 22.9405 15.6222 31.9999 15.6222V12.6222ZM14.0857 32.1114C12.5987 31.914 12.5986 31.9148 12.5985 31.9157C12.5985 31.916 12.5983 31.9169 12.5983 31.9175C12.5981 31.9187 12.598 31.9199 12.5978 31.9211C12.5975 31.9235 12.5972 31.9259 12.5969 31.9284C12.5963 31.9333 12.5957 31.9383 12.5951 31.9435C12.5939 31.9539 12.5927 31.9648 12.5916 31.9763C12.5894 31.9993 12.5873 32.0249 12.5854 32.0534C12.5817 32.1102 12.5788 32.1799 12.5777 32.2653C12.5755 32.4356 12.5803 32.6754 12.6016 33.0101C12.644 33.6778 12.7538 34.749 13.0165 36.4375L15.9808 35.9763C15.7273 34.3469 15.6306 33.3704 15.5956 32.8198C15.5781 32.5453 15.5765 32.3834 15.5775 32.3041C15.578 32.2649 15.5791 32.2479 15.579 32.2492C15.579 32.25 15.5786 32.2556 15.5777 32.2656C15.5772 32.2706 15.5765 32.2767 15.5757 32.2839C15.5753 32.2875 15.5748 32.2914 15.5743 32.2956C15.5741 32.2977 15.5738 32.2998 15.5735 32.302C15.5734 32.3031 15.5732 32.3042 15.5731 32.3054C15.573 32.3059 15.5729 32.3068 15.5729 32.3071C15.5727 32.308 15.5726 32.3088 14.0857 32.1114ZM42.3951 30.3804C41.572 25.3689 37.2374 21.5385 32.0012 21.5385V24.5385C35.7354 24.5385 38.8444 27.2722 39.4347 30.8666L42.3951 30.3804ZM23.972 25.2668C22.4098 27.1109 21.4666 29.5028 21.4666 32.1113H24.4666C24.4666 30.2379 25.1415 28.5275 26.2611 27.2058L23.972 25.2668ZM22.9666 32.1113C21.4678 32.1722 21.4678 32.1723 21.4678 32.1725C21.4678 32.1725 21.4679 32.1727 21.4679 32.1728C21.4679 32.1731 21.4679 32.1734 21.4679 32.1737C21.4679 32.1744 21.468 32.1752 21.468 32.1762C21.4681 32.1781 21.4682 32.1807 21.4683 32.1838C21.4686 32.1901 21.469 32.1989 21.4695 32.2099C21.4705 32.2319 21.4721 32.2631 21.4741 32.3026C21.4783 32.3816 21.4848 32.4941 21.4943 32.6327C21.5131 32.9092 21.5438 33.2938 21.5919 33.7278C21.684 34.5602 21.8527 35.7055 22.1728 36.6057L24.9994 35.6005C24.8033 35.0491 24.6622 34.1985 24.5737 33.3979C24.5313 33.0154 24.504 32.6742 24.4873 32.429C24.479 32.3068 24.4734 32.2095 24.4699 32.1439C24.4682 32.1111 24.467 32.0863 24.4663 32.0704C24.4659 32.0625 24.4656 32.0568 24.4655 32.0534C24.4654 32.0517 24.4654 32.0506 24.4653 32.0501C24.4653 32.0498 24.4653 32.0497 24.4653 32.0498C24.4653 32.0498 24.4653 32.0498 24.4653 32.0499C24.4653 32.05 24.4654 32.0501 24.4654 32.0501C24.4654 32.0502 24.4654 32.0504 22.9666 32.1113ZM51.7319 52.3751C52.2705 49.0345 52.5503 45.6078 52.5503 42.1166H49.5503C49.5503 45.4473 49.2834 48.7143 48.7701 51.8975L51.7319 52.3751ZM52.5503 42.1166C52.5503 37.2309 52.0023 32.4718 50.9641 27.8986L48.0385 28.5628C49.0276 32.9195 49.5503 37.4558 49.5503 42.1166H52.5503ZM40.4939 58.7111C42.419 53.1899 43.465 47.2558 43.465 41.0796H40.465C40.465 46.9151 39.477 52.5155 37.6612 57.7234L40.4939 58.7111ZM43.465 41.0796C43.465 37.4102 43.0958 33.8258 42.3921 30.3624L39.4522 30.9597C40.1162 34.2276 40.465 37.6119 40.465 41.0796H43.465ZM29.2413 59C30.6344 59.5562 30.6344 59.5561 30.6344 59.5561C30.6344 59.5561 30.6344 59.556 30.6344 59.556C30.6345 59.5559 30.6345 59.5558 30.6346 59.5556C30.6347 59.5553 30.6349 59.5549 30.6351 59.5543C30.6355 59.5532 30.6362 59.5516 30.637 59.5495C30.6387 59.5453 30.6411 59.5392 30.6443 59.5312C30.6507 59.5153 30.66 59.4919 30.6719 59.4618C30.6957 59.4018 30.7301 59.315 30.7724 59.2077C30.857 58.9932 30.9736 58.6959 31.1017 58.3645C31.3546 57.7101 31.6638 56.8937 31.8558 56.3243L29.0131 55.3658C28.8444 55.866 28.557 56.627 28.3035 57.2828C28.1784 57.6064 28.0643 57.8973 27.9816 58.1072C27.9402 58.2122 27.9067 58.2967 27.8836 58.3549C27.8721 58.3839 27.8631 58.4064 27.8571 58.4215C27.8541 58.429 27.8518 58.4347 27.8503 58.4385C27.8496 58.4404 27.849 58.4418 27.8487 58.4427C27.8485 58.4432 27.8483 58.4435 27.8483 58.4437C27.8482 58.4438 27.8482 58.4439 27.8482 58.4439C27.8482 58.4439 27.8482 58.4439 27.8482 58.4439C27.8482 58.4439 27.8482 58.4439 29.2413 59ZM29.0314 55.3144L27.8383 58.4694L30.6443 59.5306L31.8374 56.3756L29.0314 55.3144ZM33.8638 47.9531C34.2032 45.6414 34.3789 43.2769 34.3789 40.8722H31.3789C31.3789 43.1306 31.2139 45.3495 30.8956 47.5174L33.8638 47.9531ZM34.3789 40.8722C34.3789 37.8015 34.0924 34.7967 33.5445 31.8834L30.5962 32.4379C31.1099 35.1692 31.3789 37.9885 31.3789 40.8722H34.3789ZM21.7209 57.1056C24.0957 52.4444 25.4982 46.9945 25.4982 41.3905H22.4982C22.4982 46.5032 21.216 51.488 19.0478 55.7437L21.7209 57.1056ZM25.4982 41.3905C25.4982 39.4914 25.3363 37.6292 25.0253 35.8172L22.0686 36.3246C22.3509 37.9697 22.4982 39.6622 22.4982 41.3905H25.4982ZM14.4924 51.7654C15.797 48.5632 16.5152 45.0595 16.5152 41.3912H13.5152C13.5152 44.665 12.8747 47.7847 11.7141 50.6336L14.4924 51.7654ZM16.5152 41.3912C16.5152 39.5011 16.3245 37.6541 15.9609 35.8691L13.0213 36.4679C13.345 38.0569 13.5152 39.7033 13.5152 41.3912H16.5152Z" fill="#1C1C1C"/>
</svg>
