<svg width="96" height="48" viewBox="0 0 96 48" fill="none" xmlns="http://www.w3.org/2000/svg">
<path d="M84.9294 13.4769V25.2121H80.7215V16.9801H76.6698V25.2121H72.4619V13.4761H84.9294V13.4769Z" fill="black"/>
<path fill-rule="evenodd" clip-rule="evenodd" d="M63.8199 25.6316C67.5868 25.6316 70.384 23.3316 70.384 19.8448C70.384 16.47 68.3202 14.2788 64.8711 14.2788C63.2792 14.2788 61.9658 14.8368 60.9765 15.7996C61.2126 13.8096 62.9025 12.3568 64.763 12.3568C65.1924 12.3568 68.4251 12.35 68.4251 12.35L70.2531 8.86638C70.2531 8.86638 66.1946 8.95838 64.3079 8.95838C59.9972 9.03318 57.0854 12.9352 57.0854 17.6744C57.0854 23.1956 59.9253 25.6316 63.8199 25.6316ZM63.8428 17.3644C65.2414 17.3644 66.2111 18.2796 66.2111 19.8444C66.2111 21.2528 65.3495 22.4132 63.8428 22.4164C62.4016 22.4164 61.432 21.3412 61.432 19.8684C61.432 18.3032 62.4016 17.3644 63.8428 17.3644Z" fill="black"/>
<path d="M53.6604 21.2833C53.6604 21.2833 52.6666 21.8537 51.1824 21.9617C49.4761 22.0121 47.9558 20.9389 47.9558 19.0321C47.9558 17.1721 49.2974 16.1061 51.1395 16.1061C52.269 16.1061 53.7632 16.8857 53.7632 16.8857C53.7632 16.8857 54.8565 14.8877 55.4229 13.8885C54.3858 13.1057 53.0044 12.6765 51.3977 12.6765C47.3428 12.6765 44.2021 15.3093 44.2021 19.0085C44.2021 22.7549 47.154 25.3265 51.3977 25.2489C52.5839 25.2049 54.2203 24.7901 55.2176 24.1521L53.6604 21.2833Z" fill="black"/>
<path d="M0 10.4479L5.83712 20.8379V27.1755L0.00682845 37.5451L0 10.4479Z" fill="#5B57A2"/>
<path d="M22.4122 17.0572L27.8818 13.7188L39.0756 13.7084L22.4122 23.874V17.0572Z" fill="#D90751"/>
<path d="M22.3813 10.3868L22.4122 24.1428L16.5614 20.5628V0L22.3817 10.3868H22.3813Z" fill="#FAB718"/>
<path d="M39.0756 13.7084L27.8814 13.7188L22.3813 10.3868L16.5614 0L39.0752 13.7084H39.0756Z" fill="#ED6F26"/>
<path d="M22.4122 37.6028V30.9288L16.5614 27.4168L16.5646 48L22.4122 37.6028Z" fill="#63B22F"/>
<path d="M27.8681 34.2947L5.83672 20.8379L0 10.4479L39.0519 34.2811L27.8677 34.2947H27.8681Z" fill="#1487C9"/>
<path d="M16.565 47.9999L22.4118 37.6027L27.8677 34.2947L39.0515 34.2811L16.565 47.9999Z" fill="#017F36"/>
<path d="M0.00686646 37.5451L16.6092 27.4171L11.0276 24.0067L5.83716 27.1755L0.00686646 37.5451Z" fill="#984995"/>
<path d="M47.957 33.1102C47.8285 33.2734 47.6594 33.3966 47.4565 33.4798C47.2484 33.5641 47.0257 33.6071 46.801 33.6062C46.5775 33.6092 46.3553 33.572 46.1451 33.4966C45.9562 33.4282 45.7836 33.3217 45.6382 33.1838C45.4945 33.0455 45.3817 32.8787 45.3072 32.6942C45.2265 32.492 45.1862 32.2761 45.1887 32.0586C45.1887 31.8426 45.226 31.6426 45.3036 31.453C45.3779 31.263 45.4859 31.1002 45.6213 30.9634C45.7567 30.8238 45.9189 30.7174 46.1013 30.6342C46.2873 30.5542 46.4901 30.511 46.713 30.511C46.9532 30.511 47.1762 30.541 47.379 30.6006C47.5819 30.6606 47.7542 30.7606 47.896 30.9006L47.6493 31.3166C47.5301 31.2089 47.3896 31.1272 47.2368 31.0766C47.0916 31.03 46.9399 31.0065 46.7874 31.007C46.6524 31.007 46.5239 31.0334 46.3989 31.0834C46.2758 31.1327 46.1634 31.2051 46.0676 31.2966C45.9696 31.3906 45.8925 31.504 45.841 31.6294C45.7836 31.759 45.7567 31.9022 45.7567 32.0618C45.7567 32.225 45.7868 32.3714 45.8442 32.4978C45.9021 32.6278 45.9796 32.7378 46.0776 32.8306C46.1756 32.9242 46.2905 32.9938 46.4222 33.0406C46.5544 33.0906 46.693 33.1138 46.8416 33.1138C47.0239 33.1138 47.1898 33.077 47.3316 33.007C47.4721 32.9394 47.5984 32.8457 47.7036 32.731L47.957 33.1102ZM48.6531 33.5362V30.5742H49.1874V32.781L50.9246 30.5742H51.4588V33.5366H50.9246V31.3298L49.1874 33.5366H48.6531V33.5362ZM54.9976 33.1102C54.8661 33.2747 54.6937 33.4022 54.4975 33.4798C54.2892 33.5641 54.0664 33.607 53.8415 33.6062C53.6182 33.6091 53.3961 33.572 53.186 33.4966C52.997 33.4283 52.8243 33.3218 52.6787 33.1838C52.5351 33.0455 52.4223 32.8787 52.3477 32.6942C52.267 32.492 52.2268 32.2761 52.2292 32.0586C52.2292 31.8426 52.2666 31.6426 52.3441 31.453C52.4188 31.263 52.5269 31.1002 52.6618 30.9634C52.7972 30.8238 52.9595 30.7174 53.1418 30.6342C53.3344 30.5497 53.5431 30.5077 53.7536 30.511C53.9938 30.511 54.2167 30.541 54.4195 30.6006C54.6224 30.6606 54.7947 30.7606 54.9369 30.9006L54.6899 31.3166C54.5708 31.2088 54.4304 31.1271 54.2778 31.0766C54.1325 31.03 53.9808 31.0065 53.8283 31.007C53.5598 31.0078 53.3019 31.1115 53.1081 31.2966C53.011 31.3913 52.934 31.5045 52.8815 31.6294C52.8241 31.759 52.7972 31.9022 52.7972 32.0618C52.7972 32.225 52.8277 32.3714 52.8852 32.4978C52.9426 32.6278 53.0201 32.7378 53.1181 32.8306C53.2161 32.9242 53.3314 32.9938 53.4632 33.0406C53.5949 33.087 53.7335 33.1138 53.8821 33.1138C54.0649 33.1138 54.2271 33.077 54.3722 33.007C54.5127 32.9394 54.6389 32.8457 54.7441 32.731L54.9976 33.1102ZM55.2715 30.5742H58.0125V31.1002H56.9107V33.5362H56.3765V31.1002H55.2747V30.5742H55.2715Z" fill="black"/>
<path fill-rule="evenodd" clip-rule="evenodd" d="M60.5073 33.5063C60.7102 33.4431 60.8825 33.3463 61.0311 33.2135L60.8688 32.8007C60.7708 32.8875 60.6391 32.9607 60.4804 33.0207C60.3213 33.0807 60.1422 33.1103 59.9462 33.1103C59.6521 33.1103 59.4087 33.0339 59.2159 32.8775C59.0235 32.7207 58.9187 32.5015 58.895 32.2215H61.207C61.2307 32.1183 61.2408 32.0019 61.2408 31.8655C61.2408 31.6623 61.2034 31.4795 61.1291 31.3131C61.0599 31.1515 60.9588 31.0055 60.8319 30.8835C60.7031 30.7628 60.5514 30.6689 60.3856 30.6075C60.2121 30.5405 60.0274 30.5066 59.8413 30.5075C59.5911 30.5075 59.3714 30.5507 59.179 30.6307C58.9971 30.7069 58.8325 30.8191 58.6954 30.9603C58.5622 31.1008 58.4598 31.2675 58.3949 31.4495C58.3235 31.6434 58.288 31.8486 58.2901 32.0551C58.2901 32.2883 58.3306 32.5011 58.4049 32.6911C58.4772 32.8752 58.5879 33.0419 58.7295 33.1803C58.8681 33.3163 59.0368 33.4199 59.2364 33.4931C59.4501 33.5686 59.6756 33.6057 59.9024 33.6027C60.1077 33.6015 60.3117 33.5691 60.5073 33.5067V33.5063ZM59.1553 31.2263C59.3208 31.0767 59.5405 31.0035 59.8176 31.0035C60.0779 31.0035 60.2876 31.0735 60.4398 31.2135C60.5921 31.3531 60.6728 31.5463 60.6865 31.7923H58.8612C58.8871 31.5745 58.9916 31.3735 59.1553 31.2267V31.2263Z" fill="black"/>
<path d="M61.9674 30.574H62.4543L63.6103 32.042L64.7052 30.574H65.1784V33.5364H64.6446V31.3764L63.6034 32.7508H63.583L62.5017 31.376V33.536H61.9674V30.574Z" fill="black"/>
<path fill-rule="evenodd" clip-rule="evenodd" d="M66.6317 30.5841C66.4695 30.6263 66.3147 30.6923 66.1722 30.7801L66.3139 31.2001C66.4357 31.1401 66.5574 31.0901 66.6791 31.0469C66.8008 31.0033 66.9562 30.9833 67.1422 30.9833C67.2908 30.9833 67.4093 31.0069 67.5005 31.0533C67.5917 31.0965 67.6592 31.1633 67.7066 31.2433C67.754 31.3233 67.7845 31.4229 67.8013 31.5393C67.8182 31.6557 67.825 31.7821 67.825 31.9189C67.7157 31.843 67.5911 31.7918 67.4599 31.7689C67.333 31.7438 67.2041 31.7304 67.0747 31.7289C66.9157 31.7289 66.767 31.7525 66.6248 31.7921C66.4831 31.8321 66.3613 31.8921 66.2633 31.9721C66.1633 32.0519 66.0825 32.1531 66.0267 32.2681C65.9672 32.394 65.9371 32.5317 65.9388 32.6709C65.9388 32.9605 66.0235 33.1869 66.1922 33.3469C66.3613 33.5065 66.5843 33.5861 66.8614 33.5861C67.1117 33.5861 67.3113 33.5429 67.4631 33.4565C67.6154 33.3697 67.7371 33.2701 67.825 33.1569V33.5397H68.3251V31.7225C68.3251 31.3361 68.2408 31.0369 68.0685 30.8269C67.8994 30.6173 67.5985 30.5109 67.1727 30.5109C66.9831 30.5109 66.804 30.5373 66.6317 30.5841ZM67.5246 32.9841C67.4029 33.0705 67.2438 33.1101 67.0478 33.1101C66.8755 33.1101 66.7401 33.0669 66.6457 32.9837C66.5509 32.8973 66.5035 32.7841 66.5035 32.6441C66.5035 32.5613 66.5204 32.4913 66.5578 32.4281C66.5951 32.3649 66.6457 32.3149 66.7032 32.2749C66.766 32.233 66.8358 32.2026 66.9092 32.1849C66.9872 32.1649 67.0647 32.1549 67.1458 32.1549C67.4097 32.1549 67.6359 32.2181 67.8218 32.3513V32.7273C67.7342 32.8251 67.6343 32.9113 67.5246 32.9837V32.9841ZM73.0408 29.5321C73.1488 29.4825 73.2501 29.3993 73.3449 29.2761L73.054 28.8601C72.9797 28.9601 72.8954 29.0297 72.8006 29.0665C72.7001 29.1056 72.596 29.1345 72.4897 29.1529L72.3885 29.1709C72.3005 29.1861 72.2061 29.2029 72.1045 29.2197C71.9415 29.2497 71.7827 29.2988 71.6313 29.3661C71.3911 29.4693 71.1987 29.6089 71.0533 29.7853C70.9079 29.9617 70.793 30.1613 70.7151 30.3813C70.6362 30.6041 70.5829 30.8352 70.5564 31.0701C70.5291 31.3101 70.5159 31.5393 70.5159 31.7589C70.5159 32.0421 70.5528 32.2981 70.6271 32.5277C70.7018 32.7577 70.8063 32.9505 70.9449 33.1069C71.0834 33.2669 71.2493 33.3869 71.4453 33.4733C71.6414 33.5597 71.8611 33.6029 72.1077 33.6029C72.3342 33.6029 72.5439 33.5597 72.7331 33.4797C72.9155 33.4028 73.0809 33.291 73.2199 33.1505C73.3549 33.0137 73.4633 32.8505 73.5377 32.6677C73.6152 32.4845 73.6525 32.2881 73.6525 32.0817C73.6525 31.8589 73.6188 31.6561 73.5545 31.4761C73.4953 31.3045 73.401 31.147 73.2774 31.0137C73.1535 30.8826 73.0023 30.7802 72.8343 30.7137C72.6493 30.6411 72.4519 30.605 72.2531 30.6073C72.1246 30.6073 71.9996 30.6241 71.8779 30.6573C71.7596 30.6905 71.6459 30.7386 71.5397 30.8005C71.4367 30.8592 71.3424 30.9319 71.2594 31.0165C71.1782 31.1001 71.1107 31.1933 71.0633 31.2997H71.0497C71.0601 31.1633 71.077 31.0237 71.1071 30.8805C71.1377 30.7373 71.1814 30.6005 71.2393 30.4709C71.2967 30.3413 71.371 30.2245 71.4622 30.1181C71.56 30.0107 71.6799 29.9255 71.8137 29.8685C71.9608 29.7987 72.1165 29.7484 72.2768 29.7189L72.3828 29.6997C72.4885 29.6805 72.5893 29.6621 72.6857 29.6421C72.8142 29.6157 72.9323 29.5821 73.0408 29.5325V29.5321ZM71.1614 32.3781C71.1091 32.21 71.084 32.0348 71.087 31.8589C71.1097 31.7579 71.151 31.662 71.2087 31.5761C71.2662 31.4861 71.3405 31.4065 71.4285 31.3361C71.627 31.1812 71.8724 31.098 72.1246 31.1001C72.4391 31.1001 72.6757 31.1965 72.8412 31.3865C73.007 31.5793 73.0882 31.8189 73.0882 32.1085C73.0882 32.2517 73.0609 32.3817 73.0139 32.5013C72.9682 32.6193 72.8992 32.7269 72.8109 32.8178C72.7227 32.9087 72.617 32.981 72.5001 33.0305C72.3784 33.0837 72.2463 33.1105 72.0977 33.1105C71.949 33.1105 71.8137 33.0805 71.6888 33.0205C71.5646 32.9617 71.4549 32.8765 71.3674 32.7709C71.2758 32.6532 71.206 32.5202 71.1614 32.3781ZM77.7492 30.5741H77.215V33.5365H77.7492V30.5741ZM74.4229 30.5741H74.9572V31.4629H75.4508C75.6838 31.4629 75.873 31.4929 76.0252 31.5493C76.1775 31.6061 76.2992 31.6825 76.3903 31.7757C76.4815 31.8689 76.5458 31.9789 76.5832 32.1017C76.6201 32.2249 76.6406 32.3513 76.6406 32.4845C76.6406 32.6177 76.6201 32.7445 76.5763 32.8709C76.5358 32.9973 76.4647 33.1069 76.3699 33.2069C76.2755 33.3069 76.1469 33.3869 75.9847 33.4469C75.8224 33.5065 75.6264 33.5397 75.3898 33.5397H74.4197V30.5741H74.4229ZM74.9572 31.9585V33.0437H75.346C75.6131 33.0437 75.8023 32.9973 75.9103 32.9037C76.0188 32.8105 76.0726 32.6777 76.0726 32.5013C76.0726 32.3213 76.0152 32.1853 75.9071 32.0917C75.7955 31.9985 75.6095 31.9517 75.3528 31.9517H74.9572V31.9585Z" fill="black"/>
<path d="M81.2815 33.1102C81.1529 33.2734 80.9838 33.3966 80.781 33.4798C80.5729 33.5641 80.3502 33.607 80.1255 33.6062C79.902 33.6092 79.6798 33.572 79.4695 33.4966C79.2806 33.4284 79.108 33.3218 78.9626 33.1838C78.819 33.0454 78.7061 32.8786 78.6312 32.6942C78.5509 32.4919 78.5107 32.276 78.5131 32.0586C78.5131 31.8426 78.5501 31.6426 78.628 31.453C78.7023 31.263 78.8104 31.1001 78.9458 30.9633C79.0811 30.8237 79.243 30.7173 79.4258 30.6341C79.6184 30.5496 79.827 30.5076 80.0375 30.5109C80.2773 30.5109 80.5006 30.5409 80.7035 30.6005C80.9063 30.6605 81.0786 30.7605 81.2204 30.9005L80.9738 31.3165C80.8545 31.2089 80.714 31.1272 80.5613 31.0766C80.4161 31.03 80.2644 31.0065 80.1118 31.0069C79.9768 31.0069 79.8483 31.0333 79.723 31.0833C79.6 31.1327 79.4877 31.2051 79.392 31.2965C79.2948 31.3912 79.2178 31.5044 79.1655 31.6293C79.108 31.7589 79.0811 31.9021 79.0811 32.0618C79.0811 32.225 79.1112 32.3714 79.1687 32.4978C79.2261 32.6278 79.304 32.7377 79.402 32.8305C79.5001 32.9241 79.6149 32.9938 79.7467 33.0406C79.8788 33.087 80.0174 33.1137 80.166 33.1137C80.3484 33.1137 80.5107 33.077 80.6561 33.007C80.7966 32.9394 80.9228 32.8457 81.028 32.731L81.2815 33.1102ZM81.555 30.5741H84.2964V31.1001H83.1942V33.5362H82.6604V31.1001H81.5586V30.5741H81.555Z" fill="black"/>
<path fill-rule="evenodd" clip-rule="evenodd" d="M85.4119 30.5743H84.8777V34.8543H85.4119V33.3999C85.5199 33.4699 85.6485 33.5199 85.7971 33.5531C85.9457 33.5863 86.1012 33.6027 86.2602 33.6027C86.4968 33.6027 86.7097 33.5595 86.9025 33.4799C87.0874 33.4012 87.255 33.287 87.3957 33.1439C87.5343 33.0003 87.6392 32.8339 87.7135 32.6375C87.7878 32.4415 87.8251 32.2315 87.8251 32.0087C87.8251 31.7887 87.7914 31.5859 87.7271 31.4027C87.6666 31.2288 87.5725 31.0683 87.45 30.9303C87.3298 30.7958 87.1807 30.69 87.0138 30.6207C86.8313 30.5427 86.6343 30.5041 86.4357 30.5075C86.2265 30.5075 86.0305 30.5475 85.8445 30.6275C85.6585 30.7075 85.5131 30.8035 85.4119 30.9235V30.5743ZM85.7838 31.1235C85.9361 31.0435 86.1016 31.0035 86.2807 31.0035C86.4361 31.0035 86.5747 31.0267 86.7001 31.0767C86.8218 31.1267 86.923 31.1967 87.0077 31.2899C87.0921 31.3831 87.1564 31.4899 87.1969 31.6159C87.2407 31.7423 87.2612 31.8791 87.2612 32.0287C87.2612 32.1887 87.2339 32.3315 87.1869 32.4647C87.1426 32.591 87.0722 32.7067 86.9804 32.8043C86.8882 32.9008 86.7765 32.9767 86.6527 33.0271C86.5146 33.0847 86.3661 33.113 86.2164 33.1103C86.0714 33.1103 85.9361 33.0939 85.8075 33.0607C85.6668 33.0226 85.5333 32.9618 85.4123 32.8807V31.4127C85.5067 31.2999 85.632 31.2035 85.7838 31.1235ZM91.9218 30.5739H91.3876V33.5363H91.9218V30.5739ZM88.5923 30.5739H89.1266V31.4627H89.6198C89.8532 31.4627 90.0424 31.4927 90.1946 31.5491C90.3468 31.6059 90.4686 31.6823 90.5597 31.7755C90.6509 31.8687 90.7152 31.9787 90.7521 32.1015C90.7895 32.2247 90.8096 32.3511 90.8096 32.4843C90.8096 32.6175 90.7895 32.7443 90.7457 32.8707C90.7051 32.9971 90.634 33.1067 90.5393 33.2067C90.4449 33.3067 90.3163 33.3867 90.154 33.4467C89.9918 33.5063 89.7958 33.5395 89.5592 33.5395H88.5891V30.5739H88.5923ZM89.1302 31.9583V33.0435H89.519C89.7857 33.0435 89.9753 32.9971 90.0834 32.9035C90.1914 32.8103 90.2456 32.6775 90.2456 32.5011C90.2456 32.3211 90.1882 32.1851 90.0801 32.0915C89.9685 31.9983 89.7825 31.9515 89.5258 31.9515H89.1302V31.9583Z" fill="black"/>
<path d="M94.4841 32.002L95.6264 33.5364H94.9709L94.0884 32.338L93.1927 33.5364H92.5709L93.7064 32.0284L92.6384 30.574H93.2943L94.1089 31.6924L94.9367 30.574H95.5589L94.4841 32.002ZM47.5617 37.1976H45.9225V39.6672H45.3883V36.7052H48.0956V39.6672H47.5617V37.1976ZM51.1274 37.2308H50.073L50.0389 37.73C50.0019 38.1528 49.9513 38.4924 49.8802 38.7516C49.8091 39.0116 49.7211 39.2112 49.6199 39.3508C49.5187 39.4908 49.4002 39.5872 49.2648 39.634C49.1252 39.6844 48.9775 39.7092 48.829 39.7072L48.7885 39.1944C48.8459 39.1976 48.9134 39.1844 48.9877 39.1512C49.0624 39.118 49.1367 39.0448 49.2074 38.9352C49.2785 38.8216 49.3428 38.662 49.4002 38.4556C49.4576 38.246 49.495 37.9732 49.5151 37.63L49.5693 36.708H51.6616V39.6704H51.1274V37.2304V37.2308Z" fill="black"/>
<path fill-rule="evenodd" clip-rule="evenodd" d="M53.1017 36.7118C52.9289 36.7582 52.7735 36.8246 52.6417 36.9078L52.7839 37.3275C52.9056 37.2675 53.0273 37.2174 53.1487 37.1742C53.2704 37.131 53.4262 37.1111 53.6118 37.1111C53.7608 37.1111 53.8789 37.1343 53.9701 37.1807C54.0617 37.2243 54.1291 37.2907 54.1765 37.3707C54.2235 37.4507 54.2541 37.5507 54.2709 37.6667C54.2878 37.7835 54.2946 37.9099 54.2946 38.0463C54.1853 37.9705 54.0607 37.9195 53.9295 37.8967C53.8026 37.8715 53.6737 37.8581 53.5443 37.8567C53.3856 37.8567 53.2366 37.8799 53.0948 37.9199C52.9526 37.9599 52.8309 38.0199 52.7329 38.0999C52.6329 38.1797 52.552 38.2808 52.4963 38.3959C52.4369 38.5218 52.407 38.6595 52.4088 38.7987C52.4088 39.0879 52.4931 39.3147 52.6622 39.4743C52.8309 39.6339 53.0543 39.7139 53.3314 39.7139C53.5817 39.7139 53.7809 39.6707 53.9331 39.5839C54.085 39.4975 54.2067 39.3975 54.2946 39.2843V39.6671H54.7951V37.8499C54.7951 37.4639 54.7104 37.1643 54.538 36.9547C54.3689 36.7446 54.0681 36.6386 53.6423 36.6386C53.4596 36.6388 53.2778 36.6633 53.1017 36.7114V36.7118ZM53.9974 39.1111C53.8761 39.1979 53.717 39.2379 53.521 39.2379C53.3451 39.2379 53.2133 39.1947 53.1189 39.1111C53.0241 39.0247 52.9767 38.9115 52.9767 38.7719C52.9767 38.6887 52.9936 38.6187 53.031 38.5555C53.0679 38.4923 53.1189 38.4423 53.1764 38.4023C53.2338 38.3623 53.3045 38.3323 53.3824 38.3123C53.4597 38.2924 53.5392 38.2824 53.619 38.2827C53.8825 38.2827 54.1091 38.3459 54.295 38.4787V38.8547C54.2073 38.9525 54.1072 39.0386 53.9974 39.1111Z" fill="black"/>
<path d="M55.3185 36.7051H58.0599V37.2307H56.9577V39.6671H56.4239V37.2311H55.3221V36.7051H55.3185Z" fill="black"/>
<path fill-rule="evenodd" clip-rule="evenodd" d="M60.5547 39.6371C60.7575 39.5739 60.9298 39.4771 61.0785 39.3443L60.9162 38.9315C60.8182 39.0183 60.6864 39.0915 60.5274 39.1515C60.3687 39.2115 60.1895 39.2411 59.9935 39.2411C59.6995 39.2411 59.4561 39.1647 59.2633 39.0083C59.0705 38.8519 58.9661 38.6323 58.9424 38.3523H61.2544C61.2777 38.2495 61.2881 38.1327 61.2881 37.9963C61.2881 37.7935 61.2508 37.6103 61.1765 37.4439C61.1073 37.2824 61.006 37.1364 60.8788 37.0148C60.7503 36.8938 60.5987 36.7998 60.433 36.7384C60.2594 36.6713 60.0748 36.6374 59.8887 36.6384C59.6385 36.6384 59.4187 36.6815 59.2263 36.7615C59.0443 36.8376 58.8798 36.9497 58.7427 37.0911C58.6095 37.2317 58.5071 37.3983 58.4419 37.5803C58.3706 37.7743 58.3351 37.9794 58.337 38.1859C58.337 38.4191 58.3776 38.6319 58.4519 38.8219C58.5266 39.0115 58.6379 39.1747 58.7765 39.3111C58.915 39.4475 59.0841 39.5507 59.2838 39.6239C59.4973 39.6996 59.7227 39.7368 59.9493 39.7339C60.149 39.7339 60.3518 39.7003 60.5547 39.6371ZM59.1994 37.354C59.3649 37.2044 59.5846 37.1312 59.8618 37.1312C60.1257 37.1312 60.3317 37.2043 60.484 37.3407C60.6358 37.4807 60.7169 37.6736 60.7306 37.92H58.9054C58.9312 37.702 59.0357 37.5008 59.1994 37.354ZM61.5484 36.7052H62.2244L63.2551 38.1331L62.1533 39.6671H61.4978L62.6534 38.1327L61.5484 36.7048V36.7052ZM63.3869 36.7052H63.9211V39.6671H63.3869V36.7052ZM65.8307 39.6671L64.6546 38.1327L65.7531 36.7048H65.0904L64.0528 38.1327L65.1683 39.6671H65.8307ZM68.2712 39.6371C68.4741 39.5739 68.6464 39.4771 68.795 39.3443L68.6327 38.9315C68.5347 39.0183 68.403 39.0915 68.2443 39.1515C68.0852 39.2115 67.9061 39.2411 67.7101 39.2411C67.4161 39.2411 67.1726 39.1647 66.9798 39.0083C66.7874 38.8519 66.6826 38.6323 66.6589 38.3523H68.9709C68.9946 38.2495 69.0047 38.1327 69.0047 37.9963C69.0047 37.7935 68.9677 37.6103 68.893 37.4439C68.8238 37.2825 68.7227 37.1365 68.5958 37.0148C68.4671 36.8937 68.3154 36.7997 68.1495 36.7384C67.976 36.6713 67.7914 36.6374 67.6053 36.6384C67.3554 36.6384 67.1357 36.6815 66.9429 36.7615C66.7611 36.8377 66.5967 36.9498 66.4597 37.0911C66.3262 37.2315 66.2238 37.3982 66.1588 37.5803C66.0874 37.7742 66.0519 37.9794 66.054 38.1859C66.054 38.4191 66.0946 38.6319 66.1689 38.8219C66.2432 39.0115 66.3548 39.1747 66.4934 39.3111C66.632 39.4475 66.8007 39.5507 67.0003 39.6239C67.214 39.6996 67.4395 39.7368 67.6663 39.7339C67.8717 39.7324 68.0757 39.6998 68.2712 39.6371ZM66.916 37.354C67.0819 37.2044 67.3016 37.1312 67.5787 37.1312C67.839 37.1312 68.0483 37.2043 68.2005 37.3407C68.3528 37.4807 68.4339 37.6736 68.4472 37.92H66.622C66.6477 37.702 66.7522 37.5008 66.916 37.354ZM71.1717 35.71C70.8572 35.71 70.6849 35.5367 70.658 35.1908H70.1543C70.1543 35.3236 70.178 35.4436 70.2218 35.5568C70.2659 35.67 70.3302 35.7663 70.4146 35.8463C70.4989 35.9263 70.6074 35.9896 70.7323 36.0392C70.8572 36.0892 71.0026 36.1123 71.1681 36.1123C71.3203 36.1123 71.4557 36.0892 71.5774 36.0392C71.6991 35.9928 71.8003 35.9263 71.8883 35.8463C71.9727 35.7663 72.0405 35.67 72.0875 35.5568C72.1349 35.4436 72.1586 35.3236 72.1586 35.1908H71.6585C71.6348 35.5367 71.469 35.71 71.1717 35.71ZM69.7281 36.7048V39.6671H70.2623L71.9996 37.4603V39.6671H72.5338V36.7048H71.9996L70.2623 38.9115V36.7048H69.7281Z" fill="black"/>
</svg>
