<svg width="32" height="32" viewBox="0 0 32 32" fill="none" xmlns="http://www.w3.org/2000/svg">
<g clip-path="url(#clip0_15122_24008)">
<path opacity="0.2" d="M5.88501 27.5645C7.14178 26.8104 7.38845 23.6895 7.35469 22.2232C7.80737 22.6421 9.52965 23.6057 12.7973 24.1084C7.77017 28.6328 6.09448 28.2976 5.88501 27.5645Z" fill="#2B2A29" fill-opacity="0.13"/>
<path opacity="0.45" d="M19.0812 4H12.7974C7.93874 4 4 7.91882 4 12.7529V15.2538C4 18.0434 5.31165 20.5282 7.35483 22.131C7.3886 23.5899 7.14192 26.6951 5.88515 27.4454C6.09462 28.1747 7.77032 28.5082 12.7974 24.0066H19.0812C23.9399 24.0066 27.8787 20.0879 27.8787 15.2538V12.7529C27.8787 7.91882 23.9399 4 19.0812 4Z" fill="url(#paint0_radial_15122_24008)"/>
<path opacity="0.3" d="M8.61715 26.6433C7.39036 27.5004 6.64383 27.7229 6.23804 27.1421C6.59897 27.5598 6.96184 23.0535 8.50477 24.0386C8.29568 24.3458 9.79773 23.438 10.2035 24.0188C10.6093 24.5996 9.84393 25.7861 8.61715 26.6433Z" fill="url(#paint1_radial_15122_24008)"/>
<path d="M19.0812 4H12.7974C7.93874 4 4 7.91904 4 12.7534V15.2544C4 18.0442 5.31165 20.5291 7.35483 22.1321C7.3886 23.591 7.14192 26.6964 5.88515 27.4467C6.09462 28.1761 7.77032 28.5096 12.7974 24.0078H19.0812C23.9399 24.0078 27.8787 20.0888 27.8787 15.2544V12.7534C27.8787 7.91904 23.9399 4 19.0812 4Z" fill="#F6F6F7" fill-opacity="0.6"/>
<path d="M11.8547 15.311C12.3753 15.311 12.7973 14.889 12.7973 14.3684C12.7973 13.8478 12.3753 13.4258 11.8547 13.4258C11.3341 13.4258 10.9121 13.8478 10.9121 14.3684C10.9121 14.889 11.3341 15.311 11.8547 15.311Z" fill="#3D3D45"/>
<path d="M16.2534 15.311C16.7739 15.311 17.1959 14.889 17.1959 14.3684C17.1959 13.8478 16.7739 13.4258 16.2534 13.4258C15.7328 13.4258 15.3108 13.8478 15.3108 14.3684C15.3108 14.889 15.7328 15.311 16.2534 15.311Z" fill="#3D3D45"/>
<path d="M20.6523 15.311C21.1729 15.311 21.5949 14.889 21.5949 14.3684C21.5949 13.8478 21.1729 13.4258 20.6523 13.4258C20.1317 13.4258 19.7097 13.8478 19.7097 14.3684C19.7097 14.889 20.1317 15.311 20.6523 15.311Z" fill="#3D3D45"/>
</g>
<defs>
<radialGradient id="paint0_radial_15122_24008" cx="0" cy="0" r="1" gradientUnits="userSpaceOnUse" gradientTransform="translate(15.9393 14.0033) rotate(-0.0150523) scale(12.7273 10.731)">
<stop stop-color="white"/>
<stop offset="0.619792" stop-color="white" stop-opacity="0.36"/>
<stop offset="0.692708" stop-color="#252525" stop-opacity="0.14"/>
<stop offset="0.755208" stop-color="#212121" stop-opacity="0.4"/>
<stop offset="0.838542" stop-color="#1C1C1C" stop-opacity="0.63"/>
<stop offset="1"/>
</radialGradient>
<radialGradient id="paint1_radial_15122_24008" cx="0" cy="0" r="1" gradientUnits="userSpaceOnUse" gradientTransform="translate(7.9823 25.5704) rotate(149.004) scale(1.97791 1.14864)">
<stop stop-color="white"/>
<stop offset="1" stop-color="white" stop-opacity="0.04"/>
</radialGradient>
<clipPath id="clip0_15122_24008">
<rect width="24" height="24" fill="white" transform="translate(4 4)"/>
</clipPath>
</defs>
</svg>
