<svg width="24" height="24" viewBox="0 0 24 24" fill="none" xmlns="http://www.w3.org/2000/svg">
<mask id="path-1-inside-1_93_865" fill="white">
<path fill-rule="evenodd" clip-rule="evenodd" d="M6.52221 3.36065C5.47606 3.81015 2.18096 5.74225 2.01926 6.00089C1.95169 6.1092 2.06709 7.02372 2.27611 8.03329C2.93812 11.2301 2.80653 10.9945 3.92784 10.9945H4.93527V15.9973V21.0001H12.021H19.1066V15.9973V10.9945H20.1009H21.0952L21.3882 9.55615C21.5494 8.76495 21.7802 7.66758 21.9009 7.11727C22.0556 6.41212 22.0305 6.03241 21.8157 5.8313C21.0092 5.07662 17.2608 3.18255 16.3293 3.05923C15.3651 2.93141 15.1948 3.00044 14.2702 3.89295C13.3761 4.75594 13.1213 4.866 12.021 4.866C10.9285 4.866 10.6638 4.75369 9.8082 3.92797C8.73598 2.89288 7.93302 2.75431 6.52221 3.36065Z"/>
</mask>
<path fill-rule="evenodd" clip-rule="evenodd" d="M6.52221 3.36065C5.47606 3.81015 2.18096 5.74225 2.01926 6.00089C1.95169 6.1092 2.06709 7.02372 2.27611 8.03329C2.93812 11.2301 2.80653 10.9945 3.92784 10.9945H4.93527V15.9973V21.0001H12.021H19.1066V15.9973V10.9945H20.1009H21.0952L21.3882 9.55615C21.5494 8.76495 21.7802 7.66758 21.9009 7.11727C22.0556 6.41212 22.0305 6.03241 21.8157 5.8313C21.0092 5.07662 17.2608 3.18255 16.3293 3.05923C15.3651 2.93141 15.1948 3.00044 14.2702 3.89295C13.3761 4.75594 13.1213 4.866 12.021 4.866C10.9285 4.866 10.6638 4.75369 9.8082 3.92797C8.73598 2.89288 7.93302 2.75431 6.52221 3.36065Z" stroke="#1C1C1C" stroke-width="2.5" mask="url(#path-1-inside-1_93_865)"/>
</svg>
