<svg width="24" height="24" viewBox="0 0 24 24" fill="none" xmlns="http://www.w3.org/2000/svg">
<path d="M11.9999 7.99988C9.79074 7.99988 7.99988 9.79074 7.99988 11.9999C7.99988 14.209 9.79074 15.9999 11.9999 15.9999C14.209 15.9999 15.9999 14.209 15.9999 11.9999C15.9999 9.79074 14.209 7.99988 11.9999 7.99988ZM11.9999 7.99988H21.1699M3.94988 6.05988L8.53988 13.9999M10.8799 21.9399L15.4599 13.9999M21.9999 11.9999C21.9999 17.5227 17.5227 21.9999 11.9999 21.9999C6.47703 21.9999 1.99988 17.5227 1.99988 11.9999C1.99988 6.47703 6.47703 1.99988 11.9999 1.99988C17.5227 1.99988 21.9999 6.47703 21.9999 11.9999Z" stroke="#1C1C1C" stroke-width="1.25" stroke-linecap="round" stroke-linejoin="round"/>
</svg>
