<svg width="21" height="20" viewBox="0 0 21 20" fill="none" xmlns="http://www.w3.org/2000/svg">
<path fill-rule="evenodd" clip-rule="evenodd" d="M0.545228 16.2032C1.56279 18.5035 3.83748 19.9906 6.35271 20C8.03432 19.9961 9.64537 19.3237 10.8309 18.1311C12.4773 16.4751 13.092 14.0544 12.4353 11.8135L13.8281 10.4206L15.838 10.3266C16.1451 10.3276 16.4012 10.092 16.4257 9.78593L16.5785 7.94645L18.3416 7.79365C18.6454 7.76621 18.8777 7.51095 18.8764 7.20596L18.8059 5.50166L19.9225 4.38505C20.0385 4.26844 20.1003 4.10857 20.0929 3.94428L19.9636 0.747236C19.964 0.433801 19.7184 0.175217 19.4053 0.159545L16.173 0.000868549C16.0067 -0.0081774 15.8444 0.0537658 15.7264 0.171299L8.34499 7.55858C5.95259 6.78212 3.32727 7.48459 1.64232 9.35206C-0.0426231 11.2195 -0.472336 13.903 0.545228 16.2032ZM1.34143 12.2776C1.94724 10.006 4.0016 8.42319 6.3526 8.41674C7.01674 8.42499 7.67312 8.56065 8.28611 8.81637C8.50447 8.90428 8.75423 8.8534 8.92081 8.68708L16.3845 1.2234L18.8175 1.34682L18.9116 3.75047L17.7949 4.86709C17.679 4.98369 17.6172 5.14356 17.6245 5.30785L17.6833 6.70656L15.9966 6.85348C15.7121 6.87812 15.4865 7.10375 15.4618 7.38828L15.309 9.20425L13.5871 9.28065C13.4411 9.28726 13.3028 9.34802 13.1992 9.45108L11.3832 11.267C11.2334 11.4231 11.1815 11.6489 11.2481 11.8547C11.9295 13.7522 11.4583 15.8724 10.0374 17.3026C8.37178 18.9618 5.80021 19.2973 3.76462 18.1211C1.72903 16.9448 0.735627 14.5492 1.34143 12.2776Z" fill="#1C1C1C"/>
<path fill-rule="evenodd" clip-rule="evenodd" d="M3.08465 14.2075C3.40252 15.8024 4.80274 16.9505 6.42893 16.9499C7.33332 16.9521 8.201 16.5923 8.83847 15.9508C9.98802 14.8005 10.1649 12.9984 9.26103 11.6466C8.35712 10.2948 6.62414 9.76972 5.12195 10.3926C3.61976 11.0154 2.76677 12.6127 3.08465 14.2075ZM4.36255 12.6802C4.70882 11.8448 5.52476 11.3007 6.42911 11.3021C7.33346 11.3007 8.14939 11.8448 8.49567 12.6802C8.84194 13.5157 8.65018 14.4775 8.01 15.1162C7.12596 15.9625 5.73226 15.9625 4.84822 15.1162C4.20803 14.4775 4.01628 13.5157 4.36255 12.6802Z" fill="#1C1C1C"/>
</svg>
