<svg width="40" height="40" viewBox="0 0 40 40" fill="none" xmlns="http://www.w3.org/2000/svg">
<rect width="40" height="40" rx="20" fill="#92A0EF"/>
<path d="M20.0212 18.6977C19.8896 17.0505 19.2357 15.7022 18.5073 15.033C18.9334 14.8199 19.3793 14.2444 19.3528 13.8852C17.9905 14.4085 15.2855 13.5921 15.0675 14.8243C15.0216 15.0851 15.1402 15.4825 15.2682 15.5968C15.2911 15.5141 15.4107 15.2438 15.7878 15.1832C17.6936 14.8783 19.2847 17.9878 17.8485 19.245C17.0913 19.9697 16.479 20.187 16.2675 20.2051C16.2675 20.2051 15.1345 19.5271 15.1345 18.8571C15.1345 18.4717 15.2964 18.1243 15.556 17.8749C15.6114 17.8224 15.604 17.7335 15.5398 17.692C15.5116 17.6741 15.4836 17.6559 15.4558 17.6373C13.2026 16.1211 11.15 12.6098 10.9289 12.2241M10.9289 12.2241C10.9186 12.2061 10.8939 12.2025 10.8788 12.2164L10.9289 12.2241ZM10.9289 12.2241C9.6735 13.8866 8.47647 18.4442 13.7314 23.3748C14.0795 23.7894 14.8827 23.7979 15.3743 23.1981L17.5642 22.9463M17.5642 22.9463V24.1825C17.6958 24.9701 18.2528 25.2563 18.5148 25.301C18.8245 25.5099 19.1392 25.9217 19.3762 26.6085C18.2111 26.9072 16.7484 27.7298 16.4524 28.6279C16.3385 28.9746 16.7149 29.4473 17.172 29.5425C17.8798 29.7171 18.8116 29.9892 20.0212 29.996M17.5642 22.9463C16.4277 22.8854 15.4813 23.9813 16.718 25.8222C16.8266 25.9962 15.6672 26.275 15.1233 26.2045C14.7088 26.1401 13.88 26.0711 13.88 26.3099M13.88 26.3099C13.88 26.3099 11.7985 24.2281 11.7812 24.2035L13.88 26.3099ZM13.88 26.3099L14.9572 27.3684L15.5082 27.9098L13.88 26.3099ZM19.9811 18.7919C20.1127 17.1577 20.7668 15.8201 21.4953 15.1562C21.0691 14.9449 20.6232 14.3739 20.6496 14.0176C22.0123 14.5368 24.718 13.7269 24.9359 14.9493C24.9818 15.2079 24.8632 15.6022 24.7352 15.7155C24.7123 15.6336 24.5927 15.3654 24.2155 15.3053C22.3092 15.0028 20.7177 18.0875 22.1543 19.3347C22.9117 20.0536 23.5241 20.2691 23.7357 20.287C23.7357 20.287 24.8689 19.6145 24.8689 18.9499C24.8689 18.5676 24.707 18.2229 24.4473 17.9755C24.392 17.9234 24.3994 17.8352 24.4635 17.7941C24.4918 17.7763 24.5198 17.7582 24.5475 17.7398C26.8013 16.2357 28.8543 12.7524 29.0755 12.3698M29.0755 12.3698C29.0858 12.352 29.1105 12.3483 29.1256 12.3622L29.0755 12.3698ZM29.0755 12.3698C30.3312 14.019 31.5284 18.5403 26.2724 23.4315C25.9242 23.8428 25.1208 23.8513 24.629 23.2562L22.4388 23.0064M22.4388 23.0064V24.2329C22.3071 25.0141 21.7499 25.2981 21.4879 25.3423C21.1781 25.5496 20.8633 25.9582 20.6263 26.6395C21.7917 26.9357 23.2547 27.7518 23.5507 28.6427C23.6647 28.9867 23.2882 29.4556 22.8309 29.55C22.1229 29.7232 21.1909 29.9932 19.9811 30M22.4388 23.0064C23.5755 22.946 24.5221 24.0332 23.2851 25.8594C23.1764 26.0321 25.0692 26.7094 25.6133 26.6395M20.9793 12.3963H18.9194C18.9194 12.3963 18.5586 11.8131 18.4682 11.5242C18.1433 10.4848 18.558 10 19.1651 10H20.7332C21.3403 10 21.7549 10.4848 21.4301 11.5242C21.3886 11.6571 21.2897 11.8523 21.1951 12.0239L20.9793 12.3963ZM27.9221 26.2802C27.9221 26.9345 27.4461 27.4649 26.859 27.4649C26.2719 27.4649 25.7959 26.9345 25.7959 26.2802C25.7959 25.626 26.2719 25.0956 26.859 25.0956C27.4461 25.0956 27.9221 25.626 27.9221 26.2802Z" stroke="white" stroke-width="1.25" stroke-linecap="round" stroke-linejoin="round"/>
</svg>
