<svg width="16" height="16" viewBox="0 0 16 16" fill="none" xmlns="http://www.w3.org/2000/svg">
<path d="M14.0001 2.66672H2.00008C1.2637 2.66672 0.666748 3.26367 0.666748 4.00005V12.0001C0.666748 12.7364 1.2637 13.3334 2.00008 13.3334H14.0001C14.7365 13.3334 15.3334 12.7364 15.3334 12.0001V4.00005C15.3334 3.26367 14.7365 2.66672 14.0001 2.66672Z" stroke="#1C1C1C" stroke-width="1.25" stroke-linecap="round" stroke-linejoin="round"/>
<path d="M8.0106 6.0974V7.9835L9.26816 8.6122M11.1545 7.9835C11.1545 9.71961 9.74693 11.127 8.0106 11.127C6.27427 11.127 4.8667 9.71961 4.8667 7.9835C4.8667 6.24739 6.27427 4.84 8.0106 4.84C9.74693 4.84 11.1545 6.24739 11.1545 7.9835Z" stroke="#1C1C1C" stroke-width="1.25" stroke-linecap="round" stroke-linejoin="round"/>
</svg>
