<svg width="16" height="16" viewBox="0 0 16 16" fill="none" xmlns="http://www.w3.org/2000/svg">
<path d="M7.94554 6.13146V8.01799L9.20339 8.64683M1.93361 2.7H13.9363C14.6729 2.7 15.27 3.29709 15.27 4.03363V12.0355C15.27 12.772 14.6729 13.3691 13.9363 13.3691H1.93361C1.19706 13.3691 0.599976 12.772 0.599976 12.0355V4.03363C0.599976 3.29709 1.19706 2.7 1.93361 2.7ZM11.0902 8.01799C11.0902 9.75449 9.68226 11.1622 7.94554 11.1622C6.20882 11.1622 4.80092 9.75449 4.80092 8.01799C4.80092 6.28148 6.20882 4.87377 7.94554 4.87377C9.68226 4.87377 11.0902 6.28148 11.0902 8.01799Z" stroke="#1C1C1C" stroke-width="1.25" stroke-linecap="round" stroke-linejoin="round"/>
</svg>
