<svg width="24" height="24" viewBox="0 0 24 24" fill="none" xmlns="http://www.w3.org/2000/svg">
<path d="M10 6.5C10 4.567 8.433 3 6.5 3V3C4.567 3 3 4.567 3 6.5V6.5C3 8.433 4.567 10 6.5 10V10C8.433 10 10 8.433 10 6.5V6.5Z" stroke="#1C1C1C" stroke-width="1.25" stroke-linecap="round" stroke-linejoin="round"/>
<path d="M21 6.5C21 4.567 19.433 3 17.5 3V3C15.567 3 14 4.567 14 6.5V6.5C14 8.433 15.567 10 17.5 10V10C19.433 10 21 8.433 21 6.5V6.5Z" stroke="#1C1C1C" stroke-width="1.25" stroke-linecap="round" stroke-linejoin="round"/>
<path d="M21 17.5C21 15.567 19.433 14 17.5 14V14C15.567 14 14 15.567 14 17.5V17.5C14 19.433 15.567 21 17.5 21V21C19.433 21 21 19.433 21 17.5V17.5Z" stroke="#1C1C1C" stroke-width="1.25" stroke-linecap="round" stroke-linejoin="round"/>
<path d="M10 17.5C10 15.567 8.433 14 6.5 14V14C4.567 14 3 15.567 3 17.5V17.5C3 19.433 4.567 21 6.5 21V21C8.433 21 10 19.433 10 17.5V17.5Z" stroke="#1C1C1C" stroke-width="1.25" stroke-linecap="round" stroke-linejoin="round"/>
</svg>
