<svg width="24" height="24" viewBox="0 0 24 24" fill="none" xmlns="http://www.w3.org/2000/svg">
<path d="M3.6582 9.58481C3.6582 9.58481 3.87466 9.67986 3.90881 9.69585L5.25184 10.3237H18.6964L20.25 9.58481M20.6995 10.2563C20.871 10.2559 21.0407 10.2208 21.199 10.1531C21.3573 10.0854 21.501 9.98626 21.622 9.86147C21.743 9.73669 21.8389 9.58865 21.9042 9.42582C21.9695 9.26299 22.0029 9.08855 22.0025 8.91246V8.39018C22.0025 8.27501 21.9579 8.16456 21.8786 8.08312C21.7993 8.00168 21.6917 7.95593 21.5796 7.95593H19.5107M3.30302 10.2563C3.13153 10.2559 2.9618 10.2208 2.8035 10.1531C2.64521 10.0854 2.50146 9.98626 2.38046 9.86147C2.25947 9.73669 2.16359 9.58865 2.09831 9.42582C2.03303 9.26299 1.99963 9.08855 2 8.91246V8.39018C2 8.27501 2.04456 8.16456 2.12387 8.08312C2.20318 8.00168 2.31075 7.95593 2.42291 7.95593H4.44911M20.7109 19.6865H18.6364C18.4431 19.6865 18.2578 19.6077 18.1211 19.4674C17.9845 19.3271 17.9077 19.1368 17.9077 18.9383V17.8146H6.09766V18.9383C6.09766 19.1363 6.02128 19.3261 5.88525 19.4663C5.74921 19.6066 5.56461 19.6858 5.37185 19.6865H3.29159C3.09983 19.6842 2.91669 19.6044 2.78188 19.4643C2.64708 19.3242 2.57149 19.1352 2.5715 18.9383V12.8794C2.57138 12.1838 2.72888 11.4977 3.03156 10.8754L5.53759 5.71424C5.74377 5.28859 6.06173 4.93061 6.45557 4.68071C6.84942 4.43081 7.30346 4.29894 7.76644 4.29999H16.2361C16.6987 4.29901 17.1524 4.43058 17.5461 4.6799C17.9399 4.92923 18.2581 5.28642 18.4649 5.71131L20.9767 10.8754C21.2774 11.4982 21.4329 12.1842 21.431 12.8794V18.9383C21.431 19.1352 21.3554 19.3242 21.2206 19.4643C21.0858 19.6044 20.9027 19.6842 20.7109 19.6865ZM17.6819 15.8634C17.3201 15.8634 16.9664 15.7532 16.6656 15.5467C16.3648 15.3402 16.1304 15.0468 15.9921 14.7035C15.8538 14.3602 15.8177 13.9824 15.8885 13.6181C15.9593 13.2538 16.1338 12.9192 16.3898 12.6567C16.6459 12.3942 16.972 12.2155 17.3269 12.1434C17.6819 12.0713 18.0497 12.1089 18.3838 12.2515C18.7179 12.3941 19.0033 12.6352 19.2039 12.9444C19.4045 13.2536 19.5113 13.6169 19.5107 13.9885C19.51 14.486 19.317 14.9629 18.9741 15.3144C18.6312 15.6659 18.1665 15.8634 17.6819 15.8634ZM6.32054 15.8634C5.95872 15.8634 5.60502 15.7532 5.30422 15.5467C5.00341 15.3402 4.76901 15.0468 4.63068 14.7035C4.49235 14.3602 4.4563 13.9824 4.52709 13.6181C4.59789 13.2538 4.77235 12.9192 5.0284 12.6567C5.28445 12.3942 5.61057 12.2155 5.96551 12.1434C6.32045 12.0713 6.68825 12.1089 7.02237 12.2515C7.35649 12.3941 7.64191 12.6352 7.84252 12.9444C8.04313 13.2536 8.1499 13.6169 8.14934 13.9885C8.14858 14.486 7.95557 14.9629 7.61269 15.3144C7.2698 15.6659 6.80507 15.8634 6.32054 15.8634Z" stroke="#1C1C1C" stroke-width="1.25"/>
</svg>
