<svg width="20" height="20" viewBox="0 0 20 20" fill="none" xmlns="http://www.w3.org/2000/svg">
<path d="M15.139 9.99999H12.0834M16.2501 8.33332H12.0834M16.2501 11.6667H12.0834M2.50016 3.33337H17.5002C18.4206 3.33337 19.1668 4.07957 19.1668 5.00004V15C19.1668 15.9205 18.4206 16.6667 17.5002 16.6667H2.50016C1.57969 16.6667 0.833496 15.9205 0.833496 15V5.00004C0.833496 4.07957 1.57969 3.33337 2.50016 3.33337ZM9.16678 13.3333V12.5C9.16678 12.058 8.99118 11.634 8.67862 11.3215C8.36606 11.0089 7.94214 10.8333 7.50011 10.8333H4.16678C3.72475 10.8333 3.30083 11.0089 2.98827 11.3215C2.67571 11.634 2.50011 12.058 2.50011 12.5V13.3333H9.16678ZM7.50011 7.49999C7.50011 8.42046 6.75392 9.16666 5.83344 9.16666C4.91297 9.16666 4.16678 8.42046 4.16678 7.49999C4.16678 6.57952 4.91297 5.83332 5.83344 5.83332C6.75392 5.83332 7.50011 6.57952 7.50011 7.49999Z" stroke="#1C1C1C" stroke-width="1.25" stroke-linecap="round" stroke-linejoin="round"/>
</svg>
