<svg width="24" height="24" viewBox="0 0 24 24" fill="none" xmlns="http://www.w3.org/2000/svg">
<path d="M16.3327 3.39193C16.1664 3.2188 15.9745 3.10435 15.7433 3.04047C15.4396 2.95654 15.037 3.00642 14.7796 3.15988C14.6505 3.23682 14.3874 3.4348 12.8744 4.5932C12.37 4.97937 11.786 5.42586 11.5766 5.58539C11.1819 5.88618 11.023 6.06063 10.9208 6.30549C10.7572 6.69745 10.7715 7.1485 10.9587 7.50031C11.041 7.65505 11.4165 8.17403 11.5118 8.2648C11.634 8.38116 11.8441 8.50197 12.0228 8.55866C12.2336 8.62551 12.5707 8.63278 12.7592 8.57455L12.8891 8.53445L13.1613 8.90964C13.614 9.53392 13.6664 9.60932 13.6664 9.63698C13.6664 9.65161 13.4632 9.79577 13.2148 9.95736C12.9664 10.1189 12.6819 10.3048 12.5826 10.3703C12.276 10.5727 11.607 11.0121 11.203 11.2766C10.1006 11.9983 8.65656 12.9447 8.05285 13.3412L6.98294 14.0437C6.76896 14.1841 6.44382 14.3979 6.26041 14.5186C6.07699 14.6394 5.33292 15.127 4.60691 15.6022C2.70603 16.8463 2.78217 16.7929 2.55774 17.0397C2.17032 17.4658 1.97185 18.0312 2.00322 18.6195C2.03204 19.1603 2.15368 19.4723 2.54543 20.0104C3.04381 20.6951 3.59983 20.9988 4.3568 21C4.69856 21.0005 4.84754 20.9741 5.13728 20.8617C5.4234 20.7508 5.55705 20.649 6.27805 19.9936C6.64905 19.6564 7.172 19.1813 7.44017 18.9379C7.70837 18.6945 8.25919 18.1935 8.66423 17.8246C9.06927 17.4557 9.56323 17.0071 9.76193 16.8277C9.96063 16.6482 10.3988 16.2509 10.7358 15.9447C11.0727 15.6384 11.6542 15.1106 12.028 14.7717C13.1697 13.7366 14.9807 12.093 15.084 11.9981C15.275 11.8228 15.2597 11.8242 15.3632 11.9731C15.4149 12.0474 15.4675 12.121 15.4802 12.1367C15.5481 12.221 16.0355 12.9117 16.0469 12.9398C16.0543 12.9581 16.029 13.0222 15.9908 13.0824C15.729 13.494 15.7365 14.1258 16.008 14.5423C16.3039 14.9959 16.5673 15.2913 16.7708 15.3979C17.1526 15.5978 17.6873 15.5948 18.0433 15.3909C18.1044 15.3559 18.5734 15.0065 19.0854 14.6144C19.5975 14.2223 20.3603 13.6385 20.7806 13.317C21.2009 12.9955 21.6027 12.6662 21.6734 12.5852C22.0264 12.1807 22.1011 11.574 21.859 11.0766C21.7701 10.8939 21.3898 10.3815 21.2513 10.2577C21.0738 10.0992 20.8276 9.98845 20.5653 9.94923C20.372 9.92031 20.3095 9.92245 20.1227 9.9644C19.909 10.0124 19.9046 10.0123 19.8674 9.95613C19.8466 9.92471 19.6465 9.64494 19.4228 9.33443C19.199 9.02389 18.7783 8.43868 18.4879 8.03395C18.1975 7.62924 17.7536 7.01187 17.5014 6.66203C17.2492 6.31219 16.9771 5.9336 16.8968 5.82073L16.7507 5.61551L16.8616 5.3826C17.045 4.99768 17.0637 4.63552 16.9201 4.25132C16.8479 4.05813 16.5402 3.60788 16.3327 3.39193Z" stroke="#1C1C1C" stroke-width="1.25"/>
</svg>
