<svg width="24" height="24" viewBox="0 0 24 24" fill="none" xmlns="http://www.w3.org/2000/svg">
<path d="M9.03455 17.0222H14.9656M16.4015 3.58987C12.3194 0.221992 6.081 2.47712 5.11958 7.79364C4.8811 9.11264 5.00076 10.4537 5.46569 11.6718C5.90668 12.8273 6.6473 13.8543 7.60745 14.6418C8.17417 15.1066 8.49913 15.7401 8.49913 16.3798V18.4373C8.49913 20.4018 10.0694 22 11.9994 22C13.9295 22 15.4997 20.4018 15.4997 18.4373V16.3874C15.4997 15.7343 15.8182 15.1129 16.3967 14.6376C18.0511 13.2779 19 11.2693 19 9.12684C19 6.97042 18.0529 4.95224 16.4015 3.58987Z" stroke="#1C1C1C" stroke-width="1.25" stroke-linecap="round"/>
</svg>
