<svg width="24" height="24" viewBox="0 0 24 24" fill="none" xmlns="http://www.w3.org/2000/svg">
<path d="M22 7.3117V9.99805M22 9.99805L19.3131 9.99805M22 9.99805L17.3691 5.63806C15.9894 4.2578 14.1984 3.36325 12.266 3.0892C10.3336 2.81516 8.36442 3.17648 6.65526 4.1187C4.9461 5.06092 3.58954 6.53301 2.78999 8.31312C1.99045 10.0932 1.79124 12.0849 2.22238 13.9881C2.65353 15.8913 3.69167 17.6028 5.18037 18.8647C6.66907 20.1267 8.52767 20.8707 10.4761 20.9846C12.4245 21.0986 14.3572 20.5763 15.9829 19.4966C17.6087 18.4168 18.8393 16.838 19.4895 14.9981" stroke="#FF3636" stroke-width="1.25" stroke-linecap="round" stroke-linejoin="round"/>
<path d="M13.5907 12.0003L14.2156 12.0133C14.2157 12.0046 14.2157 11.996 14.2156 11.9873L13.5907 12.0003ZM8.72972 12.0003L8.10486 11.9873C8.10467 11.996 8.10467 12.0046 8.10486 12.0133L8.72972 12.0003ZM16.6114 12.0003C16.6114 15.0101 14.171 17.4503 11.1602 17.4503V18.7003C14.8611 18.7003 17.8614 15.7007 17.8614 12.0003H16.6114ZM11.1602 17.4503C8.14946 17.4503 5.70898 15.0101 5.70898 12.0003H4.45898C4.45898 15.7007 7.45934 18.7003 11.1602 18.7003V17.4503ZM5.70898 12.0003C5.70898 8.99046 8.14946 6.55029 11.1602 6.55029V5.30029C7.45934 5.30029 4.45898 8.29987 4.45898 12.0003H5.70898ZM11.1602 6.55029C14.171 6.55029 16.6114 8.99046 16.6114 12.0003H17.8614C17.8614 8.29987 14.8611 5.30029 11.1602 5.30029V6.55029ZM5.08398 12.6253H17.2364V11.3753H5.08398V12.6253ZM10.6988 6.34685C12.1164 7.89855 12.9221 9.91223 12.9658 12.0133L14.2156 11.9873C14.1655 9.58318 13.2437 7.27914 11.6216 5.50373L10.6988 6.34685ZM12.9658 11.9873C12.9221 14.0884 12.1164 16.102 10.6988 17.6537L11.6216 18.4969C13.2437 16.7214 14.1655 14.4174 14.2156 12.0133L12.9658 11.9873ZM11.6216 17.6537C10.204 16.102 9.39836 14.0884 9.35458 11.9873L8.10486 12.0133C8.15495 14.4174 9.07676 16.7214 10.6988 18.4969L11.6216 17.6537ZM9.35458 12.0133C9.39836 9.91223 10.204 7.89855 11.6216 6.34685L10.6988 5.50373C9.07676 7.27914 8.15495 9.58318 8.10486 11.9873L9.35458 12.0133Z" fill="#1C1C1C"/>
</svg>
