<svg width="16" height="16" viewBox="0 0 16 16" fill="none" xmlns="http://www.w3.org/2000/svg">
<path d="M14.835 10.39C14.835 10.783 14.6789 11.1598 14.401 11.4377C14.1232 11.7156 13.7463 11.8717 13.3533 11.8717H4.46333L1.5 14.835V2.98167C1.5 2.5887 1.6561 2.21184 1.93397 1.93397C2.21184 1.6561 2.5887 1.5 2.98167 1.5H13.3533C13.7463 1.5 14.1232 1.6561 14.401 1.93397C14.6789 2.21184 14.835 2.5887 14.835 2.98167V10.39Z" stroke="#1C1C1C" stroke-width="1.25" stroke-linecap="round" stroke-linejoin="round"/>
<path d="M6.50331 3.67458H5.43257L4.09875 4.51907V5.5293L5.3326 4.75584H5.36417V9.06246H6.50331V3.67458Z" fill="#1C1C1C"/>
<path d="M7.93201 9.06246H11.773V8.13116H9.5105V8.09433L10.2971 7.3235C11.4047 6.31328 11.702 5.80816 11.702 5.19519C11.702 4.26125 10.939 3.60092 9.7841 3.60092C8.65285 3.60092 7.87677 4.27704 7.8794 5.33462H8.96066C8.95803 4.81898 9.28425 4.50329 9.77621 4.50329C10.2498 4.50329 10.6023 4.79794 10.6023 5.27148C10.6023 5.7003 10.3392 5.99495 9.84987 6.46586L7.93201 8.24165V9.06246Z" fill="#1C1C1C"/>
</svg>
