<svg width="24" height="24" viewBox="0 0 24 24" fill="none" xmlns="http://www.w3.org/2000/svg">
<g clip-path="url(#clip0_21_10758)">
<path d="M5.19006 12.8099C3.50592 10.2129 2.45442 7.2571 2.12006 4.17994C2.09507 3.90341 2.12794 3.6247 2.21656 3.36156C2.30519 3.09843 2.44763 2.85663 2.63483 2.65156C2.82202 2.44649 3.04987 2.28265 3.30385 2.17046C3.55784 2.05827 3.8324 2.0002 4.11006 1.99994H7.11006C7.59537 1.99516 8.06585 2.16702 8.43382 2.48347C8.80179 2.79993 9.04214 3.23939 9.11006 3.71994C9.23668 4.68001 9.47151 5.62267 9.81006 6.52994C9.9446 6.88786 9.97372 7.27685 9.89397 7.65082C9.81421 8.02478 9.62892 8.36805 9.36006 8.63994L8.09006 9.90994M23.0001 0.999939L1.00006 22.9999M10.6801 13.3099C11.6949 14.3257 12.8419 15.2002 14.0901 15.9099L15.3601 14.6399C15.6319 14.3711 15.9752 14.1858 16.3492 14.106C16.7231 14.0263 17.1121 14.0554 17.4701 14.1899C18.3773 14.5285 19.32 14.7633 20.2801 14.8899C20.7606 14.9579 21.2001 15.1982 21.5165 15.5662C21.833 15.9341 22.0048 16.4046 22.0001 16.8899V19.8899C22.0012 20.1684 21.9441 20.4441 21.8326 20.6993C21.721 20.9545 21.5574 21.1835 21.3521 21.3718C21.1469 21.5601 20.9046 21.7034 20.6408 21.7926C20.377 21.8819 20.0974 21.915 19.8201 21.8899C16.7429 21.5556 13.7871 20.5041 11.1901 18.8199C9.98533 18.055 8.86859 17.1596 7.86006 16.1499L10.6801 13.3099Z" stroke="#1C1C1C" stroke-width="1.25" stroke-linecap="round" stroke-linejoin="round"/>
</g>
<defs>
<clipPath id="clip0_21_10758">
<rect width="24" height="24" fill="white"/>
</clipPath>
</defs>
</svg>
