<svg width="46" height="35" viewBox="0 0 46 35" fill="none" xmlns="http://www.w3.org/2000/svg">
<path d="M22.3333 23.3335H31.9999M31.9999 23.3335L28.3332 19.6667M31.9999 23.3335L28.3332 27.0001" stroke="#FF3636" stroke-width="1.25" stroke-linecap="round" stroke-linejoin="round"/>
<path d="M24.1614 12.0002H14.4947M14.4947 12.0002L18.1614 8.3334M14.4947 12.0002L18.1614 15.6667" stroke="white" stroke-width="1.25" stroke-linecap="round" stroke-linejoin="round"/>
<path d="M27.8335 23.3334C13.6444 23.3334 3.50016 23.3334 3.50016 23.3334C2.79292 23.3334 2.11464 23.0525 1.61454 22.5524C1.11445 22.0523 0.833496 21.374 0.833496 20.6667V3.66674C0.833496 2.9595 1.11445 2.28122 1.61454 1.78112C2.11464 1.28103 2.79292 1.00008 3.50016 1.00008H31.5002C32.2074 1.00008 32.8857 1.28103 33.3858 1.78112C33.8859 2.28122 34.1668 2.9595 34.1668 3.66674V5.00008" stroke="#FF3636" stroke-width="1.25" stroke-linecap="round" stroke-linejoin="round"/>
<path d="M18.1667 12.0001C32.3558 12.0001 42.5001 12.0001 42.5001 12.0001C43.2073 12.0001 43.8856 12.281 44.3857 12.7811C44.8858 13.2812 45.1667 13.9595 45.1667 14.6667V31.6667C45.1667 32.374 44.8858 33.0523 44.3857 33.5524C43.8856 34.0525 43.2073 34.3334 42.5001 34.3334H14.5001C13.7928 34.3334 13.1146 34.0525 12.6145 33.5524C12.1144 33.0523 11.8334 32.374 11.8334 31.6667V30.3334" stroke="white" stroke-width="1.25" stroke-linecap="round" stroke-linejoin="round"/>
</svg>
