<svg width="48" height="48" viewBox="0 0 48 48" fill="none" xmlns="http://www.w3.org/2000/svg">
<path d="M23.3998 29.1001H32.0998M32.0998 29.1001L28.7998 25.8M32.0998 29.1001L28.7998 32.4" stroke="#FF3636" stroke-width="1.25" stroke-linecap="round" stroke-linejoin="round"/>
<path d="M25.0452 18.9H16.3452M16.3452 18.9L19.6452 15.6M16.3452 18.9L19.6452 22.2" stroke="white" stroke-width="1.25" stroke-linecap="round" stroke-linejoin="round"/>
<path d="M28.3502 29.1C15.58 29.1 6.45017 29.1 6.45017 29.1C5.81365 29.1 5.2032 28.8471 4.75311 28.3971C4.30303 27.947 4.05017 27.3365 4.05017 26.7V11.4C4.05017 10.7635 4.30303 10.153 4.75311 9.70294C5.2032 9.25286 5.81365 9 6.45017 9H31.6502C32.2867 9 32.8971 9.25286 33.3472 9.70294C33.7973 10.153 34.0502 10.7635 34.0502 11.4V12.6" stroke="#FF3636" stroke-width="1.25" stroke-linecap="round" stroke-linejoin="round"/>
<path d="M19.65 18.9C32.4201 18.9 41.55 18.9 41.55 18.9C42.1865 18.9 42.7969 19.1529 43.247 19.6029C43.6971 20.053 43.95 20.6635 43.95 21.3V36.6C43.95 37.2365 43.6971 37.847 43.247 38.2971C42.7969 38.7471 42.1865 39 41.55 39H16.3499C15.7134 39 15.103 38.7471 14.6529 38.2971C14.2028 37.847 13.9499 37.2365 13.9499 36.6V35.4" stroke="white" stroke-width="1.25" stroke-linecap="round" stroke-linejoin="round"/>
</svg>
