<svg width="32" height="32" viewBox="0 0 32 32" fill="none" xmlns="http://www.w3.org/2000/svg">
<rect width="32" height="32" rx="16" fill="#1C1C1C"/>
<path d="M20.1666 8.49999C20.3855 8.28112 20.6453 8.1075 20.9313 7.98905C21.2173 7.8706 21.5238 7.80963 21.8333 7.80963C22.1428 7.80963 22.4493 7.8706 22.7353 7.98905C23.0213 8.1075 23.2811 8.28112 23.5 8.49999C23.7188 8.71886 23.8924 8.97869 24.0109 9.26466C24.1294 9.55063 24.1903 9.85713 24.1903 10.1667C24.1903 10.4762 24.1294 10.7827 24.0109 11.0686C23.8924 11.3546 23.7188 11.6145 23.5 11.8333L12.25 23.0833L7.66663 24.3333L8.91663 19.75L20.1666 8.49999Z" stroke="white" stroke-width="1.25" stroke-linecap="round" stroke-linejoin="round"/>
</svg>
