<svg width="16" height="16" viewBox="0 0 16 16" fill="none" xmlns="http://www.w3.org/2000/svg">
<path d="M14.8898 7.4459L12.904 5.46013C12.575 5.13111 12.0611 5.11152 11.7563 5.41636L9.91636 7.25629C9.61152 7.56113 9.63111 8.07498 9.96013 8.404L11.9459 10.3898C12.2749 10.7188 12.7888 10.7384 13.0936 10.4335L14.9335 8.59361C15.2384 8.28877 15.2188 7.77492 14.8898 7.4459Z" stroke="white" stroke-width="1.25"/>
<path d="M7.7044 0.909884C7.85085 0.763437 8.08829 0.763437 8.23473 0.909883L10.5918 3.26691C10.7382 3.41335 10.7382 3.65079 10.5918 3.79724L8.23474 6.15426C8.08829 6.30071 7.85085 6.30071 7.7044 6.15426L5.34738 3.79724C5.20094 3.65079 5.20094 3.41335 5.34738 3.26691L7.7044 0.909884ZM3.2669 5.34738C3.41335 5.20094 3.65079 5.20094 3.79724 5.34738L6.15426 7.70441C6.3007 7.85085 6.3007 8.08829 6.15426 8.23474L3.79724 10.5917C3.65079 10.7382 3.41335 10.7382 3.2669 10.5917L0.909885 8.23474C0.763437 8.08829 0.763437 7.85085 0.909884 7.70441L3.2669 5.34738ZM7.7044 9.78488C7.85085 9.63844 8.08829 9.63844 8.23474 9.78488L10.5918 12.1419C10.7382 12.2883 10.7382 12.5258 10.5918 12.6722L8.23474 15.0292C8.08829 15.1757 7.85085 15.1757 7.7044 15.0292L5.34738 12.6722C5.20094 12.5258 5.20094 12.2883 5.34738 12.1419L7.7044 9.78488Z" stroke="white" stroke-width="1.25"/>
</svg>
