<svg width="24" height="24" viewBox="0 0 24 24" fill="none" xmlns="http://www.w3.org/2000/svg">
<path d="M18.215 12.84C18.215 13.1852 18.4948 13.465 18.84 13.465C19.1852 13.465 19.465 13.1852 19.465 12.84H18.215ZM12.84 19.465C13.1852 19.465 13.465 19.1852 13.465 18.84C13.465 18.4948 13.1852 18.215 12.84 18.215V19.465ZM4.76 3.625H17.08V2.375H4.76V3.625ZM17.08 3.625C17.7068 3.625 18.215 4.13316 18.215 4.76H19.465C19.465 3.4428 18.3972 2.375 17.08 2.375V3.625ZM4.76 18.215C4.13316 18.215 3.625 17.7068 3.625 17.08H2.375C2.375 18.3972 3.4428 19.465 4.76 19.465V18.215ZM3.625 17.08V4.76H2.375V17.08H3.625ZM3.625 4.76C3.625 4.13316 4.13316 3.625 4.76 3.625V2.375C3.4428 2.375 2.375 3.4428 2.375 4.76H3.625ZM18.215 4.76V12.84H19.465V4.76H18.215ZM12.84 18.215H4.76V19.465H12.84V18.215Z" fill="#1C1C1C"/>
<path d="M18.215 21C18.215 21.3452 18.4948 21.625 18.84 21.625C19.1852 21.625 19.465 21.3452 19.465 21L18.215 21ZM19.465 16.68C19.465 16.3348 19.1852 16.055 18.84 16.055C18.4948 16.055 18.215 16.3348 18.215 16.68L19.465 16.68ZM19.465 21L19.465 16.68L18.215 16.68L18.215 21L19.465 21Z" fill="#FF3636"/>
<path d="M21 19.465C21.3452 19.465 21.625 19.1852 21.625 18.84C21.625 18.4948 21.3452 18.215 21 18.215V19.465ZM16.68 18.215C16.3348 18.215 16.055 18.4948 16.055 18.84C16.055 19.1852 16.3348 19.465 16.68 19.465V18.215ZM21 18.215H16.68V19.465H21V18.215Z" fill="#FF3636"/>
<path d="M3 13.895C2.65482 13.895 2.375 14.1748 2.375 14.52C2.375 14.8652 2.65482 15.145 3 15.145V13.895ZM4.44 15.145C4.78518 15.145 5.065 14.8652 5.065 14.52C5.065 14.1748 4.78518 13.895 4.44 13.895V15.145ZM3 15.145H4.44V13.895H3V15.145Z" fill="#1C1C1C"/>
<path d="M3 6.69501C2.65482 6.69501 2.375 6.97483 2.375 7.32001C2.375 7.66519 2.65482 7.94501 3 7.94501V6.69501ZM4.44 7.94501C4.78518 7.94501 5.065 7.66519 5.065 7.32001C5.065 6.97483 4.78518 6.69501 4.44 6.69501V7.94501ZM3 7.94501H4.44V6.69501H3V7.94501Z" fill="#1C1C1C"/>
<path d="M13.895 10.92C13.895 12.5631 12.5631 13.895 10.92 13.895V15.145C13.2534 15.145 15.145 13.2534 15.145 10.92H13.895ZM10.92 13.895C9.27696 13.895 7.94501 12.5631 7.94501 10.92H6.69501C6.69501 13.2534 8.5866 15.145 10.92 15.145V13.895ZM7.94501 10.92C7.94501 9.27696 9.27696 7.94501 10.92 7.94501V6.69501C8.5866 6.69501 6.69501 8.5866 6.69501 10.92H7.94501ZM10.92 7.94501C12.5631 7.94501 13.895 9.27696 13.895 10.92H15.145C15.145 8.5866 13.2534 6.69501 10.92 6.69501V7.94501Z" fill="#1C1C1C"/>
</svg>
