<svg width="24" height="24" viewBox="0 0 24 24" fill="none" xmlns="http://www.w3.org/2000/svg">
<path d="M18.84 12.84V4.76C18.84 3.78798 18.052 3 17.08 3H4.76C3.78798 3 3 3.78798 3 4.76V17.08C3 18.052 3.78798 18.84 4.76 18.84H12.84" stroke="#1C1C1C" stroke-width="1.25" stroke-linecap="round" stroke-linejoin="round"/>
<path d="M18.84 21L18.84 16.68" stroke="#FF3636" stroke-width="1.25" stroke-linecap="round" stroke-linejoin="round"/>
<path d="M21 18.84H16.68" stroke="#FF3636" stroke-width="1.25" stroke-linecap="round" stroke-linejoin="round"/>
<path d="M3 14.52H4.44" stroke="#1C1C1C" stroke-width="1.25" stroke-linecap="round" stroke-linejoin="round"/>
<path d="M3 7.32001H4.44" stroke="#1C1C1C" stroke-width="1.25" stroke-linecap="round" stroke-linejoin="round"/>
<path d="M10.92 14.52C12.9082 14.52 14.52 12.9082 14.52 10.92C14.52 8.93178 12.9082 7.32001 10.92 7.32001C8.93178 7.32001 7.32001 8.93178 7.32001 10.92C7.32001 12.9082 8.93178 14.52 10.92 14.52Z" stroke="#1C1C1C" stroke-width="1.25" stroke-linecap="round" stroke-linejoin="round"/>
</svg>
