<svg width="24" height="24" viewBox="0 0 24 24" fill="none" xmlns="http://www.w3.org/2000/svg">
<path d="M11.9999 11V17M8.99988 14H14.9999M21.9999 19C21.9999 19.5304 21.7892 20.0391 21.4141 20.4142C21.039 20.7893 20.5303 21 19.9999 21H3.99988C3.46944 21 2.96074 20.7893 2.58566 20.4142C2.21059 20.0391 1.99988 19.5304 1.99988 19V5C1.99988 4.46957 2.21059 3.96086 2.58566 3.58579C2.96074 3.21071 3.46944 3 3.99988 3H8.99988L10.9999 6H19.9999C20.5303 6 21.039 6.21071 21.4141 6.58579C21.7892 6.96086 21.9999 7.46957 21.9999 8V19Z" stroke="#1C1C1C" stroke-width="1.25" stroke-linecap="round" stroke-linejoin="round"/>
</svg>
