<svg width="16" height="16" viewBox="0 0 16 16" fill="none" xmlns="http://www.w3.org/2000/svg">
<g clip-path="url(#clip0_481_3426)">
<path d="M11.6666 4.33325H11.6733M4.66659 1.33325H11.3333C13.1742 1.33325 14.6666 2.82564 14.6666 4.66659V11.3333C14.6666 13.1742 13.1742 14.6666 11.3333 14.6666H4.66659C2.82564 14.6666 1.33325 13.1742 1.33325 11.3333V4.66659C1.33325 2.82564 2.82564 1.33325 4.66659 1.33325ZM10.6666 7.57992C10.7489 8.13475 10.6541 8.7014 10.3958 9.19926C10.1374 9.69713 9.72868 10.1009 9.22767 10.353C8.72666 10.6052 8.15888 10.693 7.60511 10.6039C7.05134 10.5148 6.53976 10.2533 6.14314 9.85669C5.74653 9.46008 5.48507 8.9485 5.39596 8.39473C5.30685 7.84095 5.39463 7.27318 5.6468 6.77217C5.89898 6.27115 6.30271 5.86241 6.80057 5.60408C7.29844 5.34575 7.86509 5.25098 8.41992 5.33325C8.98587 5.41718 9.50982 5.68089 9.91438 6.08546C10.3189 6.49002 10.5827 7.01397 10.6666 7.57992Z" stroke="#1C1C1C" stroke-width="1.25" stroke-linecap="round" stroke-linejoin="round"/>
</g>
<defs>
<clipPath id="clip0_481_3426">
<rect width="16" height="16" fill="white"/>
</clipPath>
</defs>
</svg>
