<svg width="32" height="32" viewBox="0 0 32 32" fill="none" xmlns="http://www.w3.org/2000/svg">
<path fill-rule="evenodd" clip-rule="evenodd" d="M11.7865 19.262C11.7865 20.4214 12.9331 21.363 14.3487 21.363H18.0576C19.4733 21.363 20.6199 20.4214 20.6199 19.262C20.7353 18.3317 21.0931 17.4481 21.6576 16.6997C21.7281 16.61 23.4064 14.4001 23.4064 11.9916C23.2902 8.09696 20.0995 5 16.2032 5C12.3069 5 9.11615 8.09696 9 11.9916C9 14.4001 10.6783 16.61 10.7487 16.6997C11.3129 17.4483 11.6708 18.3318 11.7865 19.262ZM16.1855 6.0407C16.1903 6.04069 16.1951 6.04068 16.2 6.04067H16.1807C16.1823 6.04068 16.1839 6.04069 16.1855 6.0407ZM10.2747 11.9659C10.2782 8.69977 12.9212 6.05201 16.1855 6.0407C19.4418 6.06437 22.0705 8.709 22.074 11.9659C22.074 13.9325 20.5943 15.8926 20.5943 15.8926C19.8586 16.8752 19.4146 18.0451 19.3131 19.2684C19.3131 19.6591 18.7879 20.0883 18.032 20.0883H14.3231C13.5672 20.0883 13.042 19.6591 13.042 19.2684C12.9405 18.0451 12.4965 16.8752 11.7608 15.8926C11.7416 15.8734 10.2747 13.9325 10.2747 11.9659Z" fill="#1C1C1C"/>
<path d="M20.2933 23.573H12.1132C11.7594 23.573 11.4727 23.2862 11.4727 22.9324C11.4727 22.5787 11.7594 22.2919 12.1132 22.2919H20.2933C20.647 22.2919 20.9338 22.5787 20.9338 22.9324C20.9338 23.2862 20.647 23.573 20.2933 23.573Z" fill="#1C1C1C"/>
<path d="M20.2933 25.4947H12.1132C11.7594 25.4947 11.4727 25.2079 11.4727 24.8541C11.4727 24.5004 11.7594 24.2136 12.1132 24.2136H20.2933C20.647 24.2136 20.9338 24.5004 20.9338 24.8541C20.9338 25.2079 20.647 25.4947 20.2933 25.4947Z" fill="#1C1C1C"/>
<path d="M19.3835 27.41H13.0226C12.6689 27.41 12.3821 27.1232 12.3821 26.7694C12.3821 26.4157 12.6689 26.1289 13.0226 26.1289H19.3835C19.7373 26.1289 20.024 26.4157 20.024 26.7694C20.024 27.1232 19.7373 27.41 19.3835 27.41Z" fill="#1C1C1C"/>
</svg>
