<svg width="64" height="64" viewBox="0 0 64 64" fill="none" xmlns="http://www.w3.org/2000/svg">
<rect width="64" height="64" rx="32" fill="#E3011B"/>
<path fill-rule="evenodd" clip-rule="evenodd" d="M30.1109 13.1569C27.8555 13.6287 25.8524 14.7559 24.2726 16.4428C20.7345 20.2199 20.2518 25.7272 23.0784 30.0656C23.682 30.992 25.7003 33.0475 26.0064 33.0475C26.0806 33.0475 26.1412 33.3461 26.1412 33.7111C26.1412 35.2875 27.2839 36.8885 28.715 37.3173C29.5451 37.566 35.0274 37.5628 35.8725 37.3132C36.7159 37.064 37.9877 35.7922 38.2369 34.9488C38.3396 34.6012 38.4236 34.0313 38.4236 33.6822C38.4236 33.3331 38.4887 33.0475 38.5684 33.0475C38.6481 33.0475 39.1371 32.6551 39.6551 32.1755C43.7288 28.404 44.4965 22.5345 41.5129 17.9698C40.077 15.7728 37.5801 13.9516 35.1227 13.3089C33.8286 12.9704 31.3603 12.8956 30.1109 13.1569ZM33.7635 15.5348C37.73 16.2871 40.5614 19.4891 40.8317 23.5286C41.0121 26.2234 39.6764 29.1626 37.5526 30.7446C36.0338 31.8759 35.9671 31.9789 35.9671 33.1966C35.9671 34.1822 35.9269 34.3276 35.5609 34.6669C35.1594 35.0389 35.1203 35.0434 32.2531 35.0434C29.377 35.0434 29.348 35.04 28.9746 34.6665C28.6505 34.3424 28.5977 34.1477 28.5977 33.2747C28.5977 32.7165 28.528 32.1295 28.4429 31.9705C28.3577 31.8113 27.8291 31.3356 27.2683 30.9133C24.8196 29.0697 23.5441 26.4075 23.73 23.5286C23.8726 21.3204 24.6989 19.4771 26.2347 17.9415C28.2449 15.9314 31.0783 15.0255 33.7635 15.5348ZM26.5181 23.1379C26.0518 23.604 26.0287 24.2654 26.4595 24.8129L26.7776 25.2175L26.4595 25.622C26.0287 26.1695 26.0518 26.8309 26.5181 27.297C26.9842 27.7633 27.6456 27.7865 28.1931 27.3557L28.5977 27.0376L29.0022 27.3557C29.5408 27.7794 30.1511 27.7578 30.6479 27.2975C31.1457 26.8361 31.1799 26.1864 30.7359 25.622L30.4178 25.2175L30.7359 24.8129C31.1667 24.2654 31.1435 23.604 30.6772 23.1379C30.2111 22.6716 29.5497 22.6485 29.0022 23.0793L28.5977 23.3974L28.1931 23.0793C27.6456 22.6485 26.9842 22.6716 26.5181 23.1379ZM33.8876 23.1379C33.4213 23.604 33.3981 24.2654 33.8289 24.8129L34.147 25.2175L33.8289 25.622C33.3981 26.1695 33.4213 26.8309 33.8876 27.297C34.3537 27.7633 35.0151 27.7865 35.5626 27.3557L35.9671 27.0376L36.3717 27.3557C36.9103 27.7794 37.5205 27.7578 38.0174 27.2975C38.5151 26.8361 38.5493 26.1864 38.1053 25.622L37.7872 25.2175L38.1053 24.8129C38.5361 24.2654 38.513 23.604 38.0467 23.1379C37.5806 22.6716 36.9192 22.6485 36.3717 23.0793L35.9671 23.3974L35.5626 23.0793C35.0151 22.6485 34.3537 22.6716 33.8876 23.1379ZM22.483 36.4583C21.1558 36.904 20 38.536 20 39.9643C20 41.3039 20.9167 42.7013 22.1645 43.264C22.4939 43.4126 22.7635 43.5823 22.7635 43.6411C22.7635 43.6999 22.4939 43.8695 22.1645 44.0181C20.9282 44.5756 20 45.9783 20 47.2889C20 48.2901 20.3422 49.0601 21.1463 49.8675C22.0188 50.7438 22.9446 51.0993 24.0343 50.9764C24.3956 50.9357 26.3996 50.1719 28.4879 49.2792L32.2849 47.6557L36.0835 49.2778C38.1727 50.1699 40.1757 50.9338 40.5346 50.9751C42.5695 51.2101 44.5648 49.3851 44.5648 47.2889C44.5648 45.9829 43.4393 44.3114 42.3087 43.9383C41.6597 43.7241 41.6668 43.5557 42.3336 43.3357C43.0135 43.1112 44.1454 41.8581 44.3823 41.0673C44.8045 39.6584 44.4986 38.4994 43.4185 37.4147C42.546 36.5385 41.618 36.182 40.5346 36.3071C40.1757 36.3484 38.1727 37.1124 36.0833 38.0044L32.2846 39.6266L28.4836 37.9961C24.4619 36.271 23.6559 36.0645 22.483 36.4583ZM26.5034 39.8262C29.4446 41.0728 29.3887 40.9084 27.1781 41.8088L25.9889 42.2932L24.4914 41.6472C22.8457 40.9373 22.4565 40.6093 22.4565 39.9324C22.4565 39.3875 23.0615 38.7281 23.5614 38.7281C23.7546 38.7281 25.0785 39.2223 26.5034 39.8262ZM41.7314 39.105C42.1789 39.5524 42.2261 40.2451 41.8396 40.6973C41.532 41.0573 24.1393 48.554 23.6118 48.554C22.7559 48.554 22.1566 47.3339 22.6687 46.6337C22.9278 46.2793 40.3159 38.7642 40.9254 38.743C41.1911 38.7338 41.4982 38.8717 41.7314 39.105ZM40.1121 45.6519C41.7199 46.3452 42.1083 46.6756 42.1083 47.3502C42.1083 47.8747 41.4693 48.554 40.9762 48.554C40.6191 48.554 35.4594 46.4005 35.5646 46.2955C35.6745 46.1854 38.3342 45.0397 38.5001 45.031C38.5844 45.0265 39.3098 45.306 40.1121 45.6519Z" fill="white"/>
</svg>
