<svg width="20" height="20" viewBox="0 0 20 20" fill="none" xmlns="http://www.w3.org/2000/svg">
<path d="M11.5674 1.66669H4.99978C4.55782 1.66669 4.13396 1.8423 3.82145 2.1549C3.50894 2.4675 3.33337 2.89148 3.33337 3.33356V16.6686C3.33337 17.1106 3.50894 17.5346 3.82145 17.8472C4.13396 18.1598 4.55782 18.3354 4.99978 18.3354H14.9982C15.4402 18.3354 15.864 18.1598 16.1765 17.8472C16.4891 17.5346 16.6646 17.1106 16.6646 16.6686V6.76536M11.5674 1.66669L16.6646 6.76536M11.5674 1.66669V6.76536H16.6646" stroke="#1C1C1C" stroke-width="1.25" stroke-linecap="round" stroke-linejoin="round"/>
<path d="M5.78369 12.9428H9.56461M5.78369 14.4135H9.56461M7.20154 11.472L6.72892 15.8843M8.61938 11.472L8.14677 15.8843" stroke="#1C1C1C" stroke-width="1.25" stroke-linecap="round" stroke-linejoin="round"/>
</svg>
