<svg width="20" height="20" viewBox="0 0 20 20" fill="none" xmlns="http://www.w3.org/2000/svg">
<circle cx="10" cy="10" r="10" fill="white"/>
<g clip-path="url(#clip0_21763_51252)">
<path d="M15.9999 4.97027C15.9999 6.4595 15.9999 7.94603 15.9999 9.45451C15.8912 9.29318 15.8006 9.15319 15.7043 9.01649C14.9041 7.88021 13.9024 6.93141 12.5479 6.3371C11.8276 6.02104 11.1085 5.83639 10.3927 5.78138C9.27096 5.69518 8.15719 5.92731 7.05894 6.47094C5.76858 7.10965 4.81962 8.06772 4.06365 9.1941C4.04856 9.21661 4.03261 9.23864 4 9.28533C4 7.77465 4 6.283 4 4.78671C4 4.52466 4.34615 4 5.00972 4C8.34259 4 11.6742 4 15.019 4C15.6249 4 15.9999 4.36713 15.9999 4.97027Z" fill="#1C1C1C"/>
<path d="M15.9968 11.6303C14.2858 9.99325 12.3355 8.95352 9.9939 8.98937C7.68198 9.02479 5.70074 9.98004 4.00074 11.6363C4.00074 11.305 3.99773 11.003 4.00383 10.7012C4.00482 10.6528 4.04015 10.6004 4.07028 10.5579C5.294 8.8308 6.89299 7.69795 8.95961 7.36273C10.8032 7.0637 12.4942 7.5175 14.0267 8.60655C14.7581 9.12636 15.3765 9.76881 15.8933 10.5131C15.9532 10.5993 15.9864 10.7208 15.9922 10.8282C16.0063 11.0867 15.9968 11.3465 15.9968 11.6303Z" fill="#FF3636"/>
<path d="M15.9969 13.8181C11.992 12.2204 8.00897 12.2202 4.00207 13.8164C4.00207 13.5398 3.9942 13.2544 4.00916 12.9701C4.01192 12.9176 4.10109 12.8619 4.16049 12.8204C5.14054 12.1364 6.23667 11.6888 7.41522 11.4099C8.25323 11.2116 9.10786 11.0739 9.96759 11.0925C12.103 11.1387 14.1063 11.6215 15.8609 12.8324C15.962 12.9021 16.0042 12.9775 15.9996 13.096C15.9904 13.3343 15.9969 13.5731 15.9969 13.8181Z" fill="#FF3636"/>
<path d="M15.1057 15.9999C11.7437 15.9999 8.39909 15.9999 5.03885 15.9999C4.20222 15.9999 3.99077 15.6122 4.0003 15.3115C4.00144 15.2757 4.07878 14.9986 4.12513 14.9885C4.64275 14.8758 5.15868 14.75 5.68116 14.6665C7.44719 14.3839 9.22793 14.3276 11.0112 14.3822C12.6036 14.431 14.1869 14.5766 15.7382 14.9762C15.9292 15.0254 16.018 15.092 15.9969 15.3053C15.9749 15.528 15.9999 15.9999 15.1057 15.9999Z" fill="#FF3636"/>
</g>
<defs>
<clipPath id="clip0_21763_51252">
<path d="M4 7C4 5.34315 5.34315 4 7 4H13C14.6568 4 16 5.34315 16 7V13C16 14.6569 14.6568 16 13 16H7C5.34315 16 4 14.6569 4 13V7Z" fill="white"/>
</clipPath>
</defs>
</svg>
