<svg width="24" height="24" viewBox="0 0 24 24" fill="none" xmlns="http://www.w3.org/2000/svg">
<path d="M22.6499 14.39L11.9999 22.13L1.3499 14.39C1.20713 14.285 1.10122 14.1376 1.04733 13.9687C0.99345 13.7999 0.994348 13.6183 1.0499 13.45L2.2699 9.67002L4.7099 2.16002C4.73357 2.09883 4.77124 2.04403 4.8199 2.00002C4.89914 1.92764 5.00258 1.88751 5.1099 1.88751C5.21722 1.88751 5.32066 1.92764 5.3999 2.00002C5.45128 2.04969 5.48914 2.11164 5.5099 2.18002L7.9499 9.67002H16.0499L18.4899 2.16002C18.5136 2.09883 18.5512 2.04403 18.5999 2.00002C18.6791 1.92764 18.7826 1.88751 18.8899 1.88751C18.9972 1.88751 19.1007 1.92764 19.1799 2.00002C19.2313 2.04969 19.2691 2.11164 19.2899 2.18002L21.7299 9.69002L22.9999 13.45C23.0504 13.6235 23.0437 13.8087 22.9806 13.978C22.9176 14.1473 22.8016 14.2918 22.6499 14.39Z" stroke="#1C1C1C" stroke-width="1.25" stroke-linecap="round" stroke-linejoin="round"/>
</svg>
