<svg width="24" height="24" viewBox="0 0 24 24" fill="none" xmlns="http://www.w3.org/2000/svg">
<path d="M15.0001 6H17.0001C17.5305 6 18.0392 6.21071 18.4143 6.58579C18.7893 6.96086 19.0001 7.46957 19.0001 8V16C19.0001 16.5304 18.7893 17.0391 18.4143 17.4142C18.0392 17.7893 17.5305 18 17.0001 18H15.0001M23.0001 13V11M12.0001 6L8.00006 12H14.0001L10.0001 18M5.00006 18H3.00006C2.46963 18 1.96092 17.7893 1.58585 17.4142C1.21077 17.0391 1.00006 16.5304 1.00006 16V8C1.00006 7.46957 1.21077 6.96086 1.58585 6.58579C1.96092 6.21071 2.46963 6 3.00006 6H5.00006V18Z" stroke="#1C1C1C" stroke-width="1.25" stroke-linecap="round" stroke-linejoin="round"/>
</svg>
