<svg width="24" height="24" viewBox="0 0 24 24" fill="none" xmlns="http://www.w3.org/2000/svg">
<path d="M20.8551 4.29529C20.8551 6.23563 20.8551 8.17285 20.8551 10.132C20.8551 10.3671 20.5542 10.4576 20.4189 10.2655V10.2655C19.2382 8.58891 17.7601 7.18894 15.7616 6.31205C14.6988 5.84569 13.6378 5.57324 12.5816 5.49208C10.9265 5.36489 9.28311 5.7074 7.66264 6.50953C5.75872 7.45195 4.35853 8.86558 3.24309 10.5276V10.5276C3.21495 10.5695 3.14917 10.5485 3.14917 10.498C3.14917 8.32506 3.14917 6.178 3.14917 4.02444C3.14917 3.63778 3.65992 2.86365 4.63902 2.86365C9.55668 2.86365 14.4725 2.86365 19.4078 2.86365C20.3018 2.86365 20.8551 3.40535 20.8551 4.29529Z" stroke="#999999" stroke-width="1.25"/>
<path d="M20.8503 14.1211C18.3258 11.7056 15.4481 10.1714 11.9931 10.2243C8.58182 10.2766 5.65849 11.6861 3.15015 14.1299" stroke="#999999" stroke-width="1.25"/>
<path d="M20.8505 17.3499C14.9412 14.9925 9.06429 14.9922 3.1521 17.3475" stroke="#999999" stroke-width="1.25"/>
<path d="M20.103 20.5697C14.6304 20.5697 9.18623 20.5697 3.71655 20.5697" stroke="#999999" stroke-width="1.25"/>
<circle cx="3.71667" cy="20.5688" r="0.5" fill="#999999" stroke="#999999" stroke-width="0.135004"/>
<circle cx="20.1031" cy="20.5688" r="0.5" fill="#999999" stroke="#999999" stroke-width="0.135004"/>
<circle cx="3.14953" cy="17.3501" r="0.5" fill="#999999" stroke="#999999" stroke-width="0.135004"/>
<circle cx="20.8505" cy="17.3501" r="0.5" fill="#999999" stroke="#999999" stroke-width="0.135004"/>
<circle cx="20.8505" cy="14.1294" r="0.5" fill="#999999" stroke="#999999" stroke-width="0.135004"/>
<circle cx="3.14953" cy="14.1294" r="0.5" fill="#999999" stroke="#999999" stroke-width="0.135004"/>
</svg>
