<svg width="24" height="24" viewBox="0 0 24 24" fill="none" xmlns="http://www.w3.org/2000/svg">
<path d="M1.00012 1.00003L23.0001 23M15.0001 9.34003V4.00003C15.0009 3.25606 14.7252 2.53835 14.2265 1.98623C13.7278 1.43411 13.0418 1.08697 12.3016 1.0122C11.5614 0.937436 10.8198 1.14037 10.2208 1.58162C9.62184 2.02286 9.20817 2.67094 9.06012 3.40003M17.0001 16.95C16.0239 17.9465 14.7722 18.6285 13.4057 18.9086C12.0392 19.1888 10.6202 19.0542 9.33062 18.5223C8.04108 17.9904 6.93988 17.0853 6.16829 15.9232C5.3967 14.7611 4.98992 13.3949 5.00012 12V10M19.0001 10V12C18.9998 12.4125 18.963 12.8241 18.8901 13.23M12.0001 19V23M8.00012 23H16.0001M9.00012 9.00003V12C9.00064 12.593 9.17687 13.1725 9.50655 13.6654C9.83623 14.1582 10.3046 14.5423 10.8524 14.7692C11.4003 14.996 12.0031 15.0554 12.5847 14.9399C13.1663 14.8244 13.7006 14.5391 14.1201 14.12L9.00012 9.00003Z" stroke="#1C1C1C" stroke-width="1.25" stroke-linecap="round" stroke-linejoin="round"/>
</svg>
