<svg width="24" height="24" viewBox="0 0 24 24" fill="none" xmlns="http://www.w3.org/2000/svg">
<path d="M11.315 12.6891L11.404 12.5325M11.404 12.5325H7.92142H4.43885H2.00547M11.404 12.5325H12.5972M12.686 12.6891L12.5972 12.5325M12.5972 12.5325H16.0798H19.5624L20.2364 12.5059L21.9947 12.5325M12.0006 12.966C11.9678 12.966 8.55196 19.0492 8.55196 19.1075L8.19016 19.7456L7.27054 21.2877M12.0006 12.966C12.0192 12.966 12.8027 14.3413 13.7418 16.0221C14.6809 17.703 15.4493 19.0914 15.4493 19.1075L15.808 19.7456L16.7155 21.1685M12.0006 12.966L11.3888 11.8101L10.8974 10.9312C8.57811 6.78377 8.41215 6.33217 8.41215 6.33217L6.93857 3.27981M12.0006 12.966L12.613 11.8101L13.0641 11.0023C13.3122 10.5581 14.0915 9.16281 14.7959 7.90172L16.0766 5.60889L17.2126 3.36487M6.93857 3.27981C6.26825 3.68905 5.63911 4.18108 5.06739 4.75C3.45263 6.35683 2.41258 8.44459 2.10206 10.7025C2.01775 11.3154 1.9862 11.9275 2.00547 12.5325M6.93857 3.27981C7.44304 2.97183 7.97083 2.71074 8.51501 2.49905M17.2126 3.36487C18.4533 4.14871 19.5265 5.21376 20.3561 6.51248C21.5122 8.3224 22.0603 10.4361 21.9947 12.5325M17.2126 3.36487C16.6678 3.02071 16.0908 2.73076 15.488 2.49905M21.9947 12.5325C21.9402 14.2754 21.4615 16.0063 20.5554 17.541C19.9748 18.5243 19.0709 19.5923 18.259 20.2543C16.817 21.43 15.0943 22.1881 13.3148 22.4301C12.6349 22.5226 11.3618 22.5219 10.6736 22.4287C9.47787 22.2667 8.32692 21.8779 7.27054 21.2877M2.00547 12.5325C2.08824 15.132 3.10903 17.6033 4.91495 19.4698C5.62036 20.1989 6.41439 20.8094 7.27054 21.2877M12.0006 4.75L10.1917 1.75H13.8095L12.0006 4.75Z" stroke="#1C1C1C" stroke-width="1.25" stroke-linecap="round" stroke-linejoin="round"/>
</svg>
