<svg width="24" height="24" viewBox="0 0 24 24" fill="none" xmlns="http://www.w3.org/2000/svg">
<path d="M23.0002 6.99996V0.999958M23.0002 0.999958H17.0002M23.0002 0.999958L16.0002 7.99996M22.0002 16.92V19.92C22.0013 20.1985 21.9443 20.4741 21.8327 20.7293C21.7211 20.9845 21.5575 21.2135 21.3523 21.4018C21.147 21.5901 20.9048 21.7334 20.6409 21.8227C20.3771 21.9119 20.0976 21.945 19.8202 21.92C16.743 21.5856 13.7872 20.5341 11.1902 18.85C8.77401 17.3146 6.72551 15.2661 5.19018 12.85C3.50016 10.2412 2.44842 7.27095 2.12018 4.17996C2.09519 3.90342 2.12805 3.62472 2.21668 3.36158C2.3053 3.09845 2.44775 2.85665 2.63494 2.65158C2.82214 2.44651 3.04998 2.28267 3.30397 2.17048C3.55795 2.05829 3.83252 2.00022 4.11018 1.99996H7.11018C7.59548 1.99518 8.06597 2.16704 8.43394 2.48349C8.80191 2.79994 9.04225 3.2394 9.11018 3.71996C9.2368 4.68002 9.47163 5.62268 9.81018 6.52996C9.94472 6.88788 9.97384 7.27687 9.89408 7.65084C9.81433 8.0248 9.62904 8.36807 9.36018 8.63996L8.09018 9.90996C9.51373 12.4135 11.5866 14.4864 14.0902 15.91L15.3602 14.64C15.6321 14.3711 15.9753 14.1858 16.3493 14.106C16.7233 14.0263 17.1123 14.0554 17.4702 14.19C18.3774 14.5285 19.3201 14.7633 20.2802 14.89C20.7659 14.9585 21.2096 15.2032 21.5267 15.5775C21.8438 15.9517 22.0123 16.4295 22.0002 16.92Z" stroke="#1C1C1C" stroke-width="1.25" stroke-linecap="round" stroke-linejoin="round"/>
</svg>
