<svg width="96" height="48" viewBox="0 0 96 48" fill="none" xmlns="http://www.w3.org/2000/svg">
<path d="M84.9295 13.4769V25.2121H80.7215V16.9801H76.6699V25.2121H72.4619V13.4761H84.9295V13.4769Z" fill="black"/>
<path fill-rule="evenodd" clip-rule="evenodd" d="M63.8199 25.6314C67.5868 25.6314 70.384 23.3314 70.384 19.8446C70.384 16.4698 68.3202 14.2786 64.8711 14.2786C63.2792 14.2786 61.9658 14.8366 60.9765 15.7994C61.2126 13.8094 62.9025 12.3566 64.763 12.3566C65.1924 12.3566 68.4251 12.3498 68.4251 12.3498L70.2531 8.86621C70.2531 8.86621 66.1946 8.95821 64.3079 8.95821C59.9972 9.03301 57.0854 12.935 57.0854 17.6742C57.0854 23.1954 59.9253 25.6314 63.8199 25.6314ZM63.8428 17.3642C65.2414 17.3642 66.2111 18.2794 66.2111 19.8442C66.2111 21.2526 65.3495 22.413 63.8428 22.4162C62.4016 22.4162 61.432 21.341 61.432 19.8682C61.432 18.303 62.4016 17.3642 63.8428 17.3642Z" fill="black"/>
<path d="M53.6604 21.2831C53.6604 21.2831 52.6666 21.8535 51.1824 21.9615C49.4761 22.0119 47.9558 20.9387 47.9558 19.0319C47.9558 17.1719 49.2974 16.1059 51.1395 16.1059C52.269 16.1059 53.7632 16.8855 53.7632 16.8855C53.7632 16.8855 54.8565 14.8875 55.4229 13.8883C54.3858 13.1055 53.0044 12.6763 51.3977 12.6763C47.3428 12.6763 44.2021 15.3091 44.2021 19.0083C44.2021 22.7547 47.154 25.3263 51.3977 25.2487C52.5839 25.2047 54.2203 24.7899 55.2176 24.1519L53.6604 21.2831Z" fill="black"/>
<path d="M0 10.4478L5.83712 20.8378V27.1754L0.00682845 37.545L0 10.4478Z" fill="#5B57A2"/>
<path d="M22.4122 17.0573L27.8818 13.7189L39.0757 13.7085L22.4122 23.8741V17.0573Z" fill="#D90751"/>
<path d="M22.3813 10.3868L22.4122 24.1428L16.5614 20.5628V0L22.3817 10.3868H22.3813Z" fill="#FAB718"/>
<path d="M39.0756 13.7084L27.8814 13.7188L22.3813 10.3868L16.5614 0L39.0752 13.7084H39.0756Z" fill="#ED6F26"/>
<path d="M22.4122 37.603V30.929L16.5614 27.417L16.5646 48.0002L22.4122 37.603Z" fill="#63B22F"/>
<path d="M27.8681 34.2946L5.83672 20.8378L0 10.4478L39.0519 34.281L27.8677 34.2946H27.8681Z" fill="#1487C9"/>
<path d="M16.5651 48L22.4118 37.6028L27.8678 34.2948L39.0516 34.2812L16.5651 48Z" fill="#017F36"/>
<path d="M0.00683594 37.5452L16.6092 27.4172L11.0276 24.0068L5.83713 27.1756L0.00683594 37.5452Z" fill="#984995"/>
<path d="M47.957 33.1101C47.8285 33.2733 47.6594 33.3965 47.4566 33.4797C47.2484 33.5641 47.0257 33.607 46.801 33.6061C46.5775 33.6091 46.3553 33.572 46.1451 33.4965C45.9563 33.4282 45.7837 33.3217 45.6382 33.1837C45.4945 33.0455 45.3818 32.8787 45.3072 32.6941C45.2265 32.492 45.1862 32.2761 45.1887 32.0585C45.1887 31.8425 45.2261 31.6425 45.3036 31.4529C45.3779 31.2629 45.4859 31.1001 45.6213 30.9633C45.7567 30.8237 45.9189 30.7173 46.1013 30.6341C46.2873 30.5541 46.4901 30.5109 46.7131 30.5109C46.9533 30.5109 47.1762 30.5409 47.379 30.6005C47.5819 30.6605 47.7542 30.7605 47.896 30.9005L47.6494 31.3165C47.5301 31.2089 47.3896 31.1271 47.2368 31.0765C47.0916 31.0299 46.9399 31.0064 46.7874 31.0069C46.6524 31.0069 46.5239 31.0333 46.3989 31.0833C46.2758 31.1327 46.1634 31.2051 46.0676 31.2965C45.9697 31.3906 45.8925 31.5039 45.841 31.6293C45.7836 31.7589 45.7567 31.9021 45.7567 32.0617C45.7567 32.2249 45.7868 32.3713 45.8442 32.4977C45.9021 32.6277 45.9796 32.7377 46.0776 32.8305C46.1756 32.9241 46.2905 32.9937 46.4222 33.0405C46.5544 33.0905 46.693 33.1137 46.8416 33.1137C47.024 33.1137 47.1898 33.0769 47.3316 33.0069C47.4721 32.9393 47.5984 32.8457 47.7036 32.7309L47.957 33.1101ZM48.6531 33.5361V30.5741H49.1874V32.7809L50.9246 30.5741H51.4588V33.5365H50.9246V31.3297L49.1874 33.5365H48.6531V33.5361ZM54.9976 33.1101C54.8661 33.2747 54.6937 33.4021 54.4975 33.4797C54.2892 33.5641 54.0664 33.607 53.8416 33.6061C53.6182 33.6091 53.3961 33.572 53.186 33.4965C52.9971 33.4282 52.8243 33.3217 52.6787 33.1837C52.5351 33.0455 52.4223 32.8787 52.3477 32.6941C52.267 32.492 52.2268 32.2761 52.2292 32.0585C52.2292 31.8425 52.2666 31.6425 52.3441 31.4529C52.4188 31.2629 52.5269 31.1001 52.6618 30.9633C52.7972 30.8237 52.9595 30.7173 53.1418 30.6341C53.3345 30.5497 53.5431 30.5076 53.7536 30.5109C53.9938 30.5109 54.2167 30.5409 54.4196 30.6005C54.6224 30.6605 54.7947 30.7605 54.9369 30.9005L54.6899 31.3165C54.5708 31.2088 54.4304 31.1271 54.2778 31.0765C54.1325 31.03 53.9809 31.0065 53.8283 31.0069C53.5598 31.0078 53.3019 31.1115 53.1081 31.2965C53.011 31.3913 52.934 31.5044 52.8816 31.6293C52.8241 31.7589 52.7972 31.9021 52.7972 32.0617C52.7972 32.2249 52.8277 32.3713 52.8852 32.4977C52.9426 32.6277 53.0201 32.7377 53.1181 32.8305C53.2162 32.9241 53.3314 32.9937 53.4632 33.0405C53.5949 33.0869 53.7335 33.1137 53.8821 33.1137C54.0649 33.1137 54.2272 33.0769 54.3722 33.0069C54.5127 32.9393 54.6389 32.8457 54.7441 32.7309L54.9976 33.1101ZM55.2715 30.5741H58.0125V31.1001H56.9107V33.5361H56.3765V31.1001H55.2747V30.5741H55.2715Z" fill="black"/>
<path fill-rule="evenodd" clip-rule="evenodd" d="M60.5074 33.5062C60.7102 33.443 60.8825 33.3461 61.0312 33.2133L60.8689 32.8005C60.7709 32.8873 60.6391 32.9606 60.4805 33.0206C60.3214 33.0806 60.1422 33.1102 59.9462 33.1102C59.6522 33.1102 59.4088 33.0338 59.216 32.8774C59.0236 32.7206 58.9187 32.5013 58.895 32.2213H61.2071C61.2308 32.1181 61.2408 32.0017 61.2408 31.8653C61.2408 31.6621 61.2035 31.4793 61.1292 31.3129C61.06 31.1514 60.9589 31.0053 60.8319 30.8833C60.7032 30.7626 60.5514 30.6687 60.3857 30.6073C60.2121 30.5403 60.0275 30.5064 59.8414 30.5073C59.5911 30.5073 59.3714 30.5505 59.179 30.6305C58.9971 30.7068 58.8326 30.8189 58.6954 30.9601C58.5622 31.1007 58.4599 31.2673 58.395 31.4493C58.3236 31.6432 58.288 31.8484 58.2901 32.0549C58.2901 32.2881 58.3307 32.5009 58.405 32.6909C58.4773 32.875 58.5879 33.0417 58.7296 33.1801C58.8681 33.3161 59.0368 33.4198 59.2365 33.493C59.4502 33.5684 59.6757 33.6055 59.9024 33.6026C60.1078 33.6013 60.3118 33.5689 60.5074 33.5066V33.5062ZM59.1553 31.2261C59.3208 31.0765 59.5405 31.0033 59.8177 31.0033C60.078 31.0033 60.2877 31.0733 60.4399 31.2133C60.5921 31.3529 60.6729 31.5461 60.6865 31.7921H58.8613C58.8872 31.5743 58.9917 31.3733 59.1553 31.2265V31.2261Z" fill="black"/>
<path d="M61.9674 30.5737H62.4542L63.6103 32.0417L64.7052 30.5737H65.1784V33.5361H64.6446V31.3761L63.6034 32.7505H63.5829L62.5016 31.3757V33.5357H61.9674V30.5737Z" fill="black"/>
<path fill-rule="evenodd" clip-rule="evenodd" d="M66.6317 30.5839C66.4695 30.626 66.3147 30.6921 66.1722 30.7799L66.3139 31.1999C66.4357 31.1399 66.5574 31.0899 66.6791 31.0467C66.8008 31.0031 66.9562 30.9831 67.1422 30.9831C67.2908 30.9831 67.4093 31.0067 67.5005 31.0531C67.5917 31.0963 67.6592 31.1631 67.7066 31.2431C67.754 31.3231 67.7845 31.4227 67.8013 31.5391C67.8182 31.6555 67.825 31.7819 67.825 31.9187C67.7157 31.8428 67.5911 31.7916 67.4599 31.7687C67.333 31.7435 67.2041 31.7302 67.0747 31.7287C66.9157 31.7287 66.767 31.7523 66.6248 31.7919C66.4831 31.8319 66.3613 31.8919 66.2633 31.9719C66.1633 32.0517 66.0825 32.1529 66.0267 32.2679C65.9672 32.3938 65.9371 32.5315 65.9388 32.6707C65.9388 32.9603 66.0235 33.1867 66.1922 33.3467C66.3613 33.5063 66.5843 33.5859 66.8614 33.5859C67.1117 33.5859 67.3113 33.5427 67.4631 33.4563C67.6154 33.3695 67.7371 33.2699 67.825 33.1567V33.5395H68.3251V31.7223C68.3251 31.3359 68.2408 31.0367 68.0685 30.8267C67.8994 30.6171 67.5985 30.5107 67.1727 30.5107C66.9831 30.5107 66.804 30.5371 66.6317 30.5839ZM67.5246 32.9839C67.4029 33.0703 67.2438 33.1099 67.0478 33.1099C66.8755 33.1099 66.7401 33.0667 66.6457 32.9835C66.5509 32.8971 66.5035 32.7839 66.5035 32.6439C66.5035 32.5611 66.5204 32.4911 66.5578 32.4279C66.5951 32.3647 66.6457 32.3147 66.7032 32.2747C66.766 32.2328 66.8358 32.2024 66.9092 32.1847C66.9872 32.1647 67.0647 32.1547 67.1458 32.1547C67.4097 32.1547 67.6359 32.2179 67.8218 32.3511V32.7271C67.7342 32.8249 67.6343 32.911 67.5246 32.9835V32.9839ZM73.0408 29.5319C73.1488 29.4823 73.2501 29.3991 73.3449 29.2759L73.054 28.8599C72.9797 28.9599 72.8954 29.0295 72.8006 29.0663C72.7001 29.1054 72.596 29.1343 72.4897 29.1527L72.3885 29.1707C72.3005 29.1859 72.2061 29.2027 72.1045 29.2195C71.9415 29.2495 71.7827 29.2986 71.6313 29.3659C71.3911 29.4691 71.1987 29.6087 71.0533 29.7851C70.9079 29.9615 70.793 30.1611 70.7151 30.3811C70.6362 30.6039 70.5829 30.835 70.5564 31.0699C70.5291 31.3099 70.5159 31.5391 70.5159 31.7587C70.5159 32.0419 70.5528 32.2979 70.6271 32.5275C70.7018 32.7575 70.8063 32.9503 70.9449 33.1067C71.0834 33.2667 71.2493 33.3867 71.4453 33.4731C71.6414 33.5595 71.8611 33.6027 72.1077 33.6027C72.3342 33.6027 72.5439 33.5595 72.7331 33.4795C72.9155 33.4026 73.0809 33.2907 73.2199 33.1503C73.3549 33.0135 73.4633 32.8503 73.5377 32.6675C73.6152 32.4843 73.6525 32.2879 73.6525 32.0815C73.6525 31.8587 73.6188 31.6559 73.5545 31.4759C73.4953 31.3043 73.401 31.1468 73.2774 31.0135C73.1535 30.8824 73.0023 30.7799 72.8343 30.7135C72.6493 30.6409 72.4519 30.6048 72.2531 30.6071C72.1246 30.6071 71.9996 30.6239 71.8779 30.6571C71.7596 30.6903 71.6459 30.7384 71.5397 30.8003C71.4367 30.859 71.3424 30.9317 71.2594 31.0163C71.1782 31.0999 71.1107 31.1931 71.0633 31.2995H71.0497C71.0601 31.1631 71.077 31.0235 71.1071 30.8803C71.1377 30.7371 71.1814 30.6003 71.2393 30.4707C71.2967 30.3411 71.371 30.2243 71.4622 30.1179C71.56 30.0105 71.6799 29.9253 71.8137 29.8683C71.9608 29.7985 72.1165 29.7482 72.2768 29.7187L72.3828 29.6995C72.4885 29.6803 72.5893 29.6619 72.6857 29.6419C72.8142 29.6155 72.9323 29.5819 73.0408 29.5323V29.5319ZM71.1614 32.3779C71.1091 32.2098 71.084 32.0346 71.087 31.8587C71.1097 31.7577 71.151 31.6618 71.2087 31.5759C71.2662 31.4859 71.3405 31.4063 71.4285 31.3359C71.627 31.181 71.8724 31.0978 72.1246 31.0999C72.4391 31.0999 72.6757 31.1963 72.8412 31.3863C73.007 31.5791 73.0882 31.8187 73.0882 32.1083C73.0882 32.2515 73.0609 32.3815 73.0139 32.5011C72.9682 32.619 72.8992 32.7267 72.8109 32.8176C72.7227 32.9085 72.617 32.9808 72.5001 33.0303C72.3784 33.0835 72.2463 33.1103 72.0977 33.1103C71.949 33.1103 71.8137 33.0803 71.6888 33.0203C71.5646 32.9615 71.4549 32.8763 71.3674 32.7707C71.2758 32.653 71.206 32.52 71.1614 32.3779ZM77.7492 30.5739H77.215V33.5363H77.7492V30.5739ZM74.4229 30.5739H74.9572V31.4627H75.4508C75.6838 31.4627 75.873 31.4927 76.0252 31.5491C76.1775 31.6059 76.2992 31.6823 76.3903 31.7755C76.4815 31.8687 76.5458 31.9787 76.5832 32.1015C76.6201 32.2247 76.6406 32.3511 76.6406 32.4843C76.6406 32.6175 76.6201 32.7443 76.5763 32.8707C76.5358 32.9971 76.4647 33.1067 76.3699 33.2067C76.2755 33.3067 76.1469 33.3867 75.9847 33.4467C75.8224 33.5063 75.6264 33.5395 75.3898 33.5395H74.4197V30.5739H74.4229ZM74.9572 31.9583V33.0435H75.346C75.6131 33.0435 75.8023 32.9971 75.9103 32.9035C76.0188 32.8103 76.0726 32.6775 76.0726 32.5011C76.0726 32.3211 76.0152 32.1851 75.9071 32.0915C75.7955 31.9983 75.6095 31.9515 75.3528 31.9515H74.9572V31.9583Z" fill="black"/>
<path d="M81.2815 33.1101C81.153 33.2733 80.9839 33.3965 80.781 33.4797C80.5729 33.5641 80.3502 33.607 80.1255 33.6061C79.902 33.6091 79.6798 33.572 79.4695 33.4965C79.2807 33.4283 79.108 33.3218 78.9626 33.1837C78.819 33.0454 78.7061 32.8786 78.6313 32.6941C78.5509 32.4919 78.5108 32.276 78.5132 32.0585C78.5132 31.8425 78.5501 31.6425 78.628 31.4529C78.7024 31.2629 78.8104 31.1001 78.9458 30.9633C79.0811 30.8237 79.243 30.7173 79.4258 30.6341C79.6184 30.5496 79.8271 30.5076 80.0375 30.5109C80.2773 30.5109 80.5006 30.5409 80.7035 30.6005C80.9063 30.6605 81.0787 30.7605 81.2204 30.9005L80.9738 31.3165C80.8545 31.2089 80.714 31.1271 80.5613 31.0765C80.4161 31.0299 80.2644 31.0064 80.1118 31.0069C79.9769 31.0069 79.8483 31.0333 79.723 31.0833C79.6 31.1327 79.4877 31.2051 79.392 31.2965C79.2948 31.3912 79.2178 31.5044 79.1655 31.6293C79.108 31.7589 79.0811 31.9021 79.0811 32.0617C79.0811 32.2249 79.1113 32.3713 79.1687 32.4977C79.2261 32.6277 79.3041 32.7377 79.4021 32.8305C79.5001 32.9241 79.615 32.9937 79.7467 33.0405C79.8789 33.0869 80.0174 33.1137 80.166 33.1137C80.3484 33.1137 80.5107 33.0769 80.6561 33.0069C80.7966 32.9394 80.9228 32.8457 81.028 32.7309L81.2815 33.1101ZM81.555 30.5741H84.2965V31.1001H83.1943V33.5361H82.6604V31.1001H81.5586V30.5741H81.555Z" fill="black"/>
<path fill-rule="evenodd" clip-rule="evenodd" d="M85.4119 30.5743H84.8777V34.8543H85.4119V33.3999C85.52 33.4699 85.6485 33.5199 85.7971 33.5531C85.9457 33.5863 86.1012 33.6027 86.2602 33.6027C86.4968 33.6027 86.7097 33.5595 86.9025 33.4799C87.0874 33.4012 87.255 33.287 87.3958 33.1439C87.5344 33.0003 87.6392 32.8339 87.7135 32.6375C87.7878 32.4415 87.8252 32.2315 87.8252 32.0087C87.8252 31.7887 87.7914 31.5859 87.7272 31.4027C87.6666 31.2288 87.5725 31.0683 87.45 30.9303C87.3298 30.7958 87.1807 30.69 87.0138 30.6207C86.8313 30.5427 86.6343 30.5041 86.4358 30.5075C86.2265 30.5075 86.0305 30.5475 85.8445 30.6275C85.6585 30.7075 85.5131 30.8035 85.4119 30.9235V30.5743ZM85.7839 31.1235C85.9361 31.0435 86.1016 31.0035 86.2807 31.0035C86.4362 31.0035 86.5748 31.0267 86.7001 31.0767C86.8218 31.1267 86.923 31.1967 87.0078 31.2899C87.0921 31.3831 87.1564 31.4899 87.197 31.6159C87.2407 31.7423 87.2612 31.8791 87.2612 32.0287C87.2612 32.1887 87.2339 32.3315 87.1869 32.4647C87.1426 32.591 87.0723 32.7067 86.9804 32.8043C86.8882 32.9008 86.7765 32.9767 86.6527 33.0271C86.5147 33.0847 86.3661 33.113 86.2165 33.1103C86.0715 33.1103 85.9361 33.0939 85.8076 33.0607C85.6668 33.0226 85.5333 32.9618 85.4123 32.8807V31.4127C85.5067 31.2999 85.632 31.2035 85.7839 31.1235ZM91.9218 30.5739H91.3876V33.5363H91.9218V30.5739ZM88.5924 30.5739H89.1266V31.4627H89.6198C89.8532 31.4627 90.0424 31.4927 90.1946 31.5491C90.3469 31.6059 90.4686 31.6823 90.5598 31.7755C90.6509 31.8687 90.7152 31.9787 90.7522 32.1015C90.7895 32.2247 90.8096 32.3511 90.8096 32.4843C90.8096 32.6175 90.7895 32.7443 90.7457 32.8707C90.7052 32.9971 90.6341 33.1067 90.5393 33.2067C90.4449 33.3067 90.3164 33.3867 90.1541 33.4467C89.9918 33.5063 89.7958 33.5395 89.5592 33.5395H88.5892V30.5739H88.5924ZM89.1302 31.9583V33.0435H89.519C89.7857 33.0435 89.9753 32.9971 90.0834 32.9035C90.1914 32.8103 90.2457 32.6775 90.2457 32.5011C90.2457 32.3211 90.1882 32.1851 90.0802 32.0915C89.9685 31.9983 89.7825 31.9515 89.5259 31.9515H89.1302V31.9583Z" fill="black"/>
<path d="M94.4841 32.0017L95.6264 33.5361H94.9709L94.0884 32.3377L93.1927 33.5361H92.5709L93.7064 32.0281L92.6384 30.5737H93.2943L94.1089 31.6921L94.9368 30.5737H95.5589L94.4841 32.0017ZM47.5618 37.1973H45.9225V39.6669H45.3883V36.7049H48.0956V39.6669H47.5618V37.1973ZM51.1274 37.2305H50.073L50.0389 37.7297C50.0019 38.1525 49.9513 38.4921 49.8802 38.7513C49.8091 39.0113 49.7212 39.2109 49.6199 39.3505C49.5187 39.4905 49.4002 39.5869 49.2649 39.6337C49.1252 39.6842 48.9776 39.709 48.829 39.7069L48.7885 39.1941C48.8459 39.1973 48.9134 39.1841 48.9877 39.1509C49.0624 39.1177 49.1367 39.0445 49.2074 38.9349C49.2785 38.8213 49.3428 38.6617 49.4002 38.4553C49.4577 38.2457 49.495 37.9729 49.5151 37.6297L49.5693 36.7077H51.6616V39.6701H51.1274V37.2301V37.2305Z" fill="black"/>
<path fill-rule="evenodd" clip-rule="evenodd" d="M53.1017 36.7119C52.9289 36.7583 52.7735 36.8247 52.6417 36.9079L52.7839 37.3275C52.9056 37.2675 53.0273 37.2175 53.1487 37.1743C53.2704 37.1311 53.4262 37.1111 53.6118 37.1111C53.7608 37.1111 53.8789 37.1343 53.9701 37.1807C54.0617 37.2243 54.1291 37.2907 54.1765 37.3707C54.2235 37.4507 54.2541 37.5507 54.2709 37.6667C54.2878 37.7835 54.2946 37.9099 54.2946 38.0463C54.1853 37.9705 54.0607 37.9195 53.9295 37.8967C53.8026 37.8715 53.6737 37.8581 53.5443 37.8567C53.3856 37.8567 53.2366 37.8799 53.0948 37.9199C52.9526 37.9599 52.8309 38.0199 52.7329 38.0999C52.6329 38.1797 52.552 38.2809 52.4963 38.3959C52.4369 38.5218 52.407 38.6595 52.4088 38.7987C52.4088 39.0879 52.4931 39.3147 52.6622 39.4743C52.8309 39.6339 53.0543 39.7139 53.3314 39.7139C53.5817 39.7139 53.7809 39.6707 53.9331 39.5839C54.085 39.4975 54.2067 39.3975 54.2946 39.2843V39.6671H54.7951V37.8499C54.7951 37.4639 54.7104 37.1643 54.538 36.9547C54.3689 36.7447 54.0681 36.6387 53.6423 36.6387C53.4596 36.6388 53.2778 36.6633 53.1017 36.7115V36.7119ZM53.9974 39.1111C53.8761 39.1979 53.717 39.2379 53.521 39.2379C53.3451 39.2379 53.2133 39.1947 53.1189 39.1111C53.0241 39.0247 52.9767 38.9115 52.9767 38.7719C52.9767 38.6887 52.9936 38.6187 53.031 38.5555C53.0679 38.4923 53.1189 38.4423 53.1764 38.4023C53.2338 38.3623 53.3045 38.3323 53.3824 38.3123C53.4597 38.2924 53.5392 38.2825 53.619 38.2827C53.8825 38.2827 54.1091 38.3459 54.295 38.4787V38.8547C54.2073 38.9525 54.1072 39.0387 53.9974 39.1111Z" fill="black"/>
<path d="M55.3185 36.7051H58.0599V37.2307H56.9577V39.6671H56.4239V37.2311H55.3221V36.7051H55.3185Z" fill="black"/>
<path fill-rule="evenodd" clip-rule="evenodd" d="M60.5546 39.6373C60.7575 39.5741 60.9298 39.4773 61.0784 39.3445L60.9161 38.9317C60.8181 39.0185 60.6864 39.0917 60.5273 39.1517C60.3687 39.2117 60.1895 39.2413 59.9935 39.2413C59.6995 39.2413 59.456 39.1649 59.2632 39.0085C59.0704 38.8521 58.966 38.6325 58.9423 38.3525H61.2543C61.2776 38.2497 61.2881 38.1329 61.2881 37.9965C61.2881 37.7937 61.2507 37.6105 61.1764 37.4441C61.1072 37.2826 61.006 37.1366 60.8788 37.0149C60.7503 36.8939 60.5987 36.7999 60.4329 36.7385C60.2594 36.6715 60.0748 36.6376 59.8887 36.6385C59.6384 36.6385 59.4187 36.6817 59.2263 36.7617C59.0443 36.8377 58.8797 36.9499 58.7427 37.0913C58.6095 37.2319 58.5071 37.3985 58.4418 37.5805C58.3706 37.7745 58.3351 37.9796 58.337 38.1861C58.337 38.4193 58.3776 38.6321 58.4519 38.8221C58.5266 39.0117 58.6378 39.1749 58.7764 39.3113C58.915 39.4477 59.0841 39.5509 59.2837 39.6241C59.4973 39.6997 59.7227 39.737 59.9493 39.7341C60.1489 39.7341 60.3518 39.7005 60.5546 39.6373ZM59.1994 37.3541C59.3649 37.2045 59.5846 37.1313 59.8617 37.1313C60.1256 37.1313 60.3317 37.2045 60.4839 37.3409C60.6358 37.4809 60.7169 37.6737 60.7306 37.9201H58.9054C58.9311 37.7022 59.0356 37.501 59.1994 37.3541ZM61.5484 36.7053H62.2244L63.2551 38.1333L62.1533 39.6673H61.4978L62.6534 38.1329L61.5484 36.7049V36.7053ZM63.3868 36.7053H63.9211V39.6673H63.3868V36.7053ZM65.8306 39.6673L64.6545 38.1329L65.7531 36.7049H65.0903L64.0528 38.1329L65.1683 39.6673H65.8306ZM68.2712 39.6373C68.474 39.5741 68.6463 39.4773 68.795 39.3445L68.6327 38.9317C68.5347 39.0185 68.4029 39.0917 68.2443 39.1517C68.0852 39.2117 67.9061 39.2413 67.71 39.2413C67.416 39.2413 67.1726 39.1649 66.9798 39.0085C66.7874 38.8521 66.6826 38.6325 66.6589 38.3525H68.9709C68.9946 38.2497 69.0046 38.1329 69.0046 37.9965C69.0046 37.7937 68.9677 37.6105 68.893 37.4441C68.8238 37.2827 68.7227 37.1367 68.5957 37.0149C68.4671 36.8939 68.3153 36.7999 68.1495 36.7385C67.976 36.6715 67.7913 36.6375 67.6052 36.6385C67.3554 36.6385 67.1357 36.6817 66.9428 36.7617C66.761 36.8378 66.5966 36.95 66.4596 37.0913C66.3262 37.2317 66.2237 37.3983 66.1588 37.5805C66.0874 37.7744 66.0519 37.9796 66.0539 38.1861C66.0539 38.4193 66.0945 38.6321 66.1688 38.8221C66.2431 39.0117 66.3548 39.1749 66.4934 39.3113C66.632 39.4477 66.8007 39.5509 67.0003 39.6241C67.214 39.6997 67.4395 39.737 67.6663 39.7341C67.8717 39.7326 68.0756 39.7 68.2712 39.6373ZM66.9159 37.3541C67.0818 37.2045 67.3015 37.1313 67.5787 37.1313C67.839 37.1313 68.0483 37.2045 68.2005 37.3409C68.3527 37.4809 68.4339 37.6737 68.4471 37.9201H66.6219C66.6477 37.7022 66.7522 37.501 66.9159 37.3541ZM71.1717 35.7101C70.8572 35.7101 70.6848 35.5369 70.6579 35.1909H70.1542C70.1542 35.3237 70.1779 35.4437 70.2217 35.5569C70.2659 35.6701 70.3302 35.7665 70.4145 35.8465C70.4989 35.9265 70.6073 35.9897 70.7322 36.0393C70.8572 36.0893 71.0026 36.1125 71.1681 36.1125C71.3203 36.1125 71.4557 36.0893 71.5774 36.0393C71.6991 35.9929 71.8003 35.9265 71.8883 35.8465C71.9726 35.7665 72.0405 35.6701 72.0875 35.5569C72.1349 35.4437 72.1586 35.3237 72.1586 35.1909H71.6585C71.6348 35.5369 71.4689 35.7101 71.1717 35.7101ZM69.728 36.7049V39.6673H70.2623L71.9995 37.4605V39.6673H72.5337V36.7049H71.9995L70.2623 38.9117V36.7049H69.728Z" fill="black"/>
</svg>
