<svg width="16" height="16" viewBox="0 0 16 16" fill="none" xmlns="http://www.w3.org/2000/svg">
<g clip-path="url(#clip0_7564_69283)">
<path d="M15 2.13199C15 3.86942 15 5.6037 15 7.3636C14.8732 7.17537 14.7675 7.01206 14.6551 6.85258C13.7216 5.52691 12.5529 4.41997 10.9727 3.72662C10.1323 3.35788 9.29339 3.14245 8.45823 3.07828C7.14958 2.97771 5.85018 3.24853 4.56888 3.88277C3.06347 4.62793 1.95635 5.74568 1.07439 7.05978C1.05677 7.08604 1.03817 7.11174 1.00012 7.16622C1.00012 5.40376 1.00012 3.6635 1.00012 1.91783C1.00012 1.6121 1.40397 1 2.17813 1C6.06648 1 9.95337 1 13.8557 1C14.5625 1 15 1.42832 15 2.13199Z" fill="#3D3D45"/>
<path d="M14.9962 9.90205C13.0001 7.99214 10.7248 6.77912 7.99289 6.82096C5.29564 6.86228 2.98419 7.97673 1.00087 9.90905C1.00087 9.52257 0.997354 9.17024 1.00447 8.81812C1.00562 8.7616 1.04685 8.70052 1.08199 8.65092C2.50967 6.63595 4.37516 5.3143 6.78621 4.92321C8.93707 4.57433 10.9099 5.10377 12.6978 6.37433C13.5511 6.98077 14.2726 7.7303 14.8755 8.59863C14.9454 8.69915 14.9841 8.84091 14.9909 8.96628C15.0074 9.26782 14.9962 9.57098 14.9962 9.90205Z" fill="#3D3D45"/>
<path d="M14.9964 12.4546C10.324 10.5906 5.67713 10.5903 1.00241 12.4527C1.00241 12.1299 0.993234 11.797 1.01068 11.4653C1.01391 11.404 1.11794 11.339 1.18724 11.2906C2.33063 10.4926 3.60944 9.97045 4.98443 9.64503C5.9621 9.41363 6.95916 9.25301 7.96218 9.27473C10.4535 9.32867 12.7907 9.89192 14.8377 11.3046C14.9556 11.386 15.0049 11.4739 14.9995 11.6122C14.9889 11.8901 14.9964 12.1687 14.9964 12.4546Z" fill="#3D3D45"/>
<path d="M13.9567 14.9999C10.0343 14.9999 6.13228 14.9999 2.21199 14.9999C1.23592 14.9999 0.989235 14.5476 1.00036 14.1968C1.00168 14.155 1.09191 13.8317 1.14598 13.8199C1.74988 13.6885 2.35179 13.5417 2.96135 13.4442C5.02172 13.1146 7.09925 13.0489 9.17971 13.1127C11.0375 13.1695 12.8847 13.3394 14.6946 13.8056C14.9174 13.863 15.021 13.9407 14.9964 14.1895C14.9707 14.4493 14.9999 14.9999 13.9567 14.9999Z" fill="#3D3D45"/>
</g>
<defs>
<clipPath id="clip0_7564_69283">
<rect x="1" y="1" width="14" height="14" rx="3" fill="white"/>
</clipPath>
</defs>
</svg>
