<svg width="24" height="24" viewBox="0 0 24 24" fill="none" xmlns="http://www.w3.org/2000/svg">
<path d="M22.2525 15.585C22.2525 16.1744 22.0183 16.7397 21.6015 17.1565C21.1847 17.5733 20.6194 17.8075 20.03 17.8075H6.695L2.25 22.2525V4.4725C2.25 3.88306 2.48416 3.31775 2.90096 2.90096C3.31775 2.48416 3.88306 2.25 4.4725 2.25H20.03C20.6194 2.25 21.1847 2.48416 21.6015 2.90096C22.0183 3.31775 22.2525 3.88306 22.2525 4.4725V15.585Z" stroke="#999999" stroke-width="1.25" stroke-linecap="round" stroke-linejoin="round"/>
<path d="M9.75502 5.51186H8.14892L6.14819 6.77859V8.29393L7.99896 7.13375H8.04632V13.5937H9.75502V5.51186Z" fill="#999999"/>
<path d="M11.8981 13.5937H17.6595V12.1967H14.2658V12.1415L15.4457 10.9852C17.1071 9.4699 17.553 8.71223 17.553 7.79276C17.553 6.39186 16.4086 5.40137 14.6762 5.40137C12.9793 5.40137 11.8152 6.41554 11.8192 8.00191H13.441C13.4371 7.22846 13.9264 6.75491 14.6644 6.75491C15.3747 6.75491 15.9035 7.19689 15.9035 7.9072C15.9035 8.55043 15.5089 8.99241 14.7749 9.69878L11.8981 12.3625V13.5937Z" fill="#999999"/>
</svg>
