<svg width="24" height="24" viewBox="0 0 24 24" fill="none" xmlns="http://www.w3.org/2000/svg">
<path d="M18.1318 21.9293C18.1318 22.2745 18.4116 22.5543 18.7568 22.5543C19.102 22.5543 19.3818 22.2745 19.3818 21.9293L18.1318 21.9293ZM19.3818 17.254C19.3818 16.9088 19.102 16.629 18.7568 16.629C18.4116 16.629 18.1318 16.9088 18.1318 17.254L19.3818 17.254ZM21.2009 20.2166C21.5461 20.2166 21.8259 19.9368 21.8259 19.5916C21.8259 19.2464 21.5461 18.9666 21.2009 18.9666L21.2009 20.2166ZM16.3126 18.9666C15.9674 18.9666 15.6876 19.2464 15.6876 19.5916C15.6876 19.9368 15.9674 20.2166 16.3126 20.2166L16.3126 18.9666ZM19.3818 21.9293L19.3818 17.254L18.1318 17.254L18.1318 21.9293L19.3818 21.9293ZM21.2009 18.9666L16.3126 18.9666L16.3126 20.2166L21.2009 20.2166L21.2009 18.9666Z" fill="#FF3636"/>
<path d="M12.0078 19.5916H4.76572C4.30189 19.5916 3.85706 19.4063 3.52908 19.0764C3.2011 18.7465 3.01685 18.299 3.01685 17.8325V8.15707L10.8868 2L18.7567 8.15707V13.1987" stroke="#1C1C1C" stroke-width="1.25" stroke-linecap="round" stroke-linejoin="round"/>
</svg>
