<svg width="24" height="24" viewBox="0 0 24 24" fill="none" xmlns="http://www.w3.org/2000/svg">
<path d="M17.3181 9.20669H6.99395C6.04499 9.20669 5.27325 8.41135 5.27325 7.43335V4.77334C5.27325 3.79534 6.04499 3 6.99395 3H17.3181C18.2671 3 19.0388 3.79534 19.0388 4.77334V7.43335C19.0388 8.41135 18.2671 9.20669 17.3181 9.20669Z" stroke="#1C1C1C" stroke-width="1.25"/>
<path d="M19.0167 5.37506C18.6715 5.37506 18.3917 5.65488 18.3917 6.00006C18.3917 6.34524 18.6715 6.62506 19.0167 6.62506V5.37506ZM20.4506 6.62506C20.7958 6.62506 21.0756 6.34524 21.0756 6.00006C21.0756 5.65488 20.7958 5.37506 20.4506 5.37506V6.62506ZM19.0167 6.62506H20.4506V5.37506H19.0167V6.62506Z" fill="#1C1C1C"/>
<path d="M11.9999 15.0846V11.7634C11.9999 11.5191 11.8009 11.32 11.5566 11.32H4.90658C3.77962 11.32 3.13324 10.6736 3.13324 9.54668V7.77334C3.13324 6.64638 3.77962 6 4.90658 6H5.34991" stroke="#1C1C1C" stroke-width="1.25"/>
<path d="M11.5452 23H12.4055C13.117 23 13.696 22.4311 13.696 21.7321V17.0832C13.696 15.76 13.0529 14.9701 11.9753 14.9701C10.8977 14.9701 10.2546 15.76 10.2546 17.0832V21.7321C10.2546 22.4311 10.8337 23 11.5452 23Z" stroke="#1C1C1C" stroke-width="1.25"/>
</svg>
