<svg width="24" height="24" viewBox="0 0 24 24" fill="none" xmlns="http://www.w3.org/2000/svg">
<path d="M16 2V5.99949M8 2V5.99949M12.4317 10.4874V13.3166L14.318 14.2596M5 3.74978H19C20.1046 3.74978 21 4.6451 21 5.74953V19.7478C21 20.8522 20.1046 21.7475 19 21.7475H5C3.89543 21.7475 3 20.8522 3 19.7478V5.74953C3 4.6451 3.89543 3.74978 5 3.74978ZM17.1475 13.3166C17.1475 15.9207 15.0362 18.0318 12.4317 18.0318C9.82718 18.0318 7.71582 15.9207 7.71582 13.3166C7.71582 10.7124 9.82718 8.60132 12.4317 8.60132C15.0362 8.60132 17.1475 10.7124 17.1475 13.3166Z" stroke="#1C1C1C" stroke-width="1.25" stroke-linecap="round" stroke-linejoin="round"/>
</svg>
