<svg width="65" height="64" viewBox="0 0 65 64" fill="none" xmlns="http://www.w3.org/2000/svg">
<g style="mix-blend-mode:plus-lighter">
<path d="M0 13.4834C0 6.03673 6.03238 0 13.4737 0H50.5263C57.9677 0 64 6.03673 64 13.4834V25.5431C64 26.4524 62.5411 26.8377 62.0402 26.0791C58.3 20.4139 48.9291 9.6912 31.579 9.6912C14.6195 9.6912 5.71961 19.9365 2.0592 25.6889C1.5621 26.4701 0 26.088 0 25.1619V13.4834Z" fill="url(#paint0_linear_24676_20145)"/>
<path d="M0 37.9774V38.8287C0 39.6017 0.956758 40.0128 1.5189 39.4908C5.59005 35.7102 17.432 27.0489 32 27.0489C46.568 27.0489 58.41 35.7102 62.4811 39.4908C63.0433 40.0128 64 39.6017 64 38.8287V37.9774C64 36.3127 63.5418 34.6867 62.5342 33.3725C58.7961 28.4972 48.0552 17.6553 32 17.6553C15.9448 17.6553 5.20389 28.4972 1.46584 33.3725C0.458197 34.6867 0 36.3127 0 37.9774Z" fill="url(#paint1_linear_24676_20145)"/>
<path d="M0 47.707V49.9542C0 50.5214 0.628838 50.9114 1.19748 50.7007C4.93372 49.3165 17.027 45.3162 32 45.3162C46.973 45.3162 59.0663 49.3165 62.8026 50.7007C63.3712 50.9114 64 50.5214 64 49.9542V47.707C64 46.6899 63.5008 45.7349 62.5781 45.1834C58.8807 42.9738 48.1185 37.5173 32 37.5173C15.8816 37.5173 5.11932 42.9738 1.42198 45.1834C0.499184 45.7349 0 46.6899 0 47.707Z" fill="url(#paint2_linear_24676_20145)"/>
<path d="M10.0979 64.0001H52.9372C56.521 64.0001 59.8482 61.5561 61.7265 57.5439C61.8866 57.202 61.7429 56.7591 61.4412 56.696C58.1987 56.0187 42.9299 52.9579 31.8423 52.9656C20.7196 52.9733 5.35187 56.1236 2.50552 56.728C2.27077 56.7779 2.14064 57.1074 2.24029 57.3912C3.65485 61.4201 6.72237 64.0001 10.0979 64.0001Z" fill="url(#paint3_linear_24676_20145)"/>
</g>
<g filter="url(#filter0_b_24676_20145)">
<path d="M0.289062 13.4834C0.289062 6.03673 6.32144 0 13.7628 0H50.8154C58.2567 0 64.2891 6.03673 64.2891 13.4834V25.5431C64.2891 26.4524 62.8301 26.8377 62.3293 26.0791C58.589 20.4139 49.2181 9.6912 31.868 9.6912C14.9085 9.6912 6.00867 19.9365 2.34827 25.6889C1.85117 26.4701 0.289062 26.088 0.289062 25.1619V13.4834Z" fill="#F8F8F8" fill-opacity="0.2"/>
<path d="M0.289062 37.9774V38.8287C0.289062 39.6017 1.24582 40.0128 1.80796 39.4908C5.87911 35.7102 17.7211 27.0489 32.2891 27.0489C46.8571 27.0489 58.699 35.7102 62.7702 39.4908C63.3323 40.0128 64.2891 39.6017 64.2891 38.8287V37.9774C64.2891 36.3127 63.8309 34.6867 62.8233 33.3725C59.0852 28.4972 48.3443 17.6553 32.2891 17.6553C16.2339 17.6553 5.49295 28.4972 1.7549 33.3725C0.74726 34.6867 0.289062 36.3127 0.289062 37.9774Z" fill="#F8F8F8" fill-opacity="0.2"/>
<path d="M0.289062 47.707V49.9542C0.289062 50.5214 0.9179 50.9114 1.48654 50.7007C5.22278 49.3165 17.3161 45.3162 32.2891 45.3162C47.2621 45.3162 59.3554 49.3165 63.0916 50.7007C63.6603 50.9114 64.2891 50.5214 64.2891 49.9542V47.707C64.2891 46.6899 63.7899 45.7349 62.8671 45.1834C59.1698 42.9738 48.4075 37.5173 32.2891 37.5173C16.1706 37.5173 5.40838 42.9738 1.71104 45.1834C0.788247 45.7349 0.289062 46.6899 0.289062 47.707Z" fill="#F8F8F8" fill-opacity="0.2"/>
<path d="M10.387 64.0001H53.2262C56.8101 64.0001 60.1373 61.5561 62.0155 57.5439C62.1756 57.202 62.032 56.7591 61.7303 56.696C58.4878 56.0187 43.219 52.9579 32.1313 52.9656C21.0086 52.9733 5.64093 56.1236 2.79458 56.728C2.55984 56.7779 2.4297 57.1074 2.52935 57.3912C3.94391 61.4201 7.01143 64.0001 10.387 64.0001Z" fill="#F8F8F8" fill-opacity="0.2"/>
</g>
<path d="M0.5 13.4834C0.5 6.31253 6.30886 0.5 13.4737 0.5H50.5263C57.6912 0.5 63.5 6.31253 63.5 13.4834V25.5431C63.5 25.6889 63.3789 25.8727 63.0778 25.9538C62.777 26.0349 62.5485 25.9414 62.4575 25.8036C58.6722 20.0701 49.168 9.1912 31.579 9.1912C14.3812 9.1912 5.34641 19.5916 1.63736 25.4205C1.54936 25.5588 1.30327 25.6656 0.964945 25.5807C0.62499 25.4954 0.5 25.2993 0.5 25.1619V13.4834ZM0.5 38.8287V37.9774C0.5 36.4025 0.933246 34.8888 1.86263 33.6767C5.56314 28.8504 16.1748 18.1553 32 18.1553C47.8252 18.1553 58.4369 28.8504 62.1374 33.6767C63.0668 34.8888 63.5 36.4025 63.5 37.9774V38.8287C63.5 39.1616 63.0662 39.3518 62.8214 39.1244C58.7092 35.3058 46.7503 26.5489 32 26.5489C17.2498 26.5489 5.29078 35.3058 1.17866 39.1244C0.933864 39.3518 0.5 39.1616 0.5 38.8287ZM0.5 49.9542V47.707C0.5 46.857 0.914189 46.0693 1.67847 45.6126C5.32241 43.4349 15.9964 38.0173 32 38.0173C48.0037 38.0173 58.6776 43.4349 62.3216 45.6126C63.0858 46.0693 63.5 46.857 63.5 47.707V49.9542C63.5 50.0403 63.4543 50.1299 63.3504 50.1946C63.2455 50.2599 63.1071 50.2803 62.9763 50.2318C59.2111 48.837 47.0553 44.8162 32 44.8162C16.9447 44.8162 4.78894 48.837 1.02378 50.2318C0.892894 50.2803 0.754575 50.2599 0.649678 50.1946C0.545726 50.1299 0.5 50.0403 0.5 49.9542ZM52.9372 63.5001H10.0979C6.99823 63.5001 4.07996 61.1215 2.71205 57.2256C2.70912 57.2172 2.70714 57.2073 2.70661 57.1965C5.79287 56.5439 20.8997 53.4731 31.8426 53.4656C42.8089 53.458 57.9198 56.4728 61.2828 57.1737C61.2895 57.1943 61.2939 57.2218 61.2924 57.2522C61.291 57.2824 61.284 57.3097 61.2737 57.3319C59.454 61.2188 56.2768 63.5001 52.9372 63.5001Z" stroke="url(#paint4_linear_24676_20145)"/>
<defs>
<filter id="filter0_b_24676_20145" x="-1.71094" y="-2" width="68" height="68" filterUnits="userSpaceOnUse" color-interpolation-filters="sRGB">
<feFlood flood-opacity="0" result="BackgroundImageFix"/>
<feGaussianBlur in="BackgroundImageFix" stdDeviation="1"/>
<feComposite in2="SourceAlpha" operator="in" result="effect1_backgroundBlur_24676_20145"/>
<feBlend mode="normal" in="SourceGraphic" in2="effect1_backgroundBlur_24676_20145" result="shape"/>
</filter>
<linearGradient id="paint0_linear_24676_20145" x1="58.3422" y1="-43.478" x2="32" y2="101.164" gradientUnits="userSpaceOnUse">
<stop stop-color="white"/>
<stop offset="1" stop-color="white" stop-opacity="0"/>
</linearGradient>
<linearGradient id="paint1_linear_24676_20145" x1="58.3422" y1="-43.478" x2="32" y2="101.164" gradientUnits="userSpaceOnUse">
<stop stop-color="white"/>
<stop offset="1" stop-color="white" stop-opacity="0"/>
</linearGradient>
<linearGradient id="paint2_linear_24676_20145" x1="58.3422" y1="-43.478" x2="32" y2="101.164" gradientUnits="userSpaceOnUse">
<stop stop-color="white"/>
<stop offset="1" stop-color="white" stop-opacity="0"/>
</linearGradient>
<linearGradient id="paint3_linear_24676_20145" x1="58.3422" y1="-43.478" x2="32" y2="101.164" gradientUnits="userSpaceOnUse">
<stop stop-color="white"/>
<stop offset="1" stop-color="white" stop-opacity="0"/>
</linearGradient>
<linearGradient id="paint4_linear_24676_20145" x1="99.1705" y1="-61.7535" x2="27.6238" y2="64.0001" gradientUnits="userSpaceOnUse">
<stop stop-color="white"/>
<stop offset="1" stop-color="white" stop-opacity="0.15"/>
</linearGradient>
</defs>
</svg>
