<svg width="37" height="37" viewBox="0 0 37 37" fill="none" xmlns="http://www.w3.org/2000/svg">
<path d="M33.8321 10.3007H16.437C15.4882 10.3007 14.719 11.0699 14.719 12.0187V22.9712C14.719 23.92 15.4882 24.6892 16.437 24.6892H33.8321C34.7809 24.6892 35.5501 23.92 35.5501 22.9712V12.0187C35.5501 11.0699 34.7809 10.3007 33.8321 10.3007Z" stroke="#FF3636" stroke-width="1.25" stroke-linecap="round" stroke-linejoin="round"/>
<path d="M25.1345 5.82943V4.36873C25.1345 2.45396 23.5823 0.901733 21.6675 0.901733H4.33248C2.41771 0.901733 0.865479 2.45396 0.865479 4.36873V32.1047C0.865479 34.0195 2.41771 35.5717 4.33248 35.5717H21.6675C23.5823 35.5717 25.1345 34.0195 25.1345 32.1047V29.5932" stroke="white" stroke-width="1.25" stroke-linecap="round" stroke-linejoin="round"/>
<path d="M14.8642 30.9845H11.1357" stroke="#E0E0E0" stroke-width="1.25" stroke-linecap="round" stroke-linejoin="round"/>
<path d="M31.7627 21.0563H18.5061" stroke="#E0E0E0" stroke-width="1.25" stroke-linecap="round" stroke-linejoin="round"/>
</svg>
