<svg width="40" height="40" viewBox="0 0 40 40" fill="none" xmlns="http://www.w3.org/2000/svg">
<rect width="40" height="40" rx="20" fill="#FFB3CC"/>
<path d="M12 12L23.88 23.88M22.48 17.53L28 12M16.12 23.88L20 20M14 23C15.6569 23 17 24.3431 17 26C17 27.6569 15.6569 29 14 29C12.3431 29 11 27.6569 11 26C11 24.3431 12.3431 23 14 23ZM26 23C27.6569 23 29 24.3431 29 26C29 27.6569 27.6569 29 26 29C24.3431 29 23 27.6569 23 26C23 24.3431 24.3431 23 26 23Z" stroke="white" stroke-width="1.25" stroke-linecap="round" stroke-linejoin="round"/>
</svg>
