<svg width="16" height="16" viewBox="0 0 16 16" fill="none" xmlns="http://www.w3.org/2000/svg">
<g clip-path="url(#clip0_481_3431)">
<path d="M6.00008 0.666748V2.66675M10.0001 0.666748V2.66675M6.00008 13.3334V15.3334M10.0001 13.3334V15.3334M13.3334 6.00008H15.3334M13.3334 9.33341H15.3334M0.666748 6.00008H2.66675M0.666748 9.33341H2.66675M4.00008 2.66675H12.0001C12.7365 2.66675 13.3334 3.2637 13.3334 4.00008V12.0001C13.3334 12.7365 12.7365 13.3334 12.0001 13.3334H4.00008C3.2637 13.3334 2.66675 12.7365 2.66675 12.0001V4.00008C2.66675 3.2637 3.2637 2.66675 4.00008 2.66675ZM6.00008 6.00008H10.0001V10.0001H6.00008V6.00008Z" stroke="#1C1C1C" stroke-width="1.25" stroke-linecap="round" stroke-linejoin="round"/>
</g>
<defs>
<clipPath id="clip0_481_3431">
<rect width="16" height="16" fill="white"/>
</clipPath>
</defs>
</svg>
