<svg width="24" height="24" viewBox="0 0 24 24" fill="none" xmlns="http://www.w3.org/2000/svg">
<path d="M14.4999 10C13.6699 10 12.9999 9.33003 12.9999 8.50003V3.50003C12.9999 2.67003 13.6699 2.00003 14.4999 2.00003C15.3299 2.00003 15.9999 2.67003 15.9999 3.50003V8.50003C15.9999 9.33003 15.3299 10 14.4999 10Z" stroke="#1C1C1C" stroke-width="1.25" stroke-linecap="round" stroke-linejoin="round"/>
<path d="M20.4999 10H18.9999V8.50003C18.9999 7.67003 19.6699 7.00003 20.4999 7.00003C21.3299 7.00003 21.9999 7.67003 21.9999 8.50003C21.9999 9.33003 21.3299 10 20.4999 10Z" stroke="#1C1C1C" stroke-width="1.25" stroke-linecap="round" stroke-linejoin="round"/>
<path d="M9.49988 14C10.3299 14 10.9999 14.67 10.9999 15.5V20.5C10.9999 21.33 10.3299 22 9.49988 22C8.66988 22 7.99988 21.33 7.99988 20.5V15.5C7.99988 14.67 8.66988 14 9.49988 14Z" stroke="#1C1C1C" stroke-width="1.25" stroke-linecap="round" stroke-linejoin="round"/>
<path d="M3.49988 14H4.99988V15.5C4.99988 16.33 4.32988 17 3.49988 17C2.66988 17 1.99988 16.33 1.99988 15.5C1.99988 14.67 2.66988 14 3.49988 14Z" stroke="#1C1C1C" stroke-width="1.25" stroke-linecap="round" stroke-linejoin="round"/>
<path d="M13.9999 14.5C13.9999 13.67 14.6699 13 15.4999 13H20.4999C21.3299 13 21.9999 13.67 21.9999 14.5C21.9999 15.33 21.3299 16 20.4999 16H15.4999C14.6699 16 13.9999 15.33 13.9999 14.5Z" stroke="#1C1C1C" stroke-width="1.25" stroke-linecap="round" stroke-linejoin="round"/>
<path d="M15.4999 19H13.9999V20.5C13.9999 21.33 14.6699 22 15.4999 22C16.3299 22 16.9999 21.33 16.9999 20.5C16.9999 19.67 16.3299 19 15.4999 19Z" stroke="#1C1C1C" stroke-width="1.25" stroke-linecap="round" stroke-linejoin="round"/>
<path d="M9.99988 9.50003C9.99988 8.67003 9.32988 8.00003 8.49988 8.00003H3.49988C2.66988 8.00003 1.99988 8.67003 1.99988 9.50003C1.99988 10.33 2.66988 11 3.49988 11H8.49988C9.32988 11 9.99988 10.33 9.99988 9.50003Z" stroke="#1C1C1C" stroke-width="1.25" stroke-linecap="round" stroke-linejoin="round"/>
<path d="M8.49988 5.00003H9.99988V3.50003C9.99988 2.67003 9.32988 2.00003 8.49988 2.00003C7.66988 2.00003 6.99988 2.67003 6.99988 3.50003C6.99988 4.33003 7.66988 5.00003 8.49988 5.00003Z" stroke="#1C1C1C" stroke-width="1.25" stroke-linecap="round" stroke-linejoin="round"/>
</svg>
