<svg width="24" height="24" viewBox="0 0 24 24" fill="none" xmlns="http://www.w3.org/2000/svg">
<path d="M7 4V20H17V4H7ZM6 2H18C18.2652 2 18.5195 2.10535 18.7071 2.2929C18.8946 2.48045 19 2.7348 19 3V21C19 21.2652 18.8946 21.5196 18.7071 21.7071C18.5195 21.8946 18.2652 22 18 22H6C5.7348 22 5.48045 21.8946 5.2929 21.7071C5.10535 21.5196 5 21.2652 5 21V3C5 2.7348 5.10535 2.48045 5.2929 2.2929C5.48045 2.10535 5.7348 2 6 2ZM12 17C12.2652 17 12.5195 17.1054 12.7071 17.2929C12.8946 17.4804 13 17.7348 13 18C13 18.2652 12.8946 18.5196 12.7071 18.7071C12.5195 18.8946 12.2652 19 12 19C11.7348 19 11.4804 18.8946 11.2929 18.7071C11.1053 18.5196 11 18.2652 11 18C11 17.7348 11.1053 17.4804 11.2929 17.2929C11.4804 17.1054 11.7348 17 12 17Z" fill="white"/>
</svg>
