<svg width="24" height="24" viewBox="0 0 24 24" fill="none" xmlns="http://www.w3.org/2000/svg">
<path d="M9.00012 17.0001H6.00012C5.34351 17.0001 4.69333 16.8707 4.0867 16.6195C3.48008 16.3682 2.92888 15.9999 2.46459 15.5356C1.52691 14.5979 1.00012 13.3261 1.00012 12.0001C1.00012 10.674 1.52691 9.40221 2.46459 8.46453C3.40227 7.52685 4.67404 7.00006 6.00012 7.00006H9.00012M8.00012 12.0001H16.0001M15.0001 7.00006H18.0001C18.6567 7.00006 19.3069 7.12939 19.9135 7.38066C20.5202 7.63194 21.0714 8.00023 21.5357 8.46453C21.9999 8.92882 22.3682 9.48002 22.6195 10.0866C22.8708 10.6933 23.0001 11.3435 23.0001 12.0001C23.0001 12.6567 22.8708 13.3069 22.6195 13.9135C22.3682 14.5201 21.9999 15.0713 21.5357 15.5356C21.0714 15.9999 20.5202 16.3682 19.9135 16.6195C19.3069 16.8707 18.6567 17.0001 18.0001 17.0001H15.0001V7.00006Z" stroke="#1C1C1C" stroke-width="1.25" stroke-linecap="round" stroke-linejoin="round"/>
</svg>
