<svg width="16" height="16" viewBox="0 0 16 16" fill="none" xmlns="http://www.w3.org/2000/svg">
<path d="M10.2678 11.4V12.025C10.0488 12.025 9.84581 11.9104 9.73268 11.7229L10.2678 11.4ZM9.13388 9.52077V8.89577C9.35286 8.89577 9.55587 9.01038 9.66901 9.19787L9.13388 9.52077ZM6.86603 9.52077L6.3309 9.19787C6.44404 9.01038 6.64705 8.89577 6.86603 8.89577V9.52077ZM5.73211 11.4L6.26723 11.7229C6.1541 11.9104 5.95109 12.025 5.73211 12.025V11.4ZM2.33033 5.98364H2.95533C2.95533 6.02172 2.95185 6.05972 2.94494 6.09716L2.33033 5.98364ZM13.6696 5.98364L13.055 6.09716C13.0481 6.05972 13.0446 6.02172 13.0446 5.98364H13.6696ZM3.74858 7.23655C3.74858 6.89137 4.0284 6.61155 4.37358 6.61155C4.71876 6.61155 4.99858 6.89137 4.99858 7.23655H3.74858ZM4.99858 8.89444C4.99858 9.23962 4.71876 9.51944 4.37358 9.51944C4.0284 9.51944 3.74858 9.23962 3.74858 8.89444H4.99858ZM3.6233 8.6905C3.27812 8.6905 2.9983 8.41067 2.9983 8.0655C2.9983 7.72032 3.27812 7.4405 3.6233 7.4405V8.6905ZM5.12386 7.4405C5.46904 7.4405 5.74886 7.72032 5.74886 8.0655C5.74886 8.41067 5.46904 8.6905 5.12386 8.6905V7.4405ZM1.76644 9.03675L1.15183 8.92323L1.76644 9.03675ZM12.2667 12.025H10.2678V10.775H12.2667V12.025ZM9.73268 11.7229L8.59875 9.84366L9.66901 9.19787L10.8029 11.0771L9.73268 11.7229ZM9.13388 10.1458H6.86603V8.89577H9.13388V10.1458ZM7.40116 9.84366L6.26723 11.7229L5.19698 11.0771L6.3309 9.19787L7.40116 9.84366ZM5.73211 12.025H3.73317V10.775H5.73211V12.025ZM1.15183 8.92323L1.71573 5.87013L2.94494 6.09716L2.38104 9.15026L1.15183 8.92323ZM1.70533 5.98364C1.70533 5.50462 1.87699 5.03421 2.19907 4.67836L3.12583 5.51718C3.0226 5.63123 2.95533 5.79814 2.95533 5.98364H1.70533ZM2.19907 4.67836C2.52301 4.32045 2.97651 4.10583 3.46426 4.10583V5.35583C3.35053 5.35583 3.22719 5.40519 3.12583 5.51718L2.19907 4.67836ZM3.46426 4.10583H12.5357V5.35583H3.46426V4.10583ZM12.5357 4.10583C13.0234 4.10583 13.4769 4.32045 13.8008 4.67836L12.8741 5.51718C12.7727 5.40519 12.6494 5.35583 12.5357 5.35583V4.10583ZM13.8008 4.67836C14.1229 5.0342 14.2946 5.50461 14.2946 5.98364H13.0446C13.0446 5.79814 12.9773 5.63123 12.8741 5.51718L13.8008 4.67836ZM14.2842 5.87013L14.8481 8.92323L13.6189 9.15026L13.055 6.09716L14.2842 5.87013ZM13.0016 8.06548C13.0016 8.96099 12.331 9.79575 11.3762 9.79575V8.54575C11.5263 8.54575 11.7516 8.39082 11.7516 8.06548H13.0016ZM11.3762 9.79575C10.4214 9.79575 9.75083 8.96099 9.75083 8.06548H11.0008C11.0008 8.39082 11.2261 8.54575 11.3762 8.54575V9.79575ZM9.75083 8.06548C9.75083 7.16998 10.4214 6.33522 11.3762 6.33522V7.58522C11.2261 7.58522 11.0008 7.74015 11.0008 8.06548H9.75083ZM11.3762 6.33522C12.331 6.33522 13.0016 7.16998 13.0016 8.06548H11.7516C11.7516 7.74015 11.5263 7.58522 11.3762 7.58522V6.33522ZM4.99858 7.23655V8.0655H3.74858V7.23655H4.99858ZM4.99858 8.0655V8.89444H3.74858V8.0655H4.99858ZM3.6233 7.4405H4.37358V8.6905H3.6233V7.4405ZM4.37358 7.4405H5.12386V8.6905H4.37358V7.4405ZM3.73317 12.025C2.09245 12.025 0.853839 10.5367 1.15183 8.92323L2.38104 9.15026C2.22495 9.99539 2.87375 10.775 3.73317 10.775V12.025ZM12.2667 10.775C13.1262 10.775 13.775 9.99539 13.6189 9.15026L14.8481 8.92323C15.1461 10.5367 13.9075 12.025 12.2667 12.025V10.775Z" fill="#1C1C1C"/>
</svg>
