<svg width="16" height="16" viewBox="0 0 16 16" fill="none" xmlns="http://www.w3.org/2000/svg">
<path d="M10.267 11.3334V11.9584C10.048 11.9584 9.84502 11.8438 9.73189 11.6563L10.267 11.3334ZM9.13352 9.45484V8.82984C9.3525 8.82984 9.55551 8.94445 9.66865 9.13194L9.13352 9.45484ZM6.86652 9.45484L6.33139 9.13194C6.44452 8.94445 6.64754 8.82984 6.86652 8.82984V9.45484ZM5.73302 11.3334L6.26815 11.6563C6.15501 11.8438 5.952 11.9584 5.73302 11.9584V11.3334ZM2.33252 5.91904H2.95752C2.95752 5.95712 2.95404 5.99511 2.94712 6.03255L2.33252 5.91904ZM13.6675 5.91904L13.0529 6.03255C13.046 5.99511 13.0425 5.95712 13.0425 5.91904H13.6675ZM14.231 8.97011L13.6164 9.08363L14.231 8.97011ZM12.2643 11.9584H10.267V10.7084H12.2643V11.9584ZM9.73189 11.6563L8.59839 9.77773L9.66865 9.13194L10.8021 11.0105L9.73189 11.6563ZM9.13352 10.0798H6.86652V8.82984H9.13352V10.0798ZM7.40165 9.77773L6.26815 11.6563L5.19789 11.0105L6.33139 9.13194L7.40165 9.77773ZM5.73302 11.9584H3.73574V10.7084H5.73302V11.9584ZM1.1544 8.8566L1.71791 5.80552L2.94712 6.03255L2.38361 9.08363L1.1544 8.8566ZM1.70752 5.91904C1.70752 5.44014 1.87914 4.96984 2.20113 4.61409L3.1279 5.4529C3.02474 5.56687 2.95752 5.73366 2.95752 5.91904H1.70752ZM2.20113 4.61409C2.525 4.25627 2.97839 4.04169 3.46602 4.04169V5.29169C3.35241 5.29169 3.22918 5.341 3.1279 5.4529L2.20113 4.61409ZM3.46602 4.04169H12.534V5.29169H3.46602V4.04169ZM12.534 4.04169C13.0217 4.04169 13.475 4.25627 13.7989 4.61409L12.8721 5.4529C12.7709 5.341 12.6476 5.29169 12.534 5.29169V4.04169ZM13.7989 4.61409C14.1209 4.96984 14.2925 5.44013 14.2925 5.91904H13.0425C13.0425 5.73366 12.9753 5.56687 12.8721 5.4529L13.7989 4.61409ZM14.2821 5.80552L14.8456 8.8566L13.6164 9.08363L13.0529 6.03255L14.2821 5.80552ZM3.73574 11.9584C2.09502 11.9584 0.856402 10.47 1.1544 8.8566L2.38361 9.08363C2.22751 9.92876 2.87631 10.7084 3.73574 10.7084V11.9584ZM12.2643 10.7084C13.1237 10.7084 13.7725 9.92876 13.6164 9.08363L14.8456 8.8566C15.1436 10.47 13.905 11.9584 12.2643 11.9584V10.7084Z" fill="#1C1C1C"/>
<path d="M11.75 8.0001C11.75 8.32521 11.5249 8.47995 11.375 8.47995V9.72995C12.3296 9.72995 13 8.89538 13 8.0001H11.75ZM11.375 8.47995C11.2251 8.47995 11 8.32521 11 8.0001H9.75C9.75 8.89538 10.4204 9.72995 11.375 9.72995V8.47995ZM11 8.0001C11 7.67499 11.2251 7.52025 11.375 7.52025V6.27025C10.4204 6.27025 9.75 7.10482 9.75 8.0001H11ZM11.375 7.52025C11.5249 7.52025 11.75 7.67499 11.75 8.0001H13C13 7.10482 12.3296 6.27025 11.375 6.27025V7.52025Z" fill="#1C1C1C"/>
<path d="M5 7.17146C5 6.82629 4.72018 6.54646 4.375 6.54646C4.02982 6.54646 3.75 6.82629 3.75 7.17146L5 7.17146ZM3.75 8.82874C3.75 9.17392 4.02982 9.45374 4.375 9.45374C4.72018 9.45374 5 9.17392 5 8.82874L3.75 8.82874ZM3.625 7.3751C3.27982 7.3751 3 7.65492 3 8.0001C3 8.34528 3.27982 8.6251 3.625 8.6251V7.3751ZM5.125 8.6251C5.47018 8.6251 5.75 8.34528 5.75 8.0001C5.75 7.65492 5.47018 7.3751 5.125 7.3751V8.6251ZM3.75 7.17146L3.75 8.82874L5 8.82874V7.17146L3.75 7.17146ZM3.625 8.6251H5.125V7.3751H3.625V8.6251Z" fill="#1C1C1C"/>
</svg>
