<svg width="259" height="238" viewBox="0 0 259 238" fill="none" xmlns="http://www.w3.org/2000/svg">
<g clip-path="url(#clip0)">
<path fill-rule="evenodd" clip-rule="evenodd" d="M176.656 132.204C179.634 134.466 182.488 136.681 185.396 138.827C193.318 144.52 200.839 150.752 207.906 157.478C208.24 157.844 208.672 158.106 209.151 158.232C209.63 158.358 210.136 158.343 210.606 158.188C212.003 157.802 213.376 157.331 214.756 156.876C216.299 156.382 217.765 155.81 219.292 155.332C220.226 155.011 221.241 155.02 222.169 155.357C223.097 155.694 223.881 156.339 224.392 157.184C225.796 159.276 226.706 161.554 226.112 164.132C225.958 165.178 225.553 166.171 224.932 167.027C223.557 168.736 221.955 170.251 220.172 171.527C215.914 174.268 211.47 176.73 207.058 179.247C205.586 180.183 203.906 180.74 202.167 180.868C200.166 180.948 198.199 180.329 196.605 179.116C194.8 177.811 193.087 176.36 191.267 175.078C187.353 172.33 183.411 169.621 179.441 166.95C175.877 164.564 172.228 162.318 168.641 159.909C165.409 157.74 162.253 155.448 159.037 153.248C158.728 153.039 158.265 153.109 157.818 153.047C157.864 153.448 157.818 153.935 157.98 154.236C161.724 159.897 165.491 165.558 169.281 171.219C172.297 175.727 175.321 180.227 178.399 184.689C179.711 186.58 181.215 188.34 182.565 190.201C184.663 193.088 185.103 196.222 183.39 199.402C181.3 203.262 178.978 207.006 176.864 210.858C175.547 213.458 173.788 215.809 171.665 217.806C170.804 218.576 169.794 219.162 168.698 219.526C167.602 219.889 166.443 220.024 165.292 219.92C164.142 219.817 163.025 219.477 162.012 218.924C160.998 218.37 160.109 217.614 159.399 216.702C159.032 216.242 158.784 215.698 158.679 215.118C158.574 214.539 158.615 213.942 158.797 213.382C159.415 211.314 160.117 209.268 160.849 207.207C162.307 203.154 162.392 202.899 159.399 199.827C151.87 192.107 145.606 183.361 139.172 174.762C138.216 173.488 137.159 172.284 136.179 171.026C135.817 170.562 135.508 170.555 135.022 170.863C133.919 171.574 132.801 172.261 131.643 172.878C128.481 174.561 125.472 174.229 122.803 171.852C116.315 166.016 109.75 160.272 103.425 154.259C99.9842 150.993 96.9525 147.311 93.7742 143.768C93.5653 143.49 93.2776 143.282 92.9488 143.171C92.6199 143.059 92.2651 143.049 91.9305 143.143C87.518 144.028 83.0978 144.887 78.6698 145.721C76.3015 146.169 73.9178 146.493 71.5496 146.972C71.0352 147.106 70.583 147.415 70.269 147.844C70.0286 148.235 69.706 148.568 69.3237 148.822C68.9413 149.075 68.5084 149.242 68.055 149.311C66.1342 149.588 64.1979 149.859 62.3079 150.33C58.7979 151.202 55.3188 152.19 51.8474 153.193C51.2486 153.401 50.7032 153.738 50.2506 154.182C47.2036 157.103 43.8035 159.631 40.1295 161.708C38.8104 162.418 37.4372 162.781 35.987 161.924C34.2976 160.928 33.5261 158.582 34.6138 156.961C35.5712 155.653 36.6013 154.4 37.6995 153.209C37.9155 152.954 38.1855 152.738 38.6561 152.298C36.9435 152.383 35.5087 152.568 34.0893 152.491C32.9355 152.473 31.7971 152.224 30.7413 151.758C29.1984 150.986 28.9439 149.558 29.8464 148.052C30.6749 146.63 31.9186 145.496 33.4104 144.802L34.9533 144.108C34.3946 144.08 33.8407 143.99 33.3024 143.837C32.2248 143.402 31.1915 142.865 30.2167 142.232C28.7279 141.167 28.4733 139.615 29.723 138.295C30.7207 137.152 31.9589 136.246 33.3487 135.639C35.6046 134.926 37.9061 134.366 40.2375 133.964C41.0089 133.802 41.7804 133.763 42.7138 133.64C42.3358 133.092 42.0349 132.706 41.7958 132.297C41.1941 131.255 40.5461 130.236 40.0524 129.147C39.4584 127.843 39.1652 126.484 40.3918 125.287C41.0143 124.784 41.763 124.462 42.5562 124.356C43.3493 124.25 44.1564 124.364 44.8892 124.685C47.1291 125.687 49.1401 127.137 50.7983 128.947C52.5031 130.707 51.9168 130.606 54.3005 129.649C56.1751 128.877 57.9725 127.966 59.7931 127.086C60.3839 126.735 61.0655 126.566 61.752 126.602C62.4385 126.637 63.099 126.876 63.6502 127.287C63.9196 127.511 64.2496 127.651 64.5983 127.688C64.9471 127.725 65.299 127.658 65.6096 127.495C69.4127 125.851 73.2313 124.23 77.0189 122.555C77.2504 122.454 77.3738 121.991 77.4432 121.675C77.4665 121.425 77.4183 121.173 77.3044 120.949C76.4249 118.849 77.2118 117.244 78.7778 115.847C80.0969 114.665 81.4006 113.477 82.8123 112.203C82.2569 111.431 81.6783 110.613 81.0458 109.818C77.5332 105.361 74.0155 100.912 70.4927 96.4706C67.2296 92.3561 65.7639 87.57 65.2007 82.4365C64.5242 76.5124 65.597 70.5197 68.2864 65.1989C69.8851 62.0833 72.1126 59.3338 74.8281 57.1243C82.3263 53.7663 87.6183 52.122 95.0085 53.6428C97.5002 54.1523 100.192 54.3375 102.592 55.1327C108.084 56.9545 111.849 60.6984 115.775 64.9596C118.398 67.839 120.944 70.5948 123.489 73.5437C122.988 73.0496 124.384 73.9219 124.608 74.1689C125.85 72.9261 127.732 70.9885 129.129 69.846C129.682 69.3132 130.391 68.9706 131.153 68.8678C131.914 68.7651 132.689 68.9077 133.364 69.2748C134.143 69.614 134.942 69.9078 135.755 70.1548C136.287 69.2902 136.827 68.4256 137.36 67.5611C139.211 64.535 141.055 61.509 142.914 58.4906C143.124 58.2092 143.245 57.8714 143.261 57.5206C143.278 57.1698 143.189 56.8221 143.006 56.5222C142.683 55.9059 142.546 55.208 142.615 54.5151C142.684 53.8222 142.954 53.1646 143.392 52.6238C144.711 50.6476 145.938 48.6174 147.249 46.6335C147.455 46.3682 147.554 46.0349 147.525 45.7001C147.497 45.3653 147.343 45.0536 147.095 44.8271C145.398 42.7583 143.824 40.5891 143.238 37.9259C143.009 36.9355 143.009 35.9057 143.238 34.9153C143.314 34.4608 143.502 34.0327 143.787 33.6703C144.071 33.3079 144.442 33.0229 144.865 32.8415C145.289 32.6601 145.751 32.5881 146.209 32.6321C146.667 32.6762 147.107 32.8348 147.488 33.0935C148.692 33.818 149.845 34.6253 150.937 35.5097C151.375 35.8739 151.795 36.2604 152.194 36.6676C152.796 34.6837 153.328 32.8079 153.93 30.9861C154.564 28.8282 155.772 26.8831 157.424 25.3585C157.821 25.0051 158.256 24.697 158.72 24.4399C159.028 24.2249 159.379 24.0801 159.749 24.0159C160.119 23.9516 160.498 23.9695 160.86 24.0682C161.222 24.1668 161.558 24.3439 161.844 24.5869C162.13 24.8299 162.36 25.1329 162.516 25.4743C163.432 26.8724 163.84 28.5429 163.673 30.2064C164.614 29.1565 165.501 28.1221 166.45 27.1186C166.843 26.7592 167.291 26.4647 167.777 26.2463C170.245 24.988 172.359 26.2463 172.29 29.0485C172.159 30.6378 171.919 32.2163 171.572 33.7728C171.503 34.2205 171.403 34.6605 171.256 35.3785C171.896 34.8535 172.297 34.4598 172.753 34.1665C173.879 33.4409 175.013 32.7075 176.185 32.0591C177.867 31.1327 179.325 31.8429 180.505 33.0086C181.049 33.5588 181.384 34.2819 181.452 35.053C181.519 35.8241 181.316 36.5945 180.876 37.2311C180.347 38.2372 179.688 39.169 178.916 40.0024C176.478 42.4572 173.917 44.7731 171.433 47.0889C170.93 47.519 170.516 48.0435 170.215 48.6328C168.325 53.0638 166.489 57.518 164.637 61.9721C164.46 62.32 164.336 62.6919 164.267 63.076C164.276 63.7767 164.046 64.4594 163.615 65.0121C163.185 65.5648 162.58 65.9547 161.899 66.1175C161.652 66.187 161.443 66.6193 161.335 66.9281C158.975 73.8756 156.622 80.7537 154.323 87.6858C154.277 87.9247 154.281 88.1708 154.337 88.4078C154.393 88.6447 154.499 88.867 154.647 89.0599C157.123 92.0319 159.831 94.8186 162.122 97.9219C166.303 103.557 170.261 109.37 174.295 115.113C175.699 117.113 177.072 119.143 178.446 121.173C179.346 122.403 179.836 123.886 179.845 125.41C179.855 126.934 179.384 128.423 178.5 129.664C177.975 130.46 177.389 131.231 176.656 132.204ZM65.1699 130.12C65.3625 133.635 66.0909 137.1 67.3299 140.395C67.9239 141.83 68.5101 143.274 69.2276 144.648C69.3886 144.831 69.5907 144.974 69.8173 145.063C70.0439 145.153 70.2886 145.188 70.5313 145.165C73.2313 144.769 75.9209 144.319 78.6004 143.814C86.6463 142.27 94.6845 140.765 102.514 138.264C103.93 137.82 105.376 137.485 106.842 137.26C107.107 137.256 107.37 137.307 107.614 137.409C107.858 137.511 108.079 137.663 108.262 137.855C110.182 139.893 111.98 142.039 113.916 144.03C117.11 147.35 120.373 150.607 123.636 153.865C124.747 154.977 125.009 155.038 126.305 154.174C128.959 152.414 131.651 150.677 134.158 148.716C140.665 143.62 146.848 138.124 152.672 132.258C155.696 129.217 158.72 126.175 160.788 122.323C161.065 121.921 161.198 121.437 161.166 120.949C161.134 120.462 160.938 119.999 160.61 119.637C158.412 116.765 156.29 113.832 154.061 110.991C151.677 107.957 149.186 105.008 146.771 101.99C146.652 101.823 146.568 101.634 146.523 101.434C146.478 101.233 146.473 101.026 146.509 100.824C146.742 99.862 147.051 98.9198 147.434 98.0068C149.44 93.2438 151.639 88.5504 153.459 83.718C155.604 78.0519 157.44 72.27 159.391 66.5266C159.931 64.9364 159.723 64.4192 158.304 63.5855C154.48 61.2423 150.316 59.5055 145.961 58.4366C145.85 58.3882 145.73 58.363 145.609 58.3626C145.488 58.3622 145.368 58.3867 145.257 58.4344C145.146 58.4821 145.045 58.5521 144.962 58.6401C144.879 58.7281 144.814 58.8323 144.773 58.9461C143.886 60.6058 142.976 62.25 141.988 63.848C137.884 70.479 133.842 77.1487 129.599 83.6948C126.421 88.6044 123.142 93.46 119.617 98.1148C115.359 103.742 109.72 107.942 104.088 112.095C100.416 114.939 96.3459 117.225 92.0077 118.88C89.1791 119.91 86.3763 120.99 83.5992 122.122C77.7364 124.546 71.9044 127.04 66.0647 129.518C65.7502 129.684 65.4574 129.889 65.193 130.128L65.1699 130.12ZM131.512 161.986L151.97 188.31C152.549 187.985 153.128 187.715 153.637 187.352C156.506 185.33 159.438 183.4 162.184 181.215C164.421 179.44 166.419 177.356 168.541 175.426C168.661 175.34 168.761 175.23 168.834 175.102C168.908 174.975 168.953 174.833 168.966 174.686C168.979 174.539 168.96 174.391 168.911 174.252C168.861 174.113 168.782 173.987 168.679 173.882C166.604 170.748 164.591 167.575 162.508 164.433C160.425 161.291 158.396 158.312 156.337 155.255C156.033 154.904 155.823 154.482 155.727 154.029C155.632 153.575 155.653 153.104 155.789 152.661C155.92 152.305 156.127 151.982 156.397 151.716C156.667 151.45 156.993 151.247 157.35 151.122C157.708 150.996 158.089 150.952 158.466 150.991C158.843 151.03 159.206 151.152 159.53 151.349C161.521 152.645 163.426 154.058 165.401 155.37C170.245 158.589 175.113 161.77 179.95 164.997C180.088 165.125 180.251 165.222 180.429 165.284C180.607 165.345 180.795 165.368 180.983 165.352C181.17 165.336 181.352 165.281 181.517 165.191C181.682 165.1 181.826 164.976 181.94 164.827C186.947 160.195 190.704 154.629 194.283 148.932C194.38 148.747 194.46 148.553 194.522 148.353L169.173 128.676C165.913 132.78 162.268 136.562 158.288 139.97C158.177 140.092 158.095 140.237 158.045 140.394C157.996 140.551 157.981 140.717 158.003 140.881C158.106 141.315 158.088 141.768 157.952 142.193C157.816 142.617 157.567 142.996 157.231 143.289C155.287 145.103 153.374 146.933 151.361 148.693C150.08 149.812 148.741 150.863 147.35 151.843C146.902 152.159 146.061 152.483 145.706 152.275C144.588 151.611 144.025 152.344 143.338 152.916C142.898 153.278 142.482 153.688 142.034 154.004L131.512 161.986ZM67.0213 79.0014C67.0213 84.3047 68.0242 89.3764 71.0018 93.8768C72.3673 95.9457 73.8638 97.9373 75.3912 99.8903C78.2455 103.511 81.1538 107.093 84.062 110.698C85.7206 112.728 87.4409 114.712 89.1226 116.727C89.3063 116.991 89.576 117.183 89.8855 117.27C90.195 117.357 90.5252 117.334 90.8197 117.205C92.1921 116.73 93.5388 116.184 94.8542 115.569C102.602 111.448 109.635 106.104 115.683 99.7437C120.604 94.6874 124.315 88.6893 128.025 82.7222C128.347 82.3496 128.515 81.8687 128.494 81.3769C128.474 80.8851 128.268 80.4194 127.917 80.0744C123.559 74.9872 119.347 69.7766 114.85 64.8129C110.512 59.8526 104.656 56.4679 98.1945 55.1867C96.4588 54.847 94.7077 54.5691 92.9565 54.2758C90.2179 53.7733 87.4061 53.828 84.6891 54.4368C81.972 55.0456 79.4054 56.1959 77.1424 57.819C73.6015 60.2893 71.2873 63.6473 69.5053 67.4453C67.7648 71.0428 66.9129 75.0059 67.0213 79.0014ZM59.6311 129.464L58.5742 129.919C57.0854 130.583 55.5734 131.201 54.1231 131.926C52.4337 132.768 51.1609 132.274 49.9806 130.961C48.518 129.172 46.6726 127.734 44.5806 126.754C44.0672 126.529 43.5134 126.411 42.9529 126.407C41.7341 126.407 41.2789 127.055 41.8344 128.136C42.7363 129.852 43.733 131.517 44.8198 133.123C45.7917 134.589 45.5912 135.284 43.8092 135.539C41.4255 135.894 39.0264 136.164 36.6581 136.581C34.7834 136.872 33.045 137.738 31.6824 139.059C30.7721 139.962 30.7799 140.441 31.8753 141.035C32.7908 141.541 33.7884 141.881 34.8221 142.039C36.2682 142.175 37.721 142.224 39.1729 142.185C39.8287 142.185 40.5229 142.185 40.7158 142.957C40.9086 143.729 40.2221 144.046 39.6281 144.301C37.8692 145.073 36.0564 145.713 34.3824 146.616C33.3744 147.253 32.4648 148.033 31.6824 148.932C31.181 149.442 31.4047 150.052 32.0681 150.276C32.6638 150.49 33.2946 150.589 33.9273 150.569C36.4344 150.422 38.9415 150.206 41.4409 149.99C42.1044 149.936 42.7678 149.843 43.0841 150.592C43.4003 151.341 42.8372 151.688 42.3126 152.059C41.5274 152.606 40.7753 153.198 40.0601 153.834C38.8489 155.015 37.6764 156.25 36.5732 157.532C36.2755 157.967 36.1618 158.503 36.257 159.022C36.2819 159.299 36.3774 159.565 36.5344 159.795C36.6914 160.025 36.9047 160.21 37.1538 160.334C37.4029 160.458 37.6796 160.516 37.9575 160.503C38.2353 160.489 38.5051 160.404 38.7409 160.257C42.2741 158.667 45.1283 156.104 48.0597 153.649C48.9777 152.877 49.8494 151.85 50.9217 151.526C55.2263 150.237 59.6002 149.21 63.951 148.021C64.1748 147.96 64.383 147.875 64.7225 147.767C60.4179 142.409 59.4614 136.187 59.6311 129.464ZM163.048 60.1195C164.861 55.9741 166.519 52.0603 168.294 48.2005C168.774 47.2306 169.425 46.3548 170.215 45.6145C172.59 43.2987 175.082 41.0754 177.458 38.7519C178.133 38.0236 178.711 37.2116 179.178 36.3357C179.336 36.0981 179.43 35.8241 179.452 35.5397C179.473 35.2554 179.422 34.9703 179.302 34.7117C179.182 34.4531 178.997 34.2295 178.767 34.0624C178.536 33.8954 178.266 33.7903 177.983 33.7574C177.42 33.7035 176.857 33.8512 176.394 34.1742C174.38 35.7181 172.444 37.3701 170.438 38.9294C170.24 39.1015 170.01 39.2325 169.761 39.3147C169.512 39.3969 169.249 39.4286 168.988 39.408C168.301 39.1996 168.379 38.4971 168.541 37.8641C168.988 36.1118 169.443 34.3672 169.813 32.5994C170.091 31.4286 170.262 30.2349 170.323 29.033C170.323 27.7902 169.613 27.3656 168.602 28.0604C167.662 28.6859 166.838 29.4694 166.165 30.3762C165.038 31.9587 164.136 33.711 163.079 35.3244C162.84 35.6795 162.238 35.7953 161.798 36.0192C161.582 35.556 161.173 35.0851 161.181 34.6219C161.181 33.5644 161.459 32.5145 161.567 31.4569C161.721 29.9825 161.922 28.5004 161.181 27.08C160.533 25.8371 160.109 25.6905 158.998 26.5937C157.534 27.7976 156.46 29.4097 155.912 31.2254C155.187 33.5412 154.578 35.8571 153.868 38.1729C153.413 39.6628 152.626 39.794 151.484 38.7519C150.096 37.5013 148.669 36.2816 147.18 35.1546C146.771 34.8458 145.776 34.6297 145.637 34.8381C145.267 35.4092 145.037 36.06 144.966 36.7371C144.904 37.015 145.105 37.3469 145.19 37.6557C145.807 39.9716 147.226 41.8474 148.692 43.6769C149.648 44.8734 149.957 46.0931 149.016 47.4672C148.476 48.2391 148.028 49.1037 147.527 49.9143C147.126 50.5627 146.694 51.1957 146.239 51.8827C152.51 53.4498 158.774 54.7544 163.048 60.1195ZM187.024 169.505C188.474 170.578 189.986 171.682 191.49 172.801C193.805 174.538 196.119 176.352 198.479 178.004C199.346 178.61 200.363 178.964 201.419 179.026C202.474 179.089 203.526 178.858 204.458 178.359C210.301 175.455 215.92 172.119 221.267 168.378C224.708 166.062 225.302 161.677 222.81 158.342C222.5 157.816 222.021 157.41 221.45 157.191C220.88 156.973 220.253 156.954 219.67 157.138C219.03 157.339 218.39 157.555 217.765 157.794C215.119 158.79 212.55 160.041 209.665 160.288C209.23 160.351 208.787 160.314 208.369 160.18C207.95 160.047 207.568 159.819 207.251 159.516C205.546 157.91 203.81 156.343 202.082 154.761C201.673 154.39 201.249 154.035 201.041 153.857C198.726 156.621 196.613 159.354 194.306 161.932C191.999 164.51 189.446 166.996 187.024 169.505ZM157.023 194.331C157.278 194.624 157.548 194.948 157.795 195.257C159.515 197.141 161.227 199.04 162.971 200.9C163.318 201.206 163.578 201.599 163.721 202.039C163.865 202.479 163.888 202.949 163.789 203.401C163.38 205.084 163.017 206.775 162.493 208.427C161.968 210.078 161.274 211.676 160.687 213.313C160.209 214.648 160.795 215.683 161.806 216.486C162.541 217.09 163.394 217.536 164.31 217.794C165.226 218.052 166.186 218.117 167.128 217.985C168.071 217.852 168.976 217.526 169.786 217.026C170.596 216.527 171.293 215.864 171.835 215.081C172.861 213.645 173.825 212.147 174.72 210.619C177.034 206.62 179.425 202.614 181.662 198.553C182.293 197.488 182.581 196.256 182.489 195.021C182.396 193.787 181.927 192.611 181.146 191.652C179.487 189.398 177.759 187.19 176.07 184.959C175.182 183.786 174.311 182.597 173.4 181.37C168.618 186.557 162.917 190.486 157.023 194.331ZM134.428 169.173C134.379 169.008 134.314 168.847 134.235 168.694L125.171 157.293C125.087 157.177 124.986 157.075 124.87 156.991C124.01 156.547 123.198 156.014 122.448 155.401C117.526 150.404 112.641 145.371 107.791 140.302C106.68 139.144 106.541 139.044 104.952 139.53C102.638 140.217 100.246 140.85 97.9014 141.529C97.0296 141.784 96.1734 142.093 95.2862 142.386C95.3309 142.519 95.3904 142.645 95.4637 142.764C98.5494 146.122 101.38 149.712 104.667 152.8C111.154 158.937 117.881 164.827 124.508 170.809C125.176 171.435 126.01 171.855 126.91 172.018C127.811 172.181 128.739 172.08 129.584 171.728C131.252 170.982 132.871 170.129 134.428 169.173ZM153.081 90.3876C152.726 91.0747 152.418 91.6227 152.163 92.194C151.392 93.9154 150.682 95.6446 149.934 97.3661C149.494 98.2136 149.108 99.0876 148.777 99.983C148.713 100.245 148.705 100.518 148.752 100.784C148.8 101.05 148.903 101.303 149.054 101.527C153.174 106.931 157.378 112.195 161.467 117.583C162.26 118.817 162.961 120.107 163.565 121.443C163.695 121.648 163.862 121.826 164.059 121.968L174.681 130.46C174.838 130.571 175.003 130.672 175.175 130.761C177.774 128.051 179.032 125.141 176.239 121.358C172.652 116.48 169.25 111.454 165.91 106.398C162.161 100.709 157.602 95.7218 153.081 90.3876ZM140.53 146.184C142.15 147.666 143.701 149.056 145.205 150.492C145.304 150.616 145.428 150.718 145.569 150.791C145.711 150.863 145.866 150.904 146.024 150.912C146.183 150.919 146.341 150.892 146.489 150.833C146.636 150.774 146.769 150.684 146.879 150.569C148.036 149.635 149.24 148.755 150.35 147.767C152.31 146.03 154.207 144.223 156.144 142.448C156.28 142.36 156.396 142.244 156.486 142.109C156.577 141.974 156.638 141.822 156.668 141.663C156.697 141.503 156.694 141.339 156.659 141.181C156.623 141.023 156.555 140.873 156.46 140.742C155.102 138.997 153.667 137.314 152.279 135.608L140.53 146.184ZM168.17 127.742L162.539 123.226C160.132 127.796 156.506 131.162 153.135 134.636L157.116 139.113C161.199 135.733 164.906 131.92 168.17 127.742ZM170.33 176.375C165.362 181.995 159.291 185.947 153.166 189.985C153.737 190.672 154.223 191.274 154.709 191.86C155.866 193.18 156.329 193.281 157.741 192.3C160.009 190.757 162.369 189.213 164.467 187.468C167.098 185.33 169.582 182.998 172.097 180.721C172.328 180.513 172.544 179.949 172.436 179.772C171.819 178.629 171.079 177.549 170.323 176.367L170.33 176.375ZM143.608 150.901L139.512 147.041C135.408 150.206 131.543 153.718 126.737 156.173L129.615 159.74C130.54 160.89 130.563 160.921 131.782 160.018C134.801 157.784 137.807 155.53 140.8 153.255C141.741 152.514 142.636 151.719 143.6 150.916L143.608 150.901ZM196.281 149.565C192.2 155.795 188.25 161.832 182.704 166.749C183.236 167.112 183.66 167.413 184.1 167.691C185.643 168.679 185.712 168.733 187.07 167.436C188.806 165.769 190.488 164.039 192.138 162.287C194.753 159.5 197.492 156.806 199.282 153.363C199.436 153.062 199.521 152.46 199.351 152.29C198.395 151.372 197.353 150.53 196.273 149.581L196.281 149.565ZM161.706 64.1259C162.385 63.3539 162.809 61.5321 162.377 61.1693C159.947 59.085 157.81 56.5376 154.539 55.6807C153.768 55.4646 152.996 55.1404 152.225 54.9088C150.181 54.3607 148.129 53.7972 146.054 53.3649C145.829 53.3616 145.607 53.4108 145.404 53.5086C145.202 53.6065 145.026 53.7502 144.889 53.9284C144.117 55.0091 144.642 56.0358 145.899 56.445C148.784 57.3945 151.708 58.2591 154.501 59.4401C157.147 60.5672 159.808 61.756 161.706 64.1259ZM68.4947 147.056C67.8677 146.309 67.3269 145.493 66.8824 144.625C65.8719 141.908 64.869 139.175 64.1362 136.38C63.6807 134.306 63.3612 132.205 63.1796 130.089C63.0716 129.224 62.5548 128.73 61.8142 128.784C61.5211 128.784 61.2742 129.603 61.0428 130.05C61.0195 130.155 61.0195 130.263 61.0428 130.367C60.9271 136.187 61.8142 141.722 65.4785 146.516C66.2499 147.605 67.1139 147.813 68.4947 147.056ZM126.351 74.8483L130.062 79.48L134.837 71.8454C133.888 71.498 133.14 71.1892 132.369 70.9576C131.989 70.7933 131.564 70.7633 131.165 70.8727C129.322 71.9042 127.68 73.2616 126.321 74.8791L126.351 74.8483ZM84.0697 113.816C82.6503 115.105 81.3235 116.225 80.1123 117.444C78.6852 118.88 78.6389 119.691 79.6881 121.667L87.8034 118.054L84.0697 113.816Z" fill="#1C1C1C"/>
<path fill-rule="evenodd" clip-rule="evenodd" d="M74.311 237.761C68.4173 237.83 63.5573 236.881 59.3222 233.693C59.1285 233.615 58.92 233.582 58.7118 233.595C58.5036 233.609 58.3011 233.668 58.1188 233.77C55.1334 235.414 52.1326 237.051 48.7306 237.629C47.3076 237.904 45.8594 238.026 44.4106 237.992C42.6132 237.923 41.7878 236.649 42.6055 235.051C43.7446 232.817 45.052 230.672 46.5166 228.636C47.6969 227.007 49.232 225.649 50.5666 224.128C50.6851 223.975 50.7674 223.796 50.8075 223.606C50.8476 223.417 50.8443 223.22 50.798 223.032C46.7403 213.074 49.9494 204.544 56.1054 196.708C60.515 191.089 66.7707 187.214 73.7632 185.77C80.6212 184.226 86.7386 186.179 92.2002 190.402C92.9632 190.981 93.6778 191.621 94.3371 192.316C94.8694 192.887 95.2397 192.787 95.8799 192.455C98.9656 190.842 102.051 189.244 105.137 187.823C106.285 187.345 107.512 187.084 108.755 187.051C111.671 186.897 113.384 189.452 111.794 191.891C110.037 194.504 108.114 197.003 106.04 199.372C104.677 200.913 103.235 202.382 101.72 203.772C101.499 203.958 101.331 204.198 101.231 204.468C101.13 204.739 101.102 205.031 101.149 205.316C102.105 212.059 100.725 218.927 97.2376 224.777C92.9331 232.01 86.214 235.792 78.0986 237.29C76.6252 237.606 75.0901 237.66 74.311 237.761ZM78.1681 186.704C77.6358 186.704 77.1035 186.704 76.5712 186.704C76.2449 186.715 75.92 186.751 75.5992 186.812C65.9719 188.58 58.7976 193.844 53.9145 202.251C51.8673 205.558 50.6473 209.31 50.3583 213.19C49.988 220.585 53.1663 226.421 58.5431 231.215C58.7232 231.307 58.9229 231.356 59.1255 231.356C59.3281 231.356 59.5278 231.307 59.7079 231.215C67.669 226.305 75.7304 221.542 83.514 216.355C88.6903 212.904 93.45 208.82 98.4256 205.069C98.8514 204.796 99.1641 204.379 99.3059 203.893C99.4477 203.408 99.4091 202.888 99.1971 202.429C98.1003 198.961 96.1101 195.843 93.4268 193.389C89.1994 189.205 84.2006 186.75 78.1758 186.681L78.1681 186.704ZM99.7679 205.655C87.5949 216.2 74.0564 224.475 60.1708 232.427C65.1773 237.058 77.2038 237.876 85.944 233.384C96.3196 228.08 101.249 216.802 99.791 205.632L99.7679 205.655ZM100.771 203.038C102.915 200.723 104.944 198.708 106.803 196.531C108.217 194.89 109.506 193.145 110.66 191.312C111.625 189.769 110.66 188.364 108.863 188.433C108.012 188.431 107.168 188.582 106.371 188.881C103.71 190.031 101.087 191.266 98.4796 192.524C97.6388 192.934 96.8674 193.489 95.9725 194.068C98.3099 196.598 99.9686 199.678 100.794 203.023L100.771 203.038ZM51.3997 225.047C49.6409 227.131 47.7432 229.223 45.9997 231.462C45.16 232.673 44.4441 233.966 43.8629 235.321C43.4155 236.255 43.6546 236.58 44.7038 236.703C44.9142 236.721 45.1258 236.721 45.3363 236.703C49.8414 236.448 53.822 234.65 57.4708 232.411L51.3997 225.047Z" fill="#1C1C1C"/>
<path fill-rule="evenodd" clip-rule="evenodd" d="M140.523 215.212C140.336 215.322 140.14 215.415 139.936 215.49C136.272 216.578 134.706 219.35 134.019 222.839C133.742 224.228 133.587 225.641 133.248 227.023C133.155 227.432 132.739 227.795 132.477 228.142C132.176 227.81 131.705 227.525 131.589 227.131C131.042 225.672 130.656 224.151 130.085 222.7C129.318 220.657 127.935 218.904 126.128 217.682C125.161 217.182 124.161 216.748 123.135 216.385C122.78 216.216 122.541 215.814 122.248 215.513C122.533 215.251 122.78 214.857 123.119 214.741C124.439 214.353 125.623 213.603 126.538 212.575C127.453 211.548 128.062 210.284 128.296 208.928C128.674 206.983 128.874 204.999 129.237 203.046C129.314 202.606 129.746 202.236 130.008 201.834C130.345 202.173 130.635 202.554 130.872 202.969C131.867 205.393 132.731 207.871 133.788 210.264C134.123 210.936 134.6 211.528 135.184 211.999C135.768 212.471 136.447 212.811 137.175 212.997C138.046 213.282 138.957 213.475 139.828 213.769C140.584 213.985 140.908 214.656 140.523 215.212ZM132.245 224.244C133.017 220.384 134.012 216.741 137.969 214.726C133.086 213.73 131.883 209.685 130.317 205.864C129.885 209.801 128.882 213.344 125.048 215.42C128.828 217.312 130.972 220.423 132.245 224.244Z" fill="#1C1C1C"/>
<path fill-rule="evenodd" clip-rule="evenodd" d="M206.741 94.4095C206.41 94.6365 206.056 94.8279 205.684 94.9808C201.874 95.8531 200.099 98.5704 199.212 102.098C198.873 103.441 198.61 104.8 198.217 106.12C198.101 106.514 197.646 106.807 197.345 107.147C197.083 106.815 196.69 106.521 196.574 106.143C196.219 104.954 195.949 103.742 195.671 102.538C195.169 100.58 194.203 98.7719 192.856 97.2658C191.825 96.1171 190.486 95.2891 188.999 94.8804C188.613 94.7492 188.335 94.286 188.003 93.9695C188.358 93.6916 188.667 93.2825 189.068 93.1976C190.35 92.8789 191.523 92.2226 192.466 91.2968C193.409 90.371 194.087 89.2095 194.429 87.9329C194.938 86.0956 195.278 84.2044 195.694 82.3362C195.741 82.1278 195.694 81.8731 195.833 81.7187C196.1 81.3976 196.386 81.0934 196.69 80.8078C196.973 81.0726 197.211 81.3831 197.392 81.7264C198.163 84.0422 198.788 86.3581 199.513 88.6276C199.807 89.5647 200.325 90.4155 201.023 91.1058C201.721 91.7962 202.577 92.3049 203.517 92.5877C204.232 92.8002 204.933 93.058 205.615 93.3597C205.97 93.4755 206.278 93.9232 206.741 94.4095ZM190.688 94.0081C192.517 94.855 194.037 96.2497 195.039 97.9991C195.964 99.6356 196.69 101.388 197.484 103.055C198.124 101.411 198.772 99.6356 199.505 97.8988C200.238 96.1619 201.943 95.0811 203.956 94.039C198.904 92.7807 197.986 88.6817 196.659 84.7756C195.941 88.6662 194.738 92.1477 190.688 94.0081Z" fill="#1C1C1C"/>
<path fill-rule="evenodd" clip-rule="evenodd" d="M85.628 165.676C82.7043 165.622 80.9995 163.777 81.0535 160.743C81.1152 158.157 82.9666 156.227 85.3426 156.297C85.9818 156.294 86.6152 156.417 87.2066 156.66C87.798 156.902 88.3356 157.26 88.7886 157.711C89.2417 158.162 89.6012 158.698 89.8464 159.289C90.0917 159.879 90.218 160.513 90.218 161.152C90.164 164.086 88.49 165.73 85.628 165.676ZM85.628 164.341C87.7186 164.387 88.8217 163.322 88.8989 161.183C88.901 160.713 88.8091 160.247 88.6284 159.813C88.4478 159.379 88.182 158.986 87.847 158.656C87.5119 158.327 87.1143 158.068 86.6775 157.895C86.2407 157.721 85.7737 157.637 85.304 157.648C83.8075 157.648 82.4266 159.13 82.4035 160.836C82.3649 163.013 83.5452 164.302 85.628 164.341Z" fill="#1C1C1C"/>
<path fill-rule="evenodd" clip-rule="evenodd" d="M31.3506 187.491C31.2041 185.87 31.0421 184.404 30.9572 182.914C31.0152 182.541 31.1407 182.183 31.3275 181.856C31.6438 182.157 32.1915 182.427 32.2455 182.767C32.4769 184.265 32.5618 185.785 32.7238 187.476C34.2203 187.345 35.6783 187.19 37.144 187.121C37.5066 187.121 37.9155 187.399 38.2472 187.545C37.9232 187.846 37.63 188.317 37.2597 188.41C35.8326 188.634 34.3746 188.711 32.7624 188.858C32.8086 189.753 32.8472 190.656 32.8935 191.559C32.8935 191.945 32.9629 192.331 32.9629 192.725C32.9629 193.265 33.1789 194.022 32.3689 194.022C32.1221 194.022 31.7364 193.25 31.6438 192.756C31.5368 191.95 31.4801 191.138 31.4741 190.324C31.4741 189.908 31.3969 189.483 31.3429 188.904L27.9641 189.089C27.6467 189.153 27.3213 189.166 26.9998 189.128C26.6438 188.986 26.3048 188.805 25.9893 188.587C26.3055 188.325 26.591 187.893 26.9381 187.816C27.9101 187.661 28.9129 187.669 29.9004 187.599C30.3401 187.584 30.7567 187.584 31.3506 187.491Z" fill="#1C1C1C"/>
<path fill-rule="evenodd" clip-rule="evenodd" d="M77.5356 23.9305C79.0785 23.7915 80.5442 23.6217 81.9867 23.5599C82.3339 23.5599 82.7041 23.861 83.059 24.0231C82.7581 24.3087 82.4804 24.795 82.1487 24.8491C80.683 25.0652 79.2019 25.1579 77.5742 25.3045L77.7516 28.7706C77.8005 29.0852 77.8005 29.4055 77.7516 29.7201C77.6154 30.0016 77.4386 30.2617 77.227 30.492C76.9725 30.2527 76.5328 30.0366 76.4942 29.7664C76.3476 28.7551 76.3322 27.7207 76.2628 26.6786C76.2628 26.2617 76.1933 25.8372 76.147 25.2891L72.6448 25.4744C72.3306 25.5261 72.0101 25.5261 71.6959 25.4744C71.3799 25.3261 71.0864 25.1338 70.8242 24.9031C71.0788 24.6561 71.3102 24.247 71.5956 24.2006C72.6062 24.054 73.6399 24.0462 74.6813 23.9768C75.1288 23.9768 75.5762 23.8996 76.1702 23.8455C76.039 22.3016 75.8848 20.8812 75.823 19.4454C75.823 19.0363 76.0005 18.2952 76.2088 18.2566C76.9802 18.1099 77.0882 18.7738 77.1499 19.3528C77.2656 20.8426 77.389 22.2939 77.5356 23.9305Z" fill="#1C1C1C"/>
<path fill-rule="evenodd" clip-rule="evenodd" d="M215.551 41.1604C217.094 41.1604 218.521 41.1604 219.963 41.1604C220.318 41.1604 220.665 41.5077 221.013 41.693C220.689 41.9555 220.38 42.4264 220.048 42.465C218.567 42.5499 217.086 42.465 215.312 42.465C215.312 43.6074 215.312 44.6805 215.312 45.7612C215.351 46.0777 215.338 46.3984 215.273 46.7107C215.107 47.0517 214.902 47.3728 214.664 47.6679C214.425 47.336 214.024 47.0272 213.985 46.6721C213.935 45.8597 213.935 45.0451 213.985 44.2327C213.985 43.6692 213.985 43.1134 213.985 42.2874C212.604 42.2874 211.316 42.2874 210.02 42.2874C209.48 42.2874 208.708 42.4186 208.778 41.5927C208.778 41.3456 209.619 41.0137 210.097 40.9828C211.125 40.9286 212.156 40.944 213.183 41.0291C213.862 41.0677 214.155 40.8516 214.131 40.1414C214.131 38.9063 214.077 37.6634 214.131 36.4206C214.131 36.0655 214.486 35.7335 214.679 35.3862C214.934 35.7181 215.389 36.0269 215.451 36.3743C215.536 37.7483 215.451 39.1379 215.451 40.5196C215.474 40.6972 215.505 40.8361 215.551 41.1604Z" fill="#1C1C1C"/>
<path fill-rule="evenodd" clip-rule="evenodd" d="M211.725 216.918C213.268 216.918 214.733 216.918 216.176 216.918C216.563 217.015 216.929 217.182 217.256 217.412C216.909 217.69 216.577 218.184 216.222 218.184C214.749 218.277 213.268 218.184 211.54 218.184C211.54 219.55 211.54 220.816 211.54 222.044C211.54 222.576 211.686 223.356 210.853 223.279C210.599 223.279 210.275 222.437 210.236 221.959C210.151 220.731 210.236 219.489 210.236 217.96C208.902 217.96 207.575 217.96 206.256 217.96C205.975 217.99 205.692 217.95 205.43 217.844C205.237 217.729 204.99 217.296 205.052 217.211C205.23 216.935 205.505 216.736 205.824 216.656C206.991 216.608 208.16 216.623 209.326 216.702C210.167 216.764 210.468 216.47 210.429 215.637C210.375 214.471 210.367 213.321 210.429 212.132C210.429 211.769 210.761 211.422 210.946 211.067C211.216 211.422 211.717 211.754 211.717 212.124C211.771 213.691 211.725 215.181 211.725 216.918Z" fill="#1C1C1C"/>
<path fill-rule="evenodd" clip-rule="evenodd" d="M247.041 140.449C248.182 140.449 249.239 140.449 250.296 140.449C250.573 140.522 250.834 140.645 251.067 140.811C250.813 141.012 250.574 141.375 250.296 141.39C249.216 141.46 248.136 141.39 246.871 141.39C246.871 142.386 246.871 143.313 246.871 144.239C246.871 144.633 246.979 145.204 246.369 145.142C246.184 145.142 245.945 144.525 245.922 144.177C245.86 143.282 245.922 142.371 245.922 141.251H242.998C242.794 141.273 242.587 141.244 242.397 141.167C242.25 141.082 242.073 140.765 242.119 140.703C242.25 140.499 242.454 140.353 242.69 140.294C243.543 140.248 244.398 140.248 245.251 140.294C245.868 140.341 246.084 140.124 246.022 139.522C246.022 138.665 245.976 137.809 246.022 136.959C246.022 136.697 246.269 136.442 246.4 136.187C246.593 136.442 246.948 136.689 246.963 136.959C247.079 138.11 247.041 139.198 247.041 140.449Z" fill="#1C1C1C"/>
<path fill-rule="evenodd" clip-rule="evenodd" d="M182.719 3.7208C183.737 3.7208 184.671 3.7208 185.612 3.7208C185.864 3.78494 186.102 3.89483 186.314 4.04502C186.09 4.22257 185.874 4.54679 185.643 4.56223C184.686 4.62399 183.722 4.56223 182.603 4.56223C182.603 5.44997 182.603 6.26824 182.603 7.09423C182.603 7.4416 182.696 7.95109 182.156 7.86618C181.994 7.86618 181.778 7.31809 181.755 7.00931C181.701 6.23736 181.755 5.40366 181.755 4.41556H179.163C178.982 4.43353 178.799 4.40703 178.631 4.33836C178.507 4.26117 178.345 3.98327 178.384 3.92923C178.501 3.74732 178.683 3.61739 178.893 3.56641C179.651 3.52513 180.411 3.52513 181.169 3.56641C181.716 3.60501 181.94 3.41202 181.886 2.87166C181.886 2.09971 181.847 1.32776 181.886 0.555809C181.952 0.305429 182.064 0.0697317 182.218 -0.138947C182.395 0.0926386 182.704 0.308785 182.719 0.548089C182.75 1.64426 182.719 2.61692 182.719 3.7208Z" fill="#1C1C1C"/>
<path fill-rule="evenodd" clip-rule="evenodd" d="M254.392 25.1656C255.534 25.1656 256.591 25.1656 257.648 25.1656C257.924 25.239 258.186 25.3619 258.419 25.5284C258.164 25.7291 257.925 26.0919 257.648 26.1074C256.568 26.1768 255.488 26.1074 254.222 26.1074C254.222 27.1032 254.222 28.0295 254.222 28.9559C254.222 29.3496 254.33 29.9208 253.721 29.859C253.536 29.859 253.297 29.2415 253.274 28.8941C253.212 27.9986 253.274 27.0877 253.274 25.9684H250.358C250.153 25.9898 249.947 25.9606 249.756 25.8835C249.609 25.7986 249.432 25.4821 249.478 25.4203C249.609 25.2159 249.813 25.0695 250.049 25.0112C250.902 24.9648 251.757 24.9648 252.61 25.0112C253.227 25.0575 253.443 24.8414 253.382 24.2392C253.382 23.3824 253.335 22.5255 253.382 21.6764C253.382 21.4139 253.628 21.1592 253.76 20.9044C253.952 21.1592 254.307 21.4062 254.323 21.6764C254.431 22.8343 254.392 23.9305 254.392 25.1656Z" fill="#1C1C1C"/>
<path fill-rule="evenodd" clip-rule="evenodd" d="M29.6769 68.2018C30.8186 68.2018 31.8755 68.2018 32.9323 68.2018C33.2092 68.2754 33.4705 68.3983 33.7037 68.5646C33.4492 68.7653 33.21 69.1281 32.9323 69.1436C31.8523 69.2131 30.7723 69.1436 29.5072 69.1436C29.5072 70.1394 29.5072 71.0657 29.5072 71.9921C29.5072 72.3858 29.6152 72.957 29.0058 72.8953C28.8206 72.8953 28.5815 72.2777 28.5584 71.9303C28.4966 71.0349 28.5584 70.124 28.5584 69.0046H25.6501C25.4456 69.026 25.239 68.9968 25.0484 68.9197C24.9018 68.8348 24.7244 68.5183 24.7707 68.4566C24.9017 68.2521 25.106 68.1057 25.3415 68.0474C26.1946 68.0011 27.0496 68.0011 27.9027 68.0474C28.5198 68.0937 28.7358 67.8776 28.6741 67.2755C28.6741 66.4186 28.6278 65.5617 28.6741 64.7126C28.6741 64.4501 28.9209 64.1954 29.0521 63.9406C29.2449 64.1954 29.5998 64.4424 29.6152 64.7126C29.7155 65.8705 29.6769 66.959 29.6769 68.2018Z" fill="#1C1C1C"/>
<path fill-rule="evenodd" clip-rule="evenodd" d="M3.08579 132.227C3.7955 132.227 4.45121 132.227 5.09921 132.227C5.27614 132.271 5.44351 132.347 5.59292 132.451C5.43863 132.575 5.28435 132.799 5.12235 132.806C4.45121 132.845 3.78008 132.806 3.00094 132.806C3.00094 133.424 3.00094 133.995 3.00094 134.574C3.00094 134.813 3.07037 135.169 2.69237 135.138C2.57666 135.138 2.43009 134.752 2.41466 134.543C2.37609 133.987 2.41466 133.424 2.41466 132.729H0.547814C0.421825 132.742 0.294656 132.723 0.177531 132.675C0.0849606 132.621 -0.0230386 132.428 0.00781829 132.39C0.0889047 132.262 0.216018 132.171 0.362673 132.135C0.891989 132.106 1.42249 132.106 1.9518 132.135C2.33751 132.135 2.46866 132.027 2.45323 131.648C2.45323 131.116 2.45323 130.591 2.45323 130.058C2.45323 129.896 2.60751 129.734 2.68466 129.572C2.80808 129.734 3.02408 129.888 3.0318 130.051C3.08579 130.784 3.08579 131.455 3.08579 132.227Z" fill="#1C1C1C"/>
<path fill-rule="evenodd" clip-rule="evenodd" d="M14.2172 34.2129C14.927 34.2129 15.5827 34.2129 16.2307 34.2129C16.4076 34.2565 16.575 34.3323 16.7244 34.4367C16.5701 34.5602 16.4158 34.7841 16.2538 34.7918C15.5827 34.8304 14.9115 34.7918 14.1324 34.7918C14.1324 35.4094 14.1324 35.9806 14.1324 36.5596C14.1324 36.7989 14.2018 37.154 13.8238 37.1231C13.7081 37.1231 13.5615 36.7371 13.5461 36.5287C13.5075 35.9729 13.5461 35.4094 13.5461 34.7146H11.7255C11.5996 34.7273 11.4724 34.7087 11.3553 34.6606C11.2627 34.6066 11.1547 34.4136 11.1856 34.375C11.2666 34.2475 11.3938 34.1562 11.5404 34.1202C12.0697 34.0913 12.6002 34.0913 13.1295 34.1202C13.5152 34.1202 13.6464 34.0121 13.631 33.6339C13.631 33.1012 13.631 32.5763 13.631 32.0437C13.631 31.8816 13.7852 31.7195 13.8624 31.5573C13.9858 31.7195 14.2018 31.8738 14.2095 32.036C14.2404 32.7693 14.2172 33.4409 14.2172 34.2129Z" fill="#1C1C1C"/>
<path fill-rule="evenodd" clip-rule="evenodd" d="M116.979 27.6899C116.955 27.2796 117.017 26.8689 117.16 26.4837C117.303 26.0985 117.525 25.7472 117.81 25.452C118.096 25.1567 118.44 24.9239 118.82 24.7683C119.2 24.6128 119.608 24.5377 120.018 24.548C120.842 24.5676 121.629 24.8956 122.223 25.4673C122.817 26.0389 123.176 26.8127 123.228 27.6358C123.188 28.4843 122.833 29.2872 122.232 29.8871C121.631 30.487 120.828 30.8404 119.98 30.878C119.571 30.8733 119.168 30.7862 118.794 30.622C118.42 30.4577 118.083 30.2197 117.802 29.9221C117.522 29.6245 117.305 29.2734 117.164 28.8899C117.022 28.5064 116.959 28.0982 116.979 27.6899ZM119.964 25.7368C118.838 25.7368 118.152 26.5088 118.159 27.7902C118.159 28.0402 118.209 28.2878 118.304 28.5187C118.4 28.7496 118.541 28.9593 118.718 29.1357C118.895 29.3122 119.105 29.4519 119.336 29.5469C119.567 29.6419 119.815 29.6902 120.065 29.6892C120.578 29.6315 121.056 29.3964 121.415 29.0244C121.774 28.6525 121.992 28.1669 122.032 27.6513C121.979 27.1349 121.74 26.6555 121.36 26.303C120.979 25.9505 120.483 25.7492 119.964 25.7368Z" fill="#1C1C1C"/>
<path fill-rule="evenodd" clip-rule="evenodd" d="M33.7501 102.492C33.7304 102.13 33.7832 101.767 33.9054 101.425C34.0277 101.084 34.2168 100.77 34.4619 100.502C34.7069 100.235 35.0028 100.019 35.3323 99.8676C35.6618 99.7161 36.0182 99.632 36.3807 99.6202C36.7525 99.6129 37.122 99.6805 37.4672 99.8188C37.8125 99.9572 38.1264 100.163 38.3905 100.426C38.6545 100.688 38.8633 101 39.0044 101.344C39.1455 101.689 39.216 102.058 39.2118 102.43C39.2212 102.822 39.1514 103.212 39.0066 103.577C38.8618 103.942 38.6451 104.273 38.3692 104.552C38.0934 104.831 37.7642 105.052 37.4013 105.2C37.0384 105.349 36.6493 105.423 36.2572 105.418C34.7607 105.379 33.7347 104.213 33.7501 102.492ZM36.4115 104.036C36.615 104.022 36.8138 103.968 36.9963 103.877C37.1788 103.786 37.3415 103.66 37.4749 103.505C37.6084 103.351 37.7099 103.172 37.7737 102.978C37.8374 102.784 37.8621 102.58 37.8464 102.376C37.7847 101.604 37.4607 101.071 36.6044 101.079C35.5784 101.079 35.0615 101.612 35.0615 102.577C35.0615 103.542 35.617 104.082 36.4115 104.051V104.036Z" fill="#1C1C1C"/>
<path fill-rule="evenodd" clip-rule="evenodd" d="M12.4586 220.075C12.4389 219.713 12.4917 219.35 12.6139 219.009C12.7362 218.667 12.9253 218.353 13.1704 218.086C13.4154 217.818 13.7113 217.603 14.0408 217.451C14.3703 217.3 14.7267 217.215 15.0892 217.204C15.4603 217.196 15.8292 217.264 16.1739 217.402C16.5187 217.539 16.8323 217.745 17.0962 218.006C17.3601 218.268 17.5691 218.579 17.7106 218.923C17.8522 219.266 17.9235 219.634 17.9203 220.006C17.9285 220.395 17.8589 220.782 17.7156 221.143C17.5722 221.505 17.3581 221.834 17.0857 222.112C16.8132 222.39 16.4881 222.61 16.1293 222.76C15.7706 222.91 15.3854 222.987 14.9966 222.986C13.4692 222.962 12.4432 221.781 12.4586 220.075ZM15.12 221.619C15.5225 221.591 15.8981 221.407 16.1663 221.105C16.4345 220.804 16.574 220.409 16.5549 220.006C16.4932 219.234 16.1692 218.701 15.3129 218.709C14.2869 218.709 13.77 219.242 13.77 220.199C13.77 221.156 14.3255 221.658 15.12 221.635V221.619Z" fill="#1C1C1C"/>
<path fill-rule="evenodd" clip-rule="evenodd" d="M237.753 90.7968C237.737 90.5121 237.778 90.2273 237.875 89.9589C237.971 89.6905 238.119 89.4441 238.312 89.2341C238.505 89.0241 238.737 88.8547 238.996 88.736C239.255 88.6172 239.535 88.5515 239.82 88.5427C240.112 88.5375 240.402 88.591 240.673 88.6999C240.944 88.8088 241.19 88.971 241.397 89.1768C241.604 89.3827 241.768 89.628 241.879 89.8983C241.989 90.1686 242.045 90.4584 242.042 90.7505C242.042 91.3647 241.798 91.9537 241.364 92.388C240.93 92.8223 240.341 93.0663 239.727 93.0663C239.446 93.055 239.17 92.9864 238.916 92.8645C238.662 92.7427 238.436 92.5702 238.251 92.3577C238.066 92.1452 237.926 91.8971 237.841 91.6287C237.755 91.3603 237.725 91.0772 237.753 90.7968ZM239.843 92.0242C240.165 92.0005 240.465 91.8498 240.676 91.6051C240.887 91.3605 240.993 91.042 240.969 90.7196C240.923 90.1406 240.669 89.6929 239.997 89.7006C239.226 89.7006 238.794 90.1175 238.809 90.874C238.825 91.6305 239.218 92.0473 239.843 92.0242Z" fill="#1C1C1C"/>
<path fill-rule="evenodd" clip-rule="evenodd" d="M239.843 92.0242C239.218 92.0242 238.825 91.6073 238.81 90.874C238.794 90.1406 239.188 89.7083 239.998 89.7006C240.669 89.7006 240.923 90.1406 240.97 90.7196C240.993 91.042 240.887 91.3605 240.676 91.6052C240.465 91.8498 240.165 92.0005 239.843 92.0242Z" fill="#FFEAA9"/>
<path fill-rule="evenodd" clip-rule="evenodd" d="M43.0992 37.6558C43.0795 37.2934 43.1323 36.9308 43.2546 36.5892C43.3768 36.2476 43.566 35.9338 43.811 35.6663C44.056 35.3988 44.3519 35.183 44.6815 35.0315C45.011 34.88 45.3674 34.7959 45.7298 34.7841C46.1016 34.7768 46.4711 34.8444 46.8164 34.9827C47.1616 35.1211 47.4756 35.3274 47.7396 35.5895C48.0037 35.8515 48.2124 36.164 48.3535 36.5084C48.4946 36.8527 48.5651 37.2219 48.5609 37.594C48.5691 37.983 48.4995 38.3697 48.3562 38.7314C48.2129 39.0931 47.9987 39.4225 47.7263 39.7001C47.4539 39.9778 47.1287 40.1981 46.7699 40.3481C46.4112 40.4981 46.026 40.5749 45.6372 40.5737C44.1098 40.5429 43.0838 39.3695 43.0992 37.6558ZM45.7606 39.1997C45.9641 39.186 46.1629 39.1321 46.3454 39.041C46.5279 38.95 46.6906 38.8237 46.8241 38.6693C46.9575 38.515 47.059 38.3357 47.1228 38.1419C47.1865 37.948 47.2112 37.7434 47.1955 37.54C47.1338 36.768 46.8098 36.2354 45.9535 36.2431C44.9275 36.2431 44.4107 36.7757 44.4107 37.733C44.4107 38.6902 44.9661 39.246 45.7529 39.2228L45.7606 39.1997Z" fill="#1C1C1C"/>
<path fill-rule="evenodd" clip-rule="evenodd" d="M249.717 188.232C249.698 187.87 249.751 187.507 249.873 187.166C249.995 186.824 250.184 186.51 250.429 186.243C250.674 185.975 250.97 185.76 251.3 185.608C251.629 185.457 251.986 185.373 252.348 185.361C252.72 185.353 253.089 185.421 253.435 185.559C253.78 185.698 254.094 185.904 254.358 186.166C254.622 186.428 254.831 186.741 254.972 187.085C255.113 187.429 255.183 187.798 255.179 188.171C255.187 188.56 255.118 188.946 254.974 189.308C254.831 189.67 254.617 189.999 254.344 190.277C254.072 190.554 253.747 190.775 253.388 190.925C253.029 191.075 252.644 191.151 252.255 191.15C250.713 191.119 249.702 189.9 249.717 188.232ZM252.379 189.776C252.582 189.763 252.781 189.709 252.964 189.618C253.146 189.527 253.309 189.4 253.442 189.246C253.576 189.092 253.677 188.912 253.741 188.718C253.805 188.525 253.829 188.32 253.814 188.117C253.752 187.345 253.428 186.812 252.572 186.82C251.546 186.82 251.029 187.352 251.029 188.31C251.029 189.267 251.584 189.815 252.379 189.792V189.776Z" fill="#1C1C1C"/>
<path fill-rule="evenodd" clip-rule="evenodd" d="M252.379 189.792C251.607 189.792 251.09 189.259 251.067 188.325C251.044 187.391 251.553 186.843 252.61 186.835C253.459 186.835 253.79 187.399 253.852 188.132C253.868 188.339 253.842 188.546 253.776 188.742C253.709 188.939 253.605 189.12 253.467 189.275C253.33 189.429 253.162 189.555 252.975 189.644C252.788 189.733 252.585 189.783 252.379 189.792Z" fill="#FFEAA9"/>
<path fill-rule="evenodd" clip-rule="evenodd" d="M148.884 113.917C148.442 114.889 147.88 115.802 147.21 116.634C144.665 119.104 141.965 121.405 139.388 123.836C135.361 127.634 131.419 131.509 127.385 135.292C125.842 136.766 124.091 138.086 122.401 139.422C121.875 139.778 121.311 140.076 120.72 140.31C120.217 140.588 119.633 140.68 119.069 140.572C118.505 140.463 117.998 140.16 117.634 139.715C115.073 136.967 112.442 134.312 109.989 131.448C107.536 128.584 105.106 125.465 102.668 122.47C101.982 121.621 102.175 120.926 102.854 120.154C106.109 116.372 109.958 113.207 113.707 109.98C118.12 106.12 122.401 102.16 126.76 98.2616C127.787 97.3425 128.869 96.4866 130 95.6987C130.412 95.3741 130.934 95.2231 131.456 95.2779C131.977 95.3326 132.457 95.5889 132.792 95.992C135.626 98.8225 138.455 101.653 141.278 104.483C142.821 106.027 144.318 107.571 145.837 109.115C146.933 110.227 148.151 111.253 148.491 112.882C148.56 113.191 148.607 113.508 148.661 113.824L148.884 113.917ZM103.37 121.196C104.913 123.111 106.117 124.84 107.513 126.43C110.969 130.375 114.456 134.288 118.027 138.141C119.354 139.576 119.763 139.584 121.391 138.434C123.098 137.231 124.722 135.913 126.251 134.489C130.262 130.73 134.173 126.862 138.169 123.095C140.823 120.586 143.569 118.186 146.261 115.708C146.552 115.496 146.794 115.225 146.973 114.913C147.151 114.601 147.262 114.255 147.297 113.897C147.333 113.539 147.293 113.178 147.18 112.837C147.066 112.496 146.882 112.182 146.639 111.917C146.121 111.243 145.557 110.606 144.95 110.011C143.338 108.366 141.71 106.73 140.082 105.101C137.506 102.515 134.898 99.9599 132.368 97.3352C132.238 97.1456 132.065 96.9887 131.864 96.8767C131.663 96.7647 131.439 96.7006 131.209 96.6894C130.979 96.6782 130.75 96.7202 130.539 96.8121C130.328 96.904 130.141 97.0434 129.992 97.2194C128.665 98.3928 127.4 99.6356 126.073 100.801C121.229 105.062 116.346 109.293 111.532 113.569C108.77 116.032 106.194 118.579 103.37 121.196Z" fill="#1C1C1C"/>
<path fill-rule="evenodd" clip-rule="evenodd" d="M102.599 61.9336C103.069 62.0466 103.514 62.2455 103.911 62.5203C105.963 64.427 108.007 66.38 109.943 68.364C112.852 71.3977 115.729 74.4778 118.498 77.6274C119.204 78.5087 119.702 79.5377 119.956 80.638C120.033 81.0029 120.036 81.3795 119.964 81.7455C119.892 82.1115 119.748 82.4594 119.54 82.7685C117.372 85.5553 115.22 88.3806 112.79 90.9358C109.236 94.6875 105.554 98.3131 101.743 101.813C99.0457 104.417 95.9491 106.572 92.5709 108.197C91.4138 108.722 90.3878 108.714 89.4852 107.703C87.0398 104.924 84.5095 102.214 82.1567 99.3655C80.3979 97.2349 78.8319 94.9345 77.2427 92.665C76.4533 91.5071 75.7246 90.309 75.0596 89.0754C74.7926 88.553 74.6356 87.9813 74.5984 87.3957C74.5613 86.8101 74.6447 86.2231 74.8436 85.6711C75.723 82.645 77.5127 80.1439 79.4259 77.7431C82.813 73.3014 86.8643 69.4087 91.4369 66.2025C94.7323 63.8487 98.5753 62.379 102.599 61.9336ZM102.507 63.3C99.8419 63.5032 97.2549 64.294 94.9315 65.6158C90.1255 68.1401 86.2684 71.7914 82.7199 75.8442C80.4062 78.3517 78.4159 81.1396 76.7953 84.1426C76.2506 85.0477 75.989 86.0952 76.044 87.1503C76.0989 88.2054 76.4681 89.22 77.1039 90.0635C78.5696 92.1323 79.935 94.2783 81.5241 96.2391C84.3013 99.6974 87.2095 103.04 90.0484 106.444C90.1647 106.633 90.3192 106.796 90.502 106.921C90.6848 107.047 90.8918 107.133 91.1098 107.173C91.3278 107.214 91.5518 107.209 91.7676 107.158C91.9834 107.107 92.1861 107.011 92.3626 106.877C94.703 105.474 96.9641 103.943 99.1357 102.291C102.353 99.5893 105.438 96.7254 108.393 93.7225C111.532 90.5035 114.402 87.0143 117.442 83.6872C118.822 82.1433 119.1 80.638 117.897 78.9242C117.638 78.536 117.354 78.1647 117.048 77.8126C115.158 75.7438 113.276 73.6595 111.34 71.637C108.989 69.1719 106.606 66.7403 104.189 64.3421C103.677 63.9217 103.111 63.5713 102.507 63.3Z" fill="#1C1C1C"/>
<path fill-rule="evenodd" clip-rule="evenodd" d="M80.498 211.414C80.1663 211.962 79.958 212.773 79.4798 212.958C78.8286 213.144 78.1302 213.067 77.5358 212.742C76.9636 212.445 76.4856 211.995 76.1557 211.441C75.8258 210.887 75.6572 210.252 75.6689 209.608C75.6303 208.017 76.7721 207.292 78.2223 207.925C78.8559 208.278 79.3941 208.781 79.7905 209.388C80.187 209.996 80.4298 210.691 80.498 211.414Z" fill="#1C1C1C"/>
<path fill-rule="evenodd" clip-rule="evenodd" d="M66.5047 211.723C66.2964 211.885 65.9107 212.418 65.4632 212.495C64.5607 212.626 63.2801 210.851 63.3187 209.708C63.3057 209.566 63.3227 209.423 63.3685 209.288C63.4143 209.153 63.488 209.029 63.5847 208.924C63.6814 208.819 63.799 208.736 63.9299 208.679C64.0609 208.623 64.2021 208.595 64.3447 208.596C65.3475 208.535 66.5432 210.063 66.5047 211.723Z" fill="#1C1C1C"/>
<path fill-rule="evenodd" clip-rule="evenodd" d="M79.688 198.052C79.8886 196.901 80.6754 196.392 81.5471 196.824C82.0235 197.09 82.4186 197.48 82.6904 197.954C82.9622 198.427 83.1003 198.965 83.09 199.511C83.0205 200.452 82.1643 200.985 81.4777 200.383C80.8076 199.665 80.2082 198.884 79.688 198.052Z" fill="#1C1C1C"/>
<path fill-rule="evenodd" clip-rule="evenodd" d="M137.699 105.649C137.462 105.996 137.205 106.329 136.928 106.645C131.068 112.262 124.867 117.511 118.359 122.362C116.817 123.535 115.444 124.94 113.986 126.222C113.564 126.597 113.132 126.965 112.69 127.325C112.584 127.436 112.455 127.522 112.313 127.578C112.171 127.635 112.019 127.66 111.866 127.653C111.713 127.646 111.564 127.606 111.428 127.536C111.292 127.466 111.172 127.368 111.077 127.248C110.105 126.214 109.149 125.172 108.223 124.099C108.076 123.967 107.964 123.801 107.893 123.617C107.823 123.432 107.798 123.234 107.82 123.038C107.842 122.842 107.91 122.653 108.019 122.489C108.128 122.324 108.275 122.188 108.447 122.092C112.561 118.654 116.691 115.203 120.836 111.74C124.585 108.606 128.334 105.469 132.083 102.33C133.271 101.334 133.533 101.295 134.714 102.276C135.453 102.885 136.157 103.537 136.82 104.229C137.156 104.674 137.451 105.149 137.699 105.649ZM136.071 105.387C135.3 104.707 134.629 103.997 133.857 103.403C133.702 103.337 133.534 103.309 133.366 103.323C133.198 103.336 133.036 103.39 132.893 103.48C132.268 103.935 131.744 104.53 131.134 105.024C125.526 109.586 119.895 114.117 114.31 118.695C112.566 120.123 110.923 121.683 109.141 123.265L111.841 126.206C119.694 118.988 128.697 113.299 136.064 105.387H136.071Z" fill="#1C1C1C"/>
<path fill-rule="evenodd" clip-rule="evenodd" d="M133.456 114.635C133.456 112.643 134.999 110.775 136.681 110.775C138.941 110.775 141.363 112.651 141.386 114.426C141.343 115.59 140.881 116.699 140.086 117.55C139.291 118.401 138.216 118.936 137.059 119.058C135.246 119.112 133.456 116.92 133.456 114.635ZM134.806 114.573C134.806 116.04 135.94 117.661 136.997 117.661C138.355 117.707 139.99 116.055 140.036 114.573C140.036 113.477 138.324 112.103 136.889 112.095C135.901 112.157 134.791 113.477 134.791 114.573H134.806Z" fill="#1C1C1C"/>
<path fill-rule="evenodd" clip-rule="evenodd" d="M119.979 125.38C121.033 125.342 122.059 125.717 122.84 126.425C123.621 127.133 124.095 128.118 124.16 129.17C124.199 130.136 123.861 131.079 123.217 131.799C122.574 132.519 121.675 132.961 120.712 133.03C118.251 133.03 115.991 131.046 115.983 128.916C115.983 126.924 117.711 125.403 119.979 125.38ZM119.979 126.716C118.575 126.716 117.318 127.766 117.303 128.931C117.303 130.228 119 131.633 120.612 131.656C121.215 131.601 121.774 131.318 122.175 130.865C122.577 130.412 122.79 129.822 122.772 129.217C122.708 128.531 122.39 127.894 121.881 127.431C121.371 126.968 120.706 126.713 120.018 126.716H119.979Z" fill="#1C1C1C"/>
<path fill-rule="evenodd" clip-rule="evenodd" d="M129.167 125.604C128.043 125.617 126.96 125.185 126.153 124.403C125.345 123.621 124.879 122.552 124.854 121.428C124.854 119.884 126.922 117.861 128.588 117.861C129.704 117.947 130.751 118.435 131.536 119.234C132.32 120.033 132.788 121.089 132.854 122.207C132.877 124.145 131.311 125.589 129.167 125.604ZM129.12 124.261C129.411 124.292 129.705 124.263 129.984 124.176C130.264 124.09 130.522 123.947 130.745 123.757C130.967 123.567 131.148 123.334 131.278 123.071C131.407 122.809 131.481 122.523 131.496 122.231C131.496 120.864 129.992 119.228 128.704 119.228C127.716 119.228 126.204 120.602 126.22 121.482C126.24 122.236 126.555 122.952 127.098 123.476C127.64 124 128.367 124.29 129.12 124.284V124.261Z" fill="#1C1C1C"/>
<path fill-rule="evenodd" clip-rule="evenodd" d="M98.5804 90.0171C98.3044 89.4014 98.2157 88.718 98.3255 88.0521C98.4352 87.3863 98.7385 86.7676 99.1975 86.2732C99.6399 85.7838 100.232 85.4548 100.881 85.3375C101.53 85.2202 102.199 85.3212 102.785 85.6247C103.44 85.9026 104.081 86.2423 104.729 86.5897C105.172 86.6066 105.614 86.5277 106.025 86.3581L106.565 85.8563C106.607 85.7885 106.64 85.716 106.665 85.6402C106.747 85.3895 106.747 85.1189 106.665 84.8682L106.472 84.7061C106.41 84.6598 106.364 84.5903 106.302 84.5363C105.431 83.9419 104.644 83.4015 103.826 82.9152C103.052 82.3722 102.132 82.0752 101.187 82.0628C100.242 82.0504 99.3145 82.3232 98.5264 82.8457C96.6364 84.104 95.3173 85.864 95.4793 88.2494C95.5764 90.2028 96.32 92.0685 97.593 93.5527C97.9015 93.9078 98.1947 94.4095 98.6961 93.8692C99.1975 93.3288 100.092 93.267 99.5832 92.2635C99.2035 91.5358 98.8686 90.7857 98.5804 90.0171Z" fill="#1C1C1C"/>
<path fill-rule="evenodd" clip-rule="evenodd" d="M103.748 72.9879C105.361 72.9879 107.042 74.5318 107.042 75.9831C107.003 76.8343 106.653 77.6416 106.059 78.2519C105.465 78.8623 104.667 79.2333 103.818 79.2948C103.02 79.2708 102.261 78.9482 101.689 78.3907C101.118 77.8333 100.776 77.0815 100.732 76.2841C100.714 75.4519 101.018 74.6448 101.58 74.0309C102.142 73.4169 102.918 73.0434 103.748 72.9879Z" fill="#1C1C1C"/>
<path fill-rule="evenodd" clip-rule="evenodd" d="M88.8909 91.3295C88.1304 91.2906 87.4139 90.961 86.8893 90.4086C86.3648 89.8562 86.0723 89.1233 86.0723 88.3613C86.0723 87.5993 86.3648 86.8664 86.8893 86.314C87.4139 85.7616 88.1304 85.432 88.8909 85.3932C90.4338 85.3932 91.9766 86.8599 91.9766 88.2494C91.9305 89.0525 91.5903 89.8105 91.0211 90.3786C90.452 90.9468 89.6936 91.2853 88.8909 91.3295Z" fill="#1C1C1C"/>
<path fill-rule="evenodd" clip-rule="evenodd" d="M112.288 60.5981C116.145 64.7563 120.002 68.9068 123.859 73.0496C124.554 73.8216 125.294 74.4932 125.95 75.1571L126.066 75.0644C126.448 75.5931 126.876 76.0865 127.346 76.5388L127.277 76.5929L128.403 77.9361C128.465 78.708 129.074 80.5607 128.665 81.3404C127.555 78.7852 125.41 77.4806 124.16 76.1374C121.075 72.7177 117.989 69.298 114.826 65.9323C113.129 64.1182 111.386 62.3427 109.55 60.6753C105.554 57.0471 100.694 55.3179 95.4557 54.4997C91.8476 53.9174 88.1589 54.0742 84.6132 54.9606C81.0674 55.847 77.7384 57.4445 74.8278 59.6563C74.365 59.1854 73.9021 58.6991 73.4624 58.205C75.9 56.2056 78.6925 54.684 81.6935 53.72C87.3652 51.8546 93.4594 51.6962 99.2202 53.2646C104.204 54.5769 108.716 56.7538 112.288 60.5981Z" fill="#1C1C1C"/>
</g>
<defs>
<clipPath id="clip0">
<rect width="258.434" height="238" fill="white"/>
</clipPath>
</defs>
</svg>
