<svg width="16" height="16" viewBox="0 0 16 16" fill="none" xmlns="http://www.w3.org/2000/svg">
<path d="M13.308 2.72205H13.3011M5.48968 10.5288L10.2398 5.77862M1.76125 9.2714L6.75159 14.2617C6.88087 14.3912 7.03439 14.4938 7.20338 14.5639C7.37237 14.6339 7.55351 14.67 7.73644 14.67C7.91937 14.67 8.10051 14.6339 8.26949 14.5639C8.43848 14.4938 8.592 14.3912 8.72128 14.2617L14.7 8.29004V1.33H7.73992L1.76125 7.30867C1.50198 7.56948 1.35646 7.92229 1.35646 8.29004C1.35646 8.65778 1.50198 9.01059 1.76125 9.2714ZM10.2826 10.092C10.2826 10.626 9.84974 11.0588 9.3158 11.0588C8.78185 11.0588 8.349 10.626 8.349 10.092C8.349 9.5581 8.78185 9.12525 9.3158 9.12525C9.84974 9.12525 10.2826 9.5581 10.2826 10.092ZM7.37916 6.22341C7.37916 6.75735 6.94632 7.1902 6.41237 7.1902C5.87843 7.1902 5.44558 6.75735 5.44558 6.22341C5.44558 5.68947 5.87843 5.25662 6.41237 5.25662C6.94632 5.25662 7.37916 5.68947 7.37916 6.22341Z" stroke="#1C1C1C" stroke-width="1.25" stroke-linecap="round" stroke-linejoin="round"/>
</svg>
