<svg width="16" height="16" viewBox="0 0 16 16" fill="none" xmlns="http://www.w3.org/2000/svg">
<path d="M13.0668 2.93336H13.0601M2.00669 9.20666L6.78669 13.9867C6.91052 14.1106 7.05757 14.209 7.21944 14.2761C7.3813 14.3432 7.5548 14.3777 7.73002 14.3777C7.90524 14.3777 8.07875 14.3432 8.24061 14.2761C8.40248 14.209 8.54953 14.1106 8.67336 13.9867L14.4 8.26666V1.59999H7.73336L2.00669 7.32666C1.75836 7.57647 1.61897 7.91441 1.61897 8.26666C1.61897 8.61891 1.75836 8.95684 2.00669 9.20666Z" stroke="#1C1C1C" stroke-width="1.25" stroke-linecap="round" stroke-linejoin="round"/>
<g clip-path="url(#clip0_760_3385)">
<path d="M9.80672 4.61494L6.99329 10.5849M10.4635 7.92096C10.0304 8.07661 9.80546 8.5539 9.96111 8.98702C10.1168 9.42013 10.5941 9.64506 11.0272 9.48941C11.4603 9.33376 11.6852 8.85647 11.5296 8.42335C11.3739 7.99023 10.8966 7.7653 10.4635 7.92096ZM5.77284 5.71041C5.33972 5.86606 5.11479 6.34335 5.27044 6.77647C5.42609 7.20959 5.90338 7.43452 6.3365 7.27887C6.76962 7.12322 6.99455 6.64592 6.8389 6.21281C6.68325 5.77969 6.20595 5.55476 5.77284 5.71041Z" stroke="#1C1C1C" stroke-width="1.25" stroke-linecap="round" stroke-linejoin="round"/>
</g>
<defs>
<clipPath id="clip0_760_3385">
<rect width="8" height="8" fill="white" transform="matrix(-0.338199 -0.941075 -0.941075 0.338199 13.5171 10.0115)"/>
</clipPath>
</defs>
</svg>
