<svg width="24" height="24" viewBox="0 0 24 24" fill="none" xmlns="http://www.w3.org/2000/svg">
<path d="M16.0001 21V19C16.0001 17.9391 15.5787 16.9217 14.8285 16.1716C14.0784 15.4214 13.061 15 12.0001 15H5.00012C3.93926 15 2.92184 15.4214 2.17169 16.1716C1.42155 16.9217 1.00012 17.9391 1.00012 19V21M23.0001 11H17.0001M12.5001 7C12.5001 9.20914 10.7093 11 8.50012 11C6.29098 11 4.50012 9.20914 4.50012 7C4.50012 4.79086 6.29098 3 8.50012 3C10.7093 3 12.5001 4.79086 12.5001 7Z" stroke="#1C1C1C" stroke-width="1.25" stroke-linecap="round" stroke-linejoin="round"/>
</svg>
