<svg width="24" height="24" viewBox="0 0 24 24" fill="none" xmlns="http://www.w3.org/2000/svg">
<path d="M4.92988 4.92994L9.16988 9.16994M14.8299 14.8299L19.0699 19.0699M19.0699 4.92994L14.8299 9.16994L18.3599 5.63994M4.92988 19.0699L9.16988 14.8299M21.9999 11.9999C21.9999 17.5228 17.5227 21.9999 11.9999 21.9999C6.47703 21.9999 1.99988 17.5228 1.99988 11.9999C1.99988 6.47709 6.47703 1.99994 11.9999 1.99994C17.5227 1.99994 21.9999 6.47709 21.9999 11.9999ZM15.9999 11.9999C15.9999 14.2091 14.209 15.9999 11.9999 15.9999C9.79074 15.9999 7.99988 14.2091 7.99988 11.9999C7.99988 9.7908 9.79074 7.99994 11.9999 7.99994C14.209 7.99994 15.9999 9.7908 15.9999 11.9999Z" stroke="#1C1C1C" stroke-width="1.25" stroke-linecap="round" stroke-linejoin="round"/>
</svg>
