<svg width="40" height="40" viewBox="0 0 40 40" fill="none" xmlns="http://www.w3.org/2000/svg">
<path d="M12.5995 3.33337H8.4296C5.61502 3.33337 3.33334 5.62015 3.33334 8.44103V12.7697M27.4006 3.33337H31.5704C34.385 3.33337 36.6667 5.62015 36.6667 8.44103V12.7697M12.7433 12.5027V18.106M27.6984 12.5027V18.106M21.0034 14.2596V21.3424L21.0034 21.3459L21.0034 21.3495L21.0033 21.3573L21.0031 21.3749L21.0018 21.4178C21.0005 21.4498 20.9983 21.4886 20.9945 21.5333C20.987 21.6222 20.9729 21.7375 20.9465 21.871C20.8947 22.1325 20.7891 22.4959 20.566 22.8713C20.0637 23.717 19.1163 24.3665 17.6881 24.3665M26.2263 26.9663L26.2235 26.9689L26.2197 26.9724L26.2092 26.9819L26.1767 27.0108C26.1501 27.0344 26.1134 27.0663 26.0673 27.1054C25.9751 27.1836 25.8448 27.2909 25.6808 27.4176C25.3541 27.6701 24.8871 28.0047 24.3168 28.3403C23.2044 28.9948 21.5632 29.7337 19.7395 29.7337C17.8995 29.7337 16.3388 28.9835 15.2952 28.3074C14.7636 27.9629 14.3376 27.6192 14.0417 27.3592C13.8931 27.2286 13.7755 27.1176 13.6921 27.036C13.6504 26.9952 13.617 26.9616 13.5925 26.9364L13.5622 26.9051L13.5521 26.8944L13.5483 26.8904L13.5467 26.8887M12.5995 36.6667H8.4296C5.61502 36.6667 3.33334 34.3799 3.33334 31.5591V27.2304M36.6667 27.2304V31.5591C36.6667 34.3799 34.385 36.6667 31.5704 36.6667H27.4006" stroke="#1C1C1C" stroke-width="1.75" stroke-linecap="round"/>
</svg>
