<svg width="40" height="40" viewBox="0 0 40 40" fill="none" xmlns="http://www.w3.org/2000/svg">
<rect width="40" height="40" rx="20" fill="#80D7FF"/>
<g clip-path="url(#clip0_3476_9784)">
<path d="M26.4974 12.0736C27.0742 11.78 27.4356 11.6794 27.6682 11.7476C27.834 11.7963 27.8815 11.853 27.9185 12.0469C27.983 12.3857 27.6756 13.1205 27.1021 13.9978C26.8579 14.3715 26.69 14.5695 25.9453 15.3622C24.8848 16.4909 23.8964 17.575 23.3869 18.1683C23.0935 18.51 23.0073 18.6341 23.0092 18.7116C23.0106 18.7669 23.369 20.9758 23.8057 23.6203C24.7094 29.0925 24.6736 28.5625 24.1765 29.1228C23.9942 29.3282 23.8983 29.415 23.8904 29.3817C23.8839 29.3541 23.343 28.1384 22.6884 26.6801L21.4982 24.0285L20.7035 22.8276C20.091 21.902 19.8861 21.6181 19.8099 21.5896C19.7118 21.5529 19.7027 21.5605 18.7799 22.4407C17.7519 23.4213 17.236 23.8751 16.6146 24.345L16.2011 24.6577L16.2186 24.8179C16.2282 24.906 16.3664 25.554 16.5256 26.258C16.8537 27.7082 16.8617 27.5794 16.411 28.0965L16.1329 28.4155L16.0784 28.3269C15.0541 26.6632 14.5477 25.8663 14.5157 25.8676L13.78 25.1567C13.7906 25.1119 12.5971 24.3432 11.3313 23.5793L11.2399 23.5241L11.5611 23.2424C11.7378 23.0875 11.9368 22.9343 12.0034 22.9022C12.102 22.8546 12.3621 22.8972 13.4048 23.1319C14.109 23.2904 14.7585 23.4277 14.8482 23.437L15.0112 23.454L15.1976 23.1954C15.7022 22.4953 16.5976 21.4802 17.5711 20.5047C18.1115 19.9632 18.1121 19.9624 18.0726 19.8567C18.0407 19.7714 17.8002 19.5968 16.8321 18.9562L15.6312 18.1615L12.9796 16.9713C11.5213 16.3167 10.3056 15.7758 10.2781 15.7693C10.1881 15.7481 10.8572 15.1819 11.0506 15.1156C11.196 15.0658 11.9606 15.1786 16.1159 15.8627L21.0099 16.6685L21.1962 16.5229C21.5147 16.2738 23.2367 14.7106 24.0703 13.9138C25.1508 12.8811 25.6404 12.5098 26.4974 12.0736Z" stroke="white" stroke-width="1.25"/>
</g>
<defs>
<clipPath id="clip0_3476_9784">
<rect width="24" height="24" fill="white" transform="translate(8 8)"/>
</clipPath>
</defs>
</svg>
