<svg width="24" height="24" viewBox="0 0 24 24" fill="none" xmlns="http://www.w3.org/2000/svg">
<path d="M19.6001 4.40005H19.5901M8.36689 15.6165L15.1918 8.79166M3.00998 13.81L10.18 20.98C10.3657 21.1659 10.5863 21.3135 10.8291 21.4141C11.0719 21.5148 11.3321 21.5666 11.595 21.5666C11.8578 21.5666 12.1181 21.5148 12.3609 21.4141C12.6037 21.3135 12.8242 21.1659 13.01 20.98L21.6 12.4V2.39999H11.6L3.00998 10.99C2.63747 11.3647 2.42839 11.8716 2.42839 12.4C2.42839 12.9284 2.63747 13.4353 3.00998 13.81ZM15.2532 14.9891C15.2532 15.7562 14.6313 16.3781 13.8642 16.3781C13.097 16.3781 12.4751 15.7562 12.4751 14.9891C12.4751 14.2219 13.097 13.6 13.8642 13.6C14.6313 13.6 15.2532 14.2219 15.2532 14.9891ZM11.0817 9.43072C11.0817 10.1979 10.4597 10.8198 9.69259 10.8198C8.92543 10.8198 8.30353 10.1979 8.30353 9.43072C8.30353 8.66356 8.92543 8.04166 9.69259 8.04166C10.4597 8.04166 11.0817 8.66356 11.0817 9.43072Z" stroke="#1C1C1C" stroke-width="1.25" stroke-linecap="round" stroke-linejoin="round"/>
</svg>
