<svg width="16" height="16" viewBox="0 0 16 16" fill="none" xmlns="http://www.w3.org/2000/svg">
<g clip-path="url(#clip0_481_3409)">
<path d="M14.7585 11.4467V13.4467C14.7593 13.6324 14.7212 13.8162 14.6468 13.9863C14.5725 14.1564 14.4634 14.3091 14.3266 14.4346C14.1897 14.5602 14.0282 14.6557 13.8523 14.7152C13.6764 14.7747 13.4901 14.7968 13.3052 14.7801C11.2537 14.5572 9.28317 13.8562 7.55183 12.7334C5.94105 11.7098 4.57539 10.3442 3.55183 8.7334C2.42515 6.9942 1.724 5.01406 1.50517 2.9534C1.48851 2.76904 1.51042 2.58324 1.5695 2.40781C1.62858 2.23239 1.72355 2.07119 1.84834 1.93448C1.97314 1.79777 2.12504 1.68854 2.29436 1.61375C2.46369 1.53895 2.64673 1.50024 2.83183 1.50006H4.83183C5.15537 1.49688 5.46903 1.61145 5.71434 1.82242C5.95965 2.03339 6.11989 2.32636 6.16517 2.64673C6.24958 3.28678 6.40613 3.91522 6.63183 4.52007C6.72153 4.75868 6.74094 5.01801 6.68777 5.26732C6.6346 5.51663 6.51108 5.74547 6.33183 5.92673L5.48517 6.7734C6.4342 8.44243 7.81614 9.82436 9.48517 10.7734L10.3318 9.92673C10.5131 9.74749 10.7419 9.62397 10.9912 9.5708C11.2406 9.51762 11.4999 9.53704 11.7385 9.62673C12.3433 9.85243 12.9718 10.009 13.6118 10.0934C13.9357 10.1391 14.2314 10.3022 14.4429 10.5517C14.6543 10.8013 14.7666 11.1198 14.7585 11.4467Z" stroke="#1C1C1C" stroke-width="1.25" stroke-linecap="round" stroke-linejoin="round"/>
</g>
<defs>
<clipPath id="clip0_481_3409">
<rect width="16" height="16" fill="white"/>
</clipPath>
</defs>
</svg>
