<svg width="16" height="16" viewBox="0 0 16 16" fill="none" xmlns="http://www.w3.org/2000/svg">
<path d="M12.2222 14.6666L10.2222 12.6666" stroke="#1C1C1C" stroke-width="1.25" stroke-linecap="round" stroke-linejoin="round"/>
<path d="M5 12.6666L3 14.6666" stroke="#1C1C1C" stroke-width="1.25" stroke-linecap="round" stroke-linejoin="round"/>
<path d="M12.2 2.62497C12.3558 2.62497 12.7083 2.84206 12.7083 3.42219H13.9583C13.9583 2.43138 13.296 1.37497 12.2 1.37497V2.62497ZM12.7083 3.42219V11.2444H13.9583V3.42219H12.7083ZM12.7083 11.2444C12.7083 11.8245 12.3558 12.0416 12.2 12.0416V13.2916C13.296 13.2916 13.9583 12.2352 13.9583 11.2444H12.7083ZM12.2 12.0416H3.13333V13.2916H12.2V12.0416ZM3.13333 12.0416C2.97751 12.0416 2.625 11.8245 2.625 11.2444H1.375C1.375 12.2352 2.03731 13.2916 3.13333 13.2916V12.0416ZM2.625 11.2444V3.42219H1.375V11.2444H2.625ZM2.625 3.42219C2.625 2.84206 2.97751 2.62497 3.13333 2.62497V1.37497C2.03731 1.37497 1.375 2.43138 1.375 3.42219H2.625ZM3.13333 2.62497H7.66667V1.37497H3.13333V2.62497ZM7.66667 2.62497H12.2V1.37497H7.66667V2.62497Z" fill="#1C1C1C"/>
<circle cx="10.5" cy="10.3333" r="1" stroke="#1C1C1C" stroke-width="1.25"/>
<circle cx="4.83337" cy="10.3333" r="1" stroke="#1C1C1C" stroke-width="1.25"/>
<rect x="8.33337" y="3.99997" width="3.66667" height="3" rx="1" stroke="#1C1C1C" stroke-width="1.25"/>
<rect x="3.33337" y="3.99997" width="3.66667" height="3" rx="1" stroke="#1C1C1C" stroke-width="1.25"/>
</svg>
