<svg width="16" height="16" viewBox="0 0 16 16" fill="none" xmlns="http://www.w3.org/2000/svg">
<path d="M11.7802 15.1086C12.0243 15.3527 12.42 15.3527 12.6641 15.1086C12.9082 14.8645 12.9082 14.4688 12.6641 14.2247L11.7802 15.1086ZM10.6641 12.2247C10.42 11.9806 10.0243 11.9806 9.78023 12.2247C9.53615 12.4688 9.53615 12.8645 9.78023 13.1086L10.6641 12.2247ZM12.6641 14.2247L10.6641 12.2247L9.78023 13.1086L11.7802 15.1086L12.6641 14.2247Z" fill="#1C1C1C"/>
<path d="M5.44194 13.1086C5.68602 12.8645 5.68602 12.4688 5.44194 12.2247C5.19786 11.9806 4.80214 11.9806 4.55806 12.2247L5.44194 13.1086ZM2.55806 14.2247C2.31398 14.4688 2.31398 14.8645 2.55806 15.1086C2.80214 15.3527 3.19786 15.3527 3.44194 15.1086L2.55806 14.2247ZM4.55806 12.2247L2.55806 14.2247L3.44194 15.1086L5.44194 13.1086L4.55806 12.2247Z" fill="#1C1C1C"/>
<path d="M12.2 2.62498C12.3558 2.62498 12.7083 2.84207 12.7083 3.42221H13.9583C13.9583 2.4314 13.296 1.37498 12.2 1.37498V2.62498ZM12.7083 3.42221V11.2444H13.9583V3.42221H12.7083ZM12.7083 11.2444C12.7083 11.8246 12.3558 12.0417 12.2 12.0417V13.2917C13.296 13.2917 13.9583 12.2352 13.9583 11.2444H12.7083ZM12.2 12.0417H3.13333V13.2917H12.2V12.0417ZM3.13333 12.0417C2.97751 12.0417 2.625 11.8246 2.625 11.2444H1.375C1.375 12.2352 2.03731 13.2917 3.13333 13.2917V12.0417ZM2.625 11.2444V3.42221H1.375V11.2444H2.625ZM2.625 3.42221C2.625 2.84207 2.97751 2.62498 3.13333 2.62498V1.37498C2.03731 1.37498 1.375 2.4314 1.375 3.42221H2.625ZM3.13333 2.62498H7.66667V1.37498H3.13333V2.62498ZM7.66667 2.62498H12.2V1.37498H7.66667V2.62498Z" fill="#1C1C1C"/>
<path d="M10.6888 11.2917C11.1668 11.2917 11.6916 10.9338 11.6916 10.3333C11.6916 9.73283 11.1668 9.37498 10.6888 9.37498C10.2108 9.37498 9.68604 9.73283 9.68604 10.3333C9.68604 10.9338 10.2108 11.2917 10.6888 11.2917Z" stroke="#1C1C1C" stroke-width="1.25"/>
<path d="M4.64438 11.2917C5.12239 11.2917 5.64716 10.9338 5.64716 10.3333C5.64716 9.73283 5.12239 9.37498 4.64438 9.37498C4.16637 9.37498 3.6416 9.73283 3.6416 10.3333C3.6416 10.9338 4.16637 11.2917 4.64438 11.2917Z" stroke="#1C1C1C" stroke-width="1.25"/>
<rect x="8.33337" y="3.99998" width="3.66667" height="3" rx="1" stroke="#1C1C1C" stroke-width="1.25"/>
<rect x="3.33337" y="3.99998" width="3.66667" height="3" rx="1" stroke="#1C1C1C" stroke-width="1.25"/>
</svg>
