<svg width="16" height="16" viewBox="0 0 16 16" fill="none" xmlns="http://www.w3.org/2000/svg">
<path d="M5.60142 13.0056C5.84549 12.7616 5.84549 12.3658 5.60142 12.1217C5.35734 11.8777 4.96161 11.8777 4.71753 12.1217L5.60142 13.0056ZM2.61122 14.2281C2.36714 14.4721 2.36714 14.8679 2.61122 15.1119C2.85529 15.356 3.25102 15.356 3.4951 15.1119L2.61122 14.2281ZM12.3236 15.1119C12.5677 15.356 12.9634 15.356 13.2075 15.1119C13.4516 14.8679 13.4516 14.4721 13.2075 14.2281L12.3236 15.1119ZM11.1012 12.1217C10.8571 11.8777 10.4614 11.8777 10.2173 12.1217C9.97322 12.3658 9.97322 12.7616 10.2173 13.0056L11.1012 12.1217ZM12.7422 1.955C12.9313 1.955 13.3108 2.20594 13.3108 2.82783H14.5608C14.5608 1.79526 13.8715 0.705002 12.7422 0.705002V1.955ZM13.3108 2.82783V11.0659H14.5608V2.82783H13.3108ZM13.3108 11.0659C13.3108 11.6877 12.9313 11.9387 12.7422 11.9387V13.1887C13.8715 13.1887 14.5608 12.0984 14.5608 11.0659H13.3108ZM12.7422 11.9387H3.19358V13.1887H12.7422V11.9387ZM3.19358 11.9387C3.00448 11.9387 2.625 11.6877 2.625 11.0659H1.375C1.375 12.0984 2.06428 13.1887 3.19358 13.1887V11.9387ZM2.625 11.0659V2.82783H1.375V11.0659H2.625ZM2.625 2.82783C2.625 2.20594 3.00448 1.955 3.19358 1.955V0.705002C2.06428 0.705002 1.375 1.79526 1.375 2.82783H2.625ZM3.19358 1.955H7.9679V0.705002H3.19358V1.955ZM7.9679 1.955H12.7422V0.705002H7.9679V1.955ZM4.10632 4.06132H6.56368V2.81132H4.10632V4.06132ZM6.64079 4.13842V5.89369H7.89079V4.13842H6.64079ZM6.56368 5.97079H4.10632V7.22079H6.56368V5.97079ZM4.02921 5.89369V4.13842H2.77921V5.89369H4.02921ZM4.10632 5.97079C4.06373 5.97079 4.02921 5.93627 4.02921 5.89369H2.77921C2.77921 6.62663 3.37338 7.22079 4.10632 7.22079V5.97079ZM6.64079 5.89369C6.64079 5.93627 6.60627 5.97079 6.56368 5.97079V7.22079C7.29662 7.22079 7.89079 6.62663 7.89079 5.89369H6.64079ZM6.56368 4.06132C6.60627 4.06132 6.64079 4.09584 6.64079 4.13842H7.89079C7.89079 3.40548 7.29662 2.81132 6.56368 2.81132V4.06132ZM4.10632 2.81132C3.37338 2.81132 2.77921 3.40548 2.77921 4.13842H4.02921C4.02921 4.09584 4.06373 4.06132 4.10632 4.06132V2.81132ZM9.37211 4.06132H11.8295V2.81132H9.37211V4.06132ZM11.9066 4.13842V5.89369H13.1566V4.13842H11.9066ZM11.8295 5.97079H9.37211V7.22079H11.8295V5.97079ZM9.295 5.89369V4.13842H8.045V5.89369H9.295ZM9.37211 5.97079C9.32952 5.97079 9.295 5.93627 9.295 5.89369H8.045C8.045 6.62663 8.63917 7.22079 9.37211 7.22079V5.97079ZM11.9066 5.89369C11.9066 5.93627 11.8721 5.97079 11.8295 5.97079V7.22079C12.5624 7.22079 13.1566 6.62663 13.1566 5.89369H11.9066ZM11.8295 4.06132C11.8721 4.06132 11.9066 4.09584 11.9066 4.13842H13.1566C13.1566 3.40548 12.5624 2.81132 11.8295 2.81132V4.06132ZM9.37211 2.81132C8.63917 2.81132 8.045 3.40548 8.045 4.13842H9.295C9.295 4.09584 9.32952 4.06132 9.37211 4.06132V2.81132ZM4.71753 12.1217L2.61122 14.2281L3.4951 15.1119L5.60142 13.0056L4.71753 12.1217ZM13.2075 14.2281L11.1012 12.1217L10.2173 13.0056L12.3236 15.1119L13.2075 14.2281ZM5.41211 10.1063C5.41211 10.3428 5.22041 10.5345 4.98395 10.5345V11.7845C5.91077 11.7845 6.66211 11.0331 6.66211 10.1063H5.41211ZM4.98395 10.5345C4.74748 10.5345 4.55579 10.3428 4.55579 10.1063H3.30579C3.30579 11.0331 4.05713 11.7845 4.98395 11.7845V10.5345ZM4.55579 10.1063C4.55579 9.86985 4.74748 9.67816 4.98395 9.67816V8.42816C4.05713 8.42816 3.30579 9.1795 3.30579 10.1063H4.55579ZM4.98395 9.67816C5.22041 9.67816 5.41211 9.86985 5.41211 10.1063H6.66211C6.66211 9.1795 5.91077 8.42816 4.98395 8.42816V9.67816ZM11.38 10.1063C11.38 10.3428 11.1883 10.5345 10.9518 10.5345V11.7845C11.8787 11.7845 12.63 11.0331 12.63 10.1063H11.38ZM10.9518 10.5345C10.7154 10.5345 10.5237 10.3428 10.5237 10.1063H9.27368C9.27368 11.0331 10.025 11.7845 10.9518 11.7845V10.5345ZM10.5237 10.1063C10.5237 9.86985 10.7154 9.67816 10.9518 9.67816V8.42816C10.025 8.42816 9.27368 9.1795 9.27368 10.1063H10.5237ZM10.9518 9.67816C11.1883 9.67816 11.38 9.86985 11.38 10.1063H12.63C12.63 9.1795 11.8787 8.42816 10.9518 8.42816V9.67816Z" fill="#1C1C1C"/>
</svg>
