<svg width="33" height="32" viewBox="0 0 33 32" fill="none" xmlns="http://www.w3.org/2000/svg">
<path fill-rule="evenodd" clip-rule="evenodd" d="M26.3069 9.23976C26.5424 9.25154 26.7663 9.13677 26.8943 8.9387C27.0222 8.74062 27.0348 8.48933 26.9272 8.27948C26.8197 8.06963 26.6083 7.93311 26.3728 7.92133L17.0251 7.00502V5.15922C17.0251 4.79514 16.73 4.5 16.3659 4.5C16.0019 4.5 15.7067 4.79514 15.7067 5.15922V6.87318L6.4777 5.97005C6.24218 5.9465 6.01199 6.05038 5.87384 6.24257C5.73568 6.43476 5.71056 6.68605 5.80792 6.90178C5.90528 7.11752 6.11034 7.26493 6.34585 7.28848L8.84428 7.53239C8.66969 7.76666 8.538 8.03003 8.45534 8.31027L6.392 14.7508C6.14596 15.3872 6.23827 16.1048 6.63734 16.6581C7.03641 17.2115 7.68816 17.5257 8.36965 17.4931H10.9604C11.6419 17.5257 12.2936 17.2115 12.6927 16.6581C13.0917 16.1048 13.184 15.3872 12.938 14.7508L10.8747 8.31027C10.8102 8.1008 10.7217 7.8995 10.611 7.71038L15.654 8.20479V26.1816H10.4857C10.1217 26.1816 9.82651 26.4767 9.82651 26.8408C9.82651 27.2049 10.1217 27.5 10.4857 27.5H22.2395C22.6036 27.5 22.8988 27.2049 22.8988 26.8408C22.8988 26.4767 22.6036 26.1816 22.2395 26.1816H17.0186V8.33664L22.2923 8.85742C22.0341 9.11588 21.8458 9.43572 21.7451 9.78691L19.7279 15.7792C19.4586 16.4155 19.5409 17.1464 19.9451 17.7068C20.3493 18.2673 21.0167 18.5762 21.7056 18.5215H24.2963C24.9852 18.5762 25.6526 18.2673 26.0568 17.7068C26.461 17.1464 26.5433 16.4155 26.2739 15.7792L24.2567 9.78691C24.1685 9.50513 24.03 9.2416 23.848 9.00904L26.208 9.23976H26.3069ZM11.7316 15.1727C11.8505 15.4108 11.8267 15.6952 11.67 15.9102C11.5132 16.1252 11.2497 16.2348 10.9867 16.1945H8.39601C8.13302 16.2348 7.86948 16.1252 7.71275 15.9102C7.55601 15.6952 7.53223 15.4108 7.65109 15.1727L9.69466 8.80469L11.7316 15.1727ZM25.0411 16.981C25.204 16.7546 25.2066 16.4501 25.0478 16.2208L23.024 10.2286L21.0068 16.2208C20.848 16.4501 20.8507 16.7546 21.0135 16.981C21.1763 17.2075 21.464 17.307 21.732 17.2294H24.3227C24.5906 17.307 24.8783 17.2075 25.0411 16.981Z" fill="#1C1C1C"/>
</svg>
