<svg width="48" height="48" viewBox="0 0 48 48" fill="none" xmlns="http://www.w3.org/2000/svg">
<path d="M29.4001 12.6001C29.0336 12.9739 28.8284 13.4766 28.8284 14.0001C28.8284 14.5236 29.0336 15.0262 29.4001 15.4001L32.6001 18.6001C32.9739 18.9665 33.4766 19.1718 34.0001 19.1718C34.5236 19.1718 35.0262 18.9665 35.4001 18.6001L42.9401 11.0601C43.9457 13.2825 44.2502 15.7586 43.813 18.1584C43.3757 20.5582 42.2175 22.7678 40.4926 24.4926C38.7678 26.2175 36.5582 27.3757 34.1584 27.813C31.7585 28.2503 29.2825 27.9458 27.0601 26.9401L13.2401 40.7601C12.4444 41.5557 11.3653 42.0027 10.2401 42.0027C9.11486 42.0027 8.03573 41.5557 7.24008 40.7601C6.44443 39.9644 5.99744 38.8853 5.99744 37.7601C5.99744 36.6349 6.44443 35.5557 7.24008 34.7601L21.0601 20.9401C20.0544 18.7177 19.7499 16.2416 20.1872 13.8418C20.6244 11.442 21.7827 9.23239 23.5075 7.50752C25.2324 5.78266 27.442 4.62442 29.8418 4.18717C32.2416 3.74991 34.7177 4.05441 36.9401 5.06008L29.4201 12.5801L29.4001 12.6001Z" stroke="#1C1C1C" stroke-width="2" stroke-linecap="round" stroke-linejoin="round"/>
</svg>
