<svg width="24" height="24" viewBox="0 0 24 24" fill="none" xmlns="http://www.w3.org/2000/svg">
<path d="M11.4616 2.03248L11.5375 2.65285L11.5375 2.65285L11.4616 2.03248ZM6.52056 6.08092L5.91213 5.93797L5.91212 5.93798L6.52056 6.08092ZM8.76336 14.2526L8.25401 14.6148L8.25401 14.6148L8.76336 14.2526ZM10.7694 16.143L11.0582 15.5887L11.0582 15.5887L10.7694 16.143ZM11.2216 16.55L11.7495 16.8846C11.8918 16.6601 11.8765 16.3703 11.7116 16.162L11.2216 16.55ZM10.7715 17.582L11.2164 17.143L11.2163 17.143L10.7715 17.582ZM13.5475 17.285L14.1403 17.4831C14.1965 17.3151 14.1787 17.1311 14.0913 16.977L13.5475 17.285ZM10.9041 21.8276C10.8089 22.1594 11.0007 22.5056 11.3325 22.6008C11.6643 22.696 12.0104 22.5042 12.1056 22.1724L10.9041 21.8276ZM13.3024 20.1213L13.5892 20.6765L13.5892 20.6765L13.3024 20.1213ZM13.3091 16.2442L13.9338 16.2254L13.9337 16.2236L13.3091 16.2442ZM13.6994 15.9761L13.3903 15.4329L13.3902 15.4329L13.6994 15.9761ZM15.7157 13.8927L16.2399 14.2332L16.2399 14.2331L15.7157 13.8927ZM17.4545 9.7648L18.0626 9.90919L18.0626 9.90919L17.4545 9.7648ZM17.6418 6.08092L18.2503 5.93799L18.2503 5.93797L17.6418 6.08092ZM13.989 2.32212L13.7966 2.91678L13.7966 2.91679L13.989 2.32212ZM12.0806 16.2583V16.8833L12.0878 16.8832L12.0806 16.2583ZM11.3856 1.41211C8.73083 1.73702 6.47704 3.53352 5.91213 5.93797L7.12899 6.22387C7.55408 4.41459 9.31017 2.92545 11.5375 2.65285L11.3856 1.41211ZM5.91212 5.93798C5.63572 7.1146 5.7975 8.6747 6.21708 10.2035C6.64073 11.7471 7.35061 13.3444 8.25401 14.6148L9.27271 13.8904C8.46749 12.7581 7.81405 11.2993 7.4225 9.87265C7.02688 8.43117 6.92158 7.1068 7.129 6.22385L5.91212 5.93798ZM8.25401 14.6148C8.54062 15.0179 8.92982 15.4473 9.31815 15.8132C9.69914 16.1722 10.1213 16.51 10.4805 16.6972L11.0582 15.5887C10.8508 15.4806 10.5271 15.2349 10.1754 14.9035C9.83102 14.579 9.50059 14.2109 9.27271 13.8904L8.25401 14.6148ZM10.4805 16.6972L10.7018 16.8125L11.2795 15.704L11.0582 15.5887L10.4805 16.6972ZM10.5006 16.6463L10.7316 16.938L11.7116 16.162L11.4806 15.8703L10.5006 16.6463ZM10.6937 16.2154C10.6467 16.2896 10.5884 16.3692 10.5134 16.4721C10.445 16.5658 10.3593 16.6836 10.2879 16.8019C10.2212 16.9125 10.1309 17.0805 10.0981 17.2766C10.0598 17.5052 10.1002 17.7917 10.3267 18.0211L11.2163 17.143C11.2629 17.1901 11.3019 17.2545 11.3217 17.3293C11.3403 17.3996 11.3356 17.4552 11.331 17.4829C11.3241 17.5239 11.3149 17.5194 11.3582 17.4476C11.3969 17.3835 11.4501 17.3091 11.5233 17.2086C11.5899 17.1173 11.6759 17.0008 11.7495 16.8846L10.6937 16.2154ZM10.3266 18.0211C10.3715 18.0665 10.4616 18.1575 10.6 18.2277C10.735 18.2963 10.871 18.3235 10.9912 18.3379C11.2084 18.364 11.5478 18.3643 12.0806 18.3643V17.1143C11.5034 17.1143 11.2629 17.1116 11.1403 17.0969C11.0907 17.0909 11.1169 17.0883 11.1659 17.1132C11.2182 17.1397 11.2461 17.1732 11.2164 17.143L10.3266 18.0211ZM12.0806 18.3643C12.3951 18.3643 12.6512 18.3635 12.8534 18.3545C13.0472 18.3458 13.2449 18.3283 13.4207 18.2739C13.6271 18.21 13.8086 18.094 13.944 17.9043C14.052 17.7529 14.1081 17.5795 14.1403 17.4831L12.9547 17.0869C12.9136 17.2101 12.9085 17.2033 12.9264 17.1783C12.9425 17.1557 12.9671 17.1294 12.9992 17.1073C13.0293 17.0866 13.0509 17.0798 13.0509 17.0798C13.0373 17.0841 12.9752 17.0978 12.7977 17.1057C12.6286 17.1133 12.4019 17.1143 12.0806 17.1143V18.3643ZM12.1056 22.1724C12.2169 21.7845 12.3319 21.571 12.508 21.387C12.7021 21.1841 13.0092 20.9762 13.5892 20.6765L13.0155 19.566C12.4135 19.877 11.9498 20.1623 11.6047 20.5229C11.2416 20.9025 11.0488 21.3231 10.9041 21.8276L12.1056 22.1724ZM13.5892 20.6765C14.8639 20.018 15.7723 19.2541 15.7723 18.1536H14.5223C14.5223 18.4549 14.2902 18.9074 13.0155 19.566L13.5892 20.6765ZM15.7723 18.1536C15.7723 17.8028 15.6144 17.5163 15.4418 17.3061C15.2697 17.0964 15.0479 16.9185 14.8286 16.7689C14.393 16.4717 13.843 16.2055 13.409 15.9901L12.8533 17.1098C13.3184 17.3407 13.7766 17.5644 14.1242 17.8015C14.2965 17.919 14.4101 18.0194 14.4756 18.0991C14.5406 18.1783 14.5223 18.1925 14.5223 18.1536H15.7723ZM13.409 15.9902C13.4226 15.9969 13.494 16.0331 13.5617 16.1214C13.6434 16.228 13.6938 16.379 13.6699 16.5428C13.6495 16.6817 13.5842 16.7698 13.5573 16.8023C13.5275 16.8383 13.5029 16.8565 13.5004 16.8584C13.4971 16.8609 13.5047 16.8553 13.5449 16.8334C13.5548 16.828 13.5881 16.8101 13.6152 16.7937C13.6268 16.7867 13.6625 16.765 13.7013 16.7331C13.7195 16.7182 13.7609 16.6828 13.8027 16.6288C13.8326 16.59 13.9404 16.4446 13.9338 16.2254L12.6843 16.263C12.6778 16.0454 12.7848 15.9017 12.8131 15.865C12.8533 15.813 12.8923 15.78 12.9075 15.7675C12.9401 15.7407 12.9668 15.725 12.9671 15.7248C12.9716 15.7221 12.9732 15.7214 12.9465 15.7359C12.9136 15.7539 12.8288 15.7995 12.749 15.8595C12.7083 15.8901 12.6495 15.9386 12.5938 16.0059C12.541 16.0698 12.4581 16.1902 12.433 16.3618C12.4043 16.5582 12.4627 16.7422 12.5695 16.8816C12.6622 17.0027 12.7759 17.0714 12.8533 17.1098L13.409 15.9902ZM13.9337 16.2236C13.9367 16.3149 13.919 16.3886 13.9034 16.4363C13.8874 16.485 13.8683 16.5226 13.8543 16.5472C13.8274 16.5947 13.8003 16.627 13.7883 16.6408C13.7741 16.6571 13.7625 16.6685 13.7565 16.6741C13.75 16.6803 13.7453 16.6843 13.7435 16.6858C13.7398 16.689 13.7486 16.6815 13.7769 16.662C13.8298 16.6257 13.912 16.5742 14.0086 16.5193L13.3902 15.4329C13.2714 15.5006 13.158 15.5707 13.0693 15.6316C13.0269 15.6607 12.9785 15.6957 12.9353 15.7323C12.9156 15.749 12.8806 15.7797 12.8452 15.8203C12.8281 15.8401 12.7971 15.8776 12.7675 15.9297C12.7456 15.9683 12.6787 16.0919 12.6844 16.2647L13.9337 16.2236ZM14.0085 16.5193C14.3533 16.3231 14.7885 15.9323 15.173 15.535C15.5683 15.1267 15.9699 14.6487 16.2399 14.2332L15.1916 13.5523C14.9799 13.8782 14.636 14.2925 14.2748 14.6657C13.9029 15.05 13.5708 15.3301 13.3903 15.4329L14.0085 16.5193ZM16.2399 14.2331C17.0214 13.03 17.7113 11.3888 18.0626 9.90919L16.8464 9.62041C16.5258 10.9706 15.8897 12.4774 15.1916 13.5523L16.2399 14.2331ZM18.0626 9.90919C18.3828 8.56078 18.4805 6.91816 18.2503 5.93799L17.0334 6.22384C17.2019 6.94104 17.1434 8.36961 16.8464 9.62041L18.0626 9.90919ZM18.2503 5.93797C17.7986 4.01534 16.1758 2.37257 14.1813 1.72745L13.7966 2.91679C15.4246 3.44333 16.6932 4.77592 17.0334 6.22386L18.2503 5.93797ZM14.1813 1.72746C13.2574 1.42859 12.2427 1.30719 11.3856 1.41211L11.5375 2.65285C12.184 2.57371 13.0143 2.66371 13.7966 2.91678L14.1813 1.72746ZM12.5873 16.858L13.0037 17.5931L14.0913 16.977L13.675 16.2419L12.5873 16.858ZM13.3019 15.6192L12.0735 15.6333L12.0878 16.8832L13.3162 16.8691L13.3019 15.6192ZM12.0806 15.6333H10.9906V16.8833H12.0806V15.6333Z" fill="#1C1C1C"/>
</svg>
