<svg width="24" height="24" viewBox="0 0 24 24" fill="none" xmlns="http://www.w3.org/2000/svg">
<mask id="path-1-inside-1_9256_39786" fill="white">
<path d="M22.0025 12.0013C22.0025 6.47367 17.5294 2 12.0013 2C6.47367 2 2 6.47306 2 12.0013C2 17.4798 6.43567 22.0025 12.0013 22.0025C17.5439 22.0025 22.0025 17.505 22.0025 12.0013ZM12.0013 3.17202C16.8697 3.17202 20.8305 7.13278 20.8305 12.0013C20.8305 13.7822 20.3008 15.494 19.3184 16.9439C15.3739 12.7008 8.63581 12.6932 4.68405 16.9439C3.70172 15.494 3.17202 13.7822 3.17202 12.0013C3.17202 7.13278 7.13278 3.17202 12.0013 3.17202ZM5.41504 17.8809C8.92225 13.947 15.0812 13.9479 18.5873 17.8809C15.0683 21.8178 8.93553 21.8191 5.41504 17.8809Z"/>
<path d="M12.0014 12.5873C13.9401 12.5873 15.5174 11.01 15.5174 9.07126V7.89924C15.5174 5.96052 13.9401 4.38318 12.0014 4.38318C10.0626 4.38318 8.48529 5.96052 8.48529 7.89924V9.07126C8.48529 11.01 10.0626 12.5873 12.0014 12.5873ZM9.65731 7.89924C9.65731 6.60666 10.7088 5.5552 12.0014 5.5552C13.2939 5.5552 14.3454 6.60666 14.3454 7.89924V9.07126C14.3454 10.3638 13.2939 11.4153 12.0014 11.4153C10.7088 11.4153 9.65731 10.3638 9.65731 9.07126V7.89924Z"/>
</mask>
<path d="M22.0025 12.0013C22.0025 6.47367 17.5294 2 12.0013 2C6.47367 2 2 6.47306 2 12.0013C2 17.4798 6.43567 22.0025 12.0013 22.0025C17.5439 22.0025 22.0025 17.505 22.0025 12.0013ZM12.0013 3.17202C16.8697 3.17202 20.8305 7.13278 20.8305 12.0013C20.8305 13.7822 20.3008 15.494 19.3184 16.9439C15.3739 12.7008 8.63581 12.6932 4.68405 16.9439C3.70172 15.494 3.17202 13.7822 3.17202 12.0013C3.17202 7.13278 7.13278 3.17202 12.0013 3.17202ZM5.41504 17.8809C8.92225 13.947 15.0812 13.9479 18.5873 17.8809C15.0683 21.8178 8.93553 21.8191 5.41504 17.8809Z" stroke="black" stroke-width="2.5" mask="url(#path-1-inside-1_9256_39786)"/>
<path d="M12.0014 12.5873C13.9401 12.5873 15.5174 11.01 15.5174 9.07126V7.89924C15.5174 5.96052 13.9401 4.38318 12.0014 4.38318C10.0626 4.38318 8.48529 5.96052 8.48529 7.89924V9.07126C8.48529 11.01 10.0626 12.5873 12.0014 12.5873ZM9.65731 7.89924C9.65731 6.60666 10.7088 5.5552 12.0014 5.5552C13.2939 5.5552 14.3454 6.60666 14.3454 7.89924V9.07126C14.3454 10.3638 13.2939 11.4153 12.0014 11.4153C10.7088 11.4153 9.65731 10.3638 9.65731 9.07126V7.89924Z" stroke="black" stroke-width="2.5" mask="url(#path-1-inside-1_9256_39786)"/>
</svg>
