<svg width="16" height="16" viewBox="0 0 16 16" fill="none" xmlns="http://www.w3.org/2000/svg">
<g clip-path="url(#clip0_481_3507)">
<path d="M11.3334 1.33337H13.1134C13.4907 1.3267 13.8573 1.45879 14.1436 1.70458C14.43 1.95037 14.6161 2.29274 14.6667 2.6667V7.33337C14.6161 7.70733 14.43 8.0497 14.1436 8.29549C13.8573 8.54128 13.4907 8.67338 13.1134 8.6667H11.3334M6.66669 10V12.6667C6.66669 13.1971 6.8774 13.7058 7.25247 14.0809C7.62755 14.456 8.13625 14.6667 8.66669 14.6667L11.3334 8.6667V1.33337H3.81335C3.4918 1.32974 3.17977 1.44243 2.93475 1.6507C2.68973 1.85897 2.52824 2.14877 2.48002 2.4667L1.56002 8.4667C1.53102 8.6578 1.5439 8.85292 1.59779 9.03854C1.65168 9.22416 1.74529 9.39584 1.87211 9.54169C1.99894 9.68755 2.15597 9.80408 2.33231 9.88323C2.50864 9.96237 2.70008 10.0022 2.89335 10H6.66669Z" stroke="#1C1C1C" stroke-width="1.25" stroke-linecap="round" stroke-linejoin="round"/>
</g>
<defs>
<clipPath id="clip0_481_3507">
<rect width="16" height="16" fill="white"/>
</clipPath>
</defs>
</svg>
