<svg width="24" height="24" viewBox="0 0 24 24" fill="none" xmlns="http://www.w3.org/2000/svg">
<path d="M11.9998 15.325V12.475M7.47294 12.8174L9.6006 11.1827M14.3993 11.1827L16.527 12.8174M6.7619 15.325C6.7619 16.6367 5.69592 17.7 4.38095 17.7C3.06599 17.7 2 16.6367 2 15.325C2 14.0133 3.06599 12.95 4.38095 12.95C5.69592 12.95 6.7619 14.0133 6.7619 15.325ZM14.381 19.125C14.381 20.4367 13.315 21.5 12 21.5C10.685 21.5 9.61905 20.4367 9.61905 19.125C9.61905 17.8133 10.685 16.75 12 16.75C13.315 16.75 14.381 17.8133 14.381 19.125ZM22 15.325C22 16.6367 20.934 17.7 19.619 17.7C18.3041 17.7 17.2381 16.6367 17.2381 15.325C17.2381 14.0133 18.3041 12.95 19.619 12.95C20.934 12.95 22 14.0133 22 15.325ZM15.8095 6.3C15.8095 8.39868 14.1039 10.1 12 10.1C9.89606 10.1 8.19048 8.39868 8.19048 6.3C8.19048 4.20132 9.89606 2.5 12 2.5C14.1039 2.5 15.8095 4.20132 15.8095 6.3Z" stroke="black" stroke-width="1.25" stroke-linecap="round"/>
</svg>
