<svg width="24" height="24" viewBox="0 0 24 24" fill="none" xmlns="http://www.w3.org/2000/svg">
<path d="M5 14.9999H4C3.46957 14.9999 2.96086 14.7892 2.58579 14.4142C2.21071 14.0391 2 13.5304 2 12.9999V3.99994C2 3.46951 2.21071 2.9608 2.58579 2.58573C2.96086 2.21065 3.46957 1.99994 4 1.99994H13C13.5304 1.99994 14.0391 2.21065 14.4142 2.58573C14.7893 2.9608 15 3.46951 15 3.99994V4.99994M11 8.99994H20C21.1046 8.99994 22 9.89537 22 10.9999V19.9999C22 21.1045 21.1046 21.9999 20 21.9999H11C9.89543 21.9999 9 21.1045 9 19.9999V10.9999C9 9.89537 9.89543 8.99994 11 8.99994Z" stroke="#1C1C1C" stroke-width="1.25" stroke-linecap="round" stroke-linejoin="round"/>
</svg>
