<svg width="24" height="24" viewBox="0 0 24 24" fill="none" xmlns="http://www.w3.org/2000/svg">
<path d="M18.5626 12.1251C18.8733 12.1251 19.1251 11.8732 19.1251 11.5626C19.1251 11.2519 18.8733 11.0001 18.5626 11.0001C18.252 11.0001 18.0001 11.2519 18.0001 11.5626C18.0001 11.8732 18.252 12.1251 18.5626 12.1251Z" fill="#1C1C1C"/>
<path d="M4.56262 12.1251C4.87328 12.1251 5.12512 11.8732 5.12512 11.5626C5.12512 11.2519 4.87328 11.0001 4.56262 11.0001C4.25196 11.0001 4.00012 11.2519 4.00012 11.5626C4.00012 11.8732 4.25196 12.1251 4.56262 12.1251Z" fill="#1C1C1C"/>
<path d="M18.5626 12.1251C18.8733 12.1251 19.1251 11.8732 19.1251 11.5626C19.1251 11.2519 18.8733 11.0001 18.5626 11.0001C18.252 11.0001 18.0001 11.2519 18.0001 11.5626C18.0001 11.8732 18.252 12.1251 18.5626 12.1251Z" stroke="#1C1C1C" stroke-width="1.25" stroke-linecap="round" stroke-linejoin="round"/>
<path d="M4.56262 12.1251C4.87328 12.1251 5.12512 11.8732 5.12512 11.5626C5.12512 11.2519 4.87328 11.0001 4.56262 11.0001C4.25196 11.0001 4.00012 11.2519 4.00012 11.5626C4.00012 11.8732 4.25196 12.1251 4.56262 12.1251Z" stroke="#1C1C1C" stroke-width="1.25" stroke-linecap="round" stroke-linejoin="round"/>
<path d="M11.5626 12.1251C11.8733 12.1251 12.1251 11.8732 12.1251 11.5626C12.1251 11.2519 11.8733 11.0001 11.5626 11.0001C11.252 11.0001 11.0001 11.2519 11.0001 11.5626C11.0001 11.8732 11.252 12.1251 11.5626 12.1251Z" fill="#FF3636" stroke="#FF3636" stroke-width="1.25" stroke-linecap="round" stroke-linejoin="round"/>
</svg>
