<svg width="48" height="48" viewBox="0 0 48 48" fill="none" xmlns="http://www.w3.org/2000/svg">
<g filter="url(#filter0_d_3130_9653)">
<circle cx="24" cy="21" r="20" fill="#1C1C1C"/>
<path d="M17 19.6363V28.9998C17 30.1043 17.8954 30.9998 19 30.9998H29C30.1046 30.9998 31 30.1043 31 28.9998V19.6363M17 19.6363V12.9998C17 11.8952 17.8954 10.9998 19 10.9998H29C30.1046 10.9998 31 11.8952 31 12.9998V19.6363M17 19.6363C17.0208 20.2424 17.45 21.4545 19 21.4545C20.55 21.4545 26.3125 21.4545 29 21.4545C29.6667 21.4545 31 21.0909 31 19.6363" stroke="white" stroke-width="1.25" stroke-linecap="round" stroke-linejoin="round"/>
<line x1="20.625" y1="24.375" x2="27.375" y2="24.375" stroke="white" stroke-width="1.25" stroke-linecap="round"/>
<path d="M12 37H36C36 37 31.5529 38.9787 29.25 41C27.0039 42.9714 24.5 47 24.5 47C24.5 47 21.6682 42.9611 19.25 41C16.7384 38.9632 12 37 12 37Z" fill="#1C1C1C"/>
</g>
<defs>
<filter id="filter0_d_3130_9653" x="-4" y="-3" width="56" height="56" filterUnits="userSpaceOnUse" color-interpolation-filters="sRGB">
<feFlood flood-opacity="0" result="BackgroundImageFix"/>
<feColorMatrix in="SourceAlpha" type="matrix" values="0 0 0 0 0 0 0 0 0 0 0 0 0 0 0 0 0 0 127 0" result="hardAlpha"/>
<feOffset dy="1"/>
<feGaussianBlur stdDeviation="2"/>
<feComposite in2="hardAlpha" operator="out"/>
<feColorMatrix type="matrix" values="0 0 0 0 0 0 0 0 0 0 0 0 0 0 0 0 0 0 0.12 0"/>
<feBlend mode="normal" in2="BackgroundImageFix" result="effect1_dropShadow_3130_9653"/>
<feBlend mode="normal" in="SourceGraphic" in2="effect1_dropShadow_3130_9653" result="shape"/>
</filter>
</defs>
</svg>
