<svg width="24" height="24" viewBox="0 0 24 24" fill="none" xmlns="http://www.w3.org/2000/svg">
<path d="M23.0001 4.00004V10M23.0001 10H17.0001M23.0001 10L18.3701 5.64004C16.9907 4.25978 15.2001 3.36523 13.2681 3.09119C11.3361 2.81714 9.36729 3.17846 7.65848 4.12068C5.94966 5.06291 4.59337 6.53499 3.79399 8.31511C2.9946 10.0952 2.79543 12.0869 3.22649 13.9901C3.65755 15.8933 4.69548 17.6048 6.18388 18.8667C7.67228 20.1287 9.53051 20.8727 11.4785 20.9866C13.4266 21.1006 15.3589 20.5783 16.9843 19.4986C18.6097 18.4188 19.8401 16.84 20.4901 15" stroke="#1C1C1C" stroke-width="1.25" stroke-linecap="round" stroke-linejoin="round"/>
</svg>
