<svg width="32" height="32" viewBox="0 0 32 32" fill="none" xmlns="http://www.w3.org/2000/svg">
<path d="M16.0283 14.2637C15.8528 12.0673 14.981 10.2696 14.0097 9.37731C14.5778 9.09328 15.1724 8.32586 15.137 7.84692C13.3207 8.54475 9.71395 7.45618 9.42332 9.09912C9.36219 9.44679 9.52022 9.97674 9.69097 10.1291C9.72146 10.0189 9.88095 9.65841 10.3837 9.5776C12.9248 9.17114 15.0463 13.3171 13.1313 14.9934C12.1217 15.9596 11.3053 16.2493 11.0233 16.2734C11.0233 16.2734 9.5127 15.3695 9.5127 14.4762C9.5127 13.9624 9.72854 13.4991 10.0747 13.1665C10.1485 13.0966 10.1386 12.978 10.053 12.9227C10.0154 12.8989 9.97813 12.8745 9.94111 12.8497C6.93678 10.8282 4.20007 6.14648 3.90519 5.6322M3.90519 5.6322C3.89149 5.6082 3.8586 5.60334 3.83836 5.62192L3.90519 5.6322ZM3.90519 5.6322C2.23135 7.84886 0.635298 13.9257 7.64181 20.4998C8.10601 21.0526 9.17695 21.0638 9.83246 20.2641L12.7522 19.9284M12.7522 19.9284V21.5767C12.9277 22.6269 13.6704 23.0085 14.0197 23.068C14.4327 23.3466 14.8522 23.8956 15.1683 24.8114C13.6149 25.2096 11.6645 26.3065 11.2699 27.5039C11.118 27.9662 11.6198 28.5964 12.2293 28.7234C13.1731 28.9561 14.4155 29.319 16.0283 29.3281M12.7522 19.9284C11.2369 19.8472 9.97501 21.3084 11.624 23.763C11.7688 23.995 10.2229 24.3667 9.49772 24.2726C8.94514 24.1868 7.83997 24.0948 7.83997 24.4133M7.83997 24.4133C7.83997 24.4133 5.06469 21.6375 5.04163 21.6047L7.83997 24.4133ZM7.83997 24.4133L9.27626 25.8246L10.0109 26.5465L7.83997 24.4133ZM15.9748 14.3892C16.1502 12.2103 17.0224 10.4268 17.9938 9.54167C17.4255 9.25991 16.831 8.49861 16.8662 8.02349C18.683 8.71576 22.2906 7.63588 22.5812 9.2657C22.6424 9.61061 22.4843 10.1363 22.3136 10.2874C22.283 10.1781 22.1236 9.82052 21.6207 9.74036C19.079 9.33715 16.957 13.45 18.8724 15.1129C19.8822 16.0715 20.6989 16.3588 20.981 16.3827C20.981 16.3827 22.4919 15.486 22.4919 14.5999C22.4919 14.0901 22.276 13.6306 21.9297 13.3007C21.856 13.2313 21.8658 13.1136 21.9514 13.0588C21.989 13.0351 22.0264 13.011 22.0633 12.9864C25.0684 10.981 27.8058 6.33661 28.1007 5.82645M28.1007 5.82645C28.1144 5.80264 28.1473 5.79781 28.1675 5.81625L28.1007 5.82645ZM28.1007 5.82645C29.7749 8.02542 31.3713 14.0537 24.3632 20.5753C23.8989 21.1238 22.8277 21.135 22.172 20.3417L19.2517 20.0085M19.2517 20.0085V21.6439C19.0761 22.6855 18.3332 23.0641 17.9839 23.1231C17.5707 23.3995 17.1511 23.9442 16.835 24.8527C18.3889 25.2477 20.3396 26.3357 20.7343 27.5237C20.8862 27.9823 20.3843 28.6075 19.7746 28.7334C18.8306 28.9644 17.5879 29.3243 15.9748 29.3334M19.2517 20.0085C20.7674 19.928 22.0295 21.3776 20.3801 23.8125C20.2352 24.0428 22.759 24.9459 23.4844 24.8527M17.3057 5.86171H14.5592C14.5592 5.86171 14.0781 5.0841 13.9576 4.69899C13.5244 3.31306 14.0774 2.66669 14.8867 2.66669H16.9776C17.7871 2.66669 18.3399 3.31306 17.9069 4.69899C17.8515 4.87615 17.7196 5.13647 17.5935 5.36524L17.3057 5.86171ZM26.5628 24.3736C26.5628 25.246 25.9281 25.9532 25.1453 25.9532C24.3625 25.9532 23.7279 25.246 23.7279 24.3736C23.7279 23.5013 24.3625 22.7942 25.1453 22.7942C25.9281 22.7942 26.5628 23.5013 26.5628 24.3736Z" stroke="#1C1C1C" stroke-width="1.25" stroke-linecap="round" stroke-linejoin="round"/>
</svg>
