<svg width="16" height="16" viewBox="0 0 16 16" fill="none" xmlns="http://www.w3.org/2000/svg">
<mask id="path-1-inside-1_8826_38861" fill="white">
<path d="M7.29289 0.498123C7.68342 0.107599 8.31658 0.107598 8.70711 0.498122L11.0641 2.85514C11.4547 3.24567 11.4547 3.87883 11.0641 4.26936L8.70711 6.62638C8.31658 7.01691 7.68342 7.01691 7.29289 6.62638L4.93587 4.26936C4.54535 3.87884 4.54535 3.24567 4.93587 2.85515L7.29289 0.498123Z"/>
<path d="M2.85539 4.93562C3.24592 4.5451 3.87908 4.5451 4.26961 4.93562L6.62663 7.29264C7.01715 7.68317 7.01715 8.31633 6.62663 8.70686L4.26961 11.0639C3.87908 11.4544 3.24592 11.4544 2.85539 11.0639L0.498371 8.70686C0.107847 8.31634 0.107846 7.68317 0.49837 7.29265L2.85539 4.93562Z"/>
<path d="M7.29289 9.37312C7.68342 8.9826 8.31658 8.9826 8.70711 9.37312L11.0641 11.7301C11.4547 12.1207 11.4547 12.7538 11.0641 13.1444L8.70711 15.5014C8.31658 15.8919 7.68342 15.8919 7.29289 15.5014L4.93587 13.1444C4.54535 12.7538 4.54535 12.1207 4.93587 11.7301L7.29289 9.37312Z"/>
<path d="M11.7304 4.93562C12.1209 4.5451 12.7541 4.5451 13.1446 4.93562L15.5016 7.29264C15.8922 7.68317 15.8922 8.31633 15.5016 8.70686L13.1446 11.0639C12.7541 11.4544 12.1209 11.4544 11.7304 11.0639L9.37337 8.70686C8.98285 8.31634 8.98285 7.68317 9.37337 7.29265L11.7304 4.93562Z"/>
</mask>
<path d="M7.29289 0.498123C7.68342 0.107599 8.31658 0.107598 8.70711 0.498122L11.0641 2.85514C11.4547 3.24567 11.4547 3.87883 11.0641 4.26936L8.70711 6.62638C8.31658 7.01691 7.68342 7.01691 7.29289 6.62638L4.93587 4.26936C4.54535 3.87884 4.54535 3.24567 4.93587 2.85515L7.29289 0.498123Z" stroke="white" stroke-width="2.5" mask="url(#path-1-inside-1_8826_38861)"/>
<path d="M2.85539 4.93562C3.24592 4.5451 3.87908 4.5451 4.26961 4.93562L6.62663 7.29264C7.01715 7.68317 7.01715 8.31633 6.62663 8.70686L4.26961 11.0639C3.87908 11.4544 3.24592 11.4544 2.85539 11.0639L0.498371 8.70686C0.107847 8.31634 0.107846 7.68317 0.49837 7.29265L2.85539 4.93562Z" stroke="white" stroke-width="2.5" mask="url(#path-1-inside-1_8826_38861)"/>
<path d="M7.29289 9.37312C7.68342 8.9826 8.31658 8.9826 8.70711 9.37312L11.0641 11.7301C11.4547 12.1207 11.4547 12.7538 11.0641 13.1444L8.70711 15.5014C8.31658 15.8919 7.68342 15.8919 7.29289 15.5014L4.93587 13.1444C4.54535 12.7538 4.54535 12.1207 4.93587 11.7301L7.29289 9.37312Z" stroke="white" stroke-width="2.5" mask="url(#path-1-inside-1_8826_38861)"/>
<path d="M11.7304 4.93562C12.1209 4.5451 12.7541 4.5451 13.1446 4.93562L15.5016 7.29264C15.8922 7.68317 15.8922 8.31633 15.5016 8.70686L13.1446 11.0639C12.7541 11.4544 12.1209 11.4544 11.7304 11.0639L9.37337 8.70686C8.98285 8.31634 8.98285 7.68317 9.37337 7.29265L11.7304 4.93562Z" stroke="white" stroke-width="2.5" mask="url(#path-1-inside-1_8826_38861)"/>
</svg>
