<svg width="16" height="16" viewBox="0 0 16 16" fill="none" xmlns="http://www.w3.org/2000/svg">
<path d="M4.37358 7.23655V8.0655M4.37358 8.0655V8.89444M4.37358 8.0655H3.6233M4.37358 8.0655H5.12386M10.2678 11.4H12.2667C13.5168 11.4 14.4605 10.266 14.2335 9.03674L13.6696 5.98364C13.6696 5.65138 13.5501 5.33272 13.3375 5.09777C13.1248 4.86282 12.8364 4.73083 12.5357 4.73083H3.46426C3.16352 4.73083 2.8751 4.86282 2.66245 5.09777C2.4498 5.33272 2.33033 5.65138 2.33033 5.98364L1.76644 9.03675C1.53939 10.266 2.4831 11.4 3.73317 11.4H5.73211L6.86603 9.52077H9.13388L10.2678 11.4ZM12.3766 8.06548C12.3766 8.6759 11.9287 9.17075 11.3762 9.17075C10.8237 9.17075 10.3758 8.6759 10.3758 8.06548C10.3758 7.45506 10.8237 6.96022 11.3762 6.96022C11.9287 6.96022 12.3766 7.45506 12.3766 8.06548Z" stroke="#1C1C1C" stroke-width="1.25" stroke-linecap="round" stroke-linejoin="round"/>
</svg>
