<svg width="24" height="24" viewBox="0 0 24 24" fill="none" xmlns="http://www.w3.org/2000/svg">
<path d="M5.7966 9.47861L6.33137 7.06105C6.57626 5.95395 7.68689 5.28511 8.77917 5.58694L17.2251 7.92074C18.0699 8.15416 18.5679 9.03975 18.3284 9.88247M20.369 9.48384L20.4601 9.26602C20.8835 8.25274 20.4206 7.06608 19.4231 6.60742L13.3958 3.8362C12.3932 3.37523 11.2284 3.82305 10.793 4.83692L10.2719 6.05006M14.6327 15.3507C14.6327 16.707 13.5666 17.8064 12.2514 17.8064C10.9363 17.8064 9.87018 16.707 9.87018 15.3507C9.87018 13.9945 10.9363 12.8951 12.2514 12.8951C13.5666 12.8951 14.6327 13.9945 14.6327 15.3507ZM4.25031 21.2444H20.2528C21.3574 21.2444 22.2528 20.349 22.2528 19.2444V11.4572C22.2528 10.3527 21.3574 9.45725 20.2528 9.45725H4.25031C3.14574 9.45725 2.25031 10.3527 2.25031 11.4572V19.2444C2.25031 20.349 3.14574 21.2444 4.25031 21.2444Z" stroke="#1C1C1C" stroke-width="1.25"/>
</svg>
