<svg width="20" height="16" viewBox="0 0 20 16" fill="none" xmlns="http://www.w3.org/2000/svg">
<path d="M18.558 1.77614V6.44404M18.558 6.44404H13.8901M18.558 6.44404L14.9482 3.05203C14.112 2.21548 13.0776 1.60437 11.9414 1.27572C10.8052 0.947078 9.60428 0.91161 8.45067 1.17263C7.29706 1.43365 6.22837 1.98264 5.34433 2.76839C4.46028 3.55414 3.78969 4.55104 3.39512 5.66605M1.44238 14.2239V9.55596M1.44238 9.55596H6.11028M1.44238 9.55596L5.05222 12.948C5.88836 13.7845 6.92278 14.3956 8.05897 14.7243C9.19517 15.0529 10.3961 15.0884 11.5497 14.8274C12.7033 14.5664 13.772 14.0174 14.656 13.2316C15.5401 12.4459 16.2107 11.449 16.6053 10.3339" stroke="#D3D3D3" stroke-width="1.25" stroke-linecap="round" stroke-linejoin="round"/>
</svg>
