<svg width="24" height="24" viewBox="0 0 24 24" fill="none" xmlns="http://www.w3.org/2000/svg">
<path d="M13.5 3.75H6.9C6.46239 3.75 6.04271 3.92384 5.73327 4.23327C5.42384 4.54271 5.25 4.96239 5.25 5.4V18.6C5.25 19.0376 5.42384 19.4573 5.73327 19.7667C6.04271 20.0762 6.46239 20.25 6.9 20.25H16.8C17.2376 20.25 17.6573 20.0762 17.9667 19.7667C18.2762 19.4573 18.45 19.0376 18.45 18.6V8.7M13.5 3.75L18.45 8.7M13.5 3.75V8.7H18.45M15.15 12.825H8.55M15.15 16.125H8.55M10.2 9.525H8.55" stroke="#3D3D45" stroke-width="1.25" stroke-linecap="round" stroke-linejoin="round"/>
</svg>
