<svg width="46" height="42" viewBox="0 0 46 42" fill="none" xmlns="http://www.w3.org/2000/svg">
<path d="M45.0829 10.5815V16.5512M45.0829 16.5512L39.1132 16.5512M45.0829 16.5512L34.7941 6.86235C31.7287 3.7951 27.7496 1.80721 23.4562 1.19823C19.1628 0.589244 14.7878 1.39216 10.9904 3.48599C7.19304 5.57982 4.17906 8.85112 2.40265 12.8069C0.62624 16.7628 0.183641 21.1888 1.14155 25.418C2.09945 29.6473 4.40597 33.4506 7.71352 36.2549C11.0211 39.0592 15.1505 40.7126 19.4794 40.9658C23.8084 41.2191 28.1024 40.0585 31.7144 37.659C35.3264 35.2595 38.0606 31.751 39.5052 27.6623" stroke="#FF3636" stroke-width="1.25" stroke-linecap="round" stroke-linejoin="round"/>
<path d="M34.5 21C34.5 28.4558 28.4558 34.5 21 34.5M34.5 21C34.5 13.5442 28.4558 7.5 21 7.5M34.5 21H7.5M21 34.5C13.5442 34.5 7.5 28.4558 7.5 21M21 34.5C24.3767 30.8032 26.2957 26.0058 26.4 21C26.2957 15.9942 24.3767 11.1968 21 7.5M21 34.5C17.6233 30.8032 15.7043 26.0058 15.6 21C15.7043 15.9942 17.6233 11.1968 21 7.5M7.5 21C7.5 13.5442 13.5442 7.5 21 7.5" stroke="white" stroke-width="1.25" stroke-linecap="round" stroke-linejoin="round"/>
</svg>
