<svg width="24" height="24" viewBox="0 0 24 24" fill="none" xmlns="http://www.w3.org/2000/svg">
<path d="M12 22.2C17.6333 22.2 22.2 17.6333 22.2 12C22.2 6.36668 17.6333 1.79999 12 1.79999C6.36668 1.79999 1.79999 6.36668 1.79999 12C1.79999 17.6333 6.36668 22.2 12 22.2Z" stroke="#1C1C1C" stroke-width="1.25" stroke-linecap="round" stroke-linejoin="round"/>
<path d="M12.0405 14.2321L11.5002 14.5462C11.6127 14.7398 11.8202 14.8584 12.0442 14.8571C12.2681 14.8558 12.4743 14.7348 12.5845 14.5398L12.0405 14.2321ZM6.16479 14.7804C6.04359 15.1036 6.20735 15.4638 6.53055 15.585C6.85375 15.7062 7.21401 15.5425 7.33521 15.2193L6.16479 14.7804ZM9 8.99982L9.54039 8.6858C9.41906 8.47701 9.18831 8.35679 8.94767 8.37701C8.70704 8.39723 8.49958 8.55426 8.41479 8.78036L9 8.99982ZM15 8.99982L15.5852 8.78036C15.5 8.55303 15.2908 8.39563 15.0487 8.37672C14.8066 8.3578 14.5755 8.48078 14.456 8.69212L15 8.99982ZM16.6648 15.2193C16.786 15.5425 17.1463 15.7062 17.4695 15.585C17.7927 15.4638 17.9564 15.1036 17.8352 14.7804L16.6648 15.2193ZM12.5809 13.9181L9.54039 8.6858L8.45961 9.31384L11.5002 14.5462L12.5809 13.9181ZM8.41479 8.78036L6.16479 14.7804L7.33521 15.2193L9.58521 9.21927L8.41479 8.78036ZM12.5845 14.5398L15.544 9.30751L14.456 8.69212L11.4965 13.9244L12.5845 14.5398ZM14.4148 9.21927L16.6648 15.2193L17.8352 14.7804L15.5852 8.78036L14.4148 9.21927Z" fill="#1C1C1C"/>
</svg>
