<svg width="24" height="24" viewBox="0 0 24 24" fill="none" xmlns="http://www.w3.org/2000/svg">
<path d="M12.0405 14.2322L11.5002 14.5462C11.6127 14.7398 11.8202 14.8585 12.0442 14.8572C12.2681 14.8559 12.4743 14.7348 12.5845 14.5399L12.0405 14.2322ZM6.16479 14.7804C6.04359 15.1036 6.20735 15.4638 6.53055 15.585C6.85375 15.7062 7.21401 15.5425 7.33521 15.2193L6.16479 14.7804ZM9 8.99984L9.54038 8.68582C9.41906 8.47703 9.18831 8.35682 8.94767 8.37704C8.70704 8.39725 8.49958 8.55428 8.41479 8.78039L9 8.99984ZM15 8.99984L15.5852 8.78039C15.5 8.55305 15.2908 8.39566 15.0487 8.37674C14.8066 8.35783 14.5755 8.48081 14.456 8.69214L15 8.99984ZM16.6648 15.2193C16.786 15.5425 17.1463 15.7062 17.4695 15.585C17.7927 15.4638 17.9564 15.1036 17.8352 14.7804L16.6648 15.2193ZM12.5809 13.9182L9.54038 8.68582L8.45962 9.31386L11.5002 14.5462L12.5809 13.9182ZM8.41479 8.78039L6.16479 14.7804L7.33521 15.2193L9.58521 9.21929L8.41479 8.78039ZM12.5845 14.5399L15.544 9.30754L14.456 8.69214L11.4965 13.9245L12.5845 14.5399ZM14.4148 9.21929L16.6648 15.2193L17.8352 14.7804L15.5852 8.78039L14.4148 9.21929ZM21.575 12C21.575 17.2881 17.2881 21.575 12 21.575V22.825C17.9785 22.825 22.825 17.9785 22.825 12H21.575ZM12 21.575C6.71186 21.575 2.42499 17.2881 2.42499 12H1.17499C1.17499 17.9785 6.0215 22.825 12 22.825V21.575ZM2.42499 12C2.42499 6.71189 6.71186 2.42501 12 2.42501V1.17501C6.0215 1.17501 1.17499 6.02153 1.17499 12H2.42499ZM12 2.42501C17.2881 2.42501 21.575 6.71189 21.575 12H22.825C22.825 6.02153 17.9785 1.17501 12 1.17501V2.42501Z" fill="#1C1C1C"/>
</svg>
