<svg width="48" height="48" viewBox="0 0 48 48" fill="none" xmlns="http://www.w3.org/2000/svg">
<path d="M46.013 14.6155V19.9928M46.013 19.9928L40.6357 19.9928M46.013 19.9928L36.7451 11.2653C33.984 8.50248 30.3997 6.71185 26.5324 6.1633C22.665 5.61475 18.7242 6.33799 15.3036 8.22404C11.8831 10.1101 9.1682 13.0568 7.56808 16.62C5.96795 20.1833 5.56927 24.1701 6.43212 27.9797C7.29497 31.7892 9.37259 35.2151 12.3519 37.7412C15.3313 40.2672 19.0509 41.7565 22.9503 41.9846C26.8496 42.2127 30.7175 41.1673 33.9711 39.0059C37.2246 36.8445 39.6876 33.6842 40.9887 30.0013" stroke="#FF3636" stroke-width="1.25" stroke-linecap="round" stroke-linejoin="round"/>
<path d="M36.1603 24.0001C36.1603 30.716 30.7159 36.1604 23.9999 36.1604M36.1603 24.0001C36.1603 17.2841 30.7159 11.8397 23.9999 11.8397M36.1603 24.0001H11.8396M23.9999 36.1604C17.284 36.1604 11.8396 30.716 11.8396 24.0001M23.9999 36.1604C27.0416 32.8305 28.7701 28.5091 28.8641 24.0001C28.7701 19.491 27.0416 15.1697 23.9999 11.8397M23.9999 36.1604C20.9583 32.8305 19.2297 28.5091 19.1358 24.0001C19.2297 19.491 20.9583 15.1697 23.9999 11.8397M11.8396 24.0001C11.8396 17.2841 17.284 11.8397 23.9999 11.8397" stroke="white" stroke-width="1.25" stroke-linecap="round" stroke-linejoin="round"/>
</svg>
