<svg width="40" height="40" viewBox="0 0 40 40" fill="none" xmlns="http://www.w3.org/2000/svg">
<rect width="40" height="40" rx="20" fill="#A5D7A7"/>
<path d="M11.476 9.47961C12.1033 9.7933 12.4316 10.3357 12.4884 11.0238C12.5208 11.4164 12.3718 11.7946 12.2131 12.1551C11.9847 12.6739 11.7041 13.4649 11.8042 14.0445C11.9293 14.7696 12.7029 15.4567 12.7029 15.4567" stroke="white" stroke-width="1.25" stroke-linecap="round"/>
<path d="M14.3498 9.47961C14.9771 9.7933 15.3054 10.3357 15.3621 11.0238C15.3945 11.4164 15.2456 11.7946 15.0869 12.1551C14.8585 12.6739 14.5779 13.4649 14.6779 14.0445C14.8031 14.7696 15.5766 15.4567 15.5766 15.4567" stroke="white" stroke-width="1.25" stroke-linecap="round"/>
<path d="M17.2235 9.47961C17.8509 9.7933 18.1791 10.3357 18.2359 11.0238C18.2683 11.4164 18.1194 11.7946 17.9606 12.1551C17.7322 12.6739 17.4517 13.4649 17.5517 14.0445C17.6769 14.7696 18.4504 15.4567 18.4504 15.4567" stroke="white" stroke-width="1.25" stroke-linecap="round"/>
<path d="M25.0075 28.8002V30.3002C25.0075 30.5763 24.7836 30.8002 24.5075 30.8002H15.5075C15.2313 30.8002 15.0075 30.5763 15.0075 30.3002V28.8002C15.0075 28.8002 12.3082 26.2517 11.0075 23.8002C10.0169 21.9332 9.9696 18.9214 9.99159 17.7691C9.99664 17.5045 10.2141 17.3002 10.4789 17.3002H29.5229C29.793 17.3002 30.0129 17.5126 30.0119 17.7827C30.0074 18.9447 29.9036 21.9398 29.0075 23.8002C27.8031 26.3004 25.0075 28.8002 25.0075 28.8002ZM25.0075 28.8002H18.5075" stroke="white" stroke-width="1.25"/>
<path d="M15.4091 26.0567C14.6811 25.2968 14.0883 24.7888 13.2934 23.5255C12.4986 22.2622 12.3386 21.2805 12.1266 20.1045" stroke="white" stroke-width="1.25" stroke-linecap="round"/>
<path d="M21.7157 15.4567L26.383 10.0663C27.1024 9.23552 28.4072 9.2887 29.0566 10.1753V10.1753C29.5927 10.9073 29.4641 11.9305 28.7635 12.5071L25.1797 15.4567" stroke="white" stroke-width="1.25" stroke-linecap="round"/>
</svg>
