<svg width="16" height="16" viewBox="0 0 16 16" fill="none" xmlns="http://www.w3.org/2000/svg">
<path d="M7.576 1.35167L7.65193 1.97204L7.65195 1.97204L7.576 1.35167ZM4.28035 4.05197L3.67191 3.90902L3.67191 3.90904L4.28035 4.05197ZM5.7763 9.50251L5.26695 9.8647L5.26695 9.86471L5.7763 9.50251ZM7.11432 10.7634L7.40317 10.2091L7.40317 10.2091L7.11432 10.7634ZM7.41595 11.0348L7.94385 11.3694C8.08609 11.145 8.07089 10.8552 7.90594 10.6468L7.41595 11.0348ZM7.11573 11.7232L7.56058 11.2842L7.56052 11.2842L7.11573 11.7232ZM8.96733 11.5251L9.56011 11.7232C9.61626 11.5552 9.59846 11.3712 9.51115 11.2171L8.96733 11.5251ZM7.0041 14.4976C6.9089 14.8294 7.1007 15.1756 7.43249 15.2708C7.76428 15.366 8.11042 15.1742 8.20562 14.8424L7.0041 14.4976ZM8.80382 13.4169L9.09066 13.9722L9.09069 13.9722L8.80382 13.4169ZM8.80827 10.8309L9.43299 10.812L9.43294 10.8103L8.80827 10.8309ZM9.06863 10.6521L8.7595 10.1089L8.75948 10.1089L9.06863 10.6521ZM10.4135 9.26244L10.9377 9.60288L10.9377 9.60288L10.4135 9.26244ZM11.5733 6.50912L12.1814 6.65352L12.1814 6.65351L11.5733 6.50912ZM11.6982 4.05197L12.3067 3.90905L12.3067 3.90903L11.6982 4.05197ZM9.26178 1.54486L9.06942 2.13952L9.06944 2.13952L9.26178 1.54486ZM7.98893 10.8403V11.4653L7.99609 11.4652L7.98893 10.8403ZM7.50008 0.731296C5.65814 0.956723 4.072 2.20617 3.67191 3.90902L4.88878 4.19492C5.14903 3.08723 6.23748 2.14515 7.65193 1.97204L7.50008 0.731296ZM3.67191 3.90904C3.47606 4.74274 3.59337 5.82258 3.87722 6.85681C4.16514 7.90588 4.64803 8.99434 5.26695 9.8647L6.28564 9.14031C5.76491 8.40801 5.33847 7.45807 5.08265 6.52598C4.82276 5.57904 4.76192 4.73494 4.88878 4.19491L3.67191 3.90904ZM5.26695 9.86471C5.46789 10.1473 5.73728 10.4439 6.0036 10.6949C6.2626 10.9389 6.56057 11.1796 6.82546 11.3176L7.40317 10.2091C7.29004 10.1502 7.09058 10.0016 6.86087 9.78516C6.63848 9.5756 6.42786 9.3403 6.28564 9.14031L5.26695 9.86471ZM6.82546 11.3176L6.97302 11.3945L7.55074 10.286L7.40317 10.2091L6.82546 11.3176ZM6.77189 11.2283L6.92596 11.4228L7.90594 10.6468L7.75187 10.4523L6.77189 11.2283ZM6.88805 10.7003C6.86112 10.7427 6.82682 10.7897 6.77538 10.8603C6.73062 10.9217 6.66802 11.0074 6.61495 11.0954C6.56657 11.1756 6.48978 11.3149 6.4613 11.4852C6.42736 11.688 6.46287 11.9515 6.67093 12.1623L7.56052 11.2842C7.6163 11.3407 7.66117 11.4154 7.68392 11.5015C7.70547 11.5831 7.70095 11.6508 7.69416 11.6914C7.68761 11.7306 7.67748 11.7538 7.67615 11.7568C7.67442 11.7608 7.67614 11.7562 7.68529 11.741C7.70561 11.7073 7.73568 11.6649 7.78537 11.5968C7.82837 11.5378 7.89029 11.4539 7.94385 11.3694L6.88805 10.7003ZM6.67087 12.1622C6.70333 12.1951 6.78309 12.2765 6.9071 12.3395C7.02776 12.4007 7.14555 12.423 7.23745 12.4341C7.39805 12.4534 7.64094 12.4531 7.98893 12.4531V11.2031C7.80261 11.2031 7.6675 11.2029 7.56535 11.201C7.4596 11.1991 7.40971 11.1958 7.38657 11.193C7.36517 11.1904 7.40971 11.1928 7.473 11.2249C7.53965 11.2587 7.57791 11.3018 7.56058 11.2842L6.67087 12.1622ZM7.98893 12.4531C8.19754 12.4531 8.37323 12.4526 8.51362 12.4464C8.64563 12.4405 8.80003 12.4282 8.94432 12.3835C9.1192 12.3293 9.28087 12.2277 9.40118 12.059C9.49421 11.9287 9.54012 11.783 9.56011 11.7232L8.37456 11.327C8.36269 11.3625 8.35786 11.3752 8.3559 11.3798C8.35451 11.3831 8.36268 11.3624 8.38363 11.333C8.40721 11.3 8.44057 11.2648 8.48344 11.2352C8.52424 11.2071 8.55874 11.1943 8.57451 11.1895C8.59243 11.1839 8.57358 11.1924 8.45793 11.1976C8.35067 11.2024 8.2043 11.2031 7.98893 11.2031V12.4531ZM8.20562 14.8424C8.27428 14.6031 8.33805 14.4952 8.42432 14.405C8.52873 14.2959 8.70746 14.1701 9.09066 13.9722L8.51698 12.8616C8.11173 13.0709 7.77638 13.2741 7.52112 13.5409C7.24772 13.8267 7.10623 14.1417 7.0041 14.4976L8.20562 14.8424ZM9.09069 13.9722C9.94091 13.5329 10.6594 12.9716 10.6594 12.1044H9.40936C9.40936 12.1455 9.40039 12.2175 9.28198 12.3438C9.15114 12.4833 8.91537 12.6558 8.51695 12.8616L9.09069 13.9722ZM10.6594 12.1044C10.6594 11.8056 10.5247 11.5692 10.3917 11.4072C10.2592 11.2456 10.0932 11.114 9.93909 11.0089C9.63388 10.8007 9.25179 10.6161 8.96745 10.475L8.41178 11.5947C8.72719 11.7512 9.01748 11.8934 9.2347 12.0415C9.3418 12.1146 9.39956 12.1686 9.42545 12.2001C9.4509 12.2311 9.40936 12.1953 9.40936 12.1044H10.6594ZM8.9675 10.475C8.99167 10.487 9.07015 10.5286 9.142 10.6224C9.22788 10.7345 9.27961 10.891 9.25486 11.0602C9.23373 11.2045 9.16549 11.298 9.13425 11.3358C9.10018 11.377 9.06988 11.4002 9.06104 11.4069C9.045 11.4189 9.03719 11.4219 9.06521 11.4066C9.069 11.4045 9.09709 11.3895 9.12038 11.3754C9.13008 11.3695 9.16429 11.3488 9.20204 11.3178C9.21974 11.3032 9.2608 11.2683 9.30227 11.2145C9.3319 11.1762 9.43959 11.031 9.43299 10.812L8.18356 10.8497C8.17699 10.6318 8.28414 10.4878 8.31272 10.4508C8.35314 10.3984 8.39262 10.365 8.40826 10.3522C8.44192 10.3245 8.47013 10.3078 8.4723 10.3065C8.48053 10.3015 8.48743 10.2979 8.46683 10.3091C8.44606 10.3205 8.37665 10.3575 8.30961 10.4079C8.27527 10.4338 8.22212 10.4773 8.17079 10.5394C8.12228 10.598 8.04234 10.713 8.01803 10.8792C7.99008 11.0702 8.04713 11.2487 8.14976 11.3826C8.23836 11.4983 8.34502 11.5616 8.41173 11.5947L8.9675 10.475ZM9.43294 10.8103C9.43595 10.9018 9.4182 10.9758 9.40245 11.0239C9.3864 11.0728 9.36714 11.1108 9.35294 11.1358C9.32554 11.184 9.29782 11.2172 9.28493 11.232C9.25815 11.2628 9.23588 11.2815 9.23264 11.2842C9.22232 11.293 9.22162 11.2925 9.23816 11.2811C9.26742 11.261 9.31708 11.2298 9.37779 11.1952L8.75948 10.1089C8.67649 10.1561 8.59569 10.206 8.53056 10.2507C8.4999 10.2718 8.46102 10.2996 8.4244 10.3307C8.408 10.3446 8.37553 10.3729 8.34189 10.4116C8.32557 10.4303 8.29525 10.467 8.26611 10.5183C8.24462 10.5561 8.17794 10.6791 8.18361 10.8514L9.43294 10.8103ZM9.37777 11.1953C9.63507 11.0488 9.94255 10.7698 10.2011 10.5026C10.4704 10.2244 10.7479 9.895 10.9377 9.60288L9.88938 8.92199C9.75786 9.12447 9.53816 9.3902 9.30289 9.63329C9.05692 9.88743 8.85258 10.0559 8.7595 10.1089L9.37777 11.1953ZM10.9377 9.60288C11.4728 8.77898 11.9419 7.66199 12.1814 6.65352L10.9652 6.36473C10.7565 7.24375 10.3411 8.22645 9.88938 8.922L10.9377 9.60288ZM12.1814 6.65351C12.3988 5.73787 12.4705 4.6066 12.3067 3.90905L11.0898 4.1949C11.1919 4.62949 11.1594 5.5467 10.9652 6.36474L12.1814 6.65351ZM12.3067 3.90903C11.9868 2.5476 10.8455 1.40023 9.45412 0.950188L9.06944 2.13952C10.0942 2.47099 10.8815 3.30818 11.0898 4.19492L12.3067 3.90903ZM9.45414 0.950194C8.81433 0.743227 8.10682 0.657019 7.50006 0.731299L7.65195 1.97204C8.04809 1.92354 8.57117 1.97834 9.06942 2.13952L9.45414 0.950194ZM8.1458 11.3429L8.42352 11.8332L9.51115 11.2171L9.23342 10.7268L8.1458 11.3429ZM8.80111 10.2059L7.98176 10.2153L7.99609 11.4652L8.81544 11.4558L8.80111 10.2059ZM7.98893 10.2153H7.26188V11.4653H7.98893V10.2153Z" fill="#1C1C1C"/>
</svg>
