<svg width="16" height="16" viewBox="0 0 16 16" fill="none" xmlns="http://www.w3.org/2000/svg">
<path d="M7.64109 1.35498L7.71701 1.97535L7.71703 1.97535L7.64109 1.35498ZM4.34708 4.05394L3.73865 3.91099L3.73864 3.91101L4.34708 4.05394ZM5.84228 9.50175L5.33293 9.86395H5.33293L5.84228 9.50175ZM7.17963 10.762L7.46849 10.2077L7.46849 10.2077L7.17963 10.762ZM7.48112 11.0333L8.00902 11.3679C8.15126 11.1435 8.13605 10.8536 7.9711 10.6453L7.48112 11.0333ZM7.18104 11.7214L7.6259 11.2824L7.62583 11.2823L7.18104 11.7214ZM9.03172 11.5233L9.6245 11.7214C9.68065 11.5534 9.66285 11.3694 9.57553 11.2153L9.03172 11.5233ZM7.06917 14.4943C6.97397 14.8261 7.16577 15.1722 7.49756 15.2674C7.82935 15.3626 8.17549 15.1708 8.27069 14.839L7.06917 14.4943ZM8.86829 13.4142L9.15514 13.9695L9.15516 13.9694L8.86829 13.4142ZM8.87274 10.8295L9.49746 10.8106L9.4974 10.8089L8.87274 10.8295ZM9.13297 10.6507L8.82384 10.1075L8.82382 10.1075L9.13297 10.6507ZM10.4772 9.2618L11.0013 9.60224L11.0013 9.60224L10.4772 9.2618ZM11.6364 6.50986L12.2445 6.65426L12.2445 6.65425L11.6364 6.50986ZM11.7613 4.05394L12.3697 3.91101L12.3697 3.911L11.7613 4.05394ZM9.32602 1.54807L9.13366 2.14274L9.13368 2.14274L9.32602 1.54807ZM8.05381 10.8388V11.4639L8.06097 11.4638L8.05381 10.8388ZM7.56516 0.734612C5.72404 0.959939 4.13856 2.20883 3.73865 3.91099L4.95551 4.19689C5.2156 3.0899 6.30338 2.14836 7.71701 1.97535L7.56516 0.734612ZM3.73864 3.91101C3.54287 4.74436 3.66014 5.82372 3.94386 6.85746C4.23164 7.90603 4.7143 8.99399 5.33293 9.86395L6.35163 9.13955C5.83118 8.40765 5.40496 7.45823 5.14928 6.52662C4.88953 5.58018 4.82873 4.73656 4.95552 4.19687L3.73864 3.91101ZM5.33293 9.86395C5.53379 10.1464 5.80306 10.4429 6.06926 10.6938C6.32814 10.9377 6.62598 11.1782 6.89078 11.3162L7.46849 10.2077C7.35545 10.1488 7.15612 10.0004 6.92652 9.78403C6.70426 9.57458 6.49376 9.33942 6.35163 9.13955L5.33293 9.86395ZM6.89078 11.3162L7.03827 11.3931L7.61598 10.2846L7.46849 10.2077L6.89078 11.3162ZM6.83714 11.2268L6.99113 11.4213L7.9711 10.6453L7.81711 10.4509L6.83714 11.2268ZM6.95321 10.6987C6.92631 10.7412 6.89203 10.7881 6.84061 10.8587C6.79587 10.92 6.7333 11.0057 6.68025 11.0937C6.63189 11.1738 6.55511 11.3131 6.52663 11.4834C6.4927 11.6861 6.52821 11.9497 6.73625 12.1604L7.62583 11.2823C7.68162 11.3388 7.7265 11.4135 7.74925 11.4997C7.77081 11.5813 7.76629 11.649 7.75949 11.6896C7.75294 11.7288 7.74281 11.752 7.74147 11.7551C7.73974 11.7591 7.74144 11.7545 7.75059 11.7393C7.77089 11.7057 7.80094 11.6632 7.8506 11.5951C7.89358 11.5362 7.95548 11.4524 8.00902 11.3679L6.95321 10.6987ZM6.73618 12.1604C6.76863 12.1932 6.84838 12.2746 6.97238 12.3376C7.09303 12.3988 7.2108 12.4211 7.30267 12.4321C7.46321 12.4514 7.706 12.4512 8.05381 12.4512V11.2012C7.86758 11.2012 7.73255 11.2009 7.63044 11.1991C7.52475 11.1972 7.4749 11.1938 7.45179 11.1911C7.43042 11.1885 7.47497 11.1909 7.53828 11.223C7.60494 11.2569 7.64321 11.2999 7.6259 11.2824L6.73618 12.1604ZM8.05381 12.4512C8.26232 12.4512 8.43792 12.4507 8.57826 12.4444C8.7102 12.4386 8.86456 12.4263 9.00881 12.3816C9.18366 12.3274 9.34531 12.2258 9.46561 12.0572C9.55862 11.9268 9.60452 11.7812 9.6245 11.7214L8.43895 11.3253C8.42709 11.3607 8.42226 11.3734 8.42031 11.378C8.41892 11.3813 8.4271 11.3606 8.44806 11.3312C8.47165 11.2981 8.50501 11.263 8.5479 11.2334C8.58871 11.2052 8.62322 11.1924 8.639 11.1876C8.65695 11.182 8.63815 11.1905 8.52256 11.1957C8.41536 11.2005 8.26907 11.2012 8.05381 11.2012V12.4512ZM8.27069 14.839C8.33931 14.5999 8.40303 14.4921 8.48921 14.402C8.59353 14.293 8.77213 14.1673 9.15514 13.9695L8.58145 12.8589C8.1764 13.0681 7.84117 13.2712 7.586 13.5379C7.31269 13.8236 7.17126 14.1385 7.06917 14.4943L8.27069 14.839ZM9.15516 13.9694C10.005 13.5304 10.7232 12.9693 10.7232 12.1024H9.47322C9.47322 12.1433 9.46429 12.2152 9.34598 12.3414C9.21524 12.4808 8.97963 12.6532 8.58142 12.8589L9.15516 13.9694ZM10.7232 12.1024C10.7232 11.8036 10.5886 11.5672 10.4556 11.4052C10.3231 11.2438 10.1572 11.1122 10.0032 11.0071C9.69809 10.799 9.31617 10.6145 9.03197 10.4735L8.47631 11.5932C8.79156 11.7496 9.08169 11.8917 9.29878 12.0398C9.40581 12.1128 9.46352 12.1667 9.48937 12.1982C9.51478 12.2292 9.47322 12.1933 9.47322 12.1024H10.7232ZM9.03203 10.4735C9.05621 10.4855 9.1347 10.5271 9.20655 10.6209C9.29243 10.733 9.34417 10.8895 9.31941 11.0587C9.29829 11.203 9.23004 11.2965 9.19879 11.3343C9.16472 11.3755 9.13442 11.3987 9.12557 11.4054C9.10952 11.4175 9.10169 11.4204 9.1297 11.4052C9.13348 11.4031 9.16156 11.3881 9.18485 11.3739C9.19455 11.3681 9.22876 11.3474 9.26651 11.3164C9.28421 11.3018 9.32527 11.2669 9.36674 11.2131C9.39637 11.1747 9.50406 11.0296 9.49746 10.8106L8.24803 10.8483C8.24146 10.6304 8.34861 10.4864 8.37719 10.4494C8.41761 10.397 8.45709 10.3636 8.47273 10.3507C8.50639 10.3231 8.5346 10.3064 8.53677 10.3051C8.54501 10.3001 8.55191 10.2965 8.53132 10.3077C8.51056 10.319 8.44117 10.3561 8.37414 10.4065C8.3398 10.4323 8.28666 10.4758 8.23533 10.5379C8.18683 10.5966 8.10689 10.7115 8.08258 10.8777C8.05464 11.0687 8.11169 11.2472 8.21431 11.3811C8.30291 11.4968 8.40956 11.56 8.47625 11.5931L9.03203 10.4735ZM9.4974 10.8089C9.50042 10.9004 9.48267 10.9744 9.46692 11.0224C9.45087 11.0714 9.43161 11.1094 9.41741 11.1344C9.39001 11.1826 9.36228 11.2158 9.3494 11.2306C9.32262 11.2614 9.30034 11.2801 9.2971 11.2828C9.28677 11.2916 9.28607 11.2911 9.30259 11.2798C9.33183 11.2597 9.38145 11.2284 9.44213 11.1939L8.82382 10.1075C8.74087 10.1548 8.6601 10.2046 8.59499 10.2493C8.56435 10.2704 8.52548 10.2982 8.48886 10.3293C8.47246 10.3432 8.44 10.3715 8.40635 10.4101C8.39004 10.4289 8.35971 10.4656 8.33058 10.5169C8.30908 10.5547 8.24241 10.6776 8.24808 10.85L9.4974 10.8089ZM9.4421 11.1939C9.69933 11.0475 10.0067 10.7686 10.2651 10.5016C10.5342 10.2235 10.8117 9.89424 11.0013 9.60224L9.95305 8.92135C9.82161 9.12371 9.60203 9.38929 9.36689 9.63225C9.12105 9.88626 8.91683 10.0546 8.82384 10.1075L9.4421 11.1939ZM11.0013 9.60224C11.5362 8.77872 12.0051 7.66226 12.2445 6.65426L11.0283 6.36547C10.8197 7.24401 10.4046 8.2262 9.95304 8.92136L11.0013 9.60224ZM12.2445 6.65425C12.4618 5.73904 12.5335 4.60829 12.3697 3.91101L11.1528 4.19687C11.2548 4.63117 11.2224 5.54787 11.0283 6.36547L12.2445 6.65425ZM12.3697 3.911C12.05 2.55013 10.9092 1.40325 9.51836 0.953407L9.13368 2.14274C10.1579 2.47401 10.9446 3.31071 11.1528 4.19688L12.3697 3.911ZM9.51838 0.953413C8.87885 0.746538 8.17166 0.660365 7.56514 0.734614L7.71703 1.97535C8.11292 1.92689 8.6357 1.98166 9.13366 2.14274L9.51838 0.953413ZM8.21033 11.3414L8.48791 11.8314L9.57553 11.2153L9.29795 10.7253L8.21033 11.3414ZM8.86558 10.2045L8.04664 10.2139L8.06097 11.4638L8.87991 11.4544L8.86558 10.2045ZM8.05381 10.2138H7.32712V11.4638H8.05381V10.2138Z" fill="#1C1C1C"/>
</svg>
