<svg width="24" height="24" viewBox="0 0 24 24" fill="none" xmlns="http://www.w3.org/2000/svg">
<path d="M2.89844 12.4511V8.80885V5.16658L3.80633 4.25806L4.71422 3.34955L5.62254 4.25724L6.53086 5.16494L6.54082 8.79826L6.55071 12.4064M2.89844 12.4511V14.248V15.6152V16.9824M2.89844 12.4511L2 12.4519M2.89844 16.9824V18.8183V19.7167V20.6152H4.71484H6.53125V19.7167V18.8183V16.9824M2.89844 16.9824L2 16.9999M21.1016 12.4511V8.80822V5.16533L20.193 4.25744L19.2845 3.34955L18.3768 4.25787L17.4691 5.16615L17.4592 8.79888L17.4492 12.4316M21.1016 12.4511V14.248V15.6152V16.9824V16.9999M21.1016 12.4511L22 12.4519M17.4492 12.4316L17.4688 14.248V15.6152V16.9824M17.4492 12.4316L13.8359 12.4519M13.8359 12.4519V8.8106V5.16931L12.918 4.24967L12 3.33002L11.082 4.24967L10.1641 5.16931V8.8106V12.4519M13.8359 12.4519V14.248V15.6152V16.9824M10.1641 12.4519V14.248V15.6152V16.9824M10.1641 12.4519L6.55071 12.4064M10.1641 16.9824V18.8183V19.7167V20.6152H12H13.8359V19.7167V16.9824M10.1641 16.9824H6.53125M6.53125 16.9824V15.6152V14.248L6.55078 12.4316L6.55071 12.4064M17.4688 16.9824V18.8183V19.7167V20.6152H19.2852H21.1016V19.7167V18.8183V16.9999M17.4688 16.9824H13.8359M21.1016 16.9999H22" stroke="#1C1C1C" stroke-width="1.25" stroke-linecap="round" stroke-linejoin="round"/>
</svg>
