<svg width="16" height="16" viewBox="0 0 16 16" fill="none" xmlns="http://www.w3.org/2000/svg">
<path d="M9.15341 14.0001C9.03621 14.2021 8.86798 14.3698 8.66557 14.4864C8.46315 14.603 8.23367 14.6644 8.00008 14.6644C7.76649 14.6644 7.53701 14.603 7.3346 14.4864C7.13219 14.3698 6.96395 14.2021 6.84675 14.0001M12.4201 8.66675C12.1235 7.58102 11.9821 6.45878 12.0001 5.33341C12.0012 4.60879 11.8054 3.89748 11.4336 3.27548C11.0619 2.65347 10.5282 2.14412 9.8895 1.80184C9.2508 1.45956 8.53113 1.29721 7.80735 1.33213C7.08356 1.36704 6.38286 1.59791 5.78008 2.00008M4.17341 4.17341C4.05759 4.54916 3.99916 4.94023 4.00008 5.33341C4.00008 10.0001 2.00008 11.3334 2.00008 11.3334H11.3334M0.666748 0.666748L15.3334 15.3334" stroke="#1C1C1C" stroke-width="1.25" stroke-linecap="round" stroke-linejoin="round"/>
</svg>
