<svg width="32" height="32" viewBox="0 0 32 32" fill="none" xmlns="http://www.w3.org/2000/svg">
<path fill-rule="evenodd" clip-rule="evenodd" d="M8.25891 7H23.5065C24.7519 7.00311 25.7598 8.01355 25.7598 9.25891V17.5886C25.7598 18.8362 24.7484 19.8475 23.5009 19.8475H16.3232V23.3206H21.338C21.6499 23.3206 21.9027 23.5734 21.9027 23.8853C21.9027 24.1972 21.6499 24.4501 21.338 24.4501H10.1564C9.8445 24.4501 9.59166 24.1972 9.59166 23.8853C9.59166 23.5734 9.8445 23.3206 10.1564 23.3206H15.1712V19.8475H8.25891C7.01135 19.8475 6 18.8362 6 17.5886V9.25891C6 8.01135 7.01135 7 8.25891 7ZM23.5066 18.7181C24.1303 18.7181 24.636 18.2124 24.636 17.5886V9.25891C24.636 8.63513 24.1303 8.12945 23.5066 8.12945H8.25894C7.63516 8.12945 7.12949 8.63513 7.12949 9.25891V17.5886C7.12949 18.2124 7.63516 18.7181 8.25894 18.7181H23.5066Z" fill="#1C1C1C"/>
<path d="M12.3023 8.60947C12.0821 8.39051 11.7263 8.39051 11.5061 8.60947L7.83535 12.2802C7.67419 12.4182 7.604 12.6349 7.65362 12.8412C7.70324 13.0475 7.86431 13.2086 8.07061 13.2582C8.2769 13.3078 8.49361 13.2376 8.63162 13.0765L12.3023 9.40573C12.5213 9.18547 12.5213 8.82973 12.3023 8.60947Z" fill="#1C1C1C"/>
<path d="M12.082 10.8232L10.2975 12.6077C10.1364 12.7458 10.0662 12.9625 10.1158 13.1688C10.1654 13.3751 10.3265 13.5361 10.5328 13.5857C10.7391 13.6354 10.9558 13.5652 11.0938 13.404L12.8783 11.6138C13.0395 11.4758 13.1097 11.2591 13.06 11.0528C13.0104 10.8465 12.8494 10.6855 12.6431 10.6358C12.4368 10.5862 12.2201 10.6564 12.082 10.8176V10.8232Z" fill="#1C1C1C"/>
</svg>
