<svg width="16" height="16" viewBox="0 0 16 16" fill="none" xmlns="http://www.w3.org/2000/svg">
<path d="M9.33342 9.83996V2.33329C9.33342 1.89127 9.15782 1.46734 8.84526 1.15478C8.5327 0.842221 8.10878 0.666626 7.66675 0.666626C7.22472 0.666626 6.8008 0.842221 6.48824 1.15478C6.17568 1.46734 6.00008 1.89127 6.00008 2.33329V9.83996C5.46493 10.1975 5.05896 10.7177 4.84213 11.3237C4.6253 11.9297 4.60909 12.5893 4.79592 13.2052C4.98274 13.8211 5.36269 14.3606 5.87964 14.744C6.39659 15.1274 7.02314 15.3344 7.66675 15.3344C8.31036 15.3344 8.93691 15.1274 9.45386 14.744C9.97081 14.3606 10.3508 13.8211 10.5376 13.2052C10.7244 12.5893 10.7082 11.9297 10.4914 11.3237C10.2745 10.7177 9.86856 10.1975 9.33342 9.83996Z" stroke="#1C1C1C" stroke-width="1.25" stroke-linecap="round" stroke-linejoin="round"/>
</svg>
