<svg width="24" height="24" viewBox="0 0 24 24" fill="none" xmlns="http://www.w3.org/2000/svg">
<path d="M21 16.0001V8.00009C20.9996 7.64936 20.9071 7.3049 20.7315 7.00125C20.556 6.6976 20.3037 6.44545 20 6.27009L13 2.27009C12.696 2.09455 12.3511 2.00214 12 2.00214C11.6489 2.00214 11.304 2.09455 11 2.27009L4 6.27009C3.69626 6.44545 3.44398 6.6976 3.26846 7.00125C3.09294 7.3049 3.00036 7.64936 3 8.00009V16.0001C3.00036 16.3508 3.09294 16.6953 3.26846 16.9989C3.44398 17.3026 3.69626 17.5547 4 17.7301L11 21.7301C11.304 21.9056 11.6489 21.998 12 21.998C12.3511 21.998 12.696 21.9056 13 21.7301L20 17.7301C20.3037 17.5547 20.556 17.3026 20.7315 16.9989C20.9071 16.6953 20.9996 16.3508 21 16.0001Z" stroke="#1C1C1C" stroke-width="1.25" stroke-linecap="round" stroke-linejoin="round"/>
</svg>
