<svg width="25" height="24" viewBox="0 0 25 24" fill="none" xmlns="http://www.w3.org/2000/svg">
<mask id="mask0" mask-type="alpha" maskUnits="userSpaceOnUse" x="0" y="0" width="25" height="24">
<circle cx="12.0041" cy="12" r="12" fill="#1C1C1C"/>
</mask>
<g mask="url(#mask0)">
<rect x="-1.71021" y="-1.28564" width="27" height="27" fill="#FF3636"/>
<path d="M18.0043 6.97029C18.0043 8.45955 18.0043 9.9461 18.0043 11.4546C17.8956 11.2933 17.805 11.1533 17.7087 11.0166C16.9085 9.88028 15.9068 8.93146 14.5523 8.33714C13.8319 8.02107 13.1128 7.83642 12.397 7.78141C11.2753 7.69521 10.1615 7.92734 9.0632 8.47099C7.77282 9.10971 6.82385 10.0678 6.06787 11.1942C6.05277 11.2167 6.03682 11.2387 6.00421 11.2854C6.00421 9.77471 6.00421 8.28304 6.00421 6.78672C6.00421 6.52467 6.35037 6 7.01395 6C10.3469 6 13.6786 6 17.0234 6C17.6293 6 18.0043 6.36714 18.0043 6.97029Z" fill="white"/>
<path d="M18.0011 13.6299C16.2901 11.9928 14.3398 10.9531 11.9981 10.9889C9.68613 11.0243 7.70486 11.9796 6.00483 13.6359C6.00483 13.3046 6.00182 13.0026 6.00792 12.7008C6.00891 12.6524 6.04424 12.6 6.07437 12.5575C7.29811 10.8303 8.89713 9.69747 10.9638 9.36225C12.8074 9.06321 14.4984 9.51702 16.0309 10.6061C16.7624 11.1259 17.3808 11.7684 17.8976 12.5127C17.9575 12.5988 17.9906 12.7203 17.9965 12.8278C18.0106 13.0863 18.0011 13.3461 18.0011 13.6299Z" fill="white"/>
<path d="M18.0012 15.8181C13.9962 14.2204 10.0131 14.2202 6.00616 15.8165C6.00616 15.5398 5.99829 15.2545 6.01325 14.9702C6.01601 14.9177 6.10518 14.8619 6.16458 14.8204C7.14465 14.1364 8.24079 13.6888 9.41937 13.4099C10.2574 13.2116 11.112 13.0739 11.9718 13.0925C14.1072 13.1387 16.1106 13.6215 17.8652 14.8324C17.9662 14.9022 18.0085 14.9776 18.0039 15.0961C17.9947 15.3343 18.0012 15.5731 18.0012 15.8181Z" fill="white"/>
<path d="M17.11 17.9998C13.7479 17.9998 10.4033 17.9998 7.04295 17.9998C6.20631 17.9998 5.99486 17.6121 6.00439 17.3114C6.00553 17.2755 6.08287 16.9985 6.12922 16.9884C6.64685 16.8757 7.16278 16.7499 7.68527 16.6663C9.45134 16.3838 11.2321 16.3275 13.0154 16.3821C14.6078 16.4309 16.1911 16.5764 17.7425 16.9761C17.9335 17.0253 18.0223 17.0919 18.0012 17.3052C17.9792 17.5279 18.0042 17.9998 17.11 17.9998Z" fill="white"/>
</g>
</svg>
