<svg width="24" height="24" viewBox="0 0 24 24" fill="none" xmlns="http://www.w3.org/2000/svg">
<path d="M9.00012 1.00012V4.00012M15.0001 1.00012V4.00012M9.00012 20.0001V23.0001M15.0001 20.0001V23.0001M20.0001 9.00012H23.0001M20.0001 14.0001H23.0001M1.00012 9.00012H4.00012M1.00012 14.0001H4.00012M6.00012 4.00012H18.0001C19.1047 4.00012 20.0001 4.89555 20.0001 6.00012V18.0001C20.0001 19.1047 19.1047 20.0001 18.0001 20.0001H6.00012C4.89555 20.0001 4.00012 19.1047 4.00012 18.0001V6.00012C4.00012 4.89555 4.89555 4.00012 6.00012 4.00012ZM9.00012 9.00012H15.0001V15.0001H9.00012V9.00012Z" stroke="#1C1C1C" stroke-width="1.25" stroke-linecap="round" stroke-linejoin="round"/>
</svg>
