<svg width="16" height="16" viewBox="0 0 16 16" fill="none" xmlns="http://www.w3.org/2000/svg">
<path d="M11.3343 1.33334H4.66675C3.93028 1.33334 3.33325 1.93037 3.33325 2.66684V13.3348C3.33325 14.0713 3.93028 14.6683 4.66675 14.6683H11.3343C12.0707 14.6683 12.6678 14.0713 12.6678 13.3348V2.66684C12.6678 1.93037 12.0707 1.33334 11.3343 1.33334Z" stroke="#1C1C1C" stroke-width="1.25" stroke-linecap="round" stroke-linejoin="round"/>
<path d="M10.0783 10.5991H5.92224C5.38216 10.5991 4.94434 10.9971 4.94434 11.4881V11.9326C4.94434 12.4235 5.38216 12.8216 5.92224 12.8216H10.0783C10.6184 12.8216 11.0562 12.4235 11.0562 11.9326V11.4881C11.0562 10.9971 10.6184 10.5991 10.0783 10.5991Z" stroke="#1C1C1C" stroke-width="1.25" stroke-linecap="round" stroke-linejoin="round"/>
<path d="M10.7784 3.87708H5.22217" stroke="#1C1C1C" stroke-width="1.25" stroke-linecap="round" stroke-linejoin="round"/>
<path d="M8.00029 6.29898H5.22217" stroke="#1C1C1C" stroke-width="1.25" stroke-linecap="round" stroke-linejoin="round"/>
</svg>
