<svg width="48" height="48" viewBox="0 0 48 48" fill="none" xmlns="http://www.w3.org/2000/svg">
<path d="M16.1964 7.625H41.5004V6.375H16.1964V7.625ZM41.5004 7.625C42.6294 7.625 43.3746 8.39108 43.3746 9.14173H44.6246C44.6246 7.52669 43.1318 6.375 41.5004 6.375V7.625ZM43.3746 9.14173V38.8583H44.6246V9.14173H43.3746ZM43.3746 38.8583C43.3746 39.6089 42.6294 40.375 41.5004 40.375V41.625C43.1319 41.625 44.6246 40.4733 44.6246 38.8583H43.3746ZM41.5004 40.375H16.1964V41.625H41.5004V40.375ZM16.1964 40.375C15.0674 40.375 14.3223 39.6089 14.3223 38.8583H13.0723C13.0723 40.4733 14.565 41.625 16.1964 41.625V40.375ZM14.3223 38.8583V9.14173H13.0723V38.8583H14.3223ZM14.3223 9.14173C14.3223 8.39108 15.0674 7.625 16.1964 7.625V6.375C14.565 6.375 13.0723 7.52669 13.0723 9.14173H14.3223Z" fill="white"/>
<path d="M39.0022 12.6667C31.3163 12.6667 19.3213 12.6667 19.3213 12.6667" stroke="white" stroke-width="1.25" stroke-linecap="round" stroke-linejoin="round"/>
<path d="M28.6931 17.3887C25.0332 17.3887 19.3213 17.3887 19.3213 17.3887" stroke="white" stroke-width="1.25" stroke-linecap="round" stroke-linejoin="round"/>
<path d="M24.6181 28.7293C11.3203 28.7293 6.49916 28.7293 6.49916 28.7293C5.83634 28.7293 5.20067 28.4639 4.73199 27.9916C4.2633 27.5193 4 26.8787 4 26.2107V12.9885" stroke="#FF3636" stroke-width="1.25" stroke-linecap="round" stroke-linejoin="round"/>
<path d="M20.5698 28.7295H29.6293M29.6293 28.7295L26.1929 25.2665M29.6293 28.7295L26.1929 32.1924" stroke="#FF3636" stroke-width="1.25" stroke-linecap="round" stroke-linejoin="round"/>
</svg>
