<svg width="24" height="24" viewBox="0 0 24 24" fill="none" xmlns="http://www.w3.org/2000/svg">
<path d="M15.9999 21V5C15.9999 4.46957 15.7892 3.96086 15.4142 3.58579C15.0391 3.21071 14.5304 3 13.9999 3H9.99994C9.46951 3 8.9608 3.21071 8.58573 3.58579C8.21065 3.96086 7.99994 4.46957 7.99994 5V21M3.99994 7H19.9999C21.1045 7 21.9999 7.89543 21.9999 9V19C21.9999 20.1046 21.1045 21 19.9999 21H3.99994C2.89537 21 1.99994 20.1046 1.99994 19V9C1.99994 7.89543 2.89537 7 3.99994 7Z" stroke="#1C1C1C" stroke-width="1.25" stroke-linecap="round" stroke-linejoin="round"/>
</svg>
