<svg width="16" height="16" viewBox="0 0 16 16" fill="none" xmlns="http://www.w3.org/2000/svg">
<path d="M8.00008 4.00004H8.00675M4.00008 1.33337H12.0001C12.7365 1.33337 13.3334 1.93033 13.3334 2.66671V13.3334C13.3334 14.0698 12.7365 14.6667 12.0001 14.6667H4.00008C3.2637 14.6667 2.66675 14.0698 2.66675 13.3334V2.66671C2.66675 1.93033 3.2637 1.33337 4.00008 1.33337ZM10.6667 9.33337C10.6667 10.8061 9.47284 12 8.00008 12C6.52732 12 5.33341 10.8061 5.33341 9.33337C5.33341 7.86061 6.52732 6.66671 8.00008 6.66671C9.47284 6.66671 10.6667 7.86061 10.6667 9.33337Z" stroke="#1C1C1C" stroke-width="1.25" stroke-linecap="round" stroke-linejoin="round"/>
</svg>
