<svg width="24" height="24" viewBox="0 0 24 24" fill="none" xmlns="http://www.w3.org/2000/svg">
<path d="M11.9999 7.99988C13.6568 7.99988 14.9999 6.65673 14.9999 4.99988C14.9999 3.34302 13.6568 1.99988 11.9999 1.99988C10.3431 1.99988 8.99994 3.34302 8.99994 4.99988C8.99994 6.65673 10.3431 7.99988 11.9999 7.99988ZM11.9999 7.99988V21.9999M11.9999 21.9999C9.34777 21.9999 6.80423 20.9463 4.92887 19.0709C3.05351 17.1956 1.99994 14.652 1.99994 11.9999H4.99994M11.9999 21.9999C14.6521 21.9999 17.1956 20.9463 19.071 19.0709C20.9464 17.1956 21.9999 14.652 21.9999 11.9999H18.9999" stroke="#1C1C1C" stroke-width="1.25" stroke-linecap="round" stroke-linejoin="round"/>
</svg>
