<svg width="48" height="48" viewBox="0 0 48 48" fill="none" xmlns="http://www.w3.org/2000/svg">
<rect x="0.5" y="8.5" width="47" height="31" rx="3.5" fill="white" stroke="#F6F6F7"/>
<path d="M12.5779 18.9057C12.156 19.405 11.4809 19.7988 10.8058 19.7425C10.7214 19.0674 11.0519 18.3502 11.4387 17.9071C11.8606 17.3938 12.599 17.0281 13.1967 17C13.267 17.7032 12.9928 18.3923 12.5779 18.9057ZM13.1897 19.8761C12.2122 19.8199 11.3754 20.4316 10.9113 20.4316C10.4401 20.4316 9.7299 19.9042 8.95637 19.9183C7.95079 19.9324 7.01552 20.502 6.50218 21.4091C5.44738 23.2234 6.22793 25.9096 7.24758 27.3863C7.74686 28.1177 8.34458 28.9193 9.13217 28.8912C9.87757 28.8631 10.1729 28.406 11.073 28.406C11.9802 28.406 12.2403 28.8912 13.0279 28.8771C13.8436 28.8631 14.357 28.1458 14.8563 27.4145C15.4259 26.5847 15.6579 25.776 15.672 25.7338C15.6579 25.7197 14.0968 25.122 14.0827 23.3218C14.0687 21.817 15.3133 21.0997 15.3696 21.0575C14.6664 20.0168 13.5694 19.9042 13.1897 19.8761ZM18.8364 17.8368V28.7998H20.5382V25.0517H22.8939C25.0457 25.0517 26.5576 23.575 26.5576 21.4372C26.5576 19.2995 25.0738 17.8368 22.9502 17.8368H18.8364ZM20.5382 19.2714H22.5001C23.9768 19.2714 24.8207 20.0589 24.8207 21.4443C24.8207 22.8296 23.9768 23.6242 22.4931 23.6242H20.5382V19.2714ZM29.6658 28.8842C30.7346 28.8842 31.7262 28.3427 32.1762 27.4848H32.2114V28.7998H33.7866V23.3429C33.7866 21.7607 32.5208 20.7411 30.5729 20.7411C28.7657 20.7411 27.4296 21.7748 27.3804 23.1952H28.9133C29.0399 22.5202 29.6658 22.0771 30.5237 22.0771C31.5644 22.0771 32.1481 22.5624 32.1481 23.4554V24.0602L30.0244 24.1868C28.0484 24.3063 26.9795 25.115 26.9795 26.5214C26.9795 27.9419 28.0836 28.8842 29.6658 28.8842ZM30.1229 27.5832C29.2157 27.5832 28.6391 27.1473 28.6391 26.4792C28.6391 25.7901 29.1946 25.3892 30.2565 25.326L32.1481 25.2064V25.8252C32.1481 26.8519 31.2761 27.5832 30.1229 27.5832ZM35.8891 31.7814C37.5487 31.7814 38.3293 31.1485 39.0114 29.2287L42 20.8465H40.2701L38.266 27.3231H38.2308L36.2267 20.8465H34.4476L37.3307 28.8279L37.176 29.3131C36.9158 30.1359 36.4939 30.4523 35.7415 30.4523C35.6079 30.4523 35.3477 30.4383 35.2422 30.4242V31.7392C35.3406 31.7673 35.7626 31.7814 35.8891 31.7814Z" fill="black"/>
</svg>
