<svg width="16" height="16" viewBox="0 0 16 16" fill="none" xmlns="http://www.w3.org/2000/svg">
<path d="M7.54336 8.12669L7.6027 8.02234M7.6027 8.02234H5.28099H2.95927H1.33702M7.6027 8.02234H8.39819M8.45738 8.12669L8.39819 8.02234M8.39819 8.02234H10.7199H13.0416L13.491 8.00455L14.6632 8.02234M8.00045 8.3113C7.97861 8.3113 5.70135 12.3667 5.70135 12.4057L5.46015 12.831L4.84707 13.8591M8.00045 8.3113C8.01281 8.3113 8.53517 9.22815 9.16124 10.3487C9.78731 11.4693 10.2995 12.3949 10.2995 12.4057L10.5387 12.831L11.1437 13.7797M8.00045 8.3113L7.59261 7.54073L7.26495 6.95478C5.71878 4.18982 5.60814 3.88875 5.60814 3.88875L4.62576 1.85385M8.00045 8.3113L8.40872 7.54073L8.70947 7.0022C8.87485 6.70602 9.39438 5.77584 9.86396 4.93512L10.7178 3.40657L11.4751 1.91055M4.62576 1.85385C4.17888 2.12667 3.75945 2.45469 3.3783 2.83397C2.30179 3.90519 1.60843 5.29703 1.40142 6.80227C1.34521 7.21093 1.32417 7.61895 1.33702 8.02234M4.62576 1.85385C4.96207 1.64853 5.31393 1.47447 5.67671 1.33334M11.4751 1.91055C12.3022 2.43311 13.0177 3.14315 13.5708 4.00896C14.3415 5.21558 14.7069 6.62468 14.6632 8.02234M11.4751 1.91055C11.1119 1.68111 10.7273 1.48782 10.3254 1.33334M14.6632 8.02234C14.6268 9.18421 14.3077 10.3382 13.7036 11.3613C13.3165 12.0169 12.714 12.7288 12.1727 13.1702C11.2114 13.954 10.0629 14.4593 8.87656 14.6207C8.4233 14.6824 7.57459 14.6819 7.11579 14.6198C6.31862 14.5118 5.55132 14.2525 4.84707 13.8591M1.33702 8.02234C1.3922 9.75533 2.07273 11.4028 3.27667 12.6472C3.74695 13.1332 4.2763 13.5402 4.84707 13.8591" stroke="#1C1C1C" stroke-width="1.25" stroke-linecap="round"/>
<path d="M7.46474 3.11722C7.57785 3.30481 7.78092 3.41949 7.99997 3.41949C8.21903 3.41949 8.4221 3.30481 8.53521 3.11722L9.49746 1.52134C9.61385 1.3283 9.61728 1.08754 9.50643 0.891268C9.39559 0.694994 9.18764 0.573614 8.96222 0.573614L7.03772 0.573614C6.81231 0.573614 6.60436 0.694994 6.49351 0.891268C6.38267 1.08754 6.3861 1.3283 6.50249 1.52134L7.46474 3.11722Z" stroke="#1C1C1C" stroke-width="1.25" stroke-linejoin="round"/>
</svg>
