<svg width="16" height="16" viewBox="0 0 16 16" fill="none" xmlns="http://www.w3.org/2000/svg">
<path d="M7.21309 8.29636L7.27246 8.19196M7.27246 8.19196H4.94959H2.62671H1.00365M7.27246 8.19196H8.06835M8.12756 8.29636L8.06835 8.19196M8.06835 8.19196H10.3912H12.7141L13.1637 8.17416L14.3365 8.19196M7.67041 8.48107C7.64855 8.48107 5.37016 12.5385 5.37016 12.5775L5.12883 13.003L4.51545 14.0316M7.67041 8.48107C7.68278 8.48107 8.2054 9.39837 8.83178 10.5195C9.45816 11.6407 9.97065 12.5667 9.97065 12.5775L10.21 13.003L10.8152 13.9522M7.67041 8.48107L7.26236 7.71011L6.93454 7.12387C5.3876 4.35753 5.27691 4.05631 5.27691 4.05631L4.29403 2.02038M7.67041 8.48107L8.07889 7.71011L8.37978 7.17131C8.54525 6.87498 9.06504 5.94434 9.53485 5.1032L10.3891 3.57388L11.1468 2.07712M4.29403 2.02038C3.84693 2.29335 3.42729 2.62153 3.04595 3.001C1.9689 4.07275 1.27519 5.46529 1.06808 6.97128C1.01184 7.38014 0.990794 7.78837 1.00365 8.19196M4.29403 2.02038C4.63051 1.81496 4.98254 1.64081 5.34551 1.49962M11.1468 2.07712C11.9743 2.59994 12.6902 3.31033 13.2435 4.17658C14.0146 5.38379 14.3803 6.7936 14.3365 8.19196M11.1468 2.07712C10.7835 1.84756 10.3986 1.65417 9.9965 1.49962M14.3365 8.19196C14.3001 9.35441 13.9808 10.5089 13.3764 11.5326C12.9892 12.1885 12.3863 12.9008 11.8447 13.3423C10.8829 14.1265 9.73391 14.6322 8.54696 14.7936C8.09347 14.8553 7.24433 14.8549 6.78531 14.7927C5.98774 14.6846 5.22006 14.4253 4.51545 14.0316M1.00365 8.19196C1.05886 9.92581 1.73972 11.5741 2.94427 12.8191C3.41478 13.3054 3.9444 13.7126 4.51545 14.0316M7.67041 3.001L6.46388 1H8.87693L7.67041 3.001Z" stroke="#1C1C1C" stroke-width="1.25" stroke-linecap="round" stroke-linejoin="round"/>
</svg>
