<svg width="24" height="24" viewBox="0 0 24 24" fill="none" xmlns="http://www.w3.org/2000/svg">
<path d="M15.4005 17V17.625C15.1815 17.625 14.9785 17.5104 14.8654 17.3229L15.4005 17ZM13.7003 14.1822V13.5572C13.9193 13.5572 14.1223 13.6719 14.2354 13.8594L13.7003 14.1822ZM10.2998 14.1822L9.76465 13.8594C9.87778 13.6719 10.0808 13.5572 10.2998 13.5572V14.1822ZM8.59953 17L9.13466 17.3229C9.02152 17.5104 8.81851 17.625 8.59953 17.625V17ZM3.49878 8.87855H4.12378C4.12378 8.91663 4.1203 8.95462 4.11338 8.99207L3.49878 8.87855ZM20.5013 8.87855L19.8867 8.99207C19.8798 8.95462 19.8763 8.91663 19.8763 8.87855H20.5013ZM2.43526 14.6368L1.82066 14.5233L2.43526 14.6368ZM21.5648 14.6368L20.9502 14.7503L21.5648 14.6368ZM19.5981 17.625H15.4005V16.375H19.5981V17.625ZM14.8654 17.3229L13.1651 14.5051L14.2354 13.8594L15.9357 16.6771L14.8654 17.3229ZM13.7003 14.8072H10.2998V13.5572H13.7003V14.8072ZM10.8349 14.5051L9.13466 17.3229L8.0644 16.6771L9.76465 13.8594L10.8349 14.5051ZM8.59953 17.625H4.402V16.375H8.59953V17.625ZM1.82066 14.5233L2.88417 8.76504L4.11338 8.99207L3.04987 14.7503L1.82066 14.5233ZM2.87378 8.87855C2.87378 8.23358 3.10511 7.60402 3.53339 7.13083L4.46015 7.96964C4.25072 8.20104 4.12378 8.5271 4.12378 8.87855H2.87378ZM3.53339 7.13083C3.96354 6.65558 4.56108 6.37503 5.19903 6.37503V7.62503C4.93511 7.62503 4.66772 7.74031 4.46015 7.96964L3.53339 7.13083ZM5.19903 6.37503H18.801V7.62503H5.19903V6.37503ZM18.801 6.37503C19.439 6.37503 20.0365 6.65558 20.4667 7.13083L19.5399 7.96964C19.3323 7.74031 19.065 7.62503 18.801 7.62503V6.37503ZM20.4667 7.13083C20.8949 7.60402 21.1263 8.23357 21.1263 8.87855H19.8763C19.8763 8.5271 19.7493 8.20104 19.5399 7.96964L20.4667 7.13083ZM21.1159 8.76504L22.1794 14.5233L20.9502 14.7503L19.8867 8.99207L21.1159 8.76504ZM4.402 17.625C2.76128 17.625 1.52266 16.1367 1.82066 14.5233L3.04987 14.7503C2.89377 15.5954 3.54257 16.375 4.402 16.375V17.625ZM19.5981 16.375C20.4575 16.375 21.1063 15.5954 20.9502 14.7503L22.1794 14.5233C22.4774 16.1367 21.2388 17.625 19.5981 17.625V16.375Z" fill="#1C1C1C"/>
<path d="M17.9375 12.0001C17.9375 12.6303 17.4886 13.0324 17.0625 13.0324V14.2824C18.2933 14.2824 19.1875 13.2005 19.1875 12.0001H17.9375ZM17.0625 13.0324C16.6364 13.0324 16.1875 12.6303 16.1875 12.0001H14.9375C14.9375 13.2005 15.8317 14.2824 17.0625 14.2824V13.0324ZM16.1875 12.0001C16.1875 11.3699 16.6364 10.9679 17.0625 10.9679V9.71786C15.8317 9.71786 14.9375 10.7998 14.9375 12.0001H16.1875ZM17.0625 10.9679C17.4886 10.9679 17.9375 11.3699 17.9375 12.0001H19.1875C19.1875 10.7998 18.2933 9.71786 17.0625 9.71786V10.9679Z" fill="#1C1C1C"/>
<path d="M7.1875 10.7572C7.1875 10.412 6.90768 10.1322 6.5625 10.1322C6.21732 10.1322 5.9375 10.412 5.9375 10.7572L7.1875 10.7572ZM5.9375 13.2431C5.9375 13.5883 6.21732 13.8681 6.5625 13.8681C6.90768 13.8681 7.1875 13.5883 7.1875 13.2431H5.9375ZM5.4375 11.3752C5.09232 11.3752 4.8125 11.655 4.8125 12.0002C4.8125 12.3453 5.09232 12.6252 5.4375 12.6252V11.3752ZM7.6875 12.6252C8.03268 12.6252 8.3125 12.3453 8.3125 12.0002C8.3125 11.655 8.03268 11.3752 7.6875 11.3752V12.6252ZM5.9375 10.7572L5.9375 13.2431H7.1875L7.1875 10.7572L5.9375 10.7572ZM5.4375 12.6252H7.6875V11.3752H5.4375V12.6252Z" fill="#1C1C1C"/>
</svg>
