<svg width="26" height="12" viewBox="0 0 26 12" fill="none" xmlns="http://www.w3.org/2000/svg">
<g clip-path="url(#clip0_5412_21143)">
<path d="M3.5 5.5V3.5C3.5 2.83696 3.76339 2.20107 4.23223 1.73223C4.70107 1.26339 5.33696 1 6 1C6.66304 1 7.29893 1.26339 7.76777 1.73223C8.23661 2.20107 8.5 2.83696 8.5 3.5V5.5M2.5 5.5H9.5C10.0523 5.5 10.5 5.94772 10.5 6.5V10C10.5 10.5523 10.0523 11 9.5 11H2.5C1.94772 11 1.5 10.5523 1.5 10V6.5C1.5 5.94772 1.94772 5.5 2.5 5.5Z" stroke="white" stroke-width="1.25" stroke-linecap="round" stroke-linejoin="round"/>
</g>
<g clip-path="url(#clip1_5412_21143)">
<path d="M21.06 7.06C20.9227 7.20738 20.7571 7.32558 20.5731 7.40757C20.3891 7.48955 20.1905 7.53363 19.989 7.53719C19.7876 7.54074 19.5876 7.50369 19.4008 7.42825C19.214 7.35281 19.0444 7.24052 18.9019 7.09808C18.7595 6.95564 18.6472 6.78597 18.5718 6.5992C18.4963 6.41242 18.4593 6.21236 18.4628 6.01096C18.4664 5.80955 18.5105 5.61093 18.5924 5.42693C18.6744 5.24293 18.7926 5.07733 18.94 4.94M14.5 0.5L25.5 11.5M22.97 8.97C22.1153 9.62151 21.0746 9.98244 20 10C16.5 10 14.5 6 14.5 6C15.1219 4.84095 15.9846 3.82831 17.03 3.03L22.97 8.97ZM18.95 2.12C19.2942 2.03944 19.6465 1.99917 20 2C23.5 2 25.5 6 25.5 6C25.1965 6.56781 24.8345 7.10237 24.42 7.595L18.95 2.12Z" stroke="white" stroke-width="1.25" stroke-linecap="round" stroke-linejoin="round"/>
</g>
<defs>
<clipPath id="clip0_5412_21143">
<rect width="12" height="12" fill="white"/>
</clipPath>
<clipPath id="clip1_5412_21143">
<rect width="12" height="12" fill="white" transform="translate(14)"/>
</clipPath>
</defs>
</svg>
