<svg width="24" height="24" viewBox="0 0 24 24" fill="none" xmlns="http://www.w3.org/2000/svg">
<path d="M19 3H5C3.89543 3 3 3.89543 3 5V19C3 20.1046 3.89543 21 5 21H14.1818H19C20.1046 21 21 20.1046 21 19V14.1818V5C21 3.89543 20.1046 3 19 3Z" stroke="#1C1C1C" stroke-width="1.25" stroke-linecap="round" stroke-linejoin="round"/>
<path d="M16.0834 7.91665L7.91671 16.0833M10.25 8.79165C10.25 9.59706 9.59712 10.25 8.79171 10.25C7.98629 10.25 7.33337 9.59706 7.33337 8.79165C7.33337 7.98623 7.98629 7.33331 8.79171 7.33331C9.59712 7.33331 10.25 7.98623 10.25 8.79165ZM16.6667 15.2083C16.6667 16.0137 16.0138 16.6666 15.2084 16.6666C14.403 16.6666 13.75 16.0137 13.75 15.2083C13.75 14.4029 14.403 13.75 15.2084 13.75C16.0138 13.75 16.6667 14.4029 16.6667 15.2083Z" stroke="#1C1C1C" stroke-width="1.25" stroke-linecap="round" stroke-linejoin="round"/>
</svg>
