<svg width="16" height="16" viewBox="0 0 16 16" fill="none" xmlns="http://www.w3.org/2000/svg">
<g clip-path="url(#clip0_481_3563)">
<path d="M15.0734 11.3001C15.2882 10.793 15.374 10.2405 15.3231 9.69212C15.2722 9.14373 15.0863 8.61649 14.7818 8.15754C14.4774 7.69859 14.064 7.32221 13.5786 7.06206C13.0931 6.80191 12.5508 6.6661 12.0001 6.66675H11.1601C10.8879 5.59507 10.2895 4.63447 9.44743 3.91785C8.60541 3.20124 7.56147 2.76404 6.46008 2.66675M3.33341 3.33341C2.29213 3.90917 1.47328 4.8166 1.00713 5.91135C0.540987 7.0061 0.454311 8.22529 0.760893 9.37497C1.06748 10.5247 1.74971 11.5388 2.69906 12.2561C3.64842 12.9734 4.81037 13.3526 6.00008 13.3334H12.0001C12.3866 13.333 12.7701 13.2653 13.1334 13.1334M0.666742 0.666748L15.3334 15.3334" stroke="#1C1C1C" stroke-width="1.25" stroke-linecap="round" stroke-linejoin="round"/>
</g>
<defs>
<clipPath id="clip0_481_3563">
<rect width="16" height="16" fill="white"/>
</clipPath>
</defs>
</svg>
