<svg width="16" height="16" viewBox="0 0 16 16" fill="none" xmlns="http://www.w3.org/2000/svg">
<path d="M6.93097 14.8718C1.75495 14.8718 3.6394 14.8718 3.6394 14.8718C3.3814 14.8718 3.13397 14.7434 2.95154 14.5149C2.76911 14.2864 2.66663 13.9764 2.66663 13.6533V8.10256V2.55185C2.66663 2.22868 2.76911 1.91874 2.95154 1.69023C3.13397 1.46171 3.3814 1.33333 3.6394 1.33333H12.1554C12.4134 1.33333 12.6608 1.46171 12.8432 1.69023C13.0257 1.91874 13.1282 2.22868 13.1282 2.55185V5.92315M13 8.33333L8.33329 13M9.66663 8.83333C9.66663 9.29357 9.29353 9.66666 8.83329 9.66666C8.37305 9.66666 7.99996 9.29357 7.99996 8.83333C7.99996 8.37309 8.37305 8 8.83329 8C9.29353 8 9.66663 8.37309 9.66663 8.83333ZM13.3333 12.5C13.3333 12.9602 12.9602 13.3333 12.5 13.3333C12.0397 13.3333 11.6666 12.9602 11.6666 12.5C11.6666 12.0398 12.0397 11.6667 12.5 11.6667C12.9602 11.6667 13.3333 12.0398 13.3333 12.5Z" stroke="#1C1C1C" stroke-width="1.25" stroke-linecap="round" stroke-linejoin="round"/>
</svg>
