<svg width="24" height="24" viewBox="0 0 24 24" fill="none" xmlns="http://www.w3.org/2000/svg">
<g clip-path="url(#clip0_118_674)">
<path d="M18.9522 17.2843L19.38 17.7445L19.7324 17.2243C20.7708 15.6916 21.3305 13.8821 21.3305 12.0013C21.3305 6.85664 17.1459 2.67202 12.0013 2.67202C6.85664 2.67202 2.67202 6.85664 2.67202 12.0013C2.67202 13.8821 3.23168 15.6916 4.27011 17.2243L4.62249 17.7444L5.05025 17.2843C8.80399 13.2466 15.2052 13.2537 18.9522 17.2843ZM5.04183 17.5482L4.74478 17.8813L5.04227 18.2141C8.76156 22.3747 15.2424 22.3734 18.9601 18.2141L19.2575 17.8813L18.9605 17.5482C15.2556 13.3922 8.7479 13.3912 5.04183 17.5482ZM12.0013 2.5C17.2533 2.5 21.5025 6.7498 21.5025 12.0013C21.5025 17.2301 17.2665 21.5025 12.0013 21.5025C6.71464 21.5025 2.5 17.2065 2.5 12.0013C2.5 6.74923 6.7498 2.5 12.0013 2.5Z" fill="#999999" stroke="#999999"/>
<mask id="path-2-inside-1_118_674" fill="white">
<path d="M12.0014 12.5873C13.9401 12.5873 15.5175 11.01 15.5175 9.07126V7.89924C15.5175 5.96052 13.9401 4.38318 12.0014 4.38318C10.0627 4.38318 8.48535 5.96052 8.48535 7.89924V9.07126C8.48535 11.01 10.0627 12.5873 12.0014 12.5873ZM9.65737 7.89924C9.65737 6.60666 10.7088 5.5552 12.0014 5.5552C13.294 5.5552 14.3455 6.60666 14.3455 7.89924V9.07126C14.3455 10.3638 13.294 11.4153 12.0014 11.4153C10.7088 11.4153 9.65737 10.3638 9.65737 9.07126V7.89924Z"/>
</mask>
<path d="M12.0014 12.5873C13.9401 12.5873 15.5175 11.01 15.5175 9.07126V7.89924C15.5175 5.96052 13.9401 4.38318 12.0014 4.38318C10.0627 4.38318 8.48535 5.96052 8.48535 7.89924V9.07126C8.48535 11.01 10.0627 12.5873 12.0014 12.5873ZM9.65737 7.89924C9.65737 6.60666 10.7088 5.5552 12.0014 5.5552C13.294 5.5552 14.3455 6.60666 14.3455 7.89924V9.07126C14.3455 10.3638 13.294 11.4153 12.0014 11.4153C10.7088 11.4153 9.65737 10.3638 9.65737 9.07126V7.89924Z" fill="#999999"/>
<path d="M12.0014 13.8373C14.6305 13.8373 16.7675 11.7003 16.7675 9.07126H14.2675C14.2675 10.3196 13.2498 11.3373 12.0014 11.3373V13.8373ZM16.7675 9.07126V7.89924H14.2675V9.07126H16.7675ZM16.7675 7.89924C16.7675 5.27017 14.6305 3.13318 12.0014 3.13318V5.63318C13.2498 5.63318 14.2675 6.65088 14.2675 7.89924H16.7675ZM12.0014 3.13318C9.37234 3.13318 7.23535 5.27017 7.23535 7.89924H9.73535C9.73535 6.65088 10.7531 5.63318 12.0014 5.63318V3.13318ZM7.23535 7.89924V9.07126H9.73535V7.89924H7.23535ZM7.23535 9.07126C7.23535 11.7003 9.37234 13.8373 12.0014 13.8373V11.3373C10.7531 11.3373 9.73535 10.3196 9.73535 9.07126H7.23535ZM10.9074 7.89924C10.9074 7.29702 11.3992 6.8052 12.0014 6.8052V4.3052C10.0185 4.3052 8.40737 5.91631 8.40737 7.89924H10.9074ZM12.0014 6.8052C12.6036 6.8052 13.0955 7.29702 13.0955 7.89924H15.5955C15.5955 5.91631 13.9844 4.3052 12.0014 4.3052V6.8052ZM13.0955 7.89924V9.07126H15.5955V7.89924H13.0955ZM13.0955 9.07126C13.0955 9.67349 12.6036 10.1653 12.0014 10.1653V12.6653C13.9844 12.6653 15.5955 11.0542 15.5955 9.07126H13.0955ZM12.0014 10.1653C11.3992 10.1653 10.9074 9.67349 10.9074 9.07126H8.40737C8.40737 11.0542 10.0185 12.6653 12.0014 12.6653V10.1653ZM10.9074 9.07126V7.89924H8.40737V9.07126H10.9074Z" fill="#999999" mask="url(#path-2-inside-1_118_674)"/>
</g>
<defs>
<clipPath id="clip0_118_674">
<rect width="20.0025" height="20.0025" fill="white" transform="translate(2 2)"/>
</clipPath>
</defs>
</svg>
