<svg width="24" height="24" viewBox="0 0 24 24" fill="none" xmlns="http://www.w3.org/2000/svg">
<g clip-path="url(#clip0_2605_9645)">
<path d="M21.4 4.1201C21.4 6.45323 21.4 8.78212 21.4 11.1454C21.2297 10.8926 21.0877 10.6733 20.9368 10.4592C19.6832 8.679 18.1138 7.19254 15.9918 6.26147C14.8633 5.7663 13.7368 5.47701 12.6153 5.39083C10.858 5.25579 9.11306 5.61946 7.39246 6.47115C5.37091 7.4718 3.88421 8.97277 2.69985 10.7374C2.6762 10.7727 2.65122 10.8072 2.60013 10.8804C2.60013 8.51363 2.60013 6.1767 2.60013 3.83252C2.60013 3.42197 3.14243 2.60001 4.18203 2.60001C9.40353 2.60001 14.6231 2.60001 19.8633 2.60001C20.8125 2.60001 21.4 3.17518 21.4 4.1201Z" fill="white"/>
<path d="M21.3949 14.5542C18.7145 11.9894 15.659 10.3605 11.9905 10.4167C8.36844 10.4722 5.26449 11.9688 2.60117 14.5636C2.60117 14.0446 2.59645 13.5715 2.606 13.0986C2.60756 13.0227 2.66291 12.9407 2.71011 12.8741C4.62727 10.1683 7.13236 8.39349 10.3701 7.86831C13.2583 7.39982 15.9076 8.11078 18.3084 9.81696C19.4544 10.6313 20.4232 11.6378 21.2329 12.8039C21.3267 12.9389 21.3786 13.1292 21.3878 13.2976C21.4099 13.7025 21.3949 14.1096 21.3949 14.5542Z" fill="white"/>
<path d="M21.3951 17.9818C15.1208 15.4787 8.88072 15.4784 2.60325 17.9793C2.60325 17.5459 2.59092 17.0988 2.61435 16.6534C2.61868 16.5711 2.75838 16.4838 2.85144 16.4188C4.38686 15.3472 6.10411 14.646 7.95052 14.209C9.2634 13.8983 10.6023 13.6826 11.9492 13.7118C15.2947 13.7842 18.4332 14.5406 21.182 16.4376C21.3404 16.5469 21.4065 16.665 21.3994 16.8506C21.385 17.2239 21.3951 17.598 21.3951 17.9818Z" fill="white"/>
<path d="M19.999 21.3999C14.7318 21.3999 9.49192 21.3999 4.22753 21.3999C2.91682 21.3999 2.58555 20.7925 2.60048 20.3214C2.60226 20.2653 2.72343 19.8312 2.79604 19.8153C3.60698 19.6389 4.41527 19.4418 5.23382 19.3109C8.0006 18.8682 10.7904 18.78 13.5842 18.8656C16.079 18.942 18.5594 19.17 20.9898 19.7961C21.2892 19.8732 21.4281 19.9776 21.3951 20.3117C21.3607 20.6606 21.3999 21.3999 19.999 21.3999Z" fill="white"/>
</g>
<defs>
<clipPath id="clip0_2605_9645">
<rect x="2.60001" y="2.60001" width="18.8" height="18.8" rx="3" fill="white"/>
</clipPath>
</defs>
</svg>
