<svg width="20" height="20" viewBox="0 0 20 20" fill="none" xmlns="http://www.w3.org/2000/svg">
<path d="M18.125 5.62542V4.79187C18.125 4.34979 17.9494 3.92582 17.6368 3.61322C17.3242 3.30062 16.9002 3.125 16.4581 3.125H3.12312C2.68104 3.125 2.25707 3.30062 1.94446 3.61322C1.63186 3.92582 1.45625 4.34979 1.45625 4.79187V14.7931C1.45625 15.2352 1.63186 15.6592 1.94446 15.9718C2.25707 16.2844 2.68104 16.46 3.12312 16.46M7.5 10.8333H15.8333M7.5 13.3333H15.8333M15 16.4593H6.20755C5.65527 16.4593 5.20755 16.0116 5.20755 15.4593V8.95844C5.20755 8.7374 5.30163 8.52541 5.4691 8.36911C5.63656 8.21281 5.86369 8.125 6.10052 8.125H17.232C17.4689 8.125 17.696 8.21281 17.8635 8.36911C18.0309 8.52541 18.125 8.7374 18.125 8.95844V15.4593C18.125 16.0116 17.6773 16.4593 17.125 16.4593H15Z" stroke="#1C1C1C" stroke-width="1.25" stroke-linecap="round" stroke-linejoin="round"/>
</svg>
