<svg width="26" height="30" viewBox="0 0 26 30" fill="none" xmlns="http://www.w3.org/2000/svg">
<g clip-path="url(#clip0)">
<path d="M0.8125 6.53003L4.42813 13.0238V16.9848L0.81673 23.4658L0.8125 6.53003Z" fill="#5B57A2"/>
<path d="M14.6951 10.6607L18.083 8.57425L25.0167 8.56775L14.6951 14.9212V10.6607Z" fill="#D90751"/>
<path d="M14.6759 6.49175L14.695 15.0892L11.0709 12.8518V0L14.6761 6.49175H14.6759Z" fill="#FAB718"/>
<path d="M25.0167 8.56775L18.0827 8.57425L14.6759 6.49175L11.0709 0L25.0164 8.56775H25.0167Z" fill="#ED6F26"/>
<path d="M14.695 23.5017V19.3305L11.0709 17.1355L11.0729 30L14.695 23.5017Z" fill="#63B22F"/>
<path d="M18.0746 21.4343L4.42788 13.0238L0.8125 6.53003L25.002 21.4258L18.0743 21.4343H18.0746Z" fill="#1487C9"/>
<path d="M11.0731 30L14.6947 23.5018L18.0742 21.4343L25.0017 21.4258L11.0731 30Z" fill="#017F36"/>
<path d="M0.816772 23.4658L11.1006 17.1358L7.64322 15.0043L4.42817 16.9848L0.816772 23.4658Z" fill="#984995"/>
</g>
<defs>
<clipPath id="clip0">
<rect width="24.375" height="30" fill="white" transform="translate(0.8125)"/>
</clipPath>
</defs>
</svg>
