<svg width="40" height="40" viewBox="0 0 40 40" fill="none" xmlns="http://www.w3.org/2000/svg">
<rect width="40" height="40" rx="20" fill="#F6A5C0"/>
<path d="M11 14.0001L14 10.0001H26L29 14.0001M11 14.0001V28.0001C11 28.5306 11.2107 29.0393 11.5858 29.4143C11.9609 29.7894 12.4696 30.0001 13 30.0001H27C27.5304 30.0001 28.0391 29.7894 28.4142 29.4143C28.7893 29.0393 29 28.5306 29 28.0001V14.0001M11 14.0001H29M24.0001 18.0001C24.0001 19.061 23.5786 20.0784 22.8285 20.8285C22.0783 21.5787 21.0609 22.0001 20.0001 22.0001C18.9392 22.0001 17.9218 21.5787 17.1716 20.8285C16.4215 20.0784 16.0001 19.061 16.0001 18.0001" stroke="white" stroke-width="1.25" stroke-linecap="round" stroke-linejoin="round"/>
</svg>
