<svg width="40" height="40" viewBox="0 0 40 40" fill="none" xmlns="http://www.w3.org/2000/svg">
<rect width="40" height="40" rx="20" fill="#F6F6F7"/>
<path d="M7.8125 11.53L11.4281 18.0238V21.9848L7.81673 28.4658L7.8125 11.53Z" fill="#5B57A2"/>
<path d="M21.6951 15.6607L25.083 13.5742L32.0167 13.5677L21.6951 19.9212V15.6607Z" fill="#D90751"/>
<path d="M21.6759 11.4917L21.695 20.0892L18.0709 17.8518V5L21.6761 11.4917H21.6759Z" fill="#FAB718"/>
<path d="M32.0167 13.5677L25.0827 13.5743L21.6759 11.4917L18.0709 5L32.0164 13.5677H32.0167Z" fill="#ED6F26"/>
<path d="M21.695 28.5017V24.3305L18.0709 22.1355L18.0729 35L21.695 28.5017Z" fill="#63B22F"/>
<path d="M25.0746 26.4343L11.4279 18.0238L7.8125 11.53L32.002 26.4258L25.0743 26.4343H25.0746Z" fill="#1487C9"/>
<path d="M18.0731 35L21.6947 28.5018L25.0742 26.4343L32.0017 26.4258L18.0731 35Z" fill="#017F36"/>
<path d="M7.81677 28.4658L18.1006 22.1358L14.6432 20.0043L11.4282 21.9848L7.81677 28.4658Z" fill="#984995"/>
</svg>
