<svg width="24" height="24" viewBox="0 0 24 24" fill="none" xmlns="http://www.w3.org/2000/svg">
<path d="M14.12 14.1201C13.8454 14.4148 13.5141 14.6512 13.1462 14.8152C12.7782 14.9792 12.3809 15.0673 11.9781 15.0744C11.5753 15.0815 11.1752 15.0074 10.8016 14.8566C10.4281 14.7057 10.0887 14.4811 9.80385 14.1962C9.51897 13.9113 9.29439 13.572 9.14351 13.1985C8.99263 12.8249 8.91853 12.4248 8.92563 12.022C8.93274 11.6192 9.02091 11.2219 9.18488 10.8539C9.34884 10.4859 9.58525 10.1547 9.88 9.88007M1 1.00006L23 23.0001M17.94 17.9401C16.2306 19.2431 14.1491 19.9649 12 20.0001C5 20.0001 1 12.0001 1 12.0001C2.24389 9.68196 3.96914 7.65668 6.06 6.06007L17.94 17.9401ZM9.9 4.24007C10.5883 4.07895 11.2931 3.99841 12 4.00007C19 4.00007 23 12.0001 23 12.0001C22.393 13.1357 21.6691 14.2048 20.84 15.1901L9.9 4.24007Z" stroke="#1C1C1C" stroke-width="1.25" stroke-linecap="round" stroke-linejoin="round"/>
</svg>
