<svg width="16" height="16" viewBox="0 0 16 16" fill="none" xmlns="http://www.w3.org/2000/svg">
<path d="M14 10.6668V5.33347C13.9998 5.09965 13.938 4.87001 13.821 4.66758C13.704 4.46515 13.5358 4.29705 13.3333 4.18014L8.66667 1.51347C8.46397 1.39645 8.23405 1.33484 8 1.33484C7.76595 1.33484 7.53603 1.39645 7.33333 1.51347L2.66667 4.18014C2.46418 4.29705 2.29599 4.46515 2.17897 4.66758C2.06196 4.87001 2.00024 5.09965 2 5.33347V10.6668C2.00024 10.9006 2.06196 11.1303 2.17897 11.3327C2.29599 11.5351 2.46418 11.7032 2.66667 11.8201L7.33333 14.4868C7.53603 14.6038 7.76595 14.6654 8 14.6654C8.23405 14.6654 8.46397 14.6038 8.66667 14.4868L13.3333 11.8201C13.5358 11.7032 13.704 11.5351 13.821 11.3327C13.938 11.1303 13.9998 10.9006 14 10.6668Z" stroke="#1C1C1C" stroke-width="1.25" stroke-linecap="round" stroke-linejoin="round"/>
</svg>
