<svg width="40" height="40" viewBox="0 0 40 40" fill="none" xmlns="http://www.w3.org/2000/svg">
<rect width="40" height="40" rx="20" fill="#A5D7A7"/>
<path d="M19.9999 22.9702V19.7634C19.9999 19.5191 19.8009 19.32 19.5566 19.32H12.9066C11.7796 19.32 11.1332 18.6736 11.1332 17.5467V15.7733C11.1332 14.6464 11.7796 14 12.9066 14H13.2733M27.5 14L28.4506 14.0001M25.3181 17.2067H14.9939C14.045 17.2067 13.2733 16.4113 13.2733 15.4333V14.1033V12.7733C13.2733 11.7953 14.045 11 14.9939 11H25.3181C26.2671 11 27.0388 11.7953 27.0388 12.7733V15.4333C27.0388 16.4113 26.2671 17.2067 25.3181 17.2067ZM20.4055 31H19.5452C18.8337 31 18.2546 30.4311 18.2546 29.7321V25.0832C18.2546 23.76 18.8977 22.9701 19.9753 22.9701C21.0529 22.9701 21.696 23.76 21.696 25.0832V29.7321C21.696 30.4311 21.117 31 20.4055 31Z" stroke="white" stroke-width="1.25" stroke-linecap="round"/>
</svg>
