<svg width="24" height="24" viewBox="0 0 24 24" fill="none" xmlns="http://www.w3.org/2000/svg">
<path d="M15.9999 7.99994C17.5912 7.99994 19.1174 8.63208 20.2426 9.7573C21.3678 10.8825 21.9999 12.4086 21.9999 13.9999V20.9999H17.9999V13.9999C17.9999 13.4695 17.7892 12.9608 17.4142 12.5857C17.0391 12.2107 16.5304 11.9999 15.9999 11.9999C15.4695 11.9999 14.9608 12.2107 14.5857 12.5857C14.2107 12.9608 13.9999 13.4695 13.9999 13.9999V20.9999H9.99994V13.9999C9.99994 12.4086 10.6321 10.8825 11.7573 9.7573C12.8825 8.63208 14.4086 7.99994 15.9999 7.99994Z" stroke="#1C1C1C" stroke-width="1.25" stroke-linecap="round" stroke-linejoin="round"/>
<path d="M5.99994 8.99994H1.99994V20.9999H5.99994V8.99994Z" stroke="#1C1C1C" stroke-width="1.25" stroke-linecap="round" stroke-linejoin="round"/>
<path d="M3.99994 5.99994C5.10451 5.99994 5.99994 5.10451 5.99994 3.99994C5.99994 2.89537 5.10451 1.99994 3.99994 1.99994C2.89537 1.99994 1.99994 2.89537 1.99994 3.99994C1.99994 5.10451 2.89537 5.99994 3.99994 5.99994Z" stroke="#1C1C1C" stroke-width="1.25" stroke-linecap="round" stroke-linejoin="round"/>
</svg>
