<svg width="24" height="24" viewBox="0 0 24 24" fill="none" xmlns="http://www.w3.org/2000/svg">
<path d="M8.00004 16H16.14M8.00014 2H16.2801L22.1401 7.86V16.14L16.2801 22H8.00014L2.14014 16.14V7.86L8.00014 2Z" stroke="#1C1C1C" stroke-width="1.25" stroke-linecap="round" stroke-linejoin="round"/>
<path d="M11 19H13.14" stroke="#1C1C1C" stroke-width="1.25" stroke-linecap="round" stroke-linejoin="round"/>
<path d="M8.50095 8.37997C8.52429 8.4873 8.52662 8.59697 8.50795 8.70897C8.49395 8.8163 8.47295 8.9143 8.44495 9.00297C8.38895 9.18497 8.32362 9.38797 8.24895 9.61197C8.17429 9.83597 8.09962 10.06 8.02495 10.284C7.95029 10.508 7.87795 10.7203 7.80795 10.921C7.73795 11.117 7.67962 11.2803 7.63295 11.411C7.58629 11.5323 7.53729 11.67 7.48595 11.824C7.43462 11.978 7.37162 12.1296 7.29695 12.279C7.22695 12.4236 7.14295 12.5566 7.04495 12.678C6.95162 12.7993 6.83729 12.888 6.70195 12.944C6.56662 13 6.44295 13.014 6.33095 12.986C6.21895 12.9533 6.11862 12.8973 6.02995 12.818C5.94129 12.734 5.85962 12.6313 5.78495 12.51C5.71495 12.384 5.65195 12.2556 5.59595 12.125C5.53995 11.9943 5.48862 11.8683 5.44195 11.747C5.39529 11.621 5.35329 11.5136 5.31595 11.425C5.17129 11.1076 5.04062 10.7716 4.92395 10.417C4.80729 10.0623 4.68829 9.72397 4.56695 9.40197C4.53429 9.30864 4.49695 9.19664 4.45495 9.06597C4.41295 8.93064 4.38495 8.79764 4.37095 8.66697C4.36162 8.53164 4.37795 8.4103 4.41995 8.30297C4.46195 8.19097 4.55062 8.11397 4.68595 8.07197C4.71395 8.06264 4.74195 8.05564 4.76995 8.05097C4.80262 8.04164 4.83295 8.03464 4.86095 8.02997C4.89362 8.02997 4.92395 8.0323 4.95195 8.03697C4.97995 8.04164 5.01029 8.0533 5.04295 8.07197C5.06629 8.0813 5.08962 8.09297 5.11295 8.10697C5.13629 8.1163 5.15729 8.1303 5.17595 8.14897C5.19462 8.1723 5.21095 8.19564 5.22495 8.21897C5.24362 8.2423 5.26229 8.26564 5.28095 8.28897C5.29495 8.32164 5.30662 8.35197 5.31595 8.37997C5.32995 8.4033 5.34162 8.42664 5.35095 8.44997C5.36029 8.48264 5.37195 8.51297 5.38595 8.54097C5.39995 8.5643 5.41162 8.58764 5.42095 8.61097L5.46295 8.72997L6.47095 11.607L7.46495 8.73697L7.51395 8.61797C7.52329 8.59464 7.53262 8.5713 7.54195 8.54797C7.55129 8.51997 7.56062 8.48964 7.56995 8.45697C7.57929 8.43364 7.58862 8.4103 7.59795 8.38697C7.61195 8.35897 7.62829 8.33097 7.64695 8.30297C7.66095 8.27964 7.67495 8.2563 7.68895 8.23297C7.70762 8.20497 7.72629 8.1793 7.74495 8.15597C7.75895 8.1373 7.77529 8.12097 7.79395 8.10697C7.81729 8.09297 7.83829 8.0813 7.85695 8.07197C7.89429 8.0533 7.92695 8.04164 7.95495 8.03697C7.98762 8.0323 8.01562 8.02997 8.03895 8.02997C8.06695 8.03464 8.09495 8.04164 8.12295 8.05097C8.15562 8.05564 8.18595 8.06264 8.21395 8.07197C8.30262 8.0953 8.36795 8.13497 8.40995 8.19097C8.45662 8.24697 8.48695 8.30997 8.50095 8.37997Z" fill="#1C1C1C"/>
<path d="M9.29775 12.258L9.30475 11.705L9.31175 10.676C9.31642 10.5266 9.31875 10.3726 9.31875 10.214C9.31875 10.0553 9.31875 9.89197 9.31875 9.72397C9.31875 9.55597 9.31875 9.40664 9.31875 9.27597C9.31875 9.1453 9.32342 8.9983 9.33275 8.83497V8.80697C9.33742 8.7603 9.33975 8.71364 9.33975 8.66697C9.34442 8.61564 9.34675 8.5643 9.34675 8.51297C9.35142 8.42897 9.37708 8.33797 9.42375 8.23997C9.45642 8.17464 9.50542 8.11864 9.57075 8.07197C9.64542 8.03464 9.71775 8.01597 9.78775 8.01597C9.82508 8.01597 9.85775 8.0183 9.88575 8.02297C9.91842 8.02297 9.94875 8.0253 9.97675 8.02997C10.0374 8.0393 10.0911 8.0673 10.1378 8.11397C10.1658 8.1373 10.1914 8.17464 10.2148 8.22597C10.2241 8.25397 10.2311 8.28197 10.2358 8.30997C10.2451 8.3333 10.2521 8.35897 10.2568 8.38697C10.2614 8.41964 10.2638 8.44997 10.2638 8.47797C10.2684 8.50597 10.2708 8.53397 10.2708 8.56197C10.2708 8.59464 10.2684 8.62497 10.2638 8.65297C10.2638 8.6763 10.2638 8.70197 10.2638 8.72997V8.84897L10.2218 12.482V12.552C10.2218 12.566 10.2194 12.5846 10.2148 12.608C10.2148 12.6266 10.2124 12.65 10.2078 12.678C10.1984 12.7013 10.1891 12.727 10.1798 12.755C10.1751 12.7783 10.1681 12.804 10.1588 12.832C10.1448 12.8553 10.1284 12.8786 10.1098 12.902C10.0958 12.9206 10.0771 12.9393 10.0538 12.958C10.0164 12.9953 9.95575 13.021 9.87175 13.035C9.74575 13.063 9.62675 13.0513 9.51475 13C9.45875 12.9626 9.41908 12.916 9.39575 12.86C9.38175 12.846 9.37475 12.832 9.37475 12.818C9.37008 12.8086 9.36542 12.8016 9.36075 12.797C9.35608 12.7923 9.35142 12.7853 9.34675 12.776C9.33742 12.7526 9.33042 12.7293 9.32575 12.706C9.32108 12.678 9.31875 12.65 9.31875 12.622C9.31408 12.5986 9.30942 12.5753 9.30475 12.552C9.30475 12.5286 9.30242 12.5053 9.29775 12.482C9.29308 12.4446 9.29308 12.405 9.29775 12.363V12.258Z" fill="#1C1C1C"/>
<path d="M14.6687 10.963C14.692 11.0283 14.7083 11.103 14.7177 11.187C14.7317 11.2663 14.7387 11.348 14.7387 11.432C14.7387 11.516 14.7317 11.6 14.7177 11.684C14.7083 11.7633 14.6943 11.8333 14.6757 11.894C14.601 12.1553 14.4517 12.3746 14.2277 12.552C14.0037 12.7246 13.747 12.8506 13.4577 12.93C13.173 13.0093 12.8767 13.0373 12.5687 13.014C12.2653 12.9906 11.9947 12.9136 11.7567 12.783C11.6073 12.699 11.479 12.5963 11.3717 12.475C11.2643 12.3536 11.1733 12.2183 11.0987 12.069C11.0707 12.0176 11.052 11.9593 11.0427 11.894C11.038 11.824 11.045 11.7586 11.0637 11.698C11.0823 11.6326 11.1127 11.5766 11.1547 11.53C11.1967 11.4786 11.255 11.4436 11.3297 11.425C11.3763 11.4156 11.4277 11.411 11.4837 11.411C11.5443 11.411 11.6027 11.4203 11.6587 11.439C11.7147 11.453 11.766 11.4786 11.8127 11.516C11.8593 11.5486 11.8967 11.5953 11.9247 11.656C11.976 11.754 12.0483 11.845 12.1417 11.929C12.2397 12.0083 12.3423 12.0736 12.4497 12.125C12.6037 12.1763 12.7577 12.1973 12.9117 12.188C13.0703 12.1786 13.2127 12.1436 13.3387 12.083C13.4693 12.0223 13.5743 11.9406 13.6537 11.838C13.733 11.7306 13.7727 11.6093 13.7727 11.474C13.7727 11.362 13.7563 11.271 13.7237 11.201C13.691 11.1263 13.6443 11.0656 13.5837 11.019C13.5277 10.9676 13.4577 10.9256 13.3737 10.893C13.2943 10.8603 13.2057 10.8323 13.1077 10.809C12.9957 10.7856 12.8813 10.7693 12.7647 10.76C12.6527 10.7506 12.5383 10.739 12.4217 10.725C12.305 10.711 12.1907 10.6923 12.0787 10.669C11.9667 10.6456 11.857 10.6106 11.7497 10.564C11.535 10.4753 11.3717 10.34 11.2597 10.158C11.1477 9.97597 11.08 9.77997 11.0567 9.56997C11.038 9.35997 11.0637 9.1523 11.1337 8.94697C11.2037 8.73697 11.3157 8.5573 11.4697 8.40797C11.619 8.27264 11.7963 8.17697 12.0017 8.12097C12.2117 8.0603 12.4427 8.0253 12.6947 8.01597C12.8347 8.0113 12.9747 8.01597 13.1147 8.02997C13.2593 8.04397 13.397 8.0673 13.5277 8.09997C13.663 8.13264 13.7867 8.17464 13.8987 8.22597C14.0153 8.2773 14.1157 8.33797 14.1997 8.40797C14.2603 8.45464 14.321 8.51764 14.3817 8.59697C14.4423 8.67164 14.489 8.7533 14.5217 8.84197C14.5543 8.92597 14.5637 9.00764 14.5497 9.08697C14.5403 9.1663 14.4913 9.23397 14.4027 9.28997C14.328 9.33664 14.2557 9.35764 14.1857 9.35297C14.1203 9.34364 14.0573 9.32264 13.9967 9.28997C13.936 9.25264 13.8777 9.21064 13.8217 9.16397C13.7657 9.1173 13.7143 9.0753 13.6677 9.03797C13.5417 8.94464 13.3853 8.88164 13.1987 8.84897C13.012 8.8163 12.837 8.8093 12.6737 8.82797C12.571 8.84197 12.4753 8.8653 12.3867 8.89797C12.298 8.93064 12.221 8.97497 12.1557 9.03097C12.095 9.08697 12.046 9.15697 12.0087 9.24097C11.976 9.3203 11.9643 9.4113 11.9737 9.51397C11.9783 9.58864 11.9993 9.65164 12.0367 9.70297C12.0787 9.7543 12.1277 9.7963 12.1837 9.82897C12.2443 9.86164 12.3097 9.8873 12.3797 9.90597C12.4497 9.92464 12.5197 9.93864 12.5897 9.94797C12.7997 9.97597 13.0097 9.99697 13.2197 10.011C13.4297 10.025 13.635 10.0716 13.8357 10.151C14.041 10.2303 14.216 10.3376 14.3607 10.473C14.5053 10.6083 14.608 10.7716 14.6687 10.963Z" fill="#1C1C1C"/>
<path d="M19.6205 12.524C19.6251 12.552 19.6275 12.58 19.6275 12.608C19.6321 12.6313 19.6345 12.6593 19.6345 12.692C19.6345 12.748 19.6181 12.7993 19.5855 12.846C19.5715 12.8693 19.5528 12.8926 19.5295 12.916C19.5061 12.9346 19.4781 12.951 19.4455 12.965C19.3288 13.0303 19.2051 13.0536 19.0745 13.035C19.0091 13.0163 18.9508 12.986 18.8995 12.944C18.8901 12.9346 18.8831 12.93 18.8785 12.93C18.8738 12.9253 18.8691 12.9183 18.8645 12.909C18.8598 12.9043 18.8551 12.8996 18.8505 12.895C18.8458 12.8856 18.8388 12.8786 18.8295 12.874C18.8061 12.8506 18.7875 12.8296 18.7735 12.811C18.7595 12.7876 18.7455 12.7643 18.7315 12.741C18.7221 12.7176 18.7105 12.6966 18.6965 12.678C18.6871 12.6546 18.6755 12.6313 18.6615 12.608C18.6521 12.5893 18.6428 12.573 18.6335 12.559C18.6241 12.5403 18.6171 12.5216 18.6125 12.503C18.5938 12.461 18.5821 12.4236 18.5775 12.391L18.4305 12.048C18.1085 12.048 17.7865 12.0503 17.4645 12.055C17.1471 12.055 16.8275 12.0526 16.5055 12.048L16.3585 12.391C16.3491 12.4096 16.3421 12.4283 16.3375 12.447C16.3375 12.4656 16.3328 12.4843 16.3235 12.503C16.3141 12.5216 16.3048 12.5403 16.2955 12.559C16.2908 12.573 16.2838 12.5893 16.2745 12.608C16.2605 12.6313 16.2465 12.6546 16.2325 12.678C16.2231 12.6966 16.2115 12.7176 16.1975 12.741C16.1881 12.7643 16.1765 12.7876 16.1625 12.811C16.1485 12.8296 16.1298 12.8506 16.1065 12.874C16.0971 12.8786 16.0901 12.8856 16.0855 12.895C16.0808 12.8996 16.0761 12.9043 16.0715 12.909C16.0668 12.9183 16.0621 12.9253 16.0575 12.93C16.0528 12.93 16.0458 12.9346 16.0365 12.944C15.9851 12.986 15.9268 13.0163 15.8615 13.035C15.7308 13.0536 15.6071 13.0303 15.4905 12.965C15.4578 12.951 15.4298 12.9346 15.4065 12.916C15.3831 12.8926 15.3645 12.8693 15.3505 12.846C15.3178 12.7993 15.3015 12.748 15.3015 12.692C15.3015 12.6593 15.3015 12.6313 15.3015 12.608C15.3061 12.58 15.3108 12.552 15.3155 12.524C15.3248 12.482 15.3365 12.44 15.3505 12.398C15.3645 12.356 15.3715 12.335 15.3715 12.335L16.8275 8.75097L16.8695 8.63897C16.8788 8.61097 16.8905 8.5853 16.9045 8.56197C16.9185 8.53864 16.9301 8.51064 16.9395 8.47797C16.9628 8.4173 16.9885 8.36364 17.0165 8.31697C17.0305 8.28897 17.0468 8.2633 17.0655 8.23997C17.0841 8.21664 17.1028 8.1933 17.1215 8.16997C17.1495 8.13264 17.1891 8.1023 17.2405 8.07897C17.3058 8.05564 17.3805 8.04397 17.4645 8.04397C17.5531 8.04397 17.6301 8.05564 17.6955 8.07897C17.7468 8.1023 17.7865 8.13264 17.8145 8.16997C17.8471 8.21197 17.8821 8.26097 17.9195 8.31697C17.9475 8.36364 17.9731 8.4173 17.9965 8.47797C18.0058 8.51064 18.0175 8.53864 18.0315 8.56197C18.0455 8.5853 18.0571 8.61097 18.0665 8.63897L18.1085 8.75097L19.5645 12.335C19.5645 12.335 19.5715 12.356 19.5855 12.398C19.5995 12.44 19.6111 12.482 19.6205 12.524ZM17.9615 10.809C17.9008 10.6736 17.8378 10.5336 17.7725 10.389C17.7118 10.2443 17.6465 10.0973 17.5765 9.94797C17.5578 9.90597 17.5391 9.86397 17.5205 9.82197C17.5018 9.7753 17.4831 9.73097 17.4645 9.68897C17.4505 9.73097 17.4341 9.7753 17.4155 9.82197C17.3968 9.86397 17.3781 9.90597 17.3595 9.94797C17.2895 10.0973 17.2218 10.2443 17.1565 10.389C17.0958 10.5336 17.0351 10.6736 16.9745 10.809L16.8485 11.117H18.0875L17.9615 10.809Z" fill="#1C1C1C"/>
<path d="M8.50095 8.37997C8.52429 8.4873 8.52662 8.59697 8.50795 8.70897C8.49395 8.8163 8.47295 8.9143 8.44495 9.00297C8.38895 9.18497 8.32362 9.38797 8.24895 9.61197C8.17429 9.83597 8.09962 10.06 8.02495 10.284C7.95029 10.508 7.87795 10.7203 7.80795 10.921C7.73795 11.117 7.67962 11.2803 7.63295 11.411C7.58629 11.5323 7.53729 11.67 7.48595 11.824C7.43462 11.978 7.37162 12.1296 7.29695 12.279C7.22695 12.4236 7.14295 12.5566 7.04495 12.678C6.95162 12.7993 6.83729 12.888 6.70195 12.944C6.56662 13 6.44295 13.014 6.33095 12.986C6.21895 12.9533 6.11862 12.8973 6.02995 12.818C5.94129 12.734 5.85962 12.6313 5.78495 12.51C5.71495 12.384 5.65195 12.2556 5.59595 12.125C5.53995 11.9943 5.48862 11.8683 5.44195 11.747C5.39529 11.621 5.35329 11.5136 5.31595 11.425C5.17129 11.1076 5.04062 10.7716 4.92395 10.417C4.80729 10.0623 4.68829 9.72397 4.56695 9.40197C4.53429 9.30864 4.49695 9.19664 4.45495 9.06597C4.41295 8.93064 4.38495 8.79764 4.37095 8.66697C4.36162 8.53164 4.37795 8.4103 4.41995 8.30297C4.46195 8.19097 4.55062 8.11397 4.68595 8.07197C4.71395 8.06264 4.74195 8.05564 4.76995 8.05097C4.80262 8.04164 4.83295 8.03464 4.86095 8.02997C4.89362 8.02997 4.92395 8.0323 4.95195 8.03697C4.97995 8.04164 5.01029 8.0533 5.04295 8.07197C5.06629 8.0813 5.08962 8.09297 5.11295 8.10697C5.13629 8.1163 5.15729 8.1303 5.17595 8.14897C5.19462 8.1723 5.21095 8.19564 5.22495 8.21897C5.24362 8.2423 5.26229 8.26564 5.28095 8.28897C5.29495 8.32164 5.30662 8.35197 5.31595 8.37997C5.32995 8.4033 5.34162 8.42664 5.35095 8.44997C5.36029 8.48264 5.37195 8.51297 5.38595 8.54097C5.39995 8.5643 5.41162 8.58764 5.42095 8.61097L5.46295 8.72997L6.47095 11.607L7.46495 8.73697L7.51395 8.61797C7.52329 8.59464 7.53262 8.5713 7.54195 8.54797C7.55129 8.51997 7.56062 8.48964 7.56995 8.45697C7.57929 8.43364 7.58862 8.4103 7.59795 8.38697C7.61195 8.35897 7.62829 8.33097 7.64695 8.30297C7.66095 8.27964 7.67495 8.2563 7.68895 8.23297C7.70762 8.20497 7.72629 8.1793 7.74495 8.15597C7.75895 8.1373 7.77529 8.12097 7.79395 8.10697C7.81729 8.09297 7.83829 8.0813 7.85695 8.07197C7.89429 8.0533 7.92695 8.04164 7.95495 8.03697C7.98762 8.0323 8.01562 8.02997 8.03895 8.02997C8.06695 8.03464 8.09495 8.04164 8.12295 8.05097C8.15562 8.05564 8.18595 8.06264 8.21395 8.07197C8.30262 8.0953 8.36795 8.13497 8.40995 8.19097C8.45662 8.24697 8.48695 8.30997 8.50095 8.37997Z" stroke="#1C1C1C" stroke-width="0.25"/>
<path d="M9.29775 12.258L9.30475 11.705L9.31175 10.676C9.31642 10.5266 9.31875 10.3726 9.31875 10.214C9.31875 10.0553 9.31875 9.89197 9.31875 9.72397C9.31875 9.55597 9.31875 9.40664 9.31875 9.27597C9.31875 9.1453 9.32342 8.9983 9.33275 8.83497V8.80697C9.33742 8.7603 9.33975 8.71364 9.33975 8.66697C9.34442 8.61564 9.34675 8.5643 9.34675 8.51297C9.35142 8.42897 9.37708 8.33797 9.42375 8.23997C9.45642 8.17464 9.50542 8.11864 9.57075 8.07197C9.64542 8.03464 9.71775 8.01597 9.78775 8.01597C9.82508 8.01597 9.85775 8.0183 9.88575 8.02297C9.91842 8.02297 9.94875 8.0253 9.97675 8.02997C10.0374 8.0393 10.0911 8.0673 10.1378 8.11397C10.1658 8.1373 10.1914 8.17464 10.2148 8.22597C10.2241 8.25397 10.2311 8.28197 10.2358 8.30997C10.2451 8.3333 10.2521 8.35897 10.2568 8.38697C10.2614 8.41964 10.2638 8.44997 10.2638 8.47797C10.2684 8.50597 10.2708 8.53397 10.2708 8.56197C10.2708 8.59464 10.2684 8.62497 10.2638 8.65297C10.2638 8.6763 10.2638 8.70197 10.2638 8.72997V8.84897L10.2218 12.482V12.552C10.2218 12.566 10.2194 12.5846 10.2148 12.608C10.2148 12.6266 10.2124 12.65 10.2078 12.678C10.1984 12.7013 10.1891 12.727 10.1798 12.755C10.1751 12.7783 10.1681 12.804 10.1588 12.832C10.1448 12.8553 10.1284 12.8786 10.1098 12.902C10.0958 12.9206 10.0771 12.9393 10.0538 12.958C10.0164 12.9953 9.95575 13.021 9.87175 13.035C9.74575 13.063 9.62675 13.0513 9.51475 13C9.45875 12.9626 9.41908 12.916 9.39575 12.86C9.38175 12.846 9.37475 12.832 9.37475 12.818C9.37008 12.8086 9.36542 12.8016 9.36075 12.797C9.35608 12.7923 9.35142 12.7853 9.34675 12.776C9.33742 12.7526 9.33042 12.7293 9.32575 12.706C9.32108 12.678 9.31875 12.65 9.31875 12.622C9.31408 12.5986 9.30942 12.5753 9.30475 12.552C9.30475 12.5286 9.30242 12.5053 9.29775 12.482C9.29308 12.4446 9.29308 12.405 9.29775 12.363V12.258Z" stroke="#1C1C1C" stroke-width="0.25"/>
<path d="M14.6687 10.963C14.692 11.0283 14.7083 11.103 14.7177 11.187C14.7317 11.2663 14.7387 11.348 14.7387 11.432C14.7387 11.516 14.7317 11.6 14.7177 11.684C14.7083 11.7633 14.6943 11.8333 14.6757 11.894C14.601 12.1553 14.4517 12.3746 14.2277 12.552C14.0037 12.7246 13.747 12.8506 13.4577 12.93C13.173 13.0093 12.8767 13.0373 12.5687 13.014C12.2653 12.9906 11.9947 12.9136 11.7567 12.783C11.6073 12.699 11.479 12.5963 11.3717 12.475C11.2643 12.3536 11.1733 12.2183 11.0987 12.069C11.0707 12.0176 11.052 11.9593 11.0427 11.894C11.038 11.824 11.045 11.7586 11.0637 11.698C11.0823 11.6326 11.1127 11.5766 11.1547 11.53C11.1967 11.4786 11.255 11.4436 11.3297 11.425C11.3763 11.4156 11.4277 11.411 11.4837 11.411C11.5443 11.411 11.6027 11.4203 11.6587 11.439C11.7147 11.453 11.766 11.4786 11.8127 11.516C11.8593 11.5486 11.8967 11.5953 11.9247 11.656C11.976 11.754 12.0483 11.845 12.1417 11.929C12.2397 12.0083 12.3423 12.0736 12.4497 12.125C12.6037 12.1763 12.7577 12.1973 12.9117 12.188C13.0703 12.1786 13.2127 12.1436 13.3387 12.083C13.4693 12.0223 13.5743 11.9406 13.6537 11.838C13.733 11.7306 13.7727 11.6093 13.7727 11.474C13.7727 11.362 13.7563 11.271 13.7237 11.201C13.691 11.1263 13.6443 11.0656 13.5837 11.019C13.5277 10.9676 13.4577 10.9256 13.3737 10.893C13.2943 10.8603 13.2057 10.8323 13.1077 10.809C12.9957 10.7856 12.8813 10.7693 12.7647 10.76C12.6527 10.7506 12.5383 10.739 12.4217 10.725C12.305 10.711 12.1907 10.6923 12.0787 10.669C11.9667 10.6456 11.857 10.6106 11.7497 10.564C11.535 10.4753 11.3717 10.34 11.2597 10.158C11.1477 9.97597 11.08 9.77997 11.0567 9.56997C11.038 9.35997 11.0637 9.1523 11.1337 8.94697C11.2037 8.73697 11.3157 8.5573 11.4697 8.40797C11.619 8.27264 11.7963 8.17697 12.0017 8.12097C12.2117 8.0603 12.4427 8.0253 12.6947 8.01597C12.8347 8.0113 12.9747 8.01597 13.1147 8.02997C13.2593 8.04397 13.397 8.0673 13.5277 8.09997C13.663 8.13264 13.7867 8.17464 13.8987 8.22597C14.0153 8.2773 14.1157 8.33797 14.1997 8.40797C14.2603 8.45464 14.321 8.51764 14.3817 8.59697C14.4423 8.67164 14.489 8.7533 14.5217 8.84197C14.5543 8.92597 14.5637 9.00764 14.5497 9.08697C14.5403 9.1663 14.4913 9.23397 14.4027 9.28997C14.328 9.33664 14.2557 9.35764 14.1857 9.35297C14.1203 9.34364 14.0573 9.32264 13.9967 9.28997C13.936 9.25264 13.8777 9.21064 13.8217 9.16397C13.7657 9.1173 13.7143 9.0753 13.6677 9.03797C13.5417 8.94464 13.3853 8.88164 13.1987 8.84897C13.012 8.8163 12.837 8.8093 12.6737 8.82797C12.571 8.84197 12.4753 8.8653 12.3867 8.89797C12.298 8.93064 12.221 8.97497 12.1557 9.03097C12.095 9.08697 12.046 9.15697 12.0087 9.24097C11.976 9.3203 11.9643 9.4113 11.9737 9.51397C11.9783 9.58864 11.9993 9.65164 12.0367 9.70297C12.0787 9.7543 12.1277 9.7963 12.1837 9.82897C12.2443 9.86164 12.3097 9.8873 12.3797 9.90597C12.4497 9.92464 12.5197 9.93864 12.5897 9.94797C12.7997 9.97597 13.0097 9.99697 13.2197 10.011C13.4297 10.025 13.635 10.0716 13.8357 10.151C14.041 10.2303 14.216 10.3376 14.3607 10.473C14.5053 10.6083 14.608 10.7716 14.6687 10.963Z" stroke="#1C1C1C" stroke-width="0.25"/>
<path d="M19.6205 12.524C19.6251 12.552 19.6275 12.58 19.6275 12.608C19.6321 12.6313 19.6345 12.6593 19.6345 12.692C19.6345 12.748 19.6181 12.7993 19.5855 12.846C19.5715 12.8693 19.5528 12.8926 19.5295 12.916C19.5061 12.9346 19.4781 12.951 19.4455 12.965C19.3288 13.0303 19.2051 13.0536 19.0745 13.035C19.0091 13.0163 18.9508 12.986 18.8995 12.944C18.8901 12.9346 18.8831 12.93 18.8785 12.93C18.8738 12.9253 18.8691 12.9183 18.8645 12.909C18.8598 12.9043 18.8551 12.8996 18.8505 12.895C18.8458 12.8856 18.8388 12.8786 18.8295 12.874C18.8061 12.8506 18.7875 12.8296 18.7735 12.811C18.7595 12.7876 18.7455 12.7643 18.7315 12.741C18.7221 12.7176 18.7105 12.6966 18.6965 12.678C18.6871 12.6546 18.6755 12.6313 18.6615 12.608C18.6521 12.5893 18.6428 12.573 18.6335 12.559C18.6241 12.5403 18.6171 12.5216 18.6125 12.503C18.5938 12.461 18.5821 12.4236 18.5775 12.391L18.4305 12.048C18.1085 12.048 17.7865 12.0503 17.4645 12.055C17.1471 12.055 16.8275 12.0526 16.5055 12.048L16.3585 12.391C16.3491 12.4096 16.3421 12.4283 16.3375 12.447C16.3375 12.4656 16.3328 12.4843 16.3235 12.503C16.3141 12.5216 16.3048 12.5403 16.2955 12.559C16.2908 12.573 16.2838 12.5893 16.2745 12.608C16.2605 12.6313 16.2465 12.6546 16.2325 12.678C16.2231 12.6966 16.2115 12.7176 16.1975 12.741C16.1881 12.7643 16.1765 12.7876 16.1625 12.811C16.1485 12.8296 16.1298 12.8506 16.1065 12.874C16.0971 12.8786 16.0901 12.8856 16.0855 12.895C16.0808 12.8996 16.0761 12.9043 16.0715 12.909C16.0668 12.9183 16.0621 12.9253 16.0575 12.93C16.0528 12.93 16.0458 12.9346 16.0365 12.944C15.9851 12.986 15.9268 13.0163 15.8615 13.035C15.7308 13.0536 15.6071 13.0303 15.4905 12.965C15.4578 12.951 15.4298 12.9346 15.4065 12.916C15.3831 12.8926 15.3645 12.8693 15.3505 12.846C15.3178 12.7993 15.3015 12.748 15.3015 12.692C15.3015 12.6593 15.3015 12.6313 15.3015 12.608C15.3061 12.58 15.3108 12.552 15.3155 12.524C15.3248 12.482 15.3365 12.44 15.3505 12.398C15.3645 12.356 15.3715 12.335 15.3715 12.335L16.8275 8.75097L16.8695 8.63897C16.8788 8.61097 16.8905 8.5853 16.9045 8.56197C16.9185 8.53864 16.9301 8.51064 16.9395 8.47797C16.9628 8.4173 16.9885 8.36364 17.0165 8.31697C17.0305 8.28897 17.0468 8.2633 17.0655 8.23997C17.0841 8.21664 17.1028 8.1933 17.1215 8.16997C17.1495 8.13264 17.1891 8.1023 17.2405 8.07897C17.3058 8.05564 17.3805 8.04397 17.4645 8.04397C17.5531 8.04397 17.6301 8.05564 17.6955 8.07897C17.7468 8.1023 17.7865 8.13264 17.8145 8.16997C17.8471 8.21197 17.8821 8.26097 17.9195 8.31697C17.9475 8.36364 17.9731 8.4173 17.9965 8.47797C18.0058 8.51064 18.0175 8.53864 18.0315 8.56197C18.0455 8.5853 18.0571 8.61097 18.0665 8.63897L18.1085 8.75097L19.5645 12.335C19.5645 12.335 19.5715 12.356 19.5855 12.398C19.5995 12.44 19.6111 12.482 19.6205 12.524ZM17.9615 10.809C17.9008 10.6736 17.8378 10.5336 17.7725 10.389C17.7118 10.2443 17.6465 10.0973 17.5765 9.94797C17.5578 9.90597 17.5391 9.86397 17.5205 9.82197C17.5018 9.7753 17.4831 9.73097 17.4645 9.68897C17.4505 9.73097 17.4341 9.7753 17.4155 9.82197C17.3968 9.86397 17.3781 9.90597 17.3595 9.94797C17.2895 10.0973 17.2218 10.2443 17.1565 10.389C17.0958 10.5336 17.0351 10.6736 16.9745 10.809L16.8485 11.117H18.0875L17.9615 10.809Z" stroke="#1C1C1C" stroke-width="0.25"/>
</svg>
