<svg width="16" height="16" viewBox="0 0 16 16" fill="none" xmlns="http://www.w3.org/2000/svg">
<mask id="path-1-inside-1_760_3386" fill="white">
<path d="M4.51708 6.02862H5.12568C5.52948 7.21431 6.654 8.06954 7.97457 8.06954C8.92142 8.06954 9.76735 7.62974 10.3192 6.94386H11.1016C11.2468 6.94386 11.3644 6.82619 11.3644 6.681V6.02862H11.4829C11.7681 6.02862 12 5.79666 12 5.51154V4.18953C12 3.9376 11.8188 3.72726 11.58 3.68171C11.4075 2.90035 10.9827 2.23632 10.345 1.75466C9.69137 1.26096 8.87168 1 7.97455 1C6.15361 1 4.71731 2.07851 4.36638 3.6949C4.15454 3.75958 4 3.95682 4 4.18953V5.51154C4 5.79666 4.23196 6.02862 4.51708 6.02862ZM4.52572 5.5029V4.19817H5.09234C5.01032 4.47162 4.96605 4.76122 4.96605 5.061C4.96605 5.2111 4.97725 5.35862 4.99857 5.5029H4.52572ZM7.97455 7.54382C6.60552 7.54382 5.49175 6.43002 5.49175 5.061C5.49175 3.69197 6.60552 2.57822 7.97455 2.57822C9.3436 2.57822 10.4574 3.69199 10.4574 5.061C10.4574 5.56153 10.3083 6.0278 10.0526 6.41814H7.82202C7.67685 6.41814 7.55916 6.53583 7.55916 6.681C7.55916 6.82619 7.67685 6.94386 7.82202 6.94386H9.59114C9.15644 7.3176 8.59145 7.54382 7.97455 7.54382ZM10.8387 6.41814H10.6591C10.7226 6.29301 10.7777 6.16298 10.8234 6.02862H10.8387L10.8387 6.41814ZM11.4743 5.5029H10.9506C10.9719 5.35865 10.9831 5.2111 10.9831 5.061C10.9831 4.76122 10.9388 4.47162 10.8568 4.19817H11.4743L11.4743 5.5029ZM7.97455 1.52572C9.48977 1.52572 10.689 2.37837 11.0364 3.67245H10.6429C10.1403 2.71061 9.1329 2.0525 7.97455 2.0525C6.81622 2.0525 5.80885 2.71061 5.30626 3.67245H4.91265C5.2597 2.37917 6.46138 1.52572 7.97455 1.52572Z"/>
</mask>
<path d="M4.51708 6.02862H5.12568C5.52948 7.21431 6.654 8.06954 7.97457 8.06954C8.92142 8.06954 9.76735 7.62974 10.3192 6.94386H11.1016C11.2468 6.94386 11.3644 6.82619 11.3644 6.681V6.02862H11.4829C11.7681 6.02862 12 5.79666 12 5.51154V4.18953C12 3.9376 11.8188 3.72726 11.58 3.68171C11.4075 2.90035 10.9827 2.23632 10.345 1.75466C9.69137 1.26096 8.87168 1 7.97455 1C6.15361 1 4.71731 2.07851 4.36638 3.6949C4.15454 3.75958 4 3.95682 4 4.18953V5.51154C4 5.79666 4.23196 6.02862 4.51708 6.02862ZM4.52572 5.5029V4.19817H5.09234C5.01032 4.47162 4.96605 4.76122 4.96605 5.061C4.96605 5.2111 4.97725 5.35862 4.99857 5.5029H4.52572ZM7.97455 7.54382C6.60552 7.54382 5.49175 6.43002 5.49175 5.061C5.49175 3.69197 6.60552 2.57822 7.97455 2.57822C9.3436 2.57822 10.4574 3.69199 10.4574 5.061C10.4574 5.56153 10.3083 6.0278 10.0526 6.41814H7.82202C7.67685 6.41814 7.55916 6.53583 7.55916 6.681C7.55916 6.82619 7.67685 6.94386 7.82202 6.94386H9.59114C9.15644 7.3176 8.59145 7.54382 7.97455 7.54382ZM10.8387 6.41814H10.6591C10.7226 6.29301 10.7777 6.16298 10.8234 6.02862H10.8387L10.8387 6.41814ZM11.4743 5.5029H10.9506C10.9719 5.35865 10.9831 5.2111 10.9831 5.061C10.9831 4.76122 10.9388 4.47162 10.8568 4.19817H11.4743L11.4743 5.5029ZM7.97455 1.52572C9.48977 1.52572 10.689 2.37837 11.0364 3.67245H10.6429C10.1403 2.71061 9.1329 2.0525 7.97455 2.0525C6.81622 2.0525 5.80885 2.71061 5.30626 3.67245H4.91265C5.2597 2.37917 6.46138 1.52572 7.97455 1.52572Z" fill="#1C1C1C" stroke="#1C1C1C" stroke-width="2" mask="url(#path-1-inside-1_760_3386)"/>
<path d="M13.3333 12.2261V13.5594V14.8927H2.66663V13.5594V12.2261C2.66663 11.5188 2.94758 10.8405 3.44767 10.3404C3.94777 9.84034 4.62605 9.55939 5.33329 9.55939H6.66663L7.99996 11L9.33329 9.55939H10.6666C11.3739 9.55939 12.0521 9.84034 12.5522 10.3404C13.0523 10.8405 13.3333 11.5188 13.3333 12.2261Z" stroke="#1C1C1C" stroke-width="0.9" stroke-linecap="round" stroke-linejoin="round"/>
</svg>
