<svg width="24" height="24" viewBox="0 0 24 24" fill="none" xmlns="http://www.w3.org/2000/svg">
<path d="M3.47595 1.47961C4.10332 1.7933 4.43156 2.33566 4.48834 3.02383C4.52073 3.41639 4.37177 3.79461 4.21305 4.15512C3.98465 4.67387 3.70409 5.46487 3.80413 6.04445C3.92931 6.76963 4.70283 7.45669 4.70283 7.45669" stroke="#1C1C1C" stroke-width="1.25" stroke-linecap="round"/>
<path d="M6.34973 1.47961C6.9771 1.7933 7.30534 2.33566 7.36212 3.02383C7.39451 3.41639 7.24555 3.79461 7.08683 4.15512C6.85843 4.67387 6.57787 5.46487 6.67791 6.04445C6.80309 6.76963 7.57661 7.45669 7.57661 7.45669" stroke="#1C1C1C" stroke-width="1.25" stroke-linecap="round"/>
<path d="M9.22351 1.47961C9.85088 1.7933 10.1791 2.33566 10.2359 3.02383C10.2683 3.41639 10.1193 3.79461 9.96061 4.15512C9.73221 4.67387 9.45165 5.46487 9.55169 6.04445C9.67687 6.76963 10.4504 7.45669 10.4504 7.45669" stroke="#1C1C1C" stroke-width="1.25" stroke-linecap="round"/>
<path d="M17.0074 20.8002V22.3002C17.0074 22.5763 16.7836 22.8002 16.5074 22.8002H7.50743C7.23129 22.8002 7.00743 22.5763 7.00743 22.3002V20.8002C7.00743 20.8002 4.30814 18.2517 3.00743 15.8002C2.01688 13.9332 1.96957 10.9214 1.99156 9.76915C1.99661 9.50448 2.2141 9.30017 2.47882 9.30017H21.5229C21.7929 9.30017 22.0129 9.51265 22.0119 9.78267C22.0073 10.9447 21.9035 13.9398 21.0074 15.8002C19.8031 18.3004 17.0074 20.8002 17.0074 20.8002ZM17.0074 20.8002H10.5074" stroke="#1C1C1C" stroke-width="1.25"/>
<path d="M7.40906 18.0567C6.68105 17.2968 6.08825 16.7888 5.29342 15.5255C4.49859 14.2622 4.33857 13.2805 4.12659 12.1045" stroke="#1C1C1C" stroke-width="1.25" stroke-linecap="round"/>
<path d="M13.7157 7.45667L18.383 2.0663C19.1023 1.23552 20.4072 1.2887 21.0566 2.17526V2.17526C21.5927 2.90728 21.4641 3.93054 20.7635 4.50714L17.1797 7.45667" stroke="#1C1C1C" stroke-width="1.25" stroke-linecap="round"/>
</svg>
