<svg width="24" height="24" viewBox="0 0 24 24" fill="none" xmlns="http://www.w3.org/2000/svg">
<g clip-path="url(#clip0_6842_32763)">
<path d="M12.0084 28.0165C20.8495 28.0165 28.0167 20.8494 28.0167 12.0083C28.0167 3.16714 20.8495 -4 12.0084 -4C3.16727 -4 -3.99988 3.16714 -3.99988 12.0083C-3.99988 20.8494 3.16727 28.0165 12.0084 28.0165Z" fill="url(#paint0_linear_6842_32763)"/>
<path d="M15.8917 6.09711C15.8917 6.09711 17.0943 5.62097 16.9941 6.77732C16.9607 7.25346 16.66 8.91997 16.4262 10.7225L15.6244 16.0621C15.6244 16.0621 15.5576 16.8444 14.9563 16.9804C14.355 17.1164 13.4531 16.5043 13.2861 16.3682C13.1524 16.2662 10.7807 14.7357 9.94553 13.9875C9.71169 13.7834 9.44445 13.3753 9.97893 12.8992L13.4865 9.49814C13.8874 9.09002 14.2882 8.13773 12.618 9.29408L7.9412 12.5251C7.9412 12.5251 7.40672 12.8652 6.40455 12.5591L4.2332 11.8789C4.2332 11.8789 3.43147 11.3687 4.80109 10.8586C8.14163 9.26007 12.2505 7.62758 15.8917 6.09711Z" fill="white"/>
</g>
<defs>
<linearGradient id="paint0_linear_6842_32763" x1="17.2828" y1="1.08933" x2="9.41745" y2="20.0587" gradientUnits="userSpaceOnUse">
<stop stop-color="#2AABEE"/>
<stop offset="1" stop-color="#229ED9"/>
</linearGradient>
<clipPath id="clip0_6842_32763">
<rect width="24" height="24" rx="12" fill="white"/>
</clipPath>
</defs>
</svg>
