<svg width="24" height="24" viewBox="0 0 24 24" fill="none" xmlns="http://www.w3.org/2000/svg">
<path d="M18.84 12.84V4.76C18.84 3.78798 18.052 3 17.08 3H4.76C3.78798 3 3 3.78798 3 4.76V17.08C3 18.052 3.78798 18.84 4.76 18.84H12.84M14.5 7.5L7.5 14.5M9.5 8.25C9.5 8.94036 8.94036 9.5 8.25 9.5C7.55964 9.5 7 8.94036 7 8.25C7 7.55964 7.55964 7 8.25 7C8.94036 7 9.5 7.55964 9.5 8.25ZM15 13.75C15 14.4404 14.4404 15 13.75 15C13.0596 15 12.5 14.4404 12.5 13.75C12.5 13.0596 13.0596 12.5 13.75 12.5C14.4404 12.5 15 13.0596 15 13.75Z" stroke="#1C1C1C" stroke-width="1.25" stroke-linecap="round" stroke-linejoin="round"/>
<path d="M18.84 21L18.84 16.68M21.0001 18.84L16.6801 18.84" stroke="#FF3636" stroke-width="1.25" stroke-linecap="round" stroke-linejoin="round"/>
</svg>
