<svg width="24" height="24" viewBox="0 0 24 24" fill="none" xmlns="http://www.w3.org/2000/svg">
<path d="M11.315 12.19L11.404 12.0335M11.404 12.0335H7.92142H4.43885H2.00547M11.404 12.0335H12.5972M12.686 12.19L12.5972 12.0335M12.5972 12.0335H16.0798H19.5624L20.2364 12.0068L21.9947 12.0335M12.0006 12.4669C11.9678 12.4669 8.55196 18.5501 8.55196 18.6085L8.19016 19.2465L7.27054 20.7886M12.0006 12.4669C12.0192 12.4669 12.8027 13.8422 13.7418 15.5231C14.6809 17.204 15.4493 18.5924 15.4493 18.6085L15.808 19.2465L16.7155 20.6695M12.0006 12.4669L11.3888 11.3111L10.8974 10.4322C8.57811 6.28472 8.41215 5.83312 8.41215 5.83312L6.93857 2.78076M12.0006 12.4669L12.613 11.3111L13.0641 10.5033C13.3122 10.059 14.0915 8.66375 14.7959 7.40267L16.0766 5.10984L17.2126 2.86582M6.93857 2.78076C6.26825 3.18999 5.63911 3.68202 5.06739 4.25095C3.45263 5.85777 2.41258 7.94553 2.10206 10.2034C2.01775 10.8164 1.9862 11.4284 2.00547 12.0335M6.93857 2.78076C7.44304 2.47278 7.97083 2.21168 8.51501 2M17.2126 2.86582C18.4533 3.64965 19.5265 4.71471 20.3561 6.01343C21.5122 7.82335 22.0603 9.93701 21.9947 12.0335M17.2126 2.86582C16.6678 2.52166 16.0908 2.23171 15.488 2M21.9947 12.0335C21.9402 13.7763 21.4615 15.5072 20.5554 17.042C19.9748 18.0253 19.0709 19.0932 18.259 19.7552C16.817 20.9309 15.0943 21.689 13.3148 21.9311C12.6349 22.0236 11.3618 22.0229 10.6736 21.9296C9.47787 21.7676 8.32692 21.3788 7.27054 20.7886M2.00547 12.0335C2.08824 14.633 3.10903 17.1042 4.91495 18.9707C5.62036 19.6998 6.41439 20.3104 7.27054 20.7886" stroke="#1C1C1C" stroke-width="1.25" stroke-linecap="round"/>
<path d="M11.4647 4.5145C11.5778 4.70209 11.7809 4.81677 12 4.81677C12.219 4.81677 12.4221 4.70209 12.5352 4.5145L13.9786 2.12068C14.095 1.92764 14.0984 1.68688 13.9875 1.49061C13.8767 1.29433 13.6687 1.17295 13.4433 1.17295L10.5566 1.17295C10.3312 1.17295 10.1232 1.29433 10.0124 1.49061C9.90153 1.68688 9.90496 1.92764 10.0214 2.12068L11.4647 4.5145Z" stroke="#1C1C1C" stroke-width="1.25" stroke-linejoin="round"/>
</svg>
