<svg width="16" height="16" viewBox="0 0 16 16" fill="none" xmlns="http://www.w3.org/2000/svg">
<path d="M6.00008 11.3334H4.00008C3.56234 11.3334 3.12889 11.2472 2.72447 11.0797C2.32005 10.9122 1.95259 10.6666 1.64306 10.3571C1.01794 9.73198 0.666748 8.88414 0.666748 8.00008C0.666748 7.11603 1.01794 6.26818 1.64306 5.64306C2.26818 5.01794 3.11603 4.66675 4.00008 4.66675H6.00008M5.33341 8.00008H10.6667M10.0001 4.66675H12.0001C12.4378 4.66675 12.8713 4.75297 13.2757 4.92048C13.6801 5.088 14.0476 5.33353 14.3571 5.64306C14.6666 5.95259 14.9122 6.32005 15.0797 6.72447C15.2472 7.12889 15.3334 7.56234 15.3334 8.00008C15.3334 8.43782 15.2472 8.87127 15.0797 9.27569C14.9122 9.68011 14.6666 10.0476 14.3571 10.3571C14.0476 10.6666 13.6801 10.9122 13.2757 11.0797C12.8713 11.2472 12.4378 11.3334 12.0001 11.3334H10.0001V4.66675Z" stroke="#1C1C1C" stroke-width="1.25" stroke-linecap="round" stroke-linejoin="round"/>
</svg>
