<svg width="24" height="24" viewBox="0 0 24 24" fill="none" xmlns="http://www.w3.org/2000/svg">
<path fill-rule="evenodd" clip-rule="evenodd" d="M3.3974 9.90138L11.9999 5.60015L20.6023 9.90138L11.9999 14.2026L6.06236 11.2339V11.1358H5.86615L3.3974 9.90138ZM4.81236 12.0064L2.07812 10.6393C1.47005 10.3353 1.47005 9.46751 2.07812 9.16348L11.6309 4.38709C11.8632 4.27096 12.1365 4.27095 12.3688 4.38709L21.9216 9.16348C22.5297 9.46751 22.5297 10.3353 21.9216 10.6393L18.8749 12.1627V17.4169C18.8749 17.6453 18.7504 17.8554 18.5501 17.9651C12.7988 21.1152 7.21842 19.2866 5.10262 17.9447C4.92188 17.8301 4.81236 17.631 4.81236 17.4169V12.0064ZM6.06236 12.6314V17.062C8.06344 18.1854 12.7462 19.544 17.6249 17.041V12.7877L12.3688 15.4157C12.1366 15.5318 11.8632 15.5318 11.6309 15.4157L6.06236 12.6314Z" fill="#1C1C1C"/>
<path d="M22.3749 9.90137C22.3749 9.55619 22.0951 9.27637 21.7499 9.27637C21.4048 9.27637 21.1249 9.55619 21.1249 9.90137H22.3749ZM21.1249 13.6514C21.1249 13.9965 21.4048 14.2764 21.7499 14.2764C22.0951 14.2764 22.3749 13.9965 22.3749 13.6514H21.1249ZM21.1249 9.90137V13.6514H22.3749V9.90137H21.1249Z" fill="#1C1C1C"/>
</svg>
