<svg width="24" height="24" viewBox="0 0 24 24" fill="none" xmlns="http://www.w3.org/2000/svg">
<path d="M5.43738 11.6201V17.3069C5.43738 17.3754 5.47043 17.4382 5.52889 17.4738C7.56366 18.7158 12.7647 20.3626 18.1447 17.4739C18.2091 17.4394 18.2499 17.3715 18.2499 17.2984V11.7763M21.7499 9.90137V13.6514M12.0893 14.8566L21.6421 10.0803C21.7895 10.0065 21.7895 9.79619 21.6421 9.72248L12.0893 4.94609C12.033 4.91794 11.9667 4.91794 11.9104 4.94609L2.35765 9.72248C2.21024 9.79619 2.21024 10.0065 2.35765 10.0803L11.9104 14.8566C11.9667 14.8848 12.033 14.8848 12.0893 14.8566Z" stroke="#1C1C1C" stroke-width="1.25" stroke-linecap="round" stroke-linejoin="round"/>
</svg>
