<svg width="24" height="24" viewBox="0 0 24 24" fill="none" xmlns="http://www.w3.org/2000/svg">
<path d="M12.5095 2H5.32335C4.83977 2 4.37599 2.18608 4.03405 2.51732C3.6921 2.84855 3.5 3.2978 3.5 3.76623V17.8961C3.5 18.3645 3.6921 18.8138 4.03405 19.145C4.37599 19.4763 4.83977 19.6623 5.32335 19.6623H11.9732M12.5095 2L18.0868 7.4026M12.5095 2V7.4026H18.0868M18.0868 12.7013V7.4026" stroke="#1C1C1C" stroke-width="1.25" stroke-linecap="round" stroke-linejoin="round"/>
<path d="M18.0869 21.9995L18.0869 17.3242" stroke="#FF3636" stroke-width="1.25" stroke-linecap="round" stroke-linejoin="round"/>
<path d="M20.4999 19.6621H15.6733" stroke="#FF3636" stroke-width="1.25" stroke-linecap="round" stroke-linejoin="round"/>
<path d="M12.5625 10.4375L6.4375 16.5625M8.1875 11.0938C8.1875 11.6978 7.69781 12.1875 7.09375 12.1875C6.48969 12.1875 6 11.6978 6 11.0938C6 10.4897 6.48969 10 7.09375 10C7.69781 10 8.1875 10.4897 8.1875 11.0938ZM13 15.9062C13 16.5103 12.5103 17 11.9062 17C11.3022 17 10.8125 16.5103 10.8125 15.9062C10.8125 15.3022 11.3022 14.8125 11.9062 14.8125C12.5103 14.8125 13 15.3022 13 15.9062Z" stroke="#1C1C1C" stroke-width="1.25" stroke-linecap="round" stroke-linejoin="round"/>
</svg>
