<svg width="40" height="40" viewBox="0 0 40 40" fill="none" xmlns="http://www.w3.org/2000/svg">
<path d="M20.6094 3H8.92188C8.14695 3 7.40376 3.31344 6.8558 3.87136C6.30784 4.42928 6 5.18598 6 5.975V29.775C6 30.564 6.30784 31.3207 6.8558 31.8786C7.40376 32.4366 8.14695 32.75 8.92188 32.75H20M20.6094 3L29.375 11.925M20.6094 3V11.925H29.375M29.375 11.925V18.5M20.6094 19.3625H17.6875H11.8438M17.6875 25.3125H11.8438M14.7656 13.4125H11.8438M28.8438 37C28.8438 37 34.6875 34.025 34.6875 29.5625V24.3563L28.8438 22.125L23 24.3563V29.5625C23 34.025 28.8438 37 28.8438 37Z" stroke="#1C1C1C" stroke-width="1.25" stroke-linecap="round" stroke-linejoin="round"/>
</svg>
