<svg width="16" height="16" viewBox="0 0 16 16" fill="none" xmlns="http://www.w3.org/2000/svg">
<path d="M2 6L8 1.33333L14 6V13.3333C14 13.687 13.8595 14.0261 13.6095 14.2761C13.3594 14.5262 13.0203 14.6667 12.6667 14.6667H3.33333C2.97971 14.6667 2.64057 14.5262 2.39052 14.2761C2.14048 14.0261 2 13.687 2 13.3333V6Z" stroke="#1C1C1C" stroke-width="1.25" stroke-linecap="round" stroke-linejoin="round"/>
<path d="M7.99867 6.66666L8.44061 6.22471C8.32333 6.10744 8.16425 6.04158 7.99839 6.04166C7.83253 6.04173 7.67351 6.10772 7.55633 6.22511L7.99867 6.66666ZM9.57089 8.23888L9.12895 8.68082L9.12909 8.68097L9.57089 8.23888ZM8.00006 12.033V11.408V12.033ZM6.42922 8.23888L6.87102 8.68097L6.87155 8.68043L6.42922 8.23888ZM7.55672 7.1086L9.12895 8.68082L10.0128 7.79694L8.44061 6.22471L7.55672 7.1086ZM9.12909 8.68097C9.35257 8.9043 9.5048 9.1889 9.56651 9.49875L10.7924 9.25459C10.6824 8.70223 10.4111 8.19491 10.0127 7.79679L9.12909 8.68097ZM9.56651 9.49875C9.62822 9.80861 9.59666 10.1298 9.4758 10.4217L10.6307 10.8999C10.8462 10.3795 10.9024 9.80695 10.7924 9.25459L9.56651 9.49875ZM9.4758 10.4217C9.35494 10.7136 9.15022 10.9632 8.88753 11.1387L9.58208 12.178C10.0503 11.8651 10.4153 11.4203 10.6307 10.8999L9.4758 10.4217ZM8.88753 11.1387C8.62485 11.3143 8.316 11.408 8.00006 11.408V12.658C8.56326 12.658 9.11382 12.4909 9.58208 12.178L8.88753 11.1387ZM8.00006 11.408C7.68411 11.408 7.37526 11.3143 7.11258 11.1387L6.41803 12.178C6.88629 12.4909 7.43685 12.658 8.00006 12.658V11.408ZM7.11258 11.1387C6.84989 10.9632 6.64517 10.7136 6.52431 10.4217L5.36939 10.8999C5.58483 11.4203 5.94977 11.8651 6.41803 12.178L7.11258 11.1387ZM6.52431 10.4217C6.40346 10.1298 6.37189 9.80861 6.4336 9.49875L5.20768 9.25459C5.09767 9.80695 5.15394 10.3795 5.36939 10.8999L6.52431 10.4217ZM6.4336 9.49875C6.49531 9.18889 6.64754 8.9043 6.87102 8.68097L5.98742 7.79679C5.58905 8.19491 5.31769 8.70223 5.20768 9.25459L6.4336 9.49875ZM6.87155 8.68043L8.441 7.10821L7.55633 6.22511L5.98689 7.79733L6.87155 8.68043Z" fill="#1C1C1C"/>
</svg>
