<svg width="16" height="16" viewBox="0 0 16 16" fill="none" xmlns="http://www.w3.org/2000/svg">
<path d="M2 5.999L8.003 1.33L14.006 5.999V13.336C14.006 13.6898 13.8655 14.0291 13.6153 14.2793C13.3651 14.5295 13.0258 14.67 12.672 14.67H3.334C2.9802 14.67 2.64089 14.5295 2.39072 14.2793C2.14055 14.0291 2 13.6898 2 13.336V5.999Z" stroke="#1C1C1C" stroke-width="1.25" stroke-linecap="round" stroke-linejoin="round"/>
<path d="M8.00158 6.666L9.57459 8.23901C9.88568 8.54989 10.0976 8.94605 10.1835 9.37737C10.2694 9.8087 10.2254 10.2558 10.0572 10.6622C9.88897 11.0685 9.604 11.4158 9.23834 11.6602C8.87269 11.9046 8.44277 12.035 8.00297 12.035C7.56318 12.035 7.13326 11.9046 6.7676 11.6602C6.40195 11.4158 6.11698 11.0685 5.94874 10.6622C5.78051 10.2558 5.73656 9.8087 5.82247 9.37737C5.90837 8.94605 6.12027 8.54989 6.43135 8.23901L8.00158 6.666Z" stroke="#1C1C1C" stroke-width="1.25" stroke-linecap="round" stroke-linejoin="round"/>
</svg>
