<svg width="24" height="24" viewBox="0 0 24 24" fill="none" xmlns="http://www.w3.org/2000/svg">
<path d="M6.77562 9.04293H7.68853C8.29423 10.8215 9.98101 12.1043 11.9619 12.1043C13.3821 12.1043 14.651 11.4446 15.4788 10.4158H16.6524C16.8702 10.4158 17.0467 10.2393 17.0467 10.0215V9.04293H17.2244C17.6521 9.04293 18 8.69499 18 8.26731V6.2843C18 5.90639 17.7282 5.59089 17.37 5.52256C17.1112 4.35052 16.474 3.35447 15.5175 2.63199C14.5371 1.89145 13.3075 1.5 11.9618 1.5C9.23041 1.5 7.07597 3.11776 6.54957 5.54234C6.23181 5.63937 6 5.93523 6 6.2843V8.26731C6 8.69499 6.34794 9.04293 6.77562 9.04293ZM6.78858 8.25435V6.29726H7.6385C7.51548 6.70742 7.44907 7.14183 7.44907 7.59149C7.44907 7.81665 7.46587 8.03793 7.49786 8.25435H6.78858ZM11.9618 11.3157C9.90828 11.3157 8.23762 9.64503 8.23762 7.59149C8.23762 5.53796 9.90828 3.86733 11.9618 3.86733C14.0154 3.86733 15.6861 5.53799 15.6861 7.59149C15.6861 8.34229 15.4625 9.0417 15.0789 9.6272H11.733C11.5153 9.6272 11.3387 9.80374 11.3387 10.0215C11.3387 10.2393 11.5153 10.4158 11.733 10.4158H14.3867C13.7347 10.9764 12.8872 11.3157 11.9618 11.3157ZM16.2581 9.6272H15.9887C16.0839 9.43952 16.1665 9.24447 16.2352 9.04293H16.258L16.2581 9.6272ZM17.2114 8.25435H16.4259C16.4579 8.03797 16.4747 7.81665 16.4747 7.59149C16.4747 7.14183 16.4082 6.70742 16.2852 6.29726H17.2114L17.2114 8.25435ZM11.9618 2.28858C14.2347 2.28858 16.0335 3.56756 16.5546 5.50867H15.9643C15.2104 4.06591 13.6993 3.07874 11.9618 3.07874C10.2243 3.07874 8.71327 4.06591 7.95939 5.50867H7.36898C7.88955 3.56876 9.69208 2.28858 11.9618 2.28858Z" fill="#1C1C1C" stroke="#1C1C1C" stroke-width="0.5"/>
<path d="M20 18.3391V20.3391V22.3391H4V20.3391L4 18.3391C4 17.2782 4.42143 16.2608 5.17157 15.5107C5.92172 14.7605 6.93913 14.3391 8 14.3391H10L12 16.5L14 14.3391H16C17.0609 14.3391 18.0783 14.7605 18.8284 15.5107C19.5786 16.2608 20 17.2782 20 18.3391Z" stroke="#1C1C1C" stroke-width="1.25" stroke-linecap="round" stroke-linejoin="round"/>
</svg>
