<svg width="24" height="24" viewBox="0 0 24 24" fill="none" xmlns="http://www.w3.org/2000/svg">
<g clip-path="url(#clip0_11880_14984)">
<path d="M23.1551 13.893C23.8711 7.866 22.8111 4.061 20.8991 2.34L20.9001 2.339C17.8141 -0.600006 7.39208 -1.03501 3.70008 2.471C2.04208 4.186 1.45808 6.703 1.39408 9.819C1.33008 12.936 1.25408 18.775 6.69508 20.359H6.70008L6.69508 22.778C6.69508 22.778 6.65808 23.758 7.28408 23.955C8.00008 24.187 8.32408 23.732 10.5511 21.072C14.2751 21.395 17.1351 20.655 17.4601 20.547C18.2121 20.295 22.4671 19.732 23.1551 13.893ZM10.9181 19.37C10.9181 19.37 8.56108 22.309 7.82808 23.072C7.58808 23.32 7.32508 23.297 7.32908 22.805C7.32908 22.482 7.34708 18.789 7.34708 18.789C2.73408 17.467 3.00608 12.495 3.05608 9.894C3.10608 7.292 3.58208 5.161 4.98608 3.726C8.22508 0.688995 17.3621 1.368 19.6901 3.556C22.5361 6.079 21.5231 13.207 21.5291 13.45C20.9441 18.324 17.4961 18.633 16.8621 18.844C16.5911 18.934 14.0761 19.581 10.9181 19.37Z" fill="#7360F2"/>
<path d="M12.2221 4.297C11.8371 4.297 11.8371 4.897 12.2221 4.902C15.2091 4.925 17.6691 7.007 17.6961 10.826C17.6961 11.229 18.2861 11.224 18.2811 10.821H18.2801C18.2481 6.706 15.5621 4.32 12.2221 4.297Z" fill="#7360F2"/>
<path d="M16.1509 10.193C16.1419 10.591 16.731 10.61 16.736 10.207C16.785 7.93799 15.3859 6.06899 12.7569 5.87199C12.3719 5.84399 12.3319 6.44899 12.7159 6.47699C14.9959 6.64999 16.1969 8.20599 16.1509 10.193Z" fill="#7360F2"/>
<path d="M15.521 12.774C15.027 12.488 14.524 12.666 14.316 12.947L13.881 13.51C13.66 13.796 13.247 13.758 13.247 13.758C10.233 12.961 9.42697 9.807 9.42697 9.807C9.42697 9.807 9.38997 9.38 9.66597 9.151L10.21 8.701C10.482 8.485 10.654 7.965 10.377 7.454C9.63697 6.117 9.13997 5.656 8.88697 5.302C8.62097 4.969 8.22097 4.894 7.80497 5.119H7.79597C6.93097 5.625 5.98397 6.572 6.28697 7.547C6.80397 8.575 7.75397 11.852 10.782 14.328C12.205 15.499 14.457 16.699 15.413 16.976L15.422 16.99C16.364 17.304 17.28 16.32 17.769 15.429V15.422C17.986 14.991 17.914 14.583 17.597 14.316C17.035 13.768 16.187 13.163 15.521 12.774Z" fill="#7360F2"/>
<path d="M13.1691 8.10399C14.1301 8.15999 14.5961 8.66199 14.6461 9.69299C14.6641 10.096 15.2491 10.068 15.2311 9.66499C15.1671 8.31899 14.4651 7.56899 13.2011 7.49899C12.8161 7.47599 12.7801 8.08099 13.1691 8.10399Z" fill="#7360F2"/>
</g>
<defs>
<clipPath id="clip0_11880_14984">
<rect width="24" height="24" fill="white"/>
</clipPath>
</defs>
</svg>
