<svg width="24" height="24" viewBox="0 0 24 24" fill="none" xmlns="http://www.w3.org/2000/svg">
<path d="M16.2399 7.76002C16.7978 8.31726 17.2404 8.97899 17.5423 9.70738C17.8442 10.4358 17.9997 11.2165 17.9997 12.005C17.9997 12.7935 17.8442 13.5743 17.5423 14.3027C17.2404 15.0311 16.7978 15.6928 16.2399 16.25M7.75994 16.24C7.20208 15.6828 6.75953 15.0211 6.45758 14.2927C6.15564 13.5643 6.00022 12.7835 6.00022 11.995C6.00022 11.2065 6.15564 10.4258 6.45758 9.69738C6.75953 8.96899 7.20208 8.30726 7.75994 7.75002M19.0699 4.93002C20.9446 6.8053 21.9978 9.34838 21.9978 12C21.9978 14.6517 20.9446 17.1947 19.0699 19.07M4.92994 19.07C3.05523 17.1947 2.00208 14.6517 2.00208 12C2.00208 9.34838 3.05523 6.8053 4.92994 4.93002M13.9999 12C13.9999 13.1046 13.1045 14 11.9999 14C10.8954 14 9.99994 13.1046 9.99994 12C9.99994 10.8955 10.8954 10 11.9999 10C13.1045 10 13.9999 10.8955 13.9999 12Z" stroke="#1C1C1C" stroke-width="1.25" stroke-linecap="round" stroke-linejoin="round"/>
</svg>
