<svg width="24" height="24" viewBox="0 0 24 24" fill="none" xmlns="http://www.w3.org/2000/svg">
<path d="M9.03455 16.3972C8.68937 16.3972 8.40955 16.677 8.40955 17.0222C8.40955 17.3673 8.68937 17.6472 9.03455 17.6472V16.3972ZM14.9656 17.6472C15.3108 17.6472 15.5906 17.3673 15.5906 17.0222C15.5906 16.677 15.3108 16.3972 14.9656 16.3972V17.6472ZM16.4015 3.58987L16.0038 4.07197L16.0038 4.07198L16.4015 3.58987ZM5.11958 7.79364L4.50456 7.68242L4.50456 7.68244L5.11958 7.79364ZM5.46569 11.6718L6.04961 11.449L6.04961 11.449L5.46569 11.6718ZM7.60745 14.6418L7.2111 15.1251L7.21112 15.1251L7.60745 14.6418ZM16.3967 14.6376L16.7935 15.1204L16.7935 15.1204L16.3967 14.6376ZM9.03455 17.6472H14.9656V16.3972H9.03455V17.6472ZM16.7993 3.10776C12.346 -0.566317 5.55033 1.89941 4.50456 7.68242L5.73461 7.90486C6.61166 3.05483 12.2928 1.0103 16.0038 4.07197L16.7993 3.10776ZM4.50456 7.68244C4.2464 9.11024 4.37504 10.567 4.88178 11.8947L6.04961 11.449C5.62648 10.3404 5.5158 9.11504 5.73461 7.90484L4.50456 7.68244ZM4.88177 11.8947C5.36172 13.1522 6.16718 14.2689 7.2111 15.1251L8.0038 14.1586C7.12741 13.4398 6.45164 12.5024 6.04961 11.449L4.88177 11.8947ZM7.21112 15.1251C7.65671 15.4905 7.87413 15.9558 7.87413 16.3798H9.12414C9.12414 15.5243 8.69163 14.7227 8.00377 14.1586L7.21112 15.1251ZM7.87413 16.3798V18.4373H9.12414V16.3798H7.87413ZM7.87413 18.4373C7.87413 20.7365 9.71382 22.625 11.9994 22.625V21.375C10.4249 21.375 9.12414 20.0671 9.12414 18.4373H7.87413ZM11.9994 22.625C14.285 22.625 16.1247 20.7365 16.1247 18.4373H14.8747C14.8747 20.0671 13.5739 21.375 11.9994 21.375V22.625ZM16.1247 18.4373V16.3874H14.8747V18.4373H16.1247ZM16.1247 16.3874C16.1247 15.9499 16.3358 15.4965 16.7935 15.1204L15.9999 14.1547C15.3007 14.7292 14.8747 15.5186 14.8747 16.3874H16.1247ZM16.7935 15.1204C18.5925 13.642 19.625 11.4562 19.625 9.12684H18.375C18.375 11.0825 17.5097 12.9138 15.9998 14.1547L16.7935 15.1204ZM19.625 9.12684C19.625 6.78544 18.5958 4.58986 16.7993 3.10775L16.0038 4.07198C17.51 5.31461 18.375 7.1554 18.375 9.12684H19.625Z" fill="#1C1C1C"/>
</svg>
