<svg width="16" height="16" viewBox="0 0 16 16" fill="none" xmlns="http://www.w3.org/2000/svg">
<path d="M6.92981 7.07669C6.92981 6.73151 6.64999 6.45169 6.30481 6.45169C5.95963 6.45169 5.67981 6.73151 5.67981 7.07669H6.92981ZM5.67981 11.9767C5.67981 12.3219 5.95963 12.6017 6.30481 12.6017C6.64999 12.6017 6.92981 12.3219 6.92981 11.9767H5.67981ZM5.67981 7.07669V11.9767H6.92981V7.07669H5.67981Z" fill="#1C1C1C"/>
<path d="M3.625 7.07669C3.625 6.73151 3.34518 6.45169 3 6.45169C2.65482 6.45169 2.375 6.73151 2.375 7.07669H3.625ZM2.375 11.9767C2.375 12.3219 2.65482 12.6017 3 12.6017C3.34518 12.6017 3.625 12.3219 3.625 11.9767H2.375ZM2.375 7.07669V11.9767H3.625V7.07669H2.375Z" fill="#1C1C1C"/>
<path d="M10.2384 7.07669C10.2384 6.73151 9.95858 6.45169 9.6134 6.45169C9.26823 6.45169 8.9884 6.73151 8.9884 7.07669H10.2384ZM8.9884 11.9767C8.9884 12.3219 9.26823 12.6017 9.6134 12.6017C9.95858 12.6017 10.2384 12.3219 10.2384 11.9767H8.9884ZM8.9884 7.07669V11.9767H10.2384V7.07669H8.9884Z" fill="#1C1C1C"/>
<path d="M13.5432 7.07669C13.5432 6.73151 13.2634 6.45169 12.9182 6.45169C12.573 6.45169 12.2932 6.73151 12.2932 7.07669H13.5432ZM12.2932 11.9767C12.2932 12.3219 12.573 12.6017 12.9182 12.6017C13.2634 12.6017 13.5432 12.3219 13.5432 11.9767H12.2932ZM12.2932 7.07669V11.9767H13.5432V7.07669H12.2932Z" fill="#1C1C1C"/>
<path d="M13.6783 14.375C14.0234 14.375 14.3033 14.0952 14.3033 13.75C14.3033 13.4048 14.0234 13.125 13.6783 13.125V14.375ZM2.22363 13.125C1.87845 13.125 1.59863 13.4048 1.59863 13.75C1.59863 14.0952 1.87845 14.375 2.22363 14.375V13.125ZM13.6783 13.125H2.22363V14.375H13.6783V13.125Z" fill="#1C1C1C"/>
<path d="M8.16394 2.04992L8.48658 1.51464L8.47919 1.51018L8.47167 1.50593L8.16394 2.04992ZM7.78364 2.04992L7.47591 1.50593L7.46909 1.50979L7.46238 1.51381L7.78364 2.04992ZM1.15701 5.29222C0.860925 5.46965 0.764732 5.85351 0.942158 6.1496C1.11958 6.44568 1.50344 6.54188 1.79953 6.36445L1.15701 5.29222ZM14.0482 5.59657L14.4097 5.08675L14.3907 5.07329L14.3708 5.06128L14.0482 5.59657ZM14.0135 6.33815C14.295 6.53783 14.6851 6.47144 14.8848 6.18988C15.0845 5.90831 15.0181 5.51819 14.7365 5.31852L14.0135 6.33815ZM8.47167 1.50593C8.16307 1.33136 7.78451 1.33136 7.47591 1.50593L8.09137 2.59391C8.0181 2.63536 7.92948 2.63536 7.85621 2.59391L8.47167 1.50593ZM7.46238 1.51381L1.15701 5.29222L1.79953 6.36445L8.1049 2.58604L7.46238 1.51381ZM14.3708 5.06128L8.48658 1.51464L7.8413 2.58521L13.7255 6.13185L14.3708 5.06128ZM13.6866 6.10638L14.0135 6.33815L14.7365 5.31852L14.4097 5.08675L13.6866 6.10638Z" fill="#1C1C1C"/>
</svg>
