<svg width="16" height="16" viewBox="0 0 16 16" fill="none" xmlns="http://www.w3.org/2000/svg">
<path d="M6.68467 11.9767V7.07667C6.68467 6.87087 6.51441 6.70404 6.30437 6.70404C6.09434 6.70404 5.92407 6.87087 5.92407 7.07667V11.9767C5.92407 12.1825 6.09434 12.3493 6.30437 12.3493C6.51441 12.3493 6.68467 12.1825 6.68467 11.9767Z" fill="#1C1C1C"/>
<path d="M3.37986 11.9767V7.07667C3.37986 6.87087 3.2096 6.70404 2.99956 6.70404C2.78953 6.70404 2.61926 6.87087 2.61926 7.07667V11.9767C2.61926 12.1825 2.78953 12.3493 2.99956 12.3493C3.2096 12.3493 3.37986 12.1825 3.37986 11.9767Z" fill="#1C1C1C"/>
<path d="M9.99326 11.9767V7.07667C9.99326 6.87087 9.823 6.70404 9.61297 6.70404C9.40293 6.70404 9.23267 6.87087 9.23267 7.07667V11.9767C9.23267 12.1825 9.40293 12.3493 9.61297 12.3493C9.823 12.3493 9.99326 12.1825 9.99326 11.9767Z" fill="#1C1C1C"/>
<path d="M13.2981 11.9767V7.07667C13.2981 6.87087 13.1278 6.70404 12.9178 6.70404C12.7077 6.70404 12.5375 6.87087 12.5375 7.07667V11.9767C12.5375 12.1825 12.7077 12.3493 12.9178 12.3493C13.1278 12.3493 13.2981 12.1825 13.2981 11.9767Z" fill="#1C1C1C"/>
<path d="M13.6783 13.2547H2.22368C2.01365 13.2547 1.84338 13.4215 1.84338 13.6273C1.84338 13.8331 2.01365 13.9999 2.22368 13.9999H13.6783C13.8883 13.9999 14.0586 13.8331 14.0586 13.6273C14.0586 13.4215 13.8883 13.2547 13.6783 13.2547Z" fill="#1C1C1C"/>
<path d="M14.4389 5.83206L8.164 2.04992C8.04633 1.98336 7.90136 1.98336 7.7837 2.04992L1.47833 5.82834C1.32925 5.94343 1.2896 6.1486 1.38541 6.30912C1.48122 6.46965 1.68316 6.53639 1.85863 6.46553L7.96624 2.80635L14.051 6.45435C14.1677 6.54438 14.3271 6.55969 14.4593 6.49355C14.5915 6.42742 14.6724 6.29193 14.6664 6.14658C14.6604 6.00123 14.5686 5.8726 14.4313 5.81716L14.4389 5.83206Z" fill="#1C1C1C"/>
</svg>
