<svg width="24" height="24" viewBox="0 0 24 24" fill="none" xmlns="http://www.w3.org/2000/svg">
<path d="M20.8399 4.60987C20.3291 4.09888 19.7227 3.69352 19.0552 3.41696C18.3878 3.14039 17.6724 2.99805 16.9499 2.99805C16.2274 2.99805 15.512 3.14039 14.8445 3.41696C14.1771 3.69352 13.5706 4.09888 13.0599 4.60987L11.9999 5.66987L10.9399 4.60987C9.90818 3.57818 8.50891 2.99858 7.04988 2.99858C5.59084 2.99858 4.19157 3.57818 3.15987 4.60987C2.12818 5.64156 1.54858 7.04084 1.54858 8.49987C1.54858 9.95891 2.12818 11.3582 3.15987 12.3899L4.21987 13.4499L11.9999 21.2299L19.7799 13.4499L20.8399 12.3899C21.3509 11.8791 21.7562 11.2727 22.0328 10.6052C22.3094 9.93777 22.4517 9.22236 22.4517 8.49987C22.4517 7.77738 22.3094 7.06198 22.0328 6.39452C21.7562 5.72706 21.3509 5.12063 20.8399 4.60987V4.60987Z" stroke="#1C1C1C" stroke-width="1.25" stroke-linecap="round" stroke-linejoin="round"/>
</svg>
