<svg width="24" height="24" viewBox="0 0 24 24" fill="none" xmlns="http://www.w3.org/2000/svg">
<path d="M10.8868 19.6623C10.8868 19.6623 3.5 16.1298 3.5 10.8311V4.64934L10.8868 2L18.2737 4.64934V10.8311C18.2737 11.542 18.1407 12.2211 17.9105 12.8642" stroke="#1C1C1C" stroke-width="1.25" stroke-linecap="round" stroke-linejoin="round"/>
<path d="M17.4309 22C17.4309 22.3452 17.7107 22.625 18.0559 22.625C18.401 22.625 18.6809 22.3452 18.6809 22L17.4309 22ZM18.6809 17.3247C18.6809 16.9795 18.401 16.6997 18.0559 16.6997C17.7107 16.6997 17.4309 16.9795 17.4309 17.3247L18.6809 17.3247ZM20.5 20.2874C20.8452 20.2874 21.125 20.0075 21.125 19.6624C21.125 19.3172 20.8452 19.0374 20.5 19.0374L20.5 20.2874ZM15.6117 19.0374C15.2665 19.0374 14.9867 19.3172 14.9867 19.6624C14.9867 20.0075 15.2665 20.2874 15.6117 20.2874L15.6117 19.0374ZM18.6809 22L18.6809 17.3247L17.4309 17.3247L17.4309 22L18.6809 22ZM20.5 19.0374L15.6117 19.0374L15.6117 20.2874L20.5 20.2874L20.5 19.0374Z" fill="#FF3636"/>
</svg>
