<svg width="24" height="24" viewBox="0 0 24 24" fill="none" xmlns="http://www.w3.org/2000/svg">
<path d="M15.673 6C15.0813 6 14.5078 6.07649 13.962 6.21906C13.4161 6.07649 12.8426 6 12.2509 6C11.6592 6 11.0857 6.07649 10.5399 6.21906C9.99404 6.07649 9.42053 6 8.82885 6C5.20102 6 2.24963 8.85915 2.24963 12.3735C2.24963 15.8879 5.20102 18.7471 8.82878 18.7471C9.42049 18.7471 9.994 18.6706 10.5398 18.528C11.0857 18.6706 11.6592 18.7471 12.2508 18.7471C12.8425 18.7471 13.4161 18.6706 13.9619 18.528C14.5077 18.6706 15.0812 18.7471 15.6729 18.7471C19.3007 18.7471 22.2521 15.8879 22.2521 12.3735C22.2521 8.85915 19.3008 6 15.673 6ZM8.82882 17.6117C5.84731 17.6117 3.42166 15.2619 3.42166 12.3735C3.42166 9.48521 5.84727 7.1354 8.82878 7.1354C11.8103 7.1354 14.2359 9.48521 14.2359 12.3735C14.2359 15.2619 11.8103 17.6117 8.82882 17.6117ZM12.5879 17.6012C14.2913 16.4482 15.408 14.535 15.408 12.3735C15.408 10.2121 14.2913 8.29887 12.5879 7.14584C15.413 7.31498 17.658 9.59485 17.658 12.3735C17.658 15.1522 15.413 17.4321 12.5879 17.6012ZM16.0099 17.6012C17.7134 16.4482 18.83 14.535 18.83 12.3735C18.83 10.2121 17.7134 8.29887 16.0099 7.14584C18.8351 7.31502 21.0801 9.59485 21.0801 12.3735C21.0801 15.1522 18.8351 17.4321 16.0099 17.6012Z" fill="#999999"/>
</svg>
