<svg width="16" height="16" viewBox="0 0 16 16" fill="none" xmlns="http://www.w3.org/2000/svg">
<path d="M4.66659 14.6667H2.66659C2.31296 14.6667 1.97382 14.5262 1.72378 14.2762C1.47373 14.0261 1.33325 13.687 1.33325 13.3334V8.66671C1.33325 8.31308 1.47373 7.97395 1.72378 7.7239C1.97382 7.47385 2.31296 7.33337 2.66659 7.33337H4.66659M9.33325 6.00004V3.33337C9.33325 2.80294 9.12254 2.29423 8.74747 1.91916C8.37239 1.54409 7.86369 1.33337 7.33325 1.33337L4.66659 7.33337V14.6667H12.1866C12.5081 14.6703 12.8202 14.5576 13.0652 14.3494C13.3102 14.1411 13.4717 13.8513 13.5199 13.5334L14.4399 7.53337C14.4689 7.34228 14.456 7.14716 14.4021 6.96154C14.3483 6.77592 14.2547 6.60424 14.1278 6.45838C14.001 6.31253 13.844 6.19599 13.6676 6.11685C13.4913 6.03771 13.2999 5.99785 13.1066 6.00004H9.33325Z" stroke="#1C1C1C" stroke-width="1.25" stroke-linecap="round" stroke-linejoin="round"/>
</svg>
