<svg width="24" height="24" viewBox="0 0 24 24" fill="none" xmlns="http://www.w3.org/2000/svg">
<path d="M12 15C13.6569 15 15 13.6568 15 12C15 10.3431 13.6569 8.99997 12 8.99997C10.3431 8.99997 9 10.3431 9 12C9 13.6568 10.3431 15 12 15Z" stroke="#1C1C1C" stroke-width="1.25" stroke-linecap="round" stroke-linejoin="round"/>
<path d="M19.4 15C19.2669 15.3016 19.2272 15.6362 19.286 15.9606C19.3448 16.285 19.4995 16.5843 19.73 16.82L19.79 16.88C19.976 17.0657 20.1235 17.2863 20.2241 17.5291C20.3248 17.7719 20.3766 18.0321 20.3766 18.295C20.3766 18.5578 20.3248 18.8181 20.2241 19.0609C20.1235 19.3036 19.976 19.5242 19.79 19.71C19.6043 19.8959 19.3837 20.0434 19.1409 20.1441C18.8981 20.2447 18.6378 20.2965 18.375 20.2965C18.1122 20.2965 17.8519 20.2447 17.6091 20.1441C17.3663 20.0434 17.1457 19.8959 16.96 19.71L16.9 19.65C16.6643 19.4194 16.365 19.2648 16.0406 19.206C15.7162 19.1471 15.3816 19.1869 15.08 19.32C14.7842 19.4467 14.532 19.6572 14.3543 19.9255C14.1766 20.1938 14.0813 20.5082 14.08 20.83V21C14.08 21.5304 13.8693 22.0391 13.4942 22.4142C13.1191 22.7893 12.6104 23 12.08 23C11.5496 23 11.0409 22.7893 10.6658 22.4142C10.2907 22.0391 10.08 21.5304 10.08 21V20.91C10.0723 20.579 9.96512 20.258 9.77251 19.9887C9.5799 19.7194 9.31074 19.5143 9 19.4C8.69838 19.2669 8.36381 19.2271 8.03941 19.286C7.71502 19.3448 7.41568 19.4994 7.18 19.73L7.12 19.79C6.93425 19.9759 6.71368 20.1234 6.47088 20.2241C6.22808 20.3247 5.96783 20.3765 5.705 20.3765C5.44217 20.3765 5.18192 20.3247 4.93912 20.2241C4.69632 20.1234 4.47575 19.9759 4.29 19.79C4.10405 19.6042 3.95653 19.3836 3.85588 19.1409C3.75523 18.8981 3.70343 18.6378 3.70343 18.375C3.70343 18.1121 3.75523 17.8519 3.85588 17.6091C3.95653 17.3663 4.10405 17.1457 4.29 16.96L4.35 16.9C4.58054 16.6643 4.73519 16.365 4.794 16.0406C4.85282 15.7162 4.81312 15.3816 4.68 15.08C4.55324 14.7842 4.34276 14.532 4.07447 14.3543C3.80617 14.1766 3.49179 14.0813 3.17 14.08H3C2.46957 14.08 1.96086 13.8693 1.58579 13.4942C1.21071 13.1191 1 12.6104 1 12.08C1 11.5495 1.21071 11.0408 1.58579 10.6658C1.96086 10.2907 2.46957 10.08 3 10.08H3.09C3.42099 10.0722 3.742 9.96509 4.0113 9.77248C4.28059 9.57987 4.48572 9.3107 4.6 8.99997C4.73312 8.69835 4.77282 8.36378 4.714 8.03938C4.65519 7.71499 4.50054 7.41565 4.27 7.17997L4.21 7.11997C4.02405 6.93422 3.87653 6.71365 3.77588 6.47085C3.67523 6.22805 3.62343 5.9678 3.62343 5.70497C3.62343 5.44214 3.67523 5.18188 3.77588 4.93909C3.87653 4.69629 4.02405 4.47572 4.21 4.28997C4.39575 4.10402 4.61632 3.9565 4.85912 3.85585C5.10192 3.7552 5.36217 3.7034 5.625 3.7034C5.88783 3.7034 6.14808 3.7552 6.39088 3.85585C6.63368 3.9565 6.85425 4.10402 7.04 4.28997L7.1 4.34997C7.33568 4.58051 7.63502 4.73516 7.95941 4.79397C8.28381 4.85279 8.61838 4.81308 8.92 4.67997H9C9.29577 4.55321 9.54802 4.34272 9.72569 4.07443C9.90337 3.80614 9.99872 3.49176 10 3.16997V2.99997C10 2.46954 10.2107 1.96083 10.5858 1.58576C10.9609 1.21068 11.4696 0.999969 12 0.999969C12.5304 0.999969 13.0391 1.21068 13.4142 1.58576C13.7893 1.96083 14 2.46954 14 2.99997V3.08997C14.0013 3.41176 14.0966 3.72614 14.2743 3.99444C14.452 4.26273 14.7042 4.47321 15 4.59997C15.3016 4.73308 15.6362 4.77279 15.9606 4.71397C16.285 4.65516 16.5843 4.50051 16.82 4.26997L16.88 4.20997C17.0657 4.02402 17.2863 3.8765 17.5291 3.77585C17.7719 3.6752 18.0322 3.6234 18.295 3.6234C18.5578 3.6234 18.8181 3.6752 19.0609 3.77585C19.3037 3.8765 19.5243 4.02402 19.71 4.20997C19.896 4.39572 20.0435 4.61629 20.1441 4.85909C20.2448 5.10188 20.2966 5.36214 20.2966 5.62497C20.2966 5.8878 20.2448 6.14805 20.1441 6.39085C20.0435 6.63365 19.896 6.85422 19.71 7.03997L19.65 7.09997C19.4195 7.33565 19.2648 7.63499 19.206 7.95938C19.1472 8.28378 19.1869 8.61835 19.32 8.91997V8.99997C19.4468 9.29574 19.6572 9.54799 19.9255 9.72566C20.1938 9.90334 20.5082 9.99869 20.83 9.99997H21C21.5304 9.99997 22.0391 10.2107 22.4142 10.5858C22.7893 10.9608 23 11.4695 23 12C23 12.5304 22.7893 13.0391 22.4142 13.4142C22.0391 13.7893 21.5304 14 21 14H20.91C20.5882 14.0013 20.2738 14.0966 20.0055 14.2743C19.7372 14.452 19.5268 14.7042 19.4 15Z" stroke="#1C1C1C" stroke-width="1.25" stroke-linecap="round" stroke-linejoin="round"/>
</svg>
