<svg width="24" height="24" viewBox="0 0 24 24" fill="none" xmlns="http://www.w3.org/2000/svg">
<path d="M16.7827 2.03037L16.1577 2.02866V2.03037H16.7827ZM16.6126 2.65997L17.2132 2.83288L17.2132 2.83287L16.6126 2.65997ZM13.2172 6.32435L13.0724 5.71635L13.0724 5.71635L13.2172 6.32435ZM12.554 6.12713L13.1755 6.19351L13.1755 6.1935L12.554 6.12713ZM16.0542 2.24737L15.8282 1.66465L15.8282 1.66466L16.0542 2.24737ZM16.1577 2.03037C16.1577 1.99243 16.1613 1.96339 16.1623 1.95539C16.1638 1.94327 16.1654 1.93411 16.1662 1.92979C16.167 1.9249 16.1677 1.92138 16.168 1.91978C16.1682 1.91887 16.1683 1.9182 16.1684 1.9178C16.1685 1.9176 16.1685 1.91744 16.1685 1.91734C16.1685 1.91725 16.1686 1.91719 16.1686 1.91719C16.1686 1.91719 16.1685 1.91735 16.1685 1.91768C16.1684 1.91801 16.1683 1.91847 16.1681 1.91908C16.1679 1.92031 16.1675 1.92197 16.167 1.9241C16.1659 1.92842 16.1646 1.93402 16.1628 1.94103C16.1556 1.96992 16.1443 2.01302 16.1294 2.06846C16.0996 2.17849 16.0581 2.32711 16.012 2.48707L17.2132 2.83287C17.2607 2.66807 17.3042 2.51266 17.3361 2.39447C17.3519 2.3358 17.3656 2.28374 17.3757 2.24331C17.3806 2.22362 17.3857 2.20267 17.3899 2.18339C17.3919 2.17414 17.3948 2.16045 17.3975 2.14506C17.3976 2.14459 17.4077 2.09271 17.4077 2.03037H16.1577ZM16.012 2.48706C15.4663 4.38252 14.4805 5.38106 13.0724 5.71635L13.362 6.93235C15.3177 6.46666 16.5773 5.0419 17.2132 2.83288L16.012 2.48706ZM13.0724 5.71635C12.9639 5.74219 12.852 5.76559 12.7613 5.78215C12.7158 5.79046 12.6791 5.79639 12.653 5.80002C12.6172 5.80498 12.625 5.80221 12.6536 5.80221V7.05221C12.7568 7.05221 12.8959 7.02823 12.9857 7.01184C13.0993 6.99111 13.233 6.96308 13.362 6.93234L13.0724 5.71635ZM12.6536 5.80221C12.639 5.80221 12.6446 5.8019 12.6567 5.80277C12.6677 5.80356 12.7116 5.80692 12.7686 5.82494C12.8316 5.84486 12.9168 5.88459 12.9958 5.96194C13.0747 6.03928 13.1166 6.12402 13.138 6.1885C13.1576 6.24761 13.1613 6.29339 13.1623 6.30903C13.1634 6.32641 13.1627 6.33433 13.1631 6.32573C13.164 6.30575 13.1673 6.26991 13.1755 6.19351L11.9326 6.06075C11.9253 6.12865 11.9175 6.20247 11.9145 6.26581C11.9123 6.31118 11.9053 6.44286 11.9516 6.58228C11.9795 6.66625 12.0303 6.76595 12.1209 6.85478C12.2116 6.94362 12.3113 6.99137 12.392 7.01688C12.5186 7.05685 12.6442 7.05221 12.6536 7.05221V5.80221ZM13.1755 6.1935C13.2632 5.37186 13.5254 4.7528 13.9888 4.23912C14.4638 3.71262 15.1898 3.25297 16.2801 2.83008L15.8282 1.66466C14.6416 2.12484 13.7169 2.67449 13.0607 3.4018C12.393 4.14193 12.0436 5.02122 11.9326 6.06076L13.1755 6.1935ZM16.2801 2.83009C16.6364 2.69193 16.7874 2.635 16.8533 2.61537C16.8665 2.61144 16.8573 2.61491 16.8353 2.61858C16.824 2.62046 16.7408 2.6355 16.6316 2.61162C16.5695 2.59805 16.4888 2.56977 16.4079 2.51132C16.3242 2.45076 16.263 2.37414 16.2226 2.29492C16.1532 2.15862 16.1577 2.03583 16.1577 2.02866L17.4077 2.03208C17.4078 2.00953 17.4109 1.8737 17.3363 1.72739C17.2361 1.53059 17.0598 1.4257 16.8986 1.39046C16.7745 1.36333 16.6703 1.37883 16.6298 1.3856C16.5784 1.39415 16.5316 1.40692 16.4965 1.41739C16.369 1.45536 16.1556 1.5377 15.8282 1.66465L16.2801 2.83009Z" fill="#1C1C1C"/>
<path d="M3.5 12.2789C3.5 7.94857 7.91788 5.45834 11.9987 7.23625C16.0365 5.58274 20.5 7.91126 20.5 12.2789C20.5 16.8025 17.1445 23.7437 11.9987 21.5988C7.11291 23.6728 3.5 16.802 3.5 12.2789Z" stroke="#1C1C1C" stroke-width="1.25" stroke-linejoin="round"/>
<path d="M9.48402 2.50389C9.19964 2.30824 8.8105 2.38017 8.61485 2.66454C8.4192 2.94892 8.49113 3.33806 8.77551 3.53371L9.48402 2.50389ZM11.3946 7.00803C11.3079 7.34213 11.5084 7.68328 11.8425 7.77C12.1766 7.85672 12.5178 7.65617 12.6045 7.32206L11.3946 7.00803ZM8.77551 3.53371C9.29978 3.89441 10.0656 4.52501 10.6451 5.22545C10.9346 5.57537 11.1598 5.92145 11.2916 6.24133C11.4235 6.56137 11.4452 6.8129 11.3946 7.00803L12.6045 7.32206C12.7452 6.78007 12.6433 6.24075 12.4474 5.76513C12.2513 5.28936 11.9444 4.83498 11.6082 4.42859C10.9362 3.61643 10.0758 2.91101 9.48402 2.50389L8.77551 3.53371Z" fill="#1C1C1C"/>
</svg>
