<svg width="24" height="24" viewBox="0 0 24 24" fill="none" xmlns="http://www.w3.org/2000/svg">
<path d="M9.12976 3.0188C10.2458 3.78662 12.3822 5.69082 11.9995 7.16504M11.9987 7.23625C7.91788 5.45834 3.5 7.94857 3.5 12.2789C3.5 16.802 7.11291 23.6728 11.9987 21.5988C17.1445 23.7437 20.5 16.8025 20.5 12.2789C20.5 7.91126 16.0365 5.58274 11.9987 7.23625ZM16.7827 2.03037C16.7827 2.05193 16.7061 2.3352 16.6126 2.65997C16.0218 4.71221 14.8991 5.92386 13.2172 6.32435C12.9797 6.38092 12.726 6.42721 12.6536 6.42721C12.527 6.42721 12.5232 6.41573 12.554 6.12713C12.7528 4.26595 13.7772 3.13044 16.0542 2.24737C16.7379 1.98225 16.7829 1.96884 16.7827 2.03037Z" stroke="#1C1C1C" stroke-width="1.25" stroke-linecap="round" stroke-linejoin="round"/>
</svg>
