<svg width="16" height="16" viewBox="0 0 16 16" fill="none" xmlns="http://www.w3.org/2000/svg">
<path d="M7.99992 5.99997V7.99997L8.99992 8.99997M11.0066 11.5666L10.7733 14.12C10.7432 14.4524 10.5896 14.7615 10.3427 14.9861C10.0958 15.2108 9.7737 15.3347 9.43992 15.3333H6.55325C6.21947 15.3347 5.89732 15.2108 5.65045 14.9861C5.40359 14.7615 5.24996 14.4524 5.21992 14.12L4.98659 11.5666M4.99325 4.4333L5.22659 1.87997C5.25652 1.54869 5.40921 1.24056 5.65466 1.01607C5.90012 0.791584 6.22062 0.66695 6.55325 0.666637H9.45325C9.78703 0.665283 10.1092 0.789169 10.3561 1.01382C10.6029 1.23847 10.7565 1.54754 10.7866 1.87997L11.0199 4.4333M12.6666 7.99997C12.6666 10.5773 10.5772 12.6666 7.99992 12.6666C5.42259 12.6666 3.33325 10.5773 3.33325 7.99997C3.33325 5.42264 5.42259 3.3333 7.99992 3.3333C10.5772 3.3333 12.6666 5.42264 12.6666 7.99997Z" stroke="#1C1C1C" stroke-width="1.25" stroke-linecap="round" stroke-linejoin="round"/>
</svg>
