<svg width="72" height="72" viewBox="0 0 72 72" fill="none" xmlns="http://www.w3.org/2000/svg">
<circle cx="36" cy="36" r="36" fill="#E3011B"/>
<path fill-rule="evenodd" clip-rule="evenodd" d="M44.8078 27.0124C45.3598 27.5716 45.3598 28.4782 44.8078 29.0373L29.9984 44.0393C29.4464 44.5985 28.5515 44.5985 27.9995 44.0393C27.4475 43.4801 27.4475 42.5736 27.9995 42.0144L42.8089 27.0124C43.3609 26.4533 44.2558 26.4533 44.8078 27.0124Z" fill="white"/>
<path fill-rule="evenodd" clip-rule="evenodd" d="M27.9997 27.0124C28.5517 26.4533 29.4466 26.4533 29.9986 27.0124L44.808 42.0144C45.36 42.5736 45.36 43.4801 44.808 44.0393C44.256 44.5985 43.3611 44.5985 42.8091 44.0393L27.9997 29.0373C27.4477 28.4782 27.4477 27.5716 27.9997 27.0124Z" fill="white"/>
</svg>
