<svg width="32" height="32" viewBox="0 0 32 32" fill="none" xmlns="http://www.w3.org/2000/svg">
<rect width="32" height="32" rx="16" fill="#1C1C1C"/>
<path d="M8.5 11H10.1667M10.1667 11H23.5M10.1667 11V22.6667C10.1667 23.1087 10.3423 23.5326 10.6548 23.8452C10.9674 24.1578 11.3913 24.3334 11.8333 24.3334H20.1667C20.6087 24.3334 21.0326 24.1578 21.3452 23.8452C21.6577 23.5326 21.8333 23.1087 21.8333 22.6667V11H10.1667ZM12.6667 11V9.33335C12.6667 8.89133 12.8423 8.4674 13.1548 8.15484C13.4674 7.84228 13.8913 7.66669 14.3333 7.66669H17.6667C18.1087 7.66669 18.5326 7.84228 18.8452 8.15484C19.1577 8.4674 19.3333 8.89133 19.3333 9.33335V11" stroke="white" stroke-width="1.25" stroke-linecap="round" stroke-linejoin="round"/>
</svg>
