<svg width="24" height="24" viewBox="0 0 24 24" fill="none" xmlns="http://www.w3.org/2000/svg">
<path d="M21.75 6.7505V5.75025C21.75 5.21975 21.5393 4.71098 21.1641 4.33586C20.789 3.96074 20.2802 3.75 19.7497 3.75H3.74775C3.21725 3.75 2.70848 3.96074 2.33336 4.33586C1.95824 4.71098 1.7475 5.21975 1.7475 5.75025V17.7517C1.7475 18.2822 1.95824 18.791 2.33336 19.1661C2.70848 19.5413 3.21725 19.752 3.74775 19.752" stroke="#1C1C1C" stroke-width="1.25" stroke-linecap="round" stroke-linejoin="round"/>
<path d="M6.24906 18.7511C6.24906 19.3034 6.69678 19.7511 7.24906 19.7511H18H20.75C21.3023 19.7511 21.75 19.3034 21.75 18.7511V10.7501C21.75 10.4849 21.6371 10.2305 21.4361 10.0429C21.2352 9.85537 20.9626 9.75 20.6784 9.75H7.32063C7.03643 9.75 6.76387 9.85537 6.56292 10.0429C6.36196 10.2305 6.24906 10.4849 6.24906 10.7501V18.7511Z" stroke="#1C1C1C" stroke-width="1.25" stroke-linecap="round" stroke-linejoin="round"/>
<path d="M9 13L19 13" stroke="#1C1C1C" stroke-width="1.25" stroke-linecap="round" stroke-linejoin="round"/>
<path d="M9 16H19" stroke="#1C1C1C" stroke-width="1.25" stroke-linecap="round" stroke-linejoin="round"/>
</svg>
