<svg width="24" height="24" viewBox="0 0 24 24" fill="none" xmlns="http://www.w3.org/2000/svg">
<path d="M4.42095 21H19.5788M4.68085 21C4.27234 21 4 20.7257 4 20.3143V18.4629C4 17.2972 4.4766 16.2 5.29362 15.3772C6.11064 14.6229 7.2 14.1429 8.35745 14.1429H15.6426C16.8 14.1429 17.8894 14.6229 18.7064 15.4457C19.5234 16.2686 20 17.3657 20 18.5314V20.3143C19.9319 20.7257 19.5915 21 19.2511 21M12.4211 11.5714C10.0819 11.5714 8.21058 9.68165 8.21058 7.31945C8.21058 4.95725 10.0819 3 12.4211 3C14.7603 3 16.6316 4.88976 16.6316 7.25196C16.6316 9.61416 14.7603 11.5714 12.4211 11.5714Z" stroke="#1C1C1C" stroke-width="1.25"/>
</svg>
