<svg width="32" height="32" viewBox="0 0 32 32" fill="none" xmlns="http://www.w3.org/2000/svg">
<path d="M19.6667 24.25V22.4167C19.6667 21.4442 19.2804 20.5116 18.5927 19.8239C17.9051 19.1363 16.9725 18.75 16 18.75H9.58335C8.61089 18.75 7.67826 19.1363 6.99063 19.8239C6.303 20.5116 5.91669 21.4442 5.91669 22.4167V24.25" stroke="#1C1C1C" stroke-width="1.5" stroke-linecap="round" stroke-linejoin="round"/>
<path d="M12.7917 15.0833C14.8167 15.0833 16.4583 13.4417 16.4583 11.4167C16.4583 9.39162 14.8167 7.75 12.7917 7.75C10.7666 7.75 9.125 9.39162 9.125 11.4167C9.125 13.4417 10.7666 15.0833 12.7917 15.0833Z" stroke="#1C1C1C" stroke-width="1.5" stroke-linecap="round" stroke-linejoin="round"/>
<path d="M23.0543 12.6522V18.1522" stroke="#1C1C1C" stroke-width="1.5" stroke-linecap="round" stroke-linejoin="round"/>
<path d="M25.8043 15.4022H20.3043" stroke="#1C1C1C" stroke-width="1.5" stroke-linecap="round" stroke-linejoin="round"/>
</svg>
