<svg width="24" height="24" viewBox="0 0 24 24" fill="none" xmlns="http://www.w3.org/2000/svg">
<path d="M14.1805 14.0752C7.77939 14.0752 3.20301 14.0752 3.20301 14.0752C2.88395 14.0752 2.57796 13.9485 2.35235 13.7229C2.12675 13.4972 2 13.1913 2 12.8722V5.20301C2 4.88395 2.12675 4.57796 2.35235 4.35235C2.57796 4.12675 2.88395 4 3.20301 4H15.8346C16.1537 4 16.4597 4.12675 16.6853 4.35235C16.9109 4.57796 17.0376 4.88395 17.0376 5.20301V5.80451M9.81965 8.96239C16.2207 8.96239 20.7971 8.96239 20.7971 8.96239C21.1162 8.96239 21.4222 9.08914 21.6478 9.31474C21.8734 9.54035 22.0001 9.84634 22.0001 10.1654V17.8346C22.0001 18.1536 21.8734 18.4596 21.6478 18.6852C21.4222 18.9109 21.1162 19.0376 20.7971 19.0376H8.16551C7.84645 19.0376 7.54046 18.9109 7.31485 18.6852C7.08925 18.4596 6.9625 18.1536 6.9625 17.8346V17.2331M12.5237 8.9624H8.16283M8.16283 8.9624L9.81698 7.30823M8.16283 8.9624L9.81698 10.6165M11.699 14.0753H16.0599M16.0599 14.0753L14.4058 12.4211M16.0599 14.0753L14.4058 15.7294" stroke="#1C1C1C" stroke-width="1.25" stroke-linecap="round" stroke-linejoin="round"/>
</svg>
