<svg width="24" height="24" viewBox="0 0 24 24" fill="none" xmlns="http://www.w3.org/2000/svg">
<g clip-path="url(#clip0_334_3231)">
<path d="M18.4974 4.07363C19.0742 3.78001 19.4356 3.67937 19.6682 3.74764C19.834 3.79629 19.8815 3.85305 19.9185 4.0469C19.983 4.38569 19.6756 5.12052 19.1021 5.99784C18.8579 6.3715 18.69 6.56953 17.9453 7.36215C16.8848 8.49088 15.8964 9.57498 15.3869 10.1683C15.0935 10.51 15.0073 10.6341 15.0092 10.7116C15.0106 10.7669 15.369 12.9758 15.8057 15.6203C16.7094 21.0925 16.6736 20.5625 16.1765 21.1228C15.9942 21.3282 15.8983 21.415 15.8904 21.3817C15.8839 21.3541 15.343 20.1384 14.6884 18.6801L13.4982 16.0285L12.7035 14.8276C12.091 13.902 11.8861 13.6181 11.8099 13.5896C11.7118 13.5529 11.7027 13.5605 10.7799 14.4407C9.75193 15.4213 9.23599 15.8751 8.61464 16.345L8.20114 16.6577L8.2186 16.8179C8.22824 16.906 8.3664 17.554 8.52564 18.258C8.8537 19.7082 8.86171 19.5794 8.41097 20.0965L8.13289 20.4155L8.07842 20.3269C7.05406 18.6632 6.54769 17.8663 6.51575 17.8676L5.78004 17.1567C5.79058 17.1119 4.59715 16.3432 3.33126 15.5793L3.23988 15.5241L3.56111 15.2424C3.73784 15.0875 3.93685 14.9343 4.00345 14.9022C4.10205 14.8546 4.36208 14.8972 5.40482 15.1319C6.10898 15.2904 6.75849 15.4277 6.84817 15.437L7.01124 15.454L7.19763 15.1954C7.70217 14.4953 8.59757 13.4802 9.57106 12.5047C10.1115 11.9632 10.1121 11.9624 10.0726 11.8567C10.0407 11.7714 9.80021 11.5968 8.83212 10.9562L7.63115 10.1615L4.97962 8.97128C3.5213 8.31668 2.30559 7.7758 2.27812 7.76931C2.18811 7.74807 2.85722 7.18186 3.05062 7.11556C3.19595 7.06576 3.96056 7.17857 8.11585 7.86273L13.0099 8.66855L13.1962 8.52288C13.5147 8.27383 15.2367 6.71063 16.0703 5.91384C17.1508 4.88106 17.6404 4.50981 18.4974 4.07363Z" stroke="#1C1C1C" stroke-width="1.25"/>
</g>
<defs>
<clipPath id="clip0_334_3231">
<rect width="24" height="24" fill="white"/>
</clipPath>
</defs>
</svg>
