<svg width="32" height="32" viewBox="0 0 32 32" fill="none" xmlns="http://www.w3.org/2000/svg">
<path fill-rule="evenodd" clip-rule="evenodd" d="M25.4984 10.5315C25.9925 10.5222 26.4598 10.7559 26.7489 11.1568C27.0222 11.57 27.0759 12.0908 26.8927 12.5511L25.3358 16.7968C24.9544 17.7231 24.0672 18.3415 23.066 18.3787H13.468C12.4573 18.3479 11.5837 17.6642 11.3108 16.6905L9.52255 9.5373C9.3686 9.07629 8.97983 8.73283 8.50335 8.6369L5.55205 8.25548C5.20672 8.21232 4.96177 7.89738 5.00493 7.55205C5.0481 7.20672 5.36304 6.96177 5.70837 7.00493L8.65967 7.38635C9.64406 7.55349 10.4472 8.26686 10.7293 9.22466L11.0545 10.5315H25.4984ZM24.154 16.3715L25.711 12.1259C25.7663 12.0524 25.7681 11.9517 25.7155 11.8763C25.6628 11.8009 25.5677 11.7679 25.4796 11.7945H11.3797L12.5302 16.3965C12.6646 16.8123 13.0384 17.1044 13.4743 17.1344H23.0598C23.5366 17.0994 23.9563 16.8068 24.154 16.3715Z" fill="#1C1C1C"/>
<path fill-rule="evenodd" clip-rule="evenodd" d="M11.7795 23.4873C11.7795 22.3131 12.7314 21.3613 13.9055 21.3613C15.0796 21.3613 16.0314 22.3131 16.0314 23.4873C16.0314 24.6614 15.0796 25.6132 13.9055 25.6132C12.7314 25.6132 11.7795 24.6614 11.7795 23.4873ZM13.0301 23.4873C13.0301 23.9708 13.422 24.3627 13.9055 24.3627V24.369C14.1387 24.369 14.3623 24.2759 14.5267 24.1104C14.691 23.9449 14.7825 23.7206 14.7808 23.4873C14.7808 23.0039 14.3889 22.612 13.9055 22.612C13.422 22.612 13.0301 23.0039 13.0301 23.4873Z" fill="#1C1C1C"/>
<path fill-rule="evenodd" clip-rule="evenodd" d="M20.8894 22.6737C21.2185 21.8793 21.9937 21.3613 22.8535 21.3613C24.0277 21.3613 24.9795 22.3131 24.9795 23.4873C24.9795 24.3471 24.4615 25.1223 23.6671 25.4514C22.8727 25.7804 21.9583 25.5985 21.3503 24.9905C20.7423 24.3825 20.5604 23.4681 20.8894 22.6737ZM21.978 23.4873C21.978 23.9708 22.37 24.3627 22.8534 24.3627V24.369C23.0867 24.369 23.3103 24.2759 23.4746 24.1104C23.639 23.9449 23.7305 23.7206 23.7288 23.4873C23.7288 23.0039 23.3369 22.612 22.8534 22.612C22.37 22.612 21.978 23.0039 21.978 23.4873Z" fill="#1C1C1C"/>
<path d="M24.3603 19.2853H12.2237C11.8783 19.2853 11.5984 19.5653 11.5984 19.9106C11.5984 20.2559 11.8783 20.5359 12.2237 20.5359H24.3728C24.7181 20.5359 24.9981 20.2559 24.9981 19.9106C24.9981 19.5653 24.7181 19.2853 24.3728 19.2853H24.3603Z" fill="#1C1C1C"/>
</svg>
