<svg width="24" height="24" viewBox="0 0 24 24" fill="none" xmlns="http://www.w3.org/2000/svg">
<path d="M15.4339 17C12.1175 21.5 17.0992 21.9895 16 23H15.5C12.7 22.6 11 19.8333 10.5 18.5" stroke="#1C1C1C" stroke-width="1.25" stroke-linecap="round" stroke-linejoin="round"/>
<path d="M15.5262 2.12281C15.7493 2.07689 16.1358 2.02247 16.3222 2.01074C17.0973 1.96197 17.997 2.08086 18.7857 2.3363C20.633 2.93466 22.2168 4.94299 22.5523 7.11253C22.7439 8.35175 22.5501 9.54864 21.9741 10.683C20.9038 12.7906 18.7588 14.5268 16.5441 15.0781C16.0925 15.1905 15.4325 15.2849 15.0985 15.2849C15.0255 15.2849 14.9659 15.2922 14.9659 15.3011L14.5231 15.1806C14.511 15.1696 14.3144 15.0433 14.0862 14.8999C13.7282 14.675 13.64 14.6098 13.4432 14.4241C12.1828 13.235 11.2583 11.4944 10.9632 9.75496C10.875 9.23469 10.859 9.03056 10.8591 8.42627C10.8591 7.8572 10.8724 7.67504 10.9462 7.22858C11.1485 6.00547 11.646 4.90206 12.3998 4.00495C12.6079 3.7572 13.0709 3.3148 13.312 3.13324C13.9774 2.63204 14.7378 2.28506 15.5262 2.12281Z" stroke="#1C1C1C" stroke-width="1.25" stroke-linejoin="round"/>
<path d="M10.8592 7.17031C9.50456 6.06165 6.81066 6.17073 5.78008 6.44903L5.61745 6.5087C5.34238 6.60963 4.71303 6.96085 4.43194 7.17026C3.93025 7.54411 3.57918 7.91193 3.27174 8.38577C2.59136 9.4344 2.41546 10.7553 2.78707 12.0246C3.16159 13.3037 4.09286 14.6209 5.27057 15.5372C6.01168 16.1138 6.9806 16.5942 7.72904 16.7562C8.29508 16.8788 8.93383 16.8959 9.38065 16.8007L9.57039 16.7603C9.91001 16.6785 10.6859 16.387 11.0723 15.8751C11.6955 15.2169 12.0935 14.2707 12.2239 13.1765" stroke="#1C1C1C" stroke-width="1.25" stroke-linecap="round"/>
<path d="M9.21945 17.4521C9.12177 17.8518 8.8757 18.3451 9.12942 18.4782C9.30058 18.5681 9.34496 18.5593 10.2957 18.247C11.3845 17.8894 11.422 17.8625 11.4219 17.4384L10.8549 16.9149" stroke="#1C1C1C" stroke-width="1.25" stroke-linecap="round" stroke-linejoin="round"/>
<path d="M14.461 15.7886C14.2521 16.1432 13.8742 16.5445 14.0787 16.7452C14.2167 16.8806 14.2617 16.885 15.2621 16.8602C16.4078 16.8319 16.4515 16.817 16.5738 16.4109L16.1818 15.746" stroke="#1C1C1C" stroke-width="1.25" stroke-linecap="round" stroke-linejoin="round"/>
</svg>
