<svg width="16" height="16" viewBox="0 0 16 16" fill="none" xmlns="http://www.w3.org/2000/svg">
<path d="M4.70774 1.68531C4.72122 1.40949 4.50855 1.17498 4.23274 1.1615C3.95692 1.14802 3.72241 1.36069 3.70893 1.6365L4.70774 1.68531ZM4 5.92432L3.5006 5.89992C3.5002 5.90805 3.5 5.91618 3.5 5.92432H4ZM4.92708 7.147L5.42661 7.16866C5.43847 6.89517 5.2282 6.66299 4.95488 6.64777L4.92708 7.147ZM4.64583 13.6325L4.1463 13.6108L4.14625 13.6121L4.64583 13.6325ZM6.21875 14.3129L5.8616 13.963C5.85827 13.9664 5.85499 13.9699 5.85176 13.9734L6.21875 14.3129ZM6.47917 13.6325L6.97875 13.6121L6.9787 13.6108L6.47917 13.6325ZM6.19792 7.147L6.17012 6.64777C5.8968 6.66299 5.68653 6.89517 5.69839 7.16866L6.19792 7.147ZM7.125 5.92432H7.625C7.625 5.91616 7.6248 5.908 7.6244 5.89986L7.125 5.92432ZM7.41607 1.64707C7.40256 1.37126 7.16802 1.15862 6.8922 1.17213C6.61639 1.18565 6.40376 1.42019 6.41727 1.696L7.41607 1.64707ZM3.70893 1.6365L3.5006 5.89992L4.4994 5.94872L4.70774 1.68531L3.70893 1.6365ZM3.5 5.92432C3.5 6.36641 3.60637 6.78111 3.85114 7.10203C4.10451 7.43422 4.4745 7.62257 4.89929 7.64622L4.95488 6.64777C4.80675 6.63952 4.7132 6.58334 4.64626 6.49557C4.57071 6.39652 4.5 6.21584 4.5 5.92432H3.5ZM4.42755 7.12533L4.1463 13.6108L5.14536 13.6542L5.42661 7.16866L4.42755 7.12533ZM4.14625 13.6121C4.13025 14.004 4.27473 14.3828 4.5491 14.6629L5.2634 13.963C5.1836 13.8816 5.14058 13.7714 5.14542 13.6529L4.14625 13.6121ZM4.5491 14.6629C4.80972 14.9289 5.16381 15.1 5.5625 15.1V14.1C5.46119 14.1 5.35695 14.0585 5.2634 13.963L4.5491 14.6629ZM5.5625 15.1C5.94887 15.1 6.31203 14.9483 6.58574 14.6525L5.85176 13.9734C5.77131 14.0603 5.67613 14.1 5.5625 14.1V15.1ZM6.5759 14.6629C6.85027 14.3828 6.99475 14.004 6.97875 13.6121L5.97958 13.6529C5.98442 13.7714 5.9414 13.8816 5.8616 13.963L6.5759 14.6629ZM6.9787 13.6108L6.69745 7.12533L5.69839 7.16866L5.97964 13.6542L6.9787 13.6108ZM6.22571 7.64622C6.6505 7.62257 7.02049 7.43422 7.27386 7.10203C7.51863 6.78111 7.625 6.36641 7.625 5.92432H6.625C6.625 6.21584 6.55429 6.39652 6.47874 6.49557C6.4118 6.58334 6.31825 6.63952 6.17012 6.64777L6.22571 7.64622ZM7.6244 5.89986L7.41607 1.64707L6.41727 1.696L6.6256 5.94878L7.6244 5.89986Z" fill="#1C1C1C"/>
<path d="M5.40417 4.51757V1.48497C5.40417 1.4041 5.29528 1.33334 5.17083 1.33334C5.04639 1.33334 4.9375 1.4041 4.9375 1.48497V4.51757C4.9375 4.59844 5.04639 4.6692 5.17083 4.6692C5.29528 4.6692 5.40417 4.59844 5.40417 4.51757Z" fill="#1C1C1C"/>
<path d="M6.23742 4.51757V1.48497C6.23742 1.4041 6.12853 1.33334 6.00408 1.33334C5.87964 1.33334 5.77075 1.4041 5.77075 1.48497V4.51757C5.77075 4.59844 5.87964 4.6692 6.00408 4.6692C6.12853 4.6692 6.23742 4.59844 6.23742 4.51757Z" fill="#1C1C1C"/>
<path d="M10.3658 14.2425C10.5947 14.0217 10.7196 13.7167 10.7196 13.3908V13.3802L10.4178 7.39201C11.0005 7.30789 11.448 6.80317 11.448 6.19331V3.92735C11.448 2.67607 10.449 1.66664 9.21075 1.66664C9.12751 1.66664 9.05466 1.74025 9.05466 1.82436V1.84539V14.4422C9.05466 14.5264 9.12751 14.6 9.21075 14.6H9.52293C9.8351 14.6 10.1369 14.4738 10.3658 14.2425Z" stroke="#1C1C1C" stroke-linejoin="round"/>
</svg>
