<svg width="26" height="12" viewBox="0 0 26 12" fill="none" xmlns="http://www.w3.org/2000/svg">
<g clip-path="url(#clip0_5463_25880)">
<path d="M3.5 5.49995V3.49995C3.5 2.83691 3.76339 2.20103 4.23223 1.73219C4.70107 1.26335 5.33696 0.999954 6 0.999954C6.66304 0.999954 7.29893 1.26335 7.76777 1.73219C8.23661 2.20103 8.5 2.83691 8.5 3.49995V5.49995M2.5 5.49995H9.5C10.0523 5.49995 10.5 5.94767 10.5 6.49995V9.99995C10.5 10.5522 10.0523 11 9.5 11H2.5C1.94772 11 1.5 10.5522 1.5 9.99995V6.49995C1.5 5.94767 1.94772 5.49995 2.5 5.49995Z" stroke="#1C1C1C" stroke-width="1.25" stroke-linecap="round" stroke-linejoin="round"/>
</g>
<g clip-path="url(#clip1_5463_25880)">
<path d="M21.06 7.06003C20.9227 7.20741 20.7571 7.32561 20.5731 7.4076C20.3891 7.48958 20.1905 7.53366 19.989 7.53722C19.7876 7.54077 19.5876 7.50372 19.4008 7.42828C19.214 7.35284 19.0444 7.24055 18.9019 7.09811C18.7595 6.95567 18.6472 6.78601 18.5718 6.59923C18.4963 6.41245 18.4593 6.21239 18.4628 6.01099C18.4664 5.80958 18.5105 5.61096 18.5924 5.42696C18.6744 5.24296 18.7926 5.07736 18.94 4.94003M14.5 0.500031L25.5 11.5M22.97 8.97003C22.1153 9.62154 21.0746 9.98247 20 10C16.5 10 14.5 6.00003 14.5 6.00003C15.1219 4.84098 15.9846 3.82834 17.03 3.03003L22.97 8.97003ZM18.95 2.12003C19.2942 2.03947 19.6465 1.9992 20 2.00003C23.5 2.00003 25.5 6.00003 25.5 6.00003C25.1965 6.56784 24.8345 7.1024 24.42 7.59503L18.95 2.12003Z" stroke="#1C1C1C" stroke-width="1.25" stroke-linecap="round" stroke-linejoin="round"/>
</g>
<defs>
<clipPath id="clip0_5463_25880">
<rect width="12" height="12" fill="white"/>
</clipPath>
<clipPath id="clip1_5463_25880">
<rect width="12" height="12" fill="white" transform="translate(14)"/>
</clipPath>
</defs>
</svg>
