<svg width="24" height="24" viewBox="0 0 24 24" fill="none" xmlns="http://www.w3.org/2000/svg">
<g clip-path="url(#clip0_6842_32766)">
<path d="M23.155 13.893C23.871 7.86597 22.811 4.06097 20.899 2.33997L20.9 2.33897C17.814 -0.600037 7.39196 -1.03504 3.69996 2.47097C2.04196 4.18597 1.45796 6.70297 1.39396 9.81897C1.32996 12.936 1.25396 18.775 6.69496 20.359H6.69996L6.69496 22.778C6.69496 22.778 6.65796 23.758 7.28396 23.955C7.99996 24.187 8.32396 23.732 10.551 21.072C14.275 21.395 17.135 20.655 17.46 20.547C18.212 20.295 22.467 19.732 23.155 13.893ZM10.918 19.37C10.918 19.37 8.56096 22.309 7.82796 23.072C7.58796 23.32 7.32496 23.297 7.32896 22.805C7.32896 22.482 7.34696 18.789 7.34696 18.789C2.73396 17.467 3.00596 12.495 3.05596 9.89397C3.10596 7.29197 3.58196 5.16097 4.98596 3.72597C8.22496 0.688964 17.362 1.36796 19.69 3.55597C22.536 6.07897 21.523 13.207 21.529 13.45C20.944 18.324 17.496 18.633 16.862 18.844C16.591 18.934 14.076 19.581 10.918 19.37Z" fill="#7360F2"/>
<path d="M12.2223 4.29688C11.8373 4.29688 11.8373 4.89687 12.2223 4.90187C15.2093 4.92487 17.6693 7.00688 17.6963 10.8259C17.6963 11.2289 18.2863 11.2239 18.2813 10.8209H18.2803C18.2483 6.70588 15.5623 4.31987 12.2223 4.29688Z" fill="#7360F2"/>
<path d="M16.1509 10.193C16.1419 10.591 16.731 10.61 16.736 10.207C16.785 7.93797 15.3859 6.06898 12.7569 5.87198C12.3719 5.84398 12.3319 6.44898 12.7159 6.47698C14.9959 6.64998 16.1969 8.20597 16.1509 10.193Z" fill="#7360F2"/>
<path d="M15.521 12.774C15.027 12.488 14.524 12.666 14.316 12.947L13.881 13.51C13.66 13.796 13.247 13.758 13.247 13.758C10.233 12.961 9.42697 9.80698 9.42697 9.80698C9.42697 9.80698 9.38997 9.37998 9.66597 9.15098L10.21 8.70098C10.482 8.48498 10.654 7.96498 10.377 7.45398C9.63697 6.11698 9.13997 5.65598 8.88697 5.30198C8.62097 4.96898 8.22097 4.89398 7.80497 5.11898H7.79597C6.93097 5.62498 5.98397 6.57198 6.28697 7.54698C6.80397 8.57498 7.75397 11.852 10.782 14.328C12.205 15.499 14.457 16.699 15.413 16.976L15.422 16.99C16.364 17.304 17.28 16.32 17.769 15.429V15.422C17.986 14.991 17.914 14.583 17.597 14.316C17.035 13.768 16.187 13.163 15.521 12.774Z" fill="#7360F2"/>
<path d="M13.1693 8.10418C14.1303 8.16018 14.5963 8.66218 14.6463 9.69318C14.6643 10.0962 15.2493 10.0682 15.2313 9.66518C15.1673 8.31918 14.4653 7.56917 13.2013 7.49917C12.8163 7.47617 12.7803 8.08118 13.1693 8.10418Z" fill="#7360F2"/>
</g>
<defs>
<clipPath id="clip0_6842_32766">
<rect width="24" height="24" fill="white"/>
</clipPath>
</defs>
</svg>
