<svg width="16" height="16" viewBox="0 0 16 16" fill="none" xmlns="http://www.w3.org/2000/svg">
<g clip-path="url(#clip0_481_3506)">
<path d="M10.6666 5.3332V8.66654C10.6666 9.19697 10.8773 9.70568 11.2524 10.0808C11.6275 10.4558 12.1362 10.6665 12.6666 10.6665C13.197 10.6665 13.7057 10.4558 14.0808 10.0808C14.4559 9.70568 14.6666 9.19697 14.6666 8.66654V7.99987C14.6665 6.49522 14.1574 5.03486 13.2221 3.85622C12.2868 2.67759 10.9803 1.85002 9.51502 1.50807C8.04974 1.16612 6.51188 1.3299 5.15149 1.97278C3.7911 2.61567 2.68819 3.69984 2.0221 5.04902C1.356 6.3982 1.1659 7.93303 1.4827 9.40395C1.7995 10.8749 2.60458 12.1954 3.76701 13.1507C4.92945 14.1061 6.38088 14.6401 7.8853 14.666C9.38973 14.6918 10.8587 14.208 12.0533 13.2932M10.6666 7.99987C10.6666 9.47263 9.47269 10.6665 7.99993 10.6665C6.52717 10.6665 5.33326 9.47263 5.33326 7.99987C5.33326 6.52711 6.52717 5.3332 7.99993 5.3332C9.47269 5.3332 10.6666 6.52711 10.6666 7.99987Z" stroke="#1C1C1C" stroke-width="1.25" stroke-linecap="round" stroke-linejoin="round"/>
</g>
<defs>
<clipPath id="clip0_481_3506">
<rect width="16" height="16" fill="white"/>
</clipPath>
</defs>
</svg>
