<svg width="24" height="24" viewBox="0 0 24 24" fill="none" xmlns="http://www.w3.org/2000/svg">
<path d="M10.924 5.69859C10.8207 5.27126 10.8217 5.20246 10.933 5.07279C11.0144 4.97807 11.2954 4.97588 11.8307 5.0657C13.1327 5.28426 14.4401 6.01376 15.6173 7.17865C16.0033 7.56065 16.0757 7.61391 16.2715 7.66017C16.9381 7.81766 17.9565 8.26444 18.6233 8.6919C19.3508 9.15827 20.1633 9.85518 20.7284 10.4975C21.3801 11.2383 22 12.1279 22 12.3225C22 12.5333 21.1629 13.6677 20.4785 14.3844C19.6547 15.2471 18.7931 15.8896 17.8061 16.3771C17.3099 16.6222 16.3242 16.9863 16.1569 16.9863C16.1217 16.9863 15.9357 17.1297 15.7435 17.3049C14.8159 18.1507 13.6583 18.7196 12.4417 18.9276C11.7908 19.0389 11.5165 19.039 11.4055 18.928C11.3002 18.8227 11.2998 18.7349 11.4031 18.3838C11.5048 18.0379 11.6038 17.4883 11.6397 17.0698L11.6668 16.7523L11.3568 16.6558C9.78984 16.1682 7.78714 15.1041 5.87831 13.745C5.80964 13.6961 5.78191 13.718 5.61163 13.956C4.91484 14.9299 3.79039 15.6069 2.60857 15.7642C2.02575 15.8417 1.94458 15.7416 2.02731 15.0466C2.08911 14.5277 2.27694 13.7663 2.54463 12.9501L2.75728 12.3015L2.56603 11.7421C2.14676 10.5155 1.89997 9.21862 2.03917 8.97373C2.1016 8.8639 2.11262 8.86124 2.48064 8.86808C3.09643 8.87952 3.81491 9.12885 4.48317 9.56297C4.80751 9.77368 5.46711 10.4235 5.64502 10.7076C5.71408 10.8179 5.78364 10.9081 5.79964 10.9081C5.81563 10.9082 6.04356 10.7585 6.30615 10.5756C7.73265 9.58188 9.27844 8.74335 10.6774 8.20438L11.1522 8.0214V7.52464C11.1522 6.95735 11.0708 6.30581 10.924 5.69859Z" stroke="#1C1C1C" stroke-width="1.25" stroke-linejoin="round"/>
</svg>
