<svg width="24" height="24" viewBox="0 0 24 24" fill="none" xmlns="http://www.w3.org/2000/svg">
<path d="M1.00012 4.00008V10.0001M1.00012 10.0001H7.00012M1.00012 10.0001L5.64012 5.64008C6.71487 4.56479 8.0445 3.77928 9.50493 3.35685C10.9654 2.93442 12.509 2.88883 13.9918 3.22433C15.4747 3.55984 16.8483 4.26551 17.9847 5.27549C19.121 6.28548 19.983 7.56686 20.4901 9.00008M23.0001 20.0001V14.0001M23.0001 14.0001H17.0001M23.0001 14.0001L18.3601 18.3601C17.2854 19.4354 15.9557 20.2209 14.4953 20.6433C13.0349 21.0657 11.4912 21.1113 10.0084 20.7758C8.52559 20.4403 7.15192 19.7346 6.01559 18.7247C4.87926 17.7147 4.01729 16.4333 3.51012 15.0001" stroke="#1C1C1C" stroke-width="1.25" stroke-linecap="round" stroke-linejoin="round"/>
</svg>
