<svg width="24" height="24" viewBox="0 0 24 24" fill="none" xmlns="http://www.w3.org/2000/svg">
<path d="M1 6.00001V10M1 10H5M1 10L5.64 5.64001C7.02091 4.26143 8.81245 3.36898 10.7447 3.09713C12.6769 2.82527 14.6451 3.18874 16.3528 4.13277C18.0605 5.0768 19.4152 6.55025 20.2126 8.33111C21.0101 10.112 21.2072 12.1038 20.7742 14.0064C20.3413 15.909 19.3017 17.6194 17.8121 18.8798C16.3226 20.1402 14.4637 20.8824 12.5157 20.9945C10.5677 21.1066 8.63598 20.5826 7.01166 19.5014C5.38734 18.4202 4.15839 16.8404 3.51 15" stroke="#999999" stroke-width="1.25" stroke-linecap="round" stroke-linejoin="round"/>
<path d="M12 7.50699V12.507L15 13.507" stroke="#999999" stroke-width="1.25" stroke-linecap="round" stroke-linejoin="round"/>
</svg>
