<svg width="24" height="24" viewBox="0 0 24 24" fill="none" xmlns="http://www.w3.org/2000/svg">
<path d="M18.9999 9.99994V11.9999C18.9999 13.8565 18.2624 15.6369 16.9496 16.9497C15.6369 18.2624 13.8564 18.9999 11.9999 18.9999M11.9999 18.9999C10.1434 18.9999 8.36288 18.2624 7.05013 16.9497C5.73738 15.6369 4.99988 13.8565 4.99988 11.9999V9.99994M11.9999 18.9999V22.9999M7.99988 22.9999H15.9999M11.9999 0.999939C11.2042 0.999939 10.4412 1.31601 9.87856 1.87862C9.31595 2.44123 8.99988 3.20429 8.99988 3.99994V11.9999C8.99988 12.7956 9.31595 13.5587 9.87856 14.1213C10.4412 14.6839 11.2042 14.9999 11.9999 14.9999C12.7955 14.9999 13.5586 14.6839 14.1212 14.1213C14.6838 13.5587 14.9999 12.7956 14.9999 11.9999V3.99994C14.9999 3.20429 14.6838 2.44123 14.1212 1.87862C13.5586 1.31601 12.7955 0.999939 11.9999 0.999939Z" stroke="#1C1C1C" stroke-width="1.25" stroke-linecap="round" stroke-linejoin="round"/>
</svg>
