<svg width="24" height="24" viewBox="0 0 24 24" fill="none" xmlns="http://www.w3.org/2000/svg">
<path d="M12 12.5625C12.3107 12.5625 12.5625 12.3107 12.5625 12C12.5625 11.6893 12.3107 11.4375 12 11.4375C11.6893 11.4375 11.4375 11.6893 11.4375 12C11.4375 12.3107 11.6893 12.5625 12 12.5625Z" fill="#1C1C1C"/>
<path d="M19 12.5625C19.3107 12.5625 19.5625 12.3107 19.5625 12C19.5625 11.6893 19.3107 11.4375 19 11.4375C18.6893 11.4375 18.4375 11.6893 18.4375 12C18.4375 12.3107 18.6893 12.5625 19 12.5625Z" fill="#1C1C1C"/>
<path d="M5 12.5625C5.31066 12.5625 5.5625 12.3107 5.5625 12C5.5625 11.6893 5.31066 11.4375 5 11.4375C4.68934 11.4375 4.4375 11.6893 4.4375 12C4.4375 12.3107 4.68934 12.5625 5 12.5625Z" fill="#1C1C1C"/>
<path d="M12 12.5625C12.3107 12.5625 12.5625 12.3107 12.5625 12C12.5625 11.6893 12.3107 11.4375 12 11.4375C11.6893 11.4375 11.4375 11.6893 11.4375 12C11.4375 12.3107 11.6893 12.5625 12 12.5625Z" stroke="#1C1C1C" stroke-width="1.25" stroke-linecap="round" stroke-linejoin="round"/>
<path d="M19 12.5625C19.3107 12.5625 19.5625 12.3107 19.5625 12C19.5625 11.6893 19.3107 11.4375 19 11.4375C18.6893 11.4375 18.4375 11.6893 18.4375 12C18.4375 12.3107 18.6893 12.5625 19 12.5625Z" stroke="#1C1C1C" stroke-width="1.25" stroke-linecap="round" stroke-linejoin="round"/>
<path d="M5 12.5625C5.31066 12.5625 5.5625 12.3107 5.5625 12C5.5625 11.6893 5.31066 11.4375 5 11.4375C4.68934 11.4375 4.4375 11.6893 4.4375 12C4.4375 12.3107 4.68934 12.5625 5 12.5625Z" stroke="#1C1C1C" stroke-width="1.25" stroke-linecap="round" stroke-linejoin="round"/>
</svg>
