<svg width="32" height="32" viewBox="0 0 32 32" fill="none" xmlns="http://www.w3.org/2000/svg">
<path d="M13.7388 22.6277V14.461C13.7388 14.118 13.4607 13.84 13.1177 13.84C12.7748 13.84 12.4967 14.118 12.4967 14.461V22.6277C12.4967 22.9707 12.7748 23.2488 13.1177 23.2488C13.4607 23.2488 13.7388 22.9707 13.7388 22.6277Z" fill="#999999"/>
<path d="M8.34194 22.6277V14.461C8.34194 14.118 8.06389 13.84 7.72089 13.84C7.3779 13.84 7.09985 14.118 7.09985 14.461V22.6277C7.09985 22.9707 7.3779 23.2488 7.72089 23.2488C8.06389 23.2488 8.34194 22.9707 8.34194 22.6277Z" fill="#999999"/>
<path d="M19.1419 22.6277V14.461C19.1419 14.118 18.8638 13.84 18.5208 13.84C18.1778 13.84 17.8998 14.118 17.8998 14.461V22.6277C17.8998 22.9707 18.1778 23.2488 18.5208 23.2488C18.8638 23.2488 19.1419 22.9707 19.1419 22.6277Z" fill="#999999"/>
<path d="M24.5387 22.6277V14.461C24.5387 14.118 24.2607 13.84 23.9177 13.84C23.5747 13.84 23.2966 14.118 23.2966 14.461V22.6277C23.2966 22.9707 23.5747 23.2488 23.9177 23.2488C24.2607 23.2488 24.5387 22.9707 24.5387 22.6277Z" fill="#999999"/>
<path d="M25.1597 24.7579H6.45393C6.11094 24.7579 5.83289 25.036 5.83289 25.379C5.83289 25.722 6.11094 26 6.45393 26H25.1597C25.5027 26 25.7807 25.722 25.7807 25.379C25.7807 25.036 25.5027 24.7579 25.1597 24.7579Z" fill="#999999"/>
<path d="M26.4018 12.3868L16.1546 6.0832C15.9625 5.97227 15.7257 5.97227 15.5336 6.0832L5.23671 12.3806C4.99327 12.5724 4.92852 12.9143 5.08498 13.1819C5.24144 13.4494 5.57121 13.5607 5.85775 13.4425L15.8317 7.34392L25.7683 13.4239C25.9588 13.574 26.2191 13.5995 26.4351 13.4893C26.651 13.379 26.7831 13.1532 26.7732 12.911C26.7634 12.6687 26.6135 12.4543 26.3894 12.3619L26.4018 12.3868Z" fill="#999999"/>
</svg>
