<svg width="24" height="24" viewBox="0 0 24 24" fill="none" xmlns="http://www.w3.org/2000/svg">
<path d="M7.99988 15.0001C7.99988 15.0001 9.49988 17.0001 11.9999 17.0001C14.4999 17.0001 15.9999 15.0001 15.9999 15.0001M8.99988 11.0001H9.00988M14.9999 11.0001H15.0099M21.9999 12.0001C21.9999 17.5229 17.5227 22.0001 11.9999 22.0001C6.47703 22.0001 1.99988 17.5229 1.99988 12.0001C1.99988 6.47721 6.47703 2.00006 11.9999 2.00006C17.5227 2.00006 21.9999 6.47721 21.9999 12.0001Z" stroke="#1C1C1C" stroke-width="1.25" stroke-linecap="round" stroke-linejoin="round"/>
<path d="M6 5.07031C6 5.07031 7.96653 6.61394 10.3813 5.96689C12.7962 5.31984 13.7274 2.99976 13.7274 2.99976" stroke="#1C1C1C" stroke-width="1.25" stroke-linecap="round" stroke-linejoin="round"/>
<path d="M13.7307 3.00001C13.7307 3.00001 14.662 5.32009 17.0768 5.96714C18.1269 6.24851 19.0922 6.11564 19.8479 5.87559" stroke="#1C1C1C" stroke-width="1.25" stroke-linecap="round" stroke-linejoin="round"/>
</svg>
