<svg width="48" height="48" viewBox="0 0 48 48" fill="none" xmlns="http://www.w3.org/2000/svg">
<path d="M44 14.6234V19.9961M44 19.9961L38.6262 19.9961M44 19.9961L34.7381 11.2761C31.9788 8.5156 28.3968 6.72649 24.532 6.17841C20.6672 5.63032 16.7288 6.35295 13.3105 8.2374C9.89221 10.1218 7.17908 13.066 5.57999 16.6262C3.9809 20.1865 3.58248 24.1699 4.44477 27.9762C5.30706 31.7825 7.38334 35.2055 10.3607 37.7294C13.3381 40.2533 17.0553 41.7413 20.9522 41.9693C24.8491 42.1972 28.7144 41.1527 31.9659 38.9931C35.2173 36.8335 37.6787 33.6759 38.979 29.9961" stroke="#FF3636" stroke-width="1.25" stroke-linecap="round" stroke-linejoin="round"/>
<path d="M27.1814 24.0001L27.8063 24.0131C27.8064 24.0044 27.8064 23.9958 27.8063 23.9871L27.1814 24.0001ZM17.4594 24.0001L16.8346 23.9871C16.8344 23.9958 16.8344 24.0044 16.8346 24.0131L17.4594 24.0001ZM33.8479 24.0001C33.8479 30.3651 28.687 35.5251 22.3204 35.5251V36.7751C29.3771 36.7751 35.0979 31.0557 35.0979 24.0001H33.8479ZM22.3204 35.5251C15.9539 35.5251 10.793 30.3651 10.793 24.0001H9.54297C9.54297 31.0557 15.2637 36.7751 22.3204 36.7751V35.5251ZM10.793 24.0001C10.793 17.6351 15.9539 12.4751 22.3204 12.4751V11.2251C15.2637 11.2251 9.54297 16.9445 9.54297 24.0001H10.793ZM22.3204 12.4751C28.687 12.4751 33.8479 17.6351 33.8479 24.0001H35.0979C35.0979 16.9445 29.3771 11.2251 22.3204 11.2251V12.4751ZM10.168 24.6251H34.4729V23.3751H10.168V24.6251ZM21.859 12.2717C24.7965 15.4869 26.4658 19.6594 26.5565 24.0131L27.8063 23.9871C27.7092 19.3304 25.9237 14.8675 22.7818 11.4285L21.859 12.2717ZM26.5565 23.9871C26.4658 28.3407 24.7965 32.5133 21.859 35.7285L22.7818 36.5717C25.9237 33.1327 27.7092 28.6698 27.8063 24.0131L26.5565 23.9871ZM22.7818 35.7285C19.8444 32.5133 18.175 28.3407 18.0843 23.9871L16.8346 24.0131C16.9316 28.6698 18.7171 33.1327 21.859 36.5717L22.7818 35.7285ZM18.0843 24.0131C18.175 19.6594 19.8444 15.4869 22.7818 12.2717L21.859 11.4285C18.7171 14.8675 16.9316 19.3304 16.8346 23.9871L18.0843 24.0131Z" fill="white"/>
</svg>
