<svg width="48" height="48" viewBox="0 0 48 48" fill="none" xmlns="http://www.w3.org/2000/svg">
<path d="M24.0001 29.9999C27.3138 29.9999 30.0001 27.3136 30.0001 23.9999C30.0001 20.6862 27.3138 17.9999 24.0001 17.9999C20.6864 17.9999 18.0001 20.6862 18.0001 23.9999C18.0001 27.3136 20.6864 29.9999 24.0001 29.9999Z" stroke="#1C1C1C" stroke-width="2" stroke-linecap="round" stroke-linejoin="round"/>
<path d="M38.8001 29.9999C38.5339 30.6031 38.4545 31.2723 38.5721 31.9211C38.6898 32.5698 38.999 33.1685 39.4601 33.6399L39.5801 33.7599C39.952 34.1314 40.2471 34.5725 40.4484 35.0581C40.6497 35.5437 40.7533 36.0642 40.7533 36.5899C40.7533 37.1155 40.6497 37.636 40.4484 38.1216C40.2471 38.6072 39.952 39.0484 39.5801 39.4199C39.2086 39.7918 38.7675 40.0868 38.2819 40.2881C37.7963 40.4894 37.2758 40.593 36.7501 40.593C36.2245 40.593 35.704 40.4894 35.2184 40.2881C34.7328 40.0868 34.2916 39.7918 33.9201 39.4199L33.8001 39.2999C33.3288 38.8388 32.7301 38.5295 32.0813 38.4119C31.4325 38.2942 30.7634 38.3736 30.1601 38.6399C29.5686 38.8934 29.0641 39.3144 28.7087 39.8509C28.3534 40.3875 28.1627 41.0163 28.1601 41.6599V41.9999C28.1601 43.0607 27.7387 44.0782 26.9885 44.8283C26.2384 45.5785 25.221 45.9999 24.1601 45.9999C23.0993 45.9999 22.0818 45.5785 21.3317 44.8283C20.5816 44.0782 20.1601 43.0607 20.1601 41.9999V41.8199C20.1446 41.1579 19.9304 40.5159 19.5451 39.9773C19.1599 39.4387 18.6216 39.0284 18.0001 38.7999C17.3969 38.5336 16.7277 38.4542 16.0789 38.5719C15.4302 38.6895 14.8315 38.9988 14.3601 39.4599L14.2401 39.5799C13.8686 39.9518 13.4275 40.2468 12.9419 40.4481C12.4563 40.6494 11.9358 40.753 11.4101 40.753C10.8845 40.753 10.364 40.6494 9.87836 40.4481C9.39277 40.2468 8.95161 39.9518 8.58012 39.5799C8.20822 39.2084 7.91318 38.7672 7.71188 38.2816C7.51059 37.796 7.40698 37.2755 7.40698 36.7499C7.40698 36.2242 7.51059 35.7037 7.71188 35.2181C7.91318 34.7325 8.20822 34.2914 8.58012 33.9199L8.70012 33.7999C9.1612 33.3285 9.47049 32.7298 9.58813 32.0811C9.70577 31.4323 9.62635 30.7631 9.36012 30.1599C9.1066 29.5683 8.68563 29.0638 8.14905 28.7085C7.61247 28.3531 6.9837 28.1624 6.34012 28.1599H6.00012C4.93926 28.1599 3.92184 27.7384 3.1717 26.9883C2.42155 26.2382 2.00012 25.2207 2.00012 24.1599C2.00012 23.099 2.42155 22.0816 3.1717 21.3315C3.92184 20.5813 4.93926 20.1599 6.00012 20.1599H6.18012C6.84211 20.1444 7.48413 19.9301 8.02272 19.5449C8.56131 19.1597 8.97155 18.6213 9.20012 17.9999C9.46635 17.3966 9.54577 16.7275 9.42813 16.0787C9.31049 15.4299 9.0012 14.8312 8.54012 14.3599L8.42012 14.2399C8.04822 13.8684 7.75318 13.4272 7.55188 12.9416C7.35059 12.456 7.24698 11.9355 7.24698 11.4099C7.24698 10.8842 7.35059 10.3637 7.55188 9.87812C7.75318 9.39252 8.04822 8.95137 8.42012 8.57988C8.79161 8.20797 9.23277 7.91294 9.71836 7.71164C10.204 7.51034 10.7245 7.40673 11.2501 7.40673C11.7758 7.40673 12.2963 7.51034 12.7819 7.71164C13.2675 7.91294 13.7086 8.20797 14.0801 8.57988L14.2001 8.69988C14.6715 9.16095 15.2702 9.47025 15.9189 9.58789C16.5677 9.70552 17.2369 9.62611 17.8401 9.35988H18.0001C18.5917 9.10635 19.0962 8.68539 19.4515 8.14881C19.8069 7.61223 19.9976 6.98345 20.0001 6.33988V5.99988C20.0001 4.93901 20.4216 3.9216 21.1717 3.17145C21.9218 2.42131 22.9393 1.99988 24.0001 1.99988C25.061 1.99988 26.0784 2.42131 26.8285 3.17145C27.5787 3.9216 28.0001 4.93901 28.0001 5.99988V6.17988C28.0027 6.82345 28.1934 7.45223 28.5487 7.98881C28.9041 8.52539 29.4086 8.94635 30.0001 9.19988C30.6034 9.46611 31.2725 9.54553 31.9213 9.42789C32.5701 9.31025 33.1688 9.00095 33.6401 8.53988L33.7601 8.41988C34.1316 8.04797 34.5728 7.75294 35.0584 7.55164C35.544 7.35034 36.0645 7.24673 36.5901 7.24673C37.1158 7.24673 37.6363 7.35034 38.1219 7.55164C38.6075 7.75294 39.0486 8.04797 39.4201 8.41988C39.792 8.79137 40.0871 9.23252 40.2884 9.71812C40.4897 10.2037 40.5933 10.7242 40.5933 11.2499C40.5933 11.7755 40.4897 12.296 40.2884 12.7816C40.0871 13.2672 39.792 13.7084 39.4201 14.0799L39.3001 14.1999C38.839 14.6712 38.5298 15.2699 38.4121 15.9187C38.2945 16.5675 38.3739 17.2366 38.6401 17.8399V17.9999C38.8936 18.5914 39.3146 19.0959 39.8512 19.4513C40.3878 19.8066 41.0166 19.9973 41.6601 19.9999H42.0001C43.061 19.9999 44.0784 20.4213 44.8285 21.1715C45.5787 21.9216 46.0001 22.939 46.0001 23.9999C46.0001 25.0607 45.5787 26.0782 44.8285 26.8283C44.0784 27.5784 43.061 27.9999 42.0001 27.9999H41.8201C41.1765 28.0024 40.5478 28.1931 40.0112 28.5485C39.4746 28.9038 39.0536 29.4083 38.8001 29.9999Z" stroke="#1C1C1C" stroke-width="2" stroke-linecap="round" stroke-linejoin="round"/>
</svg>
