<svg width="20" height="20" viewBox="0 0 20 20" fill="none" xmlns="http://www.w3.org/2000/svg">
<path d="M14.7619 0.83313H5.23814C4.18616 0.83313 3.33337 1.65394 3.33337 2.66646V17.3331C3.33337 18.3457 4.18616 19.1665 5.23814 19.1665H14.7619C15.8139 19.1665 16.6667 18.3457 16.6667 17.3331V2.66646C16.6667 1.65394 15.8139 0.83313 14.7619 0.83313Z" stroke="#1C1C1C" stroke-width="1.25" stroke-linecap="round" stroke-linejoin="round"/>
<g clip-path="url(#clip0_13573_30753)">
<path d="M13.4724 10.0005C13.4724 11.9182 11.9178 13.4728 10.0002 13.4728M13.4724 10.0005C13.4724 8.08289 11.9178 6.52832 10.0002 6.52832M13.4724 10.0005H6.52795M10.0002 13.4728C8.08252 13.4728 6.52795 11.9182 6.52795 10.0005M10.0002 13.4728C10.8687 12.5219 11.3622 11.288 11.3891 10.0005C11.3622 8.71305 10.8687 7.47914 10.0002 6.52832M10.0002 13.4728C9.13168 12.5219 8.63811 11.288 8.61129 10.0005C8.63811 8.71305 9.13168 7.47914 10.0002 6.52832M6.52795 10.0005C6.52795 8.08289 8.08252 6.52832 10.0002 6.52832" stroke="#1C1C1C" stroke-width="1.25" stroke-linecap="round" stroke-linejoin="round"/>
</g>
<defs>
<clipPath id="clip0_13573_30753">
<rect width="8.33333" height="8.33333" fill="white" transform="translate(5.83337 5.83331)"/>
</clipPath>
</defs>
</svg>
