<svg width="24" height="24" viewBox="0 0 24 24" fill="none" xmlns="http://www.w3.org/2000/svg">
<g clip-path="url(#clip0_71343_20390)">
<path opacity="0.2" d="M4.41406 20.6733C5.35664 20.1078 5.54165 17.7671 5.51632 16.6674C5.85584 16.9815 7.14754 17.7042 9.59825 18.0813C5.82794 21.4745 4.57117 21.2232 4.41406 20.6733Z" fill="#2B2A29" fill-opacity="0.13"/>
<path opacity="0.45" d="M14.3109 3H9.59805C5.95405 3 3 5.93911 3 9.5647V11.4403C3 13.5325 3.98374 15.3961 5.51612 16.5983C5.54145 17.6924 5.35644 20.0213 4.41386 20.584C4.57097 21.131 5.82774 21.3811 9.59805 18.005H14.3109C17.9549 18.005 20.909 15.0659 20.909 11.4403V9.5647C20.909 5.93911 17.9549 3 14.3109 3Z" fill="url(#paint0_radial_71343_20390)"/>
<path opacity="0.3" d="M6.46207 19.9824C5.54198 20.6253 4.98208 20.7922 4.67773 20.3566C4.94844 20.6699 5.22059 17.2901 6.37778 18.0289C6.22096 18.2593 7.3475 17.5785 7.65185 18.0141C7.95619 18.4497 7.38215 19.3396 6.46207 19.9824Z" fill="url(#paint1_radial_71343_20390)"/>
<path d="M14.3109 3H9.59805C5.95405 3 3 5.93928 3 9.56506V11.4408C3 13.5331 3.98374 15.3968 5.51612 16.599C5.54145 17.6933 5.35644 20.0223 4.41386 20.585C4.57097 21.1321 5.82774 21.3822 9.59805 18.0059H14.3109C17.9549 18.0059 20.909 15.0666 20.909 11.4408V9.56506C20.909 5.93928 17.9549 3 14.3109 3Z" fill="#F6F6F7" fill-opacity="0.6"/>
<path d="M8.89053 11.4832C9.28096 11.4832 9.59746 11.1667 9.59746 10.7763C9.59746 10.3858 9.28096 10.0693 8.89053 10.0693C8.5001 10.0693 8.18359 10.3858 8.18359 10.7763C8.18359 11.1667 8.5001 11.4832 8.89053 11.4832Z" fill="#3D3D45"/>
<path d="M12.1894 11.4832C12.5798 11.4832 12.8963 11.1667 12.8963 10.7763C12.8963 10.3858 12.5798 10.0693 12.1894 10.0693C11.7989 10.0693 11.4824 10.3858 11.4824 10.7763C11.4824 11.1667 11.7989 11.4832 12.1894 11.4832Z" fill="#3D3D45"/>
<path d="M15.4901 11.4832C15.8806 11.4832 16.1971 11.1667 16.1971 10.7763C16.1971 10.3858 15.8806 10.0693 15.4901 10.0693C15.0997 10.0693 14.7832 10.3858 14.7832 10.7763C14.7832 11.1667 15.0997 11.4832 15.4901 11.4832Z" fill="#3D3D45"/>
</g>
<defs>
<radialGradient id="paint0_radial_71343_20390" cx="0" cy="0" r="1" gradientUnits="userSpaceOnUse" gradientTransform="translate(11.9545 10.5025) rotate(-0.0150523) scale(9.5455 8.04826)">
<stop stop-color="white"/>
<stop offset="0.619792" stop-color="white" stop-opacity="0.36"/>
<stop offset="0.692708" stop-color="#252525" stop-opacity="0.14"/>
<stop offset="0.755208" stop-color="#212121" stop-opacity="0.4"/>
<stop offset="0.838542" stop-color="#1C1C1C" stop-opacity="0.63"/>
<stop offset="1"/>
</radialGradient>
<radialGradient id="paint1_radial_71343_20390" cx="0" cy="0" r="1" gradientUnits="userSpaceOnUse" gradientTransform="translate(5.98593 19.1778) rotate(149.004) scale(1.48343 0.86148)">
<stop stop-color="white"/>
<stop offset="1" stop-color="white" stop-opacity="0.04"/>
</radialGradient>
<clipPath id="clip0_71343_20390">
<rect width="18" height="18" fill="white" transform="translate(3 3)"/>
</clipPath>
</defs>
</svg>
