<svg width="24" height="24" viewBox="0 0 24 24" fill="none" xmlns="http://www.w3.org/2000/svg">
<path d="M10.3965 22.3077C2.63248 22.3077 5.45916 22.3077 5.45916 22.3077C5.07217 22.3077 4.70102 22.1151 4.42738 21.7723C4.15373 21.4296 4 20.9647 4 20.4799V3.82778C4 3.34303 4.15373 2.87812 4.42738 2.53535C4.70102 2.19257 5.07217 2 5.45916 2H18.2331C18.6201 2 18.9913 2.19257 19.2649 2.53535C19.5386 2.87812 19.6923 3.34303 19.6923 3.82778V8.88473" stroke="#1C1C1C" stroke-width="1.25" stroke-linecap="round" stroke-linejoin="round"/>
<path d="M19.5 12.5L12.5 19.5M14.5 13.25C14.5 13.9404 13.9404 14.5 13.25 14.5C12.5596 14.5 12 13.9404 12 13.25C12 12.5596 12.5596 12 13.25 12C13.9404 12 14.5 12.5596 14.5 13.25ZM20 18.75C20 19.4404 19.4404 20 18.75 20C18.0596 20 17.5 19.4404 17.5 18.75C17.5 18.0596 18.0596 17.5 18.75 17.5C19.4404 17.5 20 18.0596 20 18.75Z" stroke="#1C1C1C" stroke-width="1.25" stroke-linecap="round" stroke-linejoin="round"/>
</svg>
