<svg width="32" height="32" viewBox="0 0 32 32" fill="none" xmlns="http://www.w3.org/2000/svg">
<path fill-rule="evenodd" clip-rule="evenodd" d="M11.3825 27.4035H20.1348C21.1796 27.4036 22.0305 26.4992 22.0444 25.3738V6.32466C22.0444 5.18853 21.1895 4.26752 20.1348 4.26752H11.3825C10.3279 4.26752 9.4729 5.18853 9.4729 6.32466V25.3464C9.4729 26.4825 10.3279 27.4035 11.3825 27.4035ZM10.7458 6.32472C10.7458 5.94601 11.0308 5.639 11.3823 5.639H20.1346C20.4862 5.639 20.7712 5.94601 20.7712 6.32472V25.3739C20.7712 25.7526 20.4862 26.0596 20.1346 26.0596H11.3823C11.0308 26.0596 10.7458 25.7526 10.7458 25.3739V6.32472Z" fill="#1C1C1C"/>
<path d="M16.6976 24.4754H14.8326C14.481 24.4754 14.196 24.1684 14.196 23.7897C14.196 23.411 14.481 23.104 14.8326 23.104H16.6976C17.0492 23.104 17.3342 23.411 17.3342 23.7897C17.3342 24.1684 17.0492 24.4754 16.6976 24.4754Z" fill="#1C1C1C"/>
<path d="M18.0025 7.49051H13.515C13.1634 7.49051 12.8784 7.1835 12.8784 6.80479C12.8784 6.42608 13.1634 6.11908 13.515 6.11908H18.0025C18.3541 6.11908 18.639 6.42608 18.639 6.80479C18.639 7.1835 18.3541 7.49051 18.0025 7.49051Z" fill="#1C1C1C"/>
</svg>
