<svg width="40" height="40" viewBox="0 0 40 40" fill="none" xmlns="http://www.w3.org/2000/svg">
<rect width="40" height="40" rx="20" fill="#FFAB90"/>
<path d="M16 26.5L13 29.5M26.8333 29.5L23.8333 26.5M13.2 10.5C12.2611 10.5 11.5 11.4551 11.5 12.6333V24.3667C11.5 25.5449 12.2611 26.5 13.2 26.5H26.8C27.7389 26.5 28.5 25.5449 28.5 24.3667V12.6333C28.5 11.4551 27.7389 10.5 26.8 10.5H20H13.2ZM14.5 18H18C18.5523 18 19 17.5523 19 17V14.5C19 13.9477 18.5523 13.5 18 13.5H14.5C13.9477 13.5 13.5 13.9477 13.5 14.5V17C13.5 17.5523 13.9477 18 14.5 18ZM22 18H25.5C26.0523 18 26.5 17.5523 26.5 17V14.5C26.5 13.9477 26.0523 13.5 25.5 13.5H22C21.4477 13.5 21 13.9477 21 14.5V17C21 17.5523 21.4477 18 22 18ZM17.25 23C17.25 23.8284 16.5784 24.5 15.75 24.5C14.9216 24.5 14.25 23.8284 14.25 23C14.25 22.1716 14.9216 21.5 15.75 21.5C16.5784 21.5 17.25 22.1716 17.25 23ZM25.75 23C25.75 23.8284 25.0784 24.5 24.25 24.5C23.4216 24.5 22.75 23.8284 22.75 23C22.75 22.1716 23.4216 21.5 24.25 21.5C25.0784 21.5 25.75 22.1716 25.75 23Z" stroke="white" stroke-width="1.25" stroke-linecap="round" stroke-linejoin="round"/>
</svg>
