<svg width="24" height="24" viewBox="0 0 24 24" fill="none" xmlns="http://www.w3.org/2000/svg">
<path d="M12.0001 6.00003H12.0101M6.00006 2.00003H18.0001C19.1046 2.00003 20.0001 2.89546 20.0001 4.00003V20C20.0001 21.1046 19.1046 22 18.0001 22H6.00006C4.89549 22 4.00006 21.1046 4.00006 20V4.00003C4.00006 2.89546 4.89549 2.00003 6.00006 2.00003ZM16.0001 14C16.0001 16.2092 14.2092 18 12.0001 18C9.79092 18 8.00006 16.2092 8.00006 14C8.00006 11.7909 9.79092 10 12.0001 10C14.2092 10 16.0001 11.7909 16.0001 14Z" stroke="#1C1C1C" stroke-width="1.25" stroke-linecap="round" stroke-linejoin="round"/>
</svg>
