<svg width="40" height="40" viewBox="0 0 40 40" fill="none" xmlns="http://www.w3.org/2000/svg">
<rect width="40" height="40" rx="20" fill="#80CBC3"/>
<path d="M28.8399 20.3899C29.3509 19.8791 29.7563 19.2727 30.0328 18.6052C30.3094 17.9378 30.4517 17.2224 30.4517 16.4999C30.4517 15.7774 30.3094 15.062 30.0328 14.3945C29.7563 13.7271 29.3509 13.1206 28.8399 12.6099C28.3292 12.0989 27.7227 11.6935 27.0553 11.417C26.3878 11.1404 25.6724 10.998 24.9499 10.998C24.2274 10.998 23.512 11.1404 22.8446 11.417C22.1771 11.6935 21.5707 12.0989 21.0599 12.6099L19.9999 13.6699L18.9399 12.6099C17.9082 11.5782 16.509 10.9986 15.0499 10.9986C13.5909 10.9986 12.1916 11.5782 11.1599 12.6099C10.1282 13.6416 9.54863 15.0408 9.54863 16.4999C9.54863 17.9589 10.1282 19.3582 11.1599 20.3899L12.2199 21.4499L19.9999 29.2299L23.8899 25.3399L25.8349 23.3949L26.8074 22.4224M14 21.1923H15L16.4048 17.7343C16.4389 17.6503 16.5582 17.6514 16.5908 17.7361L18.9176 23.7858C18.9489 23.8673 19.0624 23.8723 19.1008 23.7938L21.3892 19.1113C21.429 19.0299 21.5478 19.0391 21.5746 19.1256L22.4782 22.045C22.4911 22.0868 22.5299 22.1154 22.5737 22.1154H31" stroke="white" stroke-width="1.25" stroke-linecap="round" stroke-linejoin="round"/>
</svg>
