<svg width="24" height="24" viewBox="0 0 24 24" fill="none" xmlns="http://www.w3.org/2000/svg">
<path d="M17.5 21C16.5717 21 15.6815 20.6312 15.0251 19.9748C14.3687 19.3185 14 18.4282 14 17.5C14 16.5717 14.3687 15.6815 15.0251 15.0251C15.6815 14.3687 16.5717 14 17.5 14C18.4282 14 19.3185 14.3687 19.9748 15.0251C20.6312 15.6815 21 16.5717 21 17.5C21 18.4282 20.6312 19.3185 19.9748 19.9748C19.3185 20.6312 18.4282 21 17.5 21ZM17.5 19C17.8978 19 18.2793 18.8419 18.5606 18.5606C18.8419 18.2793 19 17.8978 19 17.5C19 17.1022 18.8419 16.7206 18.5606 16.4393C18.2793 16.158 17.8978 16 17.5 16C17.1022 16 16.7206 16.158 16.4393 16.4393C16.158 16.7206 16 17.1022 16 17.5C16 17.8978 16.158 18.2793 16.4393 18.5606C16.7206 18.8419 17.1022 19 17.5 19ZM6.5 10C6.04035 10 5.58525 9.90945 5.1606 9.7336C4.73595 9.5577 4.35015 9.2999 4.02515 8.97485C3.7001 8.64985 3.4423 8.26405 3.2664 7.8394C3.09055 7.41475 3 6.95965 3 6.5C3 6.04035 3.09055 5.58525 3.2664 5.1606C3.4423 4.73595 3.7001 4.35015 4.02515 4.02515C4.35015 3.7001 4.73595 3.4423 5.1606 3.2664C5.58525 3.09055 6.04035 3 6.5 3C7.42825 3 8.3185 3.36875 8.97485 4.02515C9.63125 4.6815 10 5.57175 10 6.5C10 7.42825 9.63125 8.3185 8.97485 8.97485C8.3185 9.63125 7.42825 10 6.5 10ZM6.5 8C6.8978 8 7.27935 7.84195 7.56065 7.56065C7.84195 7.27935 8 6.8978 8 6.5C8 6.1022 7.84195 5.72065 7.56065 5.43935C7.27935 5.15805 6.8978 5 6.5 5C6.1022 5 5.72065 5.15805 5.43935 5.43935C5.15805 5.72065 5 6.1022 5 6.5C5 6.8978 5.15805 7.27935 5.43935 7.56065C5.72065 7.84195 6.1022 8 6.5 8ZM19.071 3.515L20.485 4.929L4.93 20.485L3.516 19.071L19.07 3.515H19.071Z" fill="white"/>
</svg>
