<svg width="12" height="12" viewBox="0 0 12 12" fill="none" xmlns="http://www.w3.org/2000/svg">
<g clip-path="url(#clip0_2463_8919)">
<path d="M12 0.970273C12 2.45951 12 3.94603 12 5.45451C11.8913 5.29318 11.8007 5.15319 11.7044 5.01649C10.9042 3.88021 9.9025 2.93141 8.54802 2.3371C7.8277 2.02104 7.10863 1.83639 6.39279 1.78138C5.27109 1.69518 4.15731 1.92731 3.05906 2.47094C1.7687 3.10965 0.819746 4.06772 0.0637767 5.1941C0.04868 5.21661 0.0327308 5.23864 0.00012207 5.28533C0.00012207 3.77465 0.00012207 2.283 0.00012207 0.786708C0.00012207 0.524657 0.346274 0 1.00984 0C4.34272 0 7.67433 0 11.0192 0C11.625 0 12 0.36713 12 0.970273Z" fill="#1C1C1C"/>
<path d="M11.9969 9.8182C7.99198 8.22048 4.00897 8.22028 0.00206819 9.81656C0.00206819 9.53993 -0.00579974 9.25456 0.00915641 8.97025C0.0119208 8.91775 0.101091 8.86197 0.16049 8.82051C1.14054 8.13651 2.23667 7.68896 3.41522 7.41002C4.25323 7.21168 5.10786 7.07401 5.96759 7.09263C8.10298 7.13886 10.1063 7.62164 11.8609 8.83252C11.962 8.90227 12.0042 8.97766 11.9996 9.09614C11.9904 9.33441 11.9969 9.57319 11.9969 9.8182Z" fill="#FF3636"/>
<path d="M11.9968 7.63031C10.2858 5.99325 8.33553 4.95352 5.9939 4.98937C3.68198 5.02479 1.70074 5.98004 0.000744306 7.63631C0.000744306 7.30504 -0.00226805 7.00304 0.00382753 6.70123C0.00481984 6.65279 0.0401529 6.60043 0.0702764 6.55791C1.294 4.8308 2.89299 3.69795 4.95961 3.36273C6.8032 3.0637 8.49419 3.5175 10.0267 4.60655C10.7581 5.12636 11.3765 5.76881 11.8933 6.51309C11.9532 6.59926 11.9864 6.72077 11.9922 6.82823C12.0063 7.08669 11.9968 7.34653 11.9968 7.63031Z" fill="#FF3636"/>
<path d="M11.1057 11.9999C7.7437 11.9999 4.39909 11.9999 1.03885 11.9999C0.202221 11.9999 -0.00922681 11.6123 0.000304383 11.3116C0.00143821 11.2757 0.0787817 10.9986 0.125127 10.9885C0.642752 10.8759 1.15868 10.7501 1.68116 10.6665C3.44719 10.3839 5.22793 10.3277 7.01118 10.3823C8.6036 10.4311 10.1869 10.5766 11.7382 10.9762C11.9292 11.0255 12.018 11.0921 11.9969 11.3053C11.9749 11.528 11.9999 11.9999 11.1057 11.9999Z" fill="#FF3636"/>
</g>
<defs>
<clipPath id="clip0_2463_8919">
<rect width="12" height="12" rx="3" fill="white"/>
</clipPath>
</defs>
</svg>
