<svg width="24" height="24" viewBox="0 0 24 24" fill="none" xmlns="http://www.w3.org/2000/svg">
<g clip-path="url(#clip0_21_10978)">
<path d="M22.0025 12.0013C22.0025 6.47367 17.5294 2 12.0013 2C6.47367 2 2 6.47306 2 12.0013C2 17.4798 6.43567 22.0025 12.0013 22.0025C17.5439 22.0025 22.0025 17.505 22.0025 12.0013ZM12.0013 3.17202C16.8697 3.17202 20.8305 7.13278 20.8305 12.0013C20.8305 13.7822 20.3008 15.494 19.3184 16.9439C15.3739 12.7008 8.63581 12.6932 4.68405 16.9439C3.70172 15.494 3.17202 13.7822 3.17202 12.0013C3.17202 7.13278 7.13278 3.17202 12.0013 3.17202ZM5.41504 17.8809C8.92225 13.947 15.0812 13.9479 18.5873 17.8809C15.0683 21.8178 8.93553 21.8191 5.41504 17.8809Z" fill="#1C1C1C"/>
<mask id="path-2-inside-1_21_10978" fill="white">
<path d="M12.0014 12.5873C13.9401 12.5873 15.5175 11.01 15.5175 9.07125V7.89923C15.5175 5.96051 13.9401 4.38316 12.0014 4.38316C10.0627 4.38316 8.48535 5.96051 8.48535 7.89923V9.07125C8.48535 11.01 10.0627 12.5873 12.0014 12.5873ZM9.65737 7.89923C9.65737 6.60665 10.7088 5.55518 12.0014 5.55518C13.294 5.55518 14.3455 6.60665 14.3455 7.89923V9.07125C14.3455 10.3638 13.294 11.4153 12.0014 11.4153C10.7088 11.4153 9.65737 10.3638 9.65737 9.07125V7.89923Z"/>
</mask>
<path d="M12.0014 12.5873C13.9401 12.5873 15.5175 11.01 15.5175 9.07125V7.89923C15.5175 5.96051 13.9401 4.38316 12.0014 4.38316C10.0627 4.38316 8.48535 5.96051 8.48535 7.89923V9.07125C8.48535 11.01 10.0627 12.5873 12.0014 12.5873ZM9.65737 7.89923C9.65737 6.60665 10.7088 5.55518 12.0014 5.55518C13.294 5.55518 14.3455 6.60665 14.3455 7.89923V9.07125C14.3455 10.3638 13.294 11.4153 12.0014 11.4153C10.7088 11.4153 9.65737 10.3638 9.65737 9.07125V7.89923Z" fill="#1C1C1C" stroke="#1C1C1C" stroke-width="2.5" mask="url(#path-2-inside-1_21_10978)"/>
</g>
<defs>
<clipPath id="clip0_21_10978">
<rect width="20.0025" height="20.0025" fill="white" transform="translate(2 2)"/>
</clipPath>
</defs>
</svg>
