<svg width="16" height="16" viewBox="0 0 16 16" fill="none" xmlns="http://www.w3.org/2000/svg">
<path d="M10.6666 10.6666L7.99997 7.99998M7.99997 7.99998L5.33331 10.6666M7.99997 7.99998V14M13.5933 12.26C14.2435 11.9055 14.7572 11.3446 15.0532 10.6657C15.3493 9.98689 15.4108 9.2288 15.2281 8.51111C15.0454 7.79341 14.629 7.15699 14.0444 6.70228C13.4599 6.24757 12.7406 6.00047 12 5.99998H11.16C10.9582 5.21947 10.5821 4.49487 10.0599 3.88064C9.5378 3.26641 8.8832 2.77855 8.14537 2.45372C7.40754 2.12889 6.60567 1.97555 5.80005 2.00523C4.99443 2.03492 4.20602 2.24685 3.49409 2.62509C2.78216 3.00333 2.16525 3.53805 1.68972 4.18903C1.2142 4.84002 0.892434 5.59034 0.748627 6.38358C0.60482 7.17681 0.64271 7.99233 0.859449 8.76882C1.07619 9.54531 1.46613 10.2626 1.99997 10.8666" stroke="#1C1C1C" stroke-width="1.25" stroke-linecap="round" stroke-linejoin="round"/>
</svg>
