<svg width="24" height="24" viewBox="0 0 24 24" fill="none" xmlns="http://www.w3.org/2000/svg">
<path d="M5.99994 9.00003V2.00003H17.9999V9.00003M5.99994 18H3.99994C3.46951 18 2.9608 17.7893 2.58573 17.4142C2.21065 17.0392 1.99994 16.5305 1.99994 16V11C1.99994 10.4696 2.21065 9.96089 2.58573 9.58582C2.9608 9.21074 3.46951 9.00003 3.99994 9.00003H19.9999C20.5304 9.00003 21.0391 9.21074 21.4142 9.58582C21.7892 9.96089 21.9999 10.4696 21.9999 11V16C21.9999 16.5305 21.7892 17.0392 21.4142 17.4142C21.0391 17.7893 20.5304 18 19.9999 18H17.9999M5.99994 14H17.9999V22H5.99994V14Z" stroke="#1C1C1C" stroke-width="1.25" stroke-linecap="round" stroke-linejoin="round"/>
</svg>
