<svg width="40" height="40" viewBox="0 0 40 40" fill="none" xmlns="http://www.w3.org/2000/svg">
<rect width="40" height="40" rx="20" fill="#FFE180"/>
<g clip-path="url(#clip0_3476_9783)">
<path d="M20.0001 9V11M20.0001 29V31M12.2201 12.22L13.6401 13.64M26.3601 26.36L27.7801 27.78M9.00008 20H11.0001M29.0001 20H31.0001M12.2201 27.78L13.6401 26.36M26.3601 13.64L27.7801 12.22M25.0001 20C25.0001 22.7614 22.7615 25 20.0001 25C17.2387 25 15.0001 22.7614 15.0001 20C15.0001 17.2386 17.2387 15 20.0001 15C22.7615 15 25.0001 17.2386 25.0001 20Z" stroke="white" stroke-width="1.25" stroke-linecap="round" stroke-linejoin="round"/>
</g>
<defs>
<clipPath id="clip0_3476_9783">
<rect width="24" height="24" fill="white" transform="translate(8 8)"/>
</clipPath>
</defs>
</svg>
