<svg width="16" height="16" viewBox="0 0 16 16" fill="none" xmlns="http://www.w3.org/2000/svg">
<g clip-path="url(#clip0_481_3438)">
<path d="M13.3871 4.31505V4.94005L13.3887 4.94005L13.3871 4.31505ZM11.1556 4.31505L10.5474 4.45897L10.6612 4.94005H11.1556V4.31505ZM14.835 5.75916L14.21 5.75916V5.75916H14.835ZM12.5536 12.7032V12.0782H11.9286V12.7032H12.5536ZM12.5536 14.2971H11.9286L11.9286 14.2992L12.5536 14.2971ZM11.9276 14.5967L12.3213 14.1113L12.3197 14.11L11.9276 14.5967ZM9.57705 12.7032L9.96913 12.2165L9.79748 12.0782H9.57705V12.7032ZM1.92297 4.73802L2.36491 5.17996H2.36491L1.92297 4.73802ZM5.17558 4.31505V4.94005H5.66994L5.78378 4.45897L5.17558 4.31505ZM5.08334 4.95001H5.70834V4.32501H5.08334V4.95001ZM11.2285 4.95001V4.32501H10.6035V4.95001H11.2285ZM13.3871 3.69005H11.1556V4.94005H13.3871V3.69005ZM14.852 4.29413C14.4628 3.90594 13.9351 3.68859 13.3854 3.69005L13.3887 4.94005C13.6063 4.93947 13.8152 5.02551 13.9693 5.17919L14.852 4.29413ZM15.46 5.75916C15.46 5.20945 15.2413 4.68232 14.852 4.29413L13.9693 5.17919C14.1234 5.33286 14.21 5.54154 14.21 5.75916L15.46 5.75916ZM15.46 11.2591V5.75916H14.21V11.2591H15.46ZM13.9785 13.3282C14.513 13.3282 14.905 13.0026 15.133 12.6183C15.357 12.2407 15.46 11.7607 15.46 11.2591H14.21C14.21 11.6062 14.1364 11.8483 14.0579 11.9806C14.0202 12.0442 13.9894 12.0692 13.9786 12.0765C13.9735 12.0798 13.9723 12.0797 13.9746 12.079C13.9771 12.0783 13.979 12.0782 13.9785 12.0782V13.3282ZM12.5536 13.3282H13.9785V12.0782H12.5536V13.3282ZM13.1786 14.2971V12.7032H11.9286V14.2971H13.1786ZM12.6051 15.2086C12.9567 15.0404 13.1799 14.6847 13.1786 14.295L11.9286 14.2992C11.9283 14.2062 11.9816 14.1213 12.0655 14.0811L12.6051 15.2086ZM11.5338 15.082C11.8365 15.3276 12.2535 15.3769 12.6051 15.2086L12.0655 14.0811C12.1495 14.0409 12.2491 14.0527 12.3213 14.1113L11.5338 15.082ZM9.18497 13.1899L11.5355 15.0834L12.3197 14.11L9.96913 12.2165L9.18497 13.1899ZM2.94411 13.3282H9.57705V12.0782H2.94411V13.3282ZM0.875 11.2591C0.875 12.4018 1.80137 13.3282 2.94411 13.3282V12.0782C2.49173 12.0782 2.125 11.7115 2.125 11.2591H0.875ZM0.875 5.75916V11.2591H2.125V5.75916H0.875ZM1.48103 4.29608C1.093 4.68411 0.875 5.2104 0.875 5.75916H2.125C2.125 5.54192 2.2113 5.33358 2.36491 5.17996L1.48103 4.29608ZM2.94411 3.69005C2.39535 3.69005 1.86906 3.90804 1.48103 4.29608L2.36491 5.17996C2.51853 5.02635 2.72687 4.94005 2.94411 4.94005V3.69005ZM5.17558 3.69005H2.94411V4.94005H5.17558V3.69005ZM8.16558 1.32501C6.45147 1.32501 4.9621 2.50308 4.56737 4.17112L5.78378 4.45897C6.04506 3.35482 7.03094 2.57501 8.16558 2.57501V1.32501ZM11.7638 4.17112C11.3691 2.50308 9.87969 1.32501 8.16558 1.32501V2.57501C9.30023 2.57501 10.2861 3.35482 10.5474 4.45897L11.7638 4.17112ZM4.45834 4.95001C4.45834 6.99213 6.1138 8.6476 8.15592 8.6476V7.3976C6.80416 7.3976 5.70834 6.30178 5.70834 4.95001H4.45834ZM8.15592 8.6476C10.198 8.6476 11.8535 6.99213 11.8535 4.95001H10.6035C10.6035 6.30178 9.50768 7.3976 8.15592 7.3976V8.6476ZM4.66675 5.57501H5.08334V4.32501H4.66675V5.57501ZM11.2285 5.57501H11.6667V4.32501H11.2285V5.57501Z" fill="#1C1C1C"/>
<path d="M7 5.5C7.27614 5.5 7.5 5.27614 7.5 5C7.5 4.72386 7.27614 4.5 7 4.5C6.72386 4.5 6.5 4.72386 6.5 5C6.5 5.27614 6.72386 5.5 7 5.5Z" fill="#1C1C1C"/>
<path d="M9.06665 5.5C9.34279 5.5 9.56665 5.27614 9.56665 5C9.56665 4.72386 9.34279 4.5 9.06665 4.5C8.79051 4.5 8.56665 4.72386 8.56665 5C8.56665 5.27614 8.79051 5.5 9.06665 5.5Z" fill="#1C1C1C"/>
</g>
<defs>
<clipPath id="clip0_481_3438">
<rect width="16" height="16" fill="white"/>
</clipPath>
</defs>
</svg>
