<svg width="64" height="64" viewBox="0 0 64 64" fill="none" xmlns="http://www.w3.org/2000/svg">
<path d="M20.1592 5.33337H13.4874C8.98402 5.33337 5.33334 8.99221 5.33334 13.5056V20.4314M43.8409 5.33337H50.5127C55.016 5.33337 58.6667 8.99221 58.6667 13.5056V20.4314M20.3892 20.0043V28.9696M44.3174 20.0043V28.9696M33.6054 22.8154V34.1478L33.6054 34.1534L33.6054 34.1592L33.6053 34.1717L33.6049 34.1998L33.6029 34.2685C33.6008 34.3196 33.5973 34.3817 33.5912 34.4533C33.5792 34.5955 33.5567 34.78 33.5144 34.9935C33.4315 35.412 33.2625 35.9934 32.9056 36.5941C32.1019 37.9471 30.5861 38.9863 28.301 38.9863M41.9621 43.1461L41.9576 43.1502L41.9515 43.1558L41.9347 43.171L41.8827 43.2172C41.8401 43.2549 41.7814 43.306 41.7076 43.3687C41.5602 43.4938 41.3517 43.6655 41.0893 43.8682C40.5666 44.2721 39.8193 44.8076 38.9068 45.3445C37.1271 46.3916 34.5011 47.5739 31.5833 47.5739C28.6393 47.5739 26.1421 46.3736 24.4724 45.2918C23.6218 44.7407 22.9401 44.1908 22.4666 43.7747C22.2289 43.5658 22.0409 43.3882 21.9074 43.2576C21.8406 43.1923 21.7872 43.1385 21.748 43.0982L21.6996 43.0481L21.6834 43.0311L21.6773 43.0246L21.6748 43.0219M20.1592 58.6667H13.4874C8.98402 58.6667 5.33334 55.0079 5.33334 50.4945V43.5686M58.6667 43.5686V50.4945C58.6667 55.0079 55.016 58.6667 50.5127 58.6667H43.8409" stroke="#1C1C1C" stroke-width="3" stroke-linecap="round"/>
</svg>
