<svg width="16" height="16" viewBox="0 0 16 16" fill="none" xmlns="http://www.w3.org/2000/svg">
<path d="M13.6601 8.16082C14.0007 7.82033 14.271 7.41607 14.4553 6.97113C14.6397 6.52618 14.7346 6.04927 14.7346 5.56765C14.7346 5.08602 14.6397 4.60911 14.4553 4.16416C14.271 3.71922 14.0007 3.31496 13.6601 2.97448C13.3196 2.63383 12.9154 2.36361 12.4704 2.17925C12.0255 1.99489 11.5486 1.89999 11.0669 1.89999C10.5853 1.89999 10.1084 1.99489 9.66345 2.17925C9.2185 2.36361 8.81424 2.63383 8.47376 2.97448L7.76714 3.6811L7.06051 2.97448C6.37276 2.28673 5.43997 1.90035 4.46734 1.90035C3.49472 1.90035 2.56193 2.28673 1.87417 2.97448C1.18642 3.66223 0.800049 4.59502 0.800049 5.56765C0.800049 6.54027 1.18642 7.47306 1.87417 8.16082L2.5808 8.86744L7.76714 14.0538L10.3603 11.4606L11.6569 10.164L12.3052 9.51573M3.76743 8.69574H4.43406L5.37054 6.39056C5.39328 6.33456 5.47282 6.33531 5.49452 6.39172L7.04563 10.4246C7.06653 10.479 7.14217 10.4823 7.16774 10.4299L8.69327 7.30847C8.71978 7.25423 8.79899 7.26035 8.81684 7.31803L9.41921 9.26413C9.42785 9.29205 9.45367 9.31108 9.48289 9.31108H15.1" stroke="#1C1C1C" stroke-width="1.25" stroke-linecap="round" stroke-linejoin="round"/>
</svg>
