<svg width="32" height="32" viewBox="0 0 32 32" fill="none" xmlns="http://www.w3.org/2000/svg">
<path d="M17.8808 6H9.99969C9.46934 6 8.96071 6.21074 8.58569 6.58586C8.21068 6.96098 8 7.46975 8 8.00025V24.0023C8 24.5327 8.21068 25.0415 8.58569 25.4166C8.96071 25.7918 9.46934 26.0025 9.99969 26.0025H21.9978C22.5282 26.0025 23.0368 25.7918 23.4118 25.4166C23.7868 25.0415 23.9975 24.5327 23.9975 24.0023V12.1184M17.8808 6L23.9975 12.1184M17.8808 6V12.1184H23.9975M10.9404 19.5313H12.4527M12.4527 19.5313H14.1542M12.4527 19.5313L12.6418 17.7664M12.4527 19.5313L12.2637 21.2962M14.1542 19.5313H15.4775M14.1542 19.5313L14.3432 17.7664M14.1542 19.5313L13.9651 21.2962M10.9404 21.2962H12.2637M12.2637 21.2962H13.9651M12.2637 21.2962L12.0746 23.0611M13.9651 21.2962H15.4775M13.9651 21.2962L13.7761 23.0611" stroke="#999999" stroke-width="1.25" stroke-linecap="round" stroke-linejoin="round"/>
</svg>
