<svg width="20" height="20" viewBox="0 0 20 20" fill="none" xmlns="http://www.w3.org/2000/svg">
<path d="M10.0176 8.9148C9.90798 7.5421 9.36305 6.41849 8.75603 5.86083C9.1111 5.68331 9.48268 5.20367 9.4606 4.90434C8.3254 5.34048 6.07117 4.66012 5.88953 5.68696C5.85133 5.90425 5.95009 6.23547 6.05681 6.33067C6.07587 6.26179 6.17555 6.03651 6.48976 5.986C8.07795 5.73197 9.40392 8.32318 8.20702 9.3709C7.57603 9.97479 7.06577 10.1558 6.88952 10.1709C6.88952 10.1709 5.94539 9.60592 5.94539 9.04763C5.94539 8.72648 6.08029 8.43697 6.29663 8.2291C6.34276 8.18536 6.33661 8.11126 6.28309 8.0767C6.2596 8.0618 6.23628 8.04659 6.21315 8.03107C4.33544 6.76763 2.625 3.84156 2.4407 3.52014M2.4407 3.52014C2.43214 3.50514 2.41158 3.5021 2.39893 3.51371L2.4407 3.52014ZM2.4407 3.52014C1.39455 4.90554 0.397015 8.70355 4.77609 12.8124C5.06621 13.1579 5.73555 13.1649 6.14524 12.6651L7.97009 12.4553M7.97009 12.4553V13.4855C8.07977 14.1418 8.54393 14.3803 8.76229 14.4175C9.02041 14.5916 9.28259 14.9348 9.48014 15.5071C8.50924 15.756 7.29026 16.4416 7.04365 17.19C6.9487 17.4789 7.26234 17.8728 7.64328 17.9521C8.23316 18.0976 9.00967 18.3244 10.0176 18.3301M7.97009 12.4553C7.02301 12.4045 6.23434 13.3178 7.26493 14.8519C7.35546 14.9969 6.38926 15.2292 5.93603 15.1704C5.59066 15.1168 4.89994 15.0592 4.89994 15.2583M4.89994 15.2583C4.89994 15.2583 3.16539 13.5234 3.15097 13.503L4.89994 15.2583ZM4.89994 15.2583L5.79762 16.1404L6.25677 16.5916L4.89994 15.2583ZM9.9842 8.99323C10.0938 7.63142 10.6389 6.51678 11.2461 5.96355C10.8909 5.78745 10.5193 5.31164 10.5413 5.01469C11.6768 5.44736 13.9316 4.77243 14.1132 5.79107C14.1515 6.00664 14.0527 6.33521 13.946 6.42964C13.9269 6.36132 13.8272 6.13783 13.5129 6.08773C11.9243 5.83573 10.5981 8.40626 11.7952 9.4456C12.4263 10.0447 12.9367 10.2243 13.1131 10.2392C13.1131 10.2392 14.0574 9.67876 14.0574 9.12496C14.0574 8.80634 13.9225 8.51912 13.706 8.31294C13.6599 8.26954 13.6661 8.19602 13.7196 8.16175C13.7431 8.14697 13.7664 8.13188 13.7895 8.11648C15.6677 6.86313 17.3786 3.96039 17.5629 3.64154M17.5629 3.64154C17.5714 3.62666 17.592 3.62364 17.6046 3.63516L17.5629 3.64154ZM17.5629 3.64154C18.6093 5.01589 19.607 8.78358 15.2269 12.8596C14.9368 13.2024 14.2673 13.2094 13.8575 12.7135L12.0323 12.5053M12.0323 12.5053V13.5274C11.9225 14.1784 11.4582 14.4151 11.2399 14.452C10.9817 14.6247 10.7194 14.9652 10.5219 15.5329C11.493 15.7798 12.7122 16.4598 12.9589 17.2023C13.0538 17.4889 12.7401 17.8797 12.3591 17.9584C11.7691 18.1027 10.9924 18.3277 9.9842 18.3334M12.0323 12.5053C12.9796 12.455 13.7684 13.361 12.7375 14.8828C12.647 15.0267 14.2243 15.5912 14.6777 15.5329M10.816 3.66358H9.09943C9.09943 3.66358 8.79875 3.17757 8.72346 2.93688C8.45273 2.07067 8.79833 1.66669 9.30417 1.66669H10.6109C11.1169 1.66669 11.4624 2.07067 11.1917 2.93688C11.1571 3.0476 11.0747 3.2103 10.9959 3.35328L10.816 3.66358ZM16.6017 15.2335C16.6017 15.7788 16.205 16.2207 15.7158 16.2207C15.2265 16.2207 14.8299 15.7788 14.8299 15.2335C14.8299 14.6883 15.2265 14.2464 15.7158 14.2464C16.205 14.2464 16.6017 14.6883 16.6017 15.2335Z" stroke="#1C1C1C" stroke-width="1.25" stroke-linecap="round" stroke-linejoin="round"/>
</svg>
