<svg width="24" height="24" viewBox="0 0 24 24" fill="none" xmlns="http://www.w3.org/2000/svg">
<path d="M11.9999 7C11.9999 5.93913 11.5785 4.92172 10.8283 4.17157C10.0782 3.42143 9.06074 3 7.99988 3H1.99988V18H8.99988C9.79553 18 10.5586 18.3161 11.1212 18.8787C11.6838 19.4413 11.9999 20.2044 11.9999 21M11.9999 7V21M11.9999 7C11.9999 5.93913 12.4213 4.92172 13.1715 4.17157C13.9216 3.42143 14.939 3 15.9999 3H21.9999V18H14.9999C14.2042 18 13.4412 18.3161 12.8786 18.8787C12.3159 19.4413 11.9999 20.2044 11.9999 21" stroke="#1C1C1C" stroke-width="1.25" stroke-linecap="round" stroke-linejoin="round"/>
</svg>
