<svg width="64" height="64" viewBox="0 0 64 64" fill="none" xmlns="http://www.w3.org/2000/svg">
<rect width="64" height="64" rx="32" fill="#F6F6F7"/>
<g clip-path="url(#clip0_13734_14206)">
<path d="M19 22.9653L22.8567 29.892V34.1171L19.0045 41.0301L19 22.9653Z" fill="#5B57A2"/>
<path d="M33.8081 27.3714L37.422 25.1458L44.8179 25.1389L33.8081 31.916V27.3714Z" fill="#D90751"/>
<path d="M33.7876 22.9245L33.808 32.0952L29.9424 29.7085V16L33.7879 22.9245H33.7876Z" fill="#FAB718"/>
<path d="M44.8178 25.1389L37.4216 25.1459L33.7876 22.9245L29.9424 16L44.8176 25.1389H44.8178Z" fill="#ED6F26"/>
<path d="M33.808 41.0685V36.6192L29.9424 34.2778L29.9445 48L33.808 41.0685Z" fill="#63B22F"/>
<path d="M37.4129 38.8632L22.8564 29.892L19 22.9653L44.8022 38.8541L37.4126 38.8632H37.4129Z" fill="#1487C9"/>
<path d="M29.9447 48.0001L33.8077 41.0686L37.4126 38.8633L44.8018 38.8542L29.9447 48.0001Z" fill="#017F36"/>
<path d="M19.0045 41.0302L29.9739 34.2782L26.2861 32.0046L22.8567 34.1172L19.0045 41.0302Z" fill="#984995"/>
</g>
<defs>
<clipPath id="clip0_13734_14206">
<rect width="26" height="32" fill="white" transform="translate(19 16)"/>
</clipPath>
</defs>
</svg>
