<svg width="24" height="24" viewBox="0 0 24 24" fill="none" xmlns="http://www.w3.org/2000/svg">
<path d="M19.9999 11.9999V21.9999H3.99994V11.9999M11.9999 21.9999V6.99988M11.9999 6.99988H7.49994C6.8369 6.99988 6.20101 6.73649 5.73217 6.26764C5.26333 5.7988 4.99994 5.16292 4.99994 4.49988C4.99994 3.83684 5.26333 3.20095 5.73217 2.73211C6.20101 2.26327 6.8369 1.99988 7.49994 1.99988C10.9999 1.99988 11.9999 6.99988 11.9999 6.99988ZM11.9999 6.99988H16.4999C17.163 6.99988 17.7989 6.73649 18.2677 6.26764C18.7365 5.7988 18.9999 5.16292 18.9999 4.49988C18.9999 3.83684 18.7365 3.20095 18.2677 2.73211C17.7989 2.26327 17.163 1.99988 16.4999 1.99988C12.9999 1.99988 11.9999 6.99988 11.9999 6.99988ZM1.99994 6.99988H21.9999V11.9999H1.99994V6.99988Z" stroke="#1C1C1C" stroke-width="1.25" stroke-linecap="round" stroke-linejoin="round"/>
</svg>
