<svg width="32" height="32" viewBox="0 0 32 32" fill="none" xmlns="http://www.w3.org/2000/svg">
<path d="M27.3211 26H24.6246C24.3734 26 24.1325 25.8975 23.9548 25.7151C23.7772 25.5328 23.6774 25.2854 23.6774 25.0275V23.5667H8.32629V25.0275C8.32629 25.2847 8.22701 25.5315 8.05019 25.7138C7.87337 25.8961 7.63341 25.999 7.38286 26H4.67886C4.4296 25.997 4.19154 25.8932 4.01632 25.7111C3.8411 25.5291 3.74284 25.2834 3.74286 25.0275V17.1518C3.7427 16.2476 3.94743 15.3558 4.34086 14.5469L7.59829 7.8383C7.86629 7.28503 8.27959 6.81971 8.79152 6.49488C9.30346 6.17004 9.89364 5.99864 10.4954 6.00001H21.5046C22.1059 5.99872 22.6956 6.16974 23.2074 6.49383C23.7192 6.81791 24.1328 7.28221 24.4017 7.83448L27.6666 14.5469C28.0574 15.3565 28.2596 16.2482 28.2571 17.1518V25.0275C28.2572 25.2834 28.1589 25.5291 27.9837 25.7111C27.8085 25.8932 27.5704 25.997 27.3211 26ZM7.95486 22.804H24.0489C24.1474 22.804 24.2418 22.8441 24.3115 22.9157C24.3811 22.9872 24.4203 23.0842 24.4203 23.1854V25.0275C24.4203 25.0831 24.4418 25.1364 24.4801 25.1758C24.5184 25.2151 24.5704 25.2372 24.6246 25.2372H27.3211C27.3747 25.2362 27.4257 25.2137 27.4632 25.1745C27.5007 25.1352 27.5217 25.0824 27.5217 25.0275V17.1518C27.5213 16.3655 27.3433 15.59 27.0017 14.8864L23.7369 8.18155C23.5299 7.7565 23.2119 7.399 22.8183 7.14909C22.4247 6.89918 21.9711 6.76674 21.5083 6.7666H10.4954C10.0327 6.76674 9.57905 6.89918 9.18544 7.14909C8.79184 7.399 8.47376 7.7565 8.26686 8.18155L4.99829 14.8864C4.65925 15.5907 4.4838 16.3661 4.48572 17.1518V25.0275C4.48571 25.0824 4.50672 25.1352 4.54423 25.1745C4.58174 25.2137 4.63276 25.2362 4.68629 25.2372H7.38286C7.43639 25.2362 7.4874 25.2137 7.52492 25.1745C7.56243 25.1352 7.58344 25.0824 7.58343 25.0275V23.1854C7.58343 23.0842 7.62256 22.9872 7.69222 22.9157C7.76188 22.8441 7.85635 22.804 7.95486 22.804Z" fill="#1C1C1C"/>
<path d="M23.384 21.0305C22.9137 21.0305 22.4539 20.8873 22.0629 20.6189C21.6719 20.3505 21.3673 19.9691 21.1874 19.5228C21.0076 19.0766 20.9608 18.5856 21.0528 18.112C21.1448 17.6384 21.3716 17.2035 21.7044 16.8623C22.0372 16.5211 22.4611 16.2889 22.9225 16.1952C23.3839 16.1014 23.862 16.1503 24.2963 16.3356C24.7306 16.521 25.1016 16.8344 25.3623 17.2363C25.6231 17.6382 25.7619 18.1105 25.7611 18.5934C25.7601 19.2401 25.5093 19.86 25.0636 20.3169C24.6179 20.7739 24.0138 21.0305 23.384 21.0305ZM23.384 16.9153C23.0608 16.9153 22.7448 17.0138 22.476 17.1982C22.2073 17.3825 21.9978 17.6446 21.8741 17.9513C21.7504 18.2579 21.718 18.5953 21.7811 18.9208C21.8442 19.2463 21.9998 19.5454 22.2284 19.78C22.4569 20.0147 22.7481 20.1746 23.0652 20.2393C23.3822 20.3041 23.7108 20.2708 24.0094 20.1438C24.308 20.0168 24.5633 19.8017 24.7428 19.5257C24.9224 19.2498 25.0183 18.9253 25.0183 18.5934C25.0173 18.1487 24.8448 17.7224 24.5385 17.408C24.2322 17.0935 23.8171 16.9163 23.384 16.9153Z" fill="#1C1C1C"/>
<path d="M8.616 21.0305C8.14569 21.0305 7.68595 20.8873 7.29495 20.6189C6.90395 20.3505 6.59927 19.9691 6.41946 19.5228C6.23965 19.0766 6.19279 18.5856 6.28481 18.112C6.37684 17.6384 6.60361 17.2035 6.93643 16.8623C7.26925 16.5211 7.69316 16.2889 8.15452 16.1952C8.61589 16.1014 9.09397 16.1503 9.52827 16.3356C9.96257 16.521 10.3336 16.8344 10.5943 17.2363C10.8551 17.6382 10.9939 18.1105 10.9931 18.5934C10.9922 19.2401 10.7413 19.86 10.2956 20.3169C9.84989 20.7739 9.24581 21.0305 8.616 21.0305ZM8.616 16.9153C8.29277 16.9153 7.9768 17.0138 7.70804 17.1982C7.43928 17.3825 7.22981 17.6446 7.10612 17.9513C6.98242 18.2579 6.95006 18.5953 7.01312 18.9208C7.07618 19.2463 7.23183 19.5454 7.46039 19.78C7.68895 20.0147 7.98015 20.1746 8.29717 20.2393C8.61419 20.3041 8.94279 20.2708 9.24141 20.1438C9.54004 20.0168 9.79528 19.8017 9.97486 19.5257C10.1544 19.2498 10.2503 18.9253 10.2503 18.5934C10.2503 18.1484 10.0781 17.7215 9.77161 17.4068C9.46513 17.0921 9.04944 16.9153 8.616 16.9153Z" fill="#1C1C1C"/>
<path d="M24.7806 14.5927H7.14514C7.09134 14.593 7.03811 14.5813 6.98914 14.5584L5.17286 13.7079C5.12847 13.6871 5.08851 13.6575 5.05525 13.6209C5.02199 13.5842 4.99608 13.5412 4.97901 13.4943C4.96193 13.4474 4.95403 13.3975 4.95574 13.3474C4.95746 13.2973 4.96876 13.2481 4.989 13.2025C5.00925 13.157 5.03803 13.1159 5.07372 13.0818C5.10941 13.0476 5.1513 13.021 5.197 13.0035C5.2427 12.9859 5.29131 12.9778 5.34007 12.9796C5.38882 12.9814 5.43676 12.993 5.48115 13.0137L7.22686 13.8299H24.7025L26.5263 13.0099C26.6153 12.9756 26.7138 12.9776 26.8014 13.0156C26.889 13.0536 26.9591 13.1247 26.9972 13.2142C27.0353 13.3037 27.0385 13.4048 27.0062 13.4966C26.9739 13.5885 26.9084 13.6641 26.8234 13.7079L24.9143 14.5584C24.8724 14.5789 24.8269 14.5906 24.7806 14.5927Z" fill="#1C1C1C"/>
<path d="M27.3063 13.7422H26.6786C26.5801 13.7422 26.4856 13.702 26.4159 13.6305C26.3463 13.559 26.3071 13.462 26.3071 13.3608C26.3071 13.2597 26.3463 13.1627 26.4159 13.0911C26.4856 13.0196 26.5801 12.9794 26.6786 12.9794H27.31C27.5625 12.9774 27.804 12.8727 27.9815 12.6883C28.159 12.5039 28.2581 12.2548 28.2571 11.9955V11.5149H25.594C25.4955 11.5149 25.401 11.4747 25.3313 11.4032C25.2617 11.3317 25.2226 11.2347 25.2226 11.1335C25.2226 11.0324 25.2617 10.9354 25.3313 10.8638C25.401 10.7923 25.4955 10.7521 25.594 10.7521H28.4503C28.5961 10.7521 28.7359 10.8116 28.839 10.9175C28.9421 11.0233 29 11.1669 29 11.3166V11.9955C29.0005 12.2243 28.9571 12.4511 28.8722 12.6627C28.7874 12.8744 28.6627 13.0668 28.5055 13.229C28.3482 13.3912 28.1613 13.52 27.9556 13.6081C27.7498 13.6961 27.5292 13.7417 27.3063 13.7422Z" fill="#1C1C1C"/>
<path d="M5.32515 13.7422H4.69372C4.47081 13.7417 4.25018 13.6961 4.04442 13.6081C3.83867 13.52 3.65182 13.3912 3.49454 13.229C3.33727 13.0668 3.21264 12.8744 3.12779 12.6627C3.04294 12.4511 2.99952 12.2243 3 11.9955V11.3166C3 11.1669 3.05792 11.0233 3.16101 10.9175C3.2641 10.8116 3.40393 10.7521 3.54972 10.7521H6.406C6.50451 10.7521 6.59899 10.7923 6.66864 10.8638C6.7383 10.9354 6.77743 11.0324 6.77743 11.1335C6.77743 11.2347 6.7383 11.3317 6.66864 11.4032C6.59899 11.4747 6.50451 11.5149 6.406 11.5149H3.74286V11.9955C3.74286 12.2548 3.84292 12.5035 4.02113 12.6872C4.19935 12.8709 4.44119 12.9746 4.69372 12.9756H5.32143C5.41994 12.9756 5.51442 13.0158 5.58407 13.0873C5.65373 13.1589 5.69286 13.2559 5.69286 13.357C5.69286 13.4582 5.65373 13.5552 5.58407 13.6267C5.51442 13.6982 5.41994 13.7384 5.32143 13.7384L5.32515 13.7422Z" fill="#1C1C1C"/>
<path d="M27.3211 26H24.6246C24.3734 26 24.1325 25.8975 23.9548 25.7151C23.7772 25.5328 23.6774 25.2854 23.6774 25.0275V23.5667H8.32629V25.0275C8.32629 25.2847 8.22701 25.5315 8.05019 25.7138C7.87337 25.8961 7.63341 25.999 7.38286 26H4.67886C4.4296 25.997 4.19154 25.8932 4.01632 25.7111C3.8411 25.5291 3.74284 25.2834 3.74286 25.0275V17.1518C3.7427 16.2476 3.94743 15.3558 4.34086 14.5469L7.59829 7.8383C7.86629 7.28503 8.27959 6.81971 8.79152 6.49488C9.30346 6.17004 9.89364 5.99864 10.4954 6.00001H21.5046C22.1059 5.99872 22.6956 6.16974 23.2074 6.49383C23.7192 6.81791 24.1328 7.28221 24.4017 7.83448L27.6666 14.5469C28.0574 15.3565 28.2596 16.2482 28.2571 17.1518V25.0275C28.2572 25.2834 28.1589 25.5291 27.9837 25.7111C27.8085 25.8932 27.5704 25.997 27.3211 26ZM7.95486 22.804H24.0489C24.1474 22.804 24.2418 22.8441 24.3115 22.9157C24.3811 22.9872 24.4203 23.0842 24.4203 23.1854V25.0275C24.4203 25.0831 24.4418 25.1364 24.4801 25.1758C24.5184 25.2151 24.5704 25.2372 24.6246 25.2372H27.3211C27.3747 25.2362 27.4257 25.2137 27.4632 25.1745C27.5007 25.1352 27.5217 25.0824 27.5217 25.0275V17.1518C27.5213 16.3655 27.3433 15.59 27.0017 14.8864L23.7369 8.18155C23.5299 7.7565 23.2119 7.399 22.8183 7.14909C22.4247 6.89918 21.9711 6.76674 21.5083 6.7666H10.4954C10.0327 6.76674 9.57905 6.89918 9.18544 7.14909C8.79184 7.399 8.47376 7.7565 8.26686 8.18155L4.99829 14.8864C4.65925 15.5907 4.4838 16.3661 4.48572 17.1518V25.0275C4.48571 25.0824 4.50672 25.1352 4.54423 25.1745C4.58174 25.2137 4.63276 25.2362 4.68629 25.2372H7.38286C7.43639 25.2362 7.4874 25.2137 7.52492 25.1745C7.56243 25.1352 7.58344 25.0824 7.58343 25.0275V23.1854C7.58343 23.0842 7.62256 22.9872 7.69222 22.9157C7.76188 22.8441 7.85635 22.804 7.95486 22.804Z" stroke="#1C1C1C" stroke-width="0.4"/>
<path d="M23.384 21.0305C22.9137 21.0305 22.4539 20.8873 22.0629 20.6189C21.6719 20.3505 21.3673 19.9691 21.1874 19.5228C21.0076 19.0766 20.9608 18.5856 21.0528 18.112C21.1448 17.6384 21.3716 17.2035 21.7044 16.8623C22.0372 16.5211 22.4611 16.2889 22.9225 16.1952C23.3839 16.1014 23.862 16.1503 24.2963 16.3356C24.7306 16.521 25.1016 16.8344 25.3623 17.2363C25.6231 17.6382 25.7619 18.1105 25.7611 18.5934C25.7601 19.2401 25.5093 19.86 25.0636 20.3169C24.6179 20.7739 24.0138 21.0305 23.384 21.0305ZM23.384 16.9153C23.0608 16.9153 22.7448 17.0138 22.476 17.1982C22.2073 17.3825 21.9978 17.6446 21.8741 17.9513C21.7504 18.2579 21.718 18.5953 21.7811 18.9208C21.8442 19.2463 21.9998 19.5454 22.2284 19.78C22.4569 20.0147 22.7481 20.1746 23.0652 20.2393C23.3822 20.3041 23.7108 20.2708 24.0094 20.1438C24.308 20.0168 24.5633 19.8017 24.7428 19.5257C24.9224 19.2498 25.0183 18.9253 25.0183 18.5934C25.0173 18.1487 24.8448 17.7224 24.5385 17.408C24.2322 17.0935 23.8171 16.9163 23.384 16.9153Z" stroke="#1C1C1C" stroke-width="0.4"/>
<path d="M8.616 21.0305C8.14569 21.0305 7.68595 20.8873 7.29495 20.6189C6.90395 20.3505 6.59927 19.9691 6.41946 19.5228C6.23965 19.0766 6.19279 18.5856 6.28481 18.112C6.37684 17.6384 6.60361 17.2035 6.93643 16.8623C7.26925 16.5211 7.69316 16.2889 8.15452 16.1952C8.61589 16.1014 9.09397 16.1503 9.52827 16.3356C9.96257 16.521 10.3336 16.8344 10.5943 17.2363C10.8551 17.6382 10.9939 18.1105 10.9931 18.5934C10.9922 19.2401 10.7413 19.86 10.2956 20.3169C9.84989 20.7739 9.24581 21.0305 8.616 21.0305ZM8.616 16.9153C8.29277 16.9153 7.9768 17.0138 7.70804 17.1982C7.43928 17.3825 7.22981 17.6446 7.10612 17.9513C6.98242 18.2579 6.95006 18.5953 7.01312 18.9208C7.07618 19.2463 7.23183 19.5454 7.46039 19.78C7.68895 20.0147 7.98015 20.1746 8.29717 20.2393C8.61419 20.3041 8.94279 20.2708 9.24141 20.1438C9.54004 20.0168 9.79528 19.8017 9.97486 19.5257C10.1544 19.2498 10.2503 18.9253 10.2503 18.5934C10.2503 18.1484 10.0781 17.7215 9.77161 17.4068C9.46513 17.0921 9.04944 16.9153 8.616 16.9153Z" stroke="#1C1C1C" stroke-width="0.4"/>
<path d="M24.7806 14.5927H7.14514C7.09134 14.593 7.03811 14.5813 6.98914 14.5584L5.17286 13.7079C5.12847 13.6871 5.08851 13.6575 5.05525 13.6209C5.02199 13.5842 4.99608 13.5412 4.97901 13.4943C4.96193 13.4474 4.95403 13.3975 4.95574 13.3474C4.95746 13.2973 4.96876 13.2481 4.989 13.2025C5.00925 13.157 5.03803 13.1159 5.07372 13.0818C5.10941 13.0476 5.1513 13.021 5.197 13.0035C5.2427 12.9859 5.29131 12.9778 5.34007 12.9796C5.38882 12.9814 5.43676 12.993 5.48115 13.0137L7.22686 13.8299H24.7025L26.5263 13.0099C26.6153 12.9756 26.7138 12.9776 26.8014 13.0156C26.889 13.0536 26.9591 13.1247 26.9972 13.2142C27.0353 13.3037 27.0385 13.4048 27.0062 13.4966C26.9739 13.5885 26.9084 13.6641 26.8234 13.7079L24.9143 14.5584C24.8724 14.5789 24.8269 14.5906 24.7806 14.5927Z" stroke="#1C1C1C" stroke-width="0.4"/>
<path d="M27.3063 13.7422H26.6786C26.5801 13.7422 26.4856 13.702 26.4159 13.6305C26.3463 13.559 26.3071 13.462 26.3071 13.3608C26.3071 13.2597 26.3463 13.1627 26.4159 13.0911C26.4856 13.0196 26.5801 12.9794 26.6786 12.9794H27.31C27.5625 12.9774 27.804 12.8727 27.9815 12.6883C28.159 12.5039 28.2581 12.2548 28.2571 11.9955V11.5149H25.594C25.4955 11.5149 25.401 11.4747 25.3313 11.4032C25.2617 11.3317 25.2226 11.2347 25.2226 11.1335C25.2226 11.0324 25.2617 10.9354 25.3313 10.8638C25.401 10.7923 25.4955 10.7521 25.594 10.7521H28.4503C28.5961 10.7521 28.7359 10.8116 28.839 10.9175C28.9421 11.0233 29 11.1669 29 11.3166V11.9955C29.0005 12.2243 28.9571 12.4511 28.8722 12.6627C28.7874 12.8744 28.6627 13.0668 28.5055 13.229C28.3482 13.3912 28.1613 13.52 27.9556 13.6081C27.7498 13.6961 27.5292 13.7417 27.3063 13.7422Z" stroke="#1C1C1C" stroke-width="0.4"/>
<path d="M5.32515 13.7422H4.69372C4.47081 13.7417 4.25018 13.6961 4.04442 13.6081C3.83867 13.52 3.65182 13.3912 3.49454 13.229C3.33727 13.0668 3.21264 12.8744 3.12779 12.6627C3.04294 12.4511 2.99952 12.2243 3 11.9955V11.3166C3 11.1669 3.05792 11.0233 3.16101 10.9175C3.2641 10.8116 3.40393 10.7521 3.54972 10.7521H6.406C6.50451 10.7521 6.59899 10.7923 6.66864 10.8638C6.7383 10.9354 6.77743 11.0324 6.77743 11.1335C6.77743 11.2347 6.7383 11.3317 6.66864 11.4032C6.59899 11.4747 6.50451 11.5149 6.406 11.5149H3.74286V11.9955C3.74286 12.2548 3.84292 12.5035 4.02113 12.6872C4.19935 12.8709 4.44119 12.9746 4.69372 12.9756H5.32143C5.41994 12.9756 5.51442 13.0158 5.58407 13.0873C5.65373 13.1589 5.69286 13.2559 5.69286 13.357C5.69286 13.4582 5.65373 13.5552 5.58407 13.6267C5.51442 13.6982 5.41994 13.7384 5.32143 13.7384L5.32515 13.7422Z" stroke="#1C1C1C" stroke-width="0.4"/>
</svg>
