<svg width="24" height="24" viewBox="0 0 24 24" fill="none" xmlns="http://www.w3.org/2000/svg">
<path d="M7.41667 11.25V7.58336C7.41667 6.36779 7.89955 5.202 8.75909 4.34246C9.61864 3.48292 10.7844 3.00003 12 3.00003C13.2156 3.00003 14.3814 3.48292 15.2409 4.34246C16.1004 5.202 16.5833 6.36779 16.5833 7.58336V11.25M5.58333 11.25H18.4167C19.4292 11.25 20.25 12.0708 20.25 13.0834V19.5C20.25 20.5126 19.4292 21.3334 18.4167 21.3334H5.58333C4.57081 21.3334 3.75 20.5126 3.75 19.5V13.0834C3.75 12.0708 4.57081 11.25 5.58333 11.25Z" stroke="#3D3D45" stroke-width="1.25" stroke-linecap="round" stroke-linejoin="round"/>
</svg>
