<svg width="48" height="48" viewBox="0 0 48 48" fill="none" xmlns="http://www.w3.org/2000/svg">
<path d="M26.6139 27.9208H33.505M33.505 27.9208L30.8911 25.3069M33.505 27.9208L30.8911 30.5346" stroke="#FF3636" stroke-width="1.25" stroke-linecap="round" stroke-linejoin="round"/>
<path d="M21.1487 24.0652V21.9802C21.1487 20.9303 21.9998 20.0792 23.0497 20.0792H42.2972C43.3471 20.0792 44.1982 20.9303 44.1982 21.9802V34.099C44.1982 35.1489 43.3471 36 42.2972 36H23.0497C21.9998 36 21.1487 35.1489 21.1487 34.099V31.947" stroke="white" stroke-width="1.25" stroke-linecap="round" stroke-linejoin="round"/>
<path d="M31.604 27.9208C21.489 27.9208 5.70299 27.9208 5.70299 27.9208C5.19882 27.9208 4.71529 27.7205 4.35879 27.364C4.00228 27.0075 3.802 26.524 3.802 26.0198V13.901C3.802 13.3968 4.00228 12.9133 4.35879 12.5568C4.71529 12.2003 5.19882 12 5.70299 12H24.9505C25.4547 12 25.9382 12.2003 26.2947 12.5568C26.6512 12.9133 26.8515 13.3968 26.8515 13.901V15.467" stroke="#FF3636" stroke-width="1.25" stroke-linecap="round" stroke-linejoin="round"/>
</svg>
