<svg width="24" height="24" viewBox="0 0 24 24" fill="none" xmlns="http://www.w3.org/2000/svg">
<path d="M7.5 4.21015L12 6.81015L16.5 4.21015M7.5 19.7901V14.6001L3 12.0001M21 12.0001L16.5 14.6001V19.7901M3.27 6.96015L12 12.0101L20.73 6.96015M12 22.0801V12.0001M21 16.0001V8.00015C20.9996 7.64942 20.9071 7.30496 20.7315 7.00131C20.556 6.69766 20.3037 6.44551 20 6.27015L13 2.27015C12.696 2.09461 12.3511 2.0022 12 2.0022C11.6489 2.0022 11.304 2.09461 11 2.27015L4 6.27015C3.69626 6.44551 3.44398 6.69766 3.26846 7.00131C3.09294 7.30496 3.00036 7.64942 3 8.00015V16.0001C3.00036 16.3509 3.09294 16.6953 3.26846 16.999C3.44398 17.3026 3.69626 17.5548 4 17.7301L11 21.7301C11.304 21.9057 11.6489 21.9981 12 21.9981C12.3511 21.9981 12.696 21.9057 13 21.7301L20 17.7301C20.3037 17.5548 20.556 17.3026 20.7315 16.999C20.9071 16.6953 20.9996 16.3509 21 16.0001Z" stroke="#1C1C1C" stroke-width="1.25" stroke-linecap="round" stroke-linejoin="round"/>
</svg>
