<svg width="16" height="16" viewBox="0 0 16 16" fill="none" xmlns="http://www.w3.org/2000/svg">
<mask id="path-1-inside-1_481_3256" fill="white">
<path fill-rule="evenodd" clip-rule="evenodd" d="M4.3481 2.24041C3.65067 2.54008 1.45393 3.82814 1.34613 4.00057C1.30109 4.07278 1.37802 4.68246 1.51737 5.35551C1.95871 7.48671 1.87098 7.32962 2.61852 7.32962H3.29014V10.6648V14.0001H8.01393H12.7377V10.6648V7.32962H13.4006H14.0634L14.2588 6.37075C14.3663 5.84328 14.5201 5.1117 14.6006 4.74483C14.7037 4.27473 14.687 4.02159 14.5437 3.88751C14.0061 3.38439 11.5072 2.12168 10.8862 2.03947C10.2434 1.95425 10.1299 2.00028 9.5134 2.59528C8.91736 3.1706 8.74747 3.24398 8.01393 3.24398C7.28562 3.24398 7.10916 3.1691 6.53876 2.61863C5.82395 1.92857 5.28864 1.83618 4.3481 2.24041Z"/>
</mask>
<path fill-rule="evenodd" clip-rule="evenodd" d="M4.3481 2.24041C3.65067 2.54008 1.45393 3.82814 1.34613 4.00057C1.30109 4.07278 1.37802 4.68246 1.51737 5.35551C1.95871 7.48671 1.87098 7.32962 2.61852 7.32962H3.29014V10.6648V14.0001H8.01393H12.7377V10.6648V7.32962H13.4006H14.0634L14.2588 6.37075C14.3663 5.84328 14.5201 5.1117 14.6006 4.74483C14.7037 4.27473 14.687 4.02159 14.5437 3.88751C14.0061 3.38439 11.5072 2.12168 10.8862 2.03947C10.2434 1.95425 10.1299 2.00028 9.5134 2.59528C8.91736 3.1706 8.74747 3.24398 8.01393 3.24398C7.28562 3.24398 7.10916 3.1691 6.53876 2.61863C5.82395 1.92857 5.28864 1.83618 4.3481 2.24041Z" stroke="#1C1C1C" stroke-width="2.5" mask="url(#path-1-inside-1_481_3256)"/>
</svg>
