<svg width="24" height="24" viewBox="0 0 24 24" fill="none" xmlns="http://www.w3.org/2000/svg">
<path d="M8.59 13.51L15.42 17.49M15.41 6.51003L8.59 10.49M21 5.00003C21 6.65688 19.6569 8.00003 18 8.00003C16.3431 8.00003 15 6.65688 15 5.00003C15 3.34318 16.3431 2.00003 18 2.00003C19.6569 2.00003 21 3.34318 21 5.00003ZM9 12C9 13.6569 7.65685 15 6 15C4.34315 15 3 13.6569 3 12C3 10.3432 4.34315 9.00003 6 9.00003C7.65685 9.00003 9 10.3432 9 12ZM21 19C21 20.6569 19.6569 22 18 22C16.3431 22 15 20.6569 15 19C15 17.3432 16.3431 16 18 16C19.6569 16 21 17.3432 21 19Z" stroke="#1C1C1C" stroke-width="1.25" stroke-linecap="round" stroke-linejoin="round"/>
</svg>
