<svg width="344" height="240" viewBox="0 0 344 240" fill="none" xmlns="http://www.w3.org/2000/svg">
<rect width="344" height="240" rx="12" fill="#F6F6F7"/>
<path d="M165 129H179C180.105 129 181 128.105 181 127V113C181 111.895 180.105 111 179 111H165C163.895 111 163 111.895 163 113V127C163 128.105 163.895 129 165 129ZM165 129L176 118L181 123M170 116.5C170 117.328 169.328 118 168.5 118C167.672 118 167 117.328 167 116.5C167 115.672 167.672 115 168.5 115C169.328 115 170 115.672 170 116.5Z" stroke="#999999" stroke-width="1.25" stroke-linecap="round" stroke-linejoin="round"/>
</svg>
