<svg width="16" height="16" viewBox="0 0 16 16" fill="none" xmlns="http://www.w3.org/2000/svg">
<path d="M9.80003 4.20003C9.67787 4.32465 9.60945 4.49219 9.60945 4.66669C9.60945 4.8412 9.67787 5.00874 9.80003 5.13336L10.8667 6.20003C10.9913 6.32218 11.1589 6.3906 11.3334 6.3906C11.5079 6.3906 11.6754 6.32218 11.8 6.20003L14.3134 3.68669C14.6486 4.42749 14.7501 5.25285 14.6043 6.05279C14.4586 6.85273 14.0725 7.58926 13.4975 8.16421C12.9226 8.73917 12.1861 9.12525 11.3861 9.271C10.5862 9.41675 9.76082 9.31525 9.02003 8.98003L4.41336 13.5867C4.14814 13.8519 3.78843 14.0009 3.41336 14.0009C3.03829 14.0009 2.67858 13.8519 2.41336 13.5867C2.14814 13.3215 1.99915 12.9618 1.99915 12.5867C1.99915 12.2116 2.14814 11.8519 2.41336 11.5867L7.02003 6.98003C6.6848 6.23923 6.5833 5.41387 6.72905 4.61393C6.87481 3.81399 7.26088 3.07746 7.83584 2.50251C8.4108 1.92755 9.14732 1.54147 9.94726 1.39572C10.7472 1.24997 11.5726 1.35147 12.3134 1.68669L9.80669 4.19336L9.80003 4.20003Z" stroke="#1C1C1C" stroke-width="1.25" stroke-linecap="round" stroke-linejoin="round"/>
</svg>
