<svg width="24" height="24" viewBox="0 0 24 24" fill="none" xmlns="http://www.w3.org/2000/svg">
<path d="M7.45936 17.5065C8.15558 17.9851 8.92251 18.3441 9.76015 18.5835C10.5978 18.8228 11.3974 18.9424 12.1589 18.9424C13.1745 18.9424 14.179 18.7466 15.1724 18.355C16.1658 17.9634 17.0977 17.3107 17.968 16.3969C18.3555 16.0053 18.7484 15.4559 19.1468 14.7488C19.5451 14.0417 19.8896 13.117 20.1803 11.9748C20.471 10.8325 20.6916 9.45098 20.8422 7.83009C20.9929 6.20919 21.0357 4.27826 20.9704 2.0373C19.9043 1.99378 18.6914 1.98834 17.3316 2.02098C15.9718 2.05362 14.612 2.17328 13.2521 2.37997C11.8923 2.58666 10.6196 2.8967 9.4338 3.31008C8.24805 3.72346 7.30706 4.27826 6.61083 4.97449C5.65353 5.93179 4.97906 6.93805 4.58744 7.99326C4.19581 9.04847 4 10.0221 4 10.9141C4 12.0673 4.23389 13.166 4.70166 14.2103C5.16944 15.2546 5.78407 16.0923 6.54556 16.7232M7.45936 17.5065C7.98152 15.5701 8.73214 13.9057 9.7112 12.5133C10.6903 11.1208 13.1379 9.15175 13.399 8.49911C13.6601 7.84648 9.78191 11.1045 8.74845 12.4643C7.715 13.8241 6.9807 15.2438 6.54556 16.7232M7.45936 17.5065L6.85007 16.9842M6.54556 16.7232L6.85007 16.9842M6.85007 16.9842L5.30542 22.2059" stroke="#1C1C1C" stroke-width="1.25" stroke-linecap="round"/>
</svg>
