<svg width="42" height="42" viewBox="0 0 42 42" fill="none" xmlns="http://www.w3.org/2000/svg">
<path d="M38.5764 11.4489C38.1745 10.7109 37.7275 10.0009 37.239 9.32285" stroke="#1ABC9C" stroke-width="2" stroke-linecap="round"/>
<path d="M21 0.999999C12.1343 0.999999 4.616 6.76857 1.99363 14.7571C1.3488 16.7214 0.999999 18.82 0.999999 21C0.999999 28.0099 4.60634 34.1774 10.0649 37.7486C13.2076 39.8046 16.9642 41 21 41C32.0457 41 41 32.0457 41 21" stroke="#1ABC9C" stroke-width="2" stroke-linecap="round"/>
<path d="M35.7015 7.44011C33.4178 4.96543 30.5172 3.06865 27.2439 1.99393" stroke="#1ABC9C" stroke-width="2" stroke-linecap="round"/>
<path fill-rule="evenodd" clip-rule="evenodd" d="M32.3431 13.8798C32.8313 14.3679 32.8313 15.1594 32.3431 15.6475L19.6202 28.3705C19.132 28.8586 18.3406 28.8586 17.8524 28.3705L11.8649 22.383C11.3767 21.8948 11.3767 21.1034 11.8649 20.6152C12.353 20.1271 13.1445 20.1271 13.6327 20.6152L18.7363 25.7188L30.5754 13.8798C31.0635 13.3916 31.855 13.3916 32.3431 13.8798Z" fill="#1ABC9C"/>
</svg>
