<svg width="40" height="40" viewBox="0 0 40 40" fill="none" xmlns="http://www.w3.org/2000/svg">
<rect width="40" height="40" rx="20" fill="#94BCFF"/>
<path d="M11.6582 17.5849C11.6582 17.5849 11.8747 17.6799 11.9088 17.6959L13.2518 18.3238H26.6964L28.25 17.5849M28.6995 18.2563C28.871 18.256 29.0407 18.2209 29.199 18.1532C29.3573 18.0854 29.501 17.9863 29.622 17.8615C29.743 17.7367 29.8389 17.5887 29.9042 17.4259C29.9695 17.263 30.0029 17.0886 30.0025 16.9125V16.3902C30.0025 16.2751 29.9579 16.1646 29.8786 16.0832C29.7993 16.0017 29.6917 15.956 29.5796 15.956H27.5107M11.303 18.2563C11.1315 18.256 10.9618 18.2209 10.8035 18.1532C10.6452 18.0854 10.5015 17.9863 10.3805 17.8615C10.2595 17.7367 10.1636 17.5887 10.0983 17.4259C10.033 17.263 9.99963 17.0886 10 16.9125V16.3902C10 16.2751 10.0446 16.1646 10.1239 16.0832C10.2032 16.0017 10.3108 15.956 10.4229 15.956H12.4491M28.7109 27.6866H26.6364C26.4431 27.6866 26.2578 27.6078 26.1211 27.4674C25.9845 27.3271 25.9077 27.1368 25.9077 26.9384V25.8146H14.0977V26.9384C14.0977 27.1363 14.0213 27.3262 13.8852 27.4664C13.7492 27.6066 13.5646 27.6858 13.3719 27.6866H11.2916C11.0998 27.6843 10.9167 27.6044 10.7819 27.4644C10.6471 27.3243 10.5715 27.1353 10.5715 26.9384V20.8794C10.5714 20.1838 10.7289 19.4977 11.0316 18.8754L13.5376 13.7143C13.7438 13.2887 14.0617 12.9307 14.4556 12.6808C14.8494 12.4309 15.3035 12.299 15.7664 12.3001H24.2361C24.6987 12.2991 25.1524 12.4306 25.5461 12.68C25.9399 12.9293 26.2581 13.2865 26.4649 13.7114L28.9767 18.8754C29.2774 19.4982 29.4329 20.1843 29.431 20.8794V26.9384C29.431 27.1353 29.3554 27.3243 29.2206 27.4644C29.0858 27.6044 28.9027 27.6843 28.7109 27.6866ZM25.6819 23.8634C25.3201 23.8634 24.9664 23.7532 24.6656 23.5467C24.3648 23.3403 24.1304 23.0468 23.9921 22.7035C23.8538 22.3602 23.8177 21.9825 23.8885 21.6182C23.9593 21.2538 24.1338 20.9192 24.3898 20.6567C24.6459 20.3942 24.972 20.2156 25.3269 20.1435C25.6819 20.0714 26.0497 20.109 26.3838 20.2515C26.7179 20.3941 27.0033 20.6353 27.2039 20.9445C27.4045 21.2537 27.5113 21.617 27.5107 21.9885C27.51 22.486 27.317 22.9629 26.9741 23.3145C26.6312 23.666 26.1665 23.8634 25.6819 23.8634ZM14.3205 23.8634C13.9587 23.8634 13.605 23.7532 13.3042 23.5467C13.0034 23.3403 12.769 23.0468 12.6307 22.7035C12.4923 22.3602 12.4563 21.9825 12.5271 21.6182C12.5979 21.2538 12.7724 20.9192 13.0284 20.6567C13.2844 20.3942 13.6106 20.2156 13.9655 20.1435C14.3205 20.0714 14.6883 20.109 15.0224 20.2515C15.3565 20.3941 15.6419 20.6353 15.8425 20.9445C16.0431 21.2537 16.1499 21.617 16.1493 21.9885C16.1486 22.486 15.9556 22.9629 15.6127 23.3145C15.2698 23.666 14.8051 23.8634 14.3205 23.8634Z" stroke="white" stroke-width="1.25"/>
</svg>
