<svg width="16" height="16" viewBox="0 0 16 16" fill="none" xmlns="http://www.w3.org/2000/svg">
<g clip-path="url(#clip0_481_3452)">
<path d="M0.666748 0.666626H3.33341L5.12008 9.59329C5.18104 9.90022 5.34802 10.1759 5.59178 10.3722C5.83554 10.5684 6.14055 10.6726 6.45341 10.6666H12.9334C13.2463 10.6726 13.5513 10.5684 13.7951 10.3722C14.0388 10.1759 14.2058 9.90022 14.2667 9.59329L15.3334 3.99996H4.00008M6.66675 14C6.66675 14.3681 6.36827 14.6666 6.00008 14.6666C5.63189 14.6666 5.33342 14.3681 5.33342 14C5.33342 13.6318 5.63189 13.3333 6.00008 13.3333C6.36827 13.3333 6.66675 13.6318 6.66675 14ZM14.0001 14C14.0001 14.3681 13.7016 14.6666 13.3334 14.6666C12.9652 14.6666 12.6667 14.3681 12.6667 14C12.6667 13.6318 12.9652 13.3333 13.3334 13.3333C13.7016 13.3333 14.0001 13.6318 14.0001 14Z" stroke="#1C1C1C" stroke-width="1.25" stroke-linecap="round" stroke-linejoin="round"/>
</g>
<defs>
<clipPath id="clip0_481_3452">
<rect width="16" height="16" fill="white"/>
</clipPath>
</defs>
</svg>
