<svg width="48" height="48" viewBox="0 0 48 48" fill="none" xmlns="http://www.w3.org/2000/svg">
<path d="M23.3984 29.1002H32.1203M32.1203 29.1002L28.812 25.8002M32.1203 29.1002L28.812 32.4002" stroke="#FF3636" stroke-width="1.25" stroke-linecap="round" stroke-linejoin="round"/>
<path d="M25.0479 18.8999H16.326M16.326 18.8999L19.6343 15.5999M16.326 18.8999L19.6343 22.1999" stroke="white" stroke-width="1.25" stroke-linecap="round" stroke-linejoin="round"/>
<path d="M28.3609 29.1C15.5588 29.1 6.40602 29.1 6.40602 29.1C5.7679 29.1 5.15592 28.8471 4.70471 28.397C4.25349 27.947 4 27.3365 4 26.7V11.4C4 10.7635 4.25349 10.153 4.70471 9.70294C5.15592 9.25286 5.7679 9 6.40602 9H31.6692C32.3073 9 32.9193 9.25286 33.3705 9.70294C33.8218 10.153 34.0752 10.7635 34.0752 11.4V12.6" stroke="#FF3636" stroke-width="1.25" stroke-linecap="round" stroke-linejoin="round"/>
<path d="M19.6391 18.9C32.4412 18.9 41.594 18.9 41.594 18.9C42.2321 18.9 42.8441 19.1529 43.2953 19.603C43.7465 20.053 44 20.6635 44 21.3V36.6C44 37.2365 43.7465 37.847 43.2953 38.2971C42.8441 38.7471 42.2321 39 41.594 39H16.3308C15.6927 39 15.0807 38.7471 14.6295 38.2971C14.1782 37.847 13.9248 37.2365 13.9248 36.6V35.4" stroke="white" stroke-width="1.25" stroke-linecap="round" stroke-linejoin="round"/>
</svg>
