<svg width="33" height="32" viewBox="0 0 33 32" fill="none" xmlns="http://www.w3.org/2000/svg">
<path fill-rule="evenodd" clip-rule="evenodd" d="M23.2983 17.581C23.2983 16.2708 22.2361 15.2087 20.9259 15.2087C19.6157 15.2087 18.5535 16.2708 18.5535 17.581V17.6285H14.3545V17.581C14.3677 16.3764 13.4886 15.3474 12.2967 15.1722C11.1049 14.9971 9.96693 15.7297 9.63304 16.8872C9.29915 18.0447 9.87204 19.2709 10.9741 19.7574C12.0762 20.244 13.3682 19.8412 13.9986 18.8147H18.8975C19.4424 19.7437 20.5446 20.1891 21.5819 19.8995C22.6192 19.6099 23.3313 18.6579 23.3161 17.581H23.2983ZM11.9525 18.7672C11.2973 18.7672 10.7663 18.2361 10.7663 17.581C10.7663 16.9259 11.2973 16.3948 11.9525 16.3948C12.6076 16.3948 13.1386 16.9259 13.1386 17.581C13.1434 17.8997 13.0197 18.2069 12.7955 18.4334C12.5712 18.6599 12.2653 18.7866 11.9465 18.785L11.9525 18.7672ZM19.7278 17.581C19.7278 18.2361 20.2589 18.7672 20.914 18.7672L20.9259 18.785C21.2415 18.7819 21.5429 18.6531 21.7633 18.4271C21.9837 18.2011 22.1049 17.8967 22.1002 17.581C22.1002 16.9259 21.5691 16.3948 20.914 16.3948C20.2589 16.3948 19.7278 16.9259 19.7278 17.581Z" fill="#1C1C1C"/>
<path d="M27.4499 19.1409L26.3764 12.4686C26.2629 11.7295 25.8781 11.0592 25.297 10.5885C24.7322 10.1202 23.9934 9.91712 23.2686 10.031C22.7246 10.1197 22.2245 10.3842 21.8452 10.7842H11.0213C10.6419 10.3842 10.1419 10.1197 9.59788 10.031C8.87312 9.9179 8.13465 10.1209 7.5695 10.5885C6.98844 11.0592 6.6036 11.7295 6.49008 12.4686L5.41658 19.1409C5.292 19.8778 5.44635 20.6348 5.84954 21.2641C6.24139 21.9 6.89118 22.3332 7.62881 22.4503C7.76027 22.4707 7.89315 22.4806 8.02618 22.48C9.1612 22.4514 10.1633 21.7316 10.5528 20.6651C10.6312 20.4681 10.5985 20.2441 10.467 20.0777C10.3356 19.9113 10.1253 19.8276 9.91543 19.8583C9.70558 19.8889 9.528 20.0292 9.4496 20.2262C9.21243 20.9099 8.53911 21.3433 7.8186 21.276C7.42733 21.2067 7.08424 20.9736 6.87559 20.6355C6.63154 20.2538 6.5385 19.795 6.61463 19.3484L7.68812 12.6762C7.75494 12.2296 7.98535 11.8237 8.33459 11.5374C8.6387 11.2808 9.03797 11.1665 9.43181 11.2231C10.2872 11.4339 10.8153 12.292 10.618 13.1506C10.5841 13.3625 10.6658 13.5764 10.8324 13.7117C10.9989 13.847 11.225 13.8832 11.4254 13.8066C11.6259 13.73 11.7703 13.5523 11.8042 13.3404C11.8735 12.8902 11.8411 12.4302 11.7093 11.9941H21.1987C21.0669 12.4302 21.0345 12.8902 21.1038 13.3404C21.1377 13.5523 21.2821 13.73 21.4826 13.8066C21.683 13.8832 21.9091 13.847 22.0757 13.7117C22.2422 13.5764 22.3239 13.3625 22.29 13.1506C22.0928 12.292 22.6208 11.4339 23.4762 11.2231C23.8701 11.1657 24.2697 11.2802 24.5734 11.5374C24.9227 11.8237 25.1531 12.2296 25.2199 12.6762L26.2934 19.3484C26.3689 19.795 26.2759 20.2536 26.0324 20.6355C25.8238 20.9736 25.4807 21.2067 25.0894 21.276C24.3689 21.3433 23.6956 20.9099 23.4584 20.2262C23.38 20.0292 23.2024 19.8889 22.9926 19.8583C22.7827 19.8276 22.5725 19.9113 22.441 20.0777C22.3095 20.2441 22.2769 20.4681 22.3553 20.6651C22.7447 21.7316 23.7468 22.4514 24.8818 22.48C25.0149 22.4806 25.1477 22.4707 25.2792 22.4503C26.0168 22.3332 26.6666 21.9 27.0585 21.2641C27.4473 20.6292 27.5868 19.8727 27.4499 19.1409Z" fill="#1C1C1C"/>
</svg>
