<svg width="24" height="24" viewBox="0 0 24 24" fill="none" xmlns="http://www.w3.org/2000/svg">
<path d="M16.1866 8.44705V10.8605M16.1866 10.8605H13.7731M16.1866 10.8605L14.3242 9.10673C13.7694 8.55153 13.0491 8.19171 12.2719 8.08147C11.4948 7.97124 10.7029 8.11658 10.0155 8.49558C9.32818 8.87458 8.78262 9.46672 8.46108 10.1828C8.13953 10.8988 8.05942 11.6999 8.23281 12.4655C8.4062 13.231 8.82369 13.9194 9.42239 14.427C10.0211 14.9346 10.7685 15.2339 11.5521 15.2798C12.3357 15.3256 13.113 15.1155 13.7668 14.6812C14.4206 14.2469 14.9155 13.6118 15.177 12.8717M4.66636 5.00023H19.6636C20.5839 5.00023 21.33 5.74629 21.33 6.66659V16.6648C21.33 17.5851 20.5839 18.3311 19.6636 18.3311H4.66636C3.74606 18.3311 3 17.5851 3 16.6648V6.66659C3 5.74629 3.74606 5.00023 4.66636 5.00023Z" stroke="#1C1C1C" stroke-width="1.25" stroke-linecap="round" stroke-linejoin="round"/>
</svg>
