<svg width="24" height="24" viewBox="0 0 24 24" fill="none" xmlns="http://www.w3.org/2000/svg">
<path d="M21 4.53638C21 6.89451 21 9.24836 21 11.637C20.8279 11.3815 20.6843 11.1598 20.5319 10.9434C19.2649 9.14413 17.6789 7.64175 15.5343 6.7007C14.3938 6.20022 13.2552 5.90783 12.1218 5.82073C10.3458 5.68424 8.58233 6.05181 6.84343 6.91263C4.80037 7.924 3.29786 9.44105 2.10091 11.2246C2.07701 11.2603 2.05175 11.2951 2.00012 11.3691C2.00012 8.97699 2.00012 6.61502 2.00012 4.24572C2.00012 3.83077 2.54819 3 3.59885 3C8.87589 3 14.1509 3 19.4469 3C20.4062 3 21 3.58133 21 4.53638Z" fill="#FF3636"/>
<path d="M20.9949 15.0794C18.2859 12.4872 15.1979 10.8408 11.4903 10.8976C7.82979 10.9537 4.69283 12.4663 2.00118 15.0889C2.00118 14.5643 1.99641 14.0861 2.00606 13.6082C2.00763 13.5315 2.06358 13.4486 2.11127 13.3813C4.04883 10.6465 6.58056 8.85268 9.8527 8.32188C12.7717 7.84837 15.4491 8.56695 17.8755 10.2914C19.0336 11.1145 20.0127 12.1318 20.8311 13.3103C20.9258 13.4468 20.9784 13.6392 20.9876 13.8093C21.01 14.2186 20.9949 14.63 20.9949 15.0794Z" fill="#FF3636"/>
<path d="M20.9951 18.5455C14.654 16.0156 8.34752 16.0153 2.00327 18.5429C2.00327 18.1049 1.99082 17.653 2.0145 17.2028C2.01887 17.1197 2.16006 17.0314 2.25411 16.9657C3.80586 15.8827 5.54138 15.174 7.40743 14.7323C8.73427 14.4182 10.0874 14.2002 11.4487 14.2297C14.8297 14.3029 18.0017 15.0674 20.7797 16.9848C20.9397 17.0952 21.0066 17.2146 20.9993 17.4022C20.9848 17.7795 20.9951 18.1576 20.9951 18.5455Z" fill="#FF3636"/>
<path d="M19.584 22C14.2608 22 8.96522 22 3.64484 22C2.32018 22 1.98539 21.3861 2.00048 20.91C2.00228 20.8532 2.12474 20.4145 2.19812 20.3985C3.01769 20.2201 3.83457 20.021 4.66183 19.8886C7.45804 19.4412 10.2775 19.3521 13.101 19.4386C15.6223 19.5158 18.1292 19.7463 20.5854 20.379C20.8879 20.457 21.0284 20.5624 20.995 20.9001C20.9603 21.2528 20.9999 22 19.584 22Z" fill="#FF3636"/>
</svg>
