<svg width="24" height="24" viewBox="0 0 24 24" fill="none" xmlns="http://www.w3.org/2000/svg">
<path d="M2.34229 6.42662C2.34229 4.16227 4.1779 2.32666 6.44224 2.32666H17.7171C19.9815 2.32666 21.8171 4.16227 21.8171 6.42662V10.0937C21.8171 10.3701 21.3731 10.4873 21.2207 10.2566C20.0826 8.53399 17.2311 5.2735 11.9516 5.2735C6.7909 5.2735 4.08273 8.38883 2.96889 10.138C2.81762 10.3755 2.34229 10.2593 2.34229 9.97773V6.42662Z" fill="#1C1C1C"/>
<path d="M2.34229 13.982V14.2375C2.34229 14.4694 2.63342 14.5928 2.80448 14.4362C4.0433 13.3017 7.64674 10.7028 12.0797 10.7028C16.5126 10.7028 20.1161 13.3017 21.3549 14.4362C21.526 14.5928 21.8171 14.4694 21.8171 14.2375V13.982C21.8171 13.4825 21.6777 12.9946 21.371 12.6002C20.2336 11.1373 16.9652 7.88403 12.0797 7.88403C7.19419 7.88403 3.92579 11.1373 2.78833 12.6002C2.48171 12.9946 2.34229 13.4825 2.34229 13.982Z" fill="#FF3636"/>
<path d="M2.34229 17.2058V17.9442C2.34229 18.1305 2.53364 18.2587 2.70667 18.1895C3.84359 17.7347 7.5235 16.4203 12.0797 16.4203C16.6359 16.4203 20.3158 17.7347 21.4527 18.1895C21.6257 18.2587 21.8171 18.1305 21.8171 17.9442V17.2058C21.8171 16.8716 21.6652 16.5578 21.3844 16.3766C20.2593 15.6506 16.9844 13.8578 12.0797 13.8578C7.17494 13.8578 3.90006 15.6506 2.77498 16.3766C2.49418 16.5578 2.34229 16.8716 2.34229 17.2058Z" fill="#FF3636"/>
<path d="M5.44169 21.6733H18.5189C19.6129 21.6733 20.6286 21.1058 21.202 20.1741C21.2508 20.0947 21.207 19.9918 21.1149 19.9772C20.1251 19.8199 15.4641 19.1091 12.0794 19.1109C8.68407 19.1127 3.99289 19.8442 3.124 19.9846C3.05234 19.9962 3.01262 20.0727 3.04304 20.1386C3.47485 21.0742 4.41125 21.6733 5.44169 21.6733Z" fill="#FF3636"/>
</svg>
