<svg width="32" height="32" viewBox="0 0 32 32" fill="none" xmlns="http://www.w3.org/2000/svg">
<path d="M16.0002 3C15.7706 3 15.5653 3.14549 15.4892 3.36232C15.413 3.57921 15.4818 3.82093 15.6616 3.96484L18.3699 6.13153C18.6048 6.31825 18.9444 6.28123 19.1317 6.04687C19.3178 5.81308 19.2808 5.47239 19.047 5.28516L17.6939 4.20341C23.4661 5.02861 27.9169 10.0041 27.9169 16C27.9169 19.9297 25.9798 23.605 22.735 25.832C22.4885 26.0013 22.4261 26.3382 22.5954 26.5847C22.7002 26.7381 22.8694 26.8201 23.0419 26.8201C23.1476 26.8201 23.2545 26.7894 23.3487 26.7249C26.8875 24.2964 29.0002 20.2868 29.0002 16C29.0002 8.83192 23.1688 3 16.0002 3Z" fill="#1C1C1C" stroke="#1C1C1C" stroke-width="0.25"/>
<path d="M16.3385 28.0351L13.6302 25.8685C13.3964 25.6833 13.0558 25.7193 12.8685 25.9531C12.6823 26.1869 12.7193 26.5276 12.9531 26.7148L14.3062 27.7966C8.53409 26.9714 4.08332 21.9959 4.08332 16C4.08332 12.0703 6.02042 8.39497 9.26514 6.16745C9.51163 5.9982 9.57404 5.66121 9.40478 5.41421C9.23655 5.16772 8.90012 5.10582 8.65155 5.27456C5.1127 7.70358 3 11.7132 3 16C3 23.1681 8.83136 29 16 29C16.2296 29 16.4348 28.8545 16.511 28.6377C16.5872 28.4208 16.5184 28.179 16.3385 28.0351Z" fill="#1C1C1C" stroke="#1C1C1C" stroke-width="0.25"/>
<path d="M15.4584 12.2083H18.7084C19.0078 12.2083 19.2501 11.966 19.2501 11.6666C19.2501 11.3672 19.0078 11.1249 18.7084 11.1249H16.5417V10.0416C16.5417 9.74219 16.2994 9.49991 16 9.49991C15.7006 9.49991 15.4583 9.74219 15.4583 10.0416V11.125C13.9646 11.125 12.7501 12.34 12.7501 13.8333C12.7501 15.3265 13.9646 16.5416 15.4584 16.5416H16.5417C17.4378 16.5416 18.1667 17.2705 18.1667 18.1666C18.1667 19.0627 17.4378 19.7916 16.5417 19.7916H13.2917C12.9923 19.7916 12.75 20.0339 12.75 20.3333C12.75 20.6327 12.9923 20.875 13.2917 20.875H15.4584V21.9583C15.4584 22.2577 15.7006 22.5 16.0001 22.5C16.2995 22.5 16.5417 22.2577 16.5417 21.9583V20.875C18.0355 20.875 19.2501 19.6599 19.2501 18.1666C19.2501 16.6734 18.0355 15.4583 16.5417 15.4583H15.4584C14.5623 15.4583 13.8334 14.7294 13.8334 13.8333C13.8334 12.9372 14.5623 12.2083 15.4584 12.2083Z" fill="#1C1C1C" stroke="#1C1C1C" stroke-width="0.25"/>
</svg>
