<svg width="24" height="24" viewBox="0 0 24 24" fill="none" xmlns="http://www.w3.org/2000/svg">
<path d="M2.25 7.7505V5.75025C2.25 5.21975 2.46074 4.71098 2.83586 4.33586C3.21098 3.96074 3.71975 3.75 4.25025 3.75H20.2523C20.7828 3.75 21.2915 3.96074 21.6666 4.33586C22.0418 4.71098 22.2525 5.21975 22.2525 5.75025V17.7517C22.2525 18.2822 22.0418 18.791 21.6666 19.1661C21.2915 19.5413 20.7828 19.752 20.2523 19.752H13.1643M9.75094 19.752L6.00047 17.2517L2.25 19.752V11.751C2.25 11.4858 2.3629 11.2314 2.56385 11.0438C2.76481 10.8563 3.03737 10.7509 3.32156 10.7509H8.67937C8.96357 10.7509 9.23613 10.8563 9.43708 11.0438C9.63804 11.2314 9.75094 11.4858 9.75094 11.751V19.752Z" stroke="#1C1C1C" stroke-width="1.25" stroke-linecap="round" stroke-linejoin="round"/>
</svg>
