<svg width="32" height="32" viewBox="0 0 32 32" fill="none" xmlns="http://www.w3.org/2000/svg">
<rect width="32" height="32" rx="16" fill="#333332"/>
<rect width="32" height="32" rx="16" fill="url(#paint0_linear_14081_15191)"/>
<g clip-path="url(#clip0_14081_15191)">
<path d="M22.6181 10.5894C23.0269 11.1251 23.373 11.7071 23.6494 12.3237L15.8093 18.1808L12.5327 16.0992V13.595L15.8093 15.6766L22.6181 10.5894Z" fill="white"/>
<path d="M9.18861 15.9224C9.18861 15.81 9.19131 15.6984 9.19672 15.5874L7.21101 15.4888C7.20425 15.6326 7.2002 15.7778 7.2002 15.9244C7.19935 17.0696 7.42161 18.2036 7.85423 19.2615C8.28684 20.3194 8.92129 21.2803 9.72119 22.0891L11.1297 20.6623C10.514 20.0408 10.0255 19.3021 9.69239 18.4887C9.35927 17.6752 9.18806 16.8031 9.18861 15.9224Z" fill="white"/>
<path d="M15.8074 9.21473C15.9183 9.21473 16.0284 9.21884 16.1379 9.22432L16.2372 7.21121C16.0949 7.20436 15.9516 7.20093 15.8074 7.20093C14.6769 7.19954 13.5573 7.42446 12.5129 7.86279C11.4684 8.30112 10.5197 8.94423 9.72119 9.75517L11.1297 11.1826C11.743 10.5584 12.472 10.0632 13.2747 9.72548C14.0775 9.38776 14.9382 9.21418 15.8074 9.21473Z" fill="white"/>
<path d="M15.8075 22.63C15.6966 22.63 15.5864 22.63 15.4763 22.6211L15.377 24.6336C15.5198 24.6409 15.6633 24.6446 15.8075 24.6446C16.9375 24.6457 18.0565 24.4207 19.1004 23.9822C20.1443 23.5438 21.0924 22.9006 21.8903 22.0896L20.4845 20.6628C19.8711 21.2867 19.1422 21.7817 18.3396 22.1193C17.537 22.4569 16.6765 22.6305 15.8075 22.63Z" fill="white"/>
<path d="M19.5382 10.3851L21.2117 9.13499C19.6821 7.87976 17.7728 7.19647 15.8047 7.19996V9.21445C17.1374 9.21277 18.4392 9.62095 19.5382 10.3851Z" fill="white"/>
<path d="M24.4142 15.9222C24.4153 15.3982 24.37 14.875 24.279 14.3591L22.4265 15.7428C22.4265 15.8024 22.4265 15.862 22.4265 15.9222C22.4269 16.8595 22.2331 17.7863 21.8575 18.6428C21.4819 19.4992 20.9329 20.2661 20.2461 20.8937L21.5823 22.3904C22.4752 21.5735 23.1887 20.5756 23.6765 19.4613C24.1644 18.347 24.4157 17.1413 24.4142 15.9222Z" fill="white"/>
<path d="M15.8075 22.6304C14.8827 22.6307 13.9681 22.4341 13.1229 22.0535C12.2778 21.6729 11.5209 21.1165 10.9014 20.4207L9.42529 21.7741C10.2312 22.6792 11.2159 23.4024 12.3154 23.8969C13.4148 24.3914 14.6046 24.6463 15.8075 24.6448V22.6304Z" fill="white"/>
<path d="M11.369 10.9508L10.0334 9.4541C9.14033 10.2708 8.42658 11.2687 7.93849 12.383C7.4504 13.4973 7.19886 14.7031 7.2002 15.9222H9.18861C9.1882 14.985 9.38208 14.0582 9.75768 13.2017C10.1333 12.3453 10.6822 11.5784 11.369 10.9508Z" fill="white"/>
</g>
<defs>
<linearGradient id="paint0_linear_14081_15191" x1="32" y1="3.94063" x2="-9.50086" y2="26.6308" gradientUnits="userSpaceOnUse">
<stop stop-color="#058EE1"/>
<stop offset="0.833934" stop-color="#F1E813"/>
<stop offset="1" stop-color="#21A038"/>
</linearGradient>
<clipPath id="clip0_14081_15191">
<rect width="17.6" height="17.6" fill="white" transform="translate(7.2002 7.19995)"/>
</clipPath>
</defs>
</svg>
