<svg width="16" height="16" viewBox="0 0 16 16" fill="none" xmlns="http://www.w3.org/2000/svg">
<path d="M1.33093 3.99378V6.66045M1.33093 6.66045H3.9976M1.33093 6.66045L4.42427 3.75378C5.34487 2.83473 6.53923 2.23976 7.82738 2.05853C9.11553 1.87729 10.4277 2.1196 11.5662 2.74896C12.7046 3.37831 13.6077 4.36061 14.1393 5.54785C14.671 6.73509 14.8024 8.06295 14.5137 9.33136C14.2251 10.5998 13.5321 11.74 12.539 12.5803C11.546 13.4206 10.3068 13.9153 9.00808 13.9901C7.70939 14.0648 6.42158 13.7155 5.3387 12.9947C4.25582 12.2739 3.43653 11.2207 3.00427 9.99378" stroke="#1C1C1C" stroke-width="1.25" stroke-linecap="round" stroke-linejoin="round"/>
<path d="M6.00012 8.27826H6.47384H6.94756L7.88647 8.27924L8.69094 8.27595C9.56205 8.27238 9.55671 8.27263 9.80696 8.2245C10.3535 8.1194 10.7718 7.86876 11.0402 7.48558C11.1025 7.39666 11.1982 7.20952 11.2326 7.10966C11.295 6.92798 11.3249 6.75953 11.3322 6.5493C11.3478 6.09662 11.2203 5.69042 10.9604 5.36494C10.9048 5.29527 10.7697 5.16326 10.6954 5.1059C10.4019 4.87957 10.0668 4.75125 9.59784 4.68563C9.50456 4.67257 9.38158 4.67104 8.22149 4.66846L7.41702 4.66667V11.3333M6.00012 9.82551C7.26679 9.82471 9.24362 9.82347 9.24362 9.82347" stroke="#1C1C1C" stroke-width="1.25" stroke-linecap="round" stroke-linejoin="round"/>
</svg>
