<svg width="16" height="16" viewBox="0 0 16 16" fill="none" xmlns="http://www.w3.org/2000/svg">
<path d="M1.33081 3.99378V6.66045M1.33081 6.66045H3.99748M1.33081 6.66045L4.42414 3.75378C5.34475 2.83473 6.53911 2.23976 7.82726 2.05853C9.11541 1.87729 10.4276 2.1196 11.566 2.74896C12.7045 3.37831 13.6076 4.36061 14.1392 5.54785C14.6709 6.73509 14.8023 8.06295 14.5136 9.33136C14.225 10.5998 13.5319 11.74 12.5389 12.5803C11.5459 13.4206 10.3066 13.9153 9.00795 13.9901C7.70927 14.0648 6.42146 13.7155 5.33858 12.9947C4.2557 12.2739 3.43641 11.2207 3.00414 9.99378" stroke="#1C1C1C" stroke-width="1.25" stroke-linecap="round" stroke-linejoin="round"/>
<path d="M5.99976 8.27826H6.47348H6.9472L7.8861 8.27924L8.69058 8.27595C9.56168 8.27238 9.55634 8.27263 9.80659 8.2245C10.3531 8.1194 10.7714 7.86876 11.0398 7.48558C11.1021 7.39666 11.1979 7.20952 11.2322 7.10966C11.2946 6.92798 11.3246 6.75953 11.3318 6.5493C11.3474 6.09662 11.2199 5.69042 10.9601 5.36494C10.9045 5.29527 10.7694 5.16326 10.695 5.1059C10.4015 4.87957 10.0664 4.75125 9.59747 4.68563C9.5042 4.67257 9.38121 4.67104 8.22112 4.66846L7.41665 4.66667V11.3333M5.99976 9.82551C7.26642 9.82471 9.24325 9.82347 9.24325 9.82347" stroke="#1C1C1C" stroke-width="1.25" stroke-linecap="round" stroke-linejoin="round"/>
</svg>
