<svg width="24" height="24" viewBox="0 0 24 24" fill="none" xmlns="http://www.w3.org/2000/svg">
<g clip-path="url(#clip0_21_10468)">
<path d="M1.00012 1.00012L23.0001 23.0001M15.2801 15.2801C14.9482 15.7652 14.5135 16.1711 14.0069 16.4691C13.5003 16.7671 12.9343 16.9497 12.3491 17.0041C11.7639 17.0585 11.1739 16.9832 10.621 16.7837C10.0682 16.5842 9.56613 16.2653 9.15054 15.8497C8.73495 15.4341 8.41605 14.932 8.21653 14.3792C8.017 13.8264 7.94175 13.2364 7.99613 12.6512C8.05051 12.066 8.23318 11.4999 8.53115 10.9933C8.82912 10.4867 9.23507 10.052 9.72012 9.72012M21.0001 21.0001H3.00012C2.46969 21.0001 1.96098 20.7894 1.58591 20.4143C1.21084 20.0393 1.00012 19.5306 1.00012 19.0001V8.00012C1.00012 7.46969 1.21084 6.96098 1.58591 6.58591C1.96098 6.21084 2.46969 6.00012 3.00012 6.00012H6.00012L21.0001 21.0001ZM9.00012 3.00012H15.0001L17.0001 6.00012H21.0001C21.5306 6.00012 22.0393 6.21084 22.4143 6.58591C22.7894 6.96098 23.0001 7.46969 23.0001 8.00012V17.3401L9.00012 3.00012Z" stroke="#1C1C1C" stroke-width="1.25" stroke-linecap="round" stroke-linejoin="round"/>
</g>
<defs>
<clipPath id="clip0_21_10468">
<rect width="24" height="24" fill="white"/>
</clipPath>
</defs>
</svg>
