<svg width="16" height="16" viewBox="0 0 16 16" fill="none" xmlns="http://www.w3.org/2000/svg">
<g clip-path="url(#clip0_481_3253)">
<path d="M12.3315 2.71576C12.7161 2.52001 12.9571 2.45291 13.1121 2.49843C13.2226 2.53086 13.2543 2.5687 13.2789 2.69793C13.322 2.9238 13.117 3.41368 12.7347 3.99856C12.5719 4.24767 12.46 4.37969 11.9635 4.9081C11.2565 5.66058 10.5976 6.38332 10.2579 6.7789C10.0623 7.00669 10.0048 7.08937 10.0061 7.14107C10.007 7.17795 10.2459 8.65054 10.5371 10.4135C11.1395 14.0617 11.1157 13.7083 10.7843 14.0818C10.6627 14.2188 10.5988 14.2767 10.5936 14.2545C10.5892 14.2361 10.2286 13.4256 9.79223 12.4534L8.99878 10.6857L8.46897 9.88505C8.06063 9.26798 7.92404 9.07876 7.8732 9.05974C7.80783 9.03529 7.80175 9.04031 7.18653 9.62716C6.50125 10.2809 6.15728 10.5834 5.74305 10.8967L5.46739 11.1051L5.47903 11.2119C5.48545 11.2707 5.57756 11.7027 5.68372 12.172C5.90242 13.1388 5.90777 13.0529 5.60727 13.3976L5.42189 13.6103L5.38558 13.5513C4.70267 12.4422 4.36509 11.9109 4.34379 11.9117L3.85332 11.4378C3.86035 11.4079 3.06472 10.8955 2.2208 10.3862L2.15988 10.3494L2.37404 10.1616C2.49185 10.0583 2.62452 9.95623 2.66892 9.93479C2.73466 9.90303 2.90801 9.93146 3.60317 10.0879C4.07262 10.1936 4.50562 10.2851 4.5654 10.2914L4.67412 10.3027L4.79838 10.1303C5.13474 9.66354 5.73167 8.98679 6.38067 8.33649C6.74099 7.97544 6.74139 7.97491 6.71504 7.90446C6.69378 7.84761 6.53343 7.73119 5.88804 7.30412L5.08739 6.7743L3.3197 5.98085C2.3475 5.54445 1.53702 5.18387 1.51871 5.17954C1.4587 5.16538 1.90478 4.78791 2.03371 4.74371C2.1306 4.7105 2.64033 4.78571 5.41053 5.24182L8.67323 5.77903L8.79741 5.68192C9.00974 5.51588 10.1577 4.47375 10.7135 3.94256C11.4338 3.25404 11.7602 3.00654 12.3315 2.71576Z" stroke="#1C1C1C" stroke-width="1.25"/>
</g>
<defs>
<clipPath id="clip0_481_3253">
<rect width="16" height="16" fill="white"/>
</clipPath>
</defs>
</svg>
