<svg width="24" height="24" viewBox="0 0 24 24" fill="none" xmlns="http://www.w3.org/2000/svg">
<path d="M20.855 4.29529C20.855 6.23563 20.855 8.17285 20.855 10.132C20.855 10.3671 20.5541 10.4576 20.4187 10.2655V10.2655C19.238 8.58891 17.76 7.18894 15.7615 6.31205C14.6987 5.84569 13.6377 5.57324 12.5814 5.49208C10.9264 5.36489 9.28299 5.7074 7.66252 6.50953C5.75859 7.45195 4.35841 8.86558 3.24297 10.5276V10.5276C3.21483 10.5695 3.14905 10.5485 3.14905 10.498C3.14905 8.32506 3.14905 6.178 3.14905 4.02444C3.14905 3.63778 3.6598 2.86365 4.63889 2.86365C9.55656 2.86365 14.4724 2.86365 19.4077 2.86365C20.3017 2.86365 20.855 3.40535 20.855 4.29529Z" stroke="#1C1C1C" stroke-width="1.25"/>
<path d="M20.8503 14.1211C18.3258 11.7056 15.4481 10.1714 11.9931 10.2243C8.58182 10.2766 5.65849 11.6861 3.15015 14.1299" stroke="#1C1C1C" stroke-width="1.25"/>
<path d="M20.8505 17.3499C14.9412 14.9925 9.06429 14.9922 3.1521 17.3475" stroke="#1C1C1C" stroke-width="1.25"/>
<path d="M20.103 20.5697C14.6304 20.5697 9.18623 20.5697 3.71655 20.5697" stroke="#1C1C1C" stroke-width="1.25"/>
<circle cx="3.71704" cy="20.5698" r="0.5" fill="#1C1C1C" stroke="#1C1C1C" stroke-width="0.25"/>
<circle cx="20.103" cy="20.5698" r="0.5" fill="#1C1C1C" stroke="#1C1C1C" stroke-width="0.25"/>
<circle cx="3.1521" cy="17.35" r="0.5" fill="#1C1C1C" stroke="#1C1C1C" stroke-width="0.25"/>
<circle cx="20.8505" cy="17.3467" r="0.5" fill="#1C1C1C" stroke="#1C1C1C" stroke-width="0.25"/>
<circle cx="20.793" cy="14.067" r="0.5" fill="#1C1C1C" stroke="#1C1C1C" stroke-width="0.25"/>
<circle cx="3.1521" cy="14.1301" r="0.5" fill="#1C1C1C" stroke="#1C1C1C" stroke-width="0.25"/>
</svg>
