<svg width="24" height="24" viewBox="0 0 24 24" fill="none" xmlns="http://www.w3.org/2000/svg">
<path d="M2 7.73153C2.15199 8.0248 2.6072 8.34515 3.52556 8.80534C4.52746 9.30735 5.43755 9.509 6.71564 9.51225C8.41079 9.5165 9.53756 9.23288 12.4789 8.06178C14.7854 7.14348 15.6824 6.84512 16.754 6.64005C18.6957 6.26848 20.259 6.62564 22 7.83872" stroke="#1C1C1C" stroke-width="1.25" stroke-linejoin="round"/>
<path d="M2 11.7437C2.15199 12.037 2.6072 12.3574 3.52556 12.8175C4.52746 13.3196 5.43755 13.5212 6.71564 13.5245C8.41079 13.5287 9.53756 13.2451 12.4789 12.074C14.7854 11.1557 15.6824 10.8573 16.754 10.6523C18.6957 10.2807 20.259 10.6379 22 11.8509" stroke="#1C1C1C" stroke-width="1.25" stroke-linejoin="round"/>
<path d="M2 15.7559C2.15199 16.0492 2.6072 16.3696 3.52556 16.8298C4.52746 17.3318 5.43755 17.5334 6.71564 17.5367C8.41079 17.5409 9.53756 17.2573 12.4789 16.0862C14.7854 15.1679 15.6824 14.8695 16.754 14.6645C18.6957 14.2929 20.259 14.6501 22 15.8631" stroke="#1C1C1C" stroke-width="1.25" stroke-linejoin="round"/>
</svg>
