<svg width="16" height="16" viewBox="0 0 16 16" fill="none" xmlns="http://www.w3.org/2000/svg">
<path d="M4.20833 1.6609L4 5.92432C4 6.65793 4.35417 7.1151 4.92708 7.147L4.64583 13.6325C4.63542 13.8877 4.72917 14.1322 4.90625 14.3129C5.08333 14.4937 5.3125 14.6 5.5625 14.6C5.8125 14.6 6.04167 14.5043 6.21875 14.3129C6.39583 14.1322 6.48958 13.8877 6.47917 13.6325L6.19792 7.147C6.77083 7.1151 7.125 6.65793 7.125 5.92432L6.91667 1.67154" stroke="#1C1C1C" stroke-linecap="round" stroke-linejoin="round"/>
<path d="M5.40417 4.51757V1.48497C5.40417 1.4041 5.29528 1.33334 5.17083 1.33334C5.04639 1.33334 4.9375 1.4041 4.9375 1.48497V4.51757C4.9375 4.59844 5.04639 4.6692 5.17083 4.6692C5.29528 4.6692 5.40417 4.59844 5.40417 4.51757Z" fill="#1C1C1C"/>
<path d="M6.23742 4.51757V1.48497C6.23742 1.4041 6.12853 1.33334 6.00408 1.33334C5.87964 1.33334 5.77075 1.4041 5.77075 1.48497V4.51757C5.77075 4.59844 5.87964 4.6692 6.00408 4.6692C6.12853 4.6692 6.23742 4.59844 6.23742 4.51757Z" fill="#1C1C1C"/>
<path d="M10.3658 14.2425C10.5947 14.0217 10.7196 13.7167 10.7196 13.3908V13.3802L10.4178 7.39201C11.0005 7.30789 11.448 6.80317 11.448 6.19331V3.92735C11.448 2.67607 10.449 1.66664 9.21075 1.66664C9.12751 1.66664 9.05466 1.74025 9.05466 1.82436V1.84539V14.4422C9.05466 14.5264 9.12751 14.6 9.21075 14.6H9.52293C9.8351 14.6 10.1369 14.4738 10.3658 14.2425Z" stroke="#1C1C1C" stroke-linejoin="round"/>
</svg>
