<svg width="16" height="16" viewBox="0 0 16 16" fill="none" xmlns="http://www.w3.org/2000/svg">
<g clip-path="url(#clip0_481_3282)">
<path d="M0.666748 0.666626L15.3334 15.3333M11.1467 7.37329C11.6928 7.63979 12.2034 7.97349 12.6667 8.36663M3.33341 8.36663C4.32147 7.54051 5.51066 6.99077 6.78008 6.77329M7.14008 3.36663C8.56836 3.25154 10.0052 3.4254 11.3648 3.87784C12.7244 4.33028 13.9789 5.05201 15.0534 5.99996M0.946748 5.99996C1.87152 5.18253 2.93188 4.53278 4.08008 4.07996M5.68675 10.74C6.36355 10.2591 7.1732 10.0008 8.00342 10.0008C8.83363 10.0008 9.64328 10.2591 10.3201 10.74M8.00008 13.3333H8.00675" stroke="#1C1C1C" stroke-width="1.25" stroke-linecap="round" stroke-linejoin="round"/>
</g>
<defs>
<clipPath id="clip0_481_3282">
<rect width="16" height="16" fill="white"/>
</clipPath>
</defs>
</svg>
