<svg width="24" height="24" viewBox="0 0 24 24" fill="none" xmlns="http://www.w3.org/2000/svg">
<path d="M16.8125 1.5H20.3125C21.5183 1.5 22.5 2.48088 22.5 3.6875V7.1875" stroke="#1C1C1C" stroke-width="1.25" stroke-linecap="round"/>
<path d="M16.8125 22.5H20.3125C21.5183 22.5 22.5 21.5191 22.5 20.3125V16.8125" stroke="#1C1C1C" stroke-width="1.25" stroke-linecap="round"/>
<path d="M7.18749 22.5H3.6875C2.48175 22.5 1.5 21.5191 1.5 20.3125V16.8125" stroke="#1C1C1C" stroke-width="1.25" stroke-linecap="round"/>
<path d="M1.5 7.1875V3.6875C1.5 2.48088 2.48175 1.5 3.6875 1.5H7.1875" stroke="#1C1C1C" stroke-width="1.25" stroke-linecap="round"/>
<path d="M5.875 15.5V16.8125C5.875 17.5361 6.46387 18.125 7.1875 18.125H16.8125C17.5361 18.125 18.125 17.5361 18.125 16.8125V15.5" stroke="#1C1C1C" stroke-width="1.25" stroke-linecap="round"/>
<path d="M5.875 10.6875V7.1875C5.875 6.46387 6.46387 5.875 7.1875 5.875H16.8125C17.5361 5.875 18.125 6.46387 18.125 7.1875V10.6875" stroke="#1C1C1C" stroke-width="1.25" stroke-linecap="round"/>
<path d="M4.5625 13.75H19.4375" stroke="#1C1C1C" stroke-width="1.25" stroke-linecap="round"/>
</svg>
