<svg width="24" height="24" viewBox="0 0 24 24" fill="none" xmlns="http://www.w3.org/2000/svg">
<path d="M22.0625 7.625C21.821 7.625 21.625 7.429 21.625 7.1875V3.6875C21.625 2.96387 21.0361 2.375 20.3125 2.375H16.8125C16.571 2.375 16.375 2.179 16.375 1.9375C16.375 1.696 16.571 1.5 16.8125 1.5H20.3125C21.5183 1.5 22.5 2.48087 22.5 3.6875V7.1875C22.5 7.429 22.304 7.625 22.0625 7.625Z" fill="#1C1C1C" stroke="#1C1C1C" stroke-width="0.35"/>
<path d="M20.3125 22.5H16.8125C16.571 22.5 16.375 22.304 16.375 22.0625C16.375 21.821 16.571 21.625 16.8125 21.625H20.3125C21.0361 21.625 21.625 21.0361 21.625 20.3125V16.8125C21.625 16.571 21.821 16.375 22.0625 16.375C22.304 16.375 22.5 16.571 22.5 16.8125V20.3125C22.5 21.5191 21.5183 22.5 20.3125 22.5Z" fill="#1C1C1C" stroke="#1C1C1C" stroke-width="0.35"/>
<path d="M7.18749 22.5H3.6875C2.48175 22.5 1.5 21.5191 1.5 20.3125V16.8125C1.5 16.571 1.696 16.375 1.9375 16.375C2.179 16.375 2.375 16.571 2.375 16.8125V20.3125C2.375 21.0361 2.96387 21.625 3.6875 21.625H7.18749C7.42899 21.625 7.62499 21.821 7.62499 22.0625C7.62499 22.304 7.42899 22.5 7.18749 22.5Z" fill="#1C1C1C" stroke="#1C1C1C" stroke-width="0.35"/>
<path d="M1.9375 7.625C1.696 7.625 1.5 7.429 1.5 7.1875V3.6875C1.5 2.48087 2.48175 1.5 3.6875 1.5H7.1875C7.429 1.5 7.625 1.696 7.625 1.9375C7.625 2.179 7.429 2.375 7.1875 2.375H3.6875C2.96387 2.375 2.375 2.96387 2.375 3.6875V7.1875C2.375 7.429 2.179 7.625 1.9375 7.625Z" fill="#1C1C1C" stroke="#1C1C1C" stroke-width="0.35"/>
<path d="M16.8125 18.125H7.1875C6.46387 18.125 5.875 17.5361 5.875 16.8125V14.1875C5.875 13.946 6.071 13.75 6.3125 13.75C6.554 13.75 6.75 13.946 6.75 14.1875V16.8125C6.75 17.0531 6.946 17.25 7.1875 17.25H16.8125C17.054 17.25 17.25 17.0531 17.25 16.8125V14.1875C17.25 13.946 17.446 13.75 17.6875 13.75C17.929 13.75 18.125 13.946 18.125 14.1875V16.8125C18.125 17.5361 17.5361 18.125 16.8125 18.125Z" fill="#1C1C1C" stroke="#1C1C1C" stroke-width="0.35"/>
<path d="M17.6875 11.125C17.446 11.125 17.25 10.929 17.25 10.6875V7.1875C17.25 6.94687 17.054 6.75 16.8125 6.75H7.1875C6.946 6.75 6.75 6.94687 6.75 7.1875V10.6875C6.75 10.929 6.554 11.125 6.3125 11.125C6.071 11.125 5.875 10.929 5.875 10.6875V7.1875C5.875 6.46387 6.46387 5.875 7.1875 5.875H16.8125C17.5361 5.875 18.125 6.46387 18.125 7.1875V10.6875C18.125 10.929 17.929 11.125 17.6875 11.125Z" fill="#1C1C1C" stroke="#1C1C1C" stroke-width="0.35"/>
<path d="M19.4375 14.625H4.5625C4.321 14.625 4.125 14.429 4.125 14.1875C4.125 13.946 4.321 13.75 4.5625 13.75H19.4375C19.679 13.75 19.875 13.946 19.875 14.1875C19.875 14.429 19.679 14.625 19.4375 14.625Z" fill="#1C1C1C" stroke="#1C1C1C" stroke-width="0.35"/>
</svg>
