<svg width="24" height="24" viewBox="0 0 24 24" fill="none" xmlns="http://www.w3.org/2000/svg">
<path d="M6.99988 22H3.99988C3.46944 22 2.96074 21.7893 2.58566 21.4143C2.21059 21.0392 1.99988 20.5305 1.99988 20V13C1.99988 12.4696 2.21059 11.9609 2.58566 11.5858C2.96074 11.2108 3.46944 11 3.99988 11H6.99988M13.9999 9.00004V5.00004C13.9999 4.20439 13.6838 3.44133 13.1212 2.87872C12.5586 2.31611 11.7955 2.00004 10.9999 2.00004L6.99988 11V22H18.2799C18.7622 22.0055 19.2303 21.8364 19.5978 21.524C19.9653 21.2116 20.2076 20.7769 20.2799 20.3L21.6599 11.3C21.7034 11.0134 21.6841 10.7207 21.6032 10.4423C21.5224 10.1639 21.382 9.90633 21.1917 9.68755C21.0015 9.46877 20.766 9.29397 20.5014 9.17526C20.2369 9.05654 19.9498 8.99676 19.6599 9.00004H13.9999Z" stroke="#1C1C1C" stroke-width="1.25" stroke-linecap="round" stroke-linejoin="round"/>
</svg>
