<svg width="16" height="16" viewBox="0 0 16 16" fill="none" xmlns="http://www.w3.org/2000/svg">
<path d="M7.10675 3.33329H9.33341C9.68704 3.33329 10.0262 3.47377 10.2762 3.72382C10.5263 3.97387 10.6667 4.313 10.6667 4.66663V6.89329L11.3334 7.55996L15.3334 4.66663V11.3333M0.666748 0.666626L15.3334 15.3333M10.6667 10.6666V11.3333C10.6667 11.6869 10.5263 12.0261 10.2762 12.2761C10.0262 12.5261 9.68704 12.6666 9.33341 12.6666H2.00008C1.64646 12.6666 1.30732 12.5261 1.05727 12.2761C0.807224 12.0261 0.666748 11.6869 0.666748 11.3333V4.66663C0.666748 4.313 0.807224 3.97387 1.05727 3.72382C1.30732 3.47377 1.64646 3.33329 2.00008 3.33329H3.33341L10.6667 10.6666Z" stroke="#1C1C1C" stroke-width="1.25" stroke-linecap="round" stroke-linejoin="round"/>
</svg>
