<svg width="48" height="48" viewBox="0 0 48 48" fill="none" xmlns="http://www.w3.org/2000/svg">
<g filter="url(#filter0_d_3130_9654)">
<path d="M44 21C44 32.0457 35.0457 41 24 41C12.9543 41 4 32.0457 4 21C4 9.9543 12.9543 1 24 1C35.0457 1 44 9.9543 44 21Z" fill="#1C1C1C"/>
<path d="M12 37H36C36 37 31.5529 38.9787 29.25 41C27.0039 42.9714 24.5 47 24.5 47C24.5 47 21.6682 42.9611 19.25 41C16.7384 38.9632 12 37 12 37Z" fill="#1C1C1C"/>
<path d="M16.6082 17.0427V17C16.6082 15.8954 17.5036 15 18.6082 15H31.9999C33.1044 15 33.9999 15.8954 33.9999 17V23.2487C33.9999 24.3532 33.1044 25.2487 31.9999 25.2487H31.3893M16 27.9573H29.3917C30.4962 27.9573 31.3917 27.0619 31.3917 25.9573V19.7087C31.3917 18.6041 30.4962 17.7087 29.3917 17.7087H16C14.8954 17.7087 14 18.6041 14 19.7087V25.9573C14 27.0619 14.8954 27.9573 16 27.9573ZM24.7667 22.8328C24.7667 24.012 23.8397 24.9679 22.6962 24.9679C21.5528 24.9679 20.6258 24.012 20.6258 22.8328C20.6258 21.6536 21.5528 20.6977 22.6962 20.6977C23.8397 20.6977 24.7667 21.6536 24.7667 22.8328Z" stroke="white" stroke-width="1.25"/>
</g>
<defs>
<filter id="filter0_d_3130_9654" x="-4" y="-3" width="56" height="56" filterUnits="userSpaceOnUse" color-interpolation-filters="sRGB">
<feFlood flood-opacity="0" result="BackgroundImageFix"/>
<feColorMatrix in="SourceAlpha" type="matrix" values="0 0 0 0 0 0 0 0 0 0 0 0 0 0 0 0 0 0 127 0" result="hardAlpha"/>
<feOffset dy="1"/>
<feGaussianBlur stdDeviation="2"/>
<feComposite in2="hardAlpha" operator="out"/>
<feColorMatrix type="matrix" values="0 0 0 0 0 0 0 0 0 0 0 0 0 0 0 0 0 0 0.12 0"/>
<feBlend mode="normal" in2="BackgroundImageFix" result="effect1_dropShadow_3130_9654"/>
<feBlend mode="normal" in="SourceGraphic" in2="effect1_dropShadow_3130_9654" result="shape"/>
</filter>
</defs>
</svg>
