<svg width="24" height="24" viewBox="0 0 24 24" fill="none" xmlns="http://www.w3.org/2000/svg">
<path d="M8.99988 18.9999C3.99988 20.4999 3.99988 16.4999 1.99988 15.9999M15.9999 21.9999V18.1299C16.0374 17.6531 15.973 17.1737 15.8109 16.7237C15.6488 16.2737 15.3928 15.8634 15.0599 15.5199C18.1999 15.1699 21.4999 13.9799 21.4999 8.51994C21.4996 7.12376 20.9626 5.78114 19.9999 4.76994C20.4557 3.54844 20.4235 2.19829 19.9099 0.999938C19.9099 0.999938 18.7299 0.649938 15.9999 2.47994C13.7079 1.85876 11.2919 1.85876 8.99988 2.47994C6.26988 0.649938 5.08988 0.999938 5.08988 0.999938C4.57625 2.19829 4.54402 3.54844 4.99988 4.76994C4.03001 5.78864 3.4924 7.1434 3.49988 8.54994C3.49988 13.9699 6.79988 15.1599 9.93988 15.5499C9.61088 15.8899 9.35714 16.2953 9.19519 16.7399C9.03323 17.1844 8.96669 17.658 8.99988 18.1299V21.9999" stroke="#1C1C1C" stroke-width="1.25" stroke-linecap="round" stroke-linejoin="round"/>
</svg>
