<svg width="96" height="96" viewBox="0 0 96 96" fill="none" xmlns="http://www.w3.org/2000/svg">
<rect width="96" height="96" rx="48" fill="#F6F6F7"/>
<path d="M64.0001 66V62C64.0001 59.8783 63.1573 57.8434 61.657 56.3431C60.1567 54.8429 58.1219 54 56.0001 54H40.0001C37.8784 54 35.8436 54.8429 34.3433 56.3431C32.843 57.8434 32.0001 59.8783 32.0001 62V66" stroke="#999999" stroke-width="1.25" stroke-linecap="round" stroke-linejoin="round"/>
<path d="M48.0001 46C52.4184 46 56.0001 42.4183 56.0001 38C56.0001 33.5817 52.4184 30 48.0001 30C43.5818 30 40.0001 33.5817 40.0001 38C40.0001 42.4183 43.5818 46 48.0001 46Z" stroke="#999999" stroke-width="1.25" stroke-linecap="round" stroke-linejoin="round"/>
</svg>
