<svg width="32" height="32" viewBox="0 0 32 32" fill="none" xmlns="http://www.w3.org/2000/svg">
<mask id="path-1-inside-1_9096_39697" fill="white">
<path d="M21.6062 4.78657C16.2574 0.296071 8.08318 3.30291 6.82344 10.3916C6.51095 12.1503 6.66774 13.9383 7.27695 15.5625C7.85478 17.1031 8.8252 18.4725 10.0833 19.5225C10.8259 20.1422 11.2517 20.9869 11.2517 21.8399V24.5832C11.2517 27.2025 13.3092 29.3334 15.8381 29.3334C18.3671 29.3334 20.4246 27.2025 20.4246 24.5832V21.8499C20.4246 20.9791 20.8419 20.1506 21.5998 19.5168C23.7676 17.7039 25.011 15.0259 25.011 12.1692C25.011 9.29398 23.77 6.60306 21.6062 4.78657Z"/>
</mask>
<path d="M11.9532 22.0713C11.6081 22.0713 11.3282 22.3511 11.3282 22.6963C11.3282 23.0415 11.6081 23.3213 11.9532 23.3213V22.0713ZM19.7247 23.3213C20.0699 23.3213 20.3497 23.0415 20.3497 22.6963C20.3497 22.3511 20.0699 22.0713 19.7247 22.0713V23.3213ZM11.9532 23.3213H19.7247V22.0713H11.9532V23.3213ZM21.6062 4.78657L20.8025 5.74392L20.8025 5.74394L21.6062 4.78657ZM6.82344 10.3916L5.59272 10.1729L5.59272 10.1729L6.82344 10.3916ZM7.27695 15.5625L8.44733 15.1236L8.44733 15.1235L7.27695 15.5625ZM10.0833 19.5225L9.28235 20.4822L9.2824 20.4822L10.0833 19.5225ZM21.5998 19.5168L22.4017 20.4758L22.4017 20.4757L21.5998 19.5168ZM22.4099 3.82922C16.2976 -1.30226 7.01452 2.1723 5.59272 10.1729L8.05416 10.6103C9.15184 4.43351 16.2172 1.89441 20.8025 5.74392L22.4099 3.82922ZM5.59272 10.1729C5.24224 12.1454 5.41623 14.161 6.10656 16.0015L8.44733 15.1235C7.91926 13.7156 7.77966 12.1552 8.05416 10.6103L5.59272 10.1729ZM6.10656 16.0015C6.76005 17.7438 7.85739 19.2929 9.28235 20.4822L10.8842 18.5628C9.79302 17.6521 8.9495 16.4624 8.44733 15.1236L6.10656 16.0015ZM9.2824 20.4822C9.78306 20.9 10.0017 21.4097 10.0017 21.8399H12.5017C12.5017 20.564 11.8687 19.3844 10.8842 18.5628L9.2824 20.4822ZM10.0017 21.8399V24.5832H12.5017V21.8399H10.0017ZM10.0017 24.5832C10.0017 27.8511 12.5778 30.5834 15.8381 30.5834V28.0834C14.0405 28.0834 12.5017 26.5538 12.5017 24.5832H10.0017ZM15.8381 30.5834C19.0984 30.5834 21.6746 27.8511 21.6746 24.5832H19.1746C19.1746 26.5538 17.6357 28.0834 15.8381 28.0834V30.5834ZM21.6746 24.5832V21.8499H19.1746V24.5832H21.6746ZM21.6746 21.8499C21.6746 21.4018 21.8849 20.9078 22.4017 20.4758L20.798 18.5579C19.7989 19.3933 19.1746 20.5564 19.1746 21.8499H21.6746ZM22.4017 20.4757C24.8571 18.4224 26.261 15.3915 26.261 12.1692H23.761C23.761 14.6603 22.6782 16.9855 20.798 18.5579L22.4017 20.4757ZM26.261 12.1692C26.261 8.93217 24.8624 5.88802 22.4099 3.8292L20.8025 5.74394C22.6777 7.3181 23.761 9.65579 23.761 12.1692H26.261Z" fill="#1C1C1C" mask="url(#path-1-inside-1_9096_39697)"/>
</svg>
