<svg width="32" height="32" viewBox="0 0 32 32" fill="none" xmlns="http://www.w3.org/2000/svg">
<path d="M16.0849 16.2028C16.4171 16.2028 16.6863 15.9335 16.6863 15.6014C16.6863 15.2693 16.4171 15.0001 16.0849 15.0001C15.7528 15.0001 15.4836 15.2693 15.4836 15.6014C15.4836 15.9335 15.7528 16.2028 16.0849 16.2028Z" fill="#3D3D45"/>
<path d="M23.5686 16.2028C23.9007 16.2028 24.1699 15.9335 24.1699 15.6014C24.1699 15.2693 23.9007 15.0001 23.5686 15.0001C23.2365 15.0001 22.9672 15.2693 22.9672 15.6014C22.9672 15.9335 23.2365 16.2028 23.5686 16.2028Z" fill="#3D3D45"/>
<path d="M8.6013 16.2028C8.93343 16.2028 9.20267 15.9335 9.20267 15.6014C9.20267 15.2693 8.93343 15.0001 8.6013 15.0001C8.26918 15.0001 7.99994 15.2693 7.99994 15.6014C7.99994 15.9335 8.26918 16.2028 8.6013 16.2028Z" fill="#3D3D45"/>
<path d="M16.0849 16.2028C16.4171 16.2028 16.6863 15.9335 16.6863 15.6014C16.6863 15.2693 16.4171 15.0001 16.0849 15.0001C15.7528 15.0001 15.4836 15.2693 15.4836 15.6014C15.4836 15.9335 15.7528 16.2028 16.0849 16.2028Z" stroke="#3D3D45" stroke-width="1.25" stroke-linecap="round" stroke-linejoin="round"/>
<path d="M23.5686 16.2028C23.9007 16.2028 24.1699 15.9335 24.1699 15.6014C24.1699 15.2693 23.9007 15.0001 23.5686 15.0001C23.2365 15.0001 22.9672 15.2693 22.9672 15.6014C22.9672 15.9335 23.2365 16.2028 23.5686 16.2028Z" stroke="#3D3D45" stroke-width="1.25" stroke-linecap="round" stroke-linejoin="round"/>
<path d="M8.6013 16.2028C8.93343 16.2028 9.20267 15.9335 9.20267 15.6014C9.20267 15.2693 8.93343 15.0001 8.6013 15.0001C8.26918 15.0001 7.99994 15.2693 7.99994 15.6014C7.99994 15.9335 8.26918 16.2028 8.6013 16.2028Z" stroke="#3D3D45" stroke-width="1.25" stroke-linecap="round" stroke-linejoin="round"/>
</svg>
