<svg width="12" height="12" viewBox="0 0 12 12" fill="none" xmlns="http://www.w3.org/2000/svg">
<g clip-path="url(#clip0_13693_23946)">
<path d="M8.16636 1.69597C8.0832 1.6094 7.98724 1.55218 7.87164 1.52023C7.71981 1.47827 7.5185 1.50321 7.3898 1.57994C7.32526 1.61841 7.19369 1.7174 6.4372 2.2966C6.185 2.48968 5.89302 2.71293 5.78832 2.7927C5.59095 2.94309 5.51149 3.03031 5.4604 3.15274C5.37858 3.34872 5.38574 3.57425 5.47934 3.75015C5.52051 3.82752 5.70825 4.08701 5.75591 4.1324C5.817 4.19058 5.92203 4.25098 6.01139 4.27933C6.11678 4.31275 6.28535 4.31639 6.37962 4.28727L6.44456 4.26722L6.58063 4.45482C6.80701 4.76696 6.8332 4.80466 6.8332 4.81849C6.8332 4.82581 6.73159 4.89789 6.60741 4.97868C6.48322 5.05947 6.34097 5.1524 6.2913 5.18517C6.13798 5.28634 5.8035 5.50606 5.60151 5.6383C5.0503 5.99915 4.32828 6.47236 4.02643 6.67059L3.49147 7.02184L3.1302 7.25932C3.0385 7.31972 2.66646 7.56351 2.30346 7.8011C1.35302 8.42314 1.39109 8.39643 1.27887 8.51983C1.08516 8.73288 0.985926 9.01559 1.00161 9.30974C1.01602 9.58014 1.07684 9.73615 1.27272 10.0052C1.52191 10.3475 1.79992 10.4994 2.1784 10.5C2.34928 10.5003 2.42377 10.4871 2.56864 10.4309C2.7117 10.3754 2.77852 10.3245 3.13903 9.99681L3.72009 9.46895C3.85419 9.34724 4.1296 9.09675 4.33212 8.9123C4.53463 8.72786 4.78162 8.50355 4.88096 8.41383C4.98031 8.32412 5.19942 8.12545 5.36789 7.97233C5.53635 7.81921 5.8271 7.55528 6.014 7.38583C6.58483 6.86828 7.49035 6.04648 7.542 5.99906C7.63751 5.91141 7.62985 5.9121 7.68161 5.98653C7.70746 6.0237 7.73377 6.06052 7.7401 6.06836C7.77404 6.11049 8.01777 6.45586 8.02347 6.46992C8.02716 6.47903 8.01452 6.51112 7.99539 6.54122C7.8645 6.74702 7.86823 7.06291 8.00402 7.27113C8.15196 7.49795 8.28364 7.64566 8.38542 7.69895C8.57629 7.79889 8.84366 7.79742 9.02165 7.69547C9.05222 7.67796 9.2867 7.50324 9.54271 7.3072L10.3903 6.65849C10.6005 6.49773 10.8013 6.33308 10.8367 6.29258C11.0132 6.09035 11.0505 5.787 10.9295 5.5383C10.8851 5.44696 10.6949 5.19075 10.6256 5.12887C10.5369 5.04959 10.4138 4.99422 10.2826 4.97462C10.186 4.96016 10.1547 4.96123 10.0614 4.9822C9.95452 5.0062 9.95228 5.00613 9.93372 4.97807C9.92331 4.96235 9.82326 4.82247 9.7114 4.66721C9.59951 4.51194 9.38917 4.21934 9.24397 4.01697C9.09877 3.81462 8.8768 3.50593 8.7507 3.33101C8.6246 3.15609 8.48856 2.9668 8.44838 2.91036L8.37533 2.80775L8.43081 2.6913C8.52249 2.49884 8.53186 2.31776 8.46006 2.12566C8.42396 2.02906 8.27008 1.80394 8.16636 1.69597Z" stroke="#1C1C1C" stroke-width="1.25"/>
</g>
<defs>
<clipPath id="clip0_13693_23946">
<rect width="12" height="12" fill="white"/>
</clipPath>
</defs>
</svg>
