<svg width="59" height="36" viewBox="0 0 59 36" fill="none" xmlns="http://www.w3.org/2000/svg">
<path d="M33.5 23.3335H43.1667M43.1667 23.3335L39.5 19.6667M43.1667 23.3335L39.5 27.0001" stroke="#FF3636" stroke-width="1.25" stroke-linecap="round" stroke-linejoin="round"/>
<path d="M25.8335 17.9248V15C25.8335 13.5272 27.0274 12.3333 28.5002 12.3333H55.5002C56.9729 12.3333 58.1668 13.5272 58.1668 15V32C58.1668 33.4728 56.9729 34.6667 55.5002 34.6667H28.5002C27.0274 34.6667 25.8335 33.4728 25.8335 32V28.9812" stroke="white" stroke-width="1.25" stroke-linecap="round" stroke-linejoin="round"/>
<path d="M40.5 23.3333C26.311 23.3333 4.16667 23.3333 4.16667 23.3333C3.45942 23.3333 2.78115 23.0524 2.28105 22.5523C1.78095 22.0522 1.5 21.3739 1.5 20.6667V3.66667C1.5 2.95942 1.78095 2.28115 2.28105 1.78105C2.78115 1.28095 3.45942 1 4.16667 1H31.1667C31.8739 1 32.5522 1.28095 33.0523 1.78105C33.5524 2.28115 33.8333 2.95942 33.8333 3.66667V5.86337" stroke="#FF3636" stroke-width="1.25" stroke-linecap="round" stroke-linejoin="round"/>
</svg>
