<svg width="24" height="24" viewBox="0 0 24 24" fill="none" xmlns="http://www.w3.org/2000/svg">
<path d="M23.0001 4.00008V10.0001M23.0001 10.0001H17.0001M23.0001 10.0001L18.3601 5.64008C17.2854 4.56479 15.9557 3.77928 14.4953 3.35685C13.0349 2.93442 11.4912 2.88883 10.0084 3.22433C8.52559 3.55984 7.15192 4.26551 6.01559 5.27549C4.87926 6.28548 4.01729 7.56686 3.51012 9.00008M1.00012 20.0001V14.0001M1.00012 14.0001H7.00012M1.00012 14.0001L5.64012 18.3601C6.71487 19.4354 8.0445 20.2209 9.50493 20.6433C10.9654 21.0657 12.509 21.1113 13.9918 20.7758C15.4747 20.4403 16.8483 19.7346 17.9847 18.7247C19.121 17.7147 19.983 16.4333 20.4901 15.0001" stroke="#1C1C1C" stroke-width="1.25" stroke-linecap="round" stroke-linejoin="round"/>
</svg>
