<svg width="32" height="32" viewBox="0 0 32 32" fill="none" xmlns="http://www.w3.org/2000/svg">
<path fill-rule="evenodd" clip-rule="evenodd" d="M13.6031 1.2869C11.8202 1.75863 10.0332 2.7968 8.53868 4.22932C6.81181 5.88479 1.88956 14.5138 1.29695 16.9255C0.0655661 21.9358 2.76802 27.64 7.47404 29.964C9.55018 30.9893 9.644 31 16.535 31C22.8865 31 23.6477 30.9303 25.202 30.208C29.9395 28.0056 32.8542 22.2247 31.776 17.1691C31.2988 14.931 26.7962 6.73722 24.8582 4.5798C22.4046 1.84892 17.2159 0.330908 13.6031 1.2869ZM20.6568 4.3384C22.7403 5.33456 24.1399 7.09139 26.9725 12.266C29.0948 16.1434 29.3616 16.8617 29.4833 19.0262C29.7017 22.9124 28.1001 25.8165 24.6907 27.7159C22.7825 28.7792 22.711 28.7888 16.7182 28.7888C10.3044 28.7888 9.22584 28.578 6.92285 26.8746C4.39155 25.0024 2.84681 20.7826 3.54313 17.6405C3.98915 15.626 8.21911 8.0061 9.902 6.18442C12.6184 3.24421 16.8498 2.51819 20.6568 4.3384ZM13.6031 6.25739C11.9686 7.02063 10.8288 8.44909 8.27261 12.9386C5.22017 18.2983 4.96289 21.0671 7.24499 23.9849C8.84176 26.0262 10.2725 26.3933 16.6318 26.3933C22.4035 26.3933 22.4486 26.387 24.1066 25.3293C27.0835 23.4309 28.1082 19.8248 26.6122 16.5101C25.0576 13.0654 21.7933 7.96114 20.5205 6.98488C19.4698 6.17889 18.7306 5.94523 16.9491 5.85642C15.5722 5.7875 14.2771 5.94265 13.6031 6.25739ZM18.9139 8.79552C20.172 9.66158 24.5581 16.8481 24.9762 18.728C25.1137 19.3461 24.929 20.3337 24.4892 21.3343C23.4256 23.7516 22.2272 24.182 16.5596 24.182C10.1259 24.182 8.48004 23.3469 8.05126 19.8657C7.90246 18.6591 8.21764 17.8719 10.3748 14.0601C13.0574 9.31995 14.4255 7.9663 16.535 7.9663C17.1807 7.9663 18.2512 8.33926 18.9139 8.79552ZM15.5719 10.6846C14.516 11.2142 10.3964 18.3156 10.3964 19.6062C10.3964 21.5256 11.1363 21.7865 16.5775 21.7865C21.0684 21.7865 21.5914 21.7183 22.0619 21.0712C22.9159 19.8967 22.6721 18.7785 20.8687 15.5962C17.8741 10.3117 17.3273 9.80458 15.5719 10.6846ZM18.4554 16.1025C19.31 17.6073 20.0111 18.9624 20.0129 19.1146C20.0151 19.2668 18.4378 19.391 16.5082 19.391C13.8824 19.391 13.0296 19.2749 13.1183 18.9303C13.4111 17.7908 16.2063 13.1435 16.535 13.2489C16.7366 13.3138 17.6007 14.5982 18.4554 16.1025Z" fill="#F87424"/>
</svg>
