<svg width="24" height="24" viewBox="0 0 24 24" fill="none" xmlns="http://www.w3.org/2000/svg">
<path d="M22.1378 17.1702V20.1702C22.1389 20.4487 22.0818 20.7243 21.9703 20.9795C21.8587 21.2347 21.6951 21.4637 21.4898 21.652C21.2846 21.8403 21.0423 21.9836 20.7785 22.0729C20.5147 22.1621 20.2351 22.1952 19.9578 22.1702C16.8806 21.8358 13.9247 20.7843 11.3278 19.1002C8.91158 17.5648 6.86309 15.5163 5.32775 13.1002C3.63773 10.4914 2.58599 7.52115 2.25775 4.43016C2.23276 4.15362 2.26563 3.87492 2.35425 3.61178C2.44288 3.34865 2.58532 3.10685 2.77252 2.90178C2.95971 2.69671 3.18756 2.53287 3.44154 2.42068C3.69553 2.30849 3.97009 2.25042 4.24775 2.25016H7.24775C7.73306 2.24538 8.20354 2.41724 8.57151 2.73369C8.93948 3.05014 9.17983 3.4896 9.24775 3.97016C9.37437 4.93022 9.6092 5.87289 9.94775 6.78016C10.0823 7.13808 10.1114 7.52707 10.0317 7.90104C9.9519 8.275 9.76661 8.61827 9.49775 8.89016L8.22775 10.1602C9.65131 12.6637 11.7242 14.7366 14.2278 16.1602L15.4978 14.8902C15.7696 14.6213 16.1129 14.436 16.4869 14.3563C16.8608 14.2765 17.2498 14.3056 17.6078 14.4402C18.515 14.7787 19.4577 15.0135 20.4178 15.1402C20.9035 15.2087 21.3472 15.4534 21.6643 15.8277C21.9814 16.2019 22.1499 16.6797 22.1378 17.1702Z" stroke="#1C1C1C" stroke-width="1.25" stroke-linecap="round" stroke-linejoin="round"/>
</svg>
