<svg width="24" height="24" viewBox="0 0 24 24" fill="none" xmlns="http://www.w3.org/2000/svg">
<g clip-path="url(#clip0_12225_15900)">
<mask id="path-1-inside-1_12225_15900" fill="white">
<path d="M12.2513 2.25C6.73654 2.25 2.25 6.73654 2.25 12.2513C2.25 17.766 6.73654 22.2525 12.2513 22.2525C17.766 22.2525 22.2525 17.766 22.2525 12.2513C22.2525 6.73654 17.766 2.25 12.2513 2.25ZM12.2513 21.0805C7.38279 21.0805 3.42202 17.1197 3.42202 12.2513C3.42202 7.38279 7.38279 3.42202 12.2513 3.42202C17.1197 3.42202 21.0805 7.38279 21.0805 12.2513C21.0805 17.1197 17.1197 21.0805 12.2513 21.0805Z"/>
</mask>
<path d="M12.2513 2.25C6.73654 2.25 2.25 6.73654 2.25 12.2513C2.25 17.766 6.73654 22.2525 12.2513 22.2525C17.766 22.2525 22.2525 17.766 22.2525 12.2513C22.2525 6.73654 17.766 2.25 12.2513 2.25ZM12.2513 21.0805C7.38279 21.0805 3.42202 17.1197 3.42202 12.2513C3.42202 7.38279 7.38279 3.42202 12.2513 3.42202C17.1197 3.42202 21.0805 7.38279 21.0805 12.2513C21.0805 17.1197 17.1197 21.0805 12.2513 21.0805Z" fill="#999999"/>
<path d="M12.2513 1C6.04618 1 1 6.04618 1 12.2513H3.5C3.5 7.42689 7.42689 3.5 12.2513 3.5V1ZM1 12.2513C1 18.4563 6.04618 23.5025 12.2513 23.5025V21.0025C7.42689 21.0025 3.5 17.0756 3.5 12.2513H1ZM12.2513 23.5025C18.4563 23.5025 23.5025 18.4563 23.5025 12.2513H21.0025C21.0025 17.0756 17.0756 21.0025 12.2513 21.0025V23.5025ZM23.5025 12.2513C23.5025 6.04618 18.4563 1 12.2513 1V3.5C17.0756 3.5 21.0025 7.42689 21.0025 12.2513H23.5025ZM12.2513 19.8305C8.07315 19.8305 4.67202 16.4294 4.67202 12.2513H2.17202C2.17202 17.8101 6.69243 22.3305 12.2513 22.3305V19.8305ZM4.67202 12.2513C4.67202 8.07315 8.07315 4.67202 12.2513 4.67202V2.17202C6.69243 2.17202 2.17202 6.69243 2.17202 12.2513H4.67202ZM12.2513 4.67202C16.4294 4.67202 19.8305 8.07315 19.8305 12.2513H22.3305C22.3305 6.69243 17.8101 2.17202 12.2513 2.17202V4.67202ZM19.8305 12.2513C19.8305 16.4294 16.4294 19.8305 12.2513 19.8305V22.3305C17.8101 22.3305 22.3305 17.8101 22.3305 12.2513H19.8305Z" fill="#999999" mask="url(#path-1-inside-1_12225_15900)"/>
<rect x="15.9043" y="7.71442" width="1.25016" height="11.5822" rx="0.625078" transform="rotate(45 15.9043 7.71442)" fill="#999999"/>
<ellipse cx="9.75086" cy="8.91748" rx="1.66688" ry="1.66687" stroke="#999999" stroke-width="1.25"/>
<ellipse cx="14.7513" cy="15.585" rx="1.66687" ry="1.66688" stroke="#999999" stroke-width="1.25"/>
</g>
<defs>
<clipPath id="clip0_12225_15900">
<rect width="20.0025" height="20.0025" fill="white" transform="translate(2.25 2.25)"/>
</clipPath>
</defs>
</svg>
