<svg width="16" height="16" viewBox="0 0 16 16" fill="none" xmlns="http://www.w3.org/2000/svg">
<path d="M5.15947 12.5637L3.05316 14.67M12.7656 14.67L10.6592 12.5637M3.19358 1.33C2.53438 1.33 2 2.0006 2 2.82783V11.0659C2 11.8931 2.53438 12.5637 3.19358 12.5637H12.7422C13.4014 12.5637 13.9358 11.8931 13.9358 11.0659V2.82783C13.9358 2.0006 13.4014 1.33 12.7422 1.33H7.96789H3.19358ZM4.10632 6.59579H6.56368C6.95145 6.59579 7.26579 6.28145 7.26579 5.89369V4.13842C7.26579 3.75066 6.95145 3.43632 6.56368 3.43632H4.10632C3.71855 3.43632 3.40421 3.75066 3.40421 4.13842V5.89369C3.40421 6.28145 3.71855 6.59579 4.10632 6.59579ZM9.37211 6.59579H11.8295C12.2172 6.59579 12.5316 6.28145 12.5316 5.89369V4.13842C12.5316 3.75066 12.2172 3.43632 11.8295 3.43632H9.37211C8.98434 3.43632 8.67 3.75066 8.67 4.13842V5.89369C8.67 6.28145 8.98434 6.59579 9.37211 6.59579ZM6.03711 10.1063C6.03711 10.688 5.56559 11.1595 4.98395 11.1595C4.4023 11.1595 3.93079 10.688 3.93079 10.1063C3.93079 9.52467 4.4023 9.05316 4.98395 9.05316C5.56559 9.05316 6.03711 9.52467 6.03711 10.1063ZM12.005 10.1063C12.005 10.688 11.5335 11.1595 10.9518 11.1595C10.3702 11.1595 9.89868 10.688 9.89868 10.1063C9.89868 9.52467 10.3702 9.05316 10.9518 9.05316C11.5335 9.05316 12.005 9.52467 12.005 10.1063Z" stroke="#1C1C1C" stroke-width="1.25" stroke-linecap="round" stroke-linejoin="round"/>
</svg>
