<svg width="32" height="32" viewBox="0 0 32 32" fill="none" xmlns="http://www.w3.org/2000/svg">
<path d="M25 19C25 19.5304 24.7893 20.0391 24.4142 20.4142C24.0391 20.7893 23.5304 21 23 21H11L7 25V9C7 8.46957 7.21071 7.96086 7.58579 7.58579C7.96086 7.21071 8.46957 7 9 7H23C23.5304 7 24.0391 7.21071 24.4142 7.58579C24.7893 7.96086 25 8.46957 25 9V19Z" stroke="#999999" stroke-width="1.25" stroke-linecap="round" stroke-linejoin="round"/>
<path d="M13.7536 9.93549H12.3082L10.5078 11.0754V12.439L12.1733 11.395H12.2159V17.2082H13.7536V9.93549Z" fill="#999999"/>
<path d="M15.6821 17.2082H20.8667V15.9511H17.8127V15.9014L18.8745 14.8609C20.3696 13.4973 20.7708 12.8155 20.7708 11.988C20.7708 10.7274 19.741 9.83606 18.1821 9.83606C16.6551 9.83606 15.6075 10.7487 15.611 12.1763H17.0706C17.067 11.4802 17.5074 11.0541 18.1714 11.0541C18.8106 11.0541 19.2865 11.4518 19.2865 12.091C19.2865 12.6699 18.9314 13.0676 18.2708 13.7032L15.6821 16.1003V17.2082Z" fill="#999999"/>
</svg>
