<svg width="24" height="24" viewBox="0 0 24 24" fill="none" xmlns="http://www.w3.org/2000/svg">
<path d="M13.1366 18C5.56667 18 4.42268 18 4.42268 18C4.04536 18 3.6835 17.849 3.41669 17.5803C3.14989 17.3116 3 16.9472 3 16.5672V7.43284C3 7.05282 3.14989 6.68838 3.41669 6.41967C3.6835 6.15096 4.04536 6 4.42268 6H18.8273C19.2046 6 19.5665 6.15096 19.8333 6.41967C20.1001 6.68838 20.25 7.05282 20.25 7.43284V10.6132" stroke="#1C1C1C" stroke-width="1.25" stroke-linecap="round" stroke-linejoin="round"/>
<path d="M15.7709 11.1669L14 12.0392M14 12.0392L15.1359 13.9246M14 12.0392L16.1653 12.8633C16.6861 13.0447 17.1696 13.3483 17.5708 13.7458C17.972 14.1433 18.2777 14.6218 18.4594 15.1365C18.6411 15.6512 18.6928 16.1855 18.6099 16.6894C18.5269 17.1933 18.3119 17.6504 17.9849 18.0182" stroke="#1C1C1C" stroke-width="1.25" stroke-linecap="round" stroke-linejoin="round"/>
</svg>
