<svg width="20" height="20" viewBox="0 0 20 20" fill="none" xmlns="http://www.w3.org/2000/svg">
<path d="M14.7619 0.83313H5.23814C4.18616 0.83313 3.33337 1.65394 3.33337 2.66646V17.3331C3.33337 18.3457 4.18616 19.1665 5.23814 19.1665H14.7619C15.8139 19.1665 16.6667 18.3457 16.6667 17.3331V2.66646C16.6667 1.65394 15.8139 0.83313 14.7619 0.83313Z" stroke="#1C1C1C" stroke-width="1.25" stroke-linecap="round" stroke-linejoin="round"/>
<path d="M10 9.51389C11.0739 9.51389 11.9445 8.64334 11.9445 7.56944C11.9445 6.49556 11.0739 5.625 10 5.625C8.92616 5.625 8.05559 6.49556 8.05559 7.56944C8.05559 8.64334 8.92616 9.51389 10 9.51389Z" stroke="#1C1C1C" stroke-width="1.25" stroke-linecap="round" stroke-linejoin="round"/>
<path d="M6.11108 13.4028C6.11108 12.3289 6.98164 11.4583 8.05553 11.4583H11.9444C13.0183 11.4583 13.8889 12.3289 13.8889 13.4028V14.375H6.11108V13.4028Z" stroke="#1C1C1C" stroke-width="1.25" stroke-linecap="round" stroke-linejoin="round"/>
</svg>
