<svg width="48" height="48" viewBox="0 0 48 48" fill="none" xmlns="http://www.w3.org/2000/svg">
<path d="M42.6739 6H15.6739C14.2011 6 13.0072 7.01529 13.0072 8.26772V39.7323C13.0072 40.9847 14.2011 42 15.6739 42H42.6739C44.1466 42 45.3405 40.9847 45.3405 39.7323V8.26772C45.3405 7.01529 44.1466 6 42.6739 6Z" stroke="white" stroke-width="1.25" stroke-linecap="round" stroke-linejoin="round"/>
<path d="M40.0072 12C31.8062 12 19.0072 12 19.0072 12" stroke="white" stroke-width="1.25" stroke-linecap="round" stroke-linejoin="round"/>
<path d="M29.0072 17C25.102 17 19.0072 17 19.0072 17" stroke="white" stroke-width="1.25" stroke-linecap="round" stroke-linejoin="round"/>
<path d="M24.6595 29.0075C10.4705 29.0075 5.32621 29.0075 5.32621 29.0075C4.61897 29.0075 3.94069 28.7265 3.44059 28.2264C2.9405 27.7263 2.65955 27.0481 2.65955 26.3408V12.3408" stroke="#FF3636" stroke-width="1.25" stroke-linecap="round" stroke-linejoin="round"/>
<path d="M20.3405 29.0076H30.0071M30.0071 29.0076L26.3404 25.3408M30.0071 29.0076L26.3404 32.6742" stroke="#FF3636" stroke-width="1.25" stroke-linecap="round" stroke-linejoin="round"/>
</svg>
