<svg width="45" height="38" viewBox="0 0 45 38" fill="none" xmlns="http://www.w3.org/2000/svg">
<path d="M41.1667 1H14.1667C12.6939 1 11.5 2.01529 11.5 3.26772V34.7323C11.5 35.9847 12.6939 37 14.1667 37H41.1667C42.6394 37 43.8333 35.9847 43.8333 34.7323V3.26772C43.8333 2.01529 42.6394 1 41.1667 1Z" stroke="white" stroke-width="1.25" stroke-linecap="round" stroke-linejoin="round"/>
<path d="M38.5 7C30.299 7 17.5 7 17.5 7" stroke="white" stroke-width="1.25" stroke-linecap="round" stroke-linejoin="round"/>
<path d="M27.5 12C23.5948 12 17.5 12 17.5 12" stroke="white" stroke-width="1.25" stroke-linecap="round" stroke-linejoin="round"/>
<path d="M23.1523 24.0074C8.96329 24.0074 3.81901 24.0074 3.81901 24.0074C3.11177 24.0074 2.43349 23.7265 1.93339 23.2264C1.4333 22.7263 1.15234 22.048 1.15234 21.3408V7.34076" stroke="#FF3636" stroke-width="1.25" stroke-linecap="round" stroke-linejoin="round"/>
<path d="M18.833 24.0075H28.4997M28.4997 24.0075L24.833 20.3408M28.4997 24.0075L24.833 27.6741" stroke="#FF3636" stroke-width="1.25" stroke-linecap="round" stroke-linejoin="round"/>
</svg>
