<svg width="48" height="48" viewBox="0 0 48 48" fill="none" xmlns="http://www.w3.org/2000/svg">
<g clip-path="url(#clip0_15542_15889)">
<path d="M22.7021 23.3127V28.9003H20.9295V15.1015H25.6307C26.1919 15.0898 26.7498 15.1893 27.2723 15.3943C27.7948 15.5994 28.2716 15.9059 28.675 16.2961C29.0825 16.6626 29.4068 17.1122 29.6262 17.6145C29.8455 18.1168 29.9548 18.6602 29.9466 19.2082C29.9583 19.7592 29.8507 20.3062 29.6312 20.8117C29.4117 21.3172 29.0855 21.7692 28.675 22.1369C27.8529 22.9208 26.8382 23.3124 25.6307 23.3116H22.7021V23.3127ZM22.7021 16.8003V21.6172H25.6748C26.0007 21.6269 26.325 21.5684 26.627 21.4455C26.929 21.3227 27.2021 21.1382 27.4287 20.9037C27.6541 20.6846 27.8333 20.4224 27.9556 20.1328C28.078 19.8432 28.1411 19.532 28.1411 19.2176C28.1411 18.9032 28.078 18.592 27.9556 18.3023C27.8333 18.0127 27.6541 17.7506 27.4287 17.5314C27.2049 17.2921 26.9328 17.103 26.6304 16.9768C26.3281 16.8506 26.0023 16.79 25.6748 16.7992H22.7021V16.8003Z" fill="#5F6368"/>
<path d="M34.0313 19.1509C35.3415 19.1509 36.3757 19.501 37.1339 20.2012C37.8921 20.9015 38.2709 21.8615 38.2702 23.0814V28.9002H36.5746V27.59H36.4976C35.7636 28.669 34.7873 29.2085 33.5689 29.2085C32.5288 29.2085 31.6587 28.9002 30.9585 28.2836C30.6224 28.0006 30.3537 27.6462 30.172 27.2463C29.9903 26.8463 29.9002 26.4108 29.9081 25.9715C29.9081 24.9946 30.2773 24.2176 31.0157 23.6407C31.7541 23.0638 32.7399 22.7746 33.973 22.7731C35.0255 22.7731 35.8924 22.9658 36.5735 23.3512V22.946C36.5755 22.6466 36.5109 22.3504 36.3842 22.079C36.2576 21.8077 36.0722 21.5679 35.8414 21.3771C35.3726 20.9542 34.7617 20.7234 34.1304 20.7308C33.1403 20.7308 32.3567 21.1484 31.7798 21.9837L30.2186 21.0005C31.0774 19.7674 32.3483 19.1509 34.0313 19.1509ZM31.738 26.0101C31.7368 26.2357 31.7895 26.4583 31.8918 26.6594C31.994 26.8605 32.1429 27.0342 32.3259 27.1661C32.7179 27.4745 33.2045 27.6379 33.7032 27.6285C34.4512 27.6273 35.1683 27.3295 35.6971 26.8006C36.2843 26.2479 36.5779 25.5994 36.5779 24.8551C36.0252 24.4147 35.2545 24.1945 34.2658 24.1945C33.5458 24.1945 32.9454 24.3681 32.4646 24.7153C31.9791 25.0676 31.738 25.4959 31.738 26.0101Z" fill="#5F6368"/>
<path d="M48.0029 19.459L42.084 33.0618H40.2542L42.4506 28.3022L38.5586 19.459H40.4854L43.2984 26.2411H43.3369L46.0729 19.459H48.0029Z" fill="#5F6368"/>
<path d="M15.5391 22.1079C15.5397 21.5677 15.494 21.0285 15.4025 20.4961H7.92679V23.5491H12.2085C12.1209 24.0368 11.9355 24.5016 11.6634 24.9156C11.3913 25.3296 11.0382 25.6843 10.6253 25.9581V27.9399H13.1807C14.677 26.5604 15.5391 24.5202 15.5391 22.1079Z" fill="#4285F4"/>
<path d="M7.92677 29.8548C10.066 29.8548 11.8672 29.1524 13.1807 27.9413L10.6253 25.9595C9.91407 26.4417 8.99804 26.717 7.92677 26.717C5.85911 26.717 4.10413 25.3231 3.47656 23.4448H0.844086V25.4872C1.50387 26.8001 2.51559 27.9038 3.76628 28.675C5.01696 29.4463 6.4574 29.8547 7.92677 29.8548Z" fill="#34A853"/>
<path d="M3.47658 23.4448C3.1448 22.4606 3.1448 21.3947 3.47658 20.4105V18.3682H0.844101C0.289063 19.4726 0 20.6916 0 21.9277C0 23.1638 0.289063 24.3827 0.844101 25.4872L3.47658 23.4448Z" fill="#FBBC04"/>
<path d="M7.92677 17.1384C9.05726 17.1199 10.1496 17.547 10.9677 18.3274L13.2303 16.0649C11.7956 14.7174 9.89493 13.9775 7.92677 14.0005C6.4574 14.0006 5.01696 14.409 3.76628 15.1803C2.51559 15.9516 1.50387 17.0552 0.844086 18.3682L3.47656 20.4105C4.10413 18.5322 5.85911 17.1384 7.92677 17.1384Z" fill="#EA4335"/>
</g>
<defs>
<clipPath id="clip0_15542_15889">
<rect width="48" height="48" fill="white"/>
</clipPath>
</defs>
</svg>
