<svg width="16" height="16" viewBox="0 0 16 16" fill="none" xmlns="http://www.w3.org/2000/svg">
<path d="M10.6667 2.66659H12.0001C12.3537 2.66659 12.6928 2.80706 12.9429 3.05711C13.1929 3.30716 13.3334 3.6463 13.3334 3.99992V13.3333C13.3334 13.6869 13.1929 14.026 12.9429 14.2761C12.6928 14.5261 12.3537 14.6666 12.0001 14.6666H4.00008C3.64646 14.6666 3.30732 14.5261 3.05727 14.2761C2.80722 14.026 2.66675 13.6869 2.66675 13.3333V3.99992C2.66675 3.6463 2.80722 3.30716 3.05727 3.05711C3.30732 2.80706 3.64646 2.66659 4.00008 2.66659H5.33341M6.00008 1.33325H10.0001C10.3683 1.33325 10.6667 1.63173 10.6667 1.99992V3.33325C10.6667 3.70144 10.3683 3.99992 10.0001 3.99992H6.00008C5.63189 3.99992 5.33341 3.70144 5.33341 3.33325V1.99992C5.33341 1.63173 5.63189 1.33325 6.00008 1.33325Z" stroke="#1C1C1C" stroke-width="1.25" stroke-linecap="round" stroke-linejoin="round"/>
</svg>
