<svg width="72" height="36" viewBox="0 0 72 36" fill="none" xmlns="http://www.w3.org/2000/svg">
<g clip-path="url(#clip0_7114_35299)">
<path d="M63.6971 10.1077V18.9091H60.5411V12.7351H57.5024V18.9091H54.3464V10.1071H63.6971V10.1077Z" fill="black"/>
<path fill-rule="evenodd" clip-rule="evenodd" d="M47.8649 19.2237C50.6901 19.2237 52.788 17.4987 52.788 14.8836C52.788 12.3525 51.2402 10.7091 48.6533 10.7091C47.4594 10.7091 46.4743 11.1276 45.7323 11.8497C45.9095 10.3572 47.1769 9.26758 48.5723 9.26758C48.8943 9.26758 51.3188 9.26248 51.3188 9.26248L52.6898 6.64978C52.6898 6.64978 49.6459 6.71878 48.2309 6.71878C44.9979 6.77488 42.8141 9.70138 42.8141 13.2558C42.8141 17.3967 44.944 19.2237 47.8649 19.2237ZM47.8821 13.0233C48.9311 13.0233 49.6583 13.7097 49.6583 14.8833C49.6583 15.9396 49.0121 16.8099 47.8821 16.8123C46.8012 16.8123 46.074 16.0059 46.074 14.9013C46.074 13.7274 46.8012 13.0233 47.8821 13.0233Z" fill="black"/>
<path d="M40.2453 15.9625C40.2453 15.9625 39.5 16.3902 38.3868 16.4712C37.1071 16.509 35.9668 15.7042 35.9668 14.2741C35.9668 12.8791 36.973 12.0796 38.3546 12.0796C39.2017 12.0796 40.3224 12.6643 40.3224 12.6643C40.3224 12.6643 41.1424 11.1658 41.5672 10.4164C40.7893 9.82925 39.7533 9.50735 38.5483 9.50735C35.5071 9.50735 33.1516 11.482 33.1516 14.2564C33.1516 17.0661 35.3655 18.9948 38.5483 18.9366C39.4379 18.9036 40.6652 18.5925 41.4132 18.114L40.2453 15.9625Z" fill="black"/>
<path d="M0 7.83594L4.37784 15.6284V20.3816L0.00512134 28.1588L0 7.83594Z" fill="#5B57A2"/>
<path d="M16.8091 12.7929L20.9113 10.2891L29.3067 10.2813L16.8091 17.9055V12.7929Z" fill="#D90751"/>
<path d="M16.786 7.7901L16.8092 18.1071L12.4211 15.4221V0L16.7863 7.7901H16.786Z" fill="#FAB718"/>
<path d="M29.3067 10.2813L20.9111 10.2891L16.786 7.7901L12.4211 0L29.3064 10.2813H29.3067Z" fill="#ED6F26"/>
<path d="M16.8092 28.2021V23.1966L12.4211 20.5626L12.4235 36L16.8092 28.2021Z" fill="#63B22F"/>
<path d="M20.9011 25.721L4.37754 15.6284L0 7.83594L29.2889 25.7108L20.9008 25.721H20.9011Z" fill="#1487C9"/>
<path d="M12.4238 35.9999L16.8088 28.202L20.9008 25.721L29.2886 25.7108L12.4238 35.9999Z" fill="#017F36"/>
<path d="M0.00512695 28.1588L12.4569 20.5628L8.27067 18.005L4.37785 20.3816L0.00512695 28.1588Z" fill="#984995"/>
<path d="M35.9678 24.8326C35.8714 24.955 35.7446 25.0474 35.5924 25.1098C35.4363 25.1731 35.2693 25.2053 35.1008 25.2046C34.9332 25.2069 34.7665 25.179 34.6088 25.1224C34.4672 25.0712 34.3377 24.9913 34.2286 24.8878C34.1209 24.7841 34.0363 24.659 33.9804 24.5206C33.9199 24.369 33.8897 24.2071 33.8915 24.0439C33.8915 23.8819 33.9195 23.7319 33.9777 23.5897C34.0334 23.4472 34.1145 23.3251 34.216 23.2225C34.3175 23.1178 34.4392 23.038 34.576 22.9756C34.7155 22.9156 34.8676 22.8832 35.0348 22.8832C35.2149 22.8832 35.3821 22.9057 35.5343 22.9504C35.6864 22.9954 35.8156 23.0704 35.922 23.1754L35.737 23.4874C35.6476 23.4067 35.5422 23.3454 35.4276 23.3074C35.3187 23.2725 35.205 23.2549 35.0905 23.2552C34.9893 23.2552 34.8929 23.275 34.7992 23.3125C34.7069 23.3496 34.6225 23.4038 34.5507 23.4724C34.4772 23.543 34.4194 23.628 34.3808 23.722C34.3377 23.8192 34.3175 23.9266 34.3175 24.0463C34.3175 24.1687 34.3401 24.2785 34.3832 24.3733C34.4266 24.4708 34.4847 24.5533 34.5582 24.6229C34.6317 24.6931 34.7179 24.7453 34.8167 24.7804C34.9158 24.8179 35.0197 24.8353 35.1312 24.8353C35.268 24.8353 35.3924 24.8077 35.4987 24.7552C35.6041 24.7045 35.6988 24.6343 35.7777 24.5482L35.9678 24.8326ZM36.4899 25.1521V22.9306H36.8905V24.5857L38.1935 22.9306H38.5941V25.1524H38.1935V23.4973L36.8905 25.1524H36.4899V25.1521ZM41.2482 24.8326C41.1496 24.9561 41.0203 25.0516 40.8731 25.1098C40.7169 25.1731 40.5498 25.2053 40.3812 25.2046C40.2137 25.2069 40.0471 25.179 39.8895 25.1224C39.7478 25.0712 39.6182 24.9913 39.509 24.8878C39.4013 24.7841 39.3167 24.659 39.2608 24.5206C39.2003 24.369 39.1701 24.2071 39.1719 24.0439C39.1719 23.8819 39.1999 23.7319 39.2581 23.5897C39.3141 23.4472 39.3952 23.3251 39.4964 23.2225C39.5979 23.1178 39.7196 23.038 39.8564 22.9756C40.0008 22.9123 40.1574 22.8807 40.3152 22.8832C40.4953 22.8832 40.6625 22.9057 40.8147 22.9504C40.9668 22.9954 41.096 23.0704 41.2027 23.1754L41.0174 23.4874C40.9281 23.4066 40.8228 23.3453 40.7083 23.3074C40.5994 23.2725 40.4856 23.2549 40.3712 23.2552C40.1698 23.2559 39.9764 23.3336 39.8311 23.4724C39.7583 23.5435 39.7005 23.6284 39.6612 23.722C39.6181 23.8192 39.5979 23.9266 39.5979 24.0463C39.5979 24.1687 39.6208 24.2785 39.6639 24.3733C39.707 24.4708 39.7651 24.5533 39.8386 24.6229C39.9121 24.6931 39.9986 24.7453 40.0974 24.7804C40.1962 24.8152 40.3001 24.8353 40.4116 24.8353C40.5487 24.8353 40.6704 24.8077 40.7791 24.7552C40.8845 24.7045 40.9792 24.6343 41.0581 24.5482L41.2482 24.8326ZM41.4536 22.9306H43.5094V23.3251H42.6831V25.1521H42.2824V23.3251H41.456V22.9306H41.4536Z" fill="black"/>
<path fill-rule="evenodd" clip-rule="evenodd" d="M45.3805 25.1297C45.5326 25.0823 45.6618 25.0097 45.7733 24.9101L45.6516 24.6005C45.5781 24.6656 45.4793 24.7205 45.3603 24.7655C45.241 24.8105 45.1066 24.8327 44.9596 24.8327C44.7391 24.8327 44.5565 24.7754 44.4119 24.6581C44.2676 24.5405 44.189 24.3761 44.1712 24.1661H45.9053C45.923 24.0887 45.9306 24.0014 45.9306 23.8991C45.9306 23.7467 45.9025 23.6096 45.8468 23.4848C45.7949 23.3636 45.7191 23.2541 45.6239 23.1626C45.5273 23.0721 45.4135 23.0017 45.2892 22.9556C45.1591 22.9053 45.0206 22.8799 44.881 22.8806C44.6933 22.8806 44.5285 22.913 44.3842 22.973C44.2478 23.0302 44.1244 23.1143 44.0215 23.2202C43.9216 23.3256 43.8449 23.4506 43.7962 23.5871C43.7426 23.7326 43.716 23.8864 43.7175 24.0413C43.7175 24.2162 43.748 24.3758 43.8037 24.5183C43.8579 24.6564 43.9409 24.7814 44.0471 24.8852C44.151 24.9872 44.2776 25.0649 44.4273 25.1198C44.5876 25.1764 44.7567 25.2043 44.9268 25.202C45.0808 25.2011 45.2338 25.1768 45.3805 25.13V25.1297ZM44.3664 23.4197C44.4906 23.3075 44.6553 23.2526 44.8632 23.2526C45.0584 23.2526 45.2157 23.3051 45.3299 23.4101C45.444 23.5148 45.5046 23.6597 45.5148 23.8442H44.1459C44.1653 23.6809 44.2437 23.5301 44.3664 23.42V23.4197Z" fill="black"/>
<path d="M46.4756 22.9305H46.8407L47.7077 24.0315L48.5289 22.9305H48.8838V25.1523H48.4834V23.5323L47.7026 24.5631H47.6872L46.8762 23.532V25.152H46.4756V22.9305Z" fill="black"/>
<path fill-rule="evenodd" clip-rule="evenodd" d="M49.9738 22.9381C49.8522 22.9697 49.736 23.0192 49.6291 23.0851L49.7355 23.4001C49.8267 23.3551 49.918 23.3176 50.0093 23.2852C50.1006 23.2525 50.2172 23.2375 50.3567 23.2375C50.4681 23.2375 50.557 23.2552 50.6254 23.29C50.6938 23.3224 50.7444 23.3725 50.7799 23.4325C50.8155 23.4925 50.8384 23.5672 50.851 23.6545C50.8637 23.7418 50.8688 23.8366 50.8688 23.9392C50.7868 23.8823 50.6934 23.8439 50.5949 23.8267C50.4998 23.8078 50.4031 23.7978 50.306 23.7967C50.1867 23.7967 50.0753 23.8144 49.9686 23.8441C49.8623 23.8741 49.771 23.9191 49.6975 23.9791C49.6225 24.0389 49.5618 24.1148 49.5201 24.2011C49.4754 24.2955 49.4529 24.3988 49.4541 24.5032C49.4541 24.7204 49.5177 24.8902 49.6442 25.0102C49.771 25.1299 49.9382 25.1896 50.1461 25.1896C50.3338 25.1896 50.4835 25.1572 50.5974 25.0924C50.7115 25.0273 50.8028 24.9526 50.8688 24.8677V25.1548H51.2438V23.7919C51.2438 23.5021 51.1806 23.2777 51.0513 23.1202C50.9245 22.963 50.6989 22.8832 50.3795 22.8832C50.2374 22.8832 50.103 22.903 49.9738 22.9381ZM50.6434 24.7381C50.5522 24.8029 50.4329 24.8326 50.2859 24.8326C50.1566 24.8326 50.0551 24.8002 49.9843 24.7378C49.9132 24.673 49.8777 24.5881 49.8777 24.4831C49.8777 24.421 49.8903 24.3685 49.9183 24.3211C49.9463 24.2737 49.9843 24.2362 50.0274 24.2062C50.0745 24.1748 50.1268 24.1519 50.1819 24.1387C50.2404 24.1237 50.2985 24.1162 50.3594 24.1162C50.5573 24.1162 50.7269 24.1636 50.8664 24.2635V24.5455C50.8006 24.6188 50.7257 24.6834 50.6434 24.7378V24.7381ZM54.7806 22.1491C54.8616 22.1119 54.9375 22.0495 55.0086 21.9571L54.7905 21.6451C54.7348 21.7201 54.6715 21.7722 54.6004 21.7998C54.5251 21.8292 54.447 21.8509 54.3673 21.8647L54.2913 21.8782C54.2254 21.8896 54.1546 21.9022 54.0784 21.9148C53.9561 21.9373 53.837 21.9741 53.7235 22.0246C53.5433 22.102 53.399 22.2066 53.29 22.3389C53.1809 22.4712 53.0948 22.621 53.0363 22.786C52.9771 22.9531 52.9372 23.1264 52.9173 23.3026C52.8968 23.4826 52.8869 23.6545 52.8869 23.8192C52.8869 24.0316 52.9146 24.2236 52.9703 24.3958C53.0264 24.5683 53.1047 24.7129 53.2086 24.8302C53.3126 24.9502 53.437 25.0402 53.584 25.105C53.731 25.1698 53.8958 25.2022 54.0808 25.2022C54.2507 25.2022 54.4079 25.1698 54.5498 25.1098C54.6866 25.0521 54.8107 24.9682 54.915 24.8629C55.0162 24.7603 55.0975 24.6379 55.1532 24.5008C55.2114 24.3634 55.2394 24.2161 55.2394 24.0613C55.2394 23.8942 55.2141 23.7421 55.1659 23.6071C55.1215 23.4784 55.0507 23.3602 54.958 23.2603C54.8651 23.1619 54.7517 23.0851 54.6257 23.0353C54.487 22.9808 54.3389 22.9537 54.1898 22.9555C54.0934 22.9555 53.9997 22.9681 53.9085 22.993C53.8197 23.0179 53.7344 23.054 53.6548 23.1004C53.5775 23.1444 53.5068 23.1989 53.4445 23.2624C53.3837 23.3251 53.3331 23.395 53.2975 23.4748H53.2873C53.2951 23.3725 53.3077 23.2678 53.3303 23.1604C53.3532 23.053 53.3861 22.9504 53.4295 22.8532C53.4725 22.756 53.5283 22.6684 53.5967 22.5886C53.67 22.508 53.7599 22.4441 53.8603 22.4013C53.9706 22.349 54.0874 22.3113 54.2076 22.2891L54.2871 22.2748C54.3664 22.2604 54.442 22.2466 54.5143 22.2316C54.6107 22.2118 54.6993 22.1866 54.7806 22.1494V22.1491ZM53.371 24.2836C53.3318 24.1575 53.313 24.0261 53.3153 23.8942C53.3323 23.8184 53.3632 23.7465 53.4066 23.6821C53.4496 23.6146 53.5054 23.5549 53.5713 23.5021C53.7202 23.3859 53.9043 23.3235 54.0934 23.3251C54.3293 23.3251 54.5067 23.3974 54.6309 23.5399C54.7553 23.6845 54.8161 23.8642 54.8161 24.0814C54.8161 24.1888 54.7957 24.2863 54.7604 24.376C54.7261 24.4644 54.6744 24.5452 54.6082 24.6133C54.542 24.6815 54.4627 24.7358 54.3751 24.7729C54.2838 24.8128 54.1847 24.8329 54.0732 24.8329C53.9618 24.8329 53.8603 24.8104 53.7666 24.7654C53.6734 24.7213 53.5912 24.6574 53.5256 24.5782C53.4569 24.4899 53.4045 24.3901 53.371 24.2836ZM58.3119 22.9306H57.9112V25.1524H58.3119V22.9306ZM55.8172 22.9306H56.2179V23.5972H56.5881C56.7629 23.5972 56.9047 23.6197 57.0189 23.662C57.1331 23.7046 57.2244 23.7619 57.2928 23.8318C57.3611 23.9017 57.4093 23.9842 57.4374 24.0763C57.4651 24.1687 57.4804 24.2635 57.4804 24.3634C57.4804 24.4633 57.4651 24.5584 57.4322 24.6532C57.4018 24.748 57.3485 24.8302 57.2774 24.9052C57.2066 24.9802 57.1102 25.0402 56.9885 25.0852C56.8668 25.1299 56.7198 25.1548 56.5423 25.1548H55.8148V22.9306H55.8172ZM56.2179 23.9689V24.7828H56.5095C56.7098 24.7828 56.8517 24.748 56.9328 24.6778C57.0141 24.6079 57.0545 24.5083 57.0545 24.376C57.0545 24.241 57.0114 24.139 56.9304 24.0688C56.8466 23.9989 56.7071 23.9638 56.5146 23.9638H56.2179V23.9689Z" fill="black"/>
<path d="M60.9611 24.8326C60.8647 24.955 60.7379 25.0474 60.5858 25.1098C60.4297 25.173 60.2626 25.2053 60.0941 25.2046C59.9265 25.2069 59.7598 25.179 59.6022 25.1224C59.4605 25.0712 59.331 24.9914 59.222 24.8878C59.1142 24.7841 59.0296 24.659 58.9734 24.5206C58.9132 24.3689 58.8831 24.207 58.8849 24.0439C58.8849 23.8819 58.9126 23.7319 58.971 23.5897C59.0268 23.4472 59.1078 23.3251 59.2093 23.2225C59.3109 23.1178 59.4323 23.038 59.5693 22.9756C59.7138 22.9122 59.8703 22.8807 60.0281 22.8832C60.208 22.8832 60.3755 22.9057 60.5276 22.9504C60.6797 22.9954 60.809 23.0704 60.9153 23.1754L60.7304 23.4874C60.6409 23.4067 60.5355 23.3454 60.421 23.3074C60.3121 23.2725 60.1983 23.2548 60.0839 23.2552C59.9826 23.2552 59.8862 23.275 59.7923 23.3125C59.7 23.3495 59.6158 23.4038 59.544 23.4724C59.4711 23.5434 59.4133 23.6283 59.3741 23.722C59.331 23.8192 59.3108 23.9266 59.3108 24.0463C59.3108 24.1687 59.3334 24.2785 59.3765 24.3733C59.4196 24.4708 59.478 24.5533 59.5515 24.6229C59.6251 24.6931 59.7112 24.7453 59.81 24.7804C59.9091 24.8152 60.0131 24.8353 60.1245 24.8353C60.2613 24.8353 60.383 24.8077 60.4921 24.7552C60.5974 24.7045 60.6921 24.6343 60.771 24.5482L60.9611 24.8326ZM61.1663 22.9306H63.2223V23.3251H62.3957V25.1521H61.9953V23.3251H61.169V22.9306H61.1663Z" fill="black"/>
<path fill-rule="evenodd" clip-rule="evenodd" d="M64.0589 22.9308H63.6582V26.1408H64.0589V25.05C64.1399 25.1025 64.2363 25.14 64.3478 25.1649C64.4593 25.1898 64.5759 25.2021 64.6952 25.2021C64.8726 25.2021 65.0323 25.1697 65.1769 25.11C65.3156 25.0509 65.4412 24.9653 65.5468 24.858C65.6507 24.7503 65.7294 24.6255 65.7851 24.4782C65.8408 24.3312 65.8688 24.1737 65.8688 24.0066C65.8688 23.8416 65.8435 23.6895 65.7953 23.5521C65.75 23.4216 65.6793 23.3012 65.5875 23.1978C65.4973 23.0969 65.3855 23.0175 65.2603 22.9656C65.1235 22.907 64.9757 22.8781 64.8268 22.8807C64.6698 22.8807 64.5228 22.9107 64.3834 22.9707C64.2439 23.0307 64.1348 23.1027 64.0589 23.1927V22.9308ZM64.3379 23.3427C64.452 23.2827 64.5762 23.2527 64.7105 23.2527C64.8271 23.2527 64.931 23.2701 65.025 23.3076C65.1163 23.3451 65.1922 23.3976 65.2558 23.4675C65.3191 23.5374 65.3673 23.6175 65.3977 23.712C65.4305 23.8068 65.4459 23.9094 65.4459 24.0216C65.4459 24.1416 65.4254 24.2487 65.3902 24.3486C65.3569 24.4433 65.3042 24.53 65.2353 24.6033C65.1661 24.6756 65.0823 24.7326 64.9895 24.7704C64.886 24.8135 64.7745 24.8348 64.6623 24.8328C64.5536 24.8328 64.452 24.8205 64.3556 24.7956C64.2501 24.767 64.15 24.7214 64.0592 24.6606V23.5596C64.13 23.475 64.224 23.4027 64.3379 23.3427ZM68.9414 22.9305H68.5407V25.1523H68.9414V22.9305ZM66.4442 22.9305H66.8449V23.5971H67.2149C67.3899 23.5971 67.5318 23.6196 67.646 23.6619C67.7601 23.7045 67.8514 23.7618 67.9198 23.8317C67.9882 23.9016 68.0364 23.9841 68.0641 24.0762C68.0921 24.1686 68.1072 24.2634 68.1072 24.3633C68.1072 24.4632 68.0921 24.5583 68.0593 24.6531C68.0289 24.7479 67.9755 24.8301 67.9044 24.9051C67.8336 24.9801 67.7372 25.0401 67.6155 25.0851C67.4938 25.1298 67.3468 25.1547 67.1694 25.1547H66.4418V22.9305H66.4442ZM66.8476 23.9688V24.7827H67.1392C67.3393 24.7827 67.4815 24.7479 67.5625 24.6777C67.6435 24.6078 67.6842 24.5082 67.6842 24.3759C67.6842 24.2409 67.6411 24.1389 67.5601 24.0687C67.4763 23.9988 67.3369 23.9637 67.1444 23.9637H66.8476V23.9688Z" fill="black"/>
<path d="M70.863 24.0015L71.7198 25.1523H71.2281L70.5663 24.2535L69.8945 25.1523H69.4281L70.2798 24.0213L69.4787 22.9305H69.9707L70.5816 23.7693L71.2025 22.9305H71.6692L70.863 24.0015ZM35.6713 27.8982H34.4419V29.7504H34.0412V27.5289H36.0717V29.7504H35.6713V27.8982ZM38.3455 27.9231H37.5547L37.5291 28.2975C37.5014 28.6146 37.4635 28.8693 37.4101 29.0637C37.3568 29.2587 37.2908 29.4084 37.2149 29.5131C37.139 29.6181 37.0501 29.6904 36.9486 29.7255C36.8439 29.7633 36.7331 29.7819 36.6218 29.7804L36.5913 29.3958C36.6344 29.3982 36.685 29.3883 36.7407 29.3634C36.7968 29.3385 36.8525 29.2836 36.9055 29.2014C36.9589 29.1162 37.0071 28.9965 37.0501 28.8417C37.0932 28.6845 37.1212 28.4799 37.1363 28.2225L37.177 27.531H38.7462V29.7528H38.3455V27.9228V27.9231Z" fill="black"/>
<path fill-rule="evenodd" clip-rule="evenodd" d="M39.8262 27.5339C39.6967 27.5687 39.5801 27.6185 39.4813 27.6809L39.588 27.9956C39.6792 27.9506 39.7705 27.9131 39.8615 27.8807C39.9528 27.8483 40.0697 27.8333 40.2088 27.8333C40.3206 27.8333 40.4092 27.8507 40.4776 27.8855C40.5463 27.9182 40.5969 27.968 40.6324 28.028C40.6677 28.088 40.6906 28.163 40.7032 28.25C40.7159 28.3376 40.721 28.4324 40.721 28.5347C40.639 28.4779 40.5455 28.4396 40.4471 28.4225C40.352 28.4036 40.2553 28.3936 40.1582 28.3925C40.0392 28.3925 39.9275 28.4099 39.8211 28.4399C39.7145 28.4699 39.6232 28.5149 39.5497 28.5749C39.4747 28.6348 39.414 28.7106 39.3722 28.7969C39.3277 28.8913 39.3052 28.9946 39.3066 29.099C39.3066 29.3159 39.3698 29.486 39.4967 29.6057C39.6232 29.7254 39.7907 29.7854 39.9986 29.7854C40.1862 29.7854 40.3357 29.753 40.4498 29.6879C40.5637 29.6231 40.655 29.5481 40.721 29.4632V29.7503H41.0963V28.3874C41.0963 28.0979 41.0328 27.8732 40.9035 27.716C40.7767 27.5585 40.5511 27.479 40.2317 27.479C40.0947 27.4791 39.9584 27.4975 39.8262 27.5336V27.5339ZM40.498 29.3333C40.4071 29.3984 40.2878 29.4284 40.1408 29.4284C40.0088 29.4284 39.91 29.396 39.8392 29.3333C39.7681 29.2685 39.7326 29.1836 39.7326 29.0789C39.7326 29.0165 39.7452 28.964 39.7732 28.9166C39.8009 28.8692 39.8392 28.8317 39.8823 28.8017C39.9254 28.7717 39.9784 28.7492 40.0368 28.7342C40.0948 28.7193 40.1544 28.7118 40.2143 28.712C40.4119 28.712 40.5818 28.7594 40.7213 28.859V29.141C40.6554 29.2143 40.5804 29.279 40.498 29.3333Z" fill="black"/>
<path d="M41.4889 27.5288H43.545V27.923H42.7183V29.7503H42.3179V27.9233H41.4916V27.5288H41.4889Z" fill="black"/>
<path fill-rule="evenodd" clip-rule="evenodd" d="M45.416 29.7279C45.5681 29.6805 45.6974 29.6079 45.8088 29.5083L45.6871 29.1987C45.6136 29.2638 45.5148 29.3187 45.3955 29.3637C45.2765 29.4087 45.1422 29.4309 44.9951 29.4309C44.7746 29.4309 44.5921 29.3736 44.4475 29.2563C44.3029 29.139 44.2245 28.9743 44.2068 28.7643H45.9408C45.9583 28.6872 45.9661 28.5996 45.9661 28.4973C45.9661 28.3452 45.9381 28.2078 45.8823 28.083C45.8304 27.9618 45.7545 27.8523 45.6591 27.7611C45.5628 27.6703 45.449 27.5998 45.3247 27.5538C45.1946 27.5035 45.0561 27.4781 44.9165 27.4788C44.7288 27.4788 44.5641 27.5112 44.4198 27.5712C44.2832 27.6282 44.1598 27.7123 44.057 27.8184C43.9572 27.9238 43.8803 28.0487 43.8314 28.1853C43.778 28.3307 43.7513 28.4846 43.7528 28.6395C43.7528 28.8144 43.7832 28.974 43.8389 29.1165C43.895 29.2587 43.9784 29.3811 44.0823 29.4834C44.1863 29.5857 44.3131 29.6631 44.4628 29.718C44.623 29.7747 44.792 29.8026 44.962 29.8005C45.1117 29.8005 45.2639 29.7753 45.416 29.7279ZM44.3996 28.0155C44.5237 27.9033 44.6885 27.8484 44.8963 27.8484C45.0943 27.8484 45.2488 27.9033 45.363 28.0056C45.4769 28.1106 45.5377 28.2552 45.548 28.44H44.179C44.1984 28.2765 44.2768 28.1256 44.3996 28.0155ZM46.1613 27.5289H46.6683L47.4413 28.5999L46.615 29.7504H46.1233L46.9901 28.5996L46.1613 27.5286V27.5289ZM47.5402 27.5289H47.9408V29.7504H47.5402V27.5289ZM49.373 29.7504L48.4909 28.5996L49.3148 27.5286H48.8178L48.0396 28.5996L48.8762 29.7504H49.373ZM51.2034 29.7279C51.3555 29.6805 51.4848 29.6079 51.5963 29.5083L51.4745 29.1987C51.401 29.2638 51.3022 29.3187 51.1832 29.3637C51.0639 29.4087 50.9296 29.4309 50.7826 29.4309C50.562 29.4309 50.3795 29.3736 50.2349 29.2563C50.0906 29.139 50.012 28.9743 49.9942 28.7643H51.7282C51.746 28.6872 51.7535 28.5996 51.7535 28.4973C51.7535 28.3452 51.7258 28.2078 51.6698 28.083C51.6179 27.9619 51.542 27.8524 51.4468 27.7611C51.3504 27.6703 51.2365 27.5998 51.1121 27.5538C50.982 27.5035 50.8435 27.478 50.7039 27.4788C50.5166 27.4788 50.3518 27.5112 50.2072 27.5712C50.0708 27.6283 49.9475 27.7124 49.8448 27.8184C49.7447 27.9237 49.6678 28.0486 49.6191 28.1853C49.5656 28.3307 49.5389 28.4846 49.5405 28.6395C49.5405 28.8144 49.5709 28.974 49.6266 29.1165C49.6824 29.2587 49.7661 29.3811 49.8701 29.4834C49.974 29.5857 50.1005 29.6631 50.2502 29.718C50.4105 29.7747 50.5796 29.8026 50.7497 29.8005C50.9038 29.7993 51.0568 29.7748 51.2034 29.7279ZM50.187 28.0155C50.3114 27.9033 50.4762 27.8484 50.6841 27.8484C50.8793 27.8484 51.0362 27.9033 51.1504 28.0056C51.2646 28.1106 51.3254 28.2552 51.3354 28.44H49.9665C49.9858 28.2765 50.0642 28.1256 50.187 28.0155ZM53.3788 26.7825C53.1429 26.7825 53.0137 26.6526 52.9935 26.3931H52.6157C52.6157 26.4927 52.6335 26.5827 52.6663 26.6676C52.6994 26.7525 52.7476 26.8248 52.8109 26.8848C52.8742 26.9448 52.9555 26.9922 53.0492 27.0294C53.1429 27.0669 53.252 27.0843 53.3761 27.0843C53.4902 27.0843 53.5918 27.0669 53.683 27.0294C53.7743 26.9946 53.8502 26.9448 53.9162 26.8848C53.9795 26.8248 54.0304 26.7525 54.0656 26.6676C54.1012 26.5827 54.119 26.4927 54.119 26.3931H53.7439C53.7261 26.6526 53.6017 26.7825 53.3788 26.7825ZM52.2961 27.5286V29.7504H52.6967L53.9997 28.0953V29.7504H54.4003V27.5286H53.9997L52.6967 29.1837V27.5286H52.2961Z" fill="black"/>
</g>
<defs>
<clipPath id="clip0_7114_35299">
<rect width="72" height="36" fill="white"/>
</clipPath>
</defs>
</svg>
