<svg width="64" height="64" viewBox="0 0 64 64" fill="none" xmlns="http://www.w3.org/2000/svg">
<rect width="64" height="64" rx="32" fill="#F6F6F7"/>
<path d="M44.1276 26.2589C45.3274 25.9161 46.6131 26.6017 46.8702 27.8016C47.213 29.0872 47.3844 30.3728 47.3844 31.7442C47.3844 40.1434 40.5279 47 32.0429 47C23.5579 47 16.6156 40.1434 16.6156 31.7442C16.6156 24.8876 21.3295 18.8024 28.1003 17.0883C29.3002 16.7454 30.5858 17.4311 30.843 18.631C31.1858 19.8309 30.5001 21.0308 29.3002 21.3736C24.5006 22.6592 21.1581 26.9446 21.1581 31.8299C21.1581 34.4011 22.1008 36.8866 23.6436 38.7721C23.4722 38.1722 23.3865 37.6579 23.3865 37.058C23.3865 33.9725 25.872 31.4013 29.0431 31.4013C32.2143 31.4013 34.6998 33.8868 34.6998 37.058C34.6998 39.7149 32.8142 41.9433 30.3287 42.5432C30.843 42.6289 31.4429 42.6289 31.9572 42.6289C37.9566 42.6289 42.8419 37.7436 42.8419 31.8299C42.8419 30.8871 42.6705 29.9443 42.4991 29.0015C42.242 27.8016 42.9277 26.6017 44.1276 26.2589ZM38.728 18.2024C40.6993 18.631 41.9849 20.6879 41.4706 22.6592C40.9564 24.6305 38.9851 25.8304 37.0139 25.4018C35.0426 24.9733 33.757 22.9163 34.2712 20.9451C34.7855 18.8881 36.7567 17.6882 38.728 18.2024Z" fill="#FF8C00"/>
</svg>
