<svg width="20" height="20" viewBox="0 0 20 20" fill="none" xmlns="http://www.w3.org/2000/svg">
<path d="M6.6667 13.3334H13.45M9.16667 15.8334H10.95M6.66678 1.66669H13.5668L18.4501 6.55002V13.45L13.5668 18.3334H6.66678L1.78345 13.45V6.55002L6.66678 1.66669Z" stroke="#1C1C1C" stroke-width="1.25" stroke-linecap="round" stroke-linejoin="round"/>
<path d="M7.08417 6.98332C7.10361 7.07276 7.10556 7.16415 7.09 7.25749C7.07834 7.34693 7.06084 7.4286 7.0375 7.50249C6.99084 7.65415 6.93639 7.82332 6.87417 8.00999C6.81195 8.19665 6.74972 8.38332 6.6875 8.56999C6.62528 8.75665 6.565 8.9336 6.50667 9.10082C6.44834 9.26415 6.39972 9.40026 6.36084 9.50915C6.32195 9.61026 6.28111 9.72499 6.23834 9.85332C6.19556 9.98165 6.14306 10.108 6.08084 10.2325C6.0225 10.353 5.9525 10.4639 5.87084 10.565C5.79306 10.6661 5.69778 10.74 5.585 10.7867C5.47222 10.8333 5.36917 10.845 5.27584 10.8217C5.1825 10.7944 5.09889 10.7478 5.025 10.6817C4.95111 10.6117 4.88306 10.5261 4.82084 10.425C4.7625 10.32 4.71 10.213 4.66334 10.1042C4.61667 9.99526 4.57389 9.89026 4.535 9.78915C4.49611 9.68415 4.46111 9.59471 4.43 9.52082C4.30945 9.25638 4.20056 8.97638 4.10334 8.68082C4.00611 8.38526 3.90695 8.10332 3.80584 7.83499C3.77861 7.75721 3.7475 7.66387 3.7125 7.55499C3.6775 7.44221 3.65417 7.33138 3.6425 7.22249C3.63472 7.10971 3.64834 7.0086 3.68334 6.91915C3.71834 6.82582 3.79222 6.76165 3.905 6.72665C3.92834 6.71888 3.95167 6.71304 3.975 6.70915C4.00222 6.70138 4.0275 6.69554 4.05084 6.69165C4.07806 6.69165 4.10334 6.6936 4.12667 6.69749C4.15 6.70138 4.17528 6.7111 4.2025 6.72665C4.22195 6.73443 4.24139 6.74415 4.26084 6.75582C4.28028 6.7636 4.29778 6.77526 4.31334 6.79082C4.32889 6.81026 4.3425 6.82971 4.35417 6.84915C4.36972 6.8686 4.38528 6.88804 4.40084 6.90749C4.4125 6.93471 4.42222 6.95999 4.43 6.98332C4.44167 7.00276 4.45139 7.02221 4.45917 7.04165C4.46695 7.06888 4.47667 7.09415 4.48834 7.11749C4.5 7.13693 4.50972 7.15638 4.5175 7.17582L4.5525 7.27499L5.3925 9.67249L6.22084 7.28082L6.26167 7.18165C6.26945 7.16221 6.27722 7.14276 6.285 7.12332C6.29278 7.09999 6.30056 7.07471 6.30834 7.04749C6.31611 7.02804 6.32389 7.0086 6.33167 6.98915C6.34334 6.96582 6.35695 6.94249 6.3725 6.91915C6.38417 6.89971 6.39584 6.88026 6.4075 6.86082C6.42306 6.83749 6.43861 6.8161 6.45417 6.79665C6.46584 6.7811 6.47945 6.76749 6.495 6.75582C6.51445 6.74415 6.53195 6.73443 6.5475 6.72665C6.57861 6.7111 6.60584 6.70138 6.62917 6.69749C6.65639 6.6936 6.67972 6.69165 6.69917 6.69165C6.7225 6.69554 6.74584 6.70138 6.76917 6.70915C6.79639 6.71304 6.82167 6.71888 6.845 6.72665C6.91889 6.7461 6.97334 6.77915 7.00834 6.82582C7.04722 6.87249 7.0725 6.92499 7.08417 6.98332Z" fill="#1C1C1C"/>
<path d="M7.74817 10.215L7.754 9.75415L7.75983 8.89665C7.76372 8.77221 7.76567 8.64388 7.76567 8.51165C7.76567 8.37943 7.76567 8.24332 7.76567 8.10332C7.76567 7.96332 7.76567 7.83888 7.76567 7.72999C7.76567 7.6211 7.76956 7.4986 7.77733 7.36249V7.33915C7.78122 7.30026 7.78317 7.26138 7.78317 7.22249C7.78706 7.17971 7.789 7.13693 7.789 7.09415C7.79289 7.02415 7.81428 6.94832 7.85317 6.86665C7.88039 6.81221 7.92122 6.76554 7.97567 6.72665C8.03789 6.69554 8.09817 6.67999 8.1565 6.67999C8.18761 6.67999 8.21483 6.68193 8.23817 6.68582C8.26539 6.68582 8.29067 6.68776 8.314 6.69165C8.36456 6.69943 8.40928 6.72276 8.44817 6.76165C8.4715 6.7811 8.49289 6.81221 8.51233 6.85499C8.52011 6.87832 8.52594 6.90165 8.52983 6.92499C8.53761 6.94443 8.54344 6.96582 8.54733 6.98915C8.55122 7.01638 8.55317 7.04165 8.55317 7.06499C8.55705 7.08832 8.559 7.11165 8.559 7.13499C8.559 7.16221 8.55705 7.18749 8.55317 7.21082C8.55317 7.23026 8.55317 7.25165 8.55317 7.27499V7.37415L8.51817 10.4017V10.46C8.51817 10.4717 8.51622 10.4872 8.51233 10.5067C8.51233 10.5222 8.51039 10.5417 8.5065 10.565C8.49872 10.5844 8.49094 10.6058 8.48317 10.6292C8.47928 10.6486 8.47344 10.67 8.46567 10.6933C8.454 10.7128 8.44039 10.7322 8.42483 10.7517C8.41317 10.7672 8.39761 10.7828 8.37817 10.7983C8.34705 10.8294 8.2965 10.8508 8.2265 10.8625C8.1215 10.8858 8.02233 10.8761 7.929 10.8333C7.88233 10.8022 7.84928 10.7633 7.82983 10.7167C7.81817 10.705 7.81233 10.6933 7.81233 10.6817C7.80844 10.6739 7.80455 10.668 7.80067 10.6642C7.79678 10.6603 7.79289 10.6544 7.789 10.6467C7.78122 10.6272 7.77539 10.6078 7.7715 10.5883C7.76761 10.565 7.76567 10.5417 7.76567 10.5183C7.76178 10.4989 7.75789 10.4794 7.754 10.46C7.754 10.4405 7.75205 10.4211 7.74817 10.4017C7.74428 10.3705 7.74428 10.3375 7.74817 10.3025V10.215Z" fill="#1C1C1C"/>
<path d="M12.2239 9.13582C12.2434 9.19026 12.257 9.25249 12.2648 9.32249C12.2764 9.3886 12.2823 9.45665 12.2823 9.52665C12.2823 9.59665 12.2764 9.66665 12.2648 9.73665C12.257 9.80276 12.2453 9.8611 12.2298 9.91165C12.1675 10.1294 12.0431 10.3122 11.8564 10.46C11.6698 10.6039 11.4559 10.7089 11.2148 10.775C10.9775 10.8411 10.7306 10.8644 10.4739 10.845C10.2211 10.8255 9.99559 10.7614 9.79726 10.6525C9.67282 10.5825 9.56587 10.4969 9.47643 10.3958C9.38698 10.2947 9.31115 10.1819 9.24893 10.0575C9.22559 10.0147 9.21004 9.9661 9.20226 9.91165C9.19837 9.85332 9.20421 9.79888 9.21976 9.74832C9.23532 9.69388 9.26059 9.64721 9.29559 9.60832C9.33059 9.56554 9.37921 9.53638 9.44143 9.52082C9.48032 9.51304 9.52309 9.50915 9.56976 9.50915C9.62032 9.50915 9.66893 9.51693 9.71559 9.53249C9.76226 9.54415 9.80504 9.56554 9.84393 9.59665C9.88282 9.62388 9.91393 9.66276 9.93726 9.71332C9.98004 9.79499 10.0403 9.87082 10.1181 9.94082C10.1998 10.0069 10.2853 10.0614 10.3748 10.1042C10.5031 10.1469 10.6314 10.1644 10.7598 10.1567C10.892 10.1489 11.0106 10.1197 11.1156 10.0692C11.2245 10.0186 11.312 9.95054 11.3781 9.86499C11.4442 9.77554 11.4773 9.67443 11.4773 9.56165C11.4773 9.46832 11.4636 9.39249 11.4364 9.33415C11.4092 9.27193 11.3703 9.22137 11.3198 9.18249C11.2731 9.13971 11.2148 9.10471 11.1448 9.07749C11.0786 9.05026 11.0048 9.02693 10.9231 9.00749C10.8298 8.98804 10.7345 8.97443 10.6373 8.96665C10.5439 8.95887 10.4487 8.94915 10.3514 8.93749C10.2542 8.92582 10.1589 8.91026 10.0656 8.89082C9.97226 8.87138 9.88087 8.84221 9.79143 8.80332C9.61254 8.72943 9.47643 8.61665 9.38309 8.46499C9.28976 8.31332 9.23337 8.14999 9.21393 7.97499C9.19837 7.79999 9.21976 7.62693 9.27809 7.45582C9.33643 7.28082 9.42976 7.1311 9.55809 7.00665C9.68254 6.89387 9.83032 6.81415 10.0014 6.76749C10.1764 6.71693 10.3689 6.68776 10.5789 6.67999C10.6956 6.6761 10.8123 6.67999 10.9289 6.69165C11.0495 6.70332 11.1642 6.72276 11.2731 6.74999C11.3859 6.77721 11.4889 6.81221 11.5823 6.85499C11.6795 6.89776 11.7631 6.94832 11.8331 7.00665C11.8836 7.04554 11.9342 7.09804 11.9848 7.16415C12.0353 7.22638 12.0742 7.29443 12.1014 7.36832C12.1286 7.43832 12.1364 7.50638 12.1248 7.57249C12.117 7.6386 12.0761 7.69499 12.0023 7.74165C11.94 7.78054 11.8798 7.79804 11.8214 7.79415C11.767 7.78638 11.7145 7.76888 11.6639 7.74165C11.6134 7.71054 11.5648 7.67554 11.5181 7.63665C11.4714 7.59776 11.4286 7.56276 11.3898 7.53165C11.2848 7.45388 11.1545 7.40137 10.9989 7.37415C10.8434 7.34693 10.6975 7.3411 10.5614 7.35665C10.4759 7.36832 10.3961 7.38776 10.3223 7.41499C10.2484 7.44221 10.1842 7.47915 10.1298 7.52582C10.0792 7.57249 10.0384 7.63082 10.0073 7.70082C9.98004 7.76693 9.97032 7.84276 9.97809 7.92832C9.98198 7.99054 9.99948 8.04304 10.0306 8.08582C10.0656 8.1286 10.1064 8.1636 10.1531 8.19082C10.2036 8.21804 10.2581 8.23943 10.3164 8.25499C10.3748 8.27054 10.4331 8.28221 10.4914 8.28999C10.6664 8.31332 10.8414 8.33082 11.0164 8.34249C11.1914 8.35415 11.3625 8.39304 11.5298 8.45915C11.7009 8.52526 11.8467 8.61471 11.9673 8.72749C12.0878 8.84026 12.1734 8.97638 12.2239 9.13582Z" fill="#1C1C1C"/>
<path d="M16.3504 10.4367C16.3543 10.46 16.3563 10.4833 16.3563 10.5067C16.3601 10.5261 16.3621 10.5494 16.3621 10.5767C16.3621 10.6233 16.3485 10.6661 16.3213 10.705C16.3096 10.7244 16.294 10.7439 16.2746 10.7633C16.2551 10.7789 16.2318 10.7925 16.2046 10.8042C16.1074 10.8586 16.0043 10.878 15.8954 10.8625C15.841 10.8469 15.7924 10.8217 15.7496 10.7867C15.7418 10.7789 15.736 10.775 15.7321 10.775C15.7282 10.7711 15.7243 10.7653 15.7204 10.7575C15.7165 10.7536 15.7126 10.7497 15.7088 10.7458C15.7049 10.738 15.699 10.7322 15.6913 10.7283C15.6718 10.7089 15.6563 10.6914 15.6446 10.6758C15.6329 10.6564 15.6213 10.6369 15.6096 10.6175C15.6018 10.598 15.5921 10.5805 15.5804 10.565C15.5726 10.5455 15.5629 10.5261 15.5513 10.5067C15.5435 10.4911 15.5357 10.4775 15.5279 10.4658C15.5201 10.4503 15.5143 10.4347 15.5104 10.4192C15.4949 10.3842 15.4851 10.353 15.4813 10.3258L15.3588 10.04C15.0904 10.04 14.8221 10.0419 14.5538 10.0458C14.2893 10.0458 14.0229 10.0439 13.7546 10.04L13.6321 10.3258C13.6243 10.3414 13.6185 10.3569 13.6146 10.3725C13.6146 10.388 13.6107 10.4036 13.6029 10.4192C13.5951 10.4347 13.5874 10.4503 13.5796 10.4658C13.5757 10.4775 13.5699 10.4911 13.5621 10.5067C13.5504 10.5261 13.5388 10.5455 13.5271 10.565C13.5193 10.5805 13.5096 10.598 13.4979 10.6175C13.4901 10.6369 13.4804 10.6564 13.4688 10.6758C13.4571 10.6914 13.4415 10.7089 13.4221 10.7283C13.4143 10.7322 13.4085 10.738 13.4046 10.7458C13.4007 10.7497 13.3968 10.7536 13.3929 10.7575C13.389 10.7653 13.3851 10.7711 13.3813 10.775C13.3774 10.775 13.3715 10.7789 13.3638 10.7867C13.321 10.8217 13.2724 10.8469 13.2179 10.8625C13.109 10.878 13.006 10.8586 12.9088 10.8042C12.8815 10.7925 12.8582 10.7789 12.8388 10.7633C12.8193 10.7439 12.8038 10.7244 12.7921 10.705C12.7649 10.6661 12.7513 10.6233 12.7513 10.5767C12.7513 10.5494 12.7513 10.5261 12.7513 10.5067C12.7551 10.4833 12.759 10.46 12.7629 10.4367C12.7707 10.4017 12.7804 10.3667 12.7921 10.3317C12.8038 10.2967 12.8096 10.2792 12.8096 10.2792L14.0229 7.29249L14.0579 7.19915C14.0657 7.17582 14.0754 7.15443 14.0871 7.13499C14.0988 7.11554 14.1085 7.09221 14.1163 7.06499C14.1357 7.01443 14.1571 6.96971 14.1804 6.93082C14.1921 6.90749 14.2057 6.8861 14.2213 6.86665C14.2368 6.84721 14.2524 6.82776 14.2679 6.80832C14.2913 6.77721 14.3243 6.75193 14.3671 6.73249C14.4215 6.71304 14.4838 6.70332 14.5538 6.70332C14.6276 6.70332 14.6918 6.71304 14.7463 6.73249C14.789 6.75193 14.8221 6.77721 14.8454 6.80832C14.8726 6.84332 14.9018 6.88415 14.9329 6.93082C14.9563 6.96971 14.9776 7.01443 14.9971 7.06499C15.0049 7.09221 15.0146 7.11554 15.0263 7.13499C15.0379 7.15443 15.0476 7.17582 15.0554 7.19915L15.0904 7.29249L16.3038 10.2792C16.3038 10.2792 16.3096 10.2967 16.3213 10.3317C16.3329 10.3667 16.3426 10.4017 16.3504 10.4367ZM14.9679 9.00749C14.9174 8.89471 14.8649 8.77804 14.8104 8.65749C14.7599 8.53693 14.7054 8.41443 14.6471 8.28999C14.6315 8.25499 14.616 8.21999 14.6004 8.18499C14.5849 8.1461 14.5693 8.10915 14.5538 8.07415C14.5421 8.10915 14.5285 8.1461 14.5129 8.18499C14.4974 8.21999 14.4818 8.25499 14.4663 8.28999C14.4079 8.41443 14.3515 8.53693 14.2971 8.65749C14.2465 8.77804 14.196 8.89471 14.1454 9.00749L14.0404 9.26415H15.0729L14.9679 9.00749Z" fill="#1C1C1C"/>
<path d="M7.08417 6.98332C7.10361 7.07276 7.10556 7.16415 7.09 7.25749C7.07834 7.34693 7.06084 7.4286 7.0375 7.50249C6.99084 7.65415 6.93639 7.82332 6.87417 8.00999C6.81195 8.19665 6.74972 8.38332 6.6875 8.56999C6.62528 8.75665 6.565 8.9336 6.50667 9.10082C6.44834 9.26415 6.39972 9.40026 6.36084 9.50915C6.32195 9.61026 6.28111 9.72499 6.23834 9.85332C6.19556 9.98165 6.14306 10.108 6.08084 10.2325C6.0225 10.353 5.9525 10.4639 5.87084 10.565C5.79306 10.6661 5.69778 10.74 5.585 10.7867C5.47222 10.8333 5.36917 10.845 5.27584 10.8217C5.1825 10.7944 5.09889 10.7478 5.025 10.6817C4.95111 10.6117 4.88306 10.5261 4.82084 10.425C4.7625 10.32 4.71 10.213 4.66334 10.1042C4.61667 9.99526 4.57389 9.89026 4.535 9.78915C4.49611 9.68415 4.46111 9.59471 4.43 9.52082C4.30945 9.25638 4.20056 8.97638 4.10334 8.68082C4.00611 8.38526 3.90695 8.10332 3.80584 7.83499C3.77861 7.75721 3.7475 7.66387 3.7125 7.55499C3.6775 7.44221 3.65417 7.33138 3.6425 7.22249C3.63472 7.10971 3.64834 7.0086 3.68334 6.91915C3.71834 6.82582 3.79222 6.76165 3.905 6.72665C3.92834 6.71888 3.95167 6.71304 3.975 6.70915C4.00222 6.70138 4.0275 6.69554 4.05084 6.69165C4.07806 6.69165 4.10334 6.6936 4.12667 6.69749C4.15 6.70138 4.17528 6.7111 4.2025 6.72665C4.22195 6.73443 4.24139 6.74415 4.26084 6.75582C4.28028 6.7636 4.29778 6.77526 4.31334 6.79082C4.32889 6.81026 4.3425 6.82971 4.35417 6.84915C4.36972 6.8686 4.38528 6.88804 4.40084 6.90749C4.4125 6.93471 4.42222 6.95999 4.43 6.98332C4.44167 7.00276 4.45139 7.02221 4.45917 7.04165C4.46695 7.06888 4.47667 7.09415 4.48834 7.11749C4.5 7.13693 4.50972 7.15638 4.5175 7.17582L4.5525 7.27499L5.3925 9.67249L6.22084 7.28082L6.26167 7.18165C6.26945 7.16221 6.27722 7.14276 6.285 7.12332C6.29278 7.09999 6.30056 7.07471 6.30834 7.04749C6.31611 7.02804 6.32389 7.0086 6.33167 6.98915C6.34334 6.96582 6.35695 6.94249 6.3725 6.91915C6.38417 6.89971 6.39584 6.88026 6.4075 6.86082C6.42306 6.83749 6.43861 6.8161 6.45417 6.79665C6.46584 6.7811 6.47945 6.76749 6.495 6.75582C6.51445 6.74415 6.53195 6.73443 6.5475 6.72665C6.57861 6.7111 6.60584 6.70138 6.62917 6.69749C6.65639 6.6936 6.67972 6.69165 6.69917 6.69165C6.7225 6.69554 6.74584 6.70138 6.76917 6.70915C6.79639 6.71304 6.82167 6.71888 6.845 6.72665C6.91889 6.7461 6.97334 6.77915 7.00834 6.82582C7.04722 6.87249 7.0725 6.92499 7.08417 6.98332Z" stroke="#1C1C1C" stroke-width="0.25"/>
<path d="M7.74817 10.215L7.754 9.75415L7.75983 8.89665C7.76372 8.77221 7.76567 8.64388 7.76567 8.51165C7.76567 8.37943 7.76567 8.24332 7.76567 8.10332C7.76567 7.96332 7.76567 7.83888 7.76567 7.72999C7.76567 7.6211 7.76956 7.4986 7.77733 7.36249V7.33915C7.78122 7.30026 7.78317 7.26138 7.78317 7.22249C7.78706 7.17971 7.789 7.13693 7.789 7.09415C7.79289 7.02415 7.81428 6.94832 7.85317 6.86665C7.88039 6.81221 7.92122 6.76554 7.97567 6.72665C8.03789 6.69554 8.09817 6.67999 8.1565 6.67999C8.18761 6.67999 8.21483 6.68193 8.23817 6.68582C8.26539 6.68582 8.29067 6.68776 8.314 6.69165C8.36456 6.69943 8.40928 6.72276 8.44817 6.76165C8.4715 6.7811 8.49289 6.81221 8.51233 6.85499C8.52011 6.87832 8.52594 6.90165 8.52983 6.92499C8.53761 6.94443 8.54344 6.96582 8.54733 6.98915C8.55122 7.01638 8.55317 7.04165 8.55317 7.06499C8.55705 7.08832 8.559 7.11165 8.559 7.13499C8.559 7.16221 8.55705 7.18749 8.55317 7.21082C8.55317 7.23026 8.55317 7.25165 8.55317 7.27499V7.37415L8.51817 10.4017V10.46C8.51817 10.4717 8.51622 10.4872 8.51233 10.5067C8.51233 10.5222 8.51039 10.5417 8.5065 10.565C8.49872 10.5844 8.49094 10.6058 8.48317 10.6292C8.47928 10.6486 8.47344 10.67 8.46567 10.6933C8.454 10.7128 8.44039 10.7322 8.42483 10.7517C8.41317 10.7672 8.39761 10.7828 8.37817 10.7983C8.34705 10.8294 8.2965 10.8508 8.2265 10.8625C8.1215 10.8858 8.02233 10.8761 7.929 10.8333C7.88233 10.8022 7.84928 10.7633 7.82983 10.7167C7.81817 10.705 7.81233 10.6933 7.81233 10.6817C7.80844 10.6739 7.80455 10.668 7.80067 10.6642C7.79678 10.6603 7.79289 10.6544 7.789 10.6467C7.78122 10.6272 7.77539 10.6078 7.7715 10.5883C7.76761 10.565 7.76567 10.5417 7.76567 10.5183C7.76178 10.4989 7.75789 10.4794 7.754 10.46C7.754 10.4405 7.75205 10.4211 7.74817 10.4017C7.74428 10.3705 7.74428 10.3375 7.74817 10.3025V10.215Z" stroke="#1C1C1C" stroke-width="0.25"/>
<path d="M12.2239 9.13582C12.2434 9.19026 12.257 9.25249 12.2648 9.32249C12.2764 9.3886 12.2823 9.45665 12.2823 9.52665C12.2823 9.59665 12.2764 9.66665 12.2648 9.73665C12.257 9.80276 12.2453 9.8611 12.2298 9.91165C12.1675 10.1294 12.0431 10.3122 11.8564 10.46C11.6698 10.6039 11.4559 10.7089 11.2148 10.775C10.9775 10.8411 10.7306 10.8644 10.4739 10.845C10.2211 10.8255 9.99559 10.7614 9.79726 10.6525C9.67282 10.5825 9.56587 10.4969 9.47643 10.3958C9.38698 10.2947 9.31115 10.1819 9.24893 10.0575C9.22559 10.0147 9.21004 9.9661 9.20226 9.91165C9.19837 9.85332 9.20421 9.79888 9.21976 9.74832C9.23532 9.69388 9.26059 9.64721 9.29559 9.60832C9.33059 9.56554 9.37921 9.53638 9.44143 9.52082C9.48032 9.51304 9.52309 9.50915 9.56976 9.50915C9.62032 9.50915 9.66893 9.51693 9.71559 9.53249C9.76226 9.54415 9.80504 9.56554 9.84393 9.59665C9.88282 9.62388 9.91393 9.66276 9.93726 9.71332C9.98004 9.79499 10.0403 9.87082 10.1181 9.94082C10.1998 10.0069 10.2853 10.0614 10.3748 10.1042C10.5031 10.1469 10.6314 10.1644 10.7598 10.1567C10.892 10.1489 11.0106 10.1197 11.1156 10.0692C11.2245 10.0186 11.312 9.95054 11.3781 9.86499C11.4442 9.77554 11.4773 9.67443 11.4773 9.56165C11.4773 9.46832 11.4636 9.39249 11.4364 9.33415C11.4092 9.27193 11.3703 9.22137 11.3198 9.18249C11.2731 9.13971 11.2148 9.10471 11.1448 9.07749C11.0786 9.05026 11.0048 9.02693 10.9231 9.00749C10.8298 8.98804 10.7345 8.97443 10.6373 8.96665C10.5439 8.95887 10.4487 8.94915 10.3514 8.93749C10.2542 8.92582 10.1589 8.91026 10.0656 8.89082C9.97226 8.87138 9.88087 8.84221 9.79143 8.80332C9.61254 8.72943 9.47643 8.61665 9.38309 8.46499C9.28976 8.31332 9.23337 8.14999 9.21393 7.97499C9.19837 7.79999 9.21976 7.62693 9.27809 7.45582C9.33643 7.28082 9.42976 7.1311 9.55809 7.00665C9.68254 6.89387 9.83032 6.81415 10.0014 6.76749C10.1764 6.71693 10.3689 6.68776 10.5789 6.67999C10.6956 6.6761 10.8123 6.67999 10.9289 6.69165C11.0495 6.70332 11.1642 6.72276 11.2731 6.74999C11.3859 6.77721 11.4889 6.81221 11.5823 6.85499C11.6795 6.89776 11.7631 6.94832 11.8331 7.00665C11.8836 7.04554 11.9342 7.09804 11.9848 7.16415C12.0353 7.22638 12.0742 7.29443 12.1014 7.36832C12.1286 7.43832 12.1364 7.50638 12.1248 7.57249C12.117 7.6386 12.0761 7.69499 12.0023 7.74165C11.94 7.78054 11.8798 7.79804 11.8214 7.79415C11.767 7.78638 11.7145 7.76888 11.6639 7.74165C11.6134 7.71054 11.5648 7.67554 11.5181 7.63665C11.4714 7.59776 11.4286 7.56276 11.3898 7.53165C11.2848 7.45388 11.1545 7.40137 10.9989 7.37415C10.8434 7.34693 10.6975 7.3411 10.5614 7.35665C10.4759 7.36832 10.3961 7.38776 10.3223 7.41499C10.2484 7.44221 10.1842 7.47915 10.1298 7.52582C10.0792 7.57249 10.0384 7.63082 10.0073 7.70082C9.98004 7.76693 9.97032 7.84276 9.97809 7.92832C9.98198 7.99054 9.99948 8.04304 10.0306 8.08582C10.0656 8.1286 10.1064 8.1636 10.1531 8.19082C10.2036 8.21804 10.2581 8.23943 10.3164 8.25499C10.3748 8.27054 10.4331 8.28221 10.4914 8.28999C10.6664 8.31332 10.8414 8.33082 11.0164 8.34249C11.1914 8.35415 11.3625 8.39304 11.5298 8.45915C11.7009 8.52526 11.8467 8.61471 11.9673 8.72749C12.0878 8.84026 12.1734 8.97638 12.2239 9.13582Z" stroke="#1C1C1C" stroke-width="0.25"/>
<path d="M16.3504 10.4367C16.3543 10.46 16.3563 10.4833 16.3563 10.5067C16.3601 10.5261 16.3621 10.5494 16.3621 10.5767C16.3621 10.6233 16.3485 10.6661 16.3213 10.705C16.3096 10.7244 16.294 10.7439 16.2746 10.7633C16.2551 10.7789 16.2318 10.7925 16.2046 10.8042C16.1074 10.8586 16.0043 10.878 15.8954 10.8625C15.841 10.8469 15.7924 10.8217 15.7496 10.7867C15.7418 10.7789 15.736 10.775 15.7321 10.775C15.7282 10.7711 15.7243 10.7653 15.7204 10.7575C15.7165 10.7536 15.7126 10.7497 15.7088 10.7458C15.7049 10.738 15.699 10.7322 15.6913 10.7283C15.6718 10.7089 15.6563 10.6914 15.6446 10.6758C15.6329 10.6564 15.6213 10.6369 15.6096 10.6175C15.6018 10.598 15.5921 10.5805 15.5804 10.565C15.5726 10.5455 15.5629 10.5261 15.5513 10.5067C15.5435 10.4911 15.5357 10.4775 15.5279 10.4658C15.5201 10.4503 15.5143 10.4347 15.5104 10.4192C15.4949 10.3842 15.4851 10.353 15.4813 10.3258L15.3588 10.04C15.0904 10.04 14.8221 10.0419 14.5538 10.0458C14.2893 10.0458 14.0229 10.0439 13.7546 10.04L13.6321 10.3258C13.6243 10.3414 13.6185 10.3569 13.6146 10.3725C13.6146 10.388 13.6107 10.4036 13.6029 10.4192C13.5951 10.4347 13.5874 10.4503 13.5796 10.4658C13.5757 10.4775 13.5699 10.4911 13.5621 10.5067C13.5504 10.5261 13.5388 10.5455 13.5271 10.565C13.5193 10.5805 13.5096 10.598 13.4979 10.6175C13.4901 10.6369 13.4804 10.6564 13.4688 10.6758C13.4571 10.6914 13.4415 10.7089 13.4221 10.7283C13.4143 10.7322 13.4085 10.738 13.4046 10.7458C13.4007 10.7497 13.3968 10.7536 13.3929 10.7575C13.389 10.7653 13.3851 10.7711 13.3813 10.775C13.3774 10.775 13.3715 10.7789 13.3638 10.7867C13.321 10.8217 13.2724 10.8469 13.2179 10.8625C13.109 10.878 13.006 10.8586 12.9088 10.8042C12.8815 10.7925 12.8582 10.7789 12.8388 10.7633C12.8193 10.7439 12.8038 10.7244 12.7921 10.705C12.7649 10.6661 12.7513 10.6233 12.7513 10.5767C12.7513 10.5494 12.7513 10.5261 12.7513 10.5067C12.7551 10.4833 12.759 10.46 12.7629 10.4367C12.7707 10.4017 12.7804 10.3667 12.7921 10.3317C12.8038 10.2967 12.8096 10.2792 12.8096 10.2792L14.0229 7.29249L14.0579 7.19915C14.0657 7.17582 14.0754 7.15443 14.0871 7.13499C14.0988 7.11554 14.1085 7.09221 14.1163 7.06499C14.1357 7.01443 14.1571 6.96971 14.1804 6.93082C14.1921 6.90749 14.2057 6.8861 14.2213 6.86665C14.2368 6.84721 14.2524 6.82776 14.2679 6.80832C14.2913 6.77721 14.3243 6.75193 14.3671 6.73249C14.4215 6.71304 14.4838 6.70332 14.5538 6.70332C14.6276 6.70332 14.6918 6.71304 14.7463 6.73249C14.789 6.75193 14.8221 6.77721 14.8454 6.80832C14.8726 6.84332 14.9018 6.88415 14.9329 6.93082C14.9563 6.96971 14.9776 7.01443 14.9971 7.06499C15.0049 7.09221 15.0146 7.11554 15.0263 7.13499C15.0379 7.15443 15.0476 7.17582 15.0554 7.19915L15.0904 7.29249L16.3038 10.2792C16.3038 10.2792 16.3096 10.2967 16.3213 10.3317C16.3329 10.3667 16.3426 10.4017 16.3504 10.4367ZM14.9679 9.00749C14.9174 8.89471 14.8649 8.77804 14.8104 8.65749C14.7599 8.53693 14.7054 8.41443 14.6471 8.28999C14.6315 8.25499 14.616 8.21999 14.6004 8.18499C14.5849 8.1461 14.5693 8.10915 14.5538 8.07415C14.5421 8.10915 14.5285 8.1461 14.5129 8.18499C14.4974 8.21999 14.4818 8.25499 14.4663 8.28999C14.4079 8.41443 14.3515 8.53693 14.2971 8.65749C14.2465 8.77804 14.196 8.89471 14.1454 9.00749L14.0404 9.26415H15.0729L14.9679 9.00749Z" stroke="#1C1C1C" stroke-width="0.25"/>
</svg>
