<svg width="24" height="24" viewBox="0 0 24 24" fill="none" xmlns="http://www.w3.org/2000/svg">
<path d="M2.34207 6.42662C2.34207 4.16227 4.17769 2.32666 6.44203 2.32666H17.7169C19.9813 2.32666 21.8169 4.16227 21.8169 6.42662V10.0937C21.8169 10.3701 21.3729 10.4873 21.2205 10.2566C20.0824 8.53399 17.2309 5.2735 11.9513 5.2735C6.79069 5.2735 4.08251 8.38883 2.96867 10.138C2.81741 10.3755 2.34207 10.2593 2.34207 9.97773V6.42662Z" fill="#1C1C1C"/>
<path d="M2.34207 13.982V14.2375C2.34207 14.4694 2.63321 14.5928 2.80426 14.4362C4.04309 13.3017 7.64653 10.7028 12.0795 10.7028C16.5124 10.7028 20.1159 13.3017 21.3547 14.4362C21.5257 14.5928 21.8169 14.4694 21.8169 14.2375V13.982C21.8169 13.4825 21.6774 12.9946 21.3708 12.6002C20.2334 11.1373 16.965 7.88403 12.0795 7.88403C7.19398 7.88403 3.92558 11.1373 2.78812 12.6002C2.4815 12.9946 2.34207 13.4825 2.34207 13.982Z" fill="#FF3636"/>
<path d="M2.34207 17.2058V17.9442C2.34207 18.1305 2.53342 18.2587 2.70646 18.1895C3.84337 17.7347 7.52329 16.4203 12.0795 16.4203C16.6357 16.4203 20.3156 17.7347 21.4525 18.1895C21.6255 18.2587 21.8169 18.1305 21.8169 17.9442V17.2058C21.8169 16.8716 21.665 16.5578 21.3842 16.3766C20.2591 15.6506 16.9842 13.8578 12.0795 13.8578C7.17473 13.8578 3.89985 15.6506 2.77477 16.3766C2.49397 16.5578 2.34207 16.8716 2.34207 17.2058Z" fill="#FF3636"/>
<path d="M5.44148 21.6733H18.5187C19.6127 21.6733 20.6284 21.1058 21.2017 20.174C21.2506 20.0946 21.2068 19.9918 21.1147 19.9771C20.1249 19.8199 15.4639 19.1091 12.0792 19.1108C8.68386 19.1126 3.99267 19.8442 3.12379 19.9846C3.05213 19.9962 3.01241 20.0727 3.04282 20.1386C3.47464 21.0742 4.41104 21.6733 5.44148 21.6733Z" fill="#FF3636"/>
</svg>
