<svg width="24" height="24" viewBox="0 0 24 24" fill="none" xmlns="http://www.w3.org/2000/svg">
<path d="M2.34204 6.42662C2.34204 4.16227 4.17765 2.32666 6.442 2.32666H17.7169C19.9812 2.32666 21.8168 4.16227 21.8168 6.42662V10.0937C21.8168 10.3701 21.3729 10.4873 21.2205 10.2566C20.0824 8.53399 17.2308 5.2735 11.9513 5.2735C6.79066 5.2735 4.08248 8.38883 2.96864 10.138C2.81738 10.3755 2.34204 10.2593 2.34204 9.97773V6.42662Z" fill="#1C1C1C"/>
<path d="M2.34204 13.982V14.2375C2.34204 14.4694 2.63318 14.5928 2.80423 14.4362C4.04306 13.3017 7.6465 10.7028 12.0794 10.7028C16.5124 10.7028 20.1158 13.3017 21.3546 14.4362C21.5257 14.5928 21.8168 14.4694 21.8168 14.2375V13.982C21.8168 13.4825 21.6774 12.9946 21.3708 12.6002C20.2333 11.1373 16.9649 7.88403 12.0794 7.88403C7.19395 7.88403 3.92555 11.1373 2.78809 12.6002C2.48147 12.9946 2.34204 13.4825 2.34204 13.982Z" fill="#FF3636"/>
<path d="M2.34204 17.2058V17.9442C2.34204 18.1305 2.53339 18.2587 2.70643 18.1895C3.84334 17.7347 7.52326 16.4203 12.0794 16.4203C16.6356 16.4203 20.3155 17.7347 21.4525 18.1895C21.6255 18.2587 21.8168 18.1305 21.8168 17.9442V17.2058C21.8168 16.8716 21.6649 16.5578 21.3841 16.3766C20.2591 15.6506 16.9842 13.8578 12.0794 13.8578C7.1747 13.8578 3.89982 15.6506 2.77474 16.3766C2.49394 16.5578 2.34204 16.8716 2.34204 17.2058Z" fill="#FF3636"/>
<path d="M5.44144 21.6733H18.5187C19.6127 21.6733 20.6284 21.1058 21.2017 20.174C21.2506 20.0946 21.2067 19.9918 21.1146 19.9771C20.1248 19.8199 15.4638 19.1091 12.0792 19.1108C8.68383 19.1126 3.99264 19.8442 3.12376 19.9846C3.0521 19.9962 3.01237 20.0727 3.04279 20.1386C3.47461 21.0742 4.41101 21.6733 5.44144 21.6733Z" fill="#FF3636"/>
</svg>
