<svg width="24" height="24" viewBox="0 0 24 24" fill="none" xmlns="http://www.w3.org/2000/svg">
<path d="M13.8808 2H5.99969C5.46934 2 4.96071 2.21074 4.58569 2.58586C4.21068 2.96098 4 3.46975 4 4.00025V20.0023C4 20.5327 4.21068 21.0415 4.58569 21.4166C4.96071 21.7918 5.46934 22.0025 5.99969 22.0025H17.9978C18.5282 22.0025 19.0368 21.7918 19.4118 21.4166C19.7868 21.0415 19.9975 20.5327 19.9975 20.0023V8.11841M13.8808 2L19.9975 8.11841M13.8808 2V8.11841H19.9975" stroke="#1C1C1C" stroke-width="1.25" stroke-linecap="round" stroke-linejoin="round"/>
<path d="M6.94037 15.5313H11.4775M6.94037 17.2962H11.4775M8.64178 13.7664L8.07465 19.0611M10.3432 13.7664L9.77606 19.0611" stroke="#1C1C1C" stroke-width="1.25" stroke-linecap="round" stroke-linejoin="round"/>
</svg>
