<svg width="24" height="24" viewBox="0 0 24 24" fill="none" xmlns="http://www.w3.org/2000/svg">
<path d="M20.8399 4.60987L20.3979 5.05171L20.3981 5.05192L20.8399 4.60987ZM16.9499 2.99805V3.62305V2.99805ZM13.0599 4.60987L13.5019 5.05181L13.502 5.05171L13.0599 4.60987ZM11.9999 5.66987L11.558 6.11181C11.8021 6.35589 12.1978 6.35589 12.4419 6.11181L11.9999 5.66987ZM10.9399 4.60987L10.498 5.05181V5.05181L10.9399 4.60987ZM3.15994 12.3899L2.71799 12.8318L3.15994 12.3899ZM4.21994 13.4499L3.77799 13.8918L4.21994 13.4499ZM11.9999 21.2299L11.558 21.6718C11.8021 21.9159 12.1978 21.9159 12.4419 21.6718L11.9999 21.2299ZM20.3981 11.9478C20.154 12.1918 20.1539 12.5876 20.3979 12.8317C20.6419 13.0758 21.0376 13.0759 21.2818 12.8319L20.3981 11.9478ZM15.8899 17.3399L16.3319 17.7818L15.8899 17.3399ZM19.2494 14.8643C19.4935 14.6202 19.4935 14.2245 19.2494 13.9804C19.0053 13.7364 18.6096 13.7364 18.3655 13.9804L19.2494 14.8643ZM21.282 4.16803C20.7132 3.59897 20.0378 3.14755 19.2945 2.83956L18.816 3.99435C19.4077 4.23949 19.9452 4.59878 20.3979 5.05171L21.282 4.16803ZM19.2945 2.83956C18.5512 2.53157 17.7545 2.37305 16.9499 2.37305V3.62305C17.5903 3.62305 18.2244 3.74922 18.816 3.99435L19.2945 2.83956ZM16.9499 2.37305C16.1454 2.37305 15.3486 2.53157 14.6053 2.83956L15.0838 3.99435C15.6754 3.74922 16.3096 3.62305 16.9499 3.62305V2.37305ZM14.6053 2.83956C13.862 3.14755 13.1867 3.59897 12.6179 4.16803L13.502 5.05171C13.9547 4.59878 14.4922 4.23949 15.0838 3.99435L14.6053 2.83956ZM12.618 4.16793L11.558 5.22793L12.4419 6.11181L13.5019 5.05181L12.618 4.16793ZM12.4419 5.22793L11.3819 4.16793L10.498 5.05181L11.558 6.11181L12.4419 5.22793ZM11.3819 4.16793C10.233 3.01903 8.67473 2.37358 7.04994 2.37358V3.62358C8.34321 3.62358 9.58351 4.13733 10.498 5.05181L11.3819 4.16793ZM7.04994 2.37358C5.42514 2.37358 3.8669 3.01903 2.71799 4.16793L3.60188 5.05181C4.51636 4.13733 5.75666 3.62358 7.04994 3.62358V2.37358ZM2.71799 4.16793C1.56909 5.31683 0.923645 6.87508 0.923645 8.49987H2.17365C2.17365 7.2066 2.6874 5.9663 3.60188 5.05181L2.71799 4.16793ZM0.923645 8.49987C0.923645 10.1247 1.56909 11.6829 2.71799 12.8318L3.60188 11.9479C2.6874 11.0334 2.17365 9.79314 2.17365 8.49987H0.923645ZM2.71799 12.8318L3.77799 13.8918L4.66188 13.0079L3.60188 11.9479L2.71799 12.8318ZM3.77799 13.8918L11.558 21.6718L12.4419 20.7879L4.66188 13.0079L3.77799 13.8918ZM21.2818 12.8319C21.8508 12.2631 22.3023 11.5878 22.6102 10.8445L21.4555 10.366C21.2103 10.9576 20.851 11.4951 20.3981 11.9478L21.2818 12.8319ZM22.6102 10.8445C22.9182 10.1012 23.0768 9.30446 23.0768 8.49987H21.8268C21.8268 9.14026 21.7006 9.77437 21.4555 10.366L22.6102 10.8445ZM23.0768 8.49987C23.0768 7.69528 22.9182 6.89858 22.6102 6.15527L21.4555 6.63376C21.7006 7.22537 21.8268 7.85949 21.8268 8.49987H23.0768ZM22.6102 6.15527C22.3023 5.41197 21.8508 4.73662 21.2818 4.16783L20.3981 5.05192C20.851 5.50463 21.2103 6.04215 21.4555 6.63376L22.6102 6.15527ZM12.4419 21.6718L16.3319 17.7818L15.448 16.8979L11.558 20.7879L12.4419 21.6718ZM16.3319 17.7818L18.2769 15.8368L17.393 14.9529L15.448 16.8979L16.3319 17.7818ZM18.2769 15.8368L19.2494 14.8643L18.3655 13.9804L17.393 14.9529L18.2769 15.8368Z" fill="#1C1C1C"/>
<path d="M6 12.5673C5.65482 12.5673 5.375 12.8471 5.375 13.1923C5.375 13.5375 5.65482 13.8173 6 13.8173V12.5673ZM7 13.1923V13.8173H7.4207L7.57904 13.4275L7 13.1923ZM23 14.7404C23.3452 14.7404 23.625 14.4606 23.625 14.1154C23.625 13.7702 23.3452 13.4904 23 13.4904V14.7404ZM14.4782 14.045L13.8811 14.2298L14.4782 14.045ZM13.3892 11.1113L12.8277 10.8368L13.3892 11.1113ZM10.9176 15.7858L10.3343 16.0101L10.9176 15.7858ZM11.1008 15.7938L10.5393 15.5194L11.1008 15.7938ZM8.40481 9.73432L7.82577 9.49908L8.40481 9.73432ZM8.59079 9.73606L8.00745 9.96042L8.59079 9.73606ZM6 13.8173H7V12.5673H6V13.8173ZM7.57904 13.4275L8.98385 9.96955L7.82577 9.49908L6.42096 12.9571L7.57904 13.4275ZM8.00745 9.96042L10.3343 16.0101L11.5009 15.5614L9.17413 9.51169L8.00745 9.96042ZM11.6623 16.0682L13.9508 11.3857L12.8277 10.8368L10.5393 15.5194L11.6623 16.0682ZM12.9775 11.3104L13.8811 14.2298L15.0753 13.8602L14.1717 10.9408L12.9775 11.3104ZM14.5737 14.7404H23V13.4904H14.5737V14.7404ZM13.8811 14.2298C13.9751 14.5334 14.2559 14.7404 14.5737 14.7404V13.4904C14.8039 13.4904 15.0072 13.6403 15.0753 13.8602L13.8811 14.2298ZM13.9508 11.3857C13.742 11.8129 13.1181 11.7647 12.9775 11.3104L14.1717 10.9408C13.9775 10.3135 13.116 10.2469 12.8277 10.8368L13.9508 11.3857ZM10.3343 16.0101C10.5616 16.6012 11.3842 16.6372 11.6623 16.0682L10.5393 15.5194C10.7406 15.1073 11.3363 15.1334 11.5009 15.5614L10.3343 16.0101ZM8.98385 9.96955C8.80471 10.4105 8.17831 10.4046 8.00745 9.96042L9.17413 9.51169C8.93819 8.89823 8.07315 8.89014 7.82577 9.49908L8.98385 9.96955Z" fill="#1C1C1C"/>
</svg>
