<svg width="24" height="24" viewBox="0 0 24 24" fill="none" xmlns="http://www.w3.org/2000/svg">
<path d="M20.8399 12.3899C21.3509 11.8791 21.7563 11.2727 22.0329 10.6052C22.3094 9.93777 22.4518 9.22236 22.4518 8.49987C22.4518 7.77738 22.3094 7.06198 22.0329 6.39452C21.7563 5.72706 21.3509 5.12063 20.8399 4.60987C20.3292 4.09888 19.7228 3.69352 19.0553 3.41696C18.3878 3.14039 17.6724 2.99805 16.9499 2.99805C16.2275 2.99805 15.512 3.14039 14.8446 3.41696C14.1771 3.69352 13.5707 4.09888 13.0599 4.60987L11.9999 5.66987L10.9399 4.60987C9.90824 3.57818 8.50897 2.99858 7.04994 2.99858C5.5909 2.99858 4.19163 3.57818 3.15994 4.60987C2.12824 5.64156 1.54865 7.04084 1.54865 8.49987C1.54865 9.95891 2.12824 11.3582 3.15994 12.3899L4.21994 13.4499L11.9999 21.2299L15.8899 17.3399L17.8349 15.3949L18.8074 14.4224M6 13.1923H7L8.40481 9.73432C8.43893 9.65032 8.55825 9.65144 8.59079 9.73606L10.9176 15.7858C10.949 15.8673 11.0624 15.8723 11.1008 15.7938L13.3892 11.1113C13.429 11.0299 13.5478 11.0391 13.5746 11.1256L14.4782 14.045C14.4912 14.0868 14.5299 14.1154 14.5737 14.1154H23" stroke="#1C1C1C" stroke-width="1.25" stroke-linecap="round" stroke-linejoin="round"/>
</svg>
