<svg width="24" height="24" viewBox="0 0 24 24" fill="none" xmlns="http://www.w3.org/2000/svg">
<path d="M1.00006 4.00007V10.0001M1.00006 10.0001H7.00006M1.00006 10.0001L5.64006 5.64007C7.02097 4.26149 8.81251 3.36904 10.7447 3.09719C12.677 2.82533 14.6452 3.18881 16.3529 4.13284C18.0606 5.07687 19.4152 6.55031 20.2127 8.33117C21.0102 10.112 21.2072 12.1038 20.7743 14.0064C20.3413 15.909 19.3017 17.6194 17.8122 18.8798C16.3226 20.1402 14.4638 20.8824 12.5158 20.9945C10.5677 21.1067 8.63604 20.5826 7.01172 19.5014C5.3874 18.4203 4.15845 16.8405 3.51006 15.0001" stroke="#1C1C1C" stroke-width="1.25" stroke-linecap="round" stroke-linejoin="round"/>
</svg>
