<svg width="16" height="16" viewBox="0 0 16 16" fill="none" xmlns="http://www.w3.org/2000/svg">
<path d="M3.69504 6.05401L4.05169 4.44169C4.21501 3.70336 4.95571 3.2573 5.68417 3.45859L11.3169 5.01504C11.8803 5.17071 12.2124 5.76132 12.0527 6.32335M13.4136 6.0575L13.4743 5.91223C13.7567 5.23645 13.4481 4.44505 12.7828 4.13917L8.76305 2.29099C8.0944 1.98357 7.31763 2.28222 7.02719 2.95839L6.67968 3.76745M9.58797 9.97022C9.58797 10.8747 8.87695 11.6079 7.99987 11.6079C7.12279 11.6079 6.41178 10.8747 6.41178 9.97022C6.41178 9.06574 7.12279 8.3325 7.99987 8.3325C8.87695 8.3325 9.58797 9.06574 9.58797 9.97022ZM3.32996 13.9008H12.67C13.7745 13.9008 14.67 13.0054 14.67 11.9008V8.03976C14.67 6.93519 13.7745 6.03976 12.67 6.03976H3.32996C2.22539 6.03976 1.32996 6.93519 1.32996 8.03976V11.9008C1.32996 13.0054 2.22539 13.9008 3.32996 13.9008Z" stroke="#1C1C1C" stroke-width="1.25"/>
</svg>
