<svg width="24" height="24" viewBox="0 0 24 24" fill="none" xmlns="http://www.w3.org/2000/svg">
<path d="M6.8125 3.3558L6.5 9.16955C6.5 10.1699 7.03125 10.7933 7.89063 10.8368L7.46875 19.6807C7.45313 20.0287 7.59375 20.3621 7.85938 20.6086C8.125 20.855 8.46875 21 8.84375 21C9.21875 21 9.5625 20.8695 9.82813 20.6086C10.0938 20.3621 10.2344 20.0287 10.2188 19.6807L9.79688 10.8368C10.6563 10.7933 11.1875 10.1699 11.1875 9.16955L10.875 3.3703" stroke="#1C1C1C" stroke-width="1.25" stroke-linecap="round" stroke-linejoin="round"/>
<path d="M8.83997 3.35458V7.35458" stroke="black" stroke-width="1.25" stroke-linecap="round"/>
<path d="M16.0486 20.5125C16.392 20.2114 16.5793 19.7955 16.5793 19.3511V19.3367L16.1266 11.1709C17.0007 11.0562 17.6719 10.368 17.6719 9.53634V6.4464C17.6719 4.74011 16.1734 3.36362 14.316 3.36362C14.1911 3.36362 14.0819 3.46399 14.0819 3.57869V3.60737V20.7849C14.0819 20.8996 14.1911 21 14.316 21H14.7843C15.2525 21 15.7052 20.8279 16.0486 20.5125Z" stroke="#1C1C1C" stroke-width="1.25" stroke-linejoin="round"/>
</svg>
