<svg width="24" height="24" viewBox="0 0 24 24" fill="none" xmlns="http://www.w3.org/2000/svg">
<path d="M6.81203 2.51577C6.8255 2.23995 6.61284 2.00544 6.33703 1.99196C6.06121 1.97848 5.8267 2.19115 5.81322 2.46696L6.81203 2.51577ZM6.00012 8.88649L5.50072 8.86208C5.50032 8.87021 5.50012 8.87835 5.50012 8.88649H6.00012ZM7.39075 10.7205L7.89028 10.7422C7.90214 10.4687 7.69187 10.2365 7.41854 10.2213L7.39075 10.7205ZM6.96887 20.4487L6.46934 20.4271L6.46929 20.4283L6.96887 20.4487ZM9.32825 21.4694L8.9711 21.1195C8.96777 21.1229 8.96449 21.1263 8.96126 21.1298L9.32825 21.4694ZM9.71887 20.4487L10.2185 20.4283L10.2184 20.4271L9.71887 20.4487ZM9.297 10.7205L9.26921 10.2213C8.99588 10.2365 8.78561 10.4687 8.79747 10.7422L9.297 10.7205ZM10.6876 8.88649H11.1876C11.1876 8.87833 11.1874 8.87017 11.187 8.86202L10.6876 8.88649ZM10.8745 2.48285C10.861 2.20704 10.6265 1.9944 10.3507 2.00791C10.0748 2.02142 9.86221 2.25596 9.87572 2.53178L10.8745 2.48285ZM5.81322 2.46696L5.50072 8.86208L6.49953 8.91089L6.81203 2.51577L5.81322 2.46696ZM5.50012 8.88649C5.50012 9.51197 5.65077 10.0755 5.97561 10.5014C6.30906 10.9386 6.79494 11.1881 7.36295 11.2197L7.41854 10.2213C7.12718 10.2051 6.91775 10.0877 6.77073 9.89498C6.6151 9.69094 6.50012 9.36141 6.50012 8.88649H5.50012ZM6.89122 10.6988L6.46934 20.4271L7.4684 20.4704L7.89028 10.7422L6.89122 10.6988ZM6.46929 20.4283C6.44808 20.9478 6.63944 21.4489 7.00235 21.8193L7.71665 21.1195C7.54831 20.9477 7.45841 20.7152 7.46846 20.4691L6.46929 20.4283ZM7.00235 21.8193C7.35151 22.1757 7.82018 22.4 8.34387 22.4V21.4C8.11757 21.4 7.89874 21.3053 7.71665 21.1195L7.00235 21.8193ZM8.34387 22.4C8.85524 22.4 9.33298 22.2005 9.69524 21.809L8.96126 21.1298C8.79226 21.3125 8.5825 21.4 8.34387 21.4V22.4ZM9.6854 21.8193C10.0483 21.4489 10.2397 20.9478 10.2185 20.4283L9.21929 20.4691C9.22933 20.7152 9.13944 20.9477 8.9711 21.1195L9.6854 21.8193ZM10.2184 20.4271L9.79653 10.6988L8.79747 10.7422L9.21934 20.4704L10.2184 20.4271ZM9.32479 11.2197C9.89281 11.1881 10.3787 10.9386 10.7121 10.5014C11.037 10.0755 11.1876 9.51197 11.1876 8.88649H10.1876C10.1876 9.36141 10.0726 9.69094 9.91702 9.89498C9.77 10.0877 9.56056 10.2051 9.26921 10.2213L9.32479 11.2197ZM11.187 8.86202L10.8745 2.48285L9.87572 2.53178L10.1882 8.91095L11.187 8.86202Z" fill="#1C1C1C"/>
<path d="M8.10637 6.77638V2.22748C8.10637 2.10617 7.94304 2.00003 7.75637 2.00003C7.56971 2.00003 7.40637 2.10617 7.40637 2.22748V6.77638C7.40637 6.89768 7.56971 7.00382 7.75637 7.00382C7.94304 7.00382 8.10637 6.89768 8.10637 6.77638Z" fill="#1C1C1C"/>
<path d="M9.35637 6.77638V2.22748C9.35637 2.10617 9.19304 2.00003 9.00637 2.00003C8.81971 2.00003 8.65637 2.10617 8.65637 2.22748V6.77638C8.65637 6.89768 8.81971 7.00382 9.00637 7.00382C9.19304 7.00382 9.35637 6.89768 9.35637 6.77638Z" fill="#1C1C1C"/>
<path d="M15.5487 21.3637C15.8921 21.0325 16.0794 20.5751 16.0794 20.0861V20.0704L15.6267 11.088C16.5008 10.9618 17.172 10.2048 17.172 9.28997V5.89103C17.172 4.01412 15.6736 2.49997 13.8161 2.49997C13.6913 2.49997 13.582 2.61038 13.582 2.73655V2.7681V21.6634C13.582 21.7896 13.6913 21.9 13.8161 21.9H14.2844C14.7526 21.9 15.2053 21.7107 15.5487 21.3637Z" stroke="#1C1C1C" stroke-linejoin="round"/>
</svg>
