<svg width="24" height="24" viewBox="0 0 24 24" fill="none" xmlns="http://www.w3.org/2000/svg">
<path d="M7.4366 3.38935C7.45513 3.04467 7.19073 2.75023 6.84605 2.73171C6.50137 2.71318 6.20693 2.97758 6.1884 3.32226L7.4366 3.38935ZM6.5 9.16955L5.8759 9.13601C5.8753 9.14718 5.875 9.15837 5.875 9.16955H6.5ZM7.89063 10.8368L8.51492 10.8666C8.53133 10.5225 8.26625 10.23 7.92222 10.2126L7.89063 10.8368ZM7.46875 19.6807L6.84446 19.6509L6.84438 19.6527L7.46875 19.6807ZM9.82813 20.6086L9.40301 20.1504C9.39866 20.1545 9.39435 20.1586 9.39011 20.1627L9.82813 20.6086ZM10.2188 19.6807L10.8431 19.6527L10.843 19.6509L10.2188 19.6807ZM9.79688 10.8368L9.76528 10.2126C9.42126 10.23 9.15617 10.5225 9.17259 10.8666L9.79688 10.8368ZM11.1875 9.16955H11.8125C11.8125 9.15834 11.8122 9.14712 11.8116 9.13592L11.1875 9.16955ZM11.4991 3.33667C11.4805 2.99199 11.186 2.72763 10.8414 2.74621C10.4967 2.76478 10.2323 3.05925 10.2509 3.40393L11.4991 3.33667ZM6.1884 3.32226L5.8759 9.13601L7.1241 9.2031L7.4366 3.38935L6.1884 3.32226ZM5.875 9.16955C5.875 9.77676 6.03676 10.3376 6.39424 10.7637C6.75887 11.1983 7.27665 11.4316 7.85903 11.461L7.92222 10.2126C7.64523 10.1986 7.46769 10.0984 7.35185 9.96031C7.22887 9.81373 7.125 9.56272 7.125 9.16955H5.875ZM7.26634 10.8071L6.84446 19.6509L8.09304 19.7105L8.51492 10.8666L7.26634 10.8071ZM6.84438 19.6527C6.82012 20.1929 7.04059 20.7015 7.43426 21.0667L8.28449 20.1504C8.14691 20.0228 8.08613 19.8644 8.09312 19.7087L6.84438 19.6527ZM7.43426 21.0667C7.80892 21.4144 8.30236 21.625 8.84375 21.625V20.375C8.63514 20.375 8.44108 20.2957 8.28449 20.1504L7.43426 21.0667ZM8.84375 21.625C9.36993 21.625 9.87491 21.4388 10.2661 21.0544L9.39011 20.1627C9.2501 20.3003 9.06757 20.375 8.84375 20.375V21.625ZM10.2532 21.0667C10.6469 20.7015 10.8674 20.1929 10.8431 19.6527L9.59438 19.7087C9.60137 19.8644 9.54059 20.0228 9.40301 20.1504L10.2532 21.0667ZM10.843 19.6509L10.4212 10.8071L9.17259 10.8666L9.59446 19.7105L10.843 19.6509ZM9.82847 11.461C10.4109 11.4316 10.9286 11.1983 11.2933 10.7637C11.6507 10.3376 11.8125 9.77676 11.8125 9.16955H10.5625C10.5625 9.56272 10.4586 9.81373 10.3357 9.96031C10.2198 10.0984 10.0423 10.1986 9.76528 10.2126L9.82847 11.461ZM11.8116 9.13592L11.4991 3.33667L10.2509 3.40393L10.5634 9.20318L11.8116 9.13592Z" fill="#1C1C1C"/>
<path d="M8.83997 3.35458V7.35458" stroke="black" stroke-width="1.25" stroke-linecap="round"/>
<path d="M16.0486 20.5125C16.392 20.2114 16.5793 19.7955 16.5793 19.3511V19.3367L16.1266 11.1709C17.0007 11.0562 17.6719 10.368 17.6719 9.53634V6.4464C17.6719 4.74011 16.1734 3.36362 14.316 3.36362C14.1911 3.36362 14.0819 3.46399 14.0819 3.57869V3.60737V20.7849C14.0819 20.8996 14.1911 21 14.316 21H14.7843C15.2525 21 15.7052 20.8279 16.0486 20.5125Z" stroke="#1C1C1C" stroke-width="1.25" stroke-linejoin="round"/>
</svg>
