<svg width="32" height="32" viewBox="0 0 32 32" fill="none" xmlns="http://www.w3.org/2000/svg">
<path d="M20.3614 11.6386L16 16L11.6386 20.3614M26 16C26 21.5228 21.5228 26 16 26C10.4772 26 6 21.5228 6 16C6 10.4772 10.4772 6 16 6C21.5228 6 26 10.4772 26 16ZM14.1308 12.5732C14.1308 13.4335 13.4335 14.1308 12.5732 14.1308C11.713 14.1308 11.0156 13.4335 11.0156 12.5732C11.0156 11.713 11.713 11.0156 12.5732 11.0156C13.4335 11.0156 14.1308 11.713 14.1308 12.5732ZM20.9844 19.4268C20.9844 20.287 20.287 20.9844 19.4268 20.9844C18.5665 20.9844 17.8692 20.287 17.8692 19.4268C17.8692 18.5665 18.5665 17.8692 19.4268 17.8692C20.287 17.8692 20.9844 18.5665 20.9844 19.4268Z" stroke="#999999" stroke-width="1.25" stroke-linecap="round"/>
</svg>
