<svg width="24" height="24" viewBox="0 0 24 24" fill="none" xmlns="http://www.w3.org/2000/svg">
<path d="M3 9L12 2L21 9V20C21 20.5304 20.7893 21.0391 20.4142 21.4142C20.0391 21.7893 19.5304 22 19 22H5C4.46957 22 3.96086 21.7893 3.58579 21.4142C3.21071 21.0391 3 20.5304 3 20V9Z" stroke="#1C1C1C" stroke-width="1.25" stroke-linecap="round" stroke-linejoin="round"/>
<path d="M11.9979 10L14.3562 12.3583C14.8226 12.8244 15.1403 13.4184 15.2691 14.065C15.3979 14.7117 15.332 15.382 15.0798 15.9912C14.8275 16.6004 14.4003 17.1212 13.8521 17.4875C13.3039 17.8539 12.6593 18.0495 12 18.0495C11.3406 18.0495 10.696 17.8539 10.1478 17.4875C9.59962 17.1212 9.17238 16.6004 8.92015 15.9912C8.66793 15.382 8.60204 14.7117 8.73084 14.065C8.85963 13.4184 9.17732 12.8244 9.64371 12.3583L11.9979 10Z" stroke="#1C1C1C" stroke-width="1.25" stroke-linecap="round" stroke-linejoin="round"/>
</svg>
