<svg width="24" height="24" viewBox="0 0 24 24" fill="none" xmlns="http://www.w3.org/2000/svg">
<path d="M3 9L12 2L21 9V20C21 20.5304 20.7893 21.0391 20.4142 21.4142C20.0391 21.7893 19.5304 22 19 22H5C4.46957 22 3.96086 21.7893 3.58579 21.4142C3.21071 21.0391 3 20.5304 3 20V9Z" stroke="#1C1C1C" stroke-width="1.25" stroke-linecap="round" stroke-linejoin="round"/>
<path d="M11.9979 10L12.4398 9.55806C12.3225 9.44078 12.1635 9.37493 11.9976 9.375C11.8317 9.37507 11.6727 9.44107 11.5555 9.55845L11.9979 10ZM14.3562 12.3583L13.9143 12.8003L13.9144 12.8004L14.3562 12.3583ZM12 18.0495V17.4245V18.0495ZM9.64371 12.3583L10.0855 12.8004L10.086 12.7999L9.64371 12.3583ZM11.5559 10.4419L13.9143 12.8003L14.7982 11.9164L12.4398 9.55806L11.5559 10.4419ZM13.9144 12.8004C14.2934 13.1791 14.5515 13.6617 14.6561 14.1871L15.882 13.9429C15.7291 13.175 15.3518 12.4697 14.798 11.9162L13.9144 12.8004ZM14.6561 14.1871C14.7608 14.7125 14.7072 15.2572 14.5023 15.7522L15.6572 16.2303C15.9568 15.5069 16.035 14.7109 15.882 13.9429L14.6561 14.1871ZM14.5023 15.7522C14.2974 16.2471 13.9502 16.6702 13.5048 16.9679L14.1994 18.0072C14.8504 17.5721 15.3577 16.9538 15.6572 16.2303L14.5023 15.7522ZM13.5048 16.9679C13.0594 17.2656 12.5357 17.4245 12 17.4245V18.6745C12.783 18.6745 13.5484 18.4422 14.1994 18.0072L13.5048 16.9679ZM12 17.4245C11.4642 17.4245 10.9405 17.2656 10.4951 16.9679L9.80056 18.0072C10.4516 18.4422 11.217 18.6745 12 18.6745V17.4245ZM10.4951 16.9679C10.0497 16.6702 9.70255 16.2471 9.49762 15.7522L8.34269 16.2303C8.64221 16.9538 9.14956 17.5721 9.80056 18.0072L10.4951 16.9679ZM9.49762 15.7522C9.29268 15.2572 9.23915 14.7125 9.3438 14.1871L8.11788 13.9429C7.96493 14.7109 8.04317 15.5069 8.34269 16.2303L9.49762 15.7522ZM9.3438 14.1871C9.44844 13.6617 9.70656 13.1791 10.0855 12.8004L9.20191 11.9162C8.64807 12.4697 8.27082 13.175 8.11788 13.9429L9.3438 14.1871ZM10.086 12.7999L12.4402 10.4416L11.5555 9.55845L9.20138 11.9168L10.086 12.7999Z" fill="#1C1C1C"/>
</svg>
