<svg width="24" height="24" viewBox="0 0 24 24" fill="none" xmlns="http://www.w3.org/2000/svg">
<path fill-rule="evenodd" clip-rule="evenodd" d="M12 24C18.6274 24 24 18.6274 24 12C24 5.37258 18.6274 0 12 0C5.37258 0 0 5.37258 0 12C0 18.6274 5.37258 24 12 24ZM10.4164 7.28098C10.8364 6.86097 11.406 6.62502 12 6.62502C12.594 6.62502 13.1636 6.86097 13.5836 7.28098C14.0036 7.70098 14.2396 8.27063 14.2396 8.8646V10.5313H9.76042V8.8646C9.76042 8.27063 9.99637 7.70098 10.4164 7.28098ZM15.4896 8.8646V10.5313H16.0104C16.9884 10.5313 17.7812 11.3241 17.7812 12.3021V16.3125C17.7812 17.2905 16.9884 18.0834 16.0104 18.0834H7.98958C7.01158 18.0834 6.21875 17.2905 6.21875 16.3125V12.3021C6.21875 11.3241 7.01158 10.5313 7.98958 10.5313H8.51042V8.8646C8.51042 7.93911 8.87807 7.05152 9.53249 6.39709C10.1869 5.74267 11.0745 5.37502 12 5.37502C12.9255 5.37502 13.8131 5.74267 14.4675 6.39709C15.1219 7.05152 15.4896 7.93911 15.4896 8.8646ZM7.98958 11.7813L9.13542 11.7813H14.8646L16.0104 11.7813C16.2981 11.7813 16.5312 12.0145 16.5312 12.3021V16.3125C16.5312 16.6002 16.2981 16.8334 16.0104 16.8334H7.98958C7.70194 16.8334 7.46875 16.6002 7.46875 16.3125V12.3021C7.46875 12.0145 7.70194 11.7813 7.98958 11.7813Z" fill="white"/>
</svg>
