<svg width="16" height="16" viewBox="0 0 16 16" fill="none" xmlns="http://www.w3.org/2000/svg">
<g clip-path="url(#clip0_481_3247)">
<path d="M11.6685 5.33203V7.33303M11.6685 7.33303H9.66754M11.6685 7.33303L10.1211 5.87897C9.76267 5.52036 9.31924 5.25839 8.83218 5.11751C8.34513 4.97663 7.83032 4.96143 7.3358 5.07332C6.84128 5.18521 6.38316 5.42055 6.0042 5.75738C5.62523 6.09421 5.33776 6.52155 5.16862 6.99953M4.33154 10.668V8.66703M4.33154 8.66703H6.33254M4.33154 8.66703L5.87898 10.1211C6.23741 10.4797 6.68084 10.7417 7.16789 10.8825C7.65495 11.0234 8.16975 11.0386 8.66427 10.9267C9.1588 10.8148 9.61691 10.5795 9.99588 10.2427C10.3748 9.90584 10.6623 9.4785 10.8315 9.00053M7.99996 14.67C4.31622 14.67 1.32996 11.6837 1.32996 8C1.32996 4.31626 4.31622 1.33 7.99996 1.33C11.6837 1.33 14.67 4.31626 14.67 8C14.67 11.6837 11.6837 14.67 7.99996 14.67Z" stroke="#1C1C1C" stroke-width="1.25" stroke-linecap="round" stroke-linejoin="round"/>
</g>
<defs>
<clipPath id="clip0_481_3247">
<rect width="16" height="16" fill="white"/>
</clipPath>
</defs>
</svg>
