<svg width="16" height="16" viewBox="0 0 16 16" fill="none" xmlns="http://www.w3.org/2000/svg">
<path d="M1.33337 8C1.33337 4.3181 4.31814 1.33333 8.00004 1.33333C11.6819 1.33333 14.6667 4.3181 14.6667 8C14.6667 11.6819 11.6819 14.6667 8.00004 14.6667C4.31814 14.6667 1.33337 11.6819 1.33337 8Z" stroke="#1C1C1C" stroke-width="1.25"/>
<path d="M11.6667 5.33335V7.33335M11.6667 7.33335H9.66671M11.6667 7.33335L10.12 5.88002C9.76179 5.52159 9.31858 5.25976 8.83177 5.11894C8.34496 4.97813 7.83041 4.96294 7.33614 5.07477C6.84186 5.18661 6.38397 5.42183 6.0052 5.75849C5.62642 6.09515 5.3391 6.52228 5.17004 7.00002M4.33337 10.6667V8.66669M4.33337 8.66669H6.33337M4.33337 8.66669L5.88004 10.12C6.23829 10.4784 6.6815 10.7403 7.16831 10.8811C7.65512 11.0219 8.16967 11.0371 8.66394 10.9253C9.15822 10.8134 9.61611 10.5782 9.99488 10.2415C10.3737 9.90489 10.661 9.47776 10.83 9.00002" stroke="#1C1C1C" stroke-width="1.25" stroke-linecap="round" stroke-linejoin="round"/>
</svg>
