<svg width="16" height="16" viewBox="0 0 16 16" fill="none" xmlns="http://www.w3.org/2000/svg">
<mask id="path-1-inside-1_481_3252" fill="white">
<path d="M13.9046 7.75278V5.37541C13.9046 4.76897 13.3504 4.31375 12.7555 4.43156C12.2609 4.52953 11.813 4.78856 11.4943 5.16098C11.1755 5.53341 11 6.00284 11 6.48281C11 6.73803 10.7931 6.94492 10.5379 6.94492H10.3741C10.1783 6.94492 10.0196 6.78622 10.0196 6.59044V6.39205C10.0196 6.30585 10.0895 6.23597 10.1757 6.23597C10.3481 6.23597 10.4878 6.09621 10.4878 5.9238V5.32289C10.4878 4.67384 9.97232 4.13735 9.30989 4.0627V3.25419C9.27005 2.85738 8.69186 2.85744 8.65142 3.25419V4.13549C8.45924 4.36004 8.11199 4.36004 7.91981 4.13549V3.25419C7.86133 2.87645 7.31559 2.87582 7.26133 3.25419V4.06272C6.59891 4.13737 6.08339 4.67386 6.08339 5.32291V5.92383C6.08339 6.09623 6.22315 6.23599 6.39555 6.23599C6.48175 6.23599 6.55163 6.30587 6.55163 6.39207V6.59046C6.55163 6.78624 6.39292 6.94494 6.19715 6.94494H6.03334C5.77812 6.94494 5.57123 6.73805 5.57123 6.48283C5.57123 6.00286 5.3957 5.53341 5.07697 5.161C4.75825 4.78856 4.31033 4.52953 3.81573 4.43156C3.22084 4.31375 2.66663 4.76897 2.66663 5.37541V7.7528C2.66663 9.24662 3.94589 10.4619 5.51835 10.4619H5.69732C5.42248 10.7699 5.25619 11.1679 5.25619 11.6023C5.25619 11.7325 5.15058 11.8382 5.02029 11.8382H4.39622L3.42073 10.2164C3.42073 10.2164 3.22038 10.0395 2.99537 10.1616C2.77035 10.2838 2.84902 10.5267 2.84902 10.5267L4.48474 13.2461C4.48474 13.2461 4.7224 13.4072 4.92286 13.2915C5.12333 13.1757 5.05645 12.9358 5.05645 12.9358L4.7725 12.4637H5.05322C5.52898 12.4637 5.91466 12.078 5.91466 11.6022C5.91466 11.1118 6.24236 10.6929 6.70062 10.5323C6.78332 10.5033 6.87381 10.5206 6.94784 10.5675C7.0823 10.6526 7.13624 10.822 7.07578 10.9692L6.64878 12.0091C6.59719 12.1347 6.63394 12.2793 6.73925 12.3651C7.16961 12.7155 7.7188 12.9085 8.28561 12.9085C8.85243 12.9085 9.40162 12.7155 9.83198 12.3651C9.93729 12.2793 9.97404 12.1347 9.92245 12.0091L9.49545 10.9692C9.43499 10.822 9.48893 10.6526 9.62339 10.5675C9.69742 10.5206 9.78791 10.5033 9.87061 10.5323C10.3289 10.6929 10.6566 11.1118 10.6566 11.6022C10.6566 12.078 11.0422 12.4637 11.518 12.4637H12.873C13.4418 12.4637 13.9046 12.024 13.9046 11.4837C13.9046 10.9433 13.4418 10.5036 12.873 10.5036C12.3042 10.5036 11.8414 10.9433 11.8414 11.4837C11.8414 11.4859 11.8414 11.4881 11.8414 11.4903C11.8426 11.6606 11.7227 11.8381 11.5524 11.8381C11.4221 11.8381 11.3151 11.7325 11.3151 11.6022C11.3151 11.1678 11.1488 10.7698 10.8739 10.4619H11.0529C12.6253 10.4619 13.9046 9.24662 13.9046 7.75278ZM12.4999 11.4837C12.4999 11.2882 12.6672 11.1292 12.873 11.1292C13.0787 11.1292 13.2461 11.2882 13.2461 11.4837C13.2461 11.6791 13.0787 11.8381 12.873 11.8381C12.6672 11.8381 12.4999 11.6791 12.4999 11.4837ZM8.28561 12.283C8.09735 12.283 7.91179 12.2535 7.73602 12.1971C7.5028 12.1223 7.41929 11.8539 7.51232 11.6273L7.98618 10.4733L6.98056 9.83636H5.51835C4.30897 9.83636 3.3251 8.90169 3.3251 7.75278V4.9734L3.68131 5.04396C4.39486 5.18527 4.91275 5.79041 4.91275 6.48283V6.57049C4.91275 7.12278 5.36047 7.57049 5.91275 7.57049H6.23008C6.77133 7.57049 7.21011 7.13172 7.21011 6.59046V6.07868C7.21011 5.82007 7.00047 5.61043 6.74186 5.61043V5.32291C6.74186 4.96789 7.0459 4.67905 7.41961 4.67905H7.53634C7.92998 5.13899 8.64125 5.13899 9.03489 4.67905H9.15162C9.52533 4.67905 9.82937 4.96789 9.82937 5.32291V5.61043C9.57076 5.61043 9.36112 5.82007 9.36112 6.07868V6.59046C9.36112 7.13172 9.7999 7.57049 10.3412 7.57049H10.6585C11.2108 7.57049 11.6585 7.12278 11.6585 6.57049V6.48283C11.6585 5.79041 12.1764 5.18527 12.8899 5.04396L13.2461 4.9734V7.75278C13.2461 8.90167 12.2623 9.83636 11.0529 9.83636H9.59067L8.58505 10.4733L9.0589 11.6273C9.15193 11.8539 9.06842 12.1223 8.83519 12.1971C8.65942 12.2535 8.47387 12.283 8.28561 12.283Z"/>
</mask>
<path d="M11.4943 5.16098L10.5446 4.3482L10.5445 4.34823L11.4943 5.16098ZM9.30989 4.0627H8.05989V5.17975L9.16992 5.30484L9.30989 4.0627ZM7.26133 4.06272L7.40131 5.30486L8.51133 5.17977V4.06272H7.26133ZM5.07697 5.161L4.12727 5.97375L4.12729 5.97377L5.07697 5.161ZM5.69732 10.4619L6.62986 11.2943L8.48861 9.21194H5.69732V10.4619ZM4.39622 11.8382L3.32507 12.4825L3.68939 13.0882H4.39622V11.8382ZM3.42073 10.2164L4.49189 9.5721L4.39255 9.40696L4.24809 9.2794L3.42073 10.2164ZM2.84902 10.5267L1.65982 10.9118L1.70398 11.0482L1.77787 11.171L2.84902 10.5267ZM4.48474 13.2461L3.41359 13.8904L3.55547 14.1263L3.7833 14.2808L4.48474 13.2461ZM5.05645 12.9358L6.26056 12.6002L6.21503 12.4368L6.12761 12.2915L5.05645 12.9358ZM4.7725 12.4637V11.2137H2.56192L3.70134 13.108L4.7725 12.4637ZM10.8739 10.4619V9.21192H8.08264L9.94139 11.2943L10.8739 10.4619ZM7.98618 10.4733L9.14251 10.9481L9.54072 9.97823L8.65501 9.41726L7.98618 10.4733ZM6.98056 9.83636L7.64939 8.78035L7.34311 8.58636H6.98056V9.83636ZM3.3251 4.9734L3.56799 3.74722L2.0751 3.4515V4.9734H3.3251ZM3.68131 5.04396L3.43843 6.27013L3.43848 6.27014L3.68131 5.04396ZM12.8899 5.04396L13.1328 6.27014L13.1328 6.27013L12.8899 5.04396ZM13.2461 4.9734H14.4961V3.4515L13.0032 3.74722L13.2461 4.9734ZM9.59067 9.83636V8.58636H9.22812L8.92184 8.78035L9.59067 9.83636ZM8.58505 10.4733L7.91621 9.41726L7.03051 9.97823L7.42872 10.9481L8.58505 10.4733ZM11.8414 11.4903L13.0914 11.4814L11.8414 11.4903ZM9.0589 11.6273L7.90258 12.1021L9.0589 11.6273ZM8.83519 12.1971L8.45326 11.0069L8.83519 12.1971ZM9.87061 10.5323L10.2841 9.35262L9.87061 10.5323ZM9.49545 10.9692L8.33913 11.444L9.49545 10.9692ZM7.07578 10.9692L5.91947 10.4944L7.07578 10.9692ZM6.70062 10.5323L6.28712 9.35263L6.70062 10.5323ZM7.73602 12.1971L7.35408 13.3874L7.73602 12.1971ZM7.51232 11.6273L8.66864 12.1021L7.51232 11.6273ZM6.64878 12.0091L5.49247 11.5343L6.64878 12.0091ZM9.92245 12.0091L11.0788 11.5343L9.92245 12.0091ZM15.1546 7.75278V5.37541H12.6546V7.75278H15.1546ZM12.5126 3.20538C11.7512 3.35619 11.0514 3.75602 10.5446 4.3482L12.4439 5.97375C12.5746 5.82111 12.7706 5.70286 12.9984 5.65774L12.5126 3.20538ZM10.5445 4.34823C10.0366 4.94182 9.75 5.6979 9.75 6.48281H12.25C12.25 6.30778 12.3145 6.12499 12.444 5.97372L10.5445 4.34823ZM10.5379 5.69492H10.3741V8.19492H10.5379V5.69492ZM11.2696 6.59044V6.39205H8.7696V6.59044H11.2696ZM11.7378 5.9238V5.32289H9.23784V5.9238H11.7378ZM11.7378 5.32289C11.7378 3.9792 10.6847 2.95971 9.44987 2.82056L9.16992 5.30484C9.20511 5.3088 9.2275 5.32399 9.23765 5.33476C9.24224 5.33963 9.24221 5.34132 9.24083 5.33796C9.23909 5.33372 9.23784 5.32775 9.23784 5.32289H11.7378ZM10.5599 4.0627V3.25419H8.05989V4.0627H10.5599ZM7.40142 3.25419V4.13549H9.90142V3.25419H7.40142ZM9.16981 4.13549V3.25419H6.66981V4.13549H9.16981ZM6.01133 3.25419V4.06272H8.51133V3.25419H6.01133ZM7.12136 2.82058C5.88657 2.95973 4.83339 3.97923 4.83339 5.32291H7.33339C7.33339 5.32777 7.33214 5.33374 7.3304 5.33798C7.32902 5.34134 7.32899 5.33965 7.33358 5.33478C7.34373 5.32401 7.36612 5.30882 7.40131 5.30486L7.12136 2.82058ZM4.83339 5.32291V5.92383H7.33339V5.32291H4.83339ZM5.30163 6.39207V6.59046H7.80163V6.39207H5.30163ZM6.19715 5.69494H6.03334V8.19494H6.19715V5.69494ZM6.82123 6.48283C6.82123 5.69795 6.53469 4.94183 6.02666 4.34822L4.12729 5.97377C4.25671 6.12499 4.32123 6.30778 4.32123 6.48283H6.82123ZM6.02668 4.34825C5.51986 3.75603 4.82 3.35619 4.05859 3.20538L3.57287 5.65774C3.80066 5.70286 3.99664 5.8211 4.12727 5.97375L6.02668 4.34825ZM1.41663 5.37541V7.7528H3.91663V5.37541H1.41663ZM1.41663 7.7528C1.41663 9.99661 3.31672 11.7119 5.51835 11.7119V9.21194C4.57506 9.21194 3.91663 8.49662 3.91663 7.7528H1.41663ZM5.51835 11.7119H5.69732V9.21194H5.51835V11.7119ZM4.76478 9.62955C4.2996 10.1507 4.00619 10.8403 4.00619 11.6023H6.50619C6.50619 11.4955 6.54535 11.389 6.62986 11.2943L4.76478 9.62955ZM5.02029 10.5882H4.39622V13.0882H5.02029V10.5882ZM5.46738 11.1938L4.49189 9.5721L2.34958 10.8607L3.32507 12.4825L5.46738 11.1938ZM1.77787 11.171L3.41359 13.8904L5.5559 12.6018L3.92018 9.88244L1.77787 11.171ZM6.12761 12.2915L5.84365 11.8194L3.70134 13.108L3.98529 13.5801L6.12761 12.2915ZM4.7725 13.7137H5.05322V11.2137H4.7725V13.7137ZM7.16466 11.6022C7.16466 11.6416 7.1502 11.6743 7.13677 11.6923C7.12529 11.7076 7.1161 11.7112 7.11411 11.7119L6.28712 9.35263C5.37761 9.67144 4.66466 10.5299 4.66466 11.6022H7.16466ZM5.91947 10.4944L5.49247 11.5343L7.80509 12.4839L8.2321 11.444L5.91947 10.4944ZM5.94997 13.3344C6.60842 13.8706 7.43791 14.1585 8.28561 14.1585V11.6585C7.99968 11.6585 7.7308 11.5605 7.52853 11.3958L5.94997 13.3344ZM8.28561 14.1585C9.13332 14.1585 9.96281 13.8706 10.6213 13.3344L9.0427 11.3958C8.84043 11.5605 8.57154 11.6585 8.28561 11.6585V14.1585ZM11.0788 11.5343L10.6518 10.4944L8.33913 11.444L8.76614 12.4839L11.0788 11.5343ZM9.45713 11.7119C9.45515 11.7112 9.44595 11.7076 9.43446 11.6923C9.42102 11.6743 9.40656 11.6416 9.40656 11.6022H11.9066C11.9066 10.5299 11.1937 9.67144 10.2841 9.35262L9.45713 11.7119ZM11.518 13.7137H12.873V11.2137H11.518V13.7137ZM12.873 13.7137C14.071 13.7137 15.1546 12.774 15.1546 11.4837H12.6546C12.6546 11.3862 12.6983 11.3108 12.7412 11.2701C12.7831 11.2303 12.832 11.2137 12.873 11.2137V13.7137ZM15.1546 11.4837C15.1546 10.1933 14.071 9.25362 12.873 9.25362V11.7536C12.832 11.7536 12.7831 11.737 12.7412 11.6972C12.6983 11.6565 12.6546 11.5811 12.6546 11.4837H15.1546ZM12.873 9.25362C11.675 9.25362 10.5914 10.1933 10.5914 11.4837H13.0914C13.0914 11.5811 13.0477 11.6565 13.0048 11.6972C12.9629 11.737 12.914 11.7536 12.873 11.7536V9.25362ZM10.5914 11.4837C10.5914 11.4888 10.5914 11.494 10.5914 11.4992L13.0914 11.4814C13.0914 11.4822 13.0914 11.4829 13.0914 11.4837H10.5914ZM12.5651 11.6022C12.5651 10.8402 12.2716 10.1507 11.8065 9.62953L9.94139 11.2943C10.0259 11.389 10.0651 11.4954 10.0651 11.6022H12.5651ZM10.8739 11.7119H11.0529V9.21192H10.8739V11.7119ZM11.0529 11.7119C13.2545 11.7119 15.1546 9.99661 15.1546 7.75278H12.6546C12.6546 8.49662 11.9962 9.21192 11.0529 9.21192V11.7119ZM13.7499 11.4837C13.7499 12.0382 13.2964 12.3792 12.873 12.3792V9.87917C12.0381 9.87917 11.2499 10.5382 11.2499 11.4837H13.7499ZM12.873 12.3792C12.4496 12.3792 11.9961 12.0382 11.9961 11.4837H14.4961C14.4961 10.5382 13.7079 9.87917 12.873 9.87917V12.3792ZM11.9961 11.4837C11.9961 10.9291 12.4496 10.5881 12.873 10.5881V13.0881C13.7079 13.0881 14.4961 12.4291 14.4961 11.4837H11.9961ZM12.873 10.5881C13.2964 10.5881 13.7499 10.9291 13.7499 11.4837H11.2499C11.2499 12.4291 12.0381 13.0881 12.873 13.0881V10.5881ZM8.28561 11.033C8.22751 11.033 8.17078 11.0239 8.11795 11.0069L7.35408 13.3874C7.6528 13.4832 7.96719 13.533 8.28561 13.533V11.033ZM8.66864 12.1021L9.14251 10.9481L6.82986 9.99849L6.356 11.1526L8.66864 12.1021ZM8.65501 9.41726L7.64939 8.78035L6.31173 10.8924L7.31735 11.5293L8.65501 9.41726ZM6.98056 8.58636H5.51835V11.0864H6.98056V8.58636ZM5.51835 8.58636C4.93813 8.58636 4.5751 8.15169 4.5751 7.75278H2.0751C2.0751 9.65169 3.67981 11.0864 5.51835 11.0864V8.58636ZM4.5751 7.75278V4.9734H2.0751V7.75278H4.5751ZM3.08221 6.19957L3.43843 6.27013L3.9242 3.81778L3.56799 3.74722L3.08221 6.19957ZM3.43848 6.27014C3.60998 6.30411 3.66275 6.43023 3.66275 6.48283H6.16275C6.16275 5.15058 5.17974 4.06643 3.92415 3.81777L3.43848 6.27014ZM3.66275 6.48283V6.57049H6.16275V6.48283H3.66275ZM5.91275 8.82049H6.23008V6.32049H5.91275V8.82049ZM8.46011 6.59046V6.07868H5.96011V6.59046H8.46011ZM7.99186 5.61043V5.32291H5.49186V5.61043H7.99186ZM7.99186 5.32291C7.99186 5.71789 7.67506 5.92905 7.41961 5.92905V3.42905C6.41674 3.42905 5.49186 4.21789 5.49186 5.32291H7.99186ZM7.41961 5.92905H7.53634V3.42905H7.41961V5.92905ZM9.03489 5.92905H9.15162V3.42905H9.03489V5.92905ZM9.15162 5.92905C8.89617 5.92905 8.57937 5.71789 8.57937 5.32291H11.0794C11.0794 4.21789 10.1545 3.42905 9.15162 3.42905V5.92905ZM8.57937 5.32291V5.61043H11.0794V5.32291H8.57937ZM8.11112 6.07868V6.59046H10.6111V6.07868H8.11112ZM10.3412 8.82049H10.6585V6.32049H10.3412V8.82049ZM12.9085 6.57049V6.48283H10.4085V6.57049H12.9085ZM12.9085 6.48283C12.9085 6.43023 12.9613 6.30411 13.1328 6.27014L12.6471 3.81777C11.3915 4.06643 10.4085 5.15058 10.4085 6.48283H12.9085ZM13.1328 6.27013L13.489 6.19957L13.0032 3.74722L12.647 3.81778L13.1328 6.27013ZM11.9961 4.9734V7.75278H14.4961V4.9734H11.9961ZM11.9961 7.75278C11.9961 8.15167 11.6331 8.58636 11.0529 8.58636V11.0864C12.8914 11.0864 14.4961 9.65166 14.4961 7.75278H11.9961ZM11.0529 8.58636H9.59067V11.0864H11.0529V8.58636ZM8.92184 8.78035L7.91621 9.41726L9.25388 11.5293L10.2595 10.8924L8.92184 8.78035ZM7.42872 10.9481L7.90258 12.1021L10.2152 11.1525L9.74137 9.99849L7.42872 10.9481ZM8.45326 11.0069C8.40041 11.0239 8.34369 11.033 8.28561 11.033V13.533C8.60405 13.533 8.91843 13.4832 9.21712 13.3874L8.45326 11.0069ZM3.42073 10.2164C4.24809 9.2794 4.24768 9.27903 4.24726 9.27867C4.24712 9.27855 4.24671 9.27818 4.24643 9.27793C4.24587 9.27744 4.2453 9.27695 4.24473 9.27645C4.24359 9.27545 4.24243 9.27443 4.24125 9.2734C4.23888 9.27134 4.23643 9.26923 4.2339 9.26705C4.22883 9.2627 4.2234 9.25812 4.21763 9.25332C4.20611 9.24374 4.19312 9.23324 4.17869 9.22202C4.15002 9.19975 4.11469 9.17389 4.07314 9.14653C3.99245 9.09343 3.87528 9.02609 3.72644 8.97099C3.41924 8.85724 2.91786 8.78142 2.39902 9.06307L3.59171 11.2602C3.29788 11.4197 3.0092 11.3713 2.85842 11.3155C2.7878 11.2893 2.73477 11.2586 2.69869 11.2348C2.67943 11.2221 2.66152 11.2091 2.64468 11.1961C2.63617 11.1894 2.6277 11.1826 2.61922 11.1756C2.61498 11.172 2.61071 11.1684 2.60641 11.1648C2.60426 11.1629 2.6021 11.161 2.59993 11.1592C2.59884 11.1582 2.59775 11.1573 2.59666 11.1563C2.59612 11.1558 2.59557 11.1553 2.59502 11.1549C2.59475 11.1546 2.59434 11.1543 2.5942 11.1541C2.59379 11.1538 2.59338 11.1534 3.42073 10.2164ZM2.39902 9.06307C1.85391 9.35897 1.63913 9.85959 1.59549 10.2517C1.57589 10.4278 1.58918 10.5772 1.60525 10.68C1.61359 10.7333 1.62358 10.7797 1.63304 10.8178C1.63781 10.837 1.64255 10.8544 1.64705 10.87C1.64931 10.8779 1.65151 10.8853 1.65364 10.8922C1.65471 10.8957 1.65576 10.8991 1.65679 10.9023C1.6573 10.904 1.65781 10.9056 1.65832 10.9072C1.65857 10.9079 1.65882 10.9087 1.65907 10.9095C1.65919 10.9099 1.65938 10.9105 1.65944 10.9107C1.65963 10.9112 1.65982 10.9118 2.84902 10.5267C4.03823 10.1417 4.03842 10.1422 4.0386 10.1428C4.03866 10.143 4.03885 10.1436 4.03897 10.144C4.03921 10.1447 4.03946 10.1455 4.0397 10.1462C4.04019 10.1478 4.04067 10.1493 4.04115 10.1508C4.0421 10.1538 4.04304 10.1568 4.04397 10.1599C4.04581 10.1659 4.0476 10.1719 4.04934 10.1779C4.05279 10.1899 4.05607 10.2021 4.05912 10.2144C4.06517 10.2386 4.07076 10.2651 4.07524 10.2938C4.0836 10.3472 4.09128 10.4282 4.08014 10.5283C4.06872 10.631 4.03508 10.7724 3.94594 10.9191C3.85222 11.0734 3.72432 11.1882 3.59171 11.2602L2.39902 9.06307ZM4.48474 13.2461C3.7833 14.2808 3.78367 14.281 3.78404 14.2813C3.78416 14.2813 3.78453 14.2816 3.78478 14.2818C3.78528 14.2821 3.78579 14.2824 3.7863 14.2828C3.78732 14.2835 3.78836 14.2842 3.78943 14.2849C3.79155 14.2863 3.79377 14.2878 3.79607 14.2893C3.80068 14.2924 3.80564 14.2956 3.81094 14.299C3.82154 14.3058 3.8336 14.3134 3.84703 14.3216C3.87374 14.3378 3.90682 14.3568 3.94551 14.377C4.02036 14.4162 4.12905 14.4666 4.26336 14.5077C4.50627 14.5819 5.02034 14.6786 5.54795 14.374L4.29778 12.209C4.62492 12.0201 4.91993 12.0942 4.99389 12.1168C5.04373 12.132 5.08048 12.1494 5.1045 12.1619C5.11779 12.1689 5.13073 12.1762 5.14366 12.1841C5.1502 12.1881 5.15696 12.1923 5.16398 12.1968C5.16749 12.1991 5.17109 12.2014 5.17479 12.2039C5.17663 12.2051 5.17851 12.2063 5.1804 12.2076C5.18135 12.2082 5.18231 12.2089 5.18327 12.2095C5.18375 12.2098 5.18424 12.2102 5.18472 12.2105C5.18497 12.2107 5.18533 12.2109 5.18545 12.211C5.18582 12.2112 5.18618 12.2115 4.48474 13.2461ZM5.54795 14.374C6.09003 14.0609 6.26885 13.5506 6.30707 13.2093C6.32518 13.0476 6.31574 12.91 6.30348 12.815C6.29712 12.7657 6.2893 12.7227 6.28182 12.6874C6.27806 12.6696 6.2743 12.6534 6.27072 12.6389C6.26893 12.6316 6.26717 12.6248 6.26548 12.6183C6.26463 12.6151 6.26379 12.612 6.26297 12.609C6.26256 12.6074 6.26216 12.606 6.26176 12.6045C6.26156 12.6038 6.26136 12.603 6.26116 12.6023C6.26106 12.602 6.26091 12.6014 6.26086 12.6013C6.26071 12.6007 6.26056 12.6002 5.05645 12.9358C3.85234 13.2713 3.85219 13.2708 3.85205 13.2703C3.852 13.2701 3.85185 13.2696 3.85175 13.2692C3.85156 13.2685 3.85136 13.2678 3.85117 13.2671C3.85079 13.2657 3.8504 13.2643 3.85003 13.2629C3.84927 13.2601 3.84853 13.2574 3.8478 13.2546C3.84634 13.2491 3.84494 13.2436 3.84359 13.2381C3.84089 13.2272 3.83837 13.2162 3.83604 13.2052C3.83144 13.1835 3.82728 13.1601 3.82405 13.1351C3.81807 13.0887 3.81282 13.0184 3.8226 12.9311C3.83245 12.8431 3.86053 12.7128 3.94016 12.5719C4.02508 12.4217 4.14933 12.2947 4.29778 12.209L5.54795 14.374ZM8.11112 6.59046C8.11112 7.82208 9.10954 8.82049 10.3412 8.82049V6.32049C10.4903 6.32049 10.6111 6.44136 10.6111 6.59046H8.11112ZM6.58667 5.49185C7.47924 6.53472 9.09199 6.53472 9.98456 5.49185L8.08523 3.86626C8.1905 3.74325 8.38073 3.74325 8.486 3.86626L6.58667 5.49185ZM8.46011 6.07868C8.46011 5.12972 7.69082 4.36043 6.74186 4.36043V6.86043C6.31011 6.86043 5.96011 6.51043 5.96011 6.07868H8.46011ZM6.23008 8.82049C7.46169 8.82049 8.46011 7.82207 8.46011 6.59046H5.96011C5.96011 6.44136 6.08097 6.32049 6.23008 6.32049V8.82049ZM11.5524 10.5881C12.1027 10.5881 12.5651 11.0324 12.5651 11.6022H10.0651C10.0651 12.4326 10.7415 13.0881 11.5524 13.0881V10.5881ZM10.5914 11.4992C10.5901 11.3047 10.6523 11.1177 10.7749 10.9602C10.9041 10.7942 11.1685 10.5881 11.5524 10.5881V13.0881C12.1065 13.0881 12.5161 12.7933 12.7475 12.496C12.9724 12.2072 13.094 11.8462 13.0914 11.4814L10.5914 11.4992ZM7.90258 12.1021C7.83631 11.9407 7.82149 11.7415 7.89575 11.5389C7.97624 11.3193 8.16651 11.0989 8.45326 11.0069L9.21712 13.3874C10.3334 13.0292 10.504 11.8557 10.2152 11.1525L7.90258 12.1021ZM10.2922 11.6235C10.1094 11.7392 9.80303 11.8331 9.45713 11.7119L10.2841 9.35262C9.77279 9.17341 9.28541 9.30193 8.9546 9.51143L10.2922 11.6235ZM15.1546 5.37541C15.1546 3.98112 13.8804 2.93451 12.5127 3.20538L12.9983 5.65775C12.8204 5.69299 12.6546 5.55682 12.6546 5.37541H15.1546ZM10.6518 10.4944C10.8217 10.9082 10.6701 11.3842 10.2922 11.6235L8.9546 9.51143C8.30781 9.92104 8.04833 10.7358 8.33913 11.444L10.6518 10.4944ZM6.27906 11.6235C5.90117 11.3842 5.74957 10.9082 5.91947 10.4944L8.2321 11.444C8.5229 10.7358 8.26342 9.92104 7.61663 9.51143L6.27906 11.6235ZM10.6585 8.82049C11.9011 8.82049 12.9085 7.81313 12.9085 6.57049H10.4085C10.4085 6.43242 10.5204 6.32049 10.6585 6.32049V8.82049ZM7.11411 11.7119C6.76821 11.8331 6.46179 11.7392 6.27906 11.6235L7.61663 9.51143C7.28582 9.30193 6.79843 9.1734 6.28712 9.35263L7.11411 11.7119ZM9.82937 4.36043C8.88041 4.36043 8.11112 5.12972 8.11112 6.07868H10.6111C10.6111 6.51043 10.2611 6.86043 9.82937 6.86043V4.36043ZM5.05322 13.7137C6.21934 13.7137 7.16466 12.7684 7.16466 11.6022H4.66466C4.66466 11.3876 4.83863 11.2137 5.05322 11.2137V13.7137ZM4.00619 11.6023C4.00619 11.0422 4.46022 10.5882 5.02029 10.5882V13.0882C5.84093 13.0882 6.50619 12.4229 6.50619 11.6023H4.00619ZM5.30163 6.59046C5.30163 6.09588 5.70257 5.69494 6.19715 5.69494V8.19494C7.08328 8.19494 7.80163 7.47659 7.80163 6.59046H5.30163ZM6.39555 7.48599C5.79139 7.48599 5.30163 6.99622 5.30163 6.39207H7.80163C7.80163 5.61551 7.17211 4.98599 6.39555 4.98599V7.48599ZM8.11795 11.0069C8.40471 11.0989 8.59499 11.3194 8.67547 11.539C8.74973 11.7416 8.7349 11.9408 8.66864 12.1021L6.356 11.1526C6.06729 11.8557 6.23782 13.0291 7.35408 13.3874L8.11795 11.0069ZM5.49247 11.5343C5.23161 12.1696 5.41743 12.9007 5.94995 13.3344L7.52856 11.3958C7.85045 11.6579 7.96277 12.0999 7.80509 12.4839L5.49247 11.5343ZM4.83339 5.92383C4.83339 6.78658 5.53279 7.48599 6.39555 7.48599V4.98599C6.9135 4.98599 7.33339 5.40587 7.33339 5.92383H4.83339ZM7.70174 3.32271C8.00849 2.9643 8.56274 2.9643 8.86949 3.32271L6.97013 4.94827C7.66124 5.75578 8.90999 5.75578 9.6011 4.94827L7.70174 3.32271ZM10.1757 7.48597C11.0384 7.48597 11.7378 6.78656 11.7378 5.9238H9.23784C9.23784 5.40585 9.65773 4.98597 10.1757 4.98597V7.48597ZM11.2696 6.39205C11.2696 6.9962 10.7798 7.48597 10.1757 7.48597V4.98597C9.39912 4.98597 8.7696 5.61549 8.7696 6.39205H11.2696ZM3.66275 6.57049C3.66275 7.81313 4.67011 8.82049 5.91275 8.82049V6.32049C6.05082 6.32049 6.16275 6.43242 6.16275 6.57049H3.66275ZM4.05857 3.20538C2.69084 2.93451 1.41663 3.98112 1.41663 5.37541H3.91663C3.91663 5.55682 3.75084 5.69299 3.57289 5.65775L4.05857 3.20538ZM9.40656 11.6022C9.40656 12.7684 10.3519 13.7137 11.518 13.7137V11.2137C11.7326 11.2137 11.9066 11.3876 11.9066 11.6022H9.40656ZM9.15509 3.06295C8.8874 1.33381 6.29195 1.20801 6.02399 3.07677L8.49868 3.43161C8.46769 3.64776 8.35064 3.8665 8.15456 4.02166C7.97314 4.16523 7.76803 4.22074 7.58833 4.22065C7.22048 4.22046 6.7638 3.95751 6.68453 3.44543L9.15509 3.06295ZM9.75 6.48281C9.75 6.04767 10.1028 5.69492 10.5379 5.69492V8.19492C11.4835 8.19492 12.25 7.42838 12.25 6.48281H9.75ZM10.5536 3.12931C10.3619 1.22018 7.59974 1.2452 7.40786 3.12742L9.89497 3.38096C9.78399 4.46969 8.17815 4.49459 8.06615 3.37907L10.5536 3.12931ZM10.3741 5.69492C10.8687 5.69492 11.2696 6.09586 11.2696 6.59044H8.7696C8.7696 7.47657 9.48795 8.19492 10.3741 8.19492V5.69492ZM6.03334 5.69494C6.46848 5.69494 6.82123 6.04769 6.82123 6.48283H4.32123C4.32123 7.4284 5.08777 8.19494 6.03334 8.19494V5.69494ZM10.6213 13.3344C11.1538 12.9007 11.3396 12.1696 11.0788 11.5343L8.76614 12.4839C8.60846 12.0999 8.72078 11.6579 9.04268 11.3958L10.6213 13.3344Z" fill="#1C1C1C" mask="url(#path-1-inside-1_481_3252)"/>
</svg>
