<svg width="72" height="72" viewBox="0 0 72 72" fill="none" xmlns="http://www.w3.org/2000/svg">
<circle cx="36" cy="36" r="36" fill="#F6F6F7"/>
<path d="M41.4002 24.6001C41.0337 24.974 40.8285 25.4766 40.8285 26.0001C40.8285 26.5236 41.0337 27.0263 41.4002 27.4001L44.6002 30.6001C44.9741 30.9666 45.4767 31.1718 46.0002 31.1718C46.5237 31.1718 47.0263 30.9666 47.4002 30.6001L54.9402 23.0601C55.9459 25.2825 56.2504 27.7586 55.8131 30.1584C55.3759 32.5582 54.2176 34.7678 52.4928 36.4927C50.7679 38.2175 48.5583 39.3758 46.1585 39.813C43.7587 40.2503 41.2826 39.9458 39.0602 38.9401L25.2402 52.7601C24.4445 53.5558 23.3654 54.0028 22.2402 54.0028C21.115 54.0028 20.0358 53.5558 19.2402 52.7601C18.4445 51.9645 17.9976 50.8853 17.9976 49.7601C17.9976 48.6349 18.4445 47.5558 19.2402 46.7601L33.0602 32.9401C32.0545 30.7177 31.75 28.2416 32.1873 25.8418C32.6245 23.442 33.7828 21.2324 35.5076 19.5076C37.2325 17.7827 39.4421 16.6244 41.8419 16.1872C44.2417 15.7499 46.7178 16.0544 48.9402 17.0601L41.4202 24.5801L41.4002 24.6001Z" stroke="#1C1C1C" stroke-width="1.25" stroke-linecap="round" stroke-linejoin="round"/>
</svg>
