<svg width="24" height="24" viewBox="0 0 24 24" fill="none" xmlns="http://www.w3.org/2000/svg">
<path d="M22.5398 6.41995C22.4211 5.94536 22.1791 5.51053 21.8385 5.15936C21.4979 4.80819 21.0706 4.55314 20.5998 4.41995C18.8798 3.99995 11.9998 3.99995 11.9998 3.99995C11.9998 3.99995 5.11984 3.99995 3.39984 4.45995C2.92909 4.59314 2.50182 4.84819 2.16119 5.19936C1.82056 5.55053 1.57863 5.98536 1.45984 6.45995C1.14505 8.20551 0.991075 9.97626 0.999839 11.75C0.988619 13.537 1.14261 15.3213 1.45984 17.08C1.5908 17.5398 1.83815 17.9581 2.17798 18.2944C2.51782 18.6308 2.93866 18.8738 3.39984 19C5.11984 19.46 11.9998 19.46 11.9998 19.46C11.9998 19.46 18.8798 19.46 20.5998 19C21.0706 18.8668 21.4979 18.6117 21.8385 18.2605C22.1791 17.9094 22.4211 17.4745 22.5398 17C22.8522 15.2675 23.0062 13.5103 22.9998 11.75C23.0111 9.96291 22.8571 8.17865 22.5398 6.41995Z" stroke="#1C1C1C" stroke-width="1.25" stroke-linecap="round" stroke-linejoin="round"/>
<path d="M9.74984 15.02L15.4998 11.75L9.74984 8.47995V15.02Z" stroke="#1C1C1C" stroke-width="1.25" stroke-linecap="round" stroke-linejoin="round"/>
</svg>
