<svg width="24" height="24" viewBox="0 0 24 24" fill="none" xmlns="http://www.w3.org/2000/svg">
<path d="M16.3614 7.63863L12 12L7.63863 16.3614M22 12C22 17.5228 17.5228 22 12 22C6.47715 22 2 17.5228 2 12C2 6.47715 6.47715 2 12 2C17.5228 2 22 6.47715 22 12ZM10.1308 8.57321C10.1308 9.43346 9.43347 10.1308 8.57321 10.1308C7.71295 10.1308 7.01558 9.43346 7.01558 8.57321C7.01558 7.71295 7.71295 7.01558 8.57321 7.01558C9.43347 7.01558 10.1308 7.71295 10.1308 8.57321ZM16.9844 15.4268C16.9844 16.287 16.287 16.9844 15.4268 16.9844C14.5665 16.9844 13.8692 16.287 13.8692 15.4268C13.8692 14.5665 14.5665 13.8692 15.4268 13.8692C16.287 13.8692 16.9844 14.5665 16.9844 15.4268Z" stroke="#1C1C1C" stroke-width="1.25" stroke-linecap="round"/>
</svg>
