<svg width="16" height="16" viewBox="0 0 16 16" fill="none" xmlns="http://www.w3.org/2000/svg">
<path d="M8.25 7.95833C8.25 7.75123 8.08211 7.58333 7.875 7.58333C7.66789 7.58333 7.5 7.75123 7.5 7.95833C7.5 8.16544 7.66789 8.33333 7.875 8.33333C8.08211 8.33333 8.25 8.16544 8.25 7.95833Z" fill="#1C1C1C"/>
<path d="M8.25 3.29167C8.25 3.08456 8.08211 2.91667 7.875 2.91667C7.66789 2.91667 7.5 3.08456 7.5 3.29167C7.5 3.49877 7.66789 3.66667 7.875 3.66667C8.08211 3.66667 8.25 3.49877 8.25 3.29167Z" fill="#1C1C1C"/>
<path d="M8.25 12.625C8.25 12.4179 8.08211 12.25 7.875 12.25C7.66789 12.25 7.5 12.4179 7.5 12.625C7.5 12.8321 7.66789 13 7.875 13C8.08211 13 8.25 12.8321 8.25 12.625Z" fill="#1C1C1C"/>
<path d="M8.25 7.95833C8.25 7.75123 8.08211 7.58333 7.875 7.58333C7.66789 7.58333 7.5 7.75123 7.5 7.95833C7.5 8.16544 7.66789 8.33333 7.875 8.33333C8.08211 8.33333 8.25 8.16544 8.25 7.95833Z" stroke="#1C1C1C" stroke-width="1.25" stroke-linecap="round" stroke-linejoin="round"/>
<path d="M8.25 3.29167C8.25 3.08456 8.08211 2.91667 7.875 2.91667C7.66789 2.91667 7.5 3.08456 7.5 3.29167C7.5 3.49877 7.66789 3.66667 7.875 3.66667C8.08211 3.66667 8.25 3.49877 8.25 3.29167Z" stroke="#1C1C1C" stroke-width="1.25" stroke-linecap="round" stroke-linejoin="round"/>
<path d="M8.25 12.625C8.25 12.4179 8.08211 12.25 7.875 12.25C7.66789 12.25 7.5 12.4179 7.5 12.625C7.5 12.8321 7.66789 13 7.875 13C8.08211 13 8.25 12.8321 8.25 12.625Z" stroke="#1C1C1C" stroke-width="1.25" stroke-linecap="round" stroke-linejoin="round"/>
</svg>
