<svg width="16" height="16" viewBox="0 0 16 16" fill="none" xmlns="http://www.w3.org/2000/svg">
<path d="M15.1 9.59331L7.99997 14.7533L0.899974 9.59331C0.804791 9.52331 0.734187 9.42499 0.698264 9.31243C0.662341 9.19988 0.662939 9.07884 0.699974 8.96664L1.51331 6.44664L3.13997 1.43997C3.15575 1.39918 3.18087 1.36265 3.21331 1.33331C3.26613 1.28506 3.33509 1.2583 3.40664 1.2583C3.47819 1.2583 3.54715 1.28506 3.59997 1.33331C3.63423 1.36642 3.65947 1.40772 3.67331 1.45331L5.29997 6.44664H10.7L12.3266 1.43997C12.3424 1.39918 12.3675 1.36265 12.4 1.33331C12.4528 1.28506 12.5218 1.2583 12.5933 1.2583C12.6649 1.2583 12.7338 1.28506 12.7866 1.33331C12.8209 1.36642 12.8461 1.40772 12.86 1.45331L14.4866 6.45997L15.3333 8.96664C15.367 9.0823 15.3625 9.20573 15.3204 9.31862C15.2784 9.43152 15.2011 9.52784 15.1 9.59331Z" stroke="#1C1C1C" stroke-width="1.25" stroke-linecap="round" stroke-linejoin="round"/>
</svg>
