<svg width="40" height="40" viewBox="0 0 40 40" fill="none" xmlns="http://www.w3.org/2000/svg">
<rect width="40" height="40" rx="20" fill="#F6F6F7"/>
<path d="M19.6991 22.0753H24.06M24.06 22.0753L22.4059 20.4211M24.06 22.0753L22.4059 23.7294" stroke="#1C1C1C" stroke-width="1.25" stroke-linecap="round" stroke-linejoin="round"/>
<path d="M20.5238 16.9624H16.1629M16.1629 16.9624L17.817 15.3082M16.1629 16.9624L17.817 18.6165" stroke="#1C1C1C" stroke-width="1.25" stroke-linecap="round" stroke-linejoin="round"/>
<path d="M22.1805 22.0752C15.7794 22.0752 11.203 22.0752 11.203 22.0752C10.884 22.0752 10.578 21.9485 10.3524 21.7229C10.1267 21.4972 10 21.1913 10 20.8722V13.203C10 12.884 10.1267 12.578 10.3524 12.3524C10.578 12.1267 10.884 12 11.203 12H23.8346C24.1537 12 24.4597 12.1267 24.6853 12.3524C24.9109 12.578 25.0376 12.884 25.0376 13.203V13.8045" stroke="#1C1C1C" stroke-width="1.25" stroke-linecap="round" stroke-linejoin="round"/>
<path d="M17.8196 16.9624C24.2207 16.9624 28.7971 16.9624 28.7971 16.9624C29.1162 16.9624 29.4222 17.0891 29.6478 17.3147C29.8734 17.5404 30.0001 17.8463 30.0001 18.1654V25.8346C30.0001 26.1536 29.8734 26.4596 29.6478 26.6852C29.4222 26.9109 29.1162 27.0376 28.7971 27.0376H16.1655C15.8465 27.0376 15.5405 26.9109 15.3149 26.6852C15.0892 26.4596 14.9625 26.1536 14.9625 25.8346V25.2331" stroke="#1C1C1C" stroke-width="1.25" stroke-linecap="round" stroke-linejoin="round"/>
</svg>
