<svg width="24" height="24" viewBox="0 0 24 24" fill="none" xmlns="http://www.w3.org/2000/svg">
<path d="M4.54045 18.6593C8.52776 23.1197 15.4738 23.1183 19.4594 18.6593M4.54045 18.6593L3.71253 17.598C2.59994 15.9559 2 14.0171 2 12C2 6.48597 6.48597 2 12 2C17.514 2 22 6.48597 22 12C22 14.0171 21.4001 15.9559 20.2875 17.598L19.4594 18.6593M4.54045 18.6593C6.52649 16.4316 9.26331 15.318 12 15.318C14.7369 15.3181 17.4738 16.4319 19.4594 18.6593M9 7.8C9 6.25599 10.3457 5 12 5C13.6543 5 15 6.25599 15 7.8V9.2C15 10.744 13.6543 12 12 12C10.3457 12 9 10.744 9 9.2V7.8Z" stroke="#1C1C1C" stroke-width="1.25"/>
</svg>
