<svg width="32" height="32" viewBox="0 0 32 32" fill="none" xmlns="http://www.w3.org/2000/svg">
<g clip-path="url(#clip0_8539_47111)">
<path d="M23.4999 16C23.4999 11.8579 20.1421 8.5 15.9999 8.5M23.4999 16C23.4999 20.1421 20.1421 23.5 15.9999 23.5M23.4999 16H8.49994M15.9999 8.5C11.8578 8.5 8.49994 11.8579 8.49994 16M15.9999 8.5C17.8759 10.5538 18.942 13.219 18.9999 16C18.942 18.781 17.8759 21.4462 15.9999 23.5M15.9999 8.5C14.124 10.5538 13.0579 13.219 12.9999 16C13.0579 18.781 14.124 21.4462 15.9999 23.5M8.49994 16C8.49994 20.1421 11.8578 23.5 15.9999 23.5M16 1C7.71573 1 1 7.71573 1 16C1 24.2843 7.71573 31 16 31C24.2843 31 31 24.2843 31 16C31 7.71573 24.2843 1 16 1Z" stroke="#1C1C1C" stroke-width="1.25"/>
</g>
<defs>
<clipPath id="clip0_8539_47111">
<rect width="32" height="32" fill="white" transform="matrix(1 0 0 -1 0 32)"/>
</clipPath>
</defs>
</svg>
