<svg width="40" height="40" viewBox="0 0 40 40" fill="none" xmlns="http://www.w3.org/2000/svg">
<circle cx="20" cy="20" r="20" fill="#F6F6F7"/>
<path d="M20.085 20.2027C20.4171 20.2027 20.6864 19.9335 20.6864 19.6014C20.6864 19.2692 20.4171 19 20.085 19C19.7529 19 19.4836 19.2692 19.4836 19.6014C19.4836 19.9335 19.7529 20.2027 20.085 20.2027Z" fill="#3D3D45"/>
<path d="M27.5686 20.2027C27.9008 20.2027 28.17 19.9335 28.17 19.6014C28.17 19.2692 27.9008 19 27.5686 19C27.2365 19 26.9673 19.2692 26.9673 19.6014C26.9673 19.9335 27.2365 20.2027 27.5686 20.2027Z" fill="#3D3D45"/>
<path d="M12.6014 20.2027C12.9335 20.2027 13.2027 19.9335 13.2027 19.6014C13.2027 19.2692 12.9335 19 12.6014 19C12.2692 19 12 19.2692 12 19.6014C12 19.9335 12.2692 20.2027 12.6014 20.2027Z" fill="#3D3D45"/>
<path d="M20.085 20.2027C20.4171 20.2027 20.6864 19.9335 20.6864 19.6014C20.6864 19.2692 20.4171 19 20.085 19C19.7529 19 19.4836 19.2692 19.4836 19.6014C19.4836 19.9335 19.7529 20.2027 20.085 20.2027Z" stroke="#3D3D45" stroke-width="1.25" stroke-linecap="round" stroke-linejoin="round"/>
<path d="M27.5686 20.2027C27.9008 20.2027 28.17 19.9335 28.17 19.6014C28.17 19.2692 27.9008 19 27.5686 19C27.2365 19 26.9673 19.2692 26.9673 19.6014C26.9673 19.9335 27.2365 20.2027 27.5686 20.2027Z" stroke="#3D3D45" stroke-width="1.25" stroke-linecap="round" stroke-linejoin="round"/>
<path d="M12.6014 20.2027C12.9335 20.2027 13.2027 19.9335 13.2027 19.6014C13.2027 19.2692 12.9335 19 12.6014 19C12.2692 19 12 19.2692 12 19.6014C12 19.9335 12.2692 20.2027 12.6014 20.2027Z" stroke="#3D3D45" stroke-width="1.25" stroke-linecap="round" stroke-linejoin="round"/>
</svg>
