<svg width="24" height="24" viewBox="0 0 24 24" fill="none" xmlns="http://www.w3.org/2000/svg">
<path d="M17.7143 1H6.28571C5.02335 1 4 1.98497 4 3.2V20.8C4 22.015 5.02335 23 6.28571 23H17.7143C18.9766 23 20 22.015 20 20.8V3.2C20 1.98497 18.9766 1 17.7143 1Z" stroke="#1C1C1C" stroke-width="1.25" stroke-linecap="round" stroke-linejoin="round"/>
<path d="M16.6633 17.25V16.0833C16.6633 15.4645 16.4175 14.871 15.9799 14.4334C15.5423 13.9958 14.9488 13.75 14.33 13.75H9.66329C9.04445 13.75 8.45096 13.9958 8.01337 14.4334C7.57579 14.871 7.32996 15.4645 7.32996 16.0833V17.25" stroke="#1C1C1C" stroke-width="1.25" stroke-linecap="round" stroke-linejoin="round"/>
<path d="M11.9966 11.4167C13.2853 11.4167 14.33 10.372 14.33 9.08333C14.33 7.79467 13.2853 6.75 11.9966 6.75C10.708 6.75 9.66329 7.79467 9.66329 9.08333C9.66329 10.372 10.708 11.4167 11.9966 11.4167Z" stroke="#1C1C1C" stroke-width="1.25" stroke-linecap="round" stroke-linejoin="round"/>
</svg>
