<svg width="24" height="24" viewBox="0 0 24 24" fill="none" xmlns="http://www.w3.org/2000/svg">
<path d="M10.0269 17.9651V10.615C10.0269 10.3063 9.77149 10.0561 9.45644 10.0561C9.14139 10.0561 8.88599 10.3063 8.88599 10.615V17.9651C8.88599 18.2737 9.14139 18.524 9.45644 18.524C9.77149 18.524 10.0269 18.2737 10.0269 17.9651Z" fill="#1C1C1C"/>
<path d="M5.06961 17.9651V10.615C5.06961 10.3063 4.81421 10.0561 4.49916 10.0561C4.18411 10.0561 3.92871 10.3063 3.92871 10.615V17.9651C3.92871 18.2737 4.18411 18.524 4.49916 18.524C4.81421 18.524 5.06961 18.2737 5.06961 17.9651Z" fill="#1C1C1C"/>
<path d="M14.9898 17.9651V10.615C14.9898 10.3063 14.7344 10.0561 14.4193 10.0561C14.1043 10.0561 13.8489 10.3063 13.8489 10.615V17.9651C13.8489 18.2737 14.1043 18.524 14.4193 18.524C14.7344 18.524 14.9898 18.2737 14.9898 17.9651Z" fill="#1C1C1C"/>
<path d="M19.9471 17.9651V10.615C19.9471 10.3063 19.6917 10.0561 19.3766 10.0561C19.0616 10.0561 18.8062 10.3063 18.8062 10.615V17.9651C18.8062 18.2737 19.0616 18.524 19.3766 18.524C19.6917 18.524 19.9471 18.2737 19.9471 17.9651Z" fill="#1C1C1C"/>
<path d="M20.5174 19.882H3.33546C3.02041 19.882 2.76501 20.1323 2.76501 20.441C2.76501 20.7496 3.02041 20.9999 3.33546 20.9999H20.5174C20.8325 20.9999 21.0879 20.7496 21.0879 20.441C21.0879 20.1323 20.8325 19.882 20.5174 19.882Z" fill="#1C1C1C"/>
<path d="M21.6584 8.7481L12.2459 3.07488C12.0694 2.97504 11.852 2.97504 11.6755 3.07488L2.21743 8.74251C1.99382 8.91515 1.93434 9.2229 2.07806 9.46369C2.22177 9.70448 2.52467 9.80459 2.78788 9.69829L11.9493 4.20953L21.0765 9.68152C21.2514 9.81657 21.4905 9.83953 21.6889 9.74033C21.8873 9.64112 22.0085 9.43789 21.9995 9.21987C21.9905 9.00184 21.8528 8.80889 21.6469 8.72574L21.6584 8.7481Z" fill="#1C1C1C"/>
</svg>
