<svg width="12" height="12" viewBox="0 0 12 12" fill="none" xmlns="http://www.w3.org/2000/svg">
<g clip-path="url(#clip0_5211_21621)">
<path d="M3.5 5.49995V3.49995C3.5 2.83691 3.76339 2.20103 4.23223 1.73219C4.70107 1.26335 5.33696 0.999954 6 0.999954C6.66304 0.999954 7.29893 1.26335 7.76777 1.73219C8.23661 2.20103 8.5 2.83691 8.5 3.49995V5.49995M2.5 5.49995H9.5C10.0523 5.49995 10.5 5.94767 10.5 6.49995V9.99995C10.5 10.5522 10.0523 11 9.5 11H2.5C1.94772 11 1.5 10.5522 1.5 9.99995V6.49995C1.5 5.94767 1.94772 5.49995 2.5 5.49995Z" stroke="#1C1C1C" stroke-width="1.25" stroke-linecap="round" stroke-linejoin="round"/>
</g>
<defs>
<clipPath id="clip0_5211_21621">
<rect width="12" height="12" fill="white"/>
</clipPath>
</defs>
</svg>
