<svg width="24" height="24" viewBox="0 0 24 24" fill="none" xmlns="http://www.w3.org/2000/svg">
<path d="M10.9906 16.2583L10.7694 16.143C10.2026 15.8476 9.27785 14.9761 8.76336 14.2526C7.05474 11.8498 6.03673 8.14048 6.52056 6.08092C7.01556 3.97405 9.0205 2.33123 11.4616 2.03248C12.2134 1.94045 13.1359 2.04615 13.989 2.32212C15.8002 2.90795 17.2459 4.39563 17.6418 6.08092C17.8412 6.9296 17.7631 8.4652 17.4545 9.7648C17.1186 11.1797 16.4555 12.7537 15.7157 13.8927C15.2341 14.6342 14.2247 15.6771 13.6994 15.9761C13.484 16.0987 13.3082 16.2193 13.3091 16.2442M10.9906 16.2583L11.2216 16.55C10.9803 16.9308 10.5502 17.3579 10.7715 17.582C10.9208 17.7333 10.9706 17.7393 12.0806 17.7393C13.352 17.7393 13.4008 17.7242 13.5475 17.285L13.1312 16.55M10.9906 16.2583H12.0806L13.3091 16.2442M11.5048 22C11.7609 21.1076 12.1203 20.7319 13.3024 20.1213C14.577 19.4627 15.1473 18.8545 15.1473 18.1536C15.1473 17.5298 14.0303 16.9962 13.1312 16.55M13.1312 16.55C12.8761 16.4234 13.3098 16.269 13.3091 16.2442" stroke="#1C1C1C" stroke-width="1.25" stroke-linecap="round" stroke-linejoin="round"/>
</svg>
