<svg width="16" height="16" viewBox="0 0 16 16" fill="none" xmlns="http://www.w3.org/2000/svg">
<path d="M10.6666 5.33325C11.7275 5.33325 12.7449 5.75468 13.495 6.50483C14.2452 7.25497 14.6666 8.27239 14.6666 9.33325V13.9999H11.9999V9.33325C11.9999 8.97963 11.8594 8.64049 11.6094 8.39044C11.3593 8.14039 11.0202 7.99992 10.6666 7.99992C10.313 7.99992 9.97383 8.14039 9.72378 8.39044C9.47373 8.64049 9.33325 8.97963 9.33325 9.33325V13.9999H6.66659V9.33325C6.66659 8.27239 7.08801 7.25497 7.83816 6.50483C8.5883 5.75468 9.60572 5.33325 10.6666 5.33325Z" stroke="#1C1C1C" stroke-width="1.25" stroke-linecap="round" stroke-linejoin="round"/>
<path d="M3.99992 5.99992H1.33325V13.9999H3.99992V5.99992Z" stroke="#1C1C1C" stroke-width="1.25" stroke-linecap="round" stroke-linejoin="round"/>
<path d="M2.66659 3.99992C3.40296 3.99992 3.99992 3.40296 3.99992 2.66659C3.99992 1.93021 3.40296 1.33325 2.66659 1.33325C1.93021 1.33325 1.33325 1.93021 1.33325 2.66659C1.33325 3.40296 1.93021 3.99992 2.66659 3.99992Z" stroke="#1C1C1C" stroke-width="1.25" stroke-linecap="round" stroke-linejoin="round"/>
</svg>
