<svg width="24" height="24" viewBox="0 0 24 24" fill="none" xmlns="http://www.w3.org/2000/svg">
<path d="M1.00006 0.999969H5.00006L7.68006 14.39C7.77151 14.8504 8.02197 15.2639 8.38761 15.5583C8.75324 15.8526 9.21076 16.009 9.68006 16H19.4001C19.8694 16.009 20.3269 15.8526 20.6925 15.5583C21.0582 15.2639 21.3086 14.8504 21.4001 14.39L23.0001 5.99997H6.00006M10.0001 21C10.0001 21.5523 9.55235 22 9.00006 22C8.44778 22 8.00006 21.5523 8.00006 21C8.00006 20.4477 8.44778 20 9.00006 20C9.55235 20 10.0001 20.4477 10.0001 21ZM21.0001 21C21.0001 21.5523 20.5523 22 20.0001 22C19.4478 22 19.0001 21.5523 19.0001 21C19.0001 20.4477 19.4478 20 20.0001 20C20.5523 20 21.0001 20.4477 21.0001 21Z" stroke="#1C1C1C" stroke-width="1.25" stroke-linecap="round" stroke-linejoin="round"/>
</svg>
