<svg width="24" height="24" viewBox="0 0 24 24" fill="none" xmlns="http://www.w3.org/2000/svg">
<path d="M4.2285 18.4731L8.06442 20.391H14.2978L21.4901 16.0756C21.4901 16.0756 22.6136 15.2309 21.9696 14.1577C21.3257 13.0844 20.0517 13.6782 20.0517 13.6782L16.2157 16.0756H14.2978M4.2285 18.4731V12.2397M4.2285 18.4731H1.83105V12.2397H4.2285M4.2285 12.2397H7.10544L9.50289 13.6782H12.3798C13.4391 13.6782 14.2978 14.5369 14.2978 15.5961V16.0756M14.2978 16.0756H8.06442M15.7026 4.28713C15.4877 4.07211 15.2325 3.90154 14.9516 3.78516C14.6708 3.66879 14.3697 3.60889 14.0657 3.60889C13.7617 3.60889 13.4606 3.66879 13.1798 3.78516C12.8989 3.90154 12.6437 4.07211 12.4288 4.28713L11.9828 4.73317L11.5367 4.28713C11.1026 3.853 10.5138 3.60911 9.89984 3.60911C9.28589 3.60911 8.69708 3.853 8.26295 4.28713C7.82882 4.72126 7.58493 5.31007 7.58493 5.92402C7.58493 6.53797 7.82882 7.12678 8.26295 7.56091L11.9828 11.2807L15.7026 7.56091C15.9176 7.34598 16.0882 7.0908 16.2046 6.80994C16.3209 6.52908 16.3808 6.22804 16.3808 5.92402C16.3808 5.62 16.3209 5.31896 16.2046 5.0381C16.0882 4.75724 15.9176 4.50206 15.7026 4.28713Z" stroke="#1C1C1C" stroke-width="1.25" stroke-linecap="round" stroke-linejoin="round"/>
</svg>
