<svg width="24" height="24" viewBox="0 0 24 24" fill="none" xmlns="http://www.w3.org/2000/svg">
<path d="M18 10.0001H16.74C16.3659 8.55112 15.5928 7.23611 14.5086 6.20452C13.4245 5.17292 12.0727 4.46611 10.6069 4.1644C9.14112 3.86268 7.62008 3.97816 6.21664 4.49771C4.8132 5.01727 3.58363 5.92006 2.66764 7.1035C1.75165 8.28695 1.18598 9.7036 1.0349 11.1925C0.883813 12.6814 1.15338 14.1828 1.81296 15.5261C2.47255 16.8694 3.4957 18.0008 4.76617 18.7917C6.03663 19.5826 7.50347 20.0012 8.99999 20.0001H18C19.3261 20.0001 20.5978 19.4733 21.5355 18.5357C22.4732 17.598 23 16.3262 23 15.0001C23 13.674 22.4732 12.4023 21.5355 11.4646C20.5978 10.5269 19.3261 10.0001 18 10.0001Z" stroke="#1C1C1C" stroke-width="1.25" stroke-linecap="round" stroke-linejoin="round"/>
</svg>
