<svg width="16" height="16" viewBox="0 0 16 16" fill="none" xmlns="http://www.w3.org/2000/svg">
<path d="M10.8266 5.17335C11.1985 5.54484 11.4936 5.98599 11.6949 6.47159C11.8962 6.95718 11.9998 7.47769 11.9998 8.00335C11.9998 8.52901 11.8962 9.04952 11.6949 9.53511C11.4936 10.0207 11.1985 10.4619 10.8266 10.8333M5.17329 10.8267C4.80139 10.4552 4.50635 10.014 4.30505 9.52844C4.10376 9.04285 4.00015 8.52234 4.00015 7.99668C4.00015 7.47102 4.10376 6.95051 4.30505 6.46492C4.50635 5.97933 4.80139 5.53817 5.17329 5.16668M12.7133 3.28668C13.9631 4.53687 14.6652 6.23225 14.6652 8.00002C14.6652 9.76778 13.9631 11.4632 12.7133 12.7133M3.28663 12.7133C2.03682 11.4632 1.33472 9.76778 1.33472 8.00002C1.33472 6.23225 2.03682 4.53687 3.28663 3.28668M9.33329 8.00002C9.33329 8.7364 8.73634 9.33335 7.99996 9.33335C7.26358 9.33335 6.66663 8.7364 6.66663 8.00002C6.66663 7.26364 7.26358 6.66668 7.99996 6.66668C8.73634 6.66668 9.33329 7.26364 9.33329 8.00002Z" stroke="#1C1C1C" stroke-width="1.25" stroke-linecap="round" stroke-linejoin="round"/>
</svg>
