<svg width="16" height="16" viewBox="0 0 16 16" fill="none" xmlns="http://www.w3.org/2000/svg">
<path d="M1.33325 10.7334C1.97385 10.8641 2.56188 11.1802 3.02417 11.6425C3.48647 12.1048 3.80261 12.6928 3.93325 13.3334M1.33325 8.03341C2.68711 8.18399 3.94944 8.79078 4.91266 9.754C5.87589 10.7172 6.48268 11.9796 6.63325 13.3334M1.33325 5.33341V4.00008C1.33325 3.64646 1.47373 3.30732 1.72378 3.05727C1.97382 2.80722 2.31296 2.66675 2.66659 2.66675H13.3333C13.6869 2.66675 14.026 2.80722 14.2761 3.05727C14.5261 3.30732 14.6666 3.64646 14.6666 4.00008V12.0001C14.6666 12.3537 14.5261 12.6928 14.2761 12.9429C14.026 13.1929 13.6869 13.3334 13.3333 13.3334H9.33325M1.33325 13.3334H1.33992" stroke="#1C1C1C" stroke-width="1.25" stroke-linecap="round" stroke-linejoin="round"/>
</svg>
