<svg width="40" height="40" viewBox="0 0 40 40" fill="none" xmlns="http://www.w3.org/2000/svg">
<path d="M9 13.2241L12.2612 18.4191V21.5879L9.00382 26.7727L9 13.2241Z" fill="#5B57A2"/>
<path d="M21.5218 16.5286L24.5777 14.8594L30.8318 14.8542L21.5218 19.937V16.5286Z" fill="#D90751"/>
<path d="M21.5045 13.1934L21.5218 20.0714L18.2529 18.2814V8L21.5047 13.1934H21.5045Z" fill="#FAB718"/>
<path d="M30.8317 14.8542L24.5775 14.8594L21.5045 13.1934L18.2529 8L30.8315 14.8542H30.8317Z" fill="#ED6F26"/>
<path d="M21.5218 26.8015V23.4645L18.2529 21.7085L18.2547 32.0001L21.5218 26.8015Z" fill="#63B22F"/>
<path d="M24.5701 25.1475L12.261 18.4191L9 13.2241L30.8185 25.1407L24.5698 25.1475H24.5701Z" fill="#1487C9"/>
<path d="M18.2547 32L21.5213 26.8014L24.5696 25.1474L30.818 25.1406L18.2547 32Z" fill="#017F36"/>
<path d="M9.00391 26.7726L18.2797 21.7086L15.1612 20.0034L12.2613 21.5878L9.00391 26.7726Z" fill="#984995"/>
</svg>
