<svg width="164" height="104" viewBox="0 0 164 104" fill="none" xmlns="http://www.w3.org/2000/svg">
<rect width="164" height="104" rx="12" fill="#3D3D45"/>
<g clip-path="url(#clip0_106_15)">
<path opacity="0.1" d="M119.236 11.7524C116.085 25.6803 112.936 47.0252 109.938 76.0903L109.938 76.0918C109.34 82.264 108.442 87.2 107.545 91.0545L107.545 91.0565C106.651 95.0513 105.313 98.1109 103.837 100.243C102.202 102.543 100.722 104.068 99.548 104.977C98.2133 105.894 96.2792 106.968 93.8854 108.203L93.6899 108.304L93.765 108.511L95.1124 112.216C95.1126 112.217 95.1129 112.218 95.1131 112.218C95.5797 113.58 96.364 114.597 97.508 115.269C98.6465 115.937 100.119 116.25 101.944 116.25C103.911 116.25 105.604 115.939 107.003 115.141C111.261 113.255 114.443 109.804 116.857 104.668C119.274 99.6822 120.926 92.3825 121.976 82.7905L121.977 82.787C123.765 64.0297 125.851 47.8733 127.937 34.3176H149.455H149.659L149.7 34.1185C150.598 29.7954 151.054 26.8323 151.054 25.5652C151.054 24.5908 150.778 23.8188 150.205 23.294C149.637 22.7727 148.817 22.5326 147.807 22.5326H130.121C130.547 20.2011 130.903 18.37 131.19 17.0382C131.339 16.3443 131.469 15.7881 131.58 15.3683C131.693 14.942 131.782 14.674 131.845 14.5438L131.856 14.5215L131.862 14.4974C133.056 9.87785 134.691 6.21249 137.05 3.62745L137.05 3.62754L137.056 3.62145C139.241 1.0666 142.757 -0.310388 147.507 -0.310388C150.32 -0.310388 153.44 0.300838 156.722 1.37764L156.974 1.46056L157.041 1.20324L158.091 -2.81608L158.091 -2.81599L158.094 -2.82923C158.403 -4.34453 158.251 -5.71609 157.661 -6.91247C157.072 -8.10693 156.057 -9.10642 154.676 -9.89807L154.676 -9.89813L154.671 -9.90088C151.782 -11.4692 148.442 -12.25 144.809 -12.25C138.153 -12.25 132.695 -10.0632 128.299 -5.84216L128.299 -5.84219L128.296 -5.83898C123.91 -1.47078 120.893 4.29473 119.236 11.7524ZM119.236 11.7524C119.236 11.7521 119.236 11.7519 119.236 11.7516L119.48 11.8068M119.236 11.7524C119.235 11.7524 119.235 11.7525 119.235 11.7525L119.48 11.8068M119.48 11.8068C116.332 25.7198 113.185 47.0531 110.187 76.1159L128.472 -5.66184C124.126 -1.33333 121.128 4.38647 119.48 11.8068Z" fill="white" stroke="white" stroke-width="0.5"/>
</g>
<defs>
<clipPath id="clip0_106_15">
<rect width="122" height="104" fill="white" transform="translate(40)"/>
</clipPath>
</defs>
</svg>
