<svg width="20" height="20" viewBox="0 0 20 20" fill="none" xmlns="http://www.w3.org/2000/svg">
<path d="M13.4729 4.84635H6.52755M10.0002 7.87375H6.52755M5.83338 1.66669H14.1678C15.0883 1.66669 15.8346 2.41297 15.8346 3.33356V16.6686C15.8346 17.5892 15.0883 18.3354 14.1678 18.3354H5.83338C4.91279 18.3354 4.1665 17.5892 4.1665 16.6686C4.16694 12.7573 4.16672 10.0562 4.1665 3.33356C4.1665 2.41297 4.91279 1.66669 5.83338 1.66669ZM7.40263 13.2488H12.5977C13.2728 13.2488 13.8201 13.7464 13.8201 14.3601V14.9157C13.8201 15.5294 13.2728 16.027 12.5977 16.027H7.40263C6.72753 16.027 6.18026 15.5294 6.18026 14.9157V14.3601C6.18026 13.7464 6.72753 13.2488 7.40263 13.2488Z" stroke="#1C1C1C" stroke-width="1.25" stroke-linecap="round" stroke-linejoin="round"/>
</svg>
