<svg width="16" height="16" viewBox="0 0 16 16" fill="none" xmlns="http://www.w3.org/2000/svg">
<path d="M14.5 4.50033V3.8335C14.5 3.47983 14.3595 3.14065 14.1094 2.89057C13.8593 2.64049 13.5202 2.5 13.1665 2.5H2.4985C2.14483 2.5 1.80565 2.64049 1.55557 2.89057C1.30549 3.14065 1.165 3.47983 1.165 3.8335V11.8345C1.165 12.1882 1.30549 12.5273 1.55557 12.7774C1.80565 13.0275 2.14483 13.168 2.4985 13.168M6 8.66667H12.6667M6 10.6667H12.6667M12 13.1674H5.16604C4.61376 13.1674 4.16604 12.7197 4.16604 12.1674V7.16675C4.16604 6.98992 4.24131 6.82033 4.37528 6.69529C4.50925 6.57025 4.69095 6.5 4.88042 6.5H13.7856C13.9751 6.5 14.1568 6.57025 14.2908 6.69529C14.4247 6.82033 14.5 6.98992 14.5 7.16675V12.1674C14.5 12.7197 14.0523 13.1674 13.5 13.1674H12Z" stroke="#1C1C1C" stroke-width="1.25" stroke-linecap="round" stroke-linejoin="round"/>
</svg>
