<svg width="25" height="24" viewBox="0 0 25 24" fill="none" xmlns="http://www.w3.org/2000/svg">
<mask id="mask0" style="mask-type:alpha" maskUnits="userSpaceOnUse" x="0" y="0" width="25" height="24">
<circle cx="12.002" cy="12" r="12" fill="#1C1C1C"/>
</mask>
<g mask="url(#mask0)">
<rect x="-1.71234" y="-1.28564" width="27" height="27" fill="#FF3636"/>
<path d="M18.0022 6.97029C18.0022 8.45955 18.0022 9.9461 18.0022 11.4546C17.8935 11.2933 17.8028 11.1533 17.7065 11.0166C16.9063 9.88028 15.9046 8.93146 14.5501 8.33714C13.8298 8.02107 13.1107 7.83642 12.3948 7.78141C11.2731 7.69521 10.1593 7.92734 9.06106 8.47099C7.77069 9.10971 6.82171 10.0678 6.06573 11.1942C6.05063 11.2167 6.03468 11.2387 6.00208 11.2854C6.00208 9.77471 6.00208 8.28304 6.00208 6.78672C6.00208 6.52467 6.34823 6 7.01181 6C10.3447 6 13.6764 6 17.0213 6C17.6272 6 18.0022 6.36714 18.0022 6.97029Z" fill="white"/>
<path d="M17.9989 13.6299C16.288 11.9928 14.3376 10.9531 11.996 10.9889C9.68399 11.0243 7.70272 11.9796 6.0027 13.6359C6.0027 13.3046 5.99969 13.0026 6.00578 12.7008C6.00677 12.6524 6.04211 12.6 6.07223 12.5575C7.29597 10.8303 8.89499 9.69747 10.9616 9.36225C12.8053 9.06321 14.4963 9.51702 16.0288 10.6061C16.7602 11.1259 17.3786 11.7684 17.8955 12.5127C17.9553 12.5988 17.9885 12.7203 17.9944 12.8278C18.0085 13.0863 17.9989 13.3461 17.9989 13.6299Z" fill="white"/>
<path d="M17.999 15.8181C13.9941 14.2204 10.011 14.2202 6.00402 15.8165C6.00402 15.5398 5.99615 15.2545 6.01111 14.9702C6.01387 14.9177 6.10305 14.8619 6.16245 14.8204C7.14251 14.1364 8.23866 13.6888 9.41723 13.4099C10.2553 13.2116 11.1099 13.0739 11.9696 13.0925C14.1051 13.1387 16.1084 13.6215 17.863 14.8324C17.9641 14.9022 18.0063 14.9776 18.0017 15.0961C17.9926 15.3343 17.999 15.5731 17.999 15.8181Z" fill="white"/>
<path d="M17.1079 17.9998C13.7458 17.9998 10.4011 17.9998 7.04082 17.9998C6.20418 17.9998 5.99273 17.6121 6.00226 17.3114C6.00339 17.2755 6.08074 16.9985 6.12708 16.9884C6.64472 16.8757 7.16065 16.7499 7.68314 16.6663C9.4492 16.3838 11.23 16.3275 13.0133 16.3821C14.6057 16.4309 16.189 16.5764 17.7403 16.9761C17.9314 17.0253 18.0201 17.0919 17.999 17.3052C17.9771 17.5279 18.0021 17.9998 17.1079 17.9998Z" fill="white"/>
</g>
</svg>
