<svg width="24" height="24" viewBox="0 0 24 24" fill="none" xmlns="http://www.w3.org/2000/svg">
<path d="M15.9999 7.99987V12.9999C15.9999 13.7955 16.316 14.5586 16.8786 15.1212C17.4412 15.6838 18.2042 15.9999 18.9999 15.9999C19.7955 15.9999 20.5586 15.6838 21.1212 15.1212C21.6838 14.5586 21.9999 13.7955 21.9999 12.9999V11.9999C21.9997 9.7429 21.2361 7.55234 19.8332 5.7844C18.4302 4.01645 16.4704 2.77509 14.2725 2.26217C12.0746 1.74924 9.76782 1.99491 7.72724 2.95923C5.68665 3.92356 4.03228 5.54982 3.03314 7.57359C2.03401 9.59736 1.74885 11.8996 2.22406 14.106C2.69926 16.3124 3.90686 18.2931 5.65052 19.7261C7.39417 21.1592 9.57132 21.9602 11.828 21.999C14.0846 22.0378 16.288 21.3121 18.0799 19.9399M15.9999 11.9999C15.9999 14.209 14.209 15.9999 11.9999 15.9999C9.79075 15.9999 7.99989 14.209 7.99989 11.9999C7.99989 9.79073 9.79075 7.99987 11.9999 7.99987C14.209 7.99987 15.9999 9.79073 15.9999 11.9999Z" stroke="#1C1C1C" stroke-width="1.25" stroke-linecap="round" stroke-linejoin="round"/>
</svg>
