<svg width="16" height="16" viewBox="0 0 16 16" fill="none" xmlns="http://www.w3.org/2000/svg">
<path d="M7.70841 8.08337C7.91552 8.08337 8.08341 7.91548 8.08341 7.70837C8.08341 7.50127 7.91552 7.33337 7.70841 7.33337C7.50131 7.33337 7.33341 7.50127 7.33341 7.70837C7.33341 7.91548 7.50131 8.08337 7.70841 8.08337Z" fill="#1C1C1C"/>
<path d="M12.3751 8.08337C12.5822 8.08337 12.7501 7.91548 12.7501 7.70837C12.7501 7.50127 12.5822 7.33337 12.3751 7.33337C12.168 7.33337 12.0001 7.50127 12.0001 7.70837C12.0001 7.91548 12.168 8.08337 12.3751 8.08337Z" fill="#1C1C1C"/>
<path d="M3.04175 8.08337C3.24885 8.08337 3.41675 7.91548 3.41675 7.70837C3.41675 7.50127 3.24885 7.33337 3.04175 7.33337C2.83464 7.33337 2.66675 7.50127 2.66675 7.70837C2.66675 7.91548 2.83464 8.08337 3.04175 8.08337Z" fill="#1C1C1C"/>
<path d="M7.70841 8.08337C7.91552 8.08337 8.08341 7.91548 8.08341 7.70837C8.08341 7.50127 7.91552 7.33337 7.70841 7.33337C7.50131 7.33337 7.33341 7.50127 7.33341 7.70837C7.33341 7.91548 7.50131 8.08337 7.70841 8.08337Z" stroke="#1C1C1C" stroke-width="1.25" stroke-linecap="round" stroke-linejoin="round"/>
<path d="M12.3751 8.08337C12.5822 8.08337 12.7501 7.91548 12.7501 7.70837C12.7501 7.50127 12.5822 7.33337 12.3751 7.33337C12.168 7.33337 12.0001 7.50127 12.0001 7.70837C12.0001 7.91548 12.168 8.08337 12.3751 8.08337Z" stroke="#1C1C1C" stroke-width="1.25" stroke-linecap="round" stroke-linejoin="round"/>
<path d="M3.04175 8.08337C3.24885 8.08337 3.41675 7.91548 3.41675 7.70837C3.41675 7.50127 3.24885 7.33337 3.04175 7.33337C2.83464 7.33337 2.66675 7.50127 2.66675 7.70837C2.66675 7.91548 2.83464 8.08337 3.04175 8.08337Z" stroke="#1C1C1C" stroke-width="1.25" stroke-linecap="round" stroke-linejoin="round"/>
</svg>
