<svg width="24" height="24" viewBox="0 0 24 24" fill="none" xmlns="http://www.w3.org/2000/svg">
<path d="M20.1882 17.2113V22H18.9938H5.2265L4.0321 21.9999V19.6056V17.2113M20.1882 17.2113C20.3103 17.1698 20.4493 17.1466 20.6232 17.1466C20.9529 17.1466 21.2203 16.8792 21.2203 16.5495M20.1882 17.2113V16.0046M21.2203 16.5495V15.1187C21.2203 13.4723 19.8809 12.133 18.2346 12.133H13.6627V8.79589C13.6627 8.46615 13.3953 8.19875 13.0656 8.19875H11.1547C10.8249 8.19875 10.5576 8.46615 10.5576 8.79589V12.133M21.2203 16.5495C21.0647 16.0974 20.5391 15.9974 20.1882 16.0046M10.5576 12.133H5.9857C4.33939 12.133 3 13.4723 3 15.1187V16.5495M10.5576 12.133L13.6665 12.1286M3 16.5495C3 16.8792 3.2674 17.1466 3.59714 17.1466C3.77103 17.1466 3.9101 17.1698 4.0321 17.2113M3 16.5495C3 16.0985 3.57766 15.9979 3.99499 16.0046M4.0321 17.2113L3.99499 16.0046M20.1882 16.0046C20.1281 16.0058 20.0731 16.0102 20.026 16.0165C19.4677 16.1444 19.1162 16.4402 18.8197 16.6898C18.4928 16.9648 18.2769 17.1466 17.7853 17.1466C17.2936 17.1466 17.0777 16.9648 16.7508 16.6898C16.3605 16.3612 15.8747 15.9523 14.9474 15.9523C14.0201 15.9523 13.5344 16.3612 13.1441 16.6898C12.8172 16.9648 12.6014 17.1466 12.1099 17.1466C11.6183 17.1466 11.4024 16.9648 11.0756 16.6898C10.6853 16.3612 10.1995 15.9523 9.27225 15.9523C8.34501 15.9523 7.85929 16.3612 7.469 16.6898C7.14219 16.9648 6.92626 17.1466 6.43481 17.1466C5.94337 17.1466 5.72738 16.9648 5.40068 16.6898C5.1042 16.4402 4.75267 16.1444 4.19452 16.0165C4.13547 16.0101 4.06766 16.0057 3.99499 16.0046M12.1105 3.56229C12.6534 4.29498 13.1197 5.0838 13.1197 5.39796C13.1197 5.95455 12.6669 6.40736 12.1103 6.40736C11.5537 6.40736 11.1009 5.95455 11.1009 5.39796C11.1009 5.08458 11.5674 4.29552 12.1105 3.56229Z" stroke="#1C1C1C" stroke-width="1.25" stroke-miterlimit="1.41421" stroke-linecap="round" stroke-linejoin="round"/>
</svg>
