<svg width="24" height="24" viewBox="0 0 24 24" fill="none" xmlns="http://www.w3.org/2000/svg">
<path d="M19.7856 14.8988V19.5141H18.6344H5.3654L4.21423 19.514V17.2064V14.8988M19.7856 14.8988C19.9032 14.8587 20.0372 14.8364 20.2048 14.8364C20.5226 14.8364 20.7804 14.5787 20.7804 14.2609M19.7856 14.8988V13.7357M20.7804 14.2609V12.8818C20.7804 11.2951 19.4894 10.0042 17.9027 10.0042H13.4963V6.7879C13.4963 6.47009 13.2386 6.21237 12.9208 6.21237H11.0791C10.7612 6.21237 10.5035 6.47009 10.5035 6.7879V10.0042M20.7804 14.2609C20.6304 13.8251 20.1238 13.7288 19.7856 13.7357M10.5035 10.0042H6.09713C4.51039 10.0042 3.21948 11.2951 3.21948 12.8818V14.2609M10.5035 10.0042L13.4999 10M3.21948 14.2609C3.21948 14.5787 3.4772 14.8364 3.79501 14.8364C3.9626 14.8364 4.09665 14.8587 4.21423 14.8988M3.21948 14.2609C3.21948 13.8262 3.77624 13.7293 4.17846 13.7357M4.21423 14.8988L4.17846 13.7357M19.7856 13.7357C19.7277 13.7369 19.6747 13.7411 19.6293 13.7471C19.0912 13.8704 18.7524 14.1556 18.4666 14.3961C18.1516 14.6612 17.9435 14.8364 17.4696 14.8364C16.9958 14.8364 16.7876 14.6612 16.4726 14.3961C16.0964 14.0794 15.6282 13.6853 14.7344 13.6853C13.8407 13.6853 13.3726 14.0794 12.9964 14.3961C12.6814 14.6612 12.4733 14.8364 11.9996 14.8364C11.5259 14.8364 11.3178 14.6612 11.0028 14.3961C10.6266 14.0794 10.1585 13.6853 9.26472 13.6853C8.37104 13.6853 7.9029 14.0794 7.52674 14.3961C7.21175 14.6612 7.00364 14.8364 6.52998 14.8364C6.05632 14.8364 5.84815 14.6612 5.53328 14.3961C5.24753 14.1556 4.90872 13.8704 4.37077 13.7472C4.31386 13.7411 4.2485 13.7368 4.17846 13.7357" stroke="#1C1C1C" stroke-width="1.25" stroke-miterlimit="1.41421" stroke-linecap="round" stroke-linejoin="round"/>
<path d="M12 5.63689C13.1712 5.63689 14.124 4.68405 14.124 3.51296C14.124 2.52501 12.8356 0.913762 12.4408 0.44344C12.3315 0.31314 12.1701 0.237976 12 0.237976C11.83 0.237976 11.6686 0.313198 11.5592 0.44344C11.1644 0.913762 9.8761 2.52501 9.8761 3.51296C9.8761 4.68411 10.8289 5.63689 12 5.63689ZM12.0002 1.74373C12.5235 2.4499 12.9729 3.21018 12.9729 3.51296C12.9729 4.04941 12.5365 4.48584 12 4.48584C11.4636 4.48584 11.0272 4.04941 11.0272 3.51296C11.0272 3.21093 11.4768 2.45042 12.0002 1.74373Z" fill="#1C1C1C"/>
</svg>
