<svg width="64" height="64" viewBox="0 0 64 64" fill="none" xmlns="http://www.w3.org/2000/svg">
<path d="M0 13.5629C0 6.07232 6.03237 0 13.4737 0H50.5263C57.9676 0 64 6.07232 64 13.5629V25.6937C64 26.6084 62.541 26.996 62.0402 26.2329C58.2999 20.5342 48.9291 9.74834 31.5789 9.74834C14.6195 9.74834 5.71961 20.054 2.0592 25.8404C1.5621 26.6262 0 26.2418 0 25.3102V13.5629Z" fill="#1C1C1C"/>
<path d="M0 38.5567V39.4017C0 40.169 0.956758 40.5772 1.5189 40.059C5.59005 36.3062 17.432 27.7087 32 27.7087C46.568 27.7087 58.41 36.3062 62.4811 40.059C63.0432 40.5772 64 40.169 64 39.4017V38.5567C64 36.9042 63.5418 35.2902 62.5342 33.9857C58.7961 29.1463 48.0552 18.3842 32 18.3842C15.9448 18.3842 5.20388 29.1463 1.46584 33.9857C0.458197 35.2902 0 36.9042 0 38.5567Z" fill="#FF3636"/>
<path d="M0 49.2213V51.6637C0 52.2802 0.628838 52.7041 1.19748 52.4752C4.93372 50.9707 17.027 46.6226 32 46.6226C46.973 46.6226 59.0663 50.9707 62.8025 52.4752C63.3712 52.7041 64 52.2802 64 51.6637V49.2213C64 48.1158 63.5008 47.0777 62.578 46.4783C58.8807 44.0766 48.1184 38.1458 32 38.1458C15.8816 38.1458 5.11931 44.0766 1.42198 46.4783C0.499184 47.0777 0 48.1158 0 49.2213Z" fill="#FF3636"/>
<path d="M10.1866 64H53.1622C56.7574 64 60.0953 62.1225 61.9795 59.0403C62.1401 58.7776 61.996 58.4373 61.6934 58.3889C58.4405 57.8686 43.1231 55.5173 32.0001 55.5231C20.842 55.529 5.42537 57.9492 2.56996 58.4135C2.33446 58.4518 2.20392 58.7049 2.30388 58.923C3.72295 62.018 6.80024 64 10.1866 64Z" fill="#FF3636"/>
</svg>
