<svg width="48" height="48" viewBox="0 0 48 48" fill="none" xmlns="http://www.w3.org/2000/svg">
<path d="M41.5004 7H16.1964C14.8162 7 13.6973 7.95889 13.6973 9.14173V38.8583C13.6973 40.0411 14.8162 41 16.1964 41H41.5004C42.8806 41 43.9996 40.0411 43.9996 38.8583V9.14173C43.9996 7.95889 42.8806 7 41.5004 7Z" stroke="white" stroke-width="1.25" stroke-linecap="round" stroke-linejoin="round"/>
<path d="M39.0022 12.6667C31.3163 12.6667 19.3213 12.6667 19.3213 12.6667" stroke="white" stroke-width="1.25" stroke-linecap="round" stroke-linejoin="round"/>
<path d="M28.6931 17.3887C25.0332 17.3887 19.3213 17.3887 19.3213 17.3887" stroke="white" stroke-width="1.25" stroke-linecap="round" stroke-linejoin="round"/>
<path d="M24.6181 28.7293C11.3203 28.7293 6.49916 28.7293 6.49916 28.7293C5.83634 28.7293 5.20067 28.4639 4.73199 27.9916C4.2633 27.5193 4 26.8787 4 26.2107V12.9885" stroke="#FF3636" stroke-width="1.25" stroke-linecap="round" stroke-linejoin="round"/>
<path d="M20.5698 28.7295H29.6293M29.6293 28.7295L26.1929 25.2665M29.6293 28.7295L26.1929 32.1924" stroke="#FF3636" stroke-width="1.25" stroke-linecap="round" stroke-linejoin="round"/>
</svg>
