<svg width="40" height="40" viewBox="0 0 40 40" fill="none" xmlns="http://www.w3.org/2000/svg">
<rect width="40" height="40" rx="20" fill="#FABD80"/>
<path d="M14.8125 11.3558L14.5 17.1696C14.5 18.17 15.0313 18.7934 15.8906 18.8369L15.4688 27.6807C15.4531 28.0287 15.5938 28.3621 15.8594 28.6086C16.125 28.8551 16.4688 29.0001 16.8438 29.0001C17.2188 29.0001 17.5625 28.8696 17.8281 28.6086C18.0938 28.3621 18.2344 28.0287 18.2188 27.6807L17.7969 18.8369C18.6563 18.7934 19.1875 18.17 19.1875 17.1696L18.875 11.3703" stroke="white" stroke-width="1.25" stroke-linecap="round" stroke-linejoin="round"/>
<path d="M16.84 11.3546V15.3546" stroke="white" stroke-width="1.25" stroke-linecap="round"/>
<path d="M24.0486 28.5125C24.392 28.2114 24.5793 27.7956 24.5793 27.3511V27.3367L24.1266 19.171C25.0007 19.0563 25.6719 18.368 25.6719 17.5364V14.4464C25.6719 12.7401 24.1734 11.3636 22.316 11.3636C22.1911 11.3636 22.0819 11.464 22.0819 11.5787V11.6074V28.7849C22.0819 28.8996 22.1911 29 22.316 29H22.7843C23.2525 29 23.7052 28.8279 24.0486 28.5125Z" stroke="white" stroke-width="1.25" stroke-linejoin="round"/>
</svg>
