<svg width="24" height="24" viewBox="0 0 24 24" fill="none" xmlns="http://www.w3.org/2000/svg">
<path d="M17.9999 8.00012H18.9999C20.0608 8.00012 21.0782 8.42155 21.8284 9.17169C22.5785 9.92184 22.9999 10.9393 22.9999 12.0001C22.9999 13.061 22.5785 14.0784 21.8284 14.8285C21.0782 15.5787 20.0608 16.0001 18.9999 16.0001H17.9999M17.9999 8.00012H1.99994V17.0001C1.99994 18.061 2.42137 19.0784 3.17151 19.8285C3.92166 20.5787 4.93907 21.0001 5.99994 21.0001H13.9999C15.0608 21.0001 16.0782 20.5787 16.8284 19.8285C17.5785 19.0784 17.9999 18.061 17.9999 17.0001V8.00012ZM5.99994 1.00012V4.00012M9.99994 1.00012V4.00012M13.9999 1.00012V4.00012" stroke="#1C1C1C" stroke-width="1.25" stroke-linecap="round" stroke-linejoin="round"/>
</svg>
