<svg width="24" height="24" viewBox="0 0 24 24" fill="none" xmlns="http://www.w3.org/2000/svg">
<path d="M20.9999 1.99994L18.9999 3.99994M18.9999 3.99994L21.9999 6.99994L18.4999 10.4999L15.4999 7.49994M18.9999 3.99994L15.4999 7.49994M11.3899 11.6099C11.9062 12.1194 12.3167 12.726 12.5977 13.3947C12.8786 14.0635 13.0245 14.7812 13.0269 15.5066C13.0294 16.2319 12.8883 16.9506 12.6118 17.6212C12.3354 18.2919 11.929 18.9012 11.4161 19.4141C10.9031 19.927 10.2938 20.3334 9.62321 20.6099C8.95259 20.8863 8.23391 21.0274 7.50854 21.025C6.78317 21.0225 6.06545 20.8766 5.3967 20.5957C4.72795 20.3147 4.12137 19.9043 3.61191 19.3879C2.61004 18.3506 2.05567 16.9613 2.0682 15.5192C2.08073 14.0772 2.65916 12.6977 3.67891 11.6779C4.69865 10.6582 6.07812 10.0798 7.5202 10.0672C8.96228 10.0547 10.3516 10.6091 11.3889 11.6109L11.3899 11.6099ZM11.3899 11.6099L15.4999 7.49994" stroke="#1C1C1C" stroke-width="1.25" stroke-linecap="round" stroke-linejoin="round"/>
</svg>
