<svg width="32" height="32" viewBox="0 0 32 32" fill="none" xmlns="http://www.w3.org/2000/svg">
<path d="M16 1.625C8.06091 1.625 1.625 8.06091 1.625 16H0.375C0.375 7.37055 7.37055 0.375 16 0.375V1.625ZM30.375 16C30.375 8.06091 23.9391 1.625 16 1.625V0.375C24.6294 0.375 31.625 7.37055 31.625 16H30.375ZM16 30.375C23.9391 30.375 30.375 23.9391 30.375 16H31.625C31.625 24.6294 24.6294 31.625 16 31.625V30.375ZM16 31.625C7.37055 31.625 0.375 24.6294 0.375 16H1.625C1.625 23.9391 8.06091 30.375 16 30.375V31.625Z" fill="#1C1C1C"/>
<path d="M17.4766 11.7401L20.1132 9.25007M20.1132 9.25007L22.7499 11.7401M20.1132 9.25007V17.3282M9.25 20.2602L11.8867 22.7502M11.8867 22.7502L14.5234 20.2602M11.8867 22.7502V14.6721" stroke="#1C1C1C" stroke-width="1.25" stroke-linecap="round" stroke-linejoin="round"/>
</svg>
