<svg width="24" height="24" viewBox="0 0 24 24" fill="none" xmlns="http://www.w3.org/2000/svg">
<path d="M4.71864 5.53229H16.7491C17.6983 5.53229 18.4678 6.30175 18.4678 7.25093V19.2814C18.4678 20.2306 17.6983 21 16.7491 21H4.71864C3.76946 21 3 20.2306 3 19.2814V7.25093C3 6.30175 3.76946 5.53229 4.71864 5.53229ZM4.71864 5.53229C4.71864 3.93055 5.87409 3 7.47583 3H18.0101C19.667 3 21.0101 4.34315 21.0101 6V16.5343C21.0101 18.136 20.1017 19.5 18.5 19.5M10.7339 9.82889V16.7034M7.2966 13.2662H14.1712" stroke="#1C1C1C" stroke-width="1.25" stroke-linecap="round" stroke-linejoin="round"/>
</svg>
