<svg width="24" height="24" viewBox="0 0 24 24" fill="none" xmlns="http://www.w3.org/2000/svg">
<path d="M9 12.4174H9.71058H10.4212L11.8295 12.4189L13.0362 12.4139C14.3429 12.4086 14.3349 12.4089 14.7103 12.3367C15.53 12.1791 16.1575 11.8031 16.5601 11.2284C16.6536 11.095 16.7972 10.8143 16.8487 10.6645C16.9423 10.392 16.9872 10.1393 16.9981 9.82394C17.0215 9.14492 16.8302 8.53562 16.4405 8.0474C16.3571 7.94289 16.1544 7.74488 16.0429 7.65885C15.6027 7.31935 15.1 7.12686 14.3966 7.02843C14.2567 7.00884 14.0722 7.00655 12.3321 7.00268L11.1253 7V17M9 14.7383C10.9 14.7371 13.8652 14.7352 13.8652 14.7352M1.99634 5.99067V9.99067M1.99634 9.99067H5.99634M1.99634 9.99067L6.63634 5.63067C8.01725 4.25209 9.80879 3.35964 11.741 3.08779C13.6732 2.81593 15.6415 3.17941 17.3492 4.12344C19.0569 5.06747 20.4115 6.54091 21.209 8.32177C22.0064 10.1026 22.2035 12.0944 21.7706 13.997C21.3376 15.8996 20.298 17.61 18.8085 18.8704C17.3189 20.1308 15.4601 20.873 13.5121 20.9851C11.564 21.0973 9.63231 20.5732 8.00799 19.492C6.38367 18.4109 5.15473 16.831 4.50634 14.9907" stroke="#1C1C1C" stroke-width="1.25" stroke-linecap="round" stroke-linejoin="round"/>
</svg>
