<svg width="32" height="32" viewBox="0 0 32 32" fill="none" xmlns="http://www.w3.org/2000/svg">
<path d="M14 14.4444V21.5556M10.4444 18H17.5556M7.77778 10H20.2222C21.2041 10 22 10.7959 22 11.7778V24.2222C22 25.2041 21.2041 26 20.2222 26H7.77778C6.79594 26 6 25.2041 6 24.2222V11.7778C6 10.7959 6.79594 10 7.77778 10Z" stroke="#999999" stroke-width="1.25" stroke-linecap="round" stroke-linejoin="round"/>
<path d="M7.62988 10.3806V10.3806C7.62988 8.7237 8.97303 7.38055 10.6299 7.38055H21.6299C23.2867 7.38055 24.6299 8.7237 24.6299 10.3806V21.3806C24.6299 23.0374 23.2867 24.3806 21.6299 24.3806V24.3806" stroke="#999999" stroke-width="1.25"/>
</svg>
