<svg width="16" height="16" viewBox="0 0 16 16" fill="none" xmlns="http://www.w3.org/2000/svg">
<path d="M15.3334 1.99993C14.695 2.45025 13.9882 2.79467 13.2401 3.01993C12.8386 2.55827 12.305 2.23106 11.7114 2.08255C11.1179 1.93404 10.4931 1.97139 9.92147 2.18956C9.34986 2.40774 8.85904 2.7962 8.5154 3.30241C8.17176 3.80862 7.99188 4.40815 8.00008 5.01993V5.6866C6.8285 5.71697 5.6676 5.45714 4.62075 4.93023C3.57391 4.40332 2.67363 3.62569 2.00008 2.6666C2.00008 2.6666 -0.666585 8.6666 5.33341 11.3333C3.96043 12.2652 2.32485 12.7325 0.666748 12.6666C6.66675 15.9999 14.0001 12.6666 14.0001 4.99993C13.9995 4.81423 13.9816 4.62899 13.9467 4.4466C14.6271 3.77559 15.1073 2.9284 15.3334 1.99993Z" stroke="#1C1C1C" stroke-width="1.25" stroke-linecap="round" stroke-linejoin="round"/>
</svg>
