<svg width="16" height="16" viewBox="0 0 16 16" fill="none" xmlns="http://www.w3.org/2000/svg">
<path d="M10.2893 11.3333C8.07836 14.3333 11.3995 14.6596 10.6666 15.3333H10.3333C8.46666 15.0667 7.33331 13.2222 6.99998 12.3333" stroke="#1C1C1C" stroke-width="1.25" stroke-linecap="round" stroke-linejoin="round"/>
<path d="M10.3508 1.4152C10.4996 1.38459 10.7572 1.34831 10.8814 1.34049C11.3982 1.30797 11.998 1.38723 12.5238 1.55753C13.7554 1.95644 14.8112 3.29532 15.0349 4.74168C15.1626 5.56783 15.0334 6.36576 14.6494 7.122C13.9358 8.52708 12.5058 9.68456 11.0294 10.0521C10.7284 10.127 10.2884 10.19 10.0656 10.19C10.017 10.19 9.97724 10.1948 9.97724 10.2008L9.68205 10.1204C9.67399 10.113 9.54294 10.0288 9.39081 9.93327C9.15216 9.78336 9.09335 9.73985 8.96214 9.61606C8.12187 8.82331 7.50555 7.66293 7.30883 6.5033C7.24999 6.15646 7.23933 6.02037 7.23938 5.61751C7.23943 5.23813 7.24826 5.11669 7.29748 4.81905C7.43231 4.00364 7.76401 3.26804 8.26652 2.66996C8.4053 2.50479 8.71393 2.20986 8.87464 2.08882C9.31829 1.75469 9.82519 1.52337 10.3508 1.4152Z" stroke="#1C1C1C" stroke-width="1.25" stroke-linejoin="round"/>
<path d="M7.23941 4.78021C6.33629 4.0411 4.54036 4.11382 3.85331 4.29935L3.74489 4.33913C3.5615 4.40642 3.14194 4.64056 2.95455 4.78018C2.62009 5.02941 2.38604 5.27462 2.18108 5.59051C1.72749 6.2896 1.61022 7.17018 1.85796 8.0164C2.10765 8.86914 2.72849 9.74726 3.51363 10.3581C4.00771 10.7425 4.65365 11.0628 5.15261 11.1708C5.52997 11.2525 5.9558 11.264 6.25369 11.2005L6.38018 11.1735C6.60659 11.119 7.12382 10.9246 7.38146 10.5834C7.79695 10.1446 8.06223 9.51379 8.14921 8.7843" stroke="#1C1C1C" stroke-width="1.25" stroke-linecap="round"/>
<path d="M6.1463 11.6347C6.08118 11.9012 5.91713 12.2301 6.08628 12.3188C6.20039 12.3787 6.22997 12.3729 6.86379 12.1647C7.58968 11.9263 7.61465 11.9083 7.61463 11.6256L7.2366 11.2766" stroke="#1C1C1C" stroke-width="1.25" stroke-linecap="round" stroke-linejoin="round"/>
<path d="M9.64056 10.5257C9.50132 10.7621 9.24939 11.0297 9.38574 11.1634C9.47772 11.2537 9.50773 11.2567 10.1747 11.2402C10.9385 11.2213 10.9676 11.2113 11.0491 10.9406L10.7878 10.4973" stroke="#1C1C1C" stroke-width="1.25" stroke-linecap="round" stroke-linejoin="round"/>
</svg>
