<svg width="16" height="16" viewBox="0 0 16 16" fill="none" xmlns="http://www.w3.org/2000/svg">
<path d="M9.81217 10.8714C7.69602 13.7429 10.8748 14.0552 10.1734 14.7H9.85433C8.06768 14.4448 6.9829 12.6794 6.66385 11.8286M6.89309 4.59915C6.02868 3.89172 4.30971 3.96133 3.65211 4.13891L3.54833 4.17698C3.37281 4.24138 2.97122 4.46549 2.79186 4.59912C2.47174 4.83767 2.24772 5.07237 2.05154 5.37473C1.6174 6.04386 1.50515 6.8867 1.74228 7.69665C1.98126 8.51285 2.5755 9.35333 3.32699 9.93801C3.79989 10.3059 4.41815 10.6125 4.89572 10.7159C5.25692 10.7941 5.6645 10.805 5.94961 10.7443L6.07069 10.7184C6.28739 10.6663 6.78246 10.4802 7.02906 10.1536C7.42673 9.73362 7.68065 9.12986 7.7639 8.43164M5.84678 11.1599C5.78446 11.415 5.62744 11.7297 5.78934 11.8147C5.89856 11.872 5.92687 11.8664 6.53352 11.6672C7.22831 11.439 7.25221 11.4218 7.25218 11.1512L6.89036 10.8171M9.19133 10.0984C9.05806 10.3247 8.81693 10.5808 8.94743 10.7088C9.03547 10.7952 9.0642 10.798 9.70254 10.7823C10.4336 10.7642 10.4615 10.7546 10.5395 10.4955L10.2894 10.0713M10.379 1.30685C10.2601 1.31434 10.0134 1.34907 9.87106 1.37837C9.36799 1.4819 8.88281 1.7033 8.45817 2.02312C8.30435 2.13897 8.00895 2.42126 7.87611 2.57935C7.39514 3.15179 7.07766 3.85588 6.9486 4.63633C6.90149 4.92122 6.89304 5.03745 6.89299 5.40058C6.89295 5.78617 6.90315 5.91643 6.95947 6.24841C7.14775 7.35834 7.73766 8.46898 8.54192 9.22776C8.66751 9.34625 8.7238 9.38789 8.95222 9.53137C9.09783 9.62285 9.22327 9.70345 9.23098 9.71049L9.51351 9.7874C9.51351 9.78171 9.55159 9.77706 9.59814 9.77706C9.8113 9.77706 10.2324 9.7168 10.5206 9.64507C11.9337 9.29333 13.3025 8.18545 13.9854 6.84059C14.353 6.11675 14.4767 5.35302 14.3544 4.56229C14.1403 3.17791 13.1297 1.89641 11.9509 1.5146C11.4477 1.3516 10.8736 1.27574 10.379 1.30685Z" stroke="#1C1C1C" stroke-width="1.25" stroke-linecap="round" stroke-linejoin="round"/>
</svg>
