<svg width="32" height="32" viewBox="0 0 32 32" fill="none" xmlns="http://www.w3.org/2000/svg">
<rect width="32" height="32" rx="16" fill="#E6232E"/>
<path fill-rule="evenodd" clip-rule="evenodd" d="M15.4597 13.0782C10.6405 14.0968 6.58107 15.0469 6.43848 15.1894C6.28439 15.3435 6.60291 15.6319 7.22299 15.8998C10.4108 17.2762 10.1452 17.0293 10.7037 19.1376C11.4727 22.0417 11.4057 22.0003 13.1199 20.6356C14.5955 19.4607 14.6545 19.4415 15.7193 19.7931C16.3187 19.9908 17.054 20.0667 17.3533 19.9618C17.6525 19.8569 19.0617 18.41 20.4847 16.7467C21.9077 15.0834 23.5673 13.1495 24.1725 12.4492C25.0401 11.4451 25.1617 11.1812 24.7474 11.201C24.4585 11.2148 20.2789 12.0597 15.4597 13.0782Z" fill="white"/>
</svg>
