<svg width="12" height="12" viewBox="0 0 12 12" fill="none" xmlns="http://www.w3.org/2000/svg">
<path d="M5.11636 9.06373C5.39871 9.14432 5.69688 9.1875 6.00503 9.1875C7.77822 9.1875 9.22081 7.7576 9.22081 6C9.22081 4.2424 7.7782 2.8125 6.005 2.8125C5.69686 2.8125 5.3987 2.85568 5.11636 2.93626M6.90054 9.06373C7.18289 9.14432 7.48106 9.1875 7.78921 9.1875C9.5624 9.1875 11.005 7.7576 11.005 6C11.005 4.2424 9.56238 2.8125 7.78918 2.8125C7.48104 2.8125 7.18288 2.85568 6.90054 2.93626M4.22081 9.1875C2.44762 9.1875 1.005 7.7576 1.005 6C1.005 4.2424 2.44759 2.8125 4.22079 2.8125C5.99399 2.8125 7.4366 4.2424 7.4366 6C7.4366 7.7576 5.99401 9.1875 4.22081 9.1875Z" stroke="black" stroke-width="1.25"/>
</svg>
