<svg width="24" height="24" viewBox="0 0 24 24" fill="none" xmlns="http://www.w3.org/2000/svg">
<path d="M4.99988 17H3.99988C3.46944 17 2.96074 16.7893 2.58566 16.4142C2.21059 16.0391 1.99988 15.5304 1.99988 15V5C1.99988 4.46957 2.21059 3.96086 2.58566 3.58579C2.96074 3.21071 3.46944 3 3.99988 3H19.9999C20.5303 3 21.039 3.21071 21.4141 3.58579C21.7892 3.96086 21.9999 4.46957 21.9999 5V15C21.9999 15.5304 21.7892 16.0391 21.4141 16.4142C21.039 16.7893 20.5303 17 19.9999 17H18.9999M11.9999 15L16.9999 21H6.99988L11.9999 15Z" stroke="#1C1C1C" stroke-width="1.25" stroke-linecap="round" stroke-linejoin="round"/>
</svg>
