<svg width="24" height="24" viewBox="0 0 24 24" fill="none" xmlns="http://www.w3.org/2000/svg">
<path d="M17.4999 6.49994H17.5099M6.99994 1.99994H16.9999C19.7614 1.99994 21.9999 4.23852 21.9999 6.99994V16.9999C21.9999 19.7614 19.7614 21.9999 16.9999 21.9999H6.99994C4.23852 21.9999 1.99994 19.7614 1.99994 16.9999V6.99994C1.99994 4.23852 4.23852 1.99994 6.99994 1.99994ZM15.9999 11.3699C16.1234 12.2022 15.9812 13.0522 15.5937 13.799C15.2062 14.5458 14.5931 15.1514 13.8416 15.5296C13.09 15.9079 12.2384 16.0395 11.4077 15.9059C10.5771 15.7722 9.8097 15.38 9.21478 14.7851C8.61986 14.1902 8.22767 13.4228 8.09401 12.5922C7.96034 11.7615 8.092 10.9098 8.47027 10.1583C8.84853 9.40679 9.45413 8.79368 10.2009 8.40618C10.9477 8.01868 11.7977 7.87653 12.6299 7.99994C13.4789 8.12582 14.2648 8.5214 14.8716 9.12825C15.4785 9.73509 15.8741 10.521 15.9999 11.3699Z" stroke="#1C1C1C" stroke-width="1.25" stroke-linecap="round" stroke-linejoin="round"/>
</svg>
