<svg width="16" height="16" viewBox="0 0 16 16" fill="none" xmlns="http://www.w3.org/2000/svg">
<path d="M13.1904 9.93252V13.0094H12.423H3.57697L2.80952 13.0094V11.4709V9.93252M13.1904 9.93252C13.2689 9.90581 13.3582 9.89093 13.4699 9.89093C13.6818 9.89093 13.8536 9.71911 13.8536 9.50724M13.1904 9.93252V9.15713M13.8536 9.50724V8.58789C13.8536 7.53007 12.993 6.66946 11.9352 6.66946H8.99757V4.52527C8.99757 4.3134 8.82575 4.14159 8.61388 4.14159H7.38609C7.17418 4.14159 7.0024 4.3134 7.0024 4.52527V6.66946M13.8536 9.50724C13.7536 9.21677 13.4159 9.15253 13.1904 9.15713M7.0024 6.66946H4.06479C3.00697 6.66946 2.14636 7.53007 2.14636 8.58789V9.50724M7.0024 6.66946L8.99999 6.66669M2.14636 9.50724C2.14636 9.71911 2.31818 9.89093 2.53005 9.89093C2.64178 9.89093 2.73114 9.90581 2.80952 9.93252M2.14636 9.50724C2.14636 9.21747 2.51753 9.15286 2.78568 9.15713M2.80952 9.93252L2.78568 9.15713M13.1904 9.15713C13.1518 9.15792 13.1165 9.16073 13.0862 9.16476C12.7275 9.24695 12.5017 9.43706 12.3111 9.59741C12.1011 9.77413 11.9623 9.89093 11.6465 9.89093C11.3306 9.89093 11.1918 9.77413 10.9818 9.59741C10.731 9.3863 10.4188 9.12355 9.82299 9.12355C9.2272 9.12355 8.91511 9.3863 8.66434 9.59741C8.45431 9.77413 8.31561 9.89093 7.99979 9.89093C7.68394 9.89093 7.54524 9.77413 7.33525 9.59741C7.08447 9.3863 6.77235 9.12355 6.17652 9.12355C5.58073 9.12355 5.26864 9.3863 5.01787 9.59741C4.80787 9.77413 4.66913 9.89093 4.35336 9.89093C4.03759 9.89093 3.89881 9.77413 3.68889 9.59741C3.49839 9.43706 3.27252 9.24695 2.91389 9.1648C2.87595 9.16071 2.83238 9.15787 2.78568 9.15713" stroke="#1C1C1C" stroke-width="1.25" stroke-miterlimit="1.41421" stroke-linecap="round" stroke-linejoin="round"/>
<path d="M8.00006 3.75794C8.78082 3.75794 9.41601 3.12271 9.41601 2.34199C9.41601 1.68335 8.55713 0.609185 8.29392 0.295637C8.22102 0.20877 8.11344 0.158661 8.00006 0.158661C7.88668 0.158661 7.7791 0.208809 7.7062 0.295637C7.44299 0.609185 6.58411 1.68335 6.58411 2.34199C6.58411 3.12275 7.2193 3.75794 8.00006 3.75794ZM8.00018 1.1625C8.34902 1.63328 8.64864 2.14013 8.64864 2.34199C8.64864 2.69962 8.35769 2.99057 8.00006 2.99057C7.64243 2.99057 7.35148 2.69962 7.35148 2.34199C7.35148 2.14063 7.65125 1.63363 8.00018 1.1625Z" fill="#1C1C1C"/>
</svg>
