<svg width="16" height="16" viewBox="0 0 16 16" fill="none" xmlns="http://www.w3.org/2000/svg">
<path d="M13.3646 11.476V14.67H12.5679H3.3851L2.58843 14.67V13.073V11.476M13.3646 11.476C13.446 11.4483 13.5387 11.4328 13.6547 11.4328C13.8746 11.4328 14.053 11.2544 14.053 11.0345M13.3646 11.476V10.6711M14.053 11.0345V10.0802C14.053 8.98206 13.1596 8.08869 12.0615 8.08869H9.01206V5.86287C9.01206 5.64293 8.83371 5.46458 8.61377 5.46458H7.33923C7.11925 5.46458 6.94094 5.64293 6.94094 5.86287V8.08869M14.053 11.0345C13.9492 10.733 13.5986 10.6663 13.3646 10.6711M6.94094 8.08869H3.89149C2.7934 8.08869 1.90002 8.98206 1.90002 10.0802V11.0345M6.94094 8.08869L9.01458 8.08581M1.90002 11.0345C1.90002 11.2544 2.07838 11.4328 2.29832 11.4328C2.4143 11.4328 2.50706 11.4483 2.58843 11.476M1.90002 11.0345C1.90002 10.7337 2.28532 10.6666 2.56369 10.6711M2.58843 11.476L2.56369 10.6711M13.3646 10.6711C13.3245 10.6719 13.2878 10.6748 13.2564 10.679C12.884 10.7643 12.6495 10.9617 12.4518 11.1281C12.2337 11.3116 12.0897 11.4328 11.7618 11.4328C11.4339 11.4328 11.2898 11.3116 11.0718 11.1281C10.8115 10.909 10.4874 10.6362 9.86891 10.6362C9.25044 10.6362 8.92647 10.909 8.66614 11.1281C8.44812 11.3116 8.30414 11.4328 7.9763 11.4328C7.64843 11.4328 7.50444 11.3116 7.28646 11.1281C7.02613 10.909 6.70212 10.6362 6.08361 10.6362C5.46514 10.6362 5.14117 10.909 4.88085 11.1281C4.66286 11.3116 4.51884 11.4328 4.19104 11.4328C3.86325 11.4328 3.71919 11.3116 3.50128 11.1281C3.30353 10.9617 3.06905 10.7643 2.69677 10.679C2.65738 10.6748 2.61216 10.6718 2.56369 10.6711M7.97672 2.37206C8.33884 2.86076 8.64987 3.38691 8.64987 3.59645C8.64987 3.9677 8.34785 4.26972 7.9766 4.26972C7.60535 4.26972 7.30332 3.9677 7.30332 3.59645C7.30332 3.38742 7.61451 2.86112 7.97672 2.37206Z" stroke="#1C1C1C" stroke-width="1.25" stroke-miterlimit="1.41421" stroke-linecap="round" stroke-linejoin="round"/>
</svg>
