<svg width="56" height="56" viewBox="0 0 56 56" fill="none" xmlns="http://www.w3.org/2000/svg">
<mask id="mask0" style="mask-type:alpha" maskUnits="userSpaceOnUse" x="0" y="0" width="56" height="56">
<circle cx="28" cy="28" r="28" fill="#1C1C1C"/>
</mask>
<g mask="url(#mask0)">
<rect x="-4" y="-3" width="63" height="63" fill="#FF3636"/>
</g>
<g clip-path="url(#clip0)">
<path d="M42.0004 16.264C42.0004 19.7389 42.0004 23.2076 42.0004 26.7274C41.7468 26.351 41.5353 26.0243 41.3106 25.7053C39.4434 23.054 37.1061 20.8401 33.9456 19.4533C32.2648 18.7158 30.5869 18.285 28.9166 18.1566C26.2993 17.9555 23.7004 18.4971 21.1378 19.7656C18.1269 21.256 15.9126 23.4915 14.1487 26.1198C14.1134 26.1723 14.0762 26.2237 14.0001 26.3326C14.0001 22.8077 14.0001 19.3271 14.0001 15.8357C14.0001 15.2242 14.8078 14 16.3562 14C24.133 14 31.9069 14 39.7117 14C41.1254 14 42.0004 14.8567 42.0004 16.264Z" fill="white"/>
<path d="M41.9929 31.803C38.0007 27.9831 33.4499 25.557 27.986 25.6407C22.5914 25.7233 17.9685 27.9523 14.0017 31.817C14.0017 31.044 13.9947 30.3393 14.0089 29.6351C14.0112 29.5221 14.0937 29.3999 14.164 29.3007C17.0194 25.2707 20.7504 22.6273 25.5726 21.8451C29.8744 21.1474 33.8201 22.2063 37.3959 24.7474C39.1026 25.9603 40.5456 27.4594 41.7516 29.1961C41.8912 29.3972 41.9686 29.6807 41.9823 29.9314C42.0152 30.5345 41.9929 31.1408 41.9929 31.803Z" fill="white"/>
<path d="M41.9932 36.9089C32.6483 33.1808 23.3544 33.1804 14.0048 36.9051C14.0048 36.2596 13.9865 35.5937 14.0214 34.9304C14.0278 34.8078 14.2359 34.6777 14.3745 34.581C16.6613 32.9849 19.219 31.9406 21.969 31.2898C23.9244 30.8269 25.9185 30.5057 27.9246 30.5492C32.9073 30.657 37.5818 31.7835 41.6758 34.609C41.9117 34.7717 42.0102 34.9476 41.9995 35.2241C41.9782 35.7801 41.9932 36.3372 41.9932 36.9089Z" fill="white"/>
<path d="M39.9138 41.9996C32.0689 41.9996 24.2647 41.9996 16.424 41.9996C14.4719 41.9996 13.9785 41.0949 14.0007 40.3933C14.0034 40.3097 14.1838 39.6631 14.292 39.6396C15.4998 39.3767 16.7036 39.0832 17.9228 38.8882C22.0436 38.2288 26.1987 38.0976 30.3597 38.225C34.0754 38.3388 37.7698 38.6784 41.3896 39.6109C41.8354 39.7257 42.0424 39.8811 41.9932 40.3787C41.9419 40.8984 42.0003 41.9996 39.9138 41.9996Z" fill="white"/>
</g>
<defs>
<clipPath id="clip0">
<rect x="14" y="14" width="28.0004" height="27.9995" rx="5" fill="white"/>
</clipPath>
</defs>
</svg>
