<svg width="24" height="24" viewBox="0 0 24 24" fill="none" xmlns="http://www.w3.org/2000/svg">
<path d="M4.60821 8.04273V8C4.60821 6.89543 5.50364 6 6.60821 6H19.9999C21.1044 6 21.9999 6.89543 21.9999 8V14.2487C21.9999 15.3532 21.1044 16.2487 19.9999 16.2487H19.3893M4 18.9573H17.3917C18.4962 18.9573 19.3917 18.0619 19.3917 16.9573V10.7087C19.3917 9.60408 18.4962 8.70865 17.3917 8.70865H4C2.89543 8.70865 2 9.60408 2 10.7087V16.9573C2 18.0619 2.89543 18.9573 4 18.9573ZM12.7667 13.8328C12.7667 15.012 11.8397 15.9679 10.6962 15.9679C9.55277 15.9679 8.6258 15.012 8.6258 13.8328C8.6258 12.6536 9.55277 11.6977 10.6962 11.6977C11.8397 11.6977 12.7667 12.6536 12.7667 13.8328Z" stroke="#1C1C1C" stroke-width="1.25"/>
</svg>
