<svg width="24" height="24" viewBox="0 0 24 24" fill="none" xmlns="http://www.w3.org/2000/svg">
<g clip-path="url(#clip0_9330_45220)">
<path opacity="0.2" d="M4.41388 20.6734C5.35646 20.1078 5.54146 17.7671 5.51614 16.6674C5.85565 16.9816 7.14736 17.7043 9.59807 18.0813C5.82775 21.4746 4.57098 21.2232 4.41388 20.6734Z" fill="#2B2A29" fill-opacity="0.13"/>
<path opacity="0.45" d="M14.3109 3H9.59805C5.95405 3 3 5.93911 3 9.5647V11.4403C3 13.5325 3.98374 15.3961 5.51612 16.5983C5.54145 17.6924 5.35644 20.0213 4.41386 20.584C4.57097 21.131 5.82774 21.3811 9.59805 18.005H14.3109C17.9549 18.005 20.909 15.0659 20.909 11.4403V9.5647C20.909 5.93911 17.9549 3 14.3109 3Z" fill="url(#paint0_radial_9330_45220)"/>
<path opacity="0.3" d="M6.4628 19.9824C5.54271 20.6253 4.98281 20.7922 4.67847 20.3566C4.94917 20.6699 5.22132 17.2901 6.37851 18.0289C6.2217 18.2593 7.34824 17.5785 7.65258 18.0141C7.95692 18.4497 7.38289 19.3396 6.4628 19.9824Z" fill="url(#paint1_radial_9330_45220)"/>
<path d="M14.3109 3H9.59805C5.95405 3 3 5.93928 3 9.56506V11.4408C3 13.5331 3.98374 15.3968 5.51612 16.599C5.54145 17.6933 5.35644 20.0223 4.41386 20.585C4.57097 21.1321 5.82774 21.3822 9.59805 18.0059H14.3109C17.9549 18.0059 20.909 15.0666 20.909 11.4408V9.56506C20.909 5.93928 17.9549 3 14.3109 3Z" fill="#F6F6F7" fill-opacity="0.6"/>
<path d="M8.89114 11.4833C9.28157 11.4833 9.59807 11.1668 9.59807 10.7763C9.59807 10.3859 9.28157 10.0694 8.89114 10.0694C8.50071 10.0694 8.1842 10.3859 8.1842 10.7763C8.1842 11.1668 8.50071 11.4833 8.89114 11.4833Z" fill="#3D3D45"/>
<path d="M12.1901 11.4833C12.5806 11.4833 12.8971 11.1668 12.8971 10.7763C12.8971 10.3859 12.5806 10.0694 12.1901 10.0694C11.7997 10.0694 11.4832 10.3859 11.4832 10.7763C11.4832 11.1668 11.7997 11.4833 12.1901 11.4833Z" fill="#3D3D45"/>
<path d="M15.4892 11.4833C15.8796 11.4833 16.1962 11.1668 16.1962 10.7763C16.1962 10.3859 15.8796 10.0694 15.4892 10.0694C15.0988 10.0694 14.7823 10.3859 14.7823 10.7763C14.7823 11.1668 15.0988 11.4833 15.4892 11.4833Z" fill="#3D3D45"/>
</g>
<defs>
<radialGradient id="paint0_radial_9330_45220" cx="0" cy="0" r="1" gradientUnits="userSpaceOnUse" gradientTransform="translate(11.9545 10.5025) rotate(-0.0150523) scale(9.5455 8.04826)">
<stop stop-color="white"/>
<stop offset="0.619792" stop-color="white" stop-opacity="0.36"/>
<stop offset="0.692708" stop-color="#252525" stop-opacity="0.14"/>
<stop offset="0.755208" stop-color="#212121" stop-opacity="0.4"/>
<stop offset="0.838542" stop-color="#1C1C1C" stop-opacity="0.63"/>
<stop offset="1"/>
</radialGradient>
<radialGradient id="paint1_radial_9330_45220" cx="0" cy="0" r="1" gradientUnits="userSpaceOnUse" gradientTransform="translate(5.98666 19.1778) rotate(149.004) scale(1.48343 0.86148)">
<stop stop-color="white"/>
<stop offset="1" stop-color="white" stop-opacity="0.04"/>
</radialGradient>
<clipPath id="clip0_9330_45220">
<rect width="18" height="18" fill="white" transform="translate(3 3)"/>
</clipPath>
</defs>
</svg>
