<svg width="24" height="24" viewBox="0 0 24 24" fill="none" xmlns="http://www.w3.org/2000/svg">
<path d="M17.0001 21V19C17.0001 17.9391 16.5786 16.9217 15.8285 16.1716C15.0783 15.4214 14.0609 15 13.0001 15H5.00006C3.9392 15 2.92178 15.4214 2.17163 16.1716C1.42149 16.9217 1.00006 17.9391 1.00006 19V21M23.0001 21V19C22.9994 18.1137 22.7044 17.2528 22.1614 16.5523C21.6184 15.8519 20.8582 15.3516 20.0001 15.13M16.0001 3.13C16.8605 3.3503 17.6231 3.8507 18.1677 4.55231C18.7123 5.25392 19.0079 6.11683 19.0079 7.005C19.0079 7.89317 18.7123 8.75608 18.1677 9.45769C17.6231 10.1593 16.8605 10.6597 16.0001 10.88M13.0001 7C13.0001 9.20914 11.2092 11 9.00006 11C6.79092 11 5.00006 9.20914 5.00006 7C5.00006 4.79086 6.79092 3 9.00006 3C11.2092 3 13.0001 4.79086 13.0001 7Z" stroke="#1C1C1C" stroke-width="1.25" stroke-linecap="round" stroke-linejoin="round"/>
</svg>
