<svg width="56" height="32" viewBox="0 0 56 32" fill="none" xmlns="http://www.w3.org/2000/svg">
<g clip-path="url(#clip0_15542_16575)">
<path d="M56.1139 13.4852V21.3086H53.3337V15.8206H50.6567V21.3086H47.8765V13.4846H56.1139V13.4852Z" fill="#1C1C1C"/>
<path fill-rule="evenodd" clip-rule="evenodd" d="M42.1668 21.5884C44.6557 21.5884 46.5039 20.0551 46.5039 17.7306C46.5039 15.4807 45.1403 14.0199 42.8614 14.0199C41.8096 14.0199 40.9418 14.3919 40.2881 15.0338C40.4442 13.7071 41.5607 12.7386 42.79 12.7386C43.0737 12.7386 45.2096 12.734 45.2096 12.734L46.4173 10.4116C46.4173 10.4116 43.7358 10.473 42.4893 10.473C39.6411 10.5228 37.7173 13.1242 37.7173 16.2836C37.7173 19.9644 39.5936 21.5884 42.1668 21.5884ZM42.182 16.077C43.1061 16.077 43.7467 16.6871 43.7467 17.7303C43.7467 18.6692 43.1774 19.4428 42.182 19.445C41.2297 19.445 40.5891 18.7282 40.5891 17.7463C40.5891 16.7028 41.2297 16.077 42.182 16.077Z" fill="#1C1C1C"/>
<path d="M35.4543 18.6895C35.4543 18.6895 34.7977 19.0698 33.8171 19.1418C32.6897 19.1754 31.6852 18.4599 31.6852 17.1887C31.6852 15.9487 32.5716 15.2381 33.7887 15.2381C34.5349 15.2381 35.5222 15.7578 35.5222 15.7578C35.5222 15.7578 36.2446 14.4258 36.6188 13.7597C35.9335 13.2378 35.0209 12.9517 33.9593 12.9517C31.2802 12.9517 29.2051 14.7069 29.2051 17.173C29.2051 19.6706 31.1554 21.385 33.9593 21.3333C34.743 21.3039 35.8242 21.0274 36.4832 20.6021L35.4543 18.6895Z" fill="#1C1C1C"/>
<path d="M0 6.96533L3.85667 13.892V18.1171L0.00451166 25.0301L0 6.96533Z" fill="#5B57A2"/>
<path d="M14.8081 11.3714L18.4219 9.14585L25.8179 9.13892L14.8081 15.916V11.3714Z" fill="#D90751"/>
<path d="M14.7876 6.92453L14.8081 16.0952L10.9424 13.7085V0L14.7879 6.92453H14.7876Z" fill="#FAB718"/>
<path d="M25.8178 9.13893L18.4217 9.14587L14.7876 6.92453L10.9424 0L25.8176 9.13893H25.8178Z" fill="#ED6F26"/>
<path d="M14.8081 25.0685V20.6192L10.9424 18.2778L10.9445 32L14.8081 25.0685Z" fill="#63B22F"/>
<path d="M18.4129 22.8632L3.8564 13.892L0 6.96533L25.8022 22.8541L18.4126 22.8632H18.4129Z" fill="#1487C9"/>
<path d="M10.9448 32.0001L14.8079 25.0686L18.4127 22.8633L25.802 22.8542L10.9448 32.0001Z" fill="#017F36"/>
<path d="M0.00439453 25.0302L10.9738 18.2782L7.28594 16.0046L3.85655 18.1172L0.00439453 25.0302Z" fill="#984995"/>
</g>
<defs>
<clipPath id="clip0_15542_16575">
<rect width="56" height="32" fill="white"/>
</clipPath>
</defs>
</svg>
