<svg width="40" height="40" viewBox="0 0 40 40" fill="none" xmlns="http://www.w3.org/2000/svg">
<path d="M36 20.0693C36 20.5526 36.3918 20.9443 36.875 20.9443C37.3583 20.9443 37.75 20.5526 37.75 20.0693H36ZM26.2383 3.3805C25.7861 3.21004 25.2814 3.43843 25.1109 3.89062C24.9405 4.3428 25.1688 4.84756 25.621 5.01802L26.2383 3.3805ZM19.787 3.99993C20.2703 3.99361 20.6568 3.59677 20.6505 3.11356C20.6442 2.63036 20.2474 2.24376 19.7642 2.25007L19.787 3.99993ZM5.54058 9.73032C5.26066 10.1242 5.35307 10.6705 5.74699 10.9504C6.14091 11.2303 6.68717 11.1379 6.96709 10.744L5.54058 9.73032ZM4.61608 15.6371C4.74855 15.1724 4.47919 14.6883 4.01445 14.5558C3.54971 14.4233 3.06558 14.6927 2.93312 15.1574L4.61608 15.6371ZM3.24528 25.9671C3.40459 26.4234 3.90359 26.6641 4.35983 26.5048C4.81606 26.3454 5.05676 25.8465 4.89745 25.3902L3.24528 25.9671ZM30.0797 17.8256C30.1834 18.2976 30.65 18.5962 31.122 18.4926C31.594 18.389 31.8927 17.9224 31.789 17.4504L30.0797 17.8256ZM28.0528 11.0409C27.6935 10.7178 27.1403 10.7471 26.8171 11.1064C26.4939 11.4657 26.5232 12.0189 26.8825 12.3421L28.0528 11.0409ZM22.7003 10.0596C23.1666 10.1862 23.6473 9.91082 23.774 9.44445C23.9006 8.97808 23.6252 8.49737 23.1588 8.37075L22.7003 10.0596ZM8.80355 20.0696L9.67093 20.1848L9.67855 20.1275V20.0696H8.80355ZM8.19708 22.7638C8.27138 23.2414 8.7187 23.5682 9.19621 23.4939C9.67371 23.4196 10.0006 22.9723 9.92627 22.4948L8.19708 22.7638ZM24.7084 19.2815C24.7867 19.7584 25.2368 20.0814 25.7136 20.0031C26.1905 19.9248 26.5136 19.4747 26.4353 18.9979L24.7084 19.2815ZM20.0007 13.524C19.5175 13.524 19.1257 13.9158 19.1257 14.399C19.1257 14.8823 19.5175 15.274 20.0007 15.274V13.524ZM16.3655 16.9633C16.6778 16.5945 16.6321 16.0424 16.2634 15.73C15.8946 15.4177 15.3425 15.4634 15.0302 15.8321L16.3655 16.9633ZM14.3541 20.0695H13.4791V20.0873L13.4798 20.1051L14.3541 20.0695ZM13.9169 22.8576C14.0788 23.313 14.5792 23.5508 15.0345 23.3889C15.4898 23.2269 15.7277 22.7265 15.5657 22.2712L13.9169 22.8576ZM30.543 32.4459C30.4661 32.923 30.7905 33.3721 31.2676 33.449C31.7447 33.526 32.1938 33.2016 32.2707 32.7245L30.543 32.4459ZM31.7916 17.4505C31.6846 16.9792 31.2158 16.6839 30.7446 16.7909C30.2733 16.8979 29.978 17.3667 30.085 17.8379L31.7916 17.4505ZM23.5972 36.0977C23.4381 36.554 23.6791 37.0529 24.1354 37.212C24.5917 37.3711 25.0906 37.1302 25.2497 36.6739L23.5972 36.0977ZM26.2282 25.6748H25.3532H26.2282ZM26.4338 18.9889C26.3376 18.5154 25.8757 18.2095 25.4021 18.3057C24.9286 18.4019 24.6227 18.8638 24.7189 19.3374L26.4338 18.9889ZM17.4632 36.5506C17.284 36.9994 17.5026 37.5085 17.9514 37.6877C18.4002 37.8668 18.9093 37.6482 19.0884 37.1994L17.4632 36.5506ZM19.8506 35.1827C20.0051 34.7248 19.759 34.2284 19.3011 34.074C18.8432 33.9196 18.3468 34.1656 18.1924 34.6236L19.8506 35.1827ZM19.3716 29.7074C19.3014 30.1856 19.6321 30.6301 20.1102 30.7003C20.5884 30.7704 21.0329 30.4397 21.1031 29.9616L19.3716 29.7074ZM20.9039 19.9387C20.8146 19.4638 20.3572 19.1512 19.8823 19.2405C19.4073 19.3298 19.0948 19.7872 19.1841 20.2622L20.9039 19.9387ZM11.9606 34.8682C11.7412 35.2988 11.9124 35.8257 12.343 36.045C12.7736 36.2644 13.3005 36.0932 13.5199 35.6626L11.9606 34.8682ZM15.5792 22.3963C15.4975 21.92 15.0451 21.6002 14.5688 21.6819C14.0926 21.7636 13.7727 22.216 13.8544 22.6923L15.5792 22.3963ZM7.3792 31.6696C7.19688 32.1171 7.41188 32.6277 7.85942 32.81C8.30695 32.9924 8.81755 32.7773 8.99987 32.3298L7.3792 31.6696ZM9.91431 22.4306C9.81784 21.9571 9.35577 21.6515 8.88225 21.7479C8.40872 21.8444 8.10306 22.3065 8.19953 22.78L9.91431 22.4306ZM37.75 20.0693C37.75 12.4317 32.9642 5.91592 26.2383 3.3805L25.621 5.01802C31.6843 7.30364 36 13.1801 36 20.0693H37.75ZM19.7642 2.25007C13.895 2.32679 8.71457 5.26375 5.54058 9.73032L6.96709 10.744C9.83224 6.71205 14.5014 4.06902 19.787 3.99993L19.7642 2.25007ZM2.93312 15.1574C2.48805 16.7189 2.25 18.3671 2.25 20.0696H4C4 18.5309 4.21506 17.044 4.61608 15.6371L2.93312 15.1574ZM2.25 20.0696C2.25 22.135 2.60031 24.1201 3.24528 25.9671L4.89745 25.3902C4.31638 23.7261 4 21.9359 4 20.0696H2.25ZM31.789 17.4504C31.2354 14.9284 29.9002 12.7025 28.0528 11.0409L26.8825 12.3421C28.4648 13.7652 29.6066 15.6701 30.0797 17.8256L31.789 17.4504ZM23.1588 8.37075C22.151 8.09713 21.0917 7.95139 19.9999 7.95139V9.70139C20.9354 9.70139 21.8405 9.82618 22.7003 10.0596L23.1588 8.37075ZM19.9999 7.95139C13.3296 7.95139 7.92855 13.3804 7.92855 20.0696H9.67855C9.67855 14.34 14.303 9.70139 19.9999 9.70139V7.95139ZM8.80355 20.0696C7.93616 19.9545 7.93609 19.955 7.93602 19.9555C7.936 19.9557 7.93593 19.9562 7.93589 19.9565C7.9358 19.9572 7.93571 19.9579 7.93562 19.9586C7.93544 19.96 7.93526 19.9614 7.93508 19.9629C7.93472 19.9658 7.93437 19.9687 7.93402 19.9718C7.93333 19.9779 7.93264 19.9844 7.93198 19.9912C7.93065 20.0049 7.9294 20.0202 7.92827 20.0374C7.92603 20.0717 7.92426 20.1142 7.92358 20.1666C7.92223 20.2712 7.92516 20.4194 7.93838 20.6273C7.96475 21.0422 8.03307 21.7098 8.19708 22.7638L9.92627 22.4948C9.76763 21.4752 9.70688 20.8629 9.68485 20.5163C9.67387 20.3435 9.67277 20.2407 9.67343 20.1893C9.67376 20.1638 9.67451 20.1521 9.67454 20.1517C9.67455 20.1515 9.67436 20.1544 9.67382 20.16C9.67355 20.1627 9.67319 20.1662 9.67272 20.1704C9.67248 20.1724 9.67222 20.1747 9.67192 20.1771C9.67177 20.1783 9.67162 20.1795 9.67145 20.1808C9.67137 20.1815 9.67129 20.1821 9.6712 20.1828C9.67116 20.1831 9.67109 20.1836 9.67107 20.1838C9.671 20.1843 9.67093 20.1848 8.80355 20.0696ZM26.4353 18.9979C25.9257 15.8952 23.2421 13.524 20.0007 13.524V15.274C22.3659 15.274 24.3346 17.0055 24.7084 19.2815L26.4353 18.9979ZM15.0302 15.8321C14.0631 16.9738 13.4791 18.4546 13.4791 20.0695H15.2291C15.2291 18.8834 15.6566 17.8002 16.3655 16.9633L15.0302 15.8321ZM14.3541 20.0695C13.4798 20.1051 13.4798 20.1052 13.4799 20.1053C13.4799 20.1053 13.4799 20.1054 13.4799 20.1055C13.4799 20.1056 13.4799 20.1058 13.4799 20.106C13.4799 20.1064 13.4799 20.1069 13.4799 20.1075C13.48 20.1087 13.4801 20.1102 13.4801 20.1122C13.4803 20.1161 13.4806 20.1214 13.4809 20.1283C13.4815 20.1419 13.4825 20.1613 13.4838 20.1858C13.4864 20.2349 13.4904 20.3049 13.4963 20.3912C13.508 20.5634 13.5271 20.8028 13.557 21.073C13.6145 21.5926 13.7194 22.3023 13.9169 22.8576L15.5657 22.2712C15.4406 21.9194 15.3519 21.3816 15.2964 20.8806C15.2698 20.6404 15.2527 20.4262 15.2422 20.2724C15.237 20.1957 15.2335 20.1345 15.2313 20.0932C15.2302 20.0726 15.2295 20.057 15.229 20.0469C15.2287 20.0419 15.2286 20.0383 15.2285 20.0361C15.2284 20.035 15.2284 20.0343 15.2284 20.0339C15.2284 20.0337 15.2284 20.0337 15.2284 20.0337C15.2284 20.0337 15.2284 20.0337 15.2284 20.0338C15.2284 20.0338 15.2284 20.0339 15.2284 20.0339C15.2284 20.0339 15.2284 20.034 14.3541 20.0695ZM32.2707 32.7245C32.6068 30.6399 32.7815 28.5016 32.7815 26.3229H31.0315C31.0315 28.4079 30.8643 30.4531 30.543 32.4459L32.2707 32.7245ZM32.7815 26.3229C32.7815 23.274 32.4395 20.3042 31.7916 17.4505L30.085 17.8379C30.7042 20.5654 31.0315 23.4052 31.0315 26.3229H32.7815ZM25.2497 36.6739C26.4506 33.2296 27.1032 29.5278 27.1032 25.6748H25.3532C25.3532 29.329 24.7344 32.8363 23.5972 36.0977L25.2497 36.6739ZM27.1032 25.6748C27.1032 23.3856 26.8728 21.1495 26.4338 18.9889L24.7189 19.3374C25.1347 21.3839 25.3532 23.5033 25.3532 25.6748H27.1032ZM18.2758 36.875C19.0884 37.1994 19.0884 37.1994 19.0885 37.1994C19.0885 37.1994 19.0885 37.1994 19.0885 37.1993C19.0885 37.1993 19.0885 37.1992 19.0886 37.1991C19.0886 37.1989 19.0888 37.1987 19.0889 37.1983C19.0892 37.1976 19.0896 37.1966 19.0901 37.1953C19.0911 37.1927 19.0926 37.1889 19.0946 37.1839C19.0986 37.1739 19.1044 37.1593 19.1118 37.1406C19.1267 37.1031 19.1482 37.0489 19.1746 36.9819C19.2274 36.8479 19.3003 36.6622 19.3803 36.4552C19.5384 36.0463 19.7311 35.5371 19.8506 35.1827L18.1924 34.6236C18.0865 34.9377 17.9064 35.4145 17.748 35.8243C17.6697 36.0267 17.5984 36.2086 17.5466 36.34C17.5207 36.4056 17.4998 36.4585 17.4853 36.4949C17.4781 36.513 17.4725 36.5271 17.4688 36.5366C17.4669 36.5413 17.4655 36.5449 17.4645 36.5472C17.464 36.5484 17.4637 36.5493 17.4635 36.5499C17.4633 36.5501 17.4633 36.5503 17.4632 36.5505C17.4632 36.5505 17.4632 36.5506 17.4632 36.5506C17.4632 36.5506 17.4632 36.5506 17.4632 36.5506C17.4632 36.5506 17.4632 36.5506 18.2758 36.875ZM21.1031 29.9616C21.3147 28.5198 21.4243 27.045 21.4243 25.5451H19.6743C19.6743 26.9597 19.571 28.3495 19.3716 29.7074L21.1031 29.9616ZM21.4243 25.5451C21.4243 23.6299 21.2456 21.7557 20.9039 19.9387L19.1841 20.2622C19.5058 21.973 19.6743 23.7389 19.6743 25.5451H21.4243ZM13.5199 35.6626C14.9998 32.7578 15.8738 29.3613 15.8738 25.869H14.1238C14.1238 29.0747 13.32 32.1999 11.9606 34.8682L13.5199 35.6626ZM15.8738 25.869C15.8738 24.6857 15.773 23.5253 15.5792 22.3963L13.8544 22.6923C14.0315 23.724 14.1238 24.7853 14.1238 25.869H15.8738ZM8.99987 32.3298C9.81222 30.3358 10.2595 28.154 10.2595 25.8695H8.50952C8.50952 27.9239 8.10756 29.8817 7.3792 31.6696L8.99987 32.3298ZM10.2595 25.8695C10.2595 24.6924 10.1408 23.5422 9.91431 22.4306L8.19953 22.78C8.40268 23.7772 8.50952 24.8104 8.50952 25.8695H10.2595Z" fill="#1C1C1C"/>
</svg>
