<svg width="48" height="48" viewBox="0 0 48 48" fill="none" xmlns="http://www.w3.org/2000/svg">
<path d="M45.282 16.064H27.887C26.9381 16.064 26.1689 16.8332 26.1689 17.782V28.7344C26.1689 29.6833 26.9381 30.4524 27.887 30.4524H45.282C46.2308 30.4524 47 29.6833 47 28.7344V17.782C47 16.8332 46.2308 16.064 45.282 16.064Z" stroke="#FF3636" stroke-width="1.25" stroke-linecap="round" stroke-linejoin="round"/>
<path d="M36.5844 11.5927V10.132C36.5844 8.21727 35.0322 6.66504 33.1174 6.66504H15.7824C13.8677 6.66504 12.3154 8.21727 12.3154 10.132V37.868C12.3154 39.7828 13.8677 41.335 15.7824 41.335H33.1174C35.0322 41.335 36.5844 39.7828 36.5844 37.868V35.3565" stroke="white" stroke-width="1.25" stroke-linecap="round" stroke-linejoin="round"/>
<path d="M26.3141 36.7478H22.5857" stroke="#E0E0E0" stroke-width="1.25" stroke-linecap="round" stroke-linejoin="round"/>
<path d="M43.2126 26.8196H29.9561" stroke="#E0E0E0" stroke-width="1.25" stroke-linecap="round" stroke-linejoin="round"/>
</svg>
