<svg width="24" height="24" viewBox="0 0 24 24" fill="none" xmlns="http://www.w3.org/2000/svg">
<path d="M13.73 20.9999C13.5542 21.303 13.3018 21.5545 12.9982 21.7294C12.6946 21.9043 12.3504 21.9963 12 21.9963C11.6496 21.9963 11.3054 21.9043 11.0018 21.7294C10.6982 21.5545 10.4458 21.303 10.27 20.9999M18 7.99988C18 6.40858 17.3679 4.88246 16.2426 3.75724C15.1174 2.63202 13.5913 1.99988 12 1.99988C10.4087 1.99988 8.88258 2.63202 7.75736 3.75724C6.63214 4.88246 6 6.40858 6 7.99988C6 14.9999 3 16.9999 3 16.9999H21C21 16.9999 18 14.9999 18 7.99988Z" stroke="#1C1C1C" stroke-width="1.25" stroke-linecap="round" stroke-linejoin="round"/>
</svg>
