<svg width="32" height="32" viewBox="0 0 32 32" fill="none" xmlns="http://www.w3.org/2000/svg">
<path d="M26.3694 15.0044V7.90112L24.1843 8.35664C23.2438 8.55272 22.3921 9.07122 21.786 9.81665C21.18 10.5621 20.8462 11.5017 20.8462 12.4624V13.3874H18.9819V11.9684H19.8723V10.1407C19.8723 8.84159 18.892 7.76773 17.6324 7.61831V6H16.3803V7.76402L15.6847 8.61955L14.9891 7.76402V6H13.737V7.61836C12.4774 7.76777 11.4971 8.84163 11.4971 10.1408V11.9684H12.3875V13.3875H10.5232V12.4625C10.5232 11.5018 10.1894 10.5621 9.58336 9.81669C8.9773 9.07122 8.12557 8.55272 7.18506 8.35664L5 7.90112V15.0045C5 17.9945 7.43256 20.4271 10.4227 20.4271H10.763C10.2403 21.0435 9.92414 21.8401 9.92414 22.7096V23.1818H8.28888L6.43396 19.9357L5.34684 20.5569L8.45721 26L9.54434 25.3788L9.00438 24.4339H11.1763V22.7096C11.1763 21.6363 11.9211 20.7342 12.9209 20.4917L13.5829 20.933L12.407 23.9475L12.7442 24.2365C13.5626 24.938 14.6069 25.3243 15.6847 25.3243C16.7625 25.3243 17.8068 24.938 18.6252 24.2365L18.9624 23.9475L17.7865 20.933L18.4485 20.4917C19.4483 20.7342 20.1931 21.6363 20.1931 22.7096V24.4339H24.4078C25.4894 24.4339 26.3694 23.5539 26.3694 22.4722C26.3694 21.3906 25.4894 20.5106 24.4078 20.5106C23.3261 20.5106 22.4461 21.3906 22.4461 22.4722C22.4461 22.7224 22.4937 22.9615 22.5795 23.1817H21.4453V22.7096C21.4453 21.8401 21.1291 21.0434 20.6065 20.4271H20.9468C23.9368 20.4271 26.3694 17.9945 26.3694 15.0044ZM23.6982 22.4722C23.6982 22.081 24.0165 21.7627 24.4078 21.7627C24.799 21.7627 25.1173 22.081 25.1173 22.4722C25.1173 22.8635 24.799 23.1817 24.4078 23.1817C24.0165 23.1817 23.6982 22.8635 23.6982 22.4722ZM15.6847 24.0722C15.0513 24.0722 14.4341 23.8877 13.9075 23.5463L15.1153 20.4498L13.2031 19.175H10.4227C8.12298 19.175 6.25211 17.3041 6.25211 15.0044V9.44118L6.92946 9.58242C8.2863 9.86527 9.27108 11.0765 9.27108 12.4625V14.6396H13.6396V10.7163H12.7492V10.1408C12.7492 9.43016 13.3273 8.85202 14.038 8.85202H14.2599L15.6847 10.6044L17.1095 8.85202H17.3314C18.042 8.85202 18.6202 9.43016 18.6202 10.1408V10.7163H17.7298V14.6396H22.0983V12.4625C22.0983 11.0765 23.0831 9.86527 24.4399 9.58242L25.1173 9.44118V15.0044C25.1173 17.3041 23.2464 19.175 20.9467 19.175H18.1663L16.2541 20.4498L17.4619 23.5463C16.9353 23.8876 16.3181 24.0722 15.6847 24.0722Z" fill="#1C1C1C"/>
</svg>
