<svg width="12" height="12" viewBox="0 0 12 12" fill="none" xmlns="http://www.w3.org/2000/svg">
<g clip-path="url(#clip0_5211_21620)">
<path d="M7.06 7.06003C6.92268 7.20741 6.75707 7.32561 6.57308 7.4076C6.38908 7.48958 6.19045 7.53366 5.98905 7.53722C5.78764 7.54077 5.58758 7.50372 5.40081 7.42828C5.21403 7.35284 5.04436 7.24055 4.90192 7.09811C4.75949 6.95567 4.6472 6.78601 4.57175 6.59923C4.49631 6.41245 4.45926 6.21239 4.46282 6.01099C4.46637 5.80958 4.51045 5.61096 4.59244 5.42696C4.67442 5.24296 4.79263 5.07736 4.94 4.94003M0.5 0.500031L11.5 11.5M8.97 8.97003C8.1153 9.62154 7.07455 9.98247 6 10C2.5 10 0.5 6.00003 0.5 6.00003C1.12194 4.84098 1.98457 3.82834 3.03 3.03003L8.97 8.97003ZM4.95 2.12003C5.29417 2.03947 5.64653 1.9992 6 2.00003C9.5 2.00003 11.5 6.00003 11.5 6.00003C11.1965 6.56784 10.8345 7.1024 10.42 7.59503L4.95 2.12003Z" stroke="#1C1C1C" stroke-width="1.25" stroke-linecap="round" stroke-linejoin="round"/>
</g>
<defs>
<clipPath id="clip0_5211_21620">
<rect width="12" height="12" fill="white"/>
</clipPath>
</defs>
</svg>
