<svg width="16" height="16" viewBox="0 0 16 16" fill="none" xmlns="http://www.w3.org/2000/svg">
<path d="M11.2084 1H13.5417C14.3455 1 15 1.65392 15 2.45833V4.79167" stroke="#1C1C1C" stroke-width="1.25" stroke-linecap="round"/>
<path d="M11.2084 15H13.5417C14.3455 15 15 14.3461 15 13.5417V11.2083" stroke="#1C1C1C" stroke-width="1.25" stroke-linecap="round"/>
<path d="M4.79166 15H2.45833C1.6545 15 1 14.3461 1 13.5417V11.2083" stroke="#1C1C1C" stroke-width="1.25" stroke-linecap="round"/>
<path d="M1 4.79167V2.45833C1 1.65392 1.6545 1 2.45833 1H4.79167" stroke="#1C1C1C" stroke-width="1.25" stroke-linecap="round"/>
<path d="M3.91663 10.3333V11.2083C3.91663 11.6908 4.30921 12.0833 4.79163 12.0833H11.2083C11.6907 12.0833 12.0833 11.6908 12.0833 11.2083V10.3333" stroke="#1C1C1C" stroke-width="1.25" stroke-linecap="round"/>
<path d="M3.91663 7.12499V4.79166C3.91663 4.30924 4.30921 3.91666 4.79163 3.91666H11.2083C11.6907 3.91666 12.0833 4.30924 12.0833 4.79166V7.12499" stroke="#1C1C1C" stroke-width="1.25" stroke-linecap="round"/>
<path d="M3.04163 9.16669H12.9583" stroke="#1C1C1C" stroke-width="1.25" stroke-linecap="round"/>
</svg>
