<svg width="16" height="16" viewBox="0 0 16 16" fill="none" xmlns="http://www.w3.org/2000/svg">
<path d="M14.7083 5.08333C14.5473 5.08333 14.4166 4.95267 14.4166 4.79167V2.45833C14.4166 1.97592 14.024 1.58333 13.5416 1.58333H11.2083C11.0473 1.58333 10.9166 1.45267 10.9166 1.29167C10.9166 1.13067 11.0473 1 11.2083 1H13.5416C14.3455 1 15 1.65392 15 2.45833V4.79167C15 4.95267 14.8693 5.08333 14.7083 5.08333Z" fill="#1C1C1C" stroke="#1C1C1C" stroke-width="0.35"/>
<path d="M13.5416 15H11.2083C11.0473 15 10.9166 14.8693 10.9166 14.7083C10.9166 14.5473 11.0473 14.4167 11.2083 14.4167H13.5416C14.024 14.4167 14.4166 14.0241 14.4166 13.5417V11.2083C14.4166 11.0473 14.5473 10.9167 14.7083 10.9167C14.8693 10.9167 15 11.0473 15 11.2083V13.5417C15 14.3461 14.3455 15 13.5416 15Z" fill="#1C1C1C" stroke="#1C1C1C" stroke-width="0.35"/>
<path d="M4.79166 15H2.45833C1.6545 15 1 14.3461 1 13.5417V11.2083C1 11.0473 1.13067 10.9167 1.29167 10.9167C1.45267 10.9167 1.58333 11.0473 1.58333 11.2083V13.5417C1.58333 14.0241 1.97592 14.4167 2.45833 14.4167H4.79166C4.95266 14.4167 5.08333 14.5473 5.08333 14.7083C5.08333 14.8693 4.95266 15 4.79166 15Z" fill="#1C1C1C" stroke="#1C1C1C" stroke-width="0.35"/>
<path d="M1.29167 5.08333C1.13067 5.08333 1 4.95267 1 4.79167V2.45833C1 1.65392 1.6545 1 2.45833 1H4.79167C4.95267 1 5.08333 1.13067 5.08333 1.29167C5.08333 1.45267 4.95267 1.58333 4.79167 1.58333H2.45833C1.97592 1.58333 1.58333 1.97592 1.58333 2.45833V4.79167C1.58333 4.95267 1.45267 5.08333 1.29167 5.08333Z" fill="#1C1C1C" stroke="#1C1C1C" stroke-width="0.35"/>
<path d="M11.2083 12.0833H4.79163C4.30921 12.0833 3.91663 11.6907 3.91663 11.2083V9.45832C3.91663 9.29732 4.04729 9.16666 4.20829 9.16666C4.36929 9.16666 4.49996 9.29732 4.49996 9.45832V11.2083C4.49996 11.3687 4.63063 11.5 4.79163 11.5H11.2083C11.3693 11.5 11.5 11.3687 11.5 11.2083V9.45832C11.5 9.29732 11.6306 9.16666 11.7916 9.16666C11.9526 9.16666 12.0833 9.29732 12.0833 9.45832V11.2083C12.0833 11.6907 11.6907 12.0833 11.2083 12.0833Z" fill="#1C1C1C" stroke="#1C1C1C" stroke-width="0.35"/>
<path d="M11.7916 7.41666C11.6306 7.41666 11.5 7.28599 11.5 7.12499V4.79166C11.5 4.63124 11.3693 4.49999 11.2083 4.49999H4.79163C4.63063 4.49999 4.49996 4.63124 4.49996 4.79166V7.12499C4.49996 7.28599 4.36929 7.41666 4.20829 7.41666C4.04729 7.41666 3.91663 7.28599 3.91663 7.12499V4.79166C3.91663 4.30924 4.30921 3.91666 4.79163 3.91666H11.2083C11.6907 3.91666 12.0833 4.30924 12.0833 4.79166V7.12499C12.0833 7.28599 11.9526 7.41666 11.7916 7.41666Z" fill="#1C1C1C" stroke="#1C1C1C" stroke-width="0.35"/>
<path d="M12.9583 9.74999H3.04167C2.88067 9.74999 2.75 9.61932 2.75 9.45832C2.75 9.29732 2.88067 9.16666 3.04167 9.16666H12.9583C13.1193 9.16666 13.25 9.29732 13.25 9.45832C13.25 9.61932 13.1193 9.74999 12.9583 9.74999Z" fill="#1C1C1C" stroke="#1C1C1C" stroke-width="0.35"/>
</svg>
