<svg width="16" height="16" viewBox="0 0 16 16" fill="none" xmlns="http://www.w3.org/2000/svg">
<path d="M7.15592 6.55257V11.1356M4.8644 8.84409H9.44744M3.14576 3.68817H11.1661C11.7989 3.68817 12.3118 4.20115 12.3118 4.83393V12.8542C12.3118 13.487 11.7989 14 11.1661 14H3.14576C2.51297 14 2 13.487 2 12.8542V4.83393C2 4.20115 2.51297 3.68817 3.14576 3.68817Z" stroke="#1C1C1C" stroke-width="1.25" stroke-linecap="round" stroke-linejoin="round"/>
<path d="M3.05042 3.93347V3.93347C3.05042 2.86564 3.91606 2 4.98388 2H11.0067C12.6636 2 14.0067 3.34315 14.0067 5V11.0229C14.0067 12.0907 13.1411 12.9563 12.0733 12.9563V12.9563" stroke="#1C1C1C" stroke-width="1.25"/>
</svg>
