<svg width="16" height="16" viewBox="0 0 16 16" fill="none" xmlns="http://www.w3.org/2000/svg">
<path d="M3.14512 3.68724H11.1609C11.7934 3.68724 12.306 4.19993 12.306 4.83236V12.8482C12.306 13.4806 11.7934 13.9933 11.1609 13.9933H3.14512C2.51269 13.9933 2 13.4806 2 12.8482V4.83236C2 4.19993 2.51269 3.68724 3.14512 3.68724ZM3.14512 3.68724C3.14512 2.62002 3.91498 2 4.98221 2H12.0011C13.1051 2 14 2.89493 14 3.99888V11.0178C14 12.085 13.3948 12.9938 12.3275 12.9938M7.15302 6.55003V11.1305M4.86279 8.84027H9.44326" stroke="#1C1C1C" stroke-width="1.25" stroke-linecap="round" stroke-linejoin="round"/>
</svg>
