<svg width="24" height="24" viewBox="0 0 24 24" fill="none" xmlns="http://www.w3.org/2000/svg">
<path d="M17.6175 6.468L19.0705 5.015L20.4845 6.429L19.0315 7.882C20.4673 9.67915 21.1604 11.9579 20.9686 14.2502C20.7768 16.5424 19.7145 18.6742 18 20.2077C16.2855 21.7413 14.0489 22.5601 11.7495 22.4961C9.45014 22.432 7.26254 21.49 5.63604 19.8636C4.00949 18.237 3.06749 16.0494 3.00349 13.75C2.93944 11.4507 3.75829 9.214 5.29184 7.4995C6.82534 5.785 8.95714 4.72275 11.2494 4.5309C13.5417 4.3391 15.8204 5.03225 17.6175 6.468ZM11.9995 20.5C12.9188 20.5 13.829 20.319 14.6783 19.9671C15.5276 19.6153 16.2993 19.0998 16.9493 18.4498C17.5993 17.7998 18.1149 17.0281 18.4667 16.1788C18.8185 15.3295 18.9995 14.4193 18.9995 13.5C18.9995 12.5807 18.8185 11.6705 18.4667 10.8212C18.1149 9.97195 17.5993 9.20025 16.9493 8.55025C16.2993 7.90025 15.5276 7.38465 14.6783 7.03285C13.829 6.68105 12.9188 6.5 11.9995 6.5C10.143 6.5 8.36254 7.2375 7.04979 8.55025C5.73704 9.863 4.99954 11.6435 4.99954 13.5C4.99954 15.3565 5.73704 17.137 7.04979 18.4498C8.36254 19.7625 10.143 20.5 11.9995 20.5ZM10.9995 8.5H12.9995V14.5H10.9995V8.5ZM7.99954 1.5H15.9995V3.5H7.99954V1.5Z" fill="white"/>
</svg>
