<svg width="16" height="16" viewBox="0 0 16 16" fill="none" xmlns="http://www.w3.org/2000/svg">
<g clip-path="url(#clip0_481_3529)">
<path d="M3.33325 9.99992H2.66659C2.31296 9.99992 1.97382 9.85944 1.72378 9.60939C1.47373 9.35935 1.33325 9.02021 1.33325 8.66658V2.66659C1.33325 2.31296 1.47373 1.97382 1.72378 1.72378C1.97382 1.47373 2.31296 1.33325 2.66659 1.33325H8.66658C9.02021 1.33325 9.35935 1.47373 9.60939 1.72378C9.85944 1.97382 9.99992 2.31296 9.99992 2.66659V3.33325M7.33325 5.99992H13.3333C14.0696 5.99992 14.6666 6.59687 14.6666 7.33325V13.3333C14.6666 14.0696 14.0696 14.6666 13.3333 14.6666H7.33325C6.59687 14.6666 5.99992 14.0696 5.99992 13.3333V7.33325C5.99992 6.59687 6.59687 5.99992 7.33325 5.99992Z" stroke="#1C1C1C" stroke-width="1.25" stroke-linecap="round" stroke-linejoin="round"/>
</g>
<defs>
<clipPath id="clip0_481_3529">
<rect width="16" height="16" fill="white"/>
</clipPath>
</defs>
</svg>
