<svg width="24" height="24" viewBox="0 0 24 24" fill="none" xmlns="http://www.w3.org/2000/svg">
<path d="M17.8913 22.4419C18.1354 22.686 18.5311 22.686 18.7752 22.4419C19.0193 22.1978 19.0193 21.8021 18.7752 21.558L17.8913 22.4419ZM15.7752 18.558C15.5311 18.314 15.1354 18.314 14.8913 18.558C14.6472 18.8021 14.6472 19.1978 14.8913 19.4419L15.7752 18.558ZM18.7752 21.558L15.7752 18.558L14.8913 19.4419L17.8913 22.4419L18.7752 21.558Z" fill="#1C1C1C"/>
<path d="M7.94194 19.4419C8.18602 19.1978 8.18602 18.8021 7.94194 18.558C7.69786 18.314 7.30214 18.314 7.05806 18.558L7.94194 19.4419ZM4.05806 21.558C3.81398 21.8021 3.81398 22.1978 4.05806 22.4419C4.30214 22.686 4.69786 22.686 4.94194 22.4419L4.05806 21.558ZM7.05806 18.558L4.05806 21.558L4.94194 22.4419L7.94194 19.4419L7.05806 18.558Z" fill="#1C1C1C"/>
<path d="M18.3 3.62497C18.7688 3.62497 19.375 4.16043 19.375 5.1333H20.625C20.625 3.74976 19.709 2.37497 18.3 2.37497V3.62497ZM19.375 5.1333V16.8666H20.625V5.1333H19.375ZM19.375 16.8666C19.375 17.8395 18.7688 18.375 18.3 18.375V19.625C19.709 19.625 20.625 18.2502 20.625 16.8666H19.375ZM18.3 18.375H4.7V19.625H18.3V18.375ZM4.7 18.375C4.23121 18.375 3.625 17.8395 3.625 16.8666H2.375C2.375 18.2502 3.29102 19.625 4.7 19.625V18.375ZM3.625 16.8666V5.1333H2.375V16.8666H3.625ZM3.625 5.1333C3.625 4.16043 4.23122 3.62497 4.7 3.62497V2.37497C3.29102 2.37497 2.375 3.74976 2.375 5.1333H3.625ZM4.7 3.62497H11.5V2.37497H4.7V3.62497ZM11.5 3.62497H18.3V2.37497H11.5V3.62497Z" fill="#1C1C1C"/>
<path d="M16.0332 16.625C16.6156 16.625 17.2249 16.1925 17.2249 15.5C17.2249 14.8074 16.6156 14.375 16.0332 14.375C15.4509 14.375 14.8416 14.8074 14.8416 15.5C14.8416 16.1925 15.4509 16.625 16.0332 16.625Z" stroke="#1C1C1C" stroke-width="1.25"/>
<path d="M6.96657 16.625C7.5489 16.625 8.15824 16.1925 8.15824 15.5C8.15824 14.8074 7.5489 14.375 6.96657 14.375C6.38424 14.375 5.7749 14.8074 5.7749 15.5C5.7749 16.1925 6.38424 16.625 6.96657 16.625Z" stroke="#1C1C1C" stroke-width="1.25"/>
<rect x="12.5" y="5.99997" width="5.5" height="4.5" rx="1" stroke="#1C1C1C" stroke-width="1.25"/>
<rect x="5" y="5.99997" width="5.5" height="4.5" rx="1" stroke="#1C1C1C" stroke-width="1.25"/>
</svg>
