<svg width="24" height="24" viewBox="0 0 24 24" fill="none" xmlns="http://www.w3.org/2000/svg">
<path d="M18.3913 21.9419C18.6354 22.186 19.0311 22.186 19.2752 21.9419C19.5193 21.6979 19.5193 21.3021 19.2752 21.0581L18.3913 21.9419ZM16.2752 18.0581C16.0311 17.814 15.6354 17.814 15.3913 18.0581C15.1472 18.3021 15.1472 18.6979 15.3913 18.9419L16.2752 18.0581ZM19.2752 21.0581L16.2752 18.0581L15.3913 18.9419L18.3913 21.9419L19.2752 21.0581Z" fill="#1C1C1C"/>
<path d="M8.44194 18.9419C8.68602 18.6979 8.68602 18.3021 8.44194 18.0581C8.19786 17.814 7.80214 17.814 7.55806 18.0581L8.44194 18.9419ZM4.55806 21.0581C4.31398 21.3021 4.31398 21.6979 4.55806 21.9419C4.80214 22.186 5.19786 22.186 5.44194 21.9419L4.55806 21.0581ZM7.55806 18.0581L4.55806 21.0581L5.44194 21.9419L8.44194 18.9419L7.55806 18.0581Z" fill="#1C1C1C"/>
<path d="M18.8 3.125C19.2688 3.125 19.875 3.66047 19.875 4.63333H21.125C21.125 3.24979 20.209 1.875 18.8 1.875V3.125ZM19.875 4.63333V16.3667H21.125V4.63333H19.875ZM19.875 16.3667C19.875 17.3395 19.2688 17.875 18.8 17.875V19.125C20.209 19.125 21.125 17.7502 21.125 16.3667H19.875ZM18.8 17.875H5.2V19.125H18.8V17.875ZM5.2 17.875C4.73121 17.875 4.125 17.3395 4.125 16.3667H2.875C2.875 17.7502 3.79102 19.125 5.2 19.125V17.875ZM4.125 16.3667V4.63333H2.875V16.3667H4.125ZM4.125 4.63333C4.125 3.66047 4.73122 3.125 5.2 3.125V1.875C3.79102 1.875 2.875 3.24979 2.875 4.63333H4.125ZM5.2 3.125H12V1.875H5.2V3.125ZM12 3.125H18.8V1.875H12V3.125Z" fill="#1C1C1C"/>
<circle cx="16.25" cy="15" r="1.5" stroke="#1C1C1C" stroke-width="1.25"/>
<circle cx="7.75" cy="15" r="1.5" stroke="#1C1C1C" stroke-width="1.25"/>
<rect x="13" y="5.5" width="5.5" height="4.5" rx="1" stroke="#1C1C1C" stroke-width="1.25"/>
<rect x="5.5" y="5.5" width="5.5" height="4.5" rx="1" stroke="#1C1C1C" stroke-width="1.25"/>
</svg>
