<svg width="24" height="24" viewBox="0 0 24 24" fill="none" xmlns="http://www.w3.org/2000/svg">
<path d="M8.44194 18.9419C8.68602 18.6979 8.68602 18.3021 8.44194 18.0581C8.19786 17.814 7.80214 17.814 7.55806 18.0581L8.44194 18.9419ZM4.55806 21.0581C4.31398 21.3021 4.31398 21.6979 4.55806 21.9419C4.80214 22.186 5.19786 22.186 5.44194 21.9419L4.55806 21.0581ZM18.3913 21.9419C18.6354 22.186 19.0311 22.186 19.2752 21.9419C19.5193 21.6979 19.5193 21.3021 19.2752 21.0581L18.3913 21.9419ZM16.2752 18.0581C16.0311 17.814 15.6354 17.814 15.3913 18.0581C15.1472 18.3021 15.1472 18.6979 15.3913 18.9419L16.2752 18.0581ZM18.8 3.125C19.2688 3.125 19.875 3.66047 19.875 4.63333H21.125C21.125 3.24979 20.209 1.875 18.8 1.875V3.125ZM19.875 4.63333V16.3667H21.125V4.63333H19.875ZM19.875 16.3667C19.875 17.3395 19.2688 17.875 18.8 17.875V19.125C20.209 19.125 21.125 17.7502 21.125 16.3667H19.875ZM18.8 17.875H5.2V19.125H18.8V17.875ZM5.2 17.875C4.73121 17.875 4.125 17.3395 4.125 16.3667H2.875C2.875 17.7502 3.79102 19.125 5.2 19.125V17.875ZM4.125 16.3667V4.63333H2.875V16.3667H4.125ZM4.125 4.63333C4.125 3.66047 4.73122 3.125 5.2 3.125V1.875C3.79102 1.875 2.875 3.24979 2.875 4.63333H4.125ZM5.2 3.125H12V1.875H5.2V3.125ZM12 3.125H18.8V1.875H12V3.125ZM6.5 6.125H10V4.875H6.5V6.125ZM10.375 6.5V9H11.625V6.5H10.375ZM10 9.375H6.5V10.625H10V9.375ZM6.125 9V6.5H4.875V9H6.125ZM6.5 9.375C6.29289 9.375 6.125 9.20711 6.125 9H4.875C4.875 9.89746 5.60254 10.625 6.5 10.625V9.375ZM10.375 9C10.375 9.20711 10.2071 9.375 10 9.375V10.625C10.8975 10.625 11.625 9.89746 11.625 9H10.375ZM10 6.125C10.2071 6.125 10.375 6.29289 10.375 6.5H11.625C11.625 5.60254 10.8975 4.875 10 4.875V6.125ZM6.5 4.875C5.60254 4.875 4.875 5.60254 4.875 6.5H6.125C6.125 6.29289 6.29289 6.125 6.5 6.125V4.875ZM14 6.125H17.5V4.875H14V6.125ZM17.875 6.5V9H19.125V6.5H17.875ZM17.5 9.375H14V10.625H17.5V9.375ZM13.625 9V6.5H12.375V9H13.625ZM14 9.375C13.7929 9.375 13.625 9.20711 13.625 9H12.375C12.375 9.89746 13.1025 10.625 14 10.625V9.375ZM17.875 9C17.875 9.20711 17.7071 9.375 17.5 9.375V10.625C18.3975 10.625 19.125 9.89746 19.125 9H17.875ZM17.5 6.125C17.7071 6.125 17.875 6.29289 17.875 6.5H19.125C19.125 5.60254 18.3975 4.875 17.5 4.875V6.125ZM14 4.875C13.1025 4.875 12.375 5.60254 12.375 6.5H13.625C13.625 6.29289 13.7929 6.125 14 6.125V4.875ZM7.55806 18.0581L4.55806 21.0581L5.44194 21.9419L8.44194 18.9419L7.55806 18.0581ZM19.2752 21.0581L16.2752 18.0581L15.3913 18.9419L18.3913 21.9419L19.2752 21.0581ZM8.625 15C8.625 15.4832 8.23325 15.875 7.75 15.875V17.125C8.9236 17.125 9.875 16.1736 9.875 15H8.625ZM7.75 15.875C7.26675 15.875 6.875 15.4832 6.875 15H5.625C5.625 16.1736 6.57639 17.125 7.75 17.125V15.875ZM6.875 15C6.875 14.5168 7.26675 14.125 7.75 14.125V12.875C6.57639 12.875 5.625 13.8264 5.625 15H6.875ZM7.75 14.125C8.23325 14.125 8.625 14.5168 8.625 15H9.875C9.875 13.8264 8.9236 12.875 7.75 12.875V14.125ZM17.125 15C17.125 15.4832 16.7332 15.875 16.25 15.875V17.125C17.4236 17.125 18.375 16.1736 18.375 15H17.125ZM16.25 15.875C15.7668 15.875 15.375 15.4832 15.375 15H14.125C14.125 16.1736 15.0764 17.125 16.25 17.125V15.875ZM15.375 15C15.375 14.5168 15.7668 14.125 16.25 14.125V12.875C15.0764 12.875 14.125 13.8264 14.125 15H15.375ZM16.25 14.125C16.7332 14.125 17.125 14.5168 17.125 15H18.375C18.375 13.8264 17.4236 12.875 16.25 12.875V14.125Z" fill="#1C1C1C"/>
</svg>
