<svg width="24" height="24" viewBox="0 0 24 24" fill="none" xmlns="http://www.w3.org/2000/svg">
<path d="M8 18.5L5 21.5M18.8333 21.5L15.8333 18.5M5.2 2.5C4.26112 2.5 3.5 3.45513 3.5 4.63333V16.3667C3.5 17.5449 4.26112 18.5 5.2 18.5H18.8C19.7389 18.5 20.5 17.5449 20.5 16.3667V4.63333C20.5 3.45513 19.7389 2.5 18.8 2.5H12H5.2ZM6.5 10H10C10.5523 10 11 9.55228 11 9V6.5C11 5.94772 10.5523 5.5 10 5.5H6.5C5.94772 5.5 5.5 5.94772 5.5 6.5V9C5.5 9.55228 5.94772 10 6.5 10ZM14 10H17.5C18.0523 10 18.5 9.55228 18.5 9V6.5C18.5 5.94772 18.0523 5.5 17.5 5.5H14C13.4477 5.5 13 5.94772 13 6.5V9C13 9.55228 13.4477 10 14 10ZM9.25 15C9.25 15.8284 8.57843 16.5 7.75 16.5C6.92157 16.5 6.25 15.8284 6.25 15C6.25 14.1716 6.92157 13.5 7.75 13.5C8.57843 13.5 9.25 14.1716 9.25 15ZM17.75 15C17.75 15.8284 17.0784 16.5 16.25 16.5C15.4216 16.5 14.75 15.8284 14.75 15C14.75 14.1716 15.4216 13.5 16.25 13.5C17.0784 13.5 17.75 14.1716 17.75 15Z" stroke="#1C1C1C" stroke-width="1.25" stroke-linecap="round" stroke-linejoin="round"/>
</svg>
