<svg width="24" height="24" viewBox="0 0 24 24" fill="none" xmlns="http://www.w3.org/2000/svg">
<path d="M11.9999 8.99996V12L13.4999 13.5M16.5099 17.35L16.1599 21.18C16.1149 21.6786 15.8844 22.1422 15.5141 22.4792C15.1438 22.8162 14.6606 23.002 14.1599 23H9.82994C9.32927 23.002 8.84604 22.8162 8.47574 22.4792C8.10544 22.1422 7.875 21.6786 7.82994 21.18L7.47994 17.35M7.48994 6.64996L7.83994 2.81996C7.88484 2.32303 8.11387 1.86084 8.48205 1.52411C8.85024 1.18738 9.33099 1.00043 9.82994 0.999955H14.1799C14.6806 0.997924 15.1638 1.18375 15.5341 1.52073C15.9044 1.8577 16.1349 2.32131 16.1799 2.81996L16.5299 6.64996M18.9999 12C18.9999 15.8659 15.8659 19 11.9999 19C8.13395 19 4.99994 15.8659 4.99994 12C4.99994 8.13396 8.13395 4.99996 11.9999 4.99996C15.8659 4.99996 18.9999 8.13396 18.9999 12Z" stroke="#1C1C1C" stroke-width="1.25" stroke-linecap="round" stroke-linejoin="round"/>
</svg>
