<svg width="268" height="160" viewBox="0 0 268 160" fill="none" xmlns="http://www.w3.org/2000/svg">
<rect width="268" height="160" rx="12" fill="#EAEBEB"/>
<path d="M46.134 24C45.486 24 45 24.486 45 25.17C45 25.872 45.486 26.376 46.134 26.376C46.782 26.376 47.268 25.872 47.268 25.17C47.268 24.486 46.782 24 46.134 24Z" fill="#3D3D45"/>
<g clip-path="url(#clip0_7353_36924)">
<path d="M34.4 16.1197C34.4 18.4528 34.4 20.7817 34.4 23.145C34.2297 22.8923 34.0877 22.6729 33.9368 22.4588C32.6832 20.6786 31.1138 19.1921 28.9918 18.2611C27.8633 17.7659 26.7368 17.4766 25.6153 17.3904C23.8579 17.2554 22.113 17.6191 20.3924 18.4708C18.3709 19.4714 16.8842 20.9724 15.6998 22.737C15.6762 22.7723 15.6512 22.8068 15.6001 22.88C15.6001 20.5132 15.6001 18.1763 15.6001 15.8321C15.6001 15.4216 16.1424 14.5996 17.182 14.5996C22.4035 14.5996 27.623 14.5996 32.8633 14.5996C33.8125 14.5996 34.4 15.1748 34.4 16.1197Z" fill="#3D3D45"/>
<path d="M34.395 26.5535C31.7146 23.9887 28.6591 22.3598 24.9905 22.416C21.3685 22.4715 18.2646 23.968 15.6013 26.5629C15.6013 26.0439 15.5965 25.5708 15.6061 25.0979C15.6076 25.022 15.663 24.94 15.7102 24.8734C17.6274 22.1676 20.1324 20.3928 23.3701 19.8676C26.2584 19.3991 28.9077 20.1101 31.3085 21.8163C32.4544 22.6306 33.4232 23.6371 34.233 24.8032C34.3267 24.9382 34.3787 25.1285 34.3879 25.2969C34.41 25.7018 34.395 26.1089 34.395 26.5535Z" fill="#3D3D45"/>
<path d="M34.3952 29.9817C28.1209 27.4786 21.8808 27.4783 15.6033 29.9791C15.6033 29.5457 15.591 29.0986 15.6144 28.6532C15.6188 28.571 15.7585 28.4836 15.8515 28.4186C17.3869 27.347 19.1042 26.6459 20.9506 26.2089C22.2635 25.8981 23.6024 25.6825 24.9493 25.7116C28.2948 25.7841 31.4333 26.5404 34.1821 28.4375C34.3405 28.5467 34.4066 28.6648 34.3995 28.8505C34.3851 29.2238 34.3952 29.5978 34.3952 29.9817Z" fill="#3D3D45"/>
<path d="M32.9991 33.3996C27.7319 33.3996 22.492 33.3996 17.2276 33.3996C15.9169 33.3996 15.5856 32.7922 15.6006 32.3211C15.6024 32.2649 15.7235 31.8308 15.7961 31.815C16.6071 31.6385 17.4154 31.4415 18.2339 31.3105C21.0007 30.8678 23.7905 30.7797 26.5843 30.8653C29.0791 30.9416 31.5595 31.1697 33.9899 31.7958C34.2892 31.8729 34.4282 31.9772 34.3952 32.3113C34.3608 32.6602 34.4 33.3996 32.9991 33.3996Z" fill="#3D3D45"/>
</g>
<defs>
<clipPath id="clip0_7353_36924">
<rect x="15.6001" y="14.5996" width="18.8" height="18.8" rx="3" fill="white"/>
</clipPath>
</defs>
</svg>
