<svg width="57" height="43" viewBox="0 0 57 43" fill="none" xmlns="http://www.w3.org/2000/svg">
<g filter="url(#filter0_d_61897_66211)">
<g clip-path="url(#clip0_61897_66211)">
<rect width="26.2703" height="49.4689" rx="3.0716" transform="matrix(0.250154 -0.968206 0.968206 0.250153 2.72461 27.5774)" fill="#1C1C1C"/>
<path d="M31.9958 12.9329C31.136 16.2609 28.7031 18.0474 26.7348 17.5328C24.6599 16.9967 23.4631 14.2776 24.3422 10.9292C25.2222 7.58105 27.6148 5.77706 29.6729 6.31668C31.736 6.85496 32.8737 9.58591 31.9958 12.9329ZM34.2365 13.5581C35.2512 9.63093 33.3015 5.99067 29.9895 5.12008C26.6793 4.25345 23.119 6.44565 22.0855 10.3662C21.0532 14.2854 23.0748 17.8498 26.418 18.7337C29.759 19.6188 33.2339 17.3809 34.2365 13.5581ZM53.7374 20.9024L49.167 19.7215L52.8799 14.8659L53.7374 20.9024ZM56.6671 26.5561L54.5816 11.9443L53.6432 11.7019L44.6571 23.4076L46.0889 23.7775L48.361 20.7899L53.9627 22.2372L54.5112 25.9606L56.6671 26.5561ZM41.2482 15.0506L39.7622 14.6666L41.0238 9.78365L42.5169 10.1694C44.3455 10.6419 45.2222 11.9955 44.8574 13.3782C44.493 14.7635 43.0574 15.5189 41.2393 15.0491L41.2482 15.0506ZM43.6859 9.16856L37.3324 7.52702L37.017 8.74756L38.9736 9.25308L35.835 21.2166L37.8713 21.7427L39.3788 15.9081L41.6894 16.505C43.847 17.0791 46.0339 15.9084 46.5719 13.8876C47.1125 11.871 45.7978 9.76755 43.6395 9.19594L43.6859 9.16856ZM12.5885 12.6606L14.8078 4.07098C15.1626 4.18101 15.511 4.30863 15.8489 4.45888C17.4352 5.21848 18.1713 7.14092 17.6205 9.32368C17.072 11.5079 15.1613 13.0281 13.2146 12.7446C13.0271 12.6961 12.7833 12.6847 12.5913 12.65L12.5885 12.6606ZM12.8023 3.54144L10.5802 12.1418C10.383 12.0803 10.1883 12.0125 9.99859 11.9329C8.16972 11.2007 7.23115 8.96537 7.81055 6.76987C8.39345 4.57528 9.96129 3.27524 11.715 3.37594C12.0792 3.40971 12.4421 3.46324 12.8023 3.54144ZM15.5063 1.3676L11.5221 0.338215L11.2508 1.38825L13.2074 1.89378L13.0291 2.58397C12.7934 2.52307 12.5437 2.45855 12.3754 2.41508C9.38373 1.66136 6.38886 3.31847 5.68528 6.11759C5.66897 6.18071 5.65354 6.24405 5.63941 6.30598C4.92019 9.08969 6.44892 11.8482 9.70271 12.9442C9.87971 12.99 10.1259 13.0536 10.3564 13.1131L9.95081 14.6829L11.9591 15.2017L12.3636 13.6361C12.5713 13.6898 12.821 13.7543 13.0173 13.805C16.3924 14.4243 19.0773 12.7658 19.7793 9.9654C20.6008 7.20198 18.8699 4.26005 15.9122 3.3962C15.8529 3.37999 15.7954 3.36341 15.7332 3.34733L15.0822 3.17913L15.5063 1.3676Z" fill="url(#paint0_linear_61897_66211)"/>
<path d="M21.0175 29.7663L16.4471 28.5854L20.1536 23.7291L21.0175 29.7663ZM23.9489 35.4204L21.8483 20.8056L20.9002 20.5607L11.9175 32.2682L13.3457 32.6372L15.6146 29.6549L21.2111 31.1008L21.7574 34.8219L23.9489 35.4204ZM50.6501 42.3191L46.4303 32.6797L53.563 29.0189L51.701 28.5378L44.5762 32.2006L45.9155 27.0168L41.9041 25.9804L41.5886 27.2018L43.5461 27.7075L40.4006 39.6649L42.4439 40.1928L44.3144 32.9532L48.0936 41.6787L50.6501 42.3191ZM5.27737 29.2506L4.12339 28.9524L5.65036 23.0424L7.06634 23.4082C9.4742 24.0303 10.2518 25.6513 9.93272 27.1035C9.58204 28.7285 7.79147 30.0042 5.2797 29.2416L5.27737 29.2506ZM12.7643 21.701L13.553 18.6484L5.19729 16.4896L2.11179 28.4318L0.057036 27.9009L-0.258313 29.1215L5.61327 30.6385C9.24785 31.5776 11.7691 29.478 12.1426 27.5441C12.5682 25.3867 10.9831 23.6568 9.11871 22.7834C8.92384 22.691 8.7225 22.6093 8.52016 22.5387C7.93456 22.327 7.72016 22.332 5.90901 21.864L6.87094 18.1409L11.9933 19.4644L11.4963 21.3882L12.7643 21.701ZM35.862 38.473L39.3256 25.3133L37.2963 24.789L36.0343 29.6736L30.3835 28.2137L31.6453 23.3299L27.6506 22.2978L27.335 23.5191L29.2925 24.0249L26.1532 35.9838L28.1816 36.5079L30.0002 29.4691L35.6589 30.9311L33.8403 37.9699L35.862 38.473Z" fill="url(#paint1_linear_61897_66211)"/>
<rect width="5.51976" height="18.496" rx="0.581988" transform="matrix(-0.250154 0.968206 0.968206 0.250153 10.9424 4.93182)" fill="url(#paint2_linear_61897_66211)"/>
<path d="M18.3004 9.7763C18.2103 10.1249 17.9481 10.3102 17.734 10.2543C17.5084 10.196 17.3759 9.90926 17.4681 9.5585C17.5603 9.20777 17.8181 9.02064 18.042 9.07929C18.2663 9.13781 18.3924 9.42569 18.3004 9.7763ZM18.5441 9.84413C18.6504 9.43271 18.4354 9.04857 18.0752 8.95395C17.7152 8.85974 17.331 9.08651 17.2227 9.49721C17.1144 9.90776 17.3372 10.284 17.7008 10.3801C18.0642 10.4762 18.439 10.2446 18.5441 9.84413ZM20.6671 10.6342L20.17 10.5058L20.5682 9.99947L20.6671 10.6342ZM20.9904 11.2307L20.75 9.69432L20.6479 9.66795L19.6843 10.8885L19.84 10.9287L20.0836 10.6172L20.6928 10.7746L20.7559 11.1661L20.9904 11.2307ZM23.412 11.3468L22.915 11.2184L23.3124 10.712L23.412 11.3468ZM23.7355 11.9433L23.4935 10.4066L23.3904 10.38L22.4271 11.6007L22.5824 11.6408L22.8257 11.3299L23.4343 11.4871L23.4972 11.8784L23.7355 11.9433ZM26.6393 12.6936L26.1721 11.6773L26.9425 11.2997L26.74 11.2474L25.9705 11.6252L26.1108 11.0821L25.6745 10.9694L25.6415 11.0974L25.8544 11.1524L25.5246 12.405L25.7468 12.4624L25.9428 11.7039L26.3613 12.6239L26.6393 12.6936ZM19.3063 10.0076L19.1447 9.96587L19.2769 9.45433L19.4393 9.49628C19.6381 9.54766 19.7346 9.69065 19.6963 9.83549C19.6581 9.98061 19.5031 10.0585 19.3054 10.0075L19.3063 10.0076ZM19.5651 9.39231L18.8742 9.21379L18.8412 9.34166L19.0539 9.39663L18.725 10.6499L18.9464 10.7071L19.1043 10.0959L19.3556 10.1608C19.5903 10.2232 19.8264 10.1023 19.8828 9.89064C19.9395 9.6794 19.7949 9.45725 19.5601 9.39514L19.5651 9.39231ZM21.7037 11.2774L21.5782 11.245L21.7382 10.6259L21.8922 10.6656C22.154 10.7333 22.2399 10.9043 22.2067 11.0564C22.1703 11.2267 21.9772 11.359 21.7039 11.2765L21.7037 11.2774ZM22.5087 10.4919L22.5914 10.1721L21.6827 9.93731L21.3594 11.1884L21.136 11.1306L21.103 11.2585L21.7415 11.4235C22.1367 11.5256 22.4083 11.3076 22.4469 11.1049C22.491 10.8787 22.3174 10.6955 22.1142 10.602C22.093 10.5921 22.0711 10.5833 22.0491 10.5757C21.9853 10.5529 21.9621 10.5533 21.7651 10.5024L21.8659 10.1123L22.4229 10.2563L22.3709 10.4578L22.5087 10.4919ZM16.1945 9.72897L16.427 8.82911C16.4656 8.84101 16.5035 8.85475 16.5403 8.87085C16.7131 8.95215 16.7949 9.15473 16.7372 9.38341C16.6798 9.61225 16.474 9.77003 16.2625 9.73838C16.2421 9.73312 16.2156 9.73168 16.1947 9.72785L16.1945 9.72897ZM16.2088 8.77157L15.9761 9.67254C15.9546 9.66589 15.9334 9.65859 15.9127 9.65004C15.7136 9.57138 15.6096 9.33575 15.6704 9.10576C15.7315 8.87587 15.9003 8.74087 16.0907 8.75314C16.1303 8.75703 16.1697 8.76301 16.2088 8.77157ZM16.5001 8.5459L16.0668 8.43396L16.0384 8.54396L16.2512 8.59894L16.2325 8.67124C16.2069 8.66462 16.1797 8.6576 16.1614 8.65288C15.8361 8.57084 15.5128 8.74196 15.4391 9.03521C15.4374 9.04182 15.4358 9.04846 15.4343 9.05495C15.359 9.34657 15.5275 9.63772 15.8816 9.75596C15.9009 9.76093 15.9276 9.76785 15.9527 9.77432L15.9102 9.93877L16.1286 9.9952L16.171 9.83118C16.1936 9.83702 16.2207 9.84403 16.2421 9.84955C16.6089 9.91784 16.8986 9.74628 16.972 9.45289C17.0585 9.16349 16.8679 8.85289 16.5461 8.75932C16.5397 8.75756 16.5334 8.75576 16.5267 8.75402L16.4559 8.73572L16.5001 8.5459ZM25.031 12.2754L25.3941 10.8969L25.1734 10.8398L25.0412 11.3516L24.4267 11.1928L24.5589 10.6812L24.1245 10.5689L24.0914 10.6969L24.3043 10.7519L23.9752 12.0046L24.1958 12.0616L24.3863 11.3243L25.0017 11.4832L24.8112 12.2206L25.031 12.2754Z" fill="#1C1C1C"/>
<path d="M13.8518 9.75623C13.4312 9.52493 12.9812 9.35253 12.5138 9.24281C12.0605 9.11614 11.5925 9.04891 11.1217 9.04271L11.0625 9.27187L13.7947 9.97776L13.8522 9.75512L13.8519 9.75627L13.8518 9.75623Z" fill="#1C1C1C"/>
<path d="M12.8212 8.11352C13.3315 8.26145 13.765 8.60155 14.0314 9.06162L14.0906 8.83258C13.9038 8.29403 13.4634 7.88319 12.914 7.73361C12.3629 7.60184 11.7819 7.7488 11.3586 8.12672L11.2994 8.35575C11.756 8.08673 12.2969 7.99987 12.8148 8.11187L12.8212 8.11352Z" fill="#1C1C1C"/>
<path d="M12.6189 8.86808L12.6254 8.86976C13.098 8.98586 13.5383 9.20714 13.9133 9.51742L13.971 9.29387C13.7013 8.94101 13.276 8.6555 12.7204 8.4949C12.2288 8.36627 11.7091 8.39876 11.2374 8.58746L11.1787 8.81483C11.6561 8.72493 12.1479 8.74435 12.617 8.87085L12.6189 8.86808Z" fill="#1C1C1C"/>
<path d="M14.1416 8.63438C13.9801 7.98381 13.5721 7.48663 13.0054 7.34021C12.4544 7.19785 11.8695 7.42132 11.4212 7.88368L11.7689 6.53783L14.5011 7.24372L14.1417 8.63441L14.1416 8.63438Z" fill="#1C1C1C"/>
<path fill-rule="evenodd" clip-rule="evenodd" d="M40.9716 32.5713C41.0566 32.5927 41.3145 32.6353 41.3285 33.022C41.3379 33.2826 41.3501 33.7085 41.365 34.2999L41.429 34.3164C41.7477 33.7794 41.9659 33.413 42.0837 33.2172C42.2854 32.8821 42.5482 32.9787 42.6561 33.0066L43.4885 33.2216L42.8217 35.8025L41.9733 35.5833L42.3662 34.0624L42.3093 34.0477L41.4434 35.4464L40.8051 35.2815L40.7254 33.6372L40.6685 33.6225L40.2752 35.1446L39.4268 34.9254L40.0936 32.3445L40.9716 32.5713ZM44.7069 33.5364L44.3136 35.0585L44.3813 35.076L45.28 33.973C45.456 33.7528 45.6996 33.7929 45.6996 33.7929L46.5206 34.005L45.8538 36.5859L44.9877 36.3621L45.3809 34.84L45.3132 34.8226L44.4258 35.9284C44.2501 36.1475 43.9949 36.1057 43.9949 36.1057L43.1739 35.8935L43.8407 33.3126L44.7069 33.5364ZM49.1976 36.005C48.9886 36.315 48.5461 36.4614 48.126 36.3529L47.2176 36.1182L47.019 36.887L46.1953 36.6742L46.5453 35.3197L49.1976 36.005Z" fill="url(#paint3_linear_61897_66211)"/>
<path fill-rule="evenodd" clip-rule="evenodd" d="M48.6339 34.5506L46.819 34.0816C46.7137 34.6674 47.0831 35.2876 47.597 35.4203L49.2962 35.8593C49.5176 35.4071 49.3322 34.731 48.6339 34.5506Z" fill="url(#paint4_linear_61897_66211)"/>
</g>
</g>
<defs>
<filter id="filter0_d_61897_66211" x="0.13261" y="0.846334" width="58.3558" height="41.6978" filterUnits="userSpaceOnUse" color-interpolation-filters="sRGB">
<feFlood flood-opacity="0" result="BackgroundImageFix"/>
<feColorMatrix in="SourceAlpha" type="matrix" values="0 0 0 0 0 0 0 0 0 0 0 0 0 0 0 0 0 0 127 0" result="hardAlpha"/>
<feOffset dx="-0.648" dy="0.648"/>
<feGaussianBlur stdDeviation="0.972"/>
<feComposite in2="hardAlpha" operator="out"/>
<feColorMatrix type="matrix" values="0 0 0 0 0 0 0 0 0 0 0 0 0 0 0 0 0 0 0.25 0"/>
<feBlend mode="normal" in2="BackgroundImageFix" result="effect1_dropShadow_61897_66211"/>
<feBlend mode="normal" in="SourceGraphic" in2="effect1_dropShadow_61897_66211" result="shape"/>
</filter>
<linearGradient id="paint0_linear_61897_66211" x1="-5.10289" y1="42.6279" x2="-9.6164" y2="31.2455" gradientUnits="userSpaceOnUse">
<stop stop-color="#201F1F"/>
<stop offset="0.452389" stop-color="#454545"/>
<stop offset="1" stop-color="#252525"/>
</linearGradient>
<linearGradient id="paint1_linear_61897_66211" x1="-5.10289" y1="42.6279" x2="-9.6164" y2="31.2455" gradientUnits="userSpaceOnUse">
<stop stop-color="#201F1F"/>
<stop offset="0.452389" stop-color="#454545"/>
<stop offset="1" stop-color="#252525"/>
</linearGradient>
<linearGradient id="paint2_linear_61897_66211" x1="-1.32561" y1="3.66288" x2="-7.38851" y2="9.16549" gradientUnits="userSpaceOnUse">
<stop stop-color="#EAEAEA"/>
<stop offset="1" stop-color="#B1B1B1"/>
</linearGradient>
<linearGradient id="paint3_linear_61897_66211" x1="41.1469" y1="36.0311" x2="42.8927" y2="39.7585" gradientUnits="userSpaceOnUse">
<stop stop-color="#EAEAEA"/>
<stop offset="1" stop-color="#B1B1B1"/>
</linearGradient>
<linearGradient id="paint4_linear_61897_66211" x1="41.1469" y1="36.0311" x2="42.8927" y2="39.7585" gradientUnits="userSpaceOnUse">
<stop stop-color="#EAEAEA"/>
<stop offset="1" stop-color="#B1B1B1"/>
</linearGradient>
<clipPath id="clip0_61897_66211">
<rect width="26.2703" height="49.4689" rx="3.0716" transform="matrix(0.250154 -0.968206 0.968206 0.250153 2.72461 27.5774)" fill="white"/>
</clipPath>
</defs>
</svg>
