<svg width="16" height="16" viewBox="0 0 16 16" fill="none" xmlns="http://www.w3.org/2000/svg">
<g clip-path="url(#clip0_5224_28346)">
<path d="M9.41317 9.41342C9.23007 9.60992 9.00927 9.76752 8.76394 9.87684C8.51861 9.98615 8.25377 10.0449 7.98523 10.0497C7.71669 10.0544 7.44995 10.005 7.20091 9.90441C6.95188 9.80382 6.72565 9.65411 6.53573 9.46419C6.34582 9.27427 6.1961 9.04805 6.09551 8.79901C5.99492 8.54998 5.94552 8.28323 5.95026 8.01469C5.955 7.74615 6.01378 7.48132 6.12309 7.23599C6.2324 6.99065 6.39001 6.76985 6.5865 6.58675M0.666504 0.666748L15.3332 15.3334M11.9598 11.9601C10.8202 12.8288 9.43258 13.31 7.99984 13.3334C3.33317 13.3334 0.666504 8.00009 0.666504 8.00009C1.49576 6.45468 2.64593 5.10449 4.03984 4.04009L11.9598 11.9601ZM6.59984 2.82675C7.05872 2.71934 7.52855 2.66565 7.99984 2.66675C12.6665 2.66675 15.3332 8.00009 15.3332 8.00009C14.9285 8.75716 14.4459 9.46991 13.8932 10.1268L6.59984 2.82675Z" stroke="white" stroke-width="1.25" stroke-linecap="round" stroke-linejoin="round"/>
</g>
<defs>
<clipPath id="clip0_5224_28346">
<rect width="16" height="16" fill="white"/>
</clipPath>
</defs>
</svg>
