<svg width="16" height="16" viewBox="0 0 16 16" fill="none" xmlns="http://www.w3.org/2000/svg">
<g clip-path="url(#clip0_481_3271)">
<mask id="path-1-inside-1_481_3271" fill="white">
<path d="M8.1675 1.5C4.49102 1.5 1.5 4.49102 1.5 8.1675C1.5 11.844 4.49102 14.835 8.1675 14.835C11.844 14.835 14.835 11.844 14.835 8.1675C14.835 4.49102 11.844 1.5 8.1675 1.5ZM8.1675 14.0537C4.92186 14.0537 2.28135 11.4131 2.28135 8.1675C2.28135 4.92186 4.92186 2.28135 8.1675 2.28135C11.4131 2.28135 14.0537 4.92186 14.0537 8.1675C14.0537 11.4131 11.4131 14.0537 8.1675 14.0537Z"/>
</mask>
<path d="M8.1675 1.5C4.49102 1.5 1.5 4.49102 1.5 8.1675C1.5 11.844 4.49102 14.835 8.1675 14.835C11.844 14.835 14.835 11.844 14.835 8.1675C14.835 4.49102 11.844 1.5 8.1675 1.5ZM8.1675 14.0537C4.92186 14.0537 2.28135 11.4131 2.28135 8.1675C2.28135 4.92186 4.92186 2.28135 8.1675 2.28135C11.4131 2.28135 14.0537 4.92186 14.0537 8.1675C14.0537 11.4131 11.4131 14.0537 8.1675 14.0537Z" stroke="#1C1C1C" stroke-width="2.5" mask="url(#path-1-inside-1_481_3271)"/>
<rect x="10.6028" y="5.14294" width="0.833437" height="7.72148" rx="0.416719" transform="rotate(45 10.6028 5.14294)" fill="#1C1C1C"/>
<ellipse cx="6.50065" cy="5.94499" rx="1.11125" ry="1.11125" stroke="#1C1C1C" stroke-width="1.25"/>
<ellipse cx="9.83439" cy="10.39" rx="1.11125" ry="1.11125" stroke="#1C1C1C" stroke-width="1.25"/>
</g>
<defs>
<clipPath id="clip0_481_3271">
<rect width="13.335" height="13.335" fill="white" transform="translate(1.5 1.5)"/>
</clipPath>
</defs>
</svg>
