<svg width="16" height="16" viewBox="0 0 16 16" fill="none" xmlns="http://www.w3.org/2000/svg">
<g clip-path="url(#clip0_481_3271)">
<path d="M10.909 5.09095L7.99996 7.99999L5.09092 10.909M14.67 7.99999C14.67 11.6837 11.6837 14.67 7.99996 14.67C4.31622 14.67 1.32996 11.6837 1.32996 7.99999C1.32996 4.31625 4.31622 1.32999 7.99996 1.32999C11.6837 1.32999 14.67 4.31625 14.67 7.99999ZM6.75323 5.71432C6.75323 6.28811 6.28808 6.75326 5.71429 6.75326C5.1405 6.75326 4.67535 6.28811 4.67535 5.71432C4.67535 5.14052 5.1405 4.67538 5.71429 4.67538C6.28808 4.67538 6.75323 5.14052 6.75323 5.71432ZM11.3246 10.2857C11.3246 10.8594 10.8594 11.3246 10.2856 11.3246C9.71183 11.3246 9.24668 10.8594 9.24668 10.2857C9.24668 9.71187 9.71183 9.24672 10.2856 9.24672C10.8594 9.24672 11.3246 9.71187 11.3246 10.2857Z" stroke="#1C1C1C" stroke-width="1.25" stroke-linecap="round"/>
</g>
<defs>
<clipPath id="clip0_481_3271">
<rect width="16" height="16" fill="white"/>
</clipPath>
</defs>
</svg>
