<svg width="16" height="16" viewBox="0 0 16 16" fill="none" xmlns="http://www.w3.org/2000/svg">
<g clip-path="url(#clip0_481_3271)">
<mask id="path-1-inside-1_481_3271" fill="white">
<path d="M8.00747 1.34C4.33099 1.34 1.33997 4.33102 1.33997 8.0075C1.33997 11.684 4.33099 14.675 8.00747 14.675C11.6839 14.675 14.675 11.684 14.675 8.0075C14.675 4.33102 11.6839 1.34 8.00747 1.34ZM8.00747 13.8936C4.76183 13.8936 2.12131 11.2531 2.12131 8.0075C2.12131 4.76186 4.76183 2.12134 8.00747 2.12134C11.2531 2.12134 13.8936 4.76186 13.8936 8.0075C13.8936 11.2531 11.2531 13.8936 8.00747 13.8936Z"/>
</mask>
<path d="M8.00747 1.34C4.33099 1.34 1.33997 4.33102 1.33997 8.0075C1.33997 11.684 4.33099 14.675 8.00747 14.675C11.6839 14.675 14.675 11.684 14.675 8.0075C14.675 4.33102 11.6839 1.34 8.00747 1.34ZM8.00747 13.8936C4.76183 13.8936 2.12131 11.2531 2.12131 8.0075C2.12131 4.76186 4.76183 2.12134 8.00747 2.12134C11.2531 2.12134 13.8936 4.76186 13.8936 8.0075C13.8936 11.2531 11.2531 13.8936 8.00747 13.8936Z" stroke="#1C1C1C" stroke-width="2.5" mask="url(#path-1-inside-1_481_3271)"/>
<path d="M10.7401 5.27332L5.28021 10.7332" stroke="#1C1C1C" stroke-width="1.25" stroke-linecap="round"/>
<ellipse cx="6.34074" cy="5.78459" rx="1.11125" ry="1.11125" stroke="#1C1C1C" stroke-width="1.25"/>
<ellipse cx="9.67802" cy="10.2312" rx="1.11125" ry="1.11125" stroke="#1C1C1C" stroke-width="1.25"/>
</g>
<defs>
<clipPath id="clip0_481_3271">
<rect width="13.335" height="13.335" fill="white" transform="translate(1.33997 1.34)"/>
</clipPath>
</defs>
</svg>
