<svg width="16" height="16" viewBox="0 0 16 16" fill="none" xmlns="http://www.w3.org/2000/svg">
<path d="M3.99992 4.00004H4.00659M3.99992 12H4.00659M2.66659 1.33337H13.3333C14.0696 1.33337 14.6666 1.93033 14.6666 2.66671V5.33337C14.6666 6.06975 14.0696 6.66671 13.3333 6.66671H2.66659C1.93021 6.66671 1.33325 6.06975 1.33325 5.33337V2.66671C1.33325 1.93033 1.93021 1.33337 2.66659 1.33337ZM2.66659 9.33337H13.3333C14.0696 9.33337 14.6666 9.93033 14.6666 10.6667V13.3334C14.6666 14.0698 14.0696 14.6667 13.3333 14.6667H2.66659C1.93021 14.6667 1.33325 14.0698 1.33325 13.3334V10.6667C1.33325 9.93033 1.93021 9.33337 2.66659 9.33337Z" stroke="#1C1C1C" stroke-width="1.25" stroke-linecap="round" stroke-linejoin="round"/>
</svg>
