<svg width="40" height="40" viewBox="0 0 40 40" fill="none" xmlns="http://www.w3.org/2000/svg">
<rect width="40" height="40" rx="20" fill="#C5E1A4"/>
<path d="M9.00009 9H13.0001L15.6801 22.39C15.7715 22.8504 16.022 23.264 16.3876 23.5583C16.7533 23.8526 17.2108 24.009 17.6801 24H27.4001C27.8694 24.009 28.3269 23.8526 28.6925 23.5583C29.0582 23.264 29.3086 22.8504 29.4001 22.39L31.0001 14H14.0001M18.0001 29C18.0001 29.5523 17.5524 30 17.0001 30C16.4478 30 16.0001 29.5523 16.0001 29C16.0001 28.4477 16.4478 28 17.0001 28C17.5524 28 18.0001 28.4477 18.0001 29ZM29.0001 29C29.0001 29.5523 28.5524 30 28.0001 30C27.4478 30 27.0001 29.5523 27.0001 29C27.0001 28.4477 27.4478 28 28.0001 28C28.5524 28 29.0001 28.4477 29.0001 29Z" stroke="white" stroke-width="1.25" stroke-linecap="round" stroke-linejoin="round"/>
</svg>
