<svg width="68" height="68" viewBox="0 0 68 68" fill="none" xmlns="http://www.w3.org/2000/svg">
<path d="M64.5 34.1314C64.5 34.9598 65.1715 35.6314 66 35.6314C66.8284 35.6314 67.5 34.9598 67.5 34.1314H64.5ZM45.7735 2.63352C44.9983 2.34131 44.133 2.73283 43.8408 3.50801C43.5486 4.28319 43.9401 5.14848 44.7153 5.4407L45.7735 2.63352ZM33.5941 3.49987C34.4224 3.48904 35.0852 2.80875 35.0743 1.98039C35.0635 1.15204 34.3832 0.4893 33.5548 0.500128L33.5941 3.49987ZM6.71046 14.6179C6.23059 15.2932 6.38902 16.2296 7.06431 16.7095C7.7396 17.1893 8.67604 17.0309 9.15591 16.3556L6.71046 14.6179ZM4.67438 25.683C4.90146 24.8863 4.4397 24.0564 3.64301 23.8293C2.84631 23.6022 2.01637 24.0639 1.78929 24.8606L4.67438 25.683ZM2.37845 45.2629C2.65155 46.045 3.50698 46.4576 4.28909 46.1845C5.07121 45.9114 5.48384 45.056 5.21074 44.2739L2.37845 45.2629ZM53.2697 29.8425C53.4473 30.6516 54.2473 31.1636 55.0564 30.986C55.8656 30.8083 56.3776 30.0084 56.1999 29.1992L53.2697 29.8425ZM49.164 17.1294C48.548 16.5754 47.5996 16.6256 47.0456 17.2416C46.4916 17.8575 46.5419 18.8059 47.1578 19.3599L49.164 17.1294ZM39.1622 14.9964C39.9617 15.2134 40.7858 14.7413 41.0028 13.9418C41.2199 13.1423 40.7477 12.3183 39.9483 12.1012L39.1622 14.9964ZM12.7682 34.132L14.2552 34.3294L14.2682 34.2311V34.132H12.7682ZM11.7755 39.2166C11.9029 40.0351 12.6697 40.5955 13.4883 40.4681C14.3069 40.3407 14.8672 39.5739 14.7399 38.7553L11.7755 39.2166ZM43.0856 32.6117C43.2199 33.4291 43.9914 33.983 44.8089 33.8487C45.6264 33.7145 46.1802 32.943 46.046 32.1255L43.0856 32.6117ZM34.0014 21.8789C33.1729 21.8789 32.5014 22.5505 32.5014 23.3789C32.5014 24.2073 33.1729 24.8789 34.0014 24.8789V21.8789ZM26.9863 28.1385C27.5218 27.5064 27.4434 26.5598 26.8113 26.0244C26.1792 25.4889 25.2327 25.5673 24.6972 26.1994L26.9863 28.1385ZM23.2937 34.1319H21.7937V34.1623L21.795 34.1928L23.2937 34.1319ZM22.6147 39.3656C22.8923 40.1461 23.7501 40.5538 24.5306 40.2762C25.3111 39.9986 25.7188 39.1408 25.4412 38.3603L22.6147 39.3656ZM54.1499 57.6264C54.018 58.4443 54.5741 59.2142 55.392 59.3461C56.2098 59.4779 56.9798 58.9218 57.1116 58.104L54.1499 57.6264ZM56.205 29.2006C56.0216 28.3927 55.218 27.8865 54.4101 28.0699C53.6023 28.2534 53.0961 29.0569 53.2795 29.8648L56.205 29.2006ZM40.9718 64.5784C40.699 65.3607 41.1121 66.2159 41.8943 66.4887C42.6765 66.7614 43.5318 66.3484 43.8045 65.5661L40.9718 64.5784ZM45.8104 44.761H44.3104H45.8104ZM46.0444 32.1144C45.8794 31.3026 45.0876 30.7782 44.2757 30.9431C43.4639 31.1081 42.9395 31.8999 43.1044 32.7117L46.0444 32.1144ZM29.3373 65.4439C29.0302 66.2133 29.4049 67.086 30.1743 67.3931C30.9437 67.7002 31.8164 67.3255 32.1235 66.5561L29.3373 65.4439ZM33.5659 62.74C33.8306 61.955 33.4088 61.1041 32.6238 60.8394C31.8388 60.5747 30.9878 60.9965 30.7231 61.7815L33.5659 62.74ZM32.9659 52.4313C32.8456 53.2509 33.4125 54.0129 34.2322 54.1332C35.0518 54.2536 35.8138 53.6867 35.9341 52.867L32.9659 52.4313ZM35.5576 33.9132C35.4044 33.099 34.6203 32.5632 33.8062 32.7163C32.992 32.8694 32.4561 33.6535 32.6092 34.4677L35.5576 33.9132ZM18.8968 62.2667C18.5207 63.0049 18.8142 63.9081 19.5523 64.2842C20.2905 64.6603 21.1937 64.3668 21.5698 63.6286L18.8968 62.2667ZM25.46 38.571C25.3198 37.7545 24.5444 37.2062 23.7279 37.3463C22.9114 37.4864 22.3631 38.2619 22.5032 39.0784L25.46 38.571ZM10.2147 56.189C9.90217 56.9562 10.2707 57.8315 11.0379 58.1441C11.8052 58.4566 12.6805 58.0881 12.993 57.3209L10.2147 56.189ZM14.7185 38.641C14.5531 37.8292 13.761 37.3052 12.9492 37.4706C12.1375 37.636 11.6135 38.4281 11.7789 39.2399L14.7185 38.641ZM67.5 34.1314C67.5 19.7163 58.4675 7.4187 45.7735 2.63352L44.7153 5.4407C56.2733 9.79765 64.5 20.9993 64.5 34.1314H67.5ZM33.5548 0.500128C22.4783 0.644912 12.7012 6.1875 6.71046 14.6179L9.15591 16.3556C14.6172 8.67031 23.5178 3.63158 33.5941 3.49987L33.5548 0.500128ZM1.78929 24.8606C0.949323 27.8075 0.5 30.9183 0.5 34.1319H3.5C3.5 31.1991 3.90991 28.365 4.67438 25.683L1.78929 24.8606ZM0.5 34.1319C0.5 38.0303 1.1612 41.7769 2.37845 45.2629L5.21074 44.2739C4.10303 41.1016 3.5 37.6892 3.5 34.1319H0.5ZM56.1999 29.1992C55.1574 24.4502 52.643 20.2584 49.164 17.1294L47.1578 19.3599C50.1824 22.0802 52.3651 25.7217 53.2697 29.8425L56.1999 29.1992ZM39.9483 12.1012C38.0506 11.586 36.056 11.3115 33.9999 11.3115V14.3115C35.788 14.3115 37.5184 14.5501 39.1622 14.9964L39.9483 12.1012ZM33.9999 11.3115C21.4396 11.3115 11.2682 21.5345 11.2682 34.132H14.2682C14.2682 23.1795 23.1083 14.3115 33.9999 14.3115V11.3115ZM12.7682 34.132C11.2813 33.9346 11.2811 33.9354 11.281 33.9363C11.281 33.9366 11.2809 33.9375 11.2808 33.9381C11.2806 33.9393 11.2805 33.9405 11.2803 33.9417C11.28 33.9441 11.2797 33.9466 11.2794 33.9491C11.2788 33.9541 11.2782 33.9592 11.2776 33.9646C11.2763 33.9752 11.2751 33.9866 11.274 33.9987C11.2716 34.0229 11.2694 34.0503 11.2673 34.0814C11.2633 34.1433 11.26 34.221 11.2588 34.3181C11.2563 34.5114 11.2617 34.7885 11.2865 35.1795C11.3361 35.96 11.465 37.2208 11.7755 39.2166L14.7399 38.7553C14.4385 36.8187 14.3226 35.6526 14.2805 34.9892C14.2594 34.6583 14.2572 34.4592 14.2585 34.3568C14.2592 34.306 14.2607 34.281 14.2609 34.2772C14.2611 34.2754 14.2608 34.2792 14.26 34.2879C14.2596 34.2923 14.259 34.298 14.2582 34.305C14.2578 34.3084 14.2573 34.3122 14.2568 34.3163C14.2566 34.3183 14.2563 34.3204 14.256 34.3226C14.2559 34.3237 14.2558 34.3248 14.2556 34.326C14.2555 34.3265 14.2554 34.3274 14.2554 34.3277C14.2553 34.3286 14.2552 34.3294 12.7682 34.132ZM46.046 32.1255C45.092 26.3171 40.0682 21.8789 34.0014 21.8789V24.8789C38.5661 24.8789 42.3644 28.2204 43.0856 32.6117L46.046 32.1255ZM24.6972 26.1994C22.8868 28.3367 21.7937 31.1084 21.7937 34.1319H24.7937C24.7937 31.8435 25.6185 29.7532 26.9863 28.1385L24.6972 26.1994ZM23.2937 34.1319C21.795 34.1928 21.795 34.1929 21.795 34.1931C21.795 34.1931 21.795 34.1933 21.795 34.1934C21.795 34.1937 21.795 34.194 21.795 34.1944C21.7951 34.1951 21.7951 34.196 21.7951 34.1971C21.7952 34.1993 21.7954 34.2022 21.7955 34.2058C21.7958 34.213 21.7963 34.223 21.7969 34.2358C21.7981 34.2613 21.7998 34.2978 21.8023 34.344C21.8072 34.4363 21.8148 34.5682 21.8259 34.731C21.848 35.0558 21.8841 35.5076 21.9405 36.0172C22.0493 37.0008 22.2467 38.3309 22.6147 39.3656L25.4412 38.3603C25.1974 37.6745 25.0276 36.6391 24.9223 35.6873C24.8716 35.2292 24.8389 34.8207 24.8189 34.5273C24.809 34.381 24.8023 34.2642 24.7981 34.1852C24.796 34.1457 24.7945 34.1158 24.7936 34.0964C24.7932 34.0867 24.7929 34.0796 24.7927 34.0753C24.7926 34.0732 24.7925 34.0717 24.7925 34.071C24.7925 34.0706 24.7925 34.0704 24.7925 34.0704C24.7925 34.0704 24.7925 34.0705 24.7925 34.0705C24.7925 34.0706 24.7925 34.0707 24.7925 34.0707C24.7925 34.0708 24.7925 34.0709 23.2937 34.1319ZM57.1116 58.104C57.7477 54.1594 58.0781 50.1129 58.0781 45.99H55.0781C55.0781 49.9524 54.7605 53.8392 54.1499 57.6264L57.1116 58.104ZM58.0781 45.99C58.0781 40.2203 57.431 34.6006 56.205 29.2006L53.2795 29.8648C54.4563 35.0483 55.0781 40.4453 55.0781 45.99H58.0781ZM43.8045 65.5661C46.0761 59.0515 47.3104 52.0494 47.3104 44.761H44.3104C44.3104 51.7086 43.1341 58.3771 40.9718 64.5784L43.8045 65.5661ZM47.3104 44.761C47.3104 40.4308 46.8747 36.2011 46.0444 32.1144L43.1044 32.7117C43.895 36.6029 44.3104 40.6325 44.3104 44.761H47.3104ZM30.7304 66C32.1235 66.5561 32.1235 66.5561 32.1235 66.5561C32.1235 66.556 32.1235 66.556 32.1236 66.5559C32.1236 66.5558 32.1237 66.5557 32.1237 66.5555C32.1239 66.5552 32.1241 66.5547 32.1243 66.554C32.1248 66.5527 32.1256 66.5508 32.1266 66.5484C32.1285 66.5435 32.1314 66.5362 32.1352 66.5268C32.1427 66.5079 32.1537 66.4803 32.1678 66.4448C32.196 66.3738 32.2366 66.2712 32.2867 66.1442C32.3867 65.8905 32.5247 65.5387 32.6763 65.1466C32.9761 64.3709 33.3405 63.4084 33.5659 62.74L30.7231 61.7815C30.521 62.3807 30.1784 63.2878 29.878 64.0649C29.7295 64.4492 29.5941 64.7945 29.4958 65.0438C29.4467 65.1683 29.4069 65.2687 29.3795 65.3378C29.3658 65.3724 29.3551 65.3991 29.348 65.4171C29.3444 65.4261 29.3417 65.4329 29.3399 65.4374C29.339 65.4396 29.3383 65.4413 29.3379 65.4424C29.3377 65.4429 29.3375 65.4433 29.3374 65.4436C29.3374 65.4437 29.3373 65.4438 29.3373 65.4438C29.3373 65.4439 29.3373 65.4439 29.3373 65.4439C29.3373 65.4439 29.3373 65.4439 30.7304 66ZM35.9341 52.867C36.3344 50.1405 36.5416 47.3517 36.5416 44.5152H33.5416C33.5416 47.2054 33.3451 49.8486 32.9659 52.4313L35.9341 52.867ZM36.5416 44.5152C36.5416 40.8932 36.2037 37.349 35.5576 33.9132L32.6092 34.4677C33.2212 37.7216 33.5416 41.0801 33.5416 44.5152H36.5416ZM21.5698 63.6286C24.3653 58.1418 26.0163 51.7258 26.0163 45.1294H23.0163C23.0163 51.2344 21.4857 57.1854 18.8968 62.2667L21.5698 63.6286ZM26.0163 45.1294C26.0163 42.8945 25.8258 40.7031 25.46 38.571L22.5032 39.0784C22.8404 41.0436 23.0163 43.0653 23.0163 45.1294H26.0163ZM12.993 57.3209C14.5258 53.5583 15.3699 49.4413 15.3699 45.1303H12.3699C12.3699 49.0469 11.6035 52.7799 10.2147 56.189L12.993 57.3209ZM15.3699 45.1303C15.3699 42.9088 15.1458 40.7384 14.7185 38.641L11.7789 39.2399C12.1662 41.1413 12.3699 43.1111 12.3699 45.1303H15.3699Z" fill="#1C1C1C"/>
</svg>
