<svg width="64" height="64" viewBox="0 0 64 64" fill="none" xmlns="http://www.w3.org/2000/svg">
<path d="M0 13.4737C0 6.03237 6.03237 0 13.4737 0H50.5263C57.9676 0 64 6.03237 64 13.4737V25.5247C64 26.4333 62.541 26.8184 62.0402 26.0603C58.2999 20.3991 48.9291 9.68421 31.5789 9.68421C14.6195 9.68421 5.71961 19.9221 2.0592 25.6704C1.5621 26.451 0 26.0692 0 25.1437V13.4737Z" fill="#1C1C1C"/>
<path d="M0 38.303V39.1425C0 39.9047 0.956758 40.3102 1.5189 39.7954C5.59005 36.0673 17.432 27.5263 32 27.5263C46.568 27.5263 58.41 36.0673 62.4811 39.7954C63.0432 40.3102 64 39.9047 64 39.1425V38.303C64 36.6614 63.5418 35.058 62.5342 33.7621C58.7961 28.9545 48.0552 18.2632 32 18.2632C15.9448 18.2632 5.20388 28.9545 1.46584 33.7621C0.458197 35.058 0 36.6614 0 38.303Z" fill="#FF3636"/>
<path d="M0 48.8974V51.3238C0 51.9363 0.628838 52.3574 1.19748 52.1299C4.93372 50.6353 17.027 46.3158 32 46.3158C46.973 46.3158 59.0663 50.6353 62.8025 52.1299C63.3712 52.3574 64 51.9363 64 51.3238V48.8974C64 47.7992 63.5008 46.7679 62.578 46.1725C58.8807 43.7866 48.1184 37.8948 32 37.8948C15.8816 37.8948 5.11931 43.7866 1.42198 46.1725C0.499184 46.7679 0 47.7992 0 48.8974Z" fill="#FF3636"/>
<path d="M10.1866 63.5789H53.1622C56.7574 63.5789 60.0953 61.7137 61.9795 58.6518C62.1401 58.3909 61.996 58.0529 61.6934 58.0048C58.4405 57.4879 43.1231 55.152 32.0001 55.1578C20.842 55.1637 5.42537 57.5679 2.56996 58.0292C2.33446 58.0672 2.20392 58.3187 2.30388 58.5353C3.72295 61.6099 6.80024 63.5789 10.1866 63.5789Z" fill="#FF3636"/>
</svg>
