<svg width="24" height="24" viewBox="0 0 24 24" fill="none" xmlns="http://www.w3.org/2000/svg">
<path d="M12.0159 9.14611V11.9753L13.9022 12.9183M3.00006 4.00009H21.0001C22.1046 4.00009 23.0001 4.89552 23.0001 6.00009V18.0001C23.0001 19.1047 22.1046 20.0001 21.0001 20.0001H3.00006C1.89549 20.0001 1.00006 19.1047 1.00006 18.0001V6.00009C1.00006 4.89552 1.89549 4.00009 3.00006 4.00009ZM16.7318 11.9753C16.7318 14.5794 14.6204 16.6905 12.0159 16.6905C9.41141 16.6905 7.30005 14.5794 7.30005 11.9753C7.30005 9.3711 9.41141 7.26001 12.0159 7.26001C14.6204 7.26001 16.7318 9.3711 16.7318 11.9753Z" stroke="#1C1C1C" stroke-width="1.25" stroke-linecap="round" stroke-linejoin="round"/>
</svg>
