<svg width="24" height="24" viewBox="0 0 24 24" fill="none" xmlns="http://www.w3.org/2000/svg">
<path d="M19.6001 4.40005H19.5901M3.00998 13.81L10.18 20.98C10.3657 21.1659 10.5863 21.3135 10.8291 21.4141C11.0719 21.5148 11.3321 21.5666 11.595 21.5666C11.8578 21.5666 12.1181 21.5148 12.3609 21.4141C12.6037 21.3135 12.8242 21.1659 13.01 20.98L21.6 12.4V2.39999H11.6L3.00998 10.99C2.63747 11.3647 2.42839 11.8716 2.42839 12.4C2.42839 12.9284 2.63747 13.4353 3.00998 13.81Z" stroke="#1C1C1C" stroke-width="1.25" stroke-linecap="round" stroke-linejoin="round"/>
<g clip-path="url(#clip0_760_3262)">
<path d="M14.71 6.92244L10.4899 15.8774M15.6952 11.8815C15.0455 12.1149 14.7081 12.8309 14.9416 13.4806C15.1751 14.1302 15.891 14.4676 16.5407 14.2341C17.1904 14.0007 17.5278 13.2847 17.2943 12.6351C17.0608 11.9854 16.3449 11.648 15.6952 11.8815ZM8.6592 8.56564C8.00952 8.79912 7.67212 9.51506 7.9056 10.1647C8.13908 10.8144 8.85502 11.1518 9.50469 10.9183C10.1544 10.6849 10.4918 9.96892 10.2583 9.31924C10.0248 8.66956 9.30887 8.33217 8.6592 8.56564Z" stroke="#1C1C1C" stroke-width="1.25" stroke-linecap="round" stroke-linejoin="round"/>
</g>
<defs>
<clipPath id="clip0_760_3262">
<rect width="12" height="12" fill="white" transform="matrix(-0.338199 -0.941075 -0.941075 0.338199 20.2756 15.0172)"/>
</clipPath>
</defs>
</svg>
