<svg width="24" height="24" viewBox="0 0 24 24" fill="none" xmlns="http://www.w3.org/2000/svg">
<path d="M19.6001 4.40005H19.5901M3.00998 13.81L10.18 20.98C10.3657 21.1659 10.5863 21.3135 10.8291 21.4141C11.0719 21.5148 11.3321 21.5666 11.595 21.5666C11.8578 21.5666 12.1181 21.5148 12.3609 21.4141C12.6037 21.3135 12.8242 21.1659 13.01 20.98L21.6 12.4V2.39999H11.6L3.00998 10.99C2.63747 11.3647 2.42839 11.8716 2.42839 12.4C2.42839 12.9284 2.63747 13.4353 3.00998 13.81Z" stroke="#1C1C1C" stroke-width="1.25" stroke-linecap="round" stroke-linejoin="round"/>
<path d="M15.1918 8.79166L8.36689 15.6165" stroke="black" stroke-width="1.25" stroke-linecap="round"/>
<ellipse cx="9.69259" cy="9.43072" rx="1.38906" ry="1.38906" stroke="#1C1C1C" stroke-width="1.25"/>
<ellipse cx="13.8642" cy="14.9891" rx="1.38906" ry="1.38906" stroke="#1C1C1C" stroke-width="1.25"/>
</svg>
