<svg width="20" height="20" viewBox="0 0 20 20" fill="none" xmlns="http://www.w3.org/2000/svg">
<path d="M8.66368 18.5898C2.19365 18.5898 4.54922 18.5898 4.54922 18.5898C4.22672 18.5898 3.91744 18.4293 3.6894 18.1436C3.46136 17.858 3.33325 17.4706 3.33325 17.0666V10.1282V3.18984C3.33325 2.78588 3.46136 2.39846 3.6894 2.11281C3.91744 1.82716 4.22672 1.66669 4.54922 1.66669H15.1942C15.5167 1.66669 15.826 1.82716 16.054 2.11281C16.2821 2.39846 16.4102 2.78588 16.4102 3.18984V7.40396M16.2499 10.4167L10.4166 16.25M12.0833 11.0417C12.0833 11.617 11.6169 12.0834 11.0416 12.0834C10.4663 12.0834 9.99992 11.617 9.99992 11.0417C9.99992 10.4664 10.4663 10 11.0416 10C11.6169 10 12.0833 10.4664 12.0833 11.0417ZM16.6666 15.625C16.6666 16.2003 16.2002 16.6667 15.6249 16.6667C15.0496 16.6667 14.5833 16.2003 14.5833 15.625C14.5833 15.0497 15.0496 14.5834 15.6249 14.5834C16.2002 14.5834 16.6666 15.0497 16.6666 15.625Z" stroke="#1C1C1C" stroke-width="1.25" stroke-linecap="round" stroke-linejoin="round"/>
</svg>
