<svg width="24" height="24" viewBox="0 0 24 24" fill="none" xmlns="http://www.w3.org/2000/svg">
<path d="M18.84 12.84V4.76C18.84 3.78798 18.052 3 17.08 3H4.76C3.78798 3 3 3.78798 3 4.76V17.08C3 18.052 3.78798 18.84 4.76 18.84H12.84" stroke="#1C1C1C" stroke-width="1.25" stroke-linecap="round" stroke-linejoin="round"/>
<path d="M18.84 21L18.84 16.68" stroke="#FF3636" stroke-width="1.25" stroke-linecap="round" stroke-linejoin="round"/>
<path d="M21 18.84H16.68" stroke="#FF3636" stroke-width="1.25" stroke-linecap="round" stroke-linejoin="round"/>
<path d="M11.6808 11.7056C13.5463 11.7056 14.4135 10.5765 14.4135 9.21829C14.4135 7.86011 13.5463 6.73102 11.6808 6.73102H8.75172V10.8056H7.42627V11.7056H8.75172V12.491H7.42627V13.391H8.75172V15.1092H9.76627V13.391H11.6154V12.491H9.76627V11.7056H11.6808ZM9.76627 10.8056V7.63102H11.6808C12.859 7.63102 13.4154 8.30193 13.4154 9.21829C13.4154 10.1347 12.859 10.8056 11.6808 10.8056H9.76627Z" fill="#1C1C1C"/>
</svg>
