<svg width="48" height="48" viewBox="0 0 48 48" fill="none" xmlns="http://www.w3.org/2000/svg">
<path d="M36.6943 9.49219L11.3723 34.8141M32.5369 31.3408V34.5574L34.6813 35.6296M19.1229 10.9636C19.1229 14.3653 16.3653 17.123 12.9635 17.123C9.56179 17.123 6.80414 14.3653 6.80414 10.9636C6.80414 7.56185 9.56179 4.8042 12.9635 4.8042C16.3653 4.8042 19.1229 7.56185 19.1229 10.9636Z" stroke="white" stroke-width="1.25" stroke-linecap="round" stroke-linejoin="round"/>
<path d="M28.4447 38.7497C29.5838 39.7884 31.058 40.3836 32.599 40.4268C34.14 40.47 35.6453 39.9584 36.8408 38.9851C38.0364 38.0119 38.8426 36.6417 39.1129 35.1239C39.3831 33.6062 39.0994 32.0419 38.3133 30.7158C37.5272 29.3897 36.291 28.3899 34.8298 27.8986C33.3686 27.4072 31.7795 27.4569 30.3519 28.0386C28.9242 28.6204 27.753 29.6954 27.0513 31.068C26.3496 32.4407 26.1641 34.0197 26.5287 35.5176M28.4447 38.7497L30.1243 38.5784M28.4447 38.7497L28.4447 40.4268" stroke="#FF3636" stroke-width="1.25" stroke-linecap="round" stroke-linejoin="round"/>
</svg>
