<svg width="24" height="24" viewBox="0 0 24 24" fill="none" xmlns="http://www.w3.org/2000/svg">
<g clip-path="url(#clip0_21_10416)">
<path d="M14.1201 14.1201C13.8455 14.4149 13.5143 14.6513 13.1463 14.8153C12.7783 14.9792 12.381 15.0674 11.9782 15.0745C11.5754 15.0816 11.1753 15.0075 10.8017 14.8566C10.4282 14.7057 10.0888 14.4812 9.80397 14.1963C9.51909 13.9114 9.29452 13.5721 9.14363 13.1985C8.99275 12.825 8.91865 12.4249 8.92576 12.022C8.93286 11.6192 9.02103 11.222 9.185 10.854C9.34897 10.486 9.58537 10.1548 9.88012 9.88013M1.00012 1.00012L23.0001 23.0001M17.9401 17.9401C16.2307 19.2431 14.1492 19.965 12.0001 20.0001C5.00012 20.0001 1.00012 12.0001 1.00012 12.0001C2.24401 9.68202 3.96926 7.65674 6.06012 6.06013L17.9401 17.9401ZM9.90012 4.24013C10.5885 4.07901 11.2932 3.99847 12.0001 4.00013C19.0001 4.00013 23.0001 12.0001 23.0001 12.0001C22.3931 13.1357 21.6692 14.2049 20.8401 15.1901L9.90012 4.24013Z" stroke="#1C1C1C" stroke-width="1.25" stroke-linecap="round" stroke-linejoin="round"/>
</g>
<defs>
<clipPath id="clip0_21_10416">
<rect width="24" height="24" fill="white"/>
</clipPath>
</defs>
</svg>
