<svg width="16" height="16" viewBox="0 0 16 16" fill="none" xmlns="http://www.w3.org/2000/svg">
<path d="M7.99992 5.33325C6.52716 5.33325 5.33325 6.52716 5.33325 7.99992C5.33325 9.47268 6.52716 10.6666 7.99992 10.6666C9.47268 10.6666 10.6666 9.47268 10.6666 7.99992C10.6666 6.52716 9.47268 5.33325 7.99992 5.33325ZM7.99992 5.33325H14.1133M2.63325 4.03992L5.69325 9.33325M7.25325 14.6266L10.3066 9.33325M14.6666 7.99992C14.6666 11.6818 11.6818 14.6666 7.99992 14.6666C4.31802 14.6666 1.33325 11.6818 1.33325 7.99992C1.33325 4.31802 4.31802 1.33325 7.99992 1.33325C11.6818 1.33325 14.6666 4.31802 14.6666 7.99992Z" stroke="#1C1C1C" stroke-width="1.25" stroke-linecap="round" stroke-linejoin="round"/>
</svg>
