<svg width="56" height="32" viewBox="0 0 56 32" fill="none" xmlns="http://www.w3.org/2000/svg">
<g clip-path="url(#clip0)">
<path d="M56.1142 13.4852V21.3087H53.334V15.8207H50.657V21.3087H47.8767V13.4847H56.1142V13.4852Z" fill="#1C1C1C"/>
<path fill-rule="evenodd" clip-rule="evenodd" d="M42.1668 21.5884C44.6557 21.5884 46.5039 20.0551 46.5039 17.7305C46.5039 15.4807 45.1403 14.0199 42.8614 14.0199C41.8096 14.0199 40.9418 14.3919 40.2881 15.0337C40.4442 13.7071 41.5607 12.7385 42.79 12.7385C43.0737 12.7385 45.2096 12.734 45.2096 12.734L46.4173 10.4116C46.4173 10.4116 43.7358 10.4729 42.4893 10.4729C39.6411 10.5228 37.7173 13.1241 37.7173 16.2836C37.7173 19.9644 39.5936 21.5884 42.1668 21.5884ZM42.182 16.0769C43.1061 16.0769 43.7467 16.6871 43.7467 17.7303C43.7467 18.6692 43.1774 19.4428 42.182 19.4449C41.2297 19.4449 40.5891 18.7281 40.5891 17.7463C40.5891 16.7028 41.2297 16.0769 42.182 16.0769Z" fill="#1C1C1C"/>
<path d="M35.4543 18.6895C35.4543 18.6895 34.7977 19.0697 33.8171 19.1417C32.6897 19.1753 31.6852 18.4599 31.6852 17.1887C31.6852 15.9487 32.5716 15.238 33.7887 15.238C34.5349 15.238 35.5222 15.7577 35.5222 15.7577C35.5222 15.7577 36.2446 14.4257 36.6188 13.7596C35.9335 13.2377 35.0209 12.9516 33.9593 12.9516C31.2802 12.9516 29.2051 14.7068 29.2051 17.1729C29.2051 19.6705 31.1554 21.3849 33.9593 21.3332C34.743 21.3039 35.8242 21.0273 36.4832 20.602L35.4543 18.6895Z" fill="#1C1C1C"/>
<path d="M0 6.96534L3.85667 13.892V18.1171L0.00451166 25.0301L0 6.96534Z" fill="#5B57A2"/>
<path d="M14.8081 11.3715L18.4219 9.14586L25.8179 9.13893L14.8081 15.916V11.3715Z" fill="#D90751"/>
<path d="M14.7876 6.92453L14.8081 16.0952L10.9424 13.7085V0L14.7879 6.92453H14.7876Z" fill="#FAB718"/>
<path d="M25.8178 9.13893L18.4217 9.14587L14.7876 6.92453L10.9424 0L25.8176 9.13893H25.8178Z" fill="#ED6F26"/>
<path d="M14.8081 25.0685V20.6192L10.9424 18.2779L10.9445 32L14.8081 25.0685Z" fill="#63B22F"/>
<path d="M18.4129 22.8632L3.8564 13.892L0 6.96534L25.8022 22.8541L18.4126 22.8632H18.4129Z" fill="#1487C9"/>
<path d="M10.9448 32L14.8079 25.0685L18.4127 22.8632L25.802 22.8541L10.9448 32Z" fill="#017F36"/>
<path d="M0.00439453 25.0301L10.9738 18.2781L7.28594 16.0045L3.85655 18.1171L0.00439453 25.0301Z" fill="#984995"/>
</g>
<defs>
<clipPath id="clip0">
<rect width="56" height="32" fill="white"/>
</clipPath>
</defs>
</svg>
