<svg width="24" height="24" viewBox="0 0 24 24" fill="none" xmlns="http://www.w3.org/2000/svg">
<path d="M18.215 12.84C18.215 13.1852 18.4948 13.465 18.84 13.465C19.1852 13.465 19.465 13.1852 19.465 12.84H18.215ZM12.84 19.465C13.1852 19.465 13.465 19.1852 13.465 18.84C13.465 18.4948 13.1852 18.215 12.84 18.215V19.465ZM4.76 3.625H17.08V2.375H4.76V3.625ZM17.08 3.625C17.7068 3.625 18.215 4.13316 18.215 4.76H19.465C19.465 3.4428 18.3972 2.375 17.08 2.375V3.625ZM4.76 18.215C4.13316 18.215 3.625 17.7068 3.625 17.08H2.375C2.375 18.3972 3.4428 19.465 4.76 19.465V18.215ZM3.625 17.08V4.76H2.375V17.08H3.625ZM3.625 4.76C3.625 4.13316 4.13316 3.625 4.76 3.625V2.375C3.4428 2.375 2.375 3.4428 2.375 4.76H3.625ZM18.215 4.76V12.84H19.465V4.76H18.215ZM12.84 18.215H4.76V19.465H12.84V18.215Z" fill="#1C1C1C"/>
<path d="M18.84 21L18.84 16.68" stroke="#FF3636" stroke-width="1.25" stroke-linecap="round" stroke-linejoin="round"/>
<path d="M21 18.84H16.68" stroke="#FF3636" stroke-width="1.25" stroke-linecap="round" stroke-linejoin="round"/>
<path d="M11.6808 11.7056C13.5463 11.7056 14.4135 10.5765 14.4135 9.21829C14.4135 7.86011 13.5463 6.73102 11.6808 6.73102H8.75172V10.8056H7.42627V11.7056H8.75172V12.491H7.42627V13.391H8.75172V15.1092H9.76627V13.391H11.6154V12.491H9.76627V11.7056H11.6808ZM9.76627 10.8056V7.63102H11.6808C12.859 7.63102 13.4154 8.30193 13.4154 9.21829C13.4154 10.1347 12.859 10.8056 11.6808 10.8056H9.76627Z" fill="#1C1C1C"/>
</svg>
