<svg width="16" height="16" viewBox="0 0 16 16" fill="none" xmlns="http://www.w3.org/2000/svg">
<path d="M9.19409 12.0683C9.57055 12.1758 9.96811 12.2333 10.379 12.2333C12.7432 12.2333 14.6667 10.3268 14.6667 7.98334C14.6667 5.63987 12.7432 3.73334 10.3789 3.73334C9.96809 3.73334 9.57054 3.79091 9.19409 3.89835" stroke="black" stroke-width="1.25"/>
<path d="M6.81519 12.0683C7.19165 12.1758 7.5892 12.2333 8.00007 12.2333C10.3643 12.2333 12.2878 10.3268 12.2878 7.98334C12.2878 5.63987 10.3643 3.73334 8.00004 3.73334C7.58918 3.73334 7.19164 3.79091 6.81519 3.89835" stroke="black" stroke-width="1.25"/>
<path d="M5.62112 12.2333C3.25686 12.2333 1.33337 10.3268 1.33337 7.98334C1.33337 5.63987 3.25683 3.73334 5.62109 3.73334C7.98535 3.73334 9.90883 5.63987 9.90883 7.98334C9.90883 10.3268 7.98538 12.2333 5.62112 12.2333Z" stroke="black" stroke-width="1.25"/>
</svg>
