<svg width="16" height="16" viewBox="0 0 16 16" fill="none" xmlns="http://www.w3.org/2000/svg">
<path d="M10.4487 4C10.0542 4 9.67185 4.05099 9.30797 4.14604C8.94407 4.05099 8.56173 4 8.16728 4C7.77283 4 7.39047 4.05099 7.02659 4.14604C6.66269 4.05099 6.28035 4 5.8859 4C3.46735 4 1.49976 5.9061 1.49976 8.24903C1.49976 10.592 3.46735 12.4981 5.88585 12.4981C6.28033 12.4981 6.66267 12.4471 7.02654 12.352C7.39044 12.4471 7.77278 12.4981 8.16723 12.4981C8.56168 12.4981 8.94405 12.4471 9.30792 12.352C9.67182 12.4471 10.0542 12.4981 10.4486 12.4981C12.8672 12.4981 14.8348 10.592 14.8348 8.24903C14.8348 5.9061 12.8672 4 10.4487 4ZM5.88588 11.7411C3.89821 11.7411 2.2811 10.1746 2.2811 8.24903C2.2811 6.32347 3.89818 4.75693 5.88585 4.75693C7.87352 4.75693 9.49062 6.32347 9.49062 8.24903C9.49062 10.1746 7.87355 11.7411 5.88588 11.7411ZM8.39192 11.7342C9.52756 10.9655 10.272 9.68997 10.272 8.24903C10.272 6.80809 9.52756 5.53258 8.39192 4.76389C10.2753 4.87665 11.772 6.39657 11.772 8.24903C11.772 10.1015 10.2753 11.6214 8.39192 11.7342ZM10.6733 11.7342C11.809 10.9655 12.5534 9.68997 12.5534 8.24903C12.5534 6.80809 11.8089 5.53258 10.6733 4.76389C12.5567 4.87668 14.0534 6.39657 14.0534 8.24903C14.0534 10.1015 12.5567 11.6214 10.6733 11.7342Z" fill="#1C1C1C"/>
</svg>
