<svg width="24" height="24" viewBox="0 0 24 24" fill="none" xmlns="http://www.w3.org/2000/svg">
<mask id="path-1-outside-1_1918_7601" maskUnits="userSpaceOnUse" x="2" y="0" width="20" height="24" fill="black">
<rect fill="white" x="2" width="20" height="24"/>
<path fill-rule="evenodd" clip-rule="evenodd" d="M14.0456 2.11258C14.0211 2.1791 14.0962 2.60586 14.2127 3.06076C14.3291 3.51565 14.4238 3.91334 14.4232 3.94438C14.4224 3.97551 14.2957 3.77003 14.1416 3.48786C13.8034 2.8688 13.4168 2.4617 13.2357 2.53395C12.7532 2.72651 12.9276 3.91129 13.7086 5.74694L14.1242 6.72343L14.0271 7.3118C13.9235 7.94001 13.715 8.44604 13.4669 8.67143C13.382 8.74847 12.8322 8.9094 12.2287 9.03381C8.68559 9.7642 6.62266 11.136 5.46002 13.5349C4.97081 14.5442 4.60972 15.8304 4.50824 16.9249C4.47551 17.278 4.35643 17.7456 4.20858 18.1015C4.02758 18.5374 3.97552 18.7706 4.00998 18.9914C4.06549 19.3467 4.40207 19.7387 4.77081 19.8773C4.9167 19.9322 5.0741 20.0638 5.12056 20.1698C5.34481 20.6817 6.45638 21.0451 8.09235 21.1416C9.00762 21.1956 9.31082 21.2493 9.81928 21.4473C10.6105 21.7555 11.6683 21.8005 11.9483 21.5378C12.291 21.2162 12.117 20.6425 11.5136 20.1046L11.2752 19.8923L11.9658 19.4887C12.3456 19.2668 12.8969 18.8759 13.1909 18.6203C13.9847 17.9299 14.0692 17.8755 14.2541 17.9365C14.424 17.9926 14.466 18.106 14.7134 19.1755C14.8521 19.775 14.855 19.7815 15.4989 20.9637C15.9672 21.8234 16.1808 22 16.7524 22C17.124 22 17.7746 21.7903 17.9683 21.6079C18.1825 21.4062 18.1626 21.2457 17.8739 20.8489C17.5833 20.4495 17.3126 19.5982 17.2474 18.879C17.208 18.443 17.246 18.2184 17.5009 17.3827C17.8973 16.0833 18.088 15.0645 18.2449 13.4066C18.4286 11.4667 18.6546 10.5105 18.9525 10.4122C19.2163 10.3251 19.8443 9.52077 19.9415 9.14557C20.3508 7.56506 18.5469 5.53147 16.5383 5.30898C16.3339 5.28632 16.2786 5.20629 16.0381 4.58448C15.5827 3.40732 14.9094 2.38047 14.4202 2.11754C14.1308 1.96183 14.1014 1.96149 14.0456 2.11258Z"/>
</mask>
<path fill-rule="evenodd" clip-rule="evenodd" d="M14.0456 2.11258C14.0211 2.1791 14.0962 2.60586 14.2127 3.06076C14.3291 3.51565 14.4238 3.91334 14.4232 3.94438C14.4224 3.97551 14.2957 3.77003 14.1416 3.48786C13.8034 2.8688 13.4168 2.4617 13.2357 2.53395C12.7532 2.72651 12.9276 3.91129 13.7086 5.74694L14.1242 6.72343L14.0271 7.3118C13.9235 7.94001 13.715 8.44604 13.4669 8.67143C13.382 8.74847 12.8322 8.9094 12.2287 9.03381C8.68559 9.7642 6.62266 11.136 5.46002 13.5349C4.97081 14.5442 4.60972 15.8304 4.50824 16.9249C4.47551 17.278 4.35643 17.7456 4.20858 18.1015C4.02758 18.5374 3.97552 18.7706 4.00998 18.9914C4.06549 19.3467 4.40207 19.7387 4.77081 19.8773C4.9167 19.9322 5.0741 20.0638 5.12056 20.1698C5.34481 20.6817 6.45638 21.0451 8.09235 21.1416C9.00762 21.1956 9.31082 21.2493 9.81928 21.4473C10.6105 21.7555 11.6683 21.8005 11.9483 21.5378C12.291 21.2162 12.117 20.6425 11.5136 20.1046L11.2752 19.8923L11.9658 19.4887C12.3456 19.2668 12.8969 18.8759 13.1909 18.6203C13.9847 17.9299 14.0692 17.8755 14.2541 17.9365C14.424 17.9926 14.466 18.106 14.7134 19.1755C14.8521 19.775 14.855 19.7815 15.4989 20.9637C15.9672 21.8234 16.1808 22 16.7524 22C17.124 22 17.7746 21.7903 17.9683 21.6079C18.1825 21.4062 18.1626 21.2457 17.8739 20.8489C17.5833 20.4495 17.3126 19.5982 17.2474 18.879C17.208 18.443 17.246 18.2184 17.5009 17.3827C17.8973 16.0833 18.088 15.0645 18.2449 13.4066C18.4286 11.4667 18.6546 10.5105 18.9525 10.4122C19.2163 10.3251 19.8443 9.52077 19.9415 9.14557C20.3508 7.56506 18.5469 5.53147 16.5383 5.30898C16.3339 5.28632 16.2786 5.20629 16.0381 4.58448C15.5827 3.40732 14.9094 2.38047 14.4202 2.11754C14.1308 1.96183 14.1014 1.96149 14.0456 2.11258Z" stroke="#1C1C1C" stroke-width="2.5" stroke-linejoin="round" mask="url(#path-1-outside-1_1918_7601)"/>
</svg>
