<svg width="24" height="24" viewBox="0 0 24 24" fill="none" xmlns="http://www.w3.org/2000/svg">
<path d="M1.99988 16.1001C2.96077 16.2961 3.84282 16.7703 4.53626 17.4637C5.2297 18.1572 5.70391 19.0392 5.89988 20.0001M1.99988 12.0501C4.03067 12.276 5.92415 13.1862 7.36899 14.631C8.81383 16.0758 9.72401 17.9693 9.94988 20.0001M1.99988 8.00012V6.00012C1.99988 5.46969 2.21059 4.96098 2.58566 4.58591C2.96074 4.21084 3.46944 4.00012 3.99988 4.00012H19.9999C20.5303 4.00012 21.039 4.21084 21.4141 4.58591C21.7892 4.96098 21.9999 5.46969 21.9999 6.00012V18.0001C21.9999 18.5306 21.7892 19.0393 21.4141 19.4143C21.039 19.7894 20.5303 20.0001 19.9999 20.0001H13.9999M1.99988 20.0001H2.00988" stroke="#1C1C1C" stroke-width="1.25" stroke-linecap="round" stroke-linejoin="round"/>
</svg>
