<svg width="24" height="24" viewBox="0 0 24 24" fill="none" xmlns="http://www.w3.org/2000/svg">
<path d="M12.8582 13.2398L10.2164 13.2398L10.2164 8.62861L12.8582 8.62861M12.8582 13.2398L15.5 13.2398L15.5 11L15.5 8.62861L12.8582 8.62861M12.8582 13.2398L12.8582 8.62861M20 12.5658L20 11L20 6.71429C20 5.76751 19.1941 5 18.2 5L3.8 5C2.80589 5 2 5.76751 2 6.71429L2 11L2 15.2857C2 16.2325 2.80589 17 3.8 17L11 17L14.6 17L15.8105 17" stroke="#1C1C1C" stroke-width="1.25" stroke-linecap="round" stroke-linejoin="round"/>
<path d="M20.0001 19L20.0001 15M22 17.0001L18 17.0001" stroke="#FF3636" stroke-width="1.25" stroke-linecap="round" stroke-linejoin="round"/>
</svg>
