<svg width="24" height="24" viewBox="0 0 24 24" fill="none" xmlns="http://www.w3.org/2000/svg">
<g clip-path="url(#clip0_21_10510)">
<path d="M22.6101 16.9501C22.9323 16.1894 23.061 15.3608 22.9847 14.5382C22.9083 13.7156 22.6294 12.9247 22.1727 12.2363C21.7161 11.5479 21.096 10.9833 20.3678 10.5931C19.6397 10.2029 18.8262 9.99914 18.0001 10.0001H16.7401C16.3319 8.39261 15.4342 6.9517 14.1712 5.87678C12.9081 4.80185 11.3422 4.14605 9.69011 4.00012M5.00011 5.00012C3.43819 5.86376 2.20992 7.22491 1.5107 8.86703C0.811481 10.5092 0.681466 12.3379 1.14134 14.0625C1.60121 15.787 2.62456 17.3082 4.0486 18.3841C5.47263 19.4601 7.21555 20.0289 9.00011 20.0001H18.0001C18.5799 19.9994 19.1551 19.8979 19.7001 19.7001M1.00011 1.00012L23.0001 23.0001" stroke="#1C1C1C" stroke-width="1.25" stroke-linecap="round" stroke-linejoin="round"/>
</g>
<defs>
<clipPath id="clip0_21_10510">
<rect width="24" height="24" fill="white"/>
</clipPath>
</defs>
</svg>
