<svg width="64" height="64" viewBox="0 0 64 64" fill="none" xmlns="http://www.w3.org/2000/svg">
<rect width="64" height="64" rx="32" fill="#C5E1A4"/>
<path d="M14.4001 14.3999H20.8001L25.0881 35.8239C25.2344 36.5605 25.6352 37.2222 26.2202 37.6932C26.8052 38.1641 27.5372 38.4143 28.2881 38.3999H43.8401C44.591 38.4143 45.323 38.1641 45.908 37.6932C46.4931 37.2222 46.8938 36.5605 47.0401 35.8239L49.6001 22.3999H22.4001M28.8001 46.3999C28.8001 47.2836 28.0838 47.9999 27.2001 47.9999C26.3165 47.9999 25.6001 47.2836 25.6001 46.3999C25.6001 45.5162 26.3165 44.7999 27.2001 44.7999C28.0838 44.7999 28.8001 45.5162 28.8001 46.3999ZM46.4001 46.3999C46.4001 47.2836 45.6838 47.9999 44.8001 47.9999C43.9165 47.9999 43.2001 47.2836 43.2001 46.3999C43.2001 45.5162 43.9165 44.7999 44.8001 44.7999C45.6838 44.7999 46.4001 45.5162 46.4001 46.3999Z" stroke="white" stroke-width="2" stroke-linecap="round" stroke-linejoin="round"/>
</svg>
