<svg width="24" height="24" viewBox="0 0 24 24" fill="none" xmlns="http://www.w3.org/2000/svg">
<path d="M19.8306 5.94755H16.4834C15.9914 3.8684 14.1349 2.39999 11.9984 2.39999C9.86181 2.39999 8.00537 3.8684 7.51337 5.94755H4.16617C3.59167 5.94755 3.04069 6.17577 2.63446 6.58201C2.22822 6.98824 2 7.53921 2 8.11372V16.3636C2 17.5599 2.96983 18.5298 4.16617 18.5298H14.1156L17.6414 21.37C17.8142 21.5102 18.0523 21.5383 18.253 21.4423C18.4537 21.3462 18.5812 21.1432 18.5804 20.9206V18.5298H20.7178C21.4725 18.5298 22.0025 17.6368 22.0025 16.3636V8.11372C22.0025 7.53822 21.7735 6.98637 21.366 6.57996C20.9585 6.17356 20.4061 5.94602 19.8306 5.94755Z" stroke="black" stroke-width="1.25"/>
<path d="M6.75 6.89999H7.37488C7.37488 9.44541 9.43835 11.5089 11.9838 11.5089C14.5292 11.5089 16.5926 9.44541 16.5926 6.89999H17.25" stroke="black" stroke-width="1.25"/>
<path d="M10.25 7.72501C10.6642 7.72501 11 7.38922 11 6.97501C11 6.56079 10.6642 6.22501 10.25 6.22501C9.83579 6.22501 9.5 6.56079 9.5 6.97501C9.5 7.38922 9.83579 7.72501 10.25 7.72501Z" fill="#1C1C1C"/>
<path d="M13.35 7.72501C13.7642 7.72501 14.1 7.38922 14.1 6.97501C14.1 6.56079 13.7642 6.22501 13.35 6.22501C12.9358 6.22501 12.6 6.56079 12.6 6.97501C12.6 7.38922 12.9358 7.72501 13.35 7.72501Z" fill="#1C1C1C"/>
</svg>
