<svg width="24" height="24" viewBox="0 0 24 24" fill="none" xmlns="http://www.w3.org/2000/svg">
<path fill-rule="evenodd" clip-rule="evenodd" d="M20.0806 5.79755H16.7334C16.2414 3.71841 14.3849 2.25 12.2484 2.25C10.1118 2.25 8.25537 3.71841 7.76337 5.79755H4.41617C3.84167 5.79755 3.29069 6.02578 2.88446 6.43201C2.47822 6.83825 2.25 7.38922 2.25 7.96373V16.2136C2.25 17.41 3.21983 18.3798 4.41617 18.3798H14.3656L17.8914 21.22C18.0642 21.3602 18.3023 21.3883 18.503 21.2923C18.7037 21.1962 18.8312 20.9932 18.8304 20.7706V18.3798H20.9678C21.7225 18.3798 22.2525 17.4868 22.2525 16.2136V7.96373C22.2525 7.38822 22.0235 6.83637 21.616 6.42997C21.2085 6.02357 20.6561 5.79602 20.0806 5.79755ZM9.79098 4.44944C10.9571 3.2848 12.7832 3.10538 14.1537 4.02081C15.5241 4.93624 16.0577 6.69188 15.4284 8.21509C14.7991 9.73829 13.182 10.6054 11.565 10.2866C9.94806 9.96775 8.78107 8.55174 8.77703 6.90366C8.77477 5.98322 9.13972 5.09988 9.79098 4.44944ZM20.8697 17.2274C21.0369 16.9167 21.1147 16.5657 21.0944 16.2135L21.0713 7.9636C21.0713 7.4036 20.6174 6.94964 20.0574 6.94964H16.8427C16.8427 9.49506 14.7792 11.5585 12.2338 11.5585C9.68839 11.5585 7.62493 9.49506 7.62493 6.94964H4.41024C3.85025 6.94964 3.39628 7.4036 3.39628 7.9636V16.2135C3.39628 16.7735 3.85025 17.2274 4.41024 17.2274H14.567C14.699 17.2269 14.8271 17.2716 14.93 17.3542L17.678 19.5664V17.8035C17.678 17.4854 17.936 17.2274 18.2541 17.2274H20.8697Z" fill="#1C1C1C"/>
<circle cx="10.8875" cy="6.95011" r="0.681903" fill="#1C1C1C"/>
<circle cx="13.6151" cy="6.95011" r="0.681903" fill="#1C1C1C"/>
</svg>
