<svg width="16" height="16" viewBox="0 0 16 16" fill="none" xmlns="http://www.w3.org/2000/svg">
<g clip-path="url(#clip0_3472_10215)">
<path d="M8.02698 9.48809L7.4866 9.80212C7.59913 9.99576 7.80667 10.1144 8.03063 10.1131C8.25459 10.1118 8.46073 9.99074 8.57099 9.79579L8.02698 9.48809ZM3.91475 9.78042C3.79355 10.1036 3.95731 10.4639 4.28051 10.5851C4.60371 10.7063 4.96396 10.5425 5.08516 10.2193L3.91475 9.78042ZM5.99996 5.99988L6.54034 5.68585C6.41902 5.47707 6.18827 5.35685 5.94763 5.37707C5.707 5.39729 5.49954 5.55432 5.41475 5.78042L5.99996 5.99988ZM9.99996 5.99988L10.5852 5.78042C10.4999 5.55308 10.2907 5.39569 10.0487 5.37677C9.80659 5.35786 9.57548 5.48084 9.45595 5.69218L9.99996 5.99988ZM10.9148 10.2193C11.036 10.5425 11.3962 10.7063 11.7194 10.5851C12.0426 10.4639 12.2064 10.1036 12.0852 9.78042L10.9148 10.2193ZM8.56737 9.17407L6.54034 5.68585L5.45957 6.3139L7.4866 9.80212L8.56737 9.17407ZM5.41475 5.78042L3.91475 9.78042L5.08516 10.2193L6.58516 6.21933L5.41475 5.78042ZM8.57099 9.79579L10.544 6.30757L9.45595 5.69218L7.48297 9.1804L8.57099 9.79579ZM9.41475 6.21933L10.9148 10.2193L12.0852 9.78042L10.5852 5.78042L9.41475 6.21933ZM14.1749 7.99999C14.1749 11.4103 11.4103 14.175 7.99995 14.175V15.425C12.1007 15.425 15.4249 12.1007 15.4249 7.99999H14.1749ZM7.99995 14.175C4.58959 14.175 1.82495 11.4103 1.82495 7.99999H0.574951C0.574951 12.1007 3.89924 15.425 7.99995 15.425V14.175ZM1.82495 7.99999C1.82495 4.58963 4.58959 1.82499 7.99995 1.82499V0.574989C3.89924 0.574989 0.574951 3.89927 0.574951 7.99999H1.82495ZM7.99995 1.82499C11.4103 1.82499 14.1749 4.58963 14.1749 7.99999H15.4249C15.4249 3.89927 12.1007 0.574989 7.99995 0.574989V1.82499Z" fill="#1C1C1C"/>
</g>
<defs>
<clipPath id="clip0_3472_10215">
<rect width="16" height="16" fill="white"/>
</clipPath>
</defs>
</svg>
