<svg width="16" height="16" viewBox="0 0 16 16" fill="none" xmlns="http://www.w3.org/2000/svg">
<path d="M7.13771 9.12399C7.19141 9.12399 7.23616 9.14369 7.27196 9.18309C7.31136 9.21889 7.33106 9.26364 7.33106 9.31739C7.33106 9.36749 7.31136 9.41049 7.27196 9.44629C7.23616 9.48209 7.19141 9.49999 7.13771 9.49999H5.77881C5.72871 9.49999 5.68391 9.48209 5.64456 9.44629C5.60871 9.41049 5.59081 9.36749 5.59081 9.31739C5.59081 9.26724 5.60871 9.22249 5.64456 9.18309C5.68036 9.14369 5.72511 9.12399 5.77881 9.12399H6.29981V6.89499L5.85401 7.11524C5.83971 7.12239 5.82357 7.12954 5.80567 7.13669C5.79137 7.14029 5.76451 7.14209 5.72511 7.14209C5.68931 7.14209 5.65351 7.12599 5.61771 7.09374C5.58186 7.05794 5.56396 7.00424 5.56396 6.93259C5.56396 6.86099 5.60156 6.80729 5.67676 6.77149L6.27831 6.45994C6.31771 6.43849 6.35892 6.42774 6.40187 6.42774H6.49317C6.55046 6.42774 6.59881 6.44919 6.63821 6.49219C6.68116 6.53159 6.70266 6.57989 6.70266 6.63719V9.12399H7.13771ZM10.089 9.12399C10.1427 9.12399 10.1875 9.14369 10.2233 9.18309C10.2591 9.21889 10.277 9.26364 10.277 9.31739C10.277 9.36749 10.2591 9.41049 10.2233 9.44629C10.1875 9.48209 10.1427 9.49999 10.089 9.49999H8.39177C8.32372 9.49999 8.26821 9.47849 8.22527 9.43554C8.18227 9.39259 8.16081 9.33884 8.16081 9.27439C8.16081 9.12044 8.20376 8.98079 8.28971 8.85544C8.37561 8.73014 8.48306 8.61554 8.61196 8.51169C8.74086 8.40429 8.88231 8.30404 9.03626 8.21094C9.19026 8.11784 9.33171 8.02474 9.46061 7.93164C9.59306 7.83854 9.70232 7.74184 9.78822 7.64159C9.87417 7.54134 9.91716 7.44109 9.91716 7.34079C9.91716 7.24054 9.90461 7.15819 9.87956 7.09374C9.85446 7.02569 9.81511 6.96839 9.76136 6.92189C9.64321 6.81444 9.46241 6.76074 9.21891 6.76074C8.95751 6.76074 8.70687 6.81444 8.46697 6.92189C8.43832 6.93619 8.40426 6.94334 8.36491 6.94334C8.32911 6.94334 8.29506 6.92724 8.26286 6.89499C8.23421 6.86279 8.21986 6.81624 8.21986 6.75534C8.21986 6.69449 8.25031 6.64614 8.31116 6.61034C8.60836 6.45994 8.93601 6.38474 9.29411 6.38474C9.58056 6.38474 9.81866 6.46709 10.0085 6.63184C10.2054 6.79654 10.3039 7.01139 10.3039 7.27634C10.3039 7.54134 10.1696 7.79914 9.90101 8.04979C9.78286 8.15724 9.65396 8.25749 9.51432 8.35059C9.37827 8.44009 9.24576 8.52959 9.11686 8.61914C8.98796 8.70509 8.87156 8.78924 8.76771 8.87159C8.66387 8.95394 8.59407 9.03809 8.55827 9.12399H10.089Z" fill="#1C1C1C"/>
<path d="M7.27194 9.18306L7.16099 9.28396L7.16579 9.28926L7.17104 9.29406L7.27194 9.18306ZM7.27194 9.44626L7.17104 9.33526L7.16844 9.33766L7.16589 9.34016L7.27194 9.44626ZM5.64454 9.44626L5.53844 9.55231L5.54099 9.55486L5.54364 9.55726L5.64454 9.44626ZM5.64454 9.18306L5.53354 9.08216L5.64454 9.18306ZM6.29979 9.12396V9.27396H6.44979V9.12396H6.29979ZM6.29979 6.89496H6.44979V6.65356L6.23334 6.76051L6.29979 6.89496ZM5.85399 7.11521L5.78754 6.98071L5.78689 6.98101L5.85399 7.11521ZM5.80564 7.13666L5.84204 7.28221L5.85189 7.27971L5.86134 7.27596L5.80564 7.13666ZM5.61769 7.09371L5.51159 7.19976L5.51439 7.20256L5.51734 7.20521L5.61769 7.09371ZM5.67674 6.77146L5.74129 6.90696L5.74574 6.90466L5.67674 6.77146ZM6.27829 6.45991L6.34729 6.59316L6.35014 6.59161L6.27829 6.45991ZM6.63819 6.49216L6.52759 6.59351L6.53199 6.59831L6.53679 6.60271L6.63819 6.49216ZM6.70264 9.12396H6.55264V9.27396H6.70264V9.12396ZM7.13769 9.27396C7.14579 9.27396 7.14959 9.27536 7.15114 9.27606C7.15264 9.27671 7.15594 9.27841 7.16099 9.28396L7.38294 9.08216C7.31844 9.01121 7.23324 8.97396 7.13769 8.97396V9.27396ZM7.17104 9.29406C7.17659 9.29911 7.17829 9.30241 7.17899 9.30391C7.17964 9.30546 7.18104 9.30921 7.18104 9.31736H7.48104C7.48104 9.22181 7.44384 9.13661 7.37284 9.07206L7.17104 9.29406ZM7.18104 9.31736C7.18104 9.32216 7.18024 9.32396 7.17989 9.32466C7.17949 9.32556 7.17769 9.32926 7.17104 9.33526L7.37284 9.55726C7.44134 9.49501 7.48104 9.41261 7.48104 9.31736H7.18104ZM7.16589 9.34016C7.16004 9.34601 7.15429 9.34996 7.13769 9.34996V9.64996C7.22849 9.64996 7.31224 9.61811 7.37804 9.55231L7.16589 9.34016ZM7.13769 9.34996H5.77879V9.64996H7.13769V9.34996ZM5.77879 9.34996C5.76844 9.34996 5.75909 9.34766 5.74544 9.33526L5.54364 9.55726C5.60874 9.61646 5.68889 9.64996 5.77879 9.64996V9.34996ZM5.75059 9.34016C5.74259 9.33221 5.74079 9.32726 5.74079 9.31736H5.44079C5.44079 9.40771 5.47484 9.48871 5.53844 9.55231L5.75059 9.34016ZM5.74079 9.31736C5.74079 9.30696 5.74309 9.29761 5.75549 9.28396L5.53354 9.08216C5.47434 9.14731 5.44079 9.22746 5.44079 9.31736H5.74079ZM5.75549 9.28396C5.76054 9.27841 5.76384 9.27671 5.76534 9.27606C5.76689 9.27536 5.77069 9.27396 5.77879 9.27396V8.97396C5.68324 8.97396 5.59804 9.01121 5.53354 9.08216L5.75549 9.28396ZM5.77879 9.27396H6.29979V8.97396H5.77879V9.27396ZM6.44979 9.12396V6.89496H6.14979V9.12396H6.44979ZM6.23334 6.76051L5.78754 6.98071L5.92044 7.24966L6.36624 7.02946L6.23334 6.76051ZM5.78689 6.98101C5.77699 6.98601 5.76474 6.99151 5.74994 6.99741L5.86134 7.27596C5.88239 7.26756 5.90239 7.25871 5.92109 7.24936L5.78689 6.98101ZM5.76929 6.99116C5.77304 6.99021 5.77469 6.99011 5.77314 6.99031C5.77189 6.99046 5.76924 6.99076 5.76479 6.99106C5.75584 6.99166 5.74284 6.99206 5.72509 6.99206V7.29206C5.76294 7.29206 5.80739 7.29086 5.84204 7.28221L5.76929 6.99116ZM5.72509 6.99206C5.72749 6.99206 5.72959 6.99231 5.73114 6.99271C5.73269 6.99301 5.73334 6.99336 5.73294 6.99316C5.73199 6.99276 5.72689 6.99021 5.71799 6.98221L5.51734 7.20521C5.57104 7.25356 5.64104 7.29206 5.72509 7.29206V6.99206ZM5.72374 6.98766C5.72374 6.98761 5.72339 6.98731 5.72279 6.98631C5.72214 6.98526 5.72099 6.98306 5.71969 6.97916C5.71699 6.97101 5.71394 6.95631 5.71394 6.93256H5.41394C5.41394 7.02731 5.43774 7.12591 5.51159 7.19976L5.72374 6.98766ZM5.71394 6.93256C5.71394 6.92791 5.71454 6.92576 5.71469 6.92531C5.71479 6.92501 5.71479 6.92496 5.71504 6.92461C5.71549 6.92401 5.72084 6.91661 5.74124 6.90686L5.61224 6.63601C5.55744 6.66211 5.50644 6.69946 5.46929 6.75256C5.43119 6.80696 5.41394 6.86896 5.41394 6.93256H5.71394ZM5.74574 6.90466L6.34729 6.59311L6.20934 6.32671L5.60779 6.63826L5.74574 6.90466ZM6.35014 6.59161C6.36849 6.58161 6.38509 6.57771 6.40184 6.57771V6.27771C6.33264 6.27771 6.26689 6.29526 6.20649 6.32826L6.35014 6.59161ZM6.40184 6.57771H6.49314V6.27771H6.40184V6.57771ZM6.49314 6.57771C6.50759 6.57771 6.51604 6.58091 6.52759 6.59351L6.74874 6.39081C6.68149 6.31746 6.59334 6.27771 6.49314 6.27771V6.57771ZM6.53679 6.60271C6.54939 6.61426 6.55264 6.62276 6.55264 6.63716H6.85264C6.85264 6.53701 6.81289 6.44881 6.73954 6.38156L6.53679 6.60271ZM6.55264 6.63716V9.12396H6.85264V6.63716H6.55264ZM6.70264 9.27396H7.13769V8.97396H6.70264V9.27396ZM10.2233 9.18306L10.1123 9.28396L10.1147 9.28661L10.1172 9.28911L10.2233 9.18306ZM10.2233 9.44626L10.3293 9.55231L10.2233 9.44626ZM8.61194 8.51166L8.70604 8.62851L8.70799 8.62691L8.61194 8.51166ZM9.03624 8.21091L8.95864 8.08256L9.03624 8.21091ZM9.46059 7.93161L9.37434 7.80886L9.37274 7.81001L9.46059 7.93161ZM9.87954 7.09371L9.73874 7.14556L9.73974 7.14806L9.87954 7.09371ZM9.76134 6.92186L9.66044 7.03286L9.66314 7.03521L9.76134 6.92186ZM8.46694 6.92186L8.40559 6.78481L8.39984 6.78766L8.46694 6.92186ZM8.26284 6.89496L8.15069 6.99461L8.15364 6.99791L8.15674 7.00106L8.26284 6.89496ZM8.31114 6.61031L8.24344 6.47646L8.23919 6.47861L8.23509 6.48101L8.31114 6.61031ZM10.0084 6.63181L9.91009 6.74511L9.91219 6.74686L10.0084 6.63181ZM9.90099 8.04976L10.0019 8.16076L10.0033 8.15941L9.90099 8.04976ZM9.51429 8.35056L9.59674 8.47586L9.59749 8.47536L9.51429 8.35056ZM9.11684 8.61911L9.20004 8.74391L9.20239 8.74231L9.11684 8.61911ZM8.55824 9.12396L8.41979 9.06631L8.33324 9.27396H8.55824V9.12396ZM10.089 9.27396C10.0971 9.27396 10.1009 9.27536 10.1024 9.27606C10.1039 9.27671 10.1072 9.27841 10.1123 9.28396L10.3342 9.08216C10.2697 9.01121 10.1845 8.97396 10.089 8.97396V9.27396ZM10.1172 9.28911C10.123 9.29496 10.127 9.30076 10.127 9.31736H10.427C10.427 9.22651 10.3951 9.14276 10.3293 9.07701L10.1172 9.28911ZM10.127 9.31736C10.127 9.32726 10.1252 9.33221 10.1172 9.34016L10.3293 9.55231C10.3929 9.48871 10.427 9.40771 10.427 9.31736H10.127ZM10.1172 9.34016C10.1114 9.34601 10.1056 9.34996 10.089 9.34996V9.64996C10.1798 9.64996 10.2635 9.61811 10.3293 9.55231L10.1172 9.34016ZM10.089 9.34996H8.39174V9.64996H10.089V9.34996ZM8.39174 9.34996C8.35829 9.34996 8.34264 9.34081 8.33129 9.32946L8.11914 9.54156C8.19374 9.61616 8.28909 9.64996 8.39174 9.64996V9.34996ZM8.33129 9.32946C8.31829 9.31646 8.31079 9.30171 8.31079 9.27436H8.01079C8.01079 9.37591 8.04624 9.46861 8.11914 9.54156L8.33129 9.32946ZM8.31079 9.27436C8.31079 9.15026 8.34484 9.04026 8.41339 8.94026L8.16599 8.77061C8.06264 8.92126 8.01079 9.09056 8.01079 9.27436H8.31079ZM8.41339 8.94026C8.49034 8.82801 8.58749 8.72396 8.70604 8.62851L8.51784 8.39486C8.37859 8.50706 8.26089 8.63221 8.16599 8.77061L8.41339 8.94026ZM8.70799 8.62691C8.83069 8.52466 8.96589 8.42871 9.11389 8.33926L8.95864 8.08256C8.79869 8.17926 8.65104 8.28386 8.51594 8.39646L8.70799 8.62691ZM9.11389 8.33926C9.27089 8.24431 9.41579 8.14896 9.54839 8.05321L9.37274 7.81001C9.24754 7.90041 9.10959 7.99126 8.95864 8.08256L9.11389 8.33926ZM9.54684 8.05431C9.68734 7.95561 9.80644 7.85076 9.90209 7.73916L9.67434 7.54396C9.59809 7.63286 9.49879 7.72141 9.37434 7.80886L9.54684 8.05431ZM9.90209 7.73916C10.0038 7.62046 10.0671 7.48691 10.0671 7.34076H9.76714C9.76714 7.39521 9.74444 7.46211 9.67434 7.54396L9.90209 7.73916ZM10.0671 7.34076C10.0671 7.22956 10.0534 7.12706 10.0193 7.03936L9.73974 7.14806C9.75574 7.18926 9.76714 7.25146 9.76714 7.34076H10.0671ZM10.0203 7.04186C9.98664 6.95056 9.93284 6.87196 9.85959 6.80846L9.66314 7.03521C9.69729 7.06481 9.72229 7.10081 9.73879 7.14556L10.0203 7.04186ZM9.86224 6.81086C9.70509 6.66796 9.48074 6.61071 9.21889 6.61071V6.91071C9.44399 6.91071 9.58129 6.96086 9.66044 7.03281L9.86224 6.81086ZM9.21889 6.61071C8.93624 6.61071 8.66469 6.66891 8.40564 6.78491L8.52824 7.05876C8.74894 6.95991 8.97874 6.91071 9.21889 6.91071V6.61071ZM8.39984 6.78766C8.39624 6.78946 8.38624 6.79331 8.36489 6.79331V7.09331C8.42229 7.09331 8.48029 7.08286 8.53399 7.05601L8.39984 6.78766ZM8.36489 6.79331C8.36729 6.79331 8.36974 6.79361 8.37209 6.79416C8.37439 6.79466 8.37594 6.79531 8.37674 6.79566C8.37814 6.79636 8.37534 6.79536 8.36889 6.78891L8.15674 7.00106C8.20904 7.05336 8.27919 7.09331 8.36489 7.09331V6.79331ZM8.37494 6.79531C8.37914 6.80001 8.36984 6.79451 8.36984 6.75531H8.06984C8.06984 6.83791 8.08924 6.92546 8.15069 6.99461L8.37494 6.79531ZM8.36984 6.75531C8.36984 6.75271 8.37014 6.75191 8.37004 6.75231C8.36999 6.75246 8.36994 6.75266 8.36979 6.75296C8.36969 6.75321 8.36959 6.75336 8.36964 6.75336C8.36964 6.75331 8.36979 6.75301 8.37029 6.75246C8.37079 6.75191 8.37159 6.75101 8.37289 6.74981C8.37544 6.74741 8.37994 6.74386 8.38719 6.73961L8.23509 6.48101C8.13714 6.53866 8.06984 6.63191 8.06984 6.75531H8.36984ZM8.37889 6.74416C8.65354 6.60516 8.95774 6.53471 9.29409 6.53471V6.23471C8.91429 6.23471 8.56319 6.31466 8.24344 6.47646L8.37889 6.74416ZM9.29409 6.53471C9.54979 6.53471 9.75144 6.60736 9.91009 6.74506L10.1067 6.51851C9.88589 6.32681 9.61129 6.23471 9.29409 6.23471V6.53471ZM9.91219 6.74686C10.0738 6.88201 10.1538 7.05416 10.1538 7.27631H10.4538C10.4538 6.96856 10.3369 6.71096 10.1046 6.51671L9.91219 6.74686ZM10.1538 7.27631C10.1538 7.48566 10.0489 7.70656 9.79864 7.94011L10.0033 8.15941C10.2902 7.89171 10.4538 7.59696 10.4538 7.27631H10.1538ZM9.80009 7.93876C9.68774 8.04091 9.56479 8.13661 9.43109 8.22576L9.59749 8.47536C9.74304 8.37831 9.87794 8.27346 10.0019 8.16076L9.80009 7.93876ZM9.43184 8.22521C9.29479 8.31541 9.16124 8.40566 9.03129 8.49591L9.20239 8.74231C9.33024 8.65351 9.46169 8.56471 9.59674 8.47586L9.43184 8.22521ZM9.03364 8.49431C8.90184 8.58216 8.78204 8.66871 8.67449 8.75401L8.86089 8.98906C8.96104 8.90966 9.07399 8.82791 9.20004 8.74391L9.03364 8.49431ZM8.67449 8.75401C8.55869 8.84586 8.46864 8.94906 8.41979 9.06631L8.69669 9.18166C8.71944 9.12706 8.76904 9.06191 8.86089 8.98906L8.67449 8.75401ZM8.55824 9.27396H10.089V8.97396H8.55824V9.27396Z" fill="#1C1C1C"/>
<path d="M8 14.6875C11.6934 14.6875 14.6875 11.6934 14.6875 8C14.6875 4.3066 11.6934 1.3125 8 1.3125C4.3066 1.3125 1.3125 4.3066 1.3125 8C1.3125 11.6934 4.3066 14.6875 8 14.6875Z" stroke="#1C1C1C" stroke-width="1.25"/>
</svg>
