<svg width="20" height="20" viewBox="0 0 20 20" fill="none" xmlns="http://www.w3.org/2000/svg">
<g clip-path="url(#clip0_13793_23978)">
<path d="M3.33337 5.29443L5.34206 8.90207V11.1026L3.33572 14.7032L3.33337 5.29443Z" fill="#5B57A2"/>
<path d="M11.0459 7.58929L12.9281 6.43012L16.7802 6.42651L11.0459 9.95623V7.58929Z" fill="#D90751"/>
<path d="M11.0352 5.27321L11.0459 10.0496L9.03247 8.80655V1.66669L11.0353 5.27321H11.0352Z" fill="#FAB718"/>
<path d="M16.7801 6.42655L12.9279 6.43016L11.0352 5.27321L9.03247 1.66669L16.78 6.42655H16.7801Z" fill="#ED6F26"/>
<path d="M11.0459 14.7231V12.4058L9.03247 11.1863L9.03358 18.3333L11.0459 14.7231Z" fill="#63B22F"/>
<path d="M12.9234 13.5746L5.34192 8.90207L3.33337 5.29443L16.772 13.5698L12.9233 13.5746H12.9234Z" fill="#1487C9"/>
<path d="M9.03369 18.3334L11.0457 14.7233L12.9232 13.5747L16.7718 13.5699L9.03369 18.3334Z" fill="#017F36"/>
<path d="M3.33569 14.7032L9.04894 11.1865L7.12817 10.0024L5.34203 11.1027L3.33569 14.7032Z" fill="#984995"/>
</g>
<defs>
<clipPath id="clip0_13793_23978">
<rect width="13.5417" height="16.6667" fill="white" transform="translate(3.33337 1.66669)"/>
</clipPath>
</defs>
</svg>
