<svg width="20" height="20" viewBox="0 0 20 20" fill="none" xmlns="http://www.w3.org/2000/svg">
<path d="M13.6106 2.82661C13.472 2.68233 13.3121 2.58696 13.1194 2.53372C12.8664 2.46378 12.5309 2.50535 12.3164 2.63323C12.2088 2.69735 11.9895 2.86233 10.7287 3.82766C10.3084 4.14947 9.82173 4.52155 9.64724 4.65449C9.3183 4.90515 9.18585 5.05052 9.1007 5.25457C8.96435 5.58121 8.97627 5.95708 9.13227 6.25025C9.20088 6.37921 9.5138 6.81169 9.59323 6.88734C9.69503 6.9843 9.87009 7.08497 10.019 7.13222C10.1947 7.18792 10.4756 7.19398 10.6327 7.14546L10.741 7.11204L10.9678 7.4247C11.3451 7.94493 11.3887 8.00776 11.3887 8.03082C11.3887 8.04301 11.2194 8.16314 11.0124 8.2978C10.8054 8.43246 10.5683 8.58734 10.4855 8.64195C10.23 8.81057 9.67255 9.17677 9.3359 9.39717C8.41721 9.99858 7.21384 10.7873 6.71075 11.1177L5.81916 11.7031C5.64084 11.8201 5.36989 11.9982 5.21705 12.0989C5.0642 12.1995 4.44414 12.6059 3.83914 13.0018C2.25507 14.0386 2.31852 13.9941 2.13149 14.1997C1.80865 14.5548 1.64325 15.026 1.6694 15.5162C1.69341 15.9669 1.79477 16.2269 2.12123 16.6754C2.53655 17.2459 2.9999 17.499 3.63071 17.5C3.91551 17.5004 4.03966 17.4784 4.28111 17.3848C4.51955 17.2923 4.63091 17.2075 5.23175 16.6614C5.54092 16.3803 5.97671 15.9844 6.20018 15.7816C6.42368 15.5787 6.8827 15.1612 7.22023 14.8538C7.55776 14.5464 7.9694 14.1726 8.13498 14.023C8.30056 13.8735 8.66574 13.5424 8.94652 13.2872C9.22729 13.032 9.71187 12.5921 10.0234 12.3097C10.9748 11.4471 12.484 10.0775 12.57 9.99844C12.7292 9.85235 12.7165 9.85349 12.8027 9.97755C12.8458 10.0395 12.8897 10.1009 12.9002 10.1139C12.9568 10.1841 13.363 10.7598 13.3725 10.7832C13.3786 10.7984 13.3576 10.8519 13.3257 10.902C13.1075 11.245 13.1138 11.7715 13.3401 12.1185C13.5866 12.4966 13.8061 12.7428 13.9757 12.8316C14.2939 12.9982 14.7395 12.9957 15.0361 12.8258C15.0871 12.7966 15.4779 12.5054 15.9046 12.1787C16.3313 11.8519 16.9669 11.3654 17.3172 11.0975C17.6675 10.8295 18.0023 10.5551 18.0612 10.4876C18.3554 10.1506 18.4176 9.645 18.2159 9.2305C18.1418 9.07826 17.8249 8.65124 17.7094 8.54812C17.5615 8.41599 17.3563 8.32371 17.1378 8.29103C16.9767 8.26693 16.9246 8.26871 16.769 8.30367C16.5909 8.34367 16.5872 8.34355 16.5562 8.29678C16.5389 8.27059 16.3721 8.03745 16.1857 7.77869C15.9992 7.51991 15.6487 7.03224 15.4067 6.69496C15.1647 6.3577 14.7947 5.84322 14.5845 5.55169C14.3744 5.26016 14.1476 4.94467 14.0807 4.85061L13.9589 4.67959L14.0514 4.4855C14.2042 4.16473 14.2198 3.86293 14.1001 3.54276C14.04 3.38177 13.7835 3.00656 13.6106 2.82661Z" stroke="#1C1C1C" stroke-width="1.25"/>
</svg>
