<svg width="40" height="40" viewBox="0 0 40 40" fill="none" xmlns="http://www.w3.org/2000/svg">
<path d="M13.9398 31.8144L9.27122 30.0388C8.24406 29.6481 7.74066 28.5835 8.13319 27.632C8.53528 26.6574 9.72567 26.1652 10.792 26.5327L20.0236 29.703M20.0236 33.8364L29.2579 36.8882C30.3089 37.2356 31.4701 36.7467 31.8644 35.791C32.2625 34.826 31.7293 33.7487 30.6735 33.3848L25.8699 31.7293M21.6828 13.1103L23.336 14.6321M23.336 14.6321L24.9778 16.1434M23.336 14.6321L21.6828 16.1431M23.336 14.6321L25.0012 13.1103M13.9398 13.1103L15.593 14.6321M15.593 14.6321L17.2348 16.1434M15.593 14.6321L13.9398 16.1431M15.593 14.6321L17.2582 13.1103M10.7604 36.8608L30.6863 29.9919C31.7349 29.6304 32.2644 28.5604 31.8689 27.6019C31.4734 26.6435 30.3027 26.1595 29.2541 26.521L9.32817 33.39C8.27955 33.7514 7.75008 34.8215 8.14557 35.7799C8.54106 36.7384 9.71175 37.2223 10.7604 36.8608ZM21.3856 3.15772C26.5065 4.00937 30.1619 7.63425 30.511 12.2072C30.7439 15.2579 29.0194 18.5852 26.2775 20.3761C24.3166 21.6569 24.2306 21.7735 24.2306 23.152C24.2306 24.2678 24.1787 24.4324 23.7061 24.8165C23.1878 25.2376 23.1372 25.2427 19.4356 25.2427C15.7225 25.2427 15.6851 25.2388 15.203 24.816C14.7846 24.4491 14.7164 24.2287 14.7164 23.2404C14.7164 22.6085 14.6264 21.944 14.5166 21.7639C14.4066 21.5837 13.7241 21.0453 13.0001 20.5671C9.83878 18.4801 8.19203 15.4663 8.43206 12.2072C8.6162 9.7074 9.68298 7.6207 11.6657 5.88229C14.2609 3.60666 17.9189 2.58121 21.3856 3.15772Z" stroke="#1C1C1C" stroke-linecap="round"/>
</svg>
