<svg width="24" height="24" viewBox="0 0 24 24" fill="none" xmlns="http://www.w3.org/2000/svg">
<path d="M6.5625 10.7572V12.0002M6.5625 12.0002V13.2431M6.5625 12.0002H5.4375M6.5625 12.0002H7.6875M15.4005 17H19.5981C20.8481 17 21.7918 15.8661 21.5648 14.6368L20.5013 8.87855C20.5013 8.38034 20.3221 7.90253 20.0033 7.55024C19.6844 7.19795 19.252 7.00003 18.801 7.00003H5.19903C4.74809 7.00003 4.31563 7.19795 3.99677 7.55024C3.67791 7.90253 3.49878 8.38034 3.49878 8.87855L2.43526 14.6368C2.20822 15.8661 3.15192 17 4.402 17H8.59953L10.2998 14.1822H13.7003L15.4005 17ZM18.5625 12.0001C18.5625 12.9154 17.8909 13.6574 17.0625 13.6574C16.2341 13.6574 15.5625 12.9154 15.5625 12.0001C15.5625 11.0849 16.2341 10.3429 17.0625 10.3429C17.8909 10.3429 18.5625 11.0849 18.5625 12.0001Z" stroke="#1C1C1C" stroke-width="1.25" stroke-linecap="round" stroke-linejoin="round"/>
</svg>
