<svg width="24" height="24" viewBox="0 0 24 24" fill="none" xmlns="http://www.w3.org/2000/svg">
<path d="M22.0001 8.00006V6.00006C22.0001 5.46963 21.7893 4.96092 21.4143 4.58585C21.0392 4.21077 20.5305 4.00006 20.0001 4.00006H4.00006C3.46963 4.00006 2.96092 4.21077 2.58585 4.58585C2.21078 4.96092 2.00006 5.46963 2.00006 6.00006V18.0001C2.00006 18.5305 2.21078 19.0392 2.58585 19.4143C2.96092 19.7893 3.46963 20.0001 4.00006 20.0001H10.0001M19.2491 17.0309L19.9091 22L17.1818 20.3636L14.4545 22L15.1145 17.0255M13.3636 13.8182C13.3636 15.9269 15.0731 17.6364 17.1818 17.6364C19.2905 17.6364 21 15.9269 21 13.8182C21 11.7095 19.2905 10 17.1818 10C15.0731 10 13.3636 11.7095 13.3636 13.8182Z" stroke="#1C1C1C" stroke-width="1.25" stroke-linecap="round" stroke-linejoin="round"/>
</svg>
