<svg width="24" height="24" viewBox="0 0 1024 1024" fill="none" xmlns="http://www.w3.org/2000/svg">
<rect width="24" height="24" fill="white"/>
<path fill-rule="evenodd" clip-rule="evenodd" d="M281.36 914.446C506.202 1045.69 794.871 969.821 926.119 744.978C1057.37 520.136 981.494 231.467 756.652 100.219C688.893 60.6661 615.338 39.9235 542.041 36.3997C566.268 45.429 590.056 56.6496 613.147 70.1288C830.618 197.074 904.003 476.278 777.058 693.748C670.974 875.482 458.561 956.594 264.702 904.263C270.16 907.754 275.713 911.15 281.36 914.446Z" fill="#FF3636"/>
<path fill-rule="evenodd" clip-rule="evenodd" d="M685.401 566.876C689.932 393.201 552.814 248.736 379.138 244.205C205.463 239.674 60.9982 376.792 56.4668 550.467C55.1016 602.796 66.5956 652.473 88.0745 696.469C85.5743 679.404 84.496 661.893 84.9612 644.064C89.344 476.083 229.072 343.46 397.053 347.843C537.441 351.506 653.133 449.702 684.794 579.918C685.084 575.595 685.287 571.247 685.401 566.876Z" fill="#1C1C1C"/>
<path fill-rule="evenodd" clip-rule="evenodd" d="M663.484 735.381C818.862 611.831 844.664 385.715 721.113 230.337C597.563 74.9585 371.447 49.1569 216.069 172.707C169.256 209.931 134.205 256.464 111.457 307.568C124.558 292.855 139.094 279.058 155.04 266.378C305.324 146.879 524.026 171.834 643.526 322.118C743.397 447.718 742.371 621.106 651.611 744.434C655.612 741.511 659.57 738.494 663.484 735.381Z" fill="#FF3636"/>
<path fill-rule="evenodd" clip-rule="evenodd" d="M451.28 415.859C327.012 369.967 189.07 433.504 143.179 557.772C97.287 682.04 160.824 819.982 285.092 865.873C322.525 879.697 361.198 883.592 398.223 878.888C385.299 876.505 372.402 872.988 359.654 868.28C239.46 823.893 178.006 690.474 222.394 570.28C259.493 469.821 358.788 410.397 460.573 419.508C457.514 418.234 454.417 417.017 451.28 415.859Z" fill="#1C1C1C"/>
</svg>
