<svg width="24" height="24" viewBox="0 0 24 24" fill="none" xmlns="http://www.w3.org/2000/svg">
<path d="M7.46729 7.35864L5.64888 5.61293M17.11 7.35864L18.9284 5.61293M2.69214 12.2512L5.21288 12.2483M19.2896 12.2545L21.8103 12.2516M12.2838 5.25842L12.2324 2.73821M14.3184 18.2816L10.1909 18.2752M12.2576 8.64447V10.7685M12.251 13.6154V14.5973M22.2525 12.2513C22.2525 17.7748 17.7748 22.2525 12.2513 22.2525C6.72771 22.2525 2.25 17.7748 2.25 12.2513C2.25 6.72771 6.72771 2.25 12.2513 2.25C17.7748 2.25 22.2525 6.72771 22.2525 12.2513ZM13.6148 12.2513C13.6148 13.0045 13.0042 13.6151 12.251 13.6151C11.4978 13.6151 10.8872 13.0045 10.8872 12.2513C10.8872 11.498 11.4978 10.8875 12.251 10.8875C13.0042 10.8875 13.6148 11.498 13.6148 12.2513Z" stroke="#1C1C1C" stroke-width="1.25" stroke-linecap="round" stroke-linejoin="round"/>
</svg>
