<svg width="24" height="24" viewBox="0 0 24 24" fill="none" xmlns="http://www.w3.org/2000/svg">
<g clip-path="url(#clip0_21_10982)">
<mask id="path-1-inside-1_21_10982" fill="white">
<path d="M12.2513 2.25C6.73654 2.25 2.25 6.73654 2.25 12.2513C2.25 17.766 6.73654 22.2525 12.2513 22.2525C17.766 22.2525 22.2525 17.766 22.2525 12.2513C22.2525 6.73654 17.766 2.25 12.2513 2.25ZM12.2513 21.0805C7.38279 21.0805 3.42202 17.1197 3.42202 12.2513C3.42202 7.38279 7.38279 3.42202 12.2513 3.42202C17.1197 3.42202 21.0805 7.38279 21.0805 12.2513C21.0805 17.1197 17.1197 21.0805 12.2513 21.0805Z"/>
</mask>
<path d="M12.2513 2.25C6.73654 2.25 2.25 6.73654 2.25 12.2513C2.25 17.766 6.73654 22.2525 12.2513 22.2525C17.766 22.2525 22.2525 17.766 22.2525 12.2513C22.2525 6.73654 17.766 2.25 12.2513 2.25ZM12.2513 21.0805C7.38279 21.0805 3.42202 17.1197 3.42202 12.2513C3.42202 7.38279 7.38279 3.42202 12.2513 3.42202C17.1197 3.42202 21.0805 7.38279 21.0805 12.2513C21.0805 17.1197 17.1197 21.0805 12.2513 21.0805Z" stroke="#1C1C1C" stroke-width="2.5" mask="url(#path-1-inside-1_21_10982)"/>
<rect x="15.9042" y="7.71443" width="1.25016" height="11.5822" rx="0.625078" transform="rotate(45 15.9042 7.71443)" fill="#1C1C1C"/>
<ellipse cx="9.7511" cy="8.9175" rx="1.66688" ry="1.66687" stroke="#1C1C1C" stroke-width="1.25"/>
<ellipse cx="14.7516" cy="15.585" rx="1.66687" ry="1.66688" stroke="#1C1C1C" stroke-width="1.25"/>
</g>
<defs>
<clipPath id="clip0_21_10982">
<rect width="20.0025" height="20.0025" fill="white" transform="translate(2.25 2.25)"/>
</clipPath>
</defs>
</svg>
