<svg width="24" height="24" viewBox="0 0 24 24" fill="none" xmlns="http://www.w3.org/2000/svg">
<g clip-path="url(#clip0_21_10982)">
<mask id="path-1-inside-1_21_10982" fill="white">
<path d="M12.0013 2C6.48654 2 2 6.48654 2 12.0013C2 17.516 6.48654 22.0025 12.0013 22.0025C17.516 22.0025 22.0025 17.516 22.0025 12.0013C22.0025 6.48654 17.516 2 12.0013 2ZM12.0013 20.8305C7.13279 20.8305 3.17202 16.8697 3.17202 12.0013C3.17202 7.13279 7.13279 3.17202 12.0013 3.17202C16.8697 3.17202 20.8305 7.13279 20.8305 12.0013C20.8305 16.8697 16.8697 20.8305 12.0013 20.8305Z"/>
</mask>
<path d="M12.0013 2C6.48654 2 2 6.48654 2 12.0013C2 17.516 6.48654 22.0025 12.0013 22.0025C17.516 22.0025 22.0025 17.516 22.0025 12.0013C22.0025 6.48654 17.516 2 12.0013 2ZM12.0013 20.8305C7.13279 20.8305 3.17202 16.8697 3.17202 12.0013C3.17202 7.13279 7.13279 3.17202 12.0013 3.17202C16.8697 3.17202 20.8305 7.13279 20.8305 12.0013C20.8305 16.8697 16.8697 20.8305 12.0013 20.8305Z" stroke="#1C1C1C" stroke-width="2.5" mask="url(#path-1-inside-1_21_10982)"/>
<path d="M16.1001 7.89999L7.91024 16.0899" stroke="black" stroke-width="1.25" stroke-linecap="round"/>
<ellipse cx="9.5011" cy="8.66687" rx="1.66688" ry="1.66687" stroke="#1C1C1C" stroke-width="1.25"/>
<ellipse cx="14.507" cy="15.3369" rx="1.66687" ry="1.66688" stroke="#1C1C1C" stroke-width="1.25"/>
</g>
<defs>
<clipPath id="clip0_21_10982">
<rect width="20.0025" height="20.0025" fill="white" transform="translate(2 2)"/>
</clipPath>
</defs>
</svg>
